G04 EAGLE Gerber RS-274X export*
G75*
%MOMM*%
%FSLAX34Y34*%
%LPD*%
%INTop Copper*%
%IPPOS*%
%AMOC8*
5,1,8,0,0,1.08239X$1,22.5*%
G01*
%ADD10R,0.600000X0.500000*%
%ADD11R,0.500000X0.600000*%
%ADD12R,1.000000X0.700000*%
%ADD13R,0.600000X0.700000*%
%ADD14R,0.700000X1.500000*%
%ADD15R,0.711200X1.498600*%
%ADD16C,0.600000*%
%ADD17C,0.609600*%
%ADD18R,0.600000X0.600000*%
%ADD19R,1.500000X1.500000*%
%ADD20C,0.787400*%
%ADD21R,0.900000X0.280000*%
%ADD22C,0.280000*%
%ADD23R,5.600000X5.600000*%
%ADD24R,0.800000X1.900000*%
%ADD25R,2.000000X2.500000*%
%ADD26R,0.400000X0.400000*%
%ADD27R,1.000000X0.800000*%
%ADD28R,1.100000X0.500000*%
%ADD29R,1.100000X0.250000*%
%ADD30R,1.200000X1.700000*%
%ADD31R,1.500000X1.700000*%
%ADD32R,1.000000X1.900000*%
%ADD33C,1.100000*%
%ADD34R,0.500000X0.800000*%
%ADD35R,1.300000X1.500000*%
%ADD36R,1.500000X1.300000*%
%ADD37R,1.000000X1.100000*%
%ADD38R,1.100000X1.000000*%
%ADD39R,1.070000X2.160000*%
%ADD40R,0.635000X1.270000*%
%ADD41R,0.900000X1.000000*%
%ADD42R,0.550000X0.300000*%
%ADD43R,0.300000X0.550000*%
%ADD44R,1.530000X1.530000*%
%ADD45C,1.530000*%
%ADD46P,1.759533X8X22.500000*%
%ADD47C,0.900000*%
%ADD48C,0.403200*%
%ADD49C,0.300000*%
%ADD50C,0.150000*%
%ADD51C,0.200000*%
%ADD52C,0.800000*%
%ADD53C,1.000000*%
%ADD54C,0.750000*%
%ADD55C,2.000000*%
%ADD56C,0.500000*%
%ADD57C,1.500000*%
%ADD58C,0.503200*%

G36*
X244008Y307802D02*
X244008Y307802D01*
X244017Y307801D01*
X244105Y307822D01*
X244195Y307840D01*
X244202Y307845D01*
X244210Y307847D01*
X244283Y307901D01*
X244359Y307953D01*
X244363Y307960D01*
X244370Y307965D01*
X244417Y308043D01*
X244466Y308120D01*
X244467Y308129D01*
X244472Y308136D01*
X244499Y308300D01*
X244499Y327400D01*
X244498Y327408D01*
X244499Y327417D01*
X244478Y327505D01*
X244460Y327595D01*
X244455Y327602D01*
X244453Y327610D01*
X244399Y327683D01*
X244347Y327759D01*
X244340Y327763D01*
X244335Y327770D01*
X244257Y327817D01*
X244180Y327866D01*
X244171Y327867D01*
X244164Y327872D01*
X244000Y327899D01*
X232149Y327899D01*
X232149Y378200D01*
X232148Y378206D01*
X232149Y378212D01*
X232148Y378214D01*
X232149Y378217D01*
X232128Y378305D01*
X232110Y378395D01*
X232105Y378402D01*
X232103Y378410D01*
X232049Y378483D01*
X231997Y378559D01*
X231990Y378563D01*
X231985Y378570D01*
X231907Y378617D01*
X231830Y378666D01*
X231821Y378667D01*
X231814Y378672D01*
X231650Y378699D01*
X148350Y378699D01*
X148342Y378698D01*
X148333Y378699D01*
X148245Y378678D01*
X148155Y378660D01*
X148148Y378655D01*
X148140Y378653D01*
X148067Y378599D01*
X147991Y378547D01*
X147987Y378540D01*
X147980Y378535D01*
X147933Y378457D01*
X147884Y378380D01*
X147883Y378371D01*
X147878Y378364D01*
X147851Y378200D01*
X147851Y327899D01*
X136000Y327899D01*
X135992Y327898D01*
X135983Y327899D01*
X135895Y327878D01*
X135805Y327860D01*
X135798Y327855D01*
X135790Y327853D01*
X135717Y327799D01*
X135641Y327747D01*
X135637Y327740D01*
X135630Y327735D01*
X135583Y327657D01*
X135534Y327580D01*
X135533Y327571D01*
X135528Y327564D01*
X135501Y327400D01*
X135501Y308300D01*
X135502Y308292D01*
X135501Y308283D01*
X135522Y308195D01*
X135540Y308105D01*
X135545Y308098D01*
X135547Y308090D01*
X135601Y308017D01*
X135653Y307941D01*
X135660Y307937D01*
X135665Y307930D01*
X135743Y307883D01*
X135820Y307834D01*
X135829Y307833D01*
X135836Y307828D01*
X136000Y307801D01*
X244000Y307801D01*
X244008Y307802D01*
G37*
D10*
X80500Y173000D03*
X89500Y173000D03*
X80500Y140000D03*
X89500Y140000D03*
X89500Y182000D03*
X80500Y182000D03*
D11*
X106000Y173500D03*
X106000Y182500D03*
D12*
X108500Y141000D03*
D13*
X125500Y141000D03*
X125500Y161000D03*
X106500Y161000D03*
D14*
X562300Y290000D03*
X551300Y290000D03*
X540300Y290000D03*
X529300Y290000D03*
X518300Y290000D03*
X507300Y290000D03*
X496300Y290000D03*
X485300Y290000D03*
D15*
X485300Y150000D03*
X496300Y150000D03*
X507300Y150000D03*
X518300Y150000D03*
X529300Y150000D03*
X540300Y150000D03*
X551300Y150000D03*
X562300Y150000D03*
D16*
X554300Y242500D03*
X542300Y242500D03*
X530300Y242500D03*
X518300Y242500D03*
X506300Y242500D03*
X494300Y242500D03*
X482300Y242500D03*
X554300Y227500D03*
X542300Y227500D03*
X530300Y227500D03*
X518300Y227500D03*
X506300Y227500D03*
X494300Y227500D03*
X482300Y227500D03*
X554300Y212500D03*
X542300Y212500D03*
X530300Y212500D03*
X518300Y212500D03*
X506300Y212500D03*
X494300Y212500D03*
X482300Y212500D03*
X554300Y197500D03*
X542300Y197500D03*
X530300Y197500D03*
X518300Y197500D03*
X506300Y197500D03*
X494300Y197500D03*
X482300Y197500D03*
X554300Y182500D03*
X542300Y182500D03*
X530300Y182500D03*
X518300Y182500D03*
X506300Y182500D03*
X494300Y182500D03*
X482300Y182500D03*
D17*
X518300Y167500D03*
X506300Y167500D03*
X494300Y167500D03*
D18*
X482300Y167500D03*
D19*
X574300Y253750D03*
X574300Y231250D03*
X574300Y208750D03*
X574300Y186250D03*
D16*
X554300Y257500D03*
X542300Y257500D03*
X530300Y257500D03*
X518300Y257500D03*
X506300Y257500D03*
X494300Y257500D03*
X482300Y257500D03*
D11*
X499600Y110000D03*
X499600Y101000D03*
X470000Y405500D03*
X470000Y414500D03*
D10*
X570500Y335000D03*
X579500Y335000D03*
X570500Y405000D03*
X579500Y405000D03*
X445100Y410200D03*
X454100Y410200D03*
X445100Y400200D03*
X454100Y400200D03*
X440500Y390000D03*
X449500Y390000D03*
X440500Y380000D03*
X449500Y380000D03*
X440500Y370000D03*
X449500Y370000D03*
X570500Y375000D03*
X579500Y375000D03*
D18*
X570500Y365000D03*
X579500Y365000D03*
X536000Y82500D03*
X536000Y73500D03*
X523000Y75500D03*
X523000Y66500D03*
X511000Y73500D03*
X511000Y64500D03*
X505000Y410500D03*
X505000Y419500D03*
X485000Y410500D03*
X485000Y419500D03*
X495000Y410500D03*
X495000Y419500D03*
X395000Y224500D03*
X395000Y215500D03*
X454260Y108380D03*
X454260Y117380D03*
X429300Y189800D03*
X420300Y189800D03*
D10*
X333000Y116900D03*
X324000Y116900D03*
X422100Y168700D03*
X431100Y168700D03*
X407000Y108100D03*
X416000Y108100D03*
D11*
X351900Y202000D03*
X351900Y211000D03*
D20*
X207100Y140550D03*
X207100Y127850D03*
X194400Y140550D03*
X194400Y127850D03*
X181700Y140550D03*
X181700Y127850D03*
D21*
X473300Y388800D03*
D22*
X470200Y383800D02*
X476400Y383800D01*
X476400Y378800D02*
X470200Y378800D01*
X470200Y373800D02*
X476400Y373800D01*
X476400Y368800D02*
X470200Y368800D01*
X470200Y363800D02*
X476400Y363800D01*
X476400Y358800D02*
X470200Y358800D01*
X470200Y353800D02*
X476400Y353800D01*
X476400Y348800D02*
X470200Y348800D01*
X470200Y343800D02*
X476400Y343800D01*
X476400Y338800D02*
X470200Y338800D01*
X470200Y333800D02*
X476400Y333800D01*
X480300Y329900D02*
X480300Y323700D01*
X485300Y323700D02*
X485300Y329900D01*
X490300Y329900D02*
X490300Y323700D01*
X495300Y323700D02*
X495300Y329900D01*
X500300Y329900D02*
X500300Y323700D01*
X505300Y323700D02*
X505300Y329900D01*
X510300Y329900D02*
X510300Y323700D01*
X515300Y323700D02*
X515300Y329900D01*
X520300Y329900D02*
X520300Y323700D01*
X525300Y323700D02*
X525300Y329900D01*
X530300Y329900D02*
X530300Y323700D01*
X535300Y323700D02*
X535300Y329900D01*
X539200Y333800D02*
X545400Y333800D01*
X545400Y338800D02*
X539200Y338800D01*
X539200Y343800D02*
X545400Y343800D01*
X545400Y348800D02*
X539200Y348800D01*
X539200Y353800D02*
X545400Y353800D01*
X545400Y358800D02*
X539200Y358800D01*
X539200Y363800D02*
X545400Y363800D01*
X545400Y368800D02*
X539200Y368800D01*
X539200Y373800D02*
X545400Y373800D01*
X545400Y378800D02*
X539200Y378800D01*
X539200Y383800D02*
X545400Y383800D01*
X545400Y388800D02*
X539200Y388800D01*
X535300Y392700D02*
X535300Y398900D01*
X530300Y398900D02*
X530300Y392700D01*
X525300Y392700D02*
X525300Y398900D01*
X520300Y398900D02*
X520300Y392700D01*
X515300Y392700D02*
X515300Y398900D01*
X510300Y398900D02*
X510300Y392700D01*
X505300Y392700D02*
X505300Y398900D01*
X500300Y398900D02*
X500300Y392700D01*
X495300Y392700D02*
X495300Y398900D01*
X490300Y398900D02*
X490300Y392700D01*
X485300Y392700D02*
X485300Y398900D01*
X480300Y398900D02*
X480300Y392700D01*
D23*
X507800Y361300D03*
D18*
X449500Y360000D03*
X440500Y360000D03*
X80000Y65500D03*
X80000Y74500D03*
D24*
X370750Y247300D03*
X383450Y247300D03*
X396150Y247300D03*
X408850Y247300D03*
X408850Y326300D03*
X396150Y326300D03*
X383450Y326300D03*
X370750Y326300D03*
D18*
X254000Y65500D03*
X254000Y74500D03*
X30000Y65500D03*
X30000Y74500D03*
D10*
X350500Y394600D03*
X359500Y394600D03*
X359500Y444600D03*
X350500Y444600D03*
X399500Y444600D03*
X390500Y444600D03*
X390500Y394600D03*
X399500Y394600D03*
X310500Y394600D03*
X319500Y394600D03*
X319500Y444600D03*
X310500Y444600D03*
D18*
X185000Y65500D03*
X185000Y74500D03*
X145000Y65500D03*
X145000Y74500D03*
X157000Y65500D03*
X157000Y74500D03*
D25*
X30000Y397500D03*
X92000Y397500D03*
X92000Y512500D03*
X30000Y512500D03*
D26*
X516000Y46000D03*
X516000Y52000D03*
X510000Y52000D03*
X510000Y46000D03*
X494754Y438128D03*
X494754Y432128D03*
X500754Y432128D03*
X500754Y438128D03*
D27*
X366000Y410100D03*
X366000Y429100D03*
X344000Y419600D03*
X406000Y410100D03*
X406000Y429100D03*
X384000Y419600D03*
D28*
X64500Y182000D03*
X64500Y174000D03*
D29*
X64500Y162500D03*
X64500Y152500D03*
X64500Y147500D03*
X64500Y137500D03*
D28*
X64500Y118000D03*
X64500Y126000D03*
D29*
X64500Y132500D03*
X64500Y142500D03*
X64500Y157500D03*
X64500Y167500D03*
D30*
X59000Y201500D03*
D31*
X17000Y201500D03*
X17000Y98500D03*
D30*
X59000Y98500D03*
D28*
X64500Y332000D03*
X64500Y324000D03*
D29*
X64500Y312500D03*
X64500Y302500D03*
X64500Y297500D03*
X64500Y287500D03*
D28*
X64500Y268000D03*
X64500Y276000D03*
D29*
X64500Y282500D03*
X64500Y292500D03*
X64500Y307500D03*
X64500Y317500D03*
D30*
X59000Y351500D03*
D31*
X17000Y351500D03*
X17000Y248500D03*
D30*
X59000Y248500D03*
D18*
X89500Y163000D03*
X80500Y163000D03*
X89500Y127000D03*
X80500Y127000D03*
X94500Y285000D03*
X85500Y285000D03*
X94500Y310000D03*
X85500Y310000D03*
X94500Y350000D03*
X85500Y350000D03*
X89500Y95000D03*
X80500Y95000D03*
D11*
X560000Y429500D03*
X560000Y420500D03*
D18*
X520000Y429500D03*
X520000Y420500D03*
D32*
X220000Y47500D03*
X250000Y47500D03*
D33*
X238500Y20000D02*
X231500Y20000D01*
D32*
X15000Y47500D03*
X45000Y47500D03*
D33*
X33500Y20000D02*
X26500Y20000D01*
D32*
X65000Y47500D03*
X95000Y47500D03*
D33*
X83500Y20000D02*
X76500Y20000D01*
D32*
X170000Y47500D03*
X200000Y47500D03*
D33*
X188500Y20000D02*
X181500Y20000D01*
D18*
X235000Y74500D03*
X235000Y65500D03*
X20000Y74500D03*
X20000Y65500D03*
X195000Y74500D03*
X195000Y65500D03*
X70000Y74500D03*
X70000Y65500D03*
D34*
X426500Y111020D03*
X438500Y111020D03*
D35*
X129500Y120000D03*
X110500Y120000D03*
X185500Y475000D03*
X204500Y475000D03*
D36*
X515000Y114500D03*
X515000Y95500D03*
D35*
X565500Y349800D03*
X584500Y349800D03*
D11*
X40000Y65500D03*
X40000Y74500D03*
X90000Y65500D03*
X90000Y74500D03*
X385000Y355500D03*
X385000Y364500D03*
D18*
X604500Y435000D03*
X595500Y435000D03*
D37*
X451500Y430700D03*
X468500Y430700D03*
D38*
X535000Y113500D03*
X535000Y96500D03*
X370000Y351500D03*
X370000Y368500D03*
X575400Y420000D03*
X575400Y437000D03*
D37*
X566500Y320000D03*
X583500Y320000D03*
X566500Y390000D03*
X583500Y390000D03*
D39*
X215400Y450000D03*
X190000Y450000D03*
X164600Y450000D03*
D40*
X190000Y350000D03*
D35*
X244500Y475000D03*
X225500Y475000D03*
D27*
X328000Y410100D03*
X328000Y429100D03*
X302000Y419600D03*
D41*
X533500Y428500D03*
X533500Y411500D03*
X546500Y411500D03*
X546500Y428500D03*
D42*
X406250Y128800D03*
X406250Y133800D03*
X406250Y138800D03*
X406250Y143800D03*
X406250Y148800D03*
X406250Y153800D03*
X406250Y158800D03*
X406250Y163800D03*
X406250Y168800D03*
X406250Y173800D03*
X406250Y178800D03*
X406250Y183800D03*
D43*
X400000Y190050D03*
X395000Y190050D03*
X390000Y190050D03*
X385000Y190050D03*
X380000Y190050D03*
X375000Y190050D03*
X370000Y190050D03*
X365000Y190050D03*
X360000Y190050D03*
X355000Y190050D03*
X350000Y190050D03*
X345000Y190050D03*
D42*
X338750Y183800D03*
X338750Y178800D03*
X338750Y173800D03*
X338750Y168800D03*
X338750Y163800D03*
X338750Y158800D03*
X338750Y153800D03*
X338750Y148800D03*
X338750Y143800D03*
X338750Y138800D03*
X338750Y133800D03*
X338750Y128800D03*
D43*
X345000Y122550D03*
X350000Y122550D03*
X355000Y122550D03*
X360000Y122550D03*
X365000Y122550D03*
X370000Y122550D03*
X375000Y122550D03*
X380000Y122550D03*
X385000Y122550D03*
X390000Y122550D03*
X395000Y122550D03*
X400000Y122550D03*
D23*
X372500Y156300D03*
D10*
X533200Y315100D03*
X542200Y315100D03*
D44*
X457200Y482600D03*
D45*
X457200Y508000D03*
X482600Y482600D03*
X482600Y508000D03*
X508000Y482600D03*
X508000Y508000D03*
X533400Y482600D03*
X533400Y508000D03*
X558800Y482600D03*
X558800Y508000D03*
X584200Y482600D03*
X584200Y508000D03*
X609600Y482600D03*
X609600Y508000D03*
X635000Y482600D03*
X635000Y508000D03*
D44*
X279400Y25400D03*
D45*
X279400Y50800D03*
X304800Y25400D03*
X304800Y50800D03*
X330200Y25400D03*
X330200Y50800D03*
X355600Y25400D03*
X355600Y50800D03*
X381000Y25400D03*
X381000Y50800D03*
X406400Y25400D03*
X406400Y50800D03*
X431800Y25400D03*
X431800Y50800D03*
X457200Y25400D03*
X457200Y50800D03*
D44*
X416560Y508000D03*
D45*
X391160Y508000D03*
X365760Y508000D03*
X340360Y508000D03*
X314960Y508000D03*
X289560Y508000D03*
X264160Y508000D03*
X238760Y508000D03*
X213360Y508000D03*
X187960Y508000D03*
D44*
X457200Y457200D03*
D45*
X482600Y457200D03*
X508000Y457200D03*
X533400Y457200D03*
X558800Y457200D03*
X584200Y457200D03*
X609600Y457200D03*
X635000Y457200D03*
D44*
X508000Y25400D03*
D45*
X533400Y25400D03*
X558800Y25400D03*
X584200Y25400D03*
X609600Y25400D03*
X635000Y25400D03*
D44*
X330200Y304800D03*
D45*
X330200Y279400D03*
X330200Y254000D03*
X330200Y228600D03*
D44*
X152400Y266700D03*
D45*
X177800Y266700D03*
X203200Y266700D03*
X228600Y266700D03*
D44*
X317500Y469900D03*
D45*
X342900Y469900D03*
X368300Y469900D03*
X393700Y469900D03*
D18*
X50000Y74500D03*
X50000Y65500D03*
X109000Y74500D03*
X109000Y65500D03*
X374600Y214200D03*
X365600Y214200D03*
X497000Y45500D03*
X497000Y54500D03*
D11*
X482600Y39300D03*
X482600Y30300D03*
X434000Y434500D03*
X434000Y425500D03*
D18*
X409800Y439100D03*
X409800Y448100D03*
D44*
X457200Y88900D03*
D45*
X431800Y88900D03*
X406400Y88900D03*
X381000Y88900D03*
D46*
X434340Y152400D03*
X434340Y127000D03*
X103900Y366200D03*
X355600Y88900D03*
X105100Y331400D03*
X80000Y202100D03*
X635000Y431800D03*
D47*
X43300Y226500D03*
X96600Y111500D03*
X86600Y320800D03*
X112300Y286800D03*
X132000Y97000D03*
X413000Y200000D03*
D44*
X279400Y228600D03*
D45*
X279400Y254000D03*
X279400Y279400D03*
X279400Y304800D03*
X279400Y330200D03*
X279400Y355600D03*
X279400Y381000D03*
X279400Y406400D03*
X279400Y431800D03*
X279400Y457200D03*
D46*
X39300Y372000D03*
X64700Y372000D03*
D35*
X164500Y475000D03*
X145500Y475000D03*
D18*
X270500Y480000D03*
X279500Y480000D03*
D48*
X94200Y350200D03*
X64600Y332000D03*
X94800Y310000D03*
X94600Y285200D03*
X64600Y268200D03*
X65000Y182000D03*
X80600Y181800D03*
X106200Y182600D03*
X89600Y163000D03*
X89600Y140000D03*
X89800Y126800D03*
X64400Y117800D03*
X108800Y141000D03*
X110800Y120000D03*
X89600Y95000D03*
X20000Y74600D03*
X40000Y74600D03*
X70000Y74400D03*
X90000Y74400D03*
X15200Y47600D03*
X65200Y47200D03*
X170000Y47400D03*
X220200Y47400D03*
X235000Y74600D03*
X195000Y74400D03*
X181800Y140600D03*
X352000Y177000D03*
X362000Y177000D03*
X372000Y177000D03*
X382000Y177000D03*
X392000Y177000D03*
X392000Y167000D03*
X382000Y167000D03*
X372000Y167000D03*
X362000Y167000D03*
X352000Y167000D03*
X352000Y157000D03*
X362000Y157000D03*
X372000Y157000D03*
X382000Y157000D03*
X392000Y157000D03*
X392000Y147000D03*
X382000Y147000D03*
X372000Y147000D03*
X362000Y147000D03*
X352000Y147000D03*
X352000Y137000D03*
X362000Y137000D03*
X372000Y137000D03*
X382000Y137000D03*
X392000Y137000D03*
X488000Y382000D03*
X498000Y382000D03*
X508000Y382000D03*
X518000Y382000D03*
X528000Y382000D03*
X528000Y372000D03*
X518000Y372000D03*
X508000Y372000D03*
X498000Y372000D03*
X488000Y372000D03*
X488000Y362000D03*
X498000Y362000D03*
X508000Y362000D03*
X518000Y362000D03*
X528000Y362000D03*
X528000Y352000D03*
X518000Y352000D03*
X508000Y352000D03*
X498000Y352000D03*
X488000Y352000D03*
X488000Y342000D03*
X498000Y342000D03*
X508000Y342000D03*
X518000Y342000D03*
X528000Y342000D03*
X310400Y444600D03*
X350500Y444700D03*
X319300Y394600D03*
X327800Y410300D03*
X359400Y394400D03*
X366000Y410200D03*
X390300Y444400D03*
X406000Y410100D03*
X399800Y394400D03*
X454100Y410100D03*
X454100Y400300D03*
X449500Y390100D03*
X449300Y379900D03*
X449300Y370100D03*
X470100Y414600D03*
X533400Y411300D03*
X559900Y420500D03*
X579500Y404900D03*
X579300Y375000D03*
X584500Y350200D03*
X579400Y335000D03*
X574500Y253800D03*
X574400Y231300D03*
X574400Y208600D03*
X574500Y185600D03*
X554500Y242500D03*
X554300Y227600D03*
X554200Y212500D03*
X554300Y197500D03*
X496200Y149500D03*
X514600Y95700D03*
D49*
X348800Y133800D02*
X338750Y133800D01*
D50*
X348800Y133800D02*
X352000Y137000D01*
D49*
X394300Y130600D02*
X395000Y129900D01*
X395000Y122550D01*
X399900Y163800D02*
X406250Y163800D01*
X399900Y163800D02*
X399600Y163500D01*
X350000Y183100D02*
X350000Y190050D01*
X350000Y183100D02*
X350200Y182900D01*
D48*
X379900Y115700D03*
D50*
X380000Y115800D02*
X380000Y122550D01*
X380000Y115800D02*
X379900Y115700D01*
D48*
X408600Y247300D03*
X385100Y364400D03*
X204700Y474900D03*
X225800Y474800D03*
X216200Y449900D03*
D50*
X94500Y350000D02*
X94400Y350000D01*
X94200Y350200D01*
X94500Y310000D02*
X94800Y310000D01*
X94600Y285100D02*
X94500Y285000D01*
X94600Y285100D02*
X94600Y285200D01*
X64600Y268100D02*
X64500Y268000D01*
X64600Y268100D02*
X64600Y268200D01*
X64500Y182000D02*
X65000Y182000D01*
X80500Y182000D02*
X80600Y181900D01*
X80600Y181800D01*
X106000Y182500D02*
X106100Y182600D01*
X106200Y182600D01*
X89600Y163000D02*
X89500Y163000D01*
X64500Y118000D02*
X64500Y117900D01*
X64400Y117800D01*
X89500Y127000D02*
X89600Y127000D01*
X89800Y126800D01*
X89600Y140000D02*
X89500Y140000D01*
X108500Y141000D02*
X108800Y141000D01*
X110500Y120000D02*
X110800Y120000D01*
X89600Y95000D02*
X89500Y95000D01*
X15100Y47500D02*
X15000Y47500D01*
X15100Y47500D02*
X15200Y47600D01*
X20000Y74500D02*
X20000Y74600D01*
X40000Y74500D02*
X40000Y74600D01*
X65000Y47500D02*
X65200Y47300D01*
X65200Y47200D01*
X70000Y74400D02*
X70000Y74500D01*
X90000Y74500D02*
X90000Y74400D01*
X170000Y47500D02*
X170000Y47400D01*
X195000Y74400D02*
X195000Y74500D01*
X220000Y47500D02*
X220100Y47400D01*
X220200Y47400D01*
X235000Y74500D02*
X235000Y74600D01*
X181700Y140550D02*
X181750Y140600D01*
X181800Y140600D01*
X514800Y95500D02*
X515000Y95500D01*
X514800Y95500D02*
X514600Y95700D01*
X496300Y149600D02*
X496300Y150000D01*
X496300Y149600D02*
X496200Y149500D01*
X574300Y185800D02*
X574300Y186250D01*
X574300Y185800D02*
X574500Y185600D01*
X574300Y208700D02*
X574300Y208750D01*
X574300Y208700D02*
X574400Y208600D01*
X574300Y231250D02*
X574350Y231300D01*
X574400Y231300D01*
X554300Y212500D02*
X554200Y212500D01*
X554300Y227500D02*
X554300Y227600D01*
X554300Y242500D02*
X554500Y242500D01*
X574300Y253750D02*
X574350Y253800D01*
X574500Y253800D01*
X579400Y335000D02*
X579500Y335000D01*
X584500Y349800D02*
X584500Y350200D01*
X579500Y375000D02*
X579300Y375000D01*
X579500Y404900D02*
X579500Y405000D01*
X560000Y420500D02*
X559900Y420500D01*
X533500Y411500D02*
X533400Y411400D01*
X533400Y411300D01*
X470100Y414600D02*
X470000Y414500D01*
X449500Y370000D02*
X449400Y370000D01*
X449300Y370100D01*
X449400Y380000D02*
X449500Y380000D01*
X449400Y380000D02*
X449300Y379900D01*
X449500Y390000D02*
X449500Y390100D01*
X454100Y400200D02*
X454100Y400300D01*
X454100Y410100D02*
X454100Y410200D01*
X408850Y247300D02*
X408600Y247300D01*
X385100Y364400D02*
X385000Y364500D01*
X399500Y394600D02*
X399600Y394600D01*
X399800Y394400D01*
X359500Y394600D02*
X359400Y394500D01*
X359400Y394400D01*
X366000Y410100D02*
X366000Y410200D01*
X328000Y410100D02*
X327800Y410300D01*
X319500Y394600D02*
X319300Y394600D01*
X390300Y444400D02*
X390500Y444600D01*
X350500Y444600D02*
X350500Y444700D01*
X310500Y444600D02*
X310400Y444600D01*
X216100Y450000D02*
X215400Y450000D01*
X216100Y450000D02*
X216200Y449900D01*
X225500Y475000D02*
X225600Y475000D01*
X225800Y474800D01*
X204600Y475000D02*
X204500Y475000D01*
X204600Y475000D02*
X204700Y474900D01*
X64600Y332000D02*
X64500Y332000D01*
D51*
X372500Y156300D02*
X383200Y167000D01*
X392000Y167000D01*
X379700Y163500D02*
X372500Y156300D01*
X379700Y163500D02*
X399600Y163500D01*
X372500Y156300D02*
X350200Y178600D01*
X350200Y182900D01*
X372500Y156300D02*
X394300Y134500D01*
X394300Y130600D01*
D52*
X584300Y339800D02*
X584300Y349600D01*
X584300Y339800D02*
X579500Y335000D01*
D53*
X584300Y349600D02*
X584500Y349800D01*
D48*
X352000Y211100D03*
X431200Y168700D03*
X416000Y108200D03*
X323900Y116900D03*
D49*
X431100Y168700D02*
X431200Y168700D01*
X416000Y108200D02*
X416000Y108100D01*
D51*
X324000Y116900D02*
X323900Y116900D01*
D48*
X542100Y315100D03*
D51*
X352000Y211100D02*
X351900Y211000D01*
D48*
X499600Y101000D03*
D50*
X542100Y315100D02*
X542200Y315100D01*
X507800Y361300D02*
X507800Y361800D01*
X508000Y362000D01*
D48*
X482600Y30300D03*
X434000Y425600D03*
D50*
X434000Y425500D01*
D49*
X533500Y411500D02*
X536500Y414500D01*
X536500Y417150D01*
X539850Y420500D01*
X560000Y420500D01*
D54*
X203800Y429200D03*
X229100Y428200D03*
X253400Y450100D03*
D53*
X215400Y450000D02*
X203800Y438400D01*
X203800Y429200D01*
X215400Y450000D02*
X229100Y436300D01*
X229100Y428200D01*
X215400Y450000D02*
X253300Y450000D01*
X253400Y450100D01*
D55*
X39300Y372000D02*
X30000Y381300D01*
X30000Y397500D01*
D48*
X546000Y449500D03*
X142000Y479000D03*
X149000Y479000D03*
X149000Y471000D03*
X142000Y471000D03*
X146000Y475000D03*
D50*
X145500Y475000D01*
D48*
X80500Y140000D03*
X64600Y126100D03*
X129600Y119900D03*
X106500Y161200D03*
X106100Y173500D03*
X80500Y173000D03*
D51*
X106000Y173500D02*
X106100Y173500D01*
X106500Y161200D02*
X106500Y161000D01*
X129500Y120000D02*
X129600Y119900D01*
X64600Y126100D02*
X64500Y126000D01*
D50*
X64500Y174000D02*
X65750Y175250D01*
X68932Y175250D01*
X80000Y190182D02*
X80000Y202100D01*
X80000Y190182D02*
X75250Y185432D01*
X75250Y181568D02*
X68932Y175250D01*
X75250Y181568D02*
X75250Y185432D01*
D56*
X79500Y174000D02*
X64500Y174000D01*
X79500Y174000D02*
X80500Y173000D01*
D48*
X30000Y74600D03*
X207100Y140500D03*
X254000Y74500D03*
X426500Y111020D03*
X534700Y96600D03*
X583500Y320300D03*
X583100Y390300D03*
X595300Y434900D03*
X520100Y420500D03*
X369900Y368400D03*
X350400Y394600D03*
X341600Y419700D03*
X327400Y429300D03*
D51*
X30000Y74600D02*
X30000Y74500D01*
X534900Y96600D02*
X535000Y96500D01*
X534900Y96600D02*
X534700Y96600D01*
X207100Y140500D02*
X207100Y140550D01*
X595400Y435000D02*
X595500Y435000D01*
X595400Y435000D02*
X595300Y434900D01*
X583500Y390000D02*
X583400Y390000D01*
X583100Y390300D01*
X583500Y320300D02*
X583500Y320000D01*
X344000Y419600D02*
X341900Y419700D01*
X341600Y419700D01*
X327800Y429300D02*
X327400Y429300D01*
X370000Y368500D02*
X369900Y368400D01*
D48*
X319500Y444700D03*
D51*
X520000Y420500D02*
X520100Y420500D01*
D48*
X351900Y202100D03*
X407000Y108200D03*
X422200Y168700D03*
X395000Y215500D03*
D51*
X319500Y444600D02*
X319500Y444700D01*
X327800Y429300D02*
X328000Y429100D01*
D49*
X351900Y202000D02*
X345000Y195100D01*
X345000Y190050D01*
X406250Y168800D02*
X422000Y168800D01*
X422100Y168700D01*
X422200Y168700D01*
X400000Y115100D02*
X407000Y108100D01*
X400000Y115100D02*
X400000Y122550D01*
X406250Y128800D01*
X407000Y108200D02*
X407000Y108100D01*
X338750Y128800D02*
X333000Y123050D01*
D51*
X351900Y202000D02*
X351900Y202100D01*
X350500Y394600D02*
X350400Y394600D01*
D53*
X583500Y390000D02*
X584000Y390500D01*
X585453Y390500D01*
X597500Y402547D01*
X597500Y426808D01*
D56*
X596100Y428208D01*
X596100Y434400D02*
X595500Y435000D01*
X596100Y434400D02*
X596100Y428208D01*
D48*
X575400Y437000D03*
D53*
X471350Y19539D02*
X463061Y11250D01*
X360989Y25400D02*
X355600Y25400D01*
X360989Y25400D02*
X375139Y11250D01*
X463061Y11250D01*
X471350Y19539D02*
X471350Y44750D01*
X494500Y67900D02*
X494500Y70900D01*
D54*
X494500Y70900D03*
D53*
X494500Y67900D02*
X471350Y44750D01*
D54*
X273800Y73500D03*
D53*
X272300Y75000D01*
X263264Y75000D01*
D56*
X254500Y75000D01*
X254000Y74500D01*
D48*
X340100Y116900D03*
D49*
X333000Y116900D02*
X333000Y123050D01*
X333000Y116900D02*
X340100Y116900D01*
D50*
X374600Y214200D02*
X393700Y214200D01*
X395000Y215500D01*
X279500Y480000D02*
X279000Y480500D01*
X279000Y488028D02*
X273194Y493834D01*
D48*
X273194Y493834D03*
D50*
X279000Y488028D02*
X279000Y480500D01*
D51*
X562300Y150000D02*
X561056Y148756D01*
X561056Y142571D01*
X558492Y140007D01*
X554107Y140007D01*
X537700Y123600D01*
X477000Y123600D02*
X473700Y120300D01*
D48*
X473700Y120300D03*
D54*
X459134Y129100D03*
D51*
X395000Y192836D02*
X409164Y207000D01*
X395000Y192836D02*
X395000Y190050D01*
X477000Y123600D02*
X537700Y123600D01*
X438250Y191850D02*
X423100Y207000D01*
X438250Y191850D02*
X461734Y168366D01*
X423100Y207000D02*
X409164Y207000D01*
D50*
X461734Y168366D02*
X461734Y131700D01*
X459134Y129100D01*
D48*
X438250Y191850D03*
D51*
X551256Y149956D02*
X551300Y150000D01*
X536256Y127107D02*
X476007Y127107D01*
X474407Y128707D01*
X551256Y142106D02*
X551256Y149956D01*
X551256Y142106D02*
X536256Y127107D01*
D48*
X474407Y128707D03*
D54*
X455334Y142600D03*
D51*
X441150Y182300D02*
X431500Y182300D01*
X429300Y184500D01*
X429300Y189800D01*
X441150Y182300D02*
X455250Y168200D01*
X455334Y142800D02*
X455334Y142600D01*
X455334Y142800D02*
X455250Y142884D01*
X455250Y168200D01*
D48*
X424000Y197300D03*
D50*
X429300Y192000D01*
X429300Y189800D01*
D48*
X302100Y419400D03*
X310200Y394600D03*
D57*
X306500Y276200D03*
X314600Y340900D03*
D51*
X310500Y394600D02*
X310200Y394600D01*
X302100Y419500D02*
X302000Y419600D01*
X302100Y419500D02*
X302100Y419400D01*
D49*
X491186Y78900D02*
X497814Y78900D01*
X491186Y78900D02*
X486500Y74214D01*
X486500Y73400D01*
X497814Y78900D02*
X505000Y71714D01*
X452789Y61450D02*
X446550Y55211D01*
X452789Y61450D02*
X474550Y61450D01*
X446550Y55211D02*
X446550Y50489D01*
X432861Y36800D01*
X392400Y36800D02*
X381000Y25400D01*
X474550Y61450D02*
X486500Y73400D01*
X432861Y36800D02*
X392400Y36800D01*
D55*
X301550Y271250D02*
X306500Y276200D01*
X301550Y271250D02*
X301550Y249068D01*
D50*
X505000Y71714D02*
X505000Y62500D01*
X497000Y54500D01*
D56*
X409800Y448100D02*
X405800Y452100D01*
X395008Y452100D01*
X388792Y458316D02*
X383808Y458316D01*
X380284Y454792D01*
X380284Y452284D01*
X375300Y447300D01*
X375400Y447200D01*
D58*
X375400Y447200D03*
D56*
X388792Y458316D02*
X395008Y452100D01*
D53*
X301550Y249068D02*
X281082Y228600D01*
X279400Y228600D01*
D48*
X494400Y167500D03*
X452312Y133300D03*
D50*
X494300Y167500D02*
X494400Y167500D01*
D48*
X506300Y167400D03*
X506788Y138855D03*
X442317Y72117D03*
D50*
X506300Y167400D02*
X506300Y167500D01*
X442317Y72117D02*
X372383Y72117D01*
X355600Y88900D01*
X560800Y93771D02*
X560800Y127978D01*
D48*
X557002Y135034D03*
D50*
X560800Y93771D02*
X556515Y89485D01*
X558268Y130510D02*
X558268Y133768D01*
X557002Y135034D01*
X558268Y130510D02*
X560800Y127978D01*
D48*
X554300Y182500D03*
X523000Y75600D03*
D50*
X523000Y75500D01*
X553485Y89485D02*
X556515Y89485D01*
X553485Y89485D02*
X544500Y80500D01*
D48*
X544500Y80500D03*
X552394Y131818D03*
X542300Y227600D03*
D50*
X542300Y227500D01*
X552394Y131818D02*
X552394Y130427D01*
X546534Y124567D01*
X536000Y82500D02*
X508000Y82500D01*
X501600Y88900D02*
X457200Y88900D01*
X501600Y88900D02*
X508000Y82500D01*
X536000Y82500D02*
X546534Y93034D01*
X546534Y124567D01*
D48*
X399500Y444600D03*
X406300Y429200D03*
X469000Y430600D03*
X579600Y365200D03*
D51*
X579500Y365100D02*
X579500Y365000D01*
X579500Y365100D02*
X579600Y365200D01*
X406381Y429119D02*
X406000Y429100D01*
X406300Y429200D02*
X406381Y429119D01*
D50*
X468500Y430700D02*
X468600Y430600D01*
X469000Y430600D01*
X451800Y360000D02*
X449500Y360000D01*
X451800Y360000D02*
X453200Y358600D01*
X473100Y358600D01*
X473300Y358800D01*
D48*
X434400Y342600D03*
D50*
X438293Y346493D01*
X438293Y348651D01*
X440792Y351150D01*
X440832Y351150D01*
X449500Y359818D01*
X449500Y360000D01*
D48*
X425516Y407951D03*
D50*
X425249Y407951D01*
X424300Y408900D01*
X424300Y443272D01*
D48*
X434300Y452800D03*
D50*
X433828Y452800D01*
X424300Y443272D01*
D48*
X359500Y444500D03*
X365900Y429100D03*
X384000Y419800D03*
X390400Y394600D03*
X533200Y315200D03*
D50*
X390500Y394600D02*
X390400Y394600D01*
D51*
X359500Y444500D02*
X359500Y444600D01*
X365900Y429100D02*
X366000Y429100D01*
X384000Y419800D02*
X384000Y419600D01*
D58*
X402200Y361200D03*
D56*
X392700Y370700D01*
X392700Y381532D02*
X392300Y381932D01*
D58*
X392300Y381932D03*
D56*
X392700Y381532D02*
X392700Y370700D01*
D49*
X535300Y326800D02*
X535300Y322477D01*
X532923Y320100D01*
D50*
X532923Y315377D02*
X533200Y315100D01*
X532923Y315377D02*
X532923Y320100D01*
X533200Y315200D02*
X533200Y315100D01*
D51*
X570500Y365000D02*
X570500Y375000D01*
X570500Y365000D02*
X570500Y354800D01*
X565500Y349800D01*
X556200Y349800D01*
X553550Y352450D01*
X548550Y352450D02*
X547000Y354000D01*
X542500Y354000D01*
X542300Y353800D01*
X548550Y352450D02*
X553550Y352450D01*
D48*
X490700Y318400D03*
D50*
X490700Y326400D02*
X490300Y326800D01*
X490700Y326400D02*
X490700Y318400D01*
X530300Y227500D02*
X520700Y217900D01*
X417100Y275800D02*
X417100Y290600D01*
X396150Y311550D01*
D49*
X396150Y325100D01*
D48*
X530400Y227500D03*
D50*
X396150Y325100D02*
X396150Y326300D01*
X530300Y227500D02*
X530400Y227500D01*
X396150Y311350D02*
X396150Y311550D01*
X449100Y243482D02*
X474682Y217900D01*
X449100Y243482D02*
X449100Y243800D01*
X417100Y275800D01*
X474682Y217900D02*
X520700Y217900D01*
D49*
X331500Y255300D02*
X330200Y254000D01*
X331500Y255300D02*
X340100Y255300D01*
D50*
X372434Y287634D01*
X372434Y288967D01*
X382366Y297566D02*
X396150Y311350D01*
X381033Y297566D02*
X372434Y288967D01*
X381033Y297566D02*
X382366Y297566D01*
X501725Y227500D02*
X506300Y227500D01*
X501725Y227500D02*
X496475Y232750D01*
X480383Y232750D01*
X422300Y311400D02*
X413200Y311400D01*
X408850Y315750D01*
X408850Y326300D01*
X470200Y242933D02*
X480383Y232750D01*
X470200Y242933D02*
X470200Y263500D01*
X422300Y311400D01*
X509225Y227500D02*
X513050Y231325D01*
X509225Y227500D02*
X506300Y227500D01*
X510900Y248700D02*
X511100Y248700D01*
D48*
X511100Y248700D03*
X409000Y326100D03*
D50*
X409000Y326150D02*
X408850Y326300D01*
X409000Y326150D02*
X409000Y326100D01*
X384200Y310800D02*
X335900Y310800D01*
X384200Y310800D02*
X386484Y308516D01*
X386484Y307717D01*
D48*
X386484Y307717D03*
D50*
X513050Y246550D02*
X513050Y231325D01*
X513050Y246550D02*
X510900Y248700D01*
D53*
X335900Y310500D02*
X330200Y304800D01*
X335900Y310500D02*
X335900Y310800D01*
D48*
X501566Y302000D03*
X484566Y316000D03*
D50*
X485300Y316734D01*
X485300Y326800D01*
D48*
X518300Y227500D03*
D50*
X511700Y220900D01*
D48*
X439200Y260800D03*
X424533Y252033D03*
D50*
X421333Y252033D01*
X413067Y260300D01*
X383450Y259150D02*
X383450Y247300D01*
X384600Y260300D02*
X413067Y260300D01*
X384600Y260300D02*
X383450Y259150D01*
X383450Y247300D02*
X383450Y236350D01*
X378350Y231250D01*
X475924Y220900D02*
X511700Y220900D01*
X475924Y220900D02*
X452100Y244724D01*
X452100Y253657D01*
X446190Y259567D02*
X442223Y259567D01*
X440990Y260800D01*
X439200Y260800D01*
X446190Y259567D02*
X452100Y253657D01*
D49*
X378350Y231250D02*
X376650Y229550D01*
X340223Y229550D01*
X339273Y228600D01*
X330200Y228600D01*
D48*
X493000Y306000D03*
D50*
X493000Y308275D01*
X498534Y313809D01*
X498534Y316534D01*
X500300Y318300D02*
X500300Y326800D01*
X500300Y318300D02*
X498534Y316534D01*
X443466Y262567D02*
X440633Y265400D01*
X433533Y265400D02*
X424516Y274417D01*
D48*
X424516Y274417D03*
X404184Y269466D03*
D50*
X370750Y264950D02*
X370750Y247300D01*
X433533Y265400D02*
X440633Y265400D01*
X378766Y272966D02*
X370750Y264950D01*
D48*
X482300Y227500D03*
X488200Y302800D03*
D50*
X495534Y325666D02*
X495300Y325900D01*
X495300Y326800D01*
X331200Y274800D02*
X320000Y263600D01*
X320000Y247900D01*
X324600Y243300D01*
X366750Y243300D01*
X370750Y247300D01*
X473567Y227500D02*
X482300Y227500D01*
X473567Y227500D02*
X463000Y238067D01*
X456043Y245342D02*
X456043Y253957D01*
X456043Y245342D02*
X463000Y238385D01*
X447433Y262567D02*
X443466Y262567D01*
X463000Y238385D02*
X463000Y238067D01*
X456043Y253957D02*
X447433Y262567D01*
X400684Y272966D02*
X378766Y272966D01*
X400684Y272966D02*
X404184Y269466D01*
D49*
X331200Y278400D02*
X330200Y279400D01*
X331200Y278400D02*
X331200Y274800D01*
D50*
X488200Y307718D02*
X495534Y315052D01*
X488200Y307718D02*
X488200Y302800D01*
X495534Y315052D02*
X495534Y325666D01*
D48*
X370900Y247000D03*
X365700Y214200D03*
D50*
X365600Y214200D01*
X370900Y247150D02*
X370750Y247300D01*
X370900Y247150D02*
X370900Y247000D01*
X473400Y243975D02*
X473400Y264772D01*
X415100Y323072D02*
X415100Y336732D01*
X411232Y340600D01*
X388900Y340600D01*
X383450Y335150D01*
X383450Y326300D01*
X415100Y323072D02*
X473400Y264772D01*
X497717Y235750D02*
X500234Y233234D01*
X505234Y233234D01*
X506700Y234700D01*
X506700Y242100D01*
X506300Y242500D01*
X481625Y235750D02*
X473400Y243975D01*
X481625Y235750D02*
X497717Y235750D01*
X396150Y225650D02*
X396150Y247300D01*
X396150Y225650D02*
X395000Y224500D01*
X492058Y162250D02*
X492106Y162202D01*
X513002Y162202D02*
X518300Y167500D01*
X513002Y162202D02*
X492106Y162202D01*
X477450Y162250D02*
X474400Y165300D01*
D48*
X474400Y165300D03*
X464633Y174067D03*
D50*
X414200Y224500D01*
X395000Y224500D01*
X477450Y162250D02*
X492058Y162250D01*
X440104Y173800D02*
X406250Y173800D01*
X440104Y173800D02*
X446468Y167436D01*
X446468Y127214D01*
X454260Y119422D02*
X454260Y117380D01*
X454260Y119422D02*
X446468Y127214D01*
X441140Y108380D02*
X454260Y108380D01*
X441140Y108380D02*
X438500Y111020D01*
X400000Y190050D02*
X409950Y200000D01*
X413000Y200000D01*
D48*
X411823Y231766D03*
X411732Y220234D03*
D50*
X410466Y218968D01*
X410466Y217541D01*
X395425Y202500D01*
X389343Y202500D01*
X385000Y198157D02*
X385000Y190050D01*
X385000Y198157D02*
X389343Y202500D01*
X529300Y150000D02*
X529300Y139100D01*
X524400Y134200D01*
X475800Y140757D02*
X475800Y148600D01*
X482357Y134200D02*
X524400Y134200D01*
X482357Y134200D02*
X475800Y140757D01*
X474400Y150000D02*
X474400Y150600D01*
D48*
X474400Y150600D03*
D50*
X474400Y150000D02*
X475800Y148600D01*
D48*
X407000Y228766D03*
X406200Y220234D03*
D50*
X400250Y214284D01*
X400250Y211568D01*
X394782Y206100D01*
X388700Y206100D01*
X380000Y197400D01*
X380000Y190050D01*
X512800Y188000D02*
X518300Y182500D01*
D48*
X441267Y228367D03*
X429434Y229074D03*
D50*
X410056Y227500D02*
X408790Y228766D01*
X407000Y228766D01*
X427860Y227500D02*
X429434Y229074D01*
X427860Y227500D02*
X410056Y227500D01*
X476964Y191820D02*
X480784Y188000D01*
X512800Y188000D01*
X476964Y191820D02*
X460123Y191820D01*
X439700Y212243D01*
X439700Y226800D01*
X441267Y228367D01*
X338750Y158800D02*
X338325Y158375D01*
X453004Y214514D02*
X461768Y205750D01*
X501725Y197500D02*
X506300Y197500D01*
X501725Y197500D02*
X493475Y205750D01*
X461768Y205750D01*
X453004Y214514D02*
X453004Y216204D01*
D48*
X453004Y216204D03*
X386484Y221068D03*
D50*
X380032Y221068D01*
X378300Y222800D01*
X343019Y222800D02*
X334741Y214522D01*
X315100Y163900D02*
X322200Y156800D01*
X327300Y156800D01*
X329800Y159300D01*
X337400Y159300D01*
X338325Y158375D01*
X343019Y222800D02*
X378300Y222800D01*
X334741Y214522D02*
X320965Y214522D01*
X315100Y208657D01*
X315100Y200500D01*
X315100Y163900D01*
D48*
X331932Y194813D03*
D50*
X326245Y200500D01*
X315100Y200500D01*
X320700Y153800D02*
X338750Y153800D01*
X320700Y153800D02*
X312100Y162400D01*
X312100Y173100D01*
X312100Y209900D01*
X319722Y217522D02*
X333499Y217522D01*
X341777Y225800D01*
X384300Y225800D02*
X385100Y226600D01*
D48*
X385100Y226600D03*
X444088Y219088D03*
D50*
X460426Y202750D01*
X489725Y197500D02*
X494300Y197500D01*
X484475Y202750D02*
X460426Y202750D01*
X484475Y202750D02*
X489725Y197500D01*
X319722Y217522D02*
X312100Y209900D01*
X341777Y225800D02*
X384300Y225800D01*
D48*
X304900Y173300D03*
D50*
X311900Y173300D01*
X312100Y173100D01*
X72200Y297500D02*
X64500Y297500D01*
D49*
X72200Y297500D02*
X74300Y299600D01*
D50*
X74300Y305900D01*
X72700Y307500D01*
X64500Y307500D01*
X64500Y297500D02*
X234500Y297500D01*
X266000Y266000D02*
X266000Y173000D01*
X273000Y166000D01*
X321200Y148800D02*
X338750Y148800D01*
X266000Y266000D02*
X234500Y297500D01*
X273000Y166000D02*
X304000Y166000D01*
X321200Y148800D01*
X64500Y292500D02*
X57500Y292500D01*
X54000Y296000D01*
X54000Y301000D01*
X55500Y302500D01*
X64500Y302500D01*
X64500Y292500D02*
X76500Y292500D01*
X78500Y294500D01*
X233257Y294500D02*
X263000Y264757D01*
X321957Y143800D02*
X338750Y143800D01*
X233257Y294500D02*
X78500Y294500D01*
X263000Y264757D02*
X263000Y171757D01*
X271757Y163000D01*
X302757Y163000D01*
X321957Y143800D01*
X284993Y150350D02*
X258750Y150350D01*
D48*
X258750Y150350D03*
X238200Y125100D03*
D50*
X226375Y125100D01*
X224391Y123116D01*
X211834Y123116D01*
X207100Y127850D01*
X284993Y150350D02*
X285000Y150357D01*
X285000Y150400D01*
X311115Y150400D01*
X322715Y138800D02*
X338750Y138800D01*
X322715Y138800D02*
X311115Y150400D01*
X345000Y122550D02*
X345000Y112600D01*
X343200Y110800D01*
X316500Y110800D01*
X287400Y139900D02*
X287400Y140800D01*
X286083Y142117D01*
X284317Y142117D01*
D48*
X284317Y142117D03*
X242300Y119768D03*
D50*
X202482Y119768D01*
X194400Y127850D01*
X287400Y139900D02*
X316500Y110800D01*
X406250Y158800D02*
X409800Y158800D01*
X409900Y158900D01*
D48*
X409900Y158900D03*
X304900Y140900D03*
X237600Y167500D03*
X206500Y152600D03*
D50*
X206450Y152600D01*
X194400Y140550D01*
D51*
X406250Y183800D02*
X414300Y183800D01*
X420300Y189800D01*
X140964Y69000D02*
X139500Y70464D01*
X139500Y78536D01*
X141500Y69000D02*
X145000Y65500D01*
X141500Y69000D02*
X140964Y69000D01*
X139500Y78536D02*
X159464Y98500D01*
X209157Y98500D01*
X540300Y136100D02*
X540300Y150000D01*
X478800Y130700D02*
X472800Y136700D01*
X472916Y136700D01*
X473266Y136350D01*
D48*
X473266Y136350D03*
X450734Y158700D03*
D51*
X450734Y167766D01*
X439700Y178800D02*
X406250Y178800D01*
X534900Y130700D02*
X540300Y136100D01*
X534900Y130700D02*
X478800Y130700D01*
X450734Y167766D02*
X439700Y178800D01*
D48*
X248400Y90000D03*
D51*
X250000Y61500D02*
X250000Y47500D01*
X250000Y61500D02*
X254000Y65500D01*
D50*
X248400Y90000D02*
X217657Y90000D01*
X209157Y98500D01*
X250250Y69250D02*
X254000Y65500D01*
X250250Y69250D02*
X250068Y69250D01*
X248400Y70918D01*
X248400Y90000D01*
D51*
X157000Y74500D02*
X145000Y74500D01*
D50*
X151750Y69432D02*
X153068Y70750D01*
X153250Y70750D02*
X157000Y74500D01*
X153250Y70750D02*
X153068Y70750D01*
X254750Y21650D02*
X272600Y39500D01*
X254750Y13668D02*
X249332Y8250D01*
X254750Y13668D02*
X254750Y21650D01*
X272600Y39500D02*
X316100Y39500D01*
X330200Y25400D01*
X162750Y47250D02*
X151750Y58250D01*
X151750Y69432D01*
X162750Y47250D02*
X162750Y26118D01*
X180618Y8250D01*
X249332Y8250D01*
X419700Y400357D02*
X421250Y401907D01*
X455924Y299895D02*
X458423Y297396D01*
X455924Y299895D02*
X451005Y299895D01*
X458423Y297396D02*
X458423Y297277D01*
X460500Y295200D01*
X451005Y299895D02*
X421100Y329800D01*
D48*
X518300Y212500D03*
X460309Y247109D03*
X460500Y295200D03*
D50*
X509032Y405250D02*
X511350Y407568D01*
X509032Y405250D02*
X507450Y405250D01*
X505200Y403000D01*
X511350Y407568D02*
X511350Y438383D01*
X505200Y403000D02*
X505200Y395900D01*
X505300Y395800D01*
X502433Y447300D02*
X448618Y447300D01*
X502433Y447300D02*
X511350Y438383D01*
X421100Y339217D02*
X421100Y329800D01*
X421100Y339217D02*
X419700Y340617D01*
X419700Y400357D01*
X421250Y458750D02*
X425100Y462600D01*
X436318Y462600D01*
X421250Y458750D02*
X421250Y401907D01*
X436318Y462600D02*
X436018Y462900D01*
X441900Y462900D02*
X444418Y462900D01*
X448618Y467100D01*
D49*
X441900Y462900D02*
X436018Y462900D01*
D50*
X447200Y448718D02*
X448618Y447300D01*
X447200Y457600D02*
X441900Y462900D01*
X447200Y457600D02*
X447200Y448718D01*
X498100Y479100D02*
X498100Y486701D01*
X508000Y496601D02*
X508000Y508000D01*
X508000Y496601D02*
X498100Y486701D01*
X486100Y467100D02*
X448618Y467100D01*
X486100Y467100D02*
X498100Y479100D01*
X424100Y331043D02*
X452248Y302895D01*
D48*
X460934Y300918D03*
D50*
X457167Y302895D02*
X452248Y302895D01*
X459144Y300918D02*
X460934Y300918D01*
X459144Y300918D02*
X457167Y302895D01*
D48*
X465934Y241484D03*
X530300Y212400D03*
D50*
X530300Y212500D01*
X514650Y406550D02*
X514650Y446449D01*
X517900Y492500D02*
X533400Y508000D01*
X517900Y449699D02*
X514650Y446449D01*
X517900Y449699D02*
X517900Y492500D01*
X428700Y385300D02*
X428700Y381500D01*
D48*
X428700Y385300D03*
D50*
X428700Y381500D02*
X422700Y375500D01*
D48*
X515300Y405900D03*
D50*
X510300Y400900D02*
X510300Y395800D01*
X510300Y400900D02*
X515300Y405900D01*
X514650Y406550D01*
X424100Y340460D02*
X424100Y331043D01*
X424100Y340460D02*
X422700Y341860D01*
X422700Y375500D01*
X459094Y307000D02*
X459645Y306450D01*
D48*
X459645Y306450D03*
D50*
X452385Y307000D02*
X427100Y332285D01*
X452385Y307000D02*
X459094Y307000D01*
D48*
X542300Y212500D03*
X472600Y234500D03*
X525284Y406800D03*
D50*
X525518Y406800D01*
X530300Y402018D01*
X530300Y395800D01*
D48*
X433112Y381388D03*
D50*
X425700Y373977D01*
X427100Y341703D02*
X427100Y332285D01*
X427100Y341703D02*
X425700Y343103D01*
X425700Y373977D01*
D48*
X425516Y453734D03*
X426000Y466866D03*
X516000Y315000D03*
D50*
X515300Y315700D02*
X515300Y326800D01*
X515300Y315700D02*
X516000Y315000D01*
D48*
X530300Y182400D03*
X459903Y348198D03*
D50*
X530300Y182500D02*
X530300Y182400D01*
X473300Y348800D02*
X468300Y348800D01*
X466600Y350500D01*
X462205Y350500D01*
X459903Y348198D01*
D48*
X405700Y381432D03*
D50*
X406966Y363174D02*
X406966Y359226D01*
X377000Y315868D02*
X375682Y314550D01*
X405700Y364440D02*
X405700Y381432D01*
X405700Y364440D02*
X406966Y363174D01*
X351434Y339566D02*
X351434Y319626D01*
X397990Y350250D02*
X406966Y359226D01*
X397990Y350250D02*
X390718Y350250D01*
X377000Y336532D01*
X377000Y315868D01*
X375682Y314550D02*
X356510Y314550D01*
X351434Y319626D01*
X297500Y468500D02*
X300000Y471000D01*
X300000Y481158D02*
X303421Y484579D01*
D48*
X303421Y484579D03*
X333212Y490266D03*
D50*
X398826Y490266D01*
X416560Y508000D01*
X300000Y481158D02*
X300000Y471000D01*
X309250Y424532D02*
X309250Y414750D01*
X297500Y436282D02*
X297500Y468500D01*
X297500Y436282D02*
X309250Y424532D01*
X329634Y369226D02*
X342000Y356860D01*
X329634Y369226D02*
X329634Y394366D01*
X342000Y349000D02*
X351434Y339566D01*
X329634Y394366D02*
X309250Y414750D01*
X342000Y356860D02*
X342000Y349000D01*
X464585Y363800D02*
X473300Y363800D01*
X464585Y363800D02*
X463685Y362900D01*
X455782Y362900D01*
X453432Y365250D01*
D48*
X482300Y197400D03*
X431400Y334066D03*
X378600Y382166D03*
D50*
X434350Y365250D02*
X453432Y365250D01*
X434350Y365250D02*
X428700Y359600D01*
X428700Y344345D01*
X430100Y342945D01*
X430100Y335366D02*
X431400Y334066D01*
X430100Y335366D02*
X430100Y342945D01*
X482300Y197500D02*
X482300Y197400D01*
X378600Y382166D02*
X376802Y383964D01*
X348211Y383964D01*
X342250Y389925D01*
X342250Y408032D01*
X327432Y422850D01*
X322068Y422850D01*
X303000Y441918D01*
X303000Y467000D01*
X303000Y468000D01*
D48*
X311734Y485000D03*
D50*
X307675Y482800D02*
X303000Y478125D01*
X307675Y482800D02*
X309534Y482800D01*
X311734Y485000D01*
X303000Y478125D02*
X303000Y468000D01*
D48*
X330000Y495000D03*
D50*
X384003Y508000D02*
X391160Y508000D01*
X384003Y508000D02*
X371103Y495100D01*
X330100Y495100D02*
X330000Y495000D01*
X330100Y495100D02*
X371103Y495100D01*
X507300Y150000D02*
X507100Y149800D01*
X507100Y145200D01*
X501700Y139800D01*
X481000Y139800D01*
D48*
X475800Y157600D03*
X473954Y184554D03*
X433752Y241602D03*
D50*
X458903Y184554D02*
X473954Y184554D01*
X458903Y184554D02*
X433700Y209757D01*
X433700Y231453D02*
X432452Y232702D01*
X433700Y231453D02*
X433700Y209757D01*
D48*
X442559Y346884D03*
D50*
X478800Y142000D02*
X481000Y139800D01*
X478800Y154600D02*
X475800Y157600D01*
X478800Y154600D02*
X478800Y142000D01*
D48*
X485300Y395600D03*
X405600Y386964D03*
X434384Y375049D03*
D50*
X432452Y240302D02*
X432452Y232702D01*
X432452Y240302D02*
X433752Y241602D01*
X485300Y395600D02*
X485300Y395800D01*
X345250Y398032D02*
X345250Y391168D01*
X345250Y398032D02*
X355750Y408532D01*
X349454Y386964D02*
X405600Y386964D01*
X349454Y386964D02*
X345250Y391168D01*
X316000Y460000D02*
X308918Y460000D01*
X306000Y462918D01*
X355750Y420250D02*
X355750Y408532D01*
X355750Y420250D02*
X316000Y460000D01*
X302060Y502657D02*
X302060Y513343D01*
X309617Y520900D01*
X354361Y508000D02*
X365760Y508000D01*
X341461Y520900D02*
X309617Y520900D01*
X341461Y520900D02*
X354361Y508000D01*
X316000Y488717D02*
X316000Y481000D01*
X314800Y479800D01*
X308918Y479800D01*
X306000Y476882D02*
X306000Y462918D01*
X316000Y488717D02*
X302060Y502657D01*
X308918Y479800D02*
X306000Y476882D01*
X482000Y182500D02*
X482300Y182500D01*
D48*
X437883Y237383D03*
X462400Y377600D03*
D50*
X465234Y380434D02*
X465234Y380667D01*
X465234Y380434D02*
X462400Y377600D01*
X468367Y383800D02*
X473300Y383800D01*
X468367Y383800D02*
X465234Y380667D01*
D48*
X449891Y344884D03*
X405536Y399036D03*
X427500Y391700D03*
D50*
X430118Y391700D01*
X454750Y385250D02*
X462400Y377600D01*
X436568Y385250D02*
X430118Y391700D01*
X436568Y385250D02*
X454750Y385250D01*
X475721Y188820D02*
X478220Y186321D01*
X478220Y186280D02*
X482000Y182500D01*
X478220Y186280D02*
X478220Y186321D01*
X475721Y188820D02*
X458880Y188820D01*
X436700Y211000D01*
X436700Y236200D02*
X437883Y237383D01*
X436700Y236200D02*
X436700Y211000D01*
X405536Y399036D02*
X403746Y399036D01*
X403432Y399350D01*
X358750Y405168D02*
X358750Y422250D01*
X364568Y399350D02*
X403432Y399350D01*
X364568Y399350D02*
X358750Y405168D01*
X358750Y422250D02*
X327400Y453600D01*
X305060Y503899D02*
X305060Y512101D01*
X310859Y517900D01*
X319061Y517900D01*
X328961Y508000D02*
X340360Y508000D01*
X327400Y481559D02*
X305060Y503899D01*
X319061Y517900D02*
X328961Y508000D01*
X327400Y481559D02*
X327400Y453600D01*
D48*
X494300Y227500D03*
X452623Y353284D03*
X469500Y378900D03*
D50*
X469600Y378800D02*
X473300Y378800D01*
X469600Y378800D02*
X469500Y378900D01*
D48*
X396416Y403616D03*
X430781Y396919D03*
D50*
X434081Y396919D01*
X436250Y394750D01*
X463000Y387700D02*
X463500Y387700D01*
D48*
X463500Y387700D03*
D50*
X455950Y394750D02*
X436250Y394750D01*
X455950Y394750D02*
X463000Y387700D01*
X396416Y403616D02*
X386682Y413350D01*
X378068Y413350D01*
X373250Y418168D01*
X373250Y434032D01*
X367432Y439850D01*
X346568Y439850D01*
X314960Y498242D02*
X314960Y508000D01*
X330400Y456018D02*
X346568Y439850D01*
X330400Y456018D02*
X330400Y482802D01*
X314960Y498242D01*
D48*
X518300Y242500D03*
X471800Y373800D03*
X508400Y302800D03*
D50*
X473300Y373800D02*
X471800Y373800D01*
D48*
X410884Y418900D03*
X435200Y404600D03*
D50*
X436050Y405450D02*
X458150Y405450D01*
X436050Y405450D02*
X435200Y404600D01*
X463000Y400600D02*
X463500Y400600D01*
D48*
X463500Y400600D03*
D50*
X463000Y400600D02*
X458150Y405450D01*
X406934Y422850D02*
X400068Y422850D01*
X406934Y422850D02*
X410884Y418900D01*
X393984Y428934D02*
X385533Y428934D01*
X393984Y428934D02*
X400068Y422850D01*
X352800Y461667D02*
X352800Y474001D01*
X352800Y461667D02*
X385533Y428934D01*
X369861Y498100D02*
X375660Y503899D01*
X375660Y512101D01*
X292474Y508000D02*
X289560Y508000D01*
X292474Y508000D02*
X308374Y523900D01*
X363861Y523900D02*
X375660Y512101D01*
X363861Y523900D02*
X308374Y523900D01*
X331445Y486000D02*
X340801Y486000D01*
X324722Y492722D02*
X324722Y498722D01*
X326000Y500000D01*
X334359Y500000D01*
X336259Y498100D01*
X340801Y486000D02*
X352800Y474001D01*
X331445Y486000D02*
X324722Y492722D01*
X336259Y498100D02*
X369861Y498100D01*
X551300Y299100D02*
X551300Y290000D01*
X528025Y307350D02*
X520300Y315075D01*
X520300Y326800D01*
X543050Y307350D02*
X551300Y299100D01*
X543050Y307350D02*
X528025Y307350D01*
D48*
X539400Y442500D03*
X551400Y289900D03*
D50*
X551300Y290000D01*
D48*
X405484Y470160D03*
X347000Y486000D03*
D50*
X397801Y479800D02*
X403600Y474001D01*
X403600Y472044D02*
X405484Y470160D01*
X403600Y472044D02*
X403600Y474001D01*
X353200Y479800D02*
X347000Y486000D01*
X353200Y479800D02*
X397801Y479800D01*
D48*
X308797Y489886D03*
D50*
X285459Y498100D02*
X279660Y503899D01*
X224759Y508000D02*
X213360Y508000D01*
X279660Y506501D02*
X279660Y503899D01*
X300584Y498100D02*
X308797Y489886D01*
X234659Y517900D02*
X224759Y508000D01*
X268261Y517900D02*
X279660Y506501D01*
X285459Y498100D02*
X300584Y498100D01*
X268261Y517900D02*
X234659Y517900D01*
X562550Y292932D02*
X562550Y290250D01*
X562300Y290000D01*
X529268Y310350D02*
X527950Y311668D01*
X527950Y320917D01*
X545132Y310350D02*
X562550Y292932D01*
X545132Y310350D02*
X529268Y310350D01*
X527950Y320917D02*
X530300Y323267D01*
X530300Y326800D01*
D48*
X552300Y442600D03*
X562900Y290000D03*
D50*
X562300Y290000D01*
D48*
X409000Y476000D03*
X354017Y485017D03*
D50*
X405843Y476000D02*
X409000Y476000D01*
X405843Y476000D02*
X399043Y482800D01*
X356233Y482800D02*
X354017Y485017D01*
X356233Y482800D02*
X399043Y482800D01*
X546500Y411500D02*
X546500Y404800D01*
X552500Y398800D02*
X552500Y386700D01*
X549600Y383800D01*
X542300Y383800D01*
X552500Y398800D02*
X546500Y404800D01*
X590001Y449000D02*
X592900Y449000D01*
X543334Y438334D02*
X533500Y428500D01*
X543334Y438334D02*
X560477Y438334D01*
X585635Y444634D02*
X590001Y449000D01*
X566777Y444634D02*
X560477Y438334D01*
X566777Y444634D02*
X585635Y444634D01*
X599700Y461301D02*
X605499Y467100D01*
X639101Y467100D02*
X644900Y461301D01*
X644900Y453099D01*
X599700Y455800D02*
X592900Y449000D01*
X599700Y455800D02*
X599700Y461301D01*
X605499Y467100D02*
X639101Y467100D01*
X635000Y443199D02*
X635000Y431800D01*
X635000Y443199D02*
X644900Y453099D01*
D48*
X527500Y435500D03*
D50*
X526000Y435500D02*
X520000Y429500D01*
X526000Y435500D02*
X527500Y435500D01*
X533500Y429500D02*
X533500Y428500D01*
X533500Y429500D02*
X527500Y435500D01*
X476400Y248400D02*
X482300Y242500D01*
X476400Y248400D02*
X476400Y266015D01*
X465200Y315072D02*
X457400Y322872D01*
X457400Y341428D01*
X465200Y277215D02*
X476400Y266015D01*
X465200Y277215D02*
X465200Y315072D01*
X454836Y349464D02*
X459172Y353800D01*
X454836Y349464D02*
X454836Y343392D01*
D51*
X456114Y342114D01*
D49*
X456414Y342414D02*
X457400Y341428D01*
D50*
X459172Y353800D02*
X473300Y353800D01*
D48*
X482300Y242500D03*
X436225Y276700D03*
D50*
X425025Y287900D02*
X421500Y287900D01*
X425025Y287900D02*
X436225Y276700D01*
D48*
X421500Y287900D03*
X190400Y89300D03*
D50*
X202300Y89300D01*
X414000Y349600D02*
X414000Y399675D01*
X418250Y403925D01*
X415266Y349600D02*
X414000Y349600D01*
D48*
X415266Y349600D03*
X436166Y337000D03*
D49*
X445700Y339200D02*
X453200Y339200D01*
X456114Y342114D01*
X456414Y342414D01*
D50*
X443500Y337000D02*
X436166Y337000D01*
X443500Y337000D02*
X445700Y339200D01*
X457200Y482600D02*
X428743Y482600D01*
X418250Y472107D02*
X418250Y403925D01*
X418250Y472107D02*
X428743Y482600D01*
D51*
X185000Y65500D02*
X182500Y65500D01*
X177000Y71000D01*
D48*
X185000Y65500D03*
X205100Y65600D03*
D50*
X177000Y71000D02*
X169000Y71000D01*
X163500Y65500D02*
X157000Y65500D01*
X163500Y65500D02*
X169000Y71000D01*
X202300Y89300D02*
X205100Y86500D01*
X205100Y65600D01*
X205100Y52600D01*
X200000Y47500D01*
D48*
X424634Y279949D03*
X445700Y281800D03*
D50*
X440491Y274933D02*
X437992Y272434D01*
X434458Y272434D01*
X440491Y274933D02*
X440491Y276591D01*
X445700Y281800D01*
X426943Y279949D02*
X424634Y279949D01*
X426943Y279949D02*
X434458Y272434D01*
D48*
X523216Y304000D03*
D50*
X515000Y304000D01*
X510000Y309000D01*
X510000Y326500D01*
X510300Y326800D01*
D48*
X525300Y399600D03*
D50*
X525300Y395800D01*
D48*
X520300Y402300D03*
D50*
X520300Y395800D01*
D48*
X525166Y448216D03*
D50*
X529299Y447300D02*
X537501Y447300D01*
X543300Y453099D01*
X574300Y486701D02*
X580099Y492500D01*
X528383Y448216D02*
X525166Y448216D01*
X528383Y448216D02*
X529299Y447300D01*
X574300Y484099D02*
X574300Y486701D01*
X623601Y482600D02*
X635000Y482600D01*
X574300Y484099D02*
X562901Y472700D01*
X613701Y492500D02*
X623601Y482600D01*
X543300Y455701D02*
X543300Y453099D01*
X543300Y455701D02*
X560299Y472700D01*
X562901Y472700D01*
X580099Y492500D02*
X613701Y492500D01*
D48*
X515400Y399600D03*
D50*
X515300Y399500D02*
X515300Y395800D01*
X515300Y399500D02*
X515400Y399600D01*
D48*
X478500Y434300D03*
D49*
X433100Y416800D02*
X431700Y415400D01*
D48*
X431700Y415400D03*
X96800Y74800D03*
D50*
X433100Y416800D02*
X463618Y416800D01*
D48*
X485500Y434200D03*
D50*
X480300Y404618D02*
X480300Y395800D01*
X480300Y404618D02*
X476500Y408418D01*
X479750Y428450D02*
X485500Y434200D01*
X467518Y420700D02*
X463618Y416800D01*
D49*
X476500Y425200D02*
X479750Y428450D01*
X476500Y425200D02*
X476500Y423957D01*
X473243Y420700D01*
X467518Y420700D01*
X476500Y423957D02*
X476500Y408418D01*
D48*
X472443Y451566D03*
D50*
X108700Y74800D02*
X96800Y74800D01*
X108700Y74800D02*
X109000Y74500D01*
X485200Y410500D02*
X490300Y405400D01*
X485200Y410500D02*
X485000Y410500D01*
X490300Y405400D02*
X490300Y395800D01*
D48*
X484900Y410300D03*
X506400Y433700D03*
D50*
X485000Y410500D02*
X485000Y410400D01*
X484900Y410300D01*
X495300Y410200D02*
X495300Y395800D01*
D48*
X495000Y410600D03*
D50*
X495000Y410500D02*
X495300Y410200D01*
X495000Y410500D02*
X495000Y410600D01*
X500300Y405800D02*
X500300Y395800D01*
X500300Y405800D02*
X505000Y410500D01*
D48*
X505100Y410700D03*
D50*
X505000Y410600D02*
X505000Y410500D01*
X505000Y410600D02*
X505100Y410700D01*
X520600Y38000D02*
X534257Y38000D01*
X552800Y56543D02*
X552800Y77285D01*
X552800Y56543D02*
X534257Y38000D01*
X552800Y77285D02*
X566800Y91285D01*
X566800Y135835D01*
X565534Y137101D01*
D48*
X565534Y137101D03*
X542300Y197500D03*
D49*
X520600Y38000D02*
X508000Y25400D01*
D50*
X563500Y74900D02*
X572800Y84200D01*
X572800Y165072D02*
X570372Y167500D01*
X542300Y234925D02*
X542300Y242500D01*
X542300Y234925D02*
X537050Y229675D01*
X537050Y180325D01*
X549875Y167500D02*
X570372Y167500D01*
X549875Y167500D02*
X537050Y180325D01*
X572800Y165072D02*
X572800Y84200D01*
D49*
X563500Y74900D02*
X563500Y30100D01*
X558800Y25400D01*
D50*
X583907Y59907D02*
X575800Y68015D01*
X575800Y167315D01*
X548950Y245375D02*
X548988Y245412D01*
X548950Y245375D02*
X548950Y180425D01*
X558875Y170500D02*
X572615Y170500D01*
X558875Y170500D02*
X548950Y180425D01*
X548988Y245412D02*
X546650Y247750D01*
X535550Y247750D01*
X530300Y242500D01*
X572615Y170500D02*
X575800Y167315D01*
D49*
X583907Y59907D02*
X583907Y25693D01*
X584200Y25400D01*
D50*
X602400Y32600D02*
X602400Y49957D01*
X578800Y73557D01*
X578800Y168557D02*
X573857Y173500D01*
X564625Y173500D01*
X578800Y168557D02*
X578800Y73557D01*
X564625Y173500D02*
X561450Y176675D01*
X508800Y288500D02*
X507300Y290000D01*
X508800Y288500D02*
X508800Y281400D01*
X511900Y278300D01*
D48*
X516708Y278669D03*
X560184Y263051D03*
D50*
X561450Y261785D01*
X561450Y176675D01*
X516339Y278300D02*
X511900Y278300D01*
X516339Y278300D02*
X516708Y278669D01*
D49*
X602400Y32600D02*
X609600Y25400D01*
D50*
X555800Y76043D02*
X569800Y90043D01*
X555800Y76043D02*
X555800Y47800D01*
X569800Y162243D02*
X567543Y164500D01*
X525050Y180325D02*
X525050Y184675D01*
X525050Y180325D02*
X540875Y164500D01*
X530300Y189925D02*
X530300Y197500D01*
X530300Y189925D02*
X525050Y184675D01*
X569800Y162243D02*
X569800Y90043D01*
X567543Y164500D02*
X540875Y164500D01*
D49*
X555800Y47800D02*
X533400Y25400D01*
D50*
X565868Y176500D02*
X564450Y177918D01*
X565868Y263500D02*
X571700Y263500D01*
X574600Y266400D01*
X564450Y262082D02*
X564450Y177918D01*
X564450Y262082D02*
X565868Y263500D01*
D48*
X574600Y266400D03*
X547400Y277100D03*
D50*
X524500Y277100D01*
X518300Y283300D01*
X518300Y290000D01*
D49*
X586400Y73400D02*
X634400Y25400D01*
X635000Y25400D01*
D50*
X575100Y176500D02*
X565868Y176500D01*
X575100Y176500D02*
X581800Y169800D01*
X581800Y78000D02*
X586400Y73400D01*
X581800Y78000D02*
X581800Y169800D01*
D53*
X164600Y450000D02*
X164600Y474900D01*
D57*
X334950Y93151D03*
X271900Y101700D03*
X123800Y190400D03*
X98200Y216000D03*
X118600Y414700D03*
D55*
X153900Y450000D01*
X164600Y450000D01*
X92000Y512500D02*
X30000Y512500D01*
X92000Y512500D02*
X127500Y477000D01*
X127500Y462737D01*
X134237Y456000D01*
X156763Y456000D01*
X163500Y462737D01*
X163500Y473800D01*
X164600Y474900D01*
D50*
X164500Y475000D01*
D48*
X89600Y182000D03*
D56*
X89500Y182000D02*
X89500Y173000D01*
D51*
X89500Y182000D02*
X89600Y182000D01*
D48*
X482400Y167500D03*
D58*
X404900Y289900D03*
D56*
X402000Y292800D01*
X383984Y292800D01*
D58*
X383984Y292800D03*
D50*
X482300Y167500D02*
X482400Y167500D01*
D48*
X160000Y370000D03*
X170000Y370000D03*
X180000Y370000D03*
X190000Y370000D03*
X200000Y370000D03*
X210000Y370000D03*
X220000Y370000D03*
X220000Y360000D03*
X210000Y360000D03*
X200000Y360000D03*
X190000Y360000D03*
X180000Y360000D03*
X170000Y360000D03*
X160000Y360000D03*
X160000Y350000D03*
X170000Y350000D03*
X180000Y350000D03*
X190000Y350000D03*
X200000Y350000D03*
X210000Y350000D03*
X220000Y350000D03*
X220000Y340000D03*
X210000Y340000D03*
X200000Y340000D03*
X190000Y340000D03*
X180000Y340000D03*
X170000Y340000D03*
X160000Y340000D03*
X220000Y320000D03*
X230000Y320000D03*
X210000Y320000D03*
X200000Y320000D03*
X190000Y320000D03*
X180000Y320000D03*
X170000Y320000D03*
X160000Y320000D03*
X150000Y320000D03*
X185300Y475300D03*
X189900Y450400D03*
X244400Y474800D03*
D51*
X185500Y475000D02*
X185300Y475200D01*
X185300Y475300D01*
X244500Y475000D02*
X244500Y474900D01*
X244400Y474800D01*
X190000Y450000D02*
X189900Y450100D01*
X189900Y450400D01*
D56*
X190000Y450000D02*
X189000Y451000D01*
X189000Y464900D01*
X185500Y468400D01*
X185500Y475000D01*
D50*
X563800Y131012D02*
X563800Y92528D01*
X563800Y131012D02*
X562534Y132278D01*
D48*
X562534Y132278D03*
X542300Y182500D03*
D50*
X417799Y88900D02*
X406400Y88900D01*
X417799Y88900D02*
X427699Y79000D01*
X465782Y79000D02*
X469432Y82650D01*
X501850Y82650D01*
X511000Y73500D01*
X465782Y79000D02*
X427699Y79000D01*
D48*
X511000Y73500D03*
D50*
X529500Y56000D02*
X531500Y58000D01*
X541250Y65118D02*
X541250Y69978D01*
X541250Y65118D02*
X534132Y58000D01*
X531500Y58000D01*
D48*
X529500Y56000D03*
D50*
X541250Y69978D02*
X563800Y92528D01*
X496300Y273100D02*
X496300Y290000D01*
X494800Y271600D02*
X494800Y270434D01*
D48*
X494800Y270434D03*
X453625Y267868D03*
D50*
X494800Y271600D02*
X496300Y273100D01*
D48*
X424600Y234200D03*
D50*
X496300Y303267D02*
X497266Y304233D01*
X497266Y308299D01*
X501534Y312567D02*
X501534Y315291D01*
X505000Y326500D02*
X505300Y326800D01*
X496300Y303267D02*
X496300Y290000D01*
X497266Y308299D02*
X501534Y312567D01*
X501534Y315291D02*
X505000Y318757D01*
X505000Y326500D01*
D49*
X542300Y358800D02*
X551600Y358800D01*
X551700Y358900D01*
D50*
X552300Y358900D01*
X552500Y358700D01*
D54*
X552500Y358700D03*
X461200Y368900D03*
D49*
X461400Y368700D02*
X473200Y368700D01*
X461400Y368700D02*
X461200Y368900D01*
X473200Y368700D02*
X473300Y368800D01*
D48*
X445100Y410300D03*
X445100Y400300D03*
X440500Y390000D03*
X440400Y380000D03*
X440400Y370000D03*
X444900Y422400D03*
D56*
X440500Y370000D02*
X440400Y370000D01*
X440500Y380000D02*
X440400Y380000D01*
D51*
X445100Y400200D02*
X445100Y400300D01*
X445100Y410200D02*
X445100Y410300D01*
D56*
X444900Y422400D02*
X451500Y429000D01*
D50*
X451500Y430700D01*
X604500Y435000D02*
X604500Y438100D01*
X608700Y442300D01*
D48*
X608700Y442300D03*
X90000Y416400D03*
D50*
X90000Y399500D01*
X92000Y397500D01*
D56*
X92000Y377000D01*
X102800Y366200D01*
X103900Y366200D01*
D51*
X59000Y98500D02*
X17000Y98500D01*
X59000Y98500D02*
X77000Y98500D01*
X80500Y95000D01*
X37000Y174628D02*
X40000Y177628D01*
X40000Y189000D01*
X37000Y120500D02*
X59000Y98500D01*
X37000Y120500D02*
X37000Y174628D01*
X40000Y189000D02*
X52500Y201500D01*
X59000Y201500D01*
X52500Y201500D02*
X17000Y201500D01*
D50*
X49500Y167500D02*
X64500Y167500D01*
X65932Y190750D02*
X67250Y192068D01*
X45250Y182524D02*
X45250Y171750D01*
X45250Y182524D02*
X53476Y190750D01*
X65932Y190750D01*
X67250Y210932D02*
X65932Y212250D01*
X57550Y212250D01*
X43300Y226500D01*
X45250Y171750D02*
X49500Y167500D01*
X67250Y192068D02*
X67250Y210932D01*
D51*
X64500Y162500D02*
X80000Y162500D01*
X80500Y163000D01*
X58757Y147250D02*
X56000Y150007D01*
X56000Y154993D01*
X57757Y156750D01*
X64500Y147500D02*
X64250Y147250D01*
X58757Y147250D01*
X57757Y156750D02*
X63750Y156750D01*
X64500Y157500D01*
X125200Y161000D02*
X125500Y161000D01*
X125200Y161000D02*
X117243Y161000D01*
X110743Y154500D01*
X78757Y154500D01*
X75757Y157500D01*
X64500Y157500D01*
D50*
X125500Y161000D02*
X239000Y161000D01*
X258000Y142000D01*
X462000Y103000D02*
X466000Y107000D01*
X466000Y169400D02*
X473850Y177250D01*
X484475Y177250D01*
X489725Y182500D02*
X494300Y182500D01*
X489725Y182500D02*
X484475Y177250D01*
X466000Y169400D02*
X466000Y107000D01*
X462000Y103000D02*
X377000Y103000D01*
X371000Y109000D01*
X344443Y107800D02*
X315257Y107800D01*
X345643Y109000D02*
X371000Y109000D01*
X345643Y109000D02*
X344443Y107800D01*
X285207Y137851D02*
X282550Y137851D01*
X278400Y142000D01*
X285207Y137851D02*
X315257Y107800D01*
X278400Y142000D02*
X258000Y142000D01*
D48*
X130100Y153700D03*
D50*
X125200Y158600D01*
X125200Y161000D01*
D49*
X74000Y148993D02*
X74000Y147000D01*
D51*
X74000Y146007D01*
X70243Y142250D01*
X64750Y152250D02*
X64500Y152500D01*
X64750Y142250D02*
X70243Y142250D01*
X64750Y142250D02*
X64500Y142500D01*
X64750Y152250D02*
X70743Y152250D01*
X74000Y148993D01*
X101757Y147000D02*
X102257Y147500D01*
X101757Y147000D02*
X74000Y147000D01*
X119000Y147500D02*
X125500Y141000D01*
X119000Y147500D02*
X102257Y147500D01*
D50*
X125500Y141000D02*
X126300Y141000D01*
X128000Y141000D01*
X145000Y158000D01*
X237757Y158000D02*
X256757Y139000D01*
X463243Y100000D02*
X469000Y105757D01*
X237757Y158000D02*
X145000Y158000D01*
X469000Y168157D02*
X475093Y174250D01*
X485717Y174250D02*
X488717Y177250D01*
X485717Y174250D02*
X475093Y174250D01*
X488717Y177250D02*
X496475Y177250D01*
X501725Y182500D02*
X506300Y182500D01*
X501725Y182500D02*
X496475Y177250D01*
X469000Y168157D02*
X469000Y105757D01*
X375000Y100000D02*
X369000Y106000D01*
X346885Y106000D02*
X345685Y104800D01*
X283964Y134851D02*
X281307Y134851D01*
X277157Y139000D01*
X375000Y100000D02*
X463243Y100000D01*
X369000Y106000D02*
X346885Y106000D01*
X345685Y104800D02*
X314015Y104800D01*
X283964Y134851D01*
X277157Y139000D02*
X256757Y139000D01*
D48*
X138000Y143800D03*
D50*
X129100Y143800D01*
X126300Y141000D01*
X45250Y124724D02*
X45250Y117476D01*
X64000Y137000D02*
X64500Y137500D01*
X64000Y137000D02*
X57526Y137000D01*
X45250Y124724D01*
X45250Y117476D02*
X51226Y111500D01*
X96600Y111500D01*
D51*
X75000Y132500D02*
X64500Y132500D01*
X75000Y132500D02*
X80500Y127000D01*
X84000Y351500D02*
X59000Y351500D01*
X84000Y351500D02*
X85500Y350000D01*
X59000Y253372D02*
X59000Y248500D01*
X59000Y346628D02*
X59000Y351500D01*
X45000Y267372D02*
X59000Y253372D01*
X45000Y267372D02*
X45000Y332628D01*
X59000Y346628D01*
X59000Y351500D02*
X17000Y351500D01*
X17000Y248500D02*
X59000Y248500D01*
D50*
X64500Y317500D02*
X83300Y317500D01*
X86600Y320800D01*
D51*
X83000Y312500D02*
X64500Y312500D01*
X83000Y312500D02*
X85500Y310000D01*
D50*
X78818Y287500D02*
X64500Y287500D01*
X78818Y287500D02*
X81568Y290250D01*
X108850Y290250D01*
X112300Y286800D01*
D51*
X83000Y282500D02*
X64500Y282500D01*
X83000Y282500D02*
X85500Y285000D01*
D48*
X64700Y323900D03*
D54*
X126200Y334300D03*
D56*
X77100Y276000D02*
X64500Y276000D01*
X80600Y272500D02*
X80800Y272500D01*
D54*
X80800Y272500D03*
D56*
X80600Y272500D02*
X77100Y276000D01*
D50*
X64600Y323900D02*
X64500Y324000D01*
X64600Y323900D02*
X64700Y323900D01*
X123300Y331400D02*
X126200Y334300D01*
X123300Y331400D02*
X106000Y331400D01*
X105100Y331400D01*
D56*
X77779Y324000D02*
X64500Y324000D01*
X77779Y324000D02*
X83079Y329300D01*
X103900Y329300D02*
X106000Y331400D01*
X103900Y329300D02*
X83079Y329300D01*
D51*
X500754Y423746D02*
X505000Y419500D01*
X500754Y423746D02*
X500754Y432128D01*
X494754Y419746D02*
X495000Y419500D01*
X494754Y419746D02*
X494754Y432128D01*
X490254Y435164D02*
X492718Y437628D01*
X493754Y438128D02*
X494754Y438128D01*
X493754Y438128D02*
X493254Y437628D01*
X492718Y437628D01*
X490254Y424754D02*
X485000Y419500D01*
X490254Y424754D02*
X490254Y435164D01*
X559000Y428500D02*
X560000Y429500D01*
D49*
X559000Y428500D02*
X546500Y428500D01*
X565900Y429500D02*
X575400Y420000D01*
X565900Y429500D02*
X560000Y429500D01*
D51*
X235000Y65500D02*
X235000Y20000D01*
X30000Y20000D02*
X30000Y55500D01*
X20000Y65500D01*
X185000Y39500D02*
X185000Y20000D01*
D50*
X185000Y39500D02*
X185000Y55500D01*
X195000Y65500D01*
D51*
X80000Y55500D02*
X80000Y20000D01*
X80000Y55500D02*
X70000Y65500D01*
X536000Y64464D02*
X536000Y73500D01*
D50*
X516750Y46750D02*
X516000Y46000D01*
X516750Y46750D02*
X517932Y46750D01*
X521000Y49818D01*
X521000Y56000D01*
X526000Y61000D01*
X532536Y61000D02*
X536000Y64464D01*
X532536Y61000D02*
X526000Y61000D01*
D51*
X516000Y59500D02*
X516000Y52000D01*
X516000Y59500D02*
X523000Y66500D01*
X510000Y63500D02*
X510000Y52000D01*
X510000Y63500D02*
X511000Y64500D01*
D48*
X485300Y150000D03*
X515100Y114600D03*
X534800Y113700D03*
D51*
X535000Y113500D01*
X515100Y114600D02*
X515000Y114500D01*
D48*
X499600Y109900D03*
D50*
X499600Y110000D01*
D56*
X370750Y326300D02*
X370000Y327050D01*
X370000Y351500D01*
X374000Y355500D01*
X385000Y355500D01*
D50*
X470000Y405500D02*
X473300Y402200D01*
X473300Y388800D01*
D48*
X470000Y405700D03*
D58*
X334400Y371200D03*
D56*
X356300Y349300D01*
X356300Y321600D01*
X356200Y321600D01*
D58*
X356200Y321600D03*
X354500Y285000D03*
X352200Y236400D03*
D50*
X111900Y106400D02*
X80000Y74500D01*
X111900Y106400D02*
X140200Y106400D01*
X156100Y122300D01*
X156100Y149250D02*
X156150Y149300D01*
D58*
X156150Y149300D03*
D50*
X156100Y149250D02*
X156100Y122300D01*
X470000Y405500D02*
X470000Y405700D01*
X570500Y405000D02*
X570500Y394000D01*
X566500Y390000D01*
D49*
X557100Y380600D01*
X557100Y377900D01*
X553000Y373800D01*
X542300Y373800D01*
D51*
X566500Y331000D02*
X566500Y320000D01*
X566500Y331000D02*
X570500Y335000D01*
D48*
X525300Y324300D03*
X566700Y320300D03*
D51*
X566500Y320100D02*
X566500Y320000D01*
X566500Y320100D02*
X566700Y320300D01*
D48*
X191300Y82200D03*
D50*
X185000Y75900D01*
X185000Y74500D01*
D58*
X439666Y287194D03*
D49*
X431034Y287194D01*
X426578Y291650D01*
X425650Y291650D01*
X420200Y297100D02*
X419500Y297100D01*
D58*
X419500Y297100D03*
X383850Y279250D03*
D49*
X381316Y276716D01*
X377213Y276716D01*
X361756Y261260D01*
X362016Y261000D01*
D58*
X362016Y261000D03*
D49*
X420200Y297100D02*
X425650Y291650D01*
D50*
X525300Y324300D02*
X525300Y326800D01*
D48*
X440400Y360200D03*
D50*
X440400Y360100D02*
X440500Y360000D01*
X440400Y360100D02*
X440400Y360200D01*
D58*
X518500Y149800D03*
D50*
X518300Y150000D01*
D48*
X474300Y94700D03*
X387500Y107266D03*
X479000Y306400D03*
D50*
X485300Y299667D02*
X485300Y290000D01*
X485300Y299667D02*
X483934Y301033D01*
X483934Y301466D01*
X479000Y306400D01*
X479000Y314200D01*
X480300Y315500D02*
X480300Y326800D01*
X480300Y315500D02*
X479000Y314200D01*
D48*
X424200Y303100D03*
X451620Y319836D03*
X372700Y280200D03*
X379800Y267300D03*
D50*
X479400Y260400D02*
X482300Y257500D01*
X479400Y260400D02*
X479400Y267257D01*
X468200Y278457D01*
X468200Y316315D01*
X460400Y324115D01*
X460400Y339132D02*
X465200Y343932D01*
X473169Y343932D01*
X473300Y343800D01*
X460400Y339132D02*
X460400Y324115D01*
D48*
X482300Y257600D03*
X453600Y228700D03*
D50*
X482300Y257500D02*
X482300Y257600D01*
X485400Y266400D02*
X494300Y257500D01*
X485400Y266400D02*
X485400Y269743D01*
X474200Y280943D01*
X474200Y332900D02*
X473300Y333800D01*
X474200Y332900D02*
X474200Y280943D01*
D48*
X502421Y177164D03*
X500819Y238766D03*
D50*
X500819Y250981D01*
X494300Y257500D01*
X548300Y327800D02*
X542300Y333800D01*
X548300Y327800D02*
X548300Y311425D01*
X559975Y299750D02*
X566732Y299750D01*
X568050Y298432D01*
X568050Y281568D02*
X566732Y280250D01*
X556922Y280250D01*
X549075Y272403D01*
X559975Y299750D02*
X548300Y311425D01*
X568050Y298432D02*
X568050Y281568D01*
X521203Y272403D02*
X506300Y257500D01*
X521203Y272403D02*
X549075Y272403D01*
X519550Y252250D02*
X516125Y252250D01*
X510875Y257500D02*
X506300Y257500D01*
X510875Y257500D02*
X516125Y252250D01*
D48*
X522167Y236467D03*
D50*
X523550Y237850D02*
X523550Y248250D01*
X523550Y237850D02*
X522167Y236467D01*
D48*
X514200Y176200D03*
D50*
X523550Y248250D02*
X519550Y252250D01*
X542300Y343800D02*
X546100Y343800D01*
X562460Y305750D02*
X569217Y305750D01*
X574050Y300917D01*
X574050Y279083D02*
X569217Y274250D01*
X560907Y274250D01*
X555452Y334448D02*
X546100Y343800D01*
X555452Y334448D02*
X555452Y312758D01*
X562460Y305750D01*
X574050Y300917D02*
X574050Y279083D01*
X537803Y266403D02*
X530500Y259100D01*
X530500Y257700D01*
X530300Y257500D01*
X553060Y266403D02*
X560907Y274250D01*
X553060Y266403D02*
X537803Y266403D01*
D48*
X530400Y257500D03*
X438326Y327093D03*
X391016Y363717D03*
X397300Y410300D03*
X386300Y452300D03*
D50*
X530300Y257500D02*
X530400Y257500D01*
X494300Y242500D02*
X487550Y249250D01*
X487550Y259675D02*
X482400Y264825D01*
X487550Y259675D02*
X487550Y249250D01*
X482400Y264825D02*
X482400Y268500D01*
X471200Y279700D01*
X471200Y317557D01*
X463400Y325357D01*
X463400Y337500D02*
X464700Y338800D01*
X473300Y338800D01*
X463400Y337500D02*
X463400Y325357D01*
D48*
X488900Y193234D03*
X494300Y242600D03*
D50*
X494300Y242500D01*
X542450Y338650D02*
X542300Y338800D01*
X542450Y338650D02*
X545712Y338650D01*
X552050Y332312D01*
X552050Y311917D02*
X561217Y302750D01*
X567975Y302750D01*
X571050Y299675D01*
X571050Y280325D02*
X567975Y277250D01*
X559665Y277250D02*
X551818Y269403D01*
X525203Y269403D01*
X518300Y262500D01*
X518300Y257500D01*
X552050Y311917D02*
X552050Y332312D01*
X571050Y299675D02*
X571050Y280325D01*
X567975Y277250D02*
X559665Y277250D01*
D48*
X518300Y257500D03*
D50*
X542300Y348800D02*
X546900Y348800D01*
X559050Y336650D02*
X559050Y313500D01*
X563800Y308750D01*
X570460Y308750D01*
X577050Y302160D01*
X562150Y271250D02*
X554303Y263403D01*
X548203Y263403D02*
X542300Y257500D01*
X570460Y271250D02*
X577050Y277840D01*
X570460Y271250D02*
X562150Y271250D01*
X554303Y263403D02*
X548203Y263403D01*
X559050Y336650D02*
X546900Y348800D01*
X577050Y302160D02*
X577050Y277840D01*
D48*
X542400Y257500D03*
X453200Y273400D03*
X454157Y311266D03*
X442625Y330617D03*
X406734Y351400D03*
X436100Y410400D03*
D50*
X429933Y411134D02*
X427300Y413767D01*
X435366Y411134D02*
X436100Y410400D01*
X435366Y411134D02*
X429933Y411134D01*
D48*
X442100Y454300D03*
D50*
X436282Y448482D02*
X435810Y448482D01*
X436282Y448482D02*
X442100Y454300D01*
X427300Y439972D02*
X427300Y413767D01*
X427300Y439972D02*
X435810Y448482D01*
X542300Y257500D02*
X542400Y257500D01*
X542300Y368800D02*
X553500Y368800D01*
X566950Y382250D01*
X572432Y382250D01*
X576250Y396432D02*
X577568Y397750D01*
X582450Y397750D01*
X576250Y386068D02*
X572432Y382250D01*
X576250Y386068D02*
X576250Y396432D01*
X586300Y401600D02*
X586300Y410400D01*
D48*
X586300Y410400D03*
D50*
X586300Y401600D02*
X582450Y397750D01*
X543650Y380150D02*
X542300Y378800D01*
X555500Y385457D02*
X555500Y400043D01*
X550193Y380150D02*
X543650Y380150D01*
X550193Y380150D02*
X555500Y385457D01*
X623601Y457200D02*
X635000Y457200D01*
X623601Y457200D02*
X613701Y447300D01*
X598618Y447300D02*
X590250Y438932D01*
X598618Y447300D02*
X613701Y447300D01*
X568207Y412750D02*
X555500Y400043D01*
X581832Y412750D02*
X590250Y421168D01*
X581832Y412750D02*
X568207Y412750D01*
X590250Y421168D02*
X590250Y438932D01*
D48*
X554300Y257500D03*
X415750Y59434D03*
D50*
X411767Y59434D01*
X410501Y60700D01*
X158118Y101750D02*
X136250Y79882D01*
X158118Y101750D02*
X255803Y101750D01*
X296853Y60700D02*
X410501Y60700D01*
X136250Y74550D02*
X136250Y79882D01*
X255803Y101750D02*
X296853Y60700D01*
X87882Y11750D02*
X72118Y11750D01*
X72068Y11800D01*
X69700Y11800D01*
X102250Y26118D02*
X102250Y40550D01*
X102250Y26118D02*
X87882Y11750D01*
X69700Y11800D02*
X56000Y25500D01*
X53932Y70750D02*
X53750Y70750D01*
X50000Y74500D01*
X53932Y70750D02*
X56000Y68682D01*
X102250Y40550D02*
X136250Y74550D01*
X56000Y68682D02*
X56000Y25500D01*
X50000Y62800D02*
X50000Y65500D01*
X50000Y62800D02*
X44800Y57600D01*
X44800Y47700D01*
X45000Y47500D01*
X40000Y65500D02*
X30000Y65500D01*
X40000Y65500D02*
X50000Y65500D01*
D51*
X95000Y60500D02*
X95000Y47500D01*
X95000Y60500D02*
X90000Y65500D01*
X80000Y65500D01*
D50*
X90000Y65500D02*
X109000Y65500D01*
D48*
X558356Y367008D03*
D50*
X543650Y365150D02*
X542300Y363800D01*
X555951Y367008D02*
X558356Y367008D01*
X554093Y365150D02*
X543650Y365150D01*
X554093Y365150D02*
X555951Y367008D01*
X509500Y45500D02*
X497000Y45500D01*
X509500Y45500D02*
X510000Y46000D01*
D48*
X497200Y45600D03*
D50*
X497100Y45600D02*
X497000Y45500D01*
X497100Y45600D02*
X497200Y45600D01*
X488800Y45500D02*
X482600Y39300D01*
X488800Y45500D02*
X497000Y45500D01*
D49*
X434000Y434500D02*
X439750Y440250D01*
X441300Y441800D01*
X490183Y441800D02*
X491511Y443128D01*
X497997Y443128D01*
X499754Y441371D01*
X499754Y439128D01*
X500754Y438128D01*
X490183Y441800D02*
X441300Y441800D01*
D48*
X436700Y442900D03*
D49*
X439350Y440250D01*
X439750Y440250D01*
X409800Y439100D02*
X408200Y437500D01*
X398257Y437500D01*
X396457Y435700D01*
X389800Y435700D02*
X387300Y433200D01*
D48*
X387300Y433200D03*
D49*
X389800Y435700D02*
X396457Y435700D01*
D51*
X181700Y127850D02*
X180334Y126484D01*
X180334Y119345D01*
X156772Y105000D02*
X148772Y97000D01*
X132000Y97000D01*
X165989Y105000D02*
X180334Y119345D01*
X165989Y105000D02*
X156772Y105000D01*
D53*
X279400Y451811D02*
X279400Y457200D01*
X279400Y360989D02*
X279400Y355600D01*
X265250Y437661D02*
X279400Y451811D01*
X265250Y437661D02*
X265250Y375139D01*
X279400Y360989D01*
D48*
X529000Y290000D03*
D50*
X529300Y290000D01*
D48*
X540000Y290000D03*
D50*
X540300Y290000D01*
X270500Y480000D02*
X242500Y508000D01*
X238760Y508000D01*
D48*
X572866Y448900D03*
X518300Y197500D03*
X490000Y493000D03*
D50*
X482300Y212500D02*
X462900Y212500D01*
X445533Y229867D02*
X445533Y230134D01*
X444800Y230866D01*
X444800Y240400D01*
X445533Y229867D02*
X462900Y212500D01*
X400350Y284850D02*
X383532Y284850D01*
X382982Y285400D01*
X379200Y285400D01*
X376700Y287200D01*
D48*
X376700Y287200D03*
D50*
X400350Y284850D02*
X444800Y240400D01*
D48*
X437000Y491000D03*
D50*
X444100Y498100D01*
X471201Y508000D02*
X482600Y508000D01*
X461301Y498100D02*
X444100Y498100D01*
X461301Y498100D02*
X471201Y508000D01*
D48*
X297000Y371000D03*
X297000Y401000D03*
D50*
X297000Y371000D01*
D48*
X546100Y388800D03*
D50*
X542300Y388800D01*
D48*
X506300Y212500D03*
X550800Y122800D03*
D50*
X411000Y345075D02*
X411000Y400918D01*
X415250Y405168D01*
X418100Y337975D02*
X418100Y324315D01*
X418100Y337975D02*
X411000Y345075D01*
D48*
X457553Y290453D03*
X494300Y212500D03*
D50*
X535300Y395800D02*
X534566Y396534D01*
X534566Y402984D01*
D48*
X534566Y402984D03*
D50*
X438157Y308500D02*
X433915Y308500D01*
X451757Y294900D02*
X454700Y294900D01*
X457553Y292048D01*
X457553Y290453D01*
X433915Y308500D02*
X418100Y324315D01*
X438157Y308500D02*
X451757Y294900D01*
X623601Y508000D02*
X635000Y508000D01*
X456099Y520900D02*
X415250Y480051D01*
X456099Y520900D02*
X522000Y520900D01*
X610701Y520900D01*
X623601Y508000D01*
X415250Y480051D02*
X415250Y405168D01*
D48*
X522000Y513634D03*
D51*
X522000Y520900D01*
M02*
