G04 EAGLE Gerber RS-274X export*
G75*
%MOMM*%
%FSLAX34Y34*%
%LPD*%
%INBottom Copper*%
%IPPOS*%
%AMOC8*
5,1,8,0,0,1.08239X$1,22.5*%
G01*
%ADD10R,1.530000X1.530000*%
%ADD11C,1.530000*%
%ADD12P,1.759533X8X22.500000*%
%ADD13C,0.403200*%
%ADD14C,1.500000*%
%ADD15C,0.750000*%
%ADD16C,0.150000*%
%ADD17C,2.000000*%
%ADD18C,0.300000*%
%ADD19C,0.503200*%
%ADD20C,0.500000*%
%ADD21C,0.152400*%
%ADD22C,1.000000*%

G36*
X252096Y277267D02*
X252096Y277267D01*
X252193Y277276D01*
X252216Y277286D01*
X252241Y277290D01*
X252327Y277336D01*
X252416Y277377D01*
X252441Y277398D01*
X252456Y277405D01*
X252473Y277424D01*
X252530Y277470D01*
X266530Y291470D01*
X266587Y291550D01*
X266649Y291625D01*
X266657Y291648D01*
X266672Y291669D01*
X266700Y291762D01*
X266735Y291853D01*
X266738Y291886D01*
X266743Y291902D01*
X266742Y291927D01*
X266749Y292000D01*
X266749Y304000D01*
X266733Y304096D01*
X266724Y304193D01*
X266714Y304216D01*
X266710Y304241D01*
X266664Y304327D01*
X266623Y304416D01*
X266602Y304441D01*
X266595Y304456D01*
X266576Y304473D01*
X266530Y304530D01*
X243749Y327310D01*
X243749Y364000D01*
X243733Y364096D01*
X243724Y364193D01*
X243714Y364216D01*
X243710Y364241D01*
X243664Y364327D01*
X243623Y364416D01*
X243602Y364441D01*
X243595Y364456D01*
X243576Y364473D01*
X243530Y364530D01*
X225530Y382530D01*
X225450Y382587D01*
X225375Y382649D01*
X225352Y382657D01*
X225331Y382672D01*
X225238Y382700D01*
X225147Y382735D01*
X225114Y382738D01*
X225098Y382743D01*
X225073Y382742D01*
X225000Y382749D01*
X150000Y382749D01*
X149904Y382733D01*
X149807Y382724D01*
X149784Y382714D01*
X149759Y382710D01*
X149673Y382664D01*
X149584Y382623D01*
X149559Y382602D01*
X149544Y382595D01*
X149527Y382576D01*
X149470Y382530D01*
X140470Y373530D01*
X140413Y373450D01*
X140352Y373375D01*
X140343Y373352D01*
X140328Y373331D01*
X140300Y373238D01*
X140265Y373147D01*
X140262Y373114D01*
X140257Y373098D01*
X140258Y373073D01*
X140251Y373000D01*
X140251Y330310D01*
X129690Y319749D01*
X103000Y319749D01*
X102904Y319733D01*
X102807Y319724D01*
X102784Y319714D01*
X102759Y319710D01*
X102673Y319664D01*
X102584Y319623D01*
X102559Y319602D01*
X102544Y319595D01*
X102527Y319576D01*
X102470Y319530D01*
X99470Y316530D01*
X99413Y316450D01*
X99352Y316375D01*
X99343Y316352D01*
X99328Y316331D01*
X99300Y316238D01*
X99265Y316147D01*
X99262Y316114D01*
X99257Y316098D01*
X99258Y316073D01*
X99251Y316000D01*
X99251Y283000D01*
X99267Y282904D01*
X99276Y282807D01*
X99286Y282784D01*
X99290Y282759D01*
X99336Y282673D01*
X99377Y282584D01*
X99398Y282559D01*
X99405Y282544D01*
X99424Y282527D01*
X99470Y282470D01*
X104470Y277470D01*
X104550Y277413D01*
X104625Y277352D01*
X104648Y277343D01*
X104669Y277328D01*
X104762Y277300D01*
X104853Y277265D01*
X104886Y277262D01*
X104902Y277257D01*
X104927Y277258D01*
X105000Y277251D01*
X252000Y277251D01*
X252096Y277267D01*
G37*
D10*
X457200Y482600D03*
D11*
X457200Y508000D03*
X482600Y482600D03*
X482600Y508000D03*
X508000Y482600D03*
X508000Y508000D03*
X533400Y482600D03*
X533400Y508000D03*
X558800Y482600D03*
X558800Y508000D03*
X584200Y482600D03*
X584200Y508000D03*
X609600Y482600D03*
X609600Y508000D03*
X635000Y482600D03*
X635000Y508000D03*
D10*
X279400Y25400D03*
D11*
X279400Y50800D03*
X304800Y25400D03*
X304800Y50800D03*
X330200Y25400D03*
X330200Y50800D03*
X355600Y25400D03*
X355600Y50800D03*
X381000Y25400D03*
X381000Y50800D03*
X406400Y25400D03*
X406400Y50800D03*
X431800Y25400D03*
X431800Y50800D03*
X457200Y25400D03*
X457200Y50800D03*
D10*
X187960Y508000D03*
D11*
X213360Y508000D03*
X238760Y508000D03*
X264160Y508000D03*
X289560Y508000D03*
X314960Y508000D03*
X340360Y508000D03*
X365760Y508000D03*
X391160Y508000D03*
X416560Y508000D03*
D10*
X457200Y457200D03*
D11*
X482600Y457200D03*
X508000Y457200D03*
X533400Y457200D03*
X558800Y457200D03*
X584200Y457200D03*
X609600Y457200D03*
X635000Y457200D03*
D10*
X508000Y25400D03*
D11*
X533400Y25400D03*
X558800Y25400D03*
X584200Y25400D03*
X609600Y25400D03*
X635000Y25400D03*
D10*
X279400Y228600D03*
D11*
X279400Y254000D03*
X279400Y279400D03*
X279400Y304800D03*
D10*
X330200Y304800D03*
D11*
X330200Y279400D03*
X330200Y254000D03*
X330200Y228600D03*
D10*
X152400Y266700D03*
D11*
X177800Y266700D03*
X203200Y266700D03*
X228600Y266700D03*
D10*
X317500Y469900D03*
D11*
X342900Y469900D03*
X368300Y469900D03*
X393700Y469900D03*
D10*
X279400Y330200D03*
D11*
X279400Y355600D03*
X279400Y381000D03*
X279400Y406400D03*
X279400Y431800D03*
X279400Y457200D03*
D10*
X457200Y88900D03*
D11*
X431800Y88900D03*
X406400Y88900D03*
X381000Y88900D03*
D12*
X434340Y152400D03*
X434340Y127000D03*
X103900Y366200D03*
X355600Y88900D03*
X105100Y331400D03*
X80000Y202100D03*
X635000Y431800D03*
D13*
X94200Y350200D03*
X64600Y332000D03*
X94800Y310000D03*
X94600Y285200D03*
X64600Y268200D03*
X65000Y182000D03*
X80600Y181800D03*
X106200Y182600D03*
X89600Y163000D03*
X89600Y140000D03*
X89800Y126800D03*
X64400Y117800D03*
X108800Y141000D03*
X110800Y120000D03*
X89600Y95000D03*
X20000Y74600D03*
X40000Y74600D03*
X70000Y74400D03*
X90000Y74400D03*
X15200Y47600D03*
X65200Y47200D03*
X175000Y47400D03*
X225200Y47400D03*
X235000Y74600D03*
X195000Y74400D03*
X181800Y140600D03*
X352000Y177000D03*
X362000Y177000D03*
X372000Y177000D03*
X382000Y177000D03*
X392000Y177000D03*
X392000Y167000D03*
X382000Y167000D03*
X372000Y167000D03*
X362000Y167000D03*
X352000Y167000D03*
X352000Y157000D03*
X362000Y157000D03*
X372000Y157000D03*
X382000Y157000D03*
X392000Y157000D03*
X392000Y147000D03*
X382000Y147000D03*
X372000Y147000D03*
X362000Y147000D03*
X352000Y147000D03*
X352000Y137000D03*
X362000Y137000D03*
X372000Y137000D03*
X382000Y137000D03*
X392000Y137000D03*
X488000Y382000D03*
X498000Y382000D03*
X508000Y382000D03*
X518000Y382000D03*
X528000Y382000D03*
X528000Y372000D03*
X518000Y372000D03*
X508000Y372000D03*
X498000Y372000D03*
X488000Y372000D03*
X488000Y362000D03*
X498000Y362000D03*
X508000Y362000D03*
X518000Y362000D03*
X528000Y362000D03*
X528000Y352000D03*
X518000Y352000D03*
X508000Y352000D03*
X498000Y352000D03*
X488000Y352000D03*
X488000Y342000D03*
X498000Y342000D03*
X508000Y342000D03*
X518000Y342000D03*
X528000Y342000D03*
X310400Y444600D03*
X350500Y444700D03*
X319300Y394600D03*
X327800Y410300D03*
X359400Y394400D03*
X368400Y409900D03*
X390300Y444400D03*
X407700Y410000D03*
X399800Y394400D03*
X454100Y410100D03*
X454100Y400300D03*
X449500Y390100D03*
X449300Y379900D03*
X449300Y370100D03*
X470100Y414600D03*
X533400Y411300D03*
X559900Y420500D03*
X579500Y404900D03*
X579300Y375000D03*
X584500Y350200D03*
X579400Y335000D03*
X574500Y253800D03*
X574400Y231300D03*
X574400Y208600D03*
X574500Y185600D03*
X554500Y242500D03*
X554300Y227600D03*
X554200Y212500D03*
X554300Y197500D03*
X496200Y149500D03*
X514600Y95700D03*
X379900Y115700D03*
X408600Y247300D03*
X385100Y364400D03*
X145700Y474900D03*
X204700Y474900D03*
X225800Y474800D03*
X216200Y449900D03*
X342000Y211100D03*
X431200Y168700D03*
X416000Y108200D03*
X323900Y116900D03*
X536100Y315100D03*
X499600Y101000D03*
D14*
X30000Y418000D03*
X52000Y392000D03*
D13*
X482600Y30300D03*
X434000Y425600D03*
X80500Y140000D03*
X64600Y126100D03*
X129600Y119900D03*
X106500Y161200D03*
X106100Y173500D03*
X80500Y173000D03*
X64900Y174000D03*
X30000Y74600D03*
X207100Y140500D03*
X259000Y74500D03*
X426500Y111020D03*
X534700Y96600D03*
X583500Y320300D03*
X583100Y390300D03*
X595300Y434900D03*
X520100Y420500D03*
X369900Y368400D03*
X350400Y394600D03*
X341600Y419700D03*
X327400Y429300D03*
X319500Y444700D03*
X341900Y202100D03*
X407000Y108200D03*
X422200Y168700D03*
X395000Y215500D03*
X575400Y437000D03*
D15*
X494500Y70900D03*
X273800Y73500D03*
D13*
X340100Y116900D03*
X473700Y120300D03*
D15*
X459134Y129100D03*
D16*
X467934Y120300D01*
X473700Y120300D01*
D13*
X474407Y128707D03*
D15*
X455334Y142600D03*
D16*
X469227Y128707D01*
X474407Y128707D01*
D13*
X302100Y419400D03*
X310200Y394600D03*
D14*
X306500Y276200D03*
D17*
X306500Y312300D01*
X307600Y313400D01*
X307600Y333900D01*
X314600Y340900D01*
D14*
X314600Y340900D03*
D18*
X302100Y419400D02*
X320284Y437584D01*
X371878Y437584D01*
D19*
X375400Y447200D03*
D20*
X375400Y441106D01*
X371878Y437584D01*
D13*
X494400Y167500D03*
D16*
X494400Y166740D01*
X478666Y151006D01*
X478673Y130474D02*
X478673Y119240D01*
X470183Y110750D01*
X461997Y110750D01*
X478666Y130480D02*
X478673Y130474D01*
D13*
X452312Y133300D03*
D16*
X478666Y130480D02*
X478666Y151006D01*
X452312Y133300D02*
X452312Y120435D01*
X461997Y110750D01*
D13*
X506300Y167400D03*
X506788Y138855D03*
X469117Y83017D03*
D16*
X469117Y105441D01*
X481673Y117997D02*
X481673Y129700D01*
X490828Y138855D01*
X506788Y138855D01*
X481673Y117997D02*
X469117Y105441D01*
D13*
X546100Y388800D03*
D16*
X538832Y396068D01*
X538832Y411901D01*
X487900Y508000D02*
X482600Y508000D01*
X498100Y452633D02*
X538832Y411901D01*
X498100Y452633D02*
X498100Y497800D01*
X487900Y508000D01*
D13*
X506300Y212500D03*
X550800Y122800D03*
D16*
X556012Y128012D01*
X564301Y128012D01*
X570500Y134210D01*
X570500Y183567D02*
X561766Y192301D01*
X573786Y262134D02*
X576367Y262134D01*
X578866Y264633D01*
X578866Y268167D01*
X577800Y269233D01*
X570500Y183567D02*
X570500Y134210D01*
X561766Y192301D02*
X561766Y250115D01*
X573786Y262134D01*
X573966Y318934D02*
X573966Y323310D01*
X566122Y331154D01*
X569888Y367874D02*
X568622Y369140D01*
X569888Y348360D02*
X566122Y344594D01*
X569888Y348360D02*
X569888Y367874D01*
X568622Y405836D02*
X570988Y408202D01*
X570988Y421645D01*
X582666Y433323D01*
X582666Y441665D01*
X577800Y315100D02*
X577800Y269233D01*
X577800Y315100D02*
X573966Y318934D01*
X566122Y331154D02*
X566122Y344594D01*
X568622Y369140D02*
X568622Y405836D01*
X582666Y441665D02*
X594600Y453599D01*
X588301Y517900D02*
X580099Y517900D01*
X574300Y512101D01*
X588301Y517900D02*
X594600Y511601D01*
X574300Y504900D02*
X563600Y494200D01*
X506600Y494200D01*
X503800Y497000D01*
D18*
X503000Y497800D01*
X498100Y497800D01*
D16*
X594600Y511601D02*
X594600Y453599D01*
X574300Y504900D02*
X574300Y512101D01*
D13*
X457553Y290453D03*
X494300Y212500D03*
X534566Y402984D03*
D16*
X513500Y420651D02*
X513500Y432990D01*
X495000Y493357D02*
X490257Y498100D01*
X478499Y498100D01*
X468599Y508000D02*
X457200Y508000D01*
X468599Y508000D02*
X478499Y498100D01*
X495000Y451490D02*
X513500Y432990D01*
X495000Y451490D02*
X495000Y493357D01*
X529550Y408000D02*
X534566Y402984D01*
X529550Y408000D02*
X529550Y408567D01*
X525517Y412600D01*
X521551Y412600D02*
X513500Y420651D01*
X521551Y412600D02*
X525517Y412600D01*
D13*
X557002Y135034D03*
X554300Y182500D03*
X523000Y75600D03*
X552394Y131818D03*
X542300Y227600D03*
X516600Y71100D03*
X399500Y444600D03*
X407900Y429300D03*
X469000Y430600D03*
X579600Y365200D03*
X434400Y342600D03*
D16*
X434400Y344567D01*
X433134Y345833D01*
X433134Y349755D01*
X405723Y377166D02*
X403933Y377166D01*
X401334Y379765D01*
X401334Y388731D01*
X424967Y408500D02*
X425516Y407951D01*
D13*
X425516Y407951D03*
D16*
X405723Y377166D02*
X433134Y349755D01*
X401334Y388731D02*
X421103Y408500D01*
X424967Y408500D01*
D13*
X434300Y452800D03*
X359500Y444500D03*
X368000Y429300D03*
X381700Y419900D03*
X390400Y394600D03*
X527200Y315200D03*
D19*
X402200Y361200D03*
X392300Y381932D03*
D13*
X490700Y318400D03*
X530400Y227500D03*
X500300Y318400D03*
X511100Y248700D03*
X409000Y326100D03*
X386484Y307717D03*
D16*
X390617Y307717D01*
X409000Y326100D01*
D13*
X485200Y316900D03*
X518300Y227500D03*
X439200Y260800D03*
X424533Y252033D03*
X424516Y274417D03*
D16*
X423465Y273366D01*
X408084Y273366D01*
X404184Y269466D01*
D13*
X404184Y269466D03*
X482300Y227500D03*
X488200Y302800D03*
X370900Y247000D03*
X365700Y214200D03*
D16*
X365700Y241800D01*
X370900Y247000D01*
D13*
X474400Y165300D03*
X464633Y174067D03*
X411823Y231766D03*
X411732Y220234D03*
X474400Y150600D03*
X407000Y228766D03*
X406200Y220234D03*
X441267Y228367D03*
X429434Y229074D03*
X453004Y216204D03*
D16*
X451622Y214822D01*
X404378Y214822D01*
X395600Y223600D01*
X389016Y223600D02*
X386484Y221068D01*
D13*
X386484Y221068D03*
D16*
X389016Y223600D02*
X395600Y223600D01*
D13*
X385100Y226600D03*
D16*
X403133Y226600D01*
X405233Y224500D01*
X443101Y218101D02*
X444088Y219088D01*
X443101Y218101D02*
X435500Y218101D01*
X429100Y224500D01*
X405233Y224500D01*
D13*
X444088Y219088D03*
X258750Y150350D03*
D16*
X258750Y144650D02*
X239200Y125100D01*
X238200Y125100D01*
X258750Y144650D02*
X258750Y150350D01*
D13*
X238200Y125100D03*
X284317Y142117D03*
D16*
X264659Y142117D01*
D13*
X242300Y119768D03*
D16*
X242311Y119768D02*
X264659Y142117D01*
X242311Y119768D02*
X242300Y119768D01*
D13*
X409900Y158900D03*
D16*
X404600Y153600D01*
X404600Y127500D01*
X399600Y122500D01*
X322500Y122500D02*
X304500Y140500D01*
X304900Y140900D01*
D13*
X304900Y140900D03*
X237600Y167500D03*
D16*
X221400Y167500D01*
X206500Y152600D01*
D13*
X206500Y152600D03*
D16*
X322500Y122500D02*
X399600Y122500D01*
D13*
X473266Y136350D03*
X450734Y158700D03*
D16*
X448400Y156366D01*
X431024Y72901D02*
X354075Y72901D01*
X348176Y78800D01*
X279300Y78800D01*
D13*
X253400Y90000D03*
D16*
X266826Y89450D02*
X268650Y89450D01*
X266826Y89450D02*
X266276Y90000D01*
X253400Y90000D01*
X268650Y89450D02*
X279300Y78800D01*
D21*
X445000Y152966D02*
X448400Y156366D01*
D16*
X445000Y110149D02*
X444122Y109271D01*
X445000Y110149D02*
X445000Y152966D01*
X444122Y109271D02*
X444122Y85999D01*
X431024Y72901D01*
D13*
X518300Y212500D03*
X460309Y247109D03*
X460500Y295200D03*
D16*
X460309Y247109D02*
X460309Y236515D01*
X510566Y220234D02*
X518300Y212500D01*
X476590Y220234D02*
X460309Y236515D01*
X476590Y220234D02*
X510566Y220234D01*
D13*
X460934Y300918D03*
X465934Y241484D03*
X530300Y212400D03*
D16*
X465934Y235133D02*
X465934Y241484D01*
X465934Y235133D02*
X477833Y223234D01*
X519466Y223234D01*
X530300Y212400D01*
D13*
X428700Y385300D03*
D16*
X482290Y402866D02*
X488310Y402866D01*
X492676Y398500D01*
X439434Y396034D02*
X428700Y385300D01*
X439434Y396034D02*
X475458Y396034D01*
X482290Y402866D01*
D13*
X515300Y405900D03*
D16*
X507900Y398500D01*
X492676Y398500D01*
D13*
X459645Y306450D03*
X542300Y212500D03*
X472600Y234500D03*
D16*
X536233Y212500D02*
X542300Y212500D01*
D13*
X525284Y406800D03*
D16*
X522566Y229267D02*
X522566Y226167D01*
X517333Y234500D02*
X472600Y234500D01*
X517333Y234500D02*
X522566Y229267D01*
X522566Y226167D02*
X536233Y212500D01*
D13*
X433112Y381388D03*
D16*
X483533Y399866D02*
X487067Y399866D01*
X491633Y395300D01*
X529566Y397833D02*
X529566Y397866D01*
X530300Y398600D01*
X529566Y397833D02*
X527033Y395300D01*
X530300Y398600D02*
X530300Y401784D01*
X525284Y406800D01*
X527033Y395300D02*
X491633Y395300D01*
X467533Y389700D02*
X465267Y391966D01*
X461733Y391966D01*
X459234Y389467D01*
X459234Y389334D01*
X454166Y384266D01*
X438633Y384266D01*
X435755Y381388D02*
X433112Y381388D01*
X435755Y381388D02*
X438633Y384266D01*
X473367Y389700D02*
X483533Y399866D01*
X473367Y389700D02*
X467533Y389700D01*
X520700Y406800D02*
X525284Y406800D01*
X520700Y406800D02*
X517900Y409600D01*
X517633Y409600D01*
X517067Y410166D01*
X483133Y406034D02*
X481967Y407200D01*
X481700Y407200D01*
X510599Y410166D02*
X517067Y410166D01*
X510599Y410166D02*
X506467Y406034D01*
X483133Y406034D01*
X481700Y407200D02*
X474366Y414534D01*
X474366Y416367D01*
X442251Y448482D01*
X430418Y448482D01*
X425516Y453384D02*
X425516Y453734D01*
D13*
X425516Y453734D03*
D16*
X425516Y453384D02*
X430418Y448482D01*
D13*
X426000Y466866D03*
D16*
X426000Y492157D01*
X547401Y508000D02*
X558800Y508000D01*
X547401Y508000D02*
X537501Y517900D01*
X451743Y517900D01*
X426000Y492157D01*
D13*
X540200Y290400D03*
D16*
X540200Y293900D01*
X545500Y299200D01*
X545500Y352972D01*
X543500Y354972D01*
X543500Y362428D01*
X550366Y369294D02*
X550366Y408783D01*
X520900Y438249D01*
X550366Y369294D02*
X543500Y362428D01*
X527500Y469400D02*
X570700Y469400D01*
X574300Y473000D01*
X584200Y496601D02*
X584200Y508000D01*
X574300Y486701D02*
X574300Y473000D01*
X574300Y486701D02*
X584200Y496601D01*
X520900Y462800D02*
X520900Y438249D01*
X520900Y462800D02*
X527500Y469400D01*
D13*
X530300Y182400D03*
D16*
X456043Y250357D02*
X431900Y274500D01*
X456043Y250357D02*
X456043Y236538D01*
X436134Y350998D02*
X405700Y381432D01*
X436134Y347076D02*
X442700Y340510D01*
X436134Y347076D02*
X436134Y350998D01*
X431900Y326700D02*
X431900Y274500D01*
X442700Y337200D02*
X442700Y340510D01*
D13*
X459903Y348198D03*
D18*
X448100Y337100D02*
X442800Y337100D01*
X442700Y337200D01*
D16*
X454157Y343117D02*
X454157Y345900D01*
X448140Y337100D02*
X448100Y337100D01*
X454157Y345900D02*
X456454Y348198D01*
X459903Y348198D01*
X454157Y343117D02*
X448140Y337100D01*
D13*
X405700Y381432D03*
D16*
X456043Y236538D02*
X478134Y214448D01*
X478134Y210733D01*
X506467Y182400D02*
X530300Y182400D01*
X506467Y182400D02*
X478134Y210733D01*
X431900Y326700D02*
X442300Y337100D01*
D18*
X442800Y337100D01*
D13*
X482300Y197400D03*
D16*
X469670Y210030D01*
X413868Y257401D02*
X428900Y272433D01*
X413868Y257401D02*
X413868Y253752D01*
D13*
X431400Y334066D03*
X378600Y382166D03*
D16*
X397434Y363332D01*
X397434Y345026D01*
X428900Y331566D02*
X431400Y334066D01*
X428900Y331566D02*
X428900Y272433D01*
X431400Y334066D02*
X408394Y334066D01*
X397434Y345026D01*
X469670Y217472D02*
X469670Y210030D01*
X466000Y221142D02*
X466000Y222339D01*
X466000Y221142D02*
X469670Y217472D01*
X427610Y241466D02*
X426154Y241466D01*
X465994Y222339D02*
X466000Y222339D01*
X465994Y222339D02*
X455367Y232966D01*
X436110Y232966D01*
X426154Y241466D02*
X413868Y253752D01*
X427610Y241466D02*
X436110Y232966D01*
D13*
X475800Y157600D03*
X473954Y184554D03*
X433752Y241602D03*
X442559Y346884D03*
D16*
X442559Y347559D01*
X445034Y371867D02*
X447533Y374366D01*
X445034Y350034D02*
X442559Y347559D01*
X447533Y374366D02*
X453133Y374366D01*
X445034Y371867D02*
X445034Y350034D01*
X453133Y374366D02*
X461933Y383166D01*
X479466Y383166D01*
D13*
X485300Y395600D03*
D16*
X485300Y389000D01*
X479466Y383166D01*
D13*
X405600Y386964D03*
X434384Y375049D03*
D16*
X439134Y350309D02*
X442559Y346884D01*
X434384Y356991D02*
X434384Y375049D01*
X439134Y352241D02*
X439134Y350309D01*
X439134Y352241D02*
X434384Y356991D01*
D13*
X437883Y237383D03*
X462400Y377600D03*
D16*
X459700Y374900D01*
X458715Y374900D01*
D13*
X449891Y344884D03*
D16*
X453566Y368333D02*
X453566Y369751D01*
X453566Y368333D02*
X448034Y362801D01*
X448034Y346741D02*
X449891Y344884D01*
X453566Y369751D02*
X458715Y374900D01*
X448034Y362801D02*
X448034Y346741D01*
D13*
X405536Y399036D03*
X427500Y391700D03*
X494300Y227500D03*
X452623Y353284D03*
X469500Y378900D03*
D16*
X467534Y376934D01*
X467534Y366749D02*
X462985Y362200D01*
X454100Y362200D01*
X451034Y359134D01*
X467534Y366749D02*
X467534Y376934D01*
X451034Y359134D02*
X451034Y354873D01*
X452623Y353284D01*
D13*
X396416Y403616D03*
X430781Y396919D03*
X463500Y387700D03*
X518300Y242500D03*
X471800Y373800D03*
X508400Y302800D03*
D16*
X494966Y316234D01*
X494966Y320167D01*
X471800Y343333D02*
X471800Y373800D01*
X471800Y343333D02*
X494966Y320167D01*
D13*
X410984Y419100D03*
X435200Y404600D03*
X463500Y400600D03*
X539400Y442500D03*
D16*
X539400Y424200D02*
X553400Y410200D01*
X539400Y424200D02*
X539400Y442500D01*
X546500Y361185D02*
X546500Y356215D01*
X546500Y361185D02*
X553400Y368085D01*
X546500Y356215D02*
X548500Y354215D01*
X553400Y368085D02*
X553400Y410200D01*
D13*
X551400Y289900D03*
D16*
X548500Y292800D01*
X548500Y354215D01*
D13*
X552300Y442600D03*
D16*
X552300Y437443D01*
X564988Y424755D01*
D13*
X562900Y290000D03*
D16*
X564988Y410688D02*
X564988Y424755D01*
X564988Y410688D02*
X562622Y408322D01*
X562622Y366655D02*
X563888Y365389D01*
X563888Y361855D01*
X562622Y360589D01*
X562622Y349579D02*
X560122Y347079D01*
X560122Y292778D02*
X562900Y290000D01*
X562622Y366655D02*
X562622Y408322D01*
X562622Y360589D02*
X562622Y349579D01*
X560122Y347079D02*
X560122Y292778D01*
D13*
X482300Y242500D03*
D16*
X463900Y260900D01*
X452025Y260900D01*
X436225Y276700D01*
D13*
X436225Y276700D03*
X421500Y287900D03*
D16*
X411600Y287900D01*
X396400Y272700D01*
X343877Y272700D01*
X338499Y267322D01*
X311574Y263950D02*
X301426Y263950D01*
X311574Y263950D02*
X314946Y267322D01*
X338499Y267322D01*
X301426Y263950D02*
X300998Y264378D01*
X257578Y264378D01*
X148900Y155700D01*
X148900Y116700D01*
D13*
X190400Y89300D03*
D16*
X176300Y89300D01*
X148900Y116700D01*
D13*
X415266Y349600D03*
X436166Y337000D03*
D16*
X415266Y345637D02*
X415266Y349600D01*
X423837Y337066D02*
X428367Y337066D01*
X429633Y338332D01*
X434834Y338332D01*
X436166Y337000D01*
X423837Y337066D02*
X415266Y345637D01*
D13*
X185000Y65500D03*
X205100Y65600D03*
D16*
X330200Y50800D02*
X349200Y69800D01*
X424634Y279949D02*
X422383Y282200D01*
D13*
X424634Y279949D03*
X445700Y281800D03*
D16*
X451600Y281800D01*
X452200Y281200D01*
X513206Y281200D02*
X514941Y282935D01*
X519935Y282935D01*
X513206Y281200D02*
X452200Y281200D01*
D13*
X529400Y290000D03*
D16*
X527000Y290000D01*
X519935Y282935D01*
X426367Y238466D02*
X424711Y238466D01*
X426367Y238466D02*
X435700Y229133D01*
X435700Y225300D01*
X437646Y223354D01*
X445855Y223354D01*
X448738Y220470D02*
X454772Y220470D01*
X424711Y238466D02*
X410700Y252477D01*
X445855Y223354D02*
X448738Y220470D01*
X454772Y220470D02*
X460368Y214874D01*
X399000Y261200D02*
X399000Y271057D01*
X399000Y261200D02*
X407723Y252477D01*
X410700Y252477D01*
X410143Y282200D02*
X422383Y282200D01*
X410143Y282200D02*
X399000Y271057D01*
D21*
X448034Y149950D02*
X448034Y108923D01*
X447134Y108023D01*
X448034Y149950D02*
X460356Y162271D01*
D16*
X460368Y162283D01*
X460368Y214874D01*
X447134Y108023D02*
X447134Y84751D01*
X432183Y69800D01*
X349200Y69800D01*
D13*
X525300Y399600D03*
X520300Y402300D03*
X525166Y448216D03*
X515400Y399600D03*
X478500Y434300D03*
D16*
X457200Y455600D01*
X457200Y457200D01*
D13*
X431700Y415400D03*
D16*
X413317Y415400D01*
X412751Y414834D01*
X390334Y414834D01*
X309526Y353150D02*
X295350Y338974D01*
X289778Y300501D02*
X283699Y294422D01*
X295350Y319850D02*
X295350Y338974D01*
X295350Y319850D02*
X289778Y314278D01*
X309526Y353150D02*
X328650Y353150D01*
X289778Y314278D02*
X289778Y300501D01*
X283699Y294422D02*
X279189Y294422D01*
X97400Y112633D01*
X97400Y75400D02*
X96800Y74800D01*
D13*
X96800Y74800D03*
D16*
X328650Y353150D02*
X390334Y414834D01*
X97400Y112633D02*
X97400Y75400D01*
D13*
X485500Y434200D03*
D16*
X479400Y440300D01*
X476743Y440300D01*
X472443Y444600D02*
X472443Y451566D01*
D13*
X472443Y451566D03*
D16*
X472443Y444600D02*
X476743Y440300D01*
D13*
X484900Y410300D03*
D16*
X484900Y412500D01*
D13*
X506400Y433700D03*
D16*
X506100Y433700D01*
X484900Y412500D01*
D13*
X495000Y410600D03*
X505100Y410700D03*
X565534Y137101D03*
X542300Y197500D03*
X572866Y448900D03*
D16*
X571266Y447300D01*
X571266Y441133D01*
X552867Y205134D02*
X521834Y205134D01*
X558766Y211033D02*
X558766Y251357D01*
X558766Y211033D02*
X552867Y205134D01*
X558766Y251357D02*
X570166Y262757D01*
D13*
X518300Y197500D03*
D16*
X518300Y201600D02*
X521834Y205134D01*
X518300Y201600D02*
X518300Y197500D01*
X565622Y407079D02*
X567988Y409445D01*
X565622Y367898D02*
X566888Y366632D01*
X566888Y360612D02*
X565622Y359346D01*
X566888Y360612D02*
X566888Y366632D01*
X565622Y348336D02*
X563122Y345836D01*
X570966Y322067D02*
X570966Y318533D01*
X570966Y322067D02*
X563122Y329911D01*
X570966Y318533D02*
X570166Y317733D01*
X570166Y262757D01*
X565622Y367898D02*
X565622Y407079D01*
X565622Y359346D02*
X565622Y348336D01*
X563122Y345836D02*
X563122Y329911D01*
X567988Y409445D02*
X567988Y437855D01*
X571266Y441133D01*
D13*
X516708Y278669D03*
X560184Y263051D03*
X574600Y266400D03*
X547400Y277100D03*
D14*
X334950Y93151D03*
D17*
X324400Y101700D02*
X271900Y101700D01*
D14*
X271900Y101700D03*
X123800Y190400D03*
D17*
X107700Y206500D01*
X107700Y206900D01*
X98600Y216000D01*
X98200Y216000D01*
D14*
X98200Y216000D03*
X118600Y414700D03*
D17*
X324400Y101700D02*
X335050Y91050D01*
D16*
X335050Y93050D02*
X334950Y93151D01*
X335050Y93050D02*
X335050Y91050D01*
D13*
X89600Y182000D03*
X482400Y167500D03*
D19*
X404900Y289900D03*
X385984Y290800D03*
D13*
X160000Y370000D03*
X170000Y370000D03*
X180000Y370000D03*
X190000Y370000D03*
X200000Y370000D03*
X210000Y370000D03*
X220000Y370000D03*
X220000Y360000D03*
X210000Y360000D03*
X200000Y360000D03*
X190000Y360000D03*
X180000Y360000D03*
X170000Y360000D03*
X160000Y360000D03*
X160000Y350000D03*
X170000Y350000D03*
X180000Y350000D03*
X190000Y350000D03*
X200000Y350000D03*
X210000Y350000D03*
X220000Y350000D03*
X220000Y340000D03*
X210000Y340000D03*
X200000Y340000D03*
X190000Y340000D03*
X180000Y340000D03*
X170000Y340000D03*
X160000Y340000D03*
X220000Y320000D03*
X230000Y320000D03*
X210000Y320000D03*
X200000Y320000D03*
X190000Y320000D03*
X180000Y320000D03*
X170000Y320000D03*
X160000Y320000D03*
X150000Y320000D03*
X185300Y475300D03*
X189900Y450400D03*
X244400Y474800D03*
X562534Y132278D03*
X542300Y182500D03*
X536100Y82500D03*
X494800Y270434D03*
D16*
X457334Y270434D01*
X454768Y267868D02*
X453625Y267868D01*
D13*
X453625Y267868D03*
D16*
X454768Y267868D02*
X457334Y270434D01*
D13*
X424600Y234200D03*
D16*
X424400Y234000D01*
X415623Y234000D01*
X413591Y236032D01*
X385832Y236032D01*
X372100Y222300D01*
X297800Y190200D02*
X297800Y145324D01*
X297800Y190200D02*
X314000Y206400D01*
X366000Y206400D01*
X372100Y212500D01*
X372100Y222300D01*
X292700Y62900D02*
X304800Y50800D01*
X254500Y62900D02*
X249266Y68134D01*
X254500Y62900D02*
X292700Y62900D01*
X249266Y68134D02*
X249266Y76167D01*
X244400Y81033D01*
X244400Y91924D01*
X297800Y145324D01*
D15*
X552500Y358700D03*
X461200Y368900D03*
D13*
X445100Y410300D03*
X445100Y400300D03*
X440500Y390000D03*
X440400Y380000D03*
X440400Y370000D03*
X444900Y422400D03*
X608700Y442300D03*
D16*
X613700Y447300D01*
X613701Y447300D01*
X619500Y453099D01*
X619500Y512101D01*
X607701Y523900D02*
X446461Y523900D01*
X417661Y495100D01*
D13*
X90000Y411400D03*
D16*
X607701Y523900D02*
X619500Y512101D01*
X417661Y495100D02*
X298400Y495100D01*
X128600Y450000D02*
X90000Y411400D01*
X264300Y461000D02*
X298400Y495100D01*
X160000Y450000D02*
X128600Y450000D01*
X160000Y450000D02*
X171000Y461000D01*
X264300Y461000D01*
D13*
X64700Y323900D03*
D15*
X126200Y334300D03*
X80800Y272500D03*
D17*
X126200Y334300D02*
X126200Y379700D01*
X142100Y395600D01*
X233584Y395600D01*
X250584Y378600D01*
X250584Y376894D01*
X257500Y369978D01*
X257500Y333700D01*
X259716Y331484D01*
X278116Y331484D01*
D22*
X279400Y330200D01*
D13*
X485300Y150000D03*
X515100Y114600D03*
X534800Y113700D03*
X499600Y109900D03*
X470000Y405700D03*
D20*
X467008Y405700D01*
X405508Y435416D02*
X396592Y426500D01*
X373708Y426500D02*
X370492Y423284D01*
X367184Y423284D01*
X334200Y390300D02*
X334200Y371200D01*
X334400Y371200D01*
D19*
X334400Y371200D03*
X356200Y321600D03*
D20*
X356200Y286300D01*
X354700Y284800D01*
X354500Y285000D01*
D19*
X354500Y285000D03*
X352200Y236400D03*
D20*
X341852Y236400D01*
X336224Y242028D01*
X291372Y242028D01*
X373708Y426500D02*
X396592Y426500D01*
X367184Y423284D02*
X334200Y390300D01*
D19*
X156150Y149300D03*
D16*
X260850Y254000D01*
D20*
X437716Y416600D02*
X438000Y416316D01*
X456392Y416316D01*
X467008Y405700D01*
X420300Y420150D02*
X413916Y426534D01*
X413916Y431792D01*
X410292Y435416D01*
X405508Y435416D01*
D18*
X279400Y254000D02*
X260850Y254000D01*
X279400Y254000D02*
X291372Y242028D01*
D20*
X420300Y420150D02*
X427942Y420150D01*
X429208Y421416D01*
X429676Y421416D01*
D18*
X431090Y421416D01*
X431922Y420584D01*
X433732Y420584D01*
X437716Y416600D01*
D13*
X525300Y324300D03*
X566700Y320300D03*
D16*
X186066Y147266D02*
X186066Y138833D01*
X181800Y134567D01*
X181800Y105600D02*
X195400Y92000D01*
X195400Y86100D01*
X191400Y82100D01*
X191300Y82200D01*
D13*
X191300Y82200D03*
D16*
X181800Y105600D02*
X181800Y134567D01*
D18*
X518200Y317200D02*
X525300Y324300D01*
X518200Y317200D02*
X518200Y302800D01*
X455475Y285437D02*
X453811Y287100D01*
X500837Y285437D02*
X518200Y302800D01*
X500837Y285437D02*
X455475Y285437D01*
X439760Y287100D02*
X439666Y287194D01*
D19*
X439666Y287194D03*
X419500Y297100D03*
D18*
X403000Y297100D01*
X384500Y278600D01*
X383850Y279250D01*
D19*
X383850Y279250D03*
X362016Y261000D03*
D18*
X357716Y256700D01*
X357716Y234115D01*
X439760Y287100D02*
X453811Y287100D01*
X261406Y180400D02*
X219200Y180400D01*
X186066Y147266D01*
X261406Y180400D02*
X295778Y214772D01*
X331809Y214772D01*
X349899Y230900D02*
X349915Y230884D01*
X354485Y230884D01*
X357716Y234115D01*
X349899Y230900D02*
X347937Y230900D01*
X331809Y214772D01*
D13*
X440400Y360200D03*
D19*
X518500Y149800D03*
D16*
X494105Y123166D02*
X483334Y112395D01*
X483334Y100334D01*
X518500Y144534D02*
X518500Y149800D01*
X518500Y144534D02*
X497132Y123166D01*
X494105Y123166D01*
X477700Y94700D02*
X474300Y94700D01*
D13*
X474300Y94700D03*
X387500Y107266D03*
D16*
X389206Y107266D01*
X434340Y152400D01*
X483334Y100334D02*
X477700Y94700D01*
X294800Y146567D02*
X294800Y172600D01*
D13*
X479000Y306400D03*
X424200Y303100D03*
D16*
X471400Y306400D02*
X479000Y306400D01*
X457964Y319836D02*
X451620Y319836D01*
D13*
X451620Y319836D03*
D16*
X457964Y319836D02*
X471400Y306400D01*
X424200Y303100D02*
X386600Y303100D01*
X372900Y280400D02*
X372700Y280200D01*
D13*
X372700Y280200D03*
X379800Y267300D03*
D16*
X375800Y267300D01*
X361466Y252966D01*
X361466Y232562D02*
X356038Y227134D01*
X349475Y227134D01*
X372900Y289400D02*
X386600Y303100D01*
X372900Y289400D02*
X372900Y280400D01*
X361466Y252966D02*
X361466Y232562D01*
X349475Y227134D02*
X333363Y211022D01*
X297332Y211022D02*
X290005Y203695D01*
X290005Y177395D01*
X294800Y172600D01*
X297332Y211022D02*
X333363Y211022D01*
X223900Y75667D02*
X223900Y64900D01*
X238000Y50800D01*
X279400Y50800D01*
X223900Y75667D02*
X294800Y146567D01*
X371500Y66700D02*
X355600Y50800D01*
X446371Y66700D02*
X449371Y69700D01*
X446371Y66700D02*
X371500Y66700D01*
D13*
X482300Y257600D03*
X453600Y228700D03*
D16*
X466670Y215630D02*
X466670Y202100D01*
X466670Y215630D02*
X453600Y228700D01*
X449371Y69700D02*
X462800Y69700D01*
X486334Y93234D01*
X486334Y111152D01*
X502034Y166736D02*
X466670Y202100D01*
X502034Y166736D02*
X502034Y165633D01*
X507967Y159700D01*
X521200Y159700D01*
X525900Y155000D01*
X501905Y120166D02*
X495348Y120166D01*
X486334Y111152D01*
X525900Y144161D02*
X525900Y155000D01*
X525900Y144161D02*
X501905Y120166D01*
X504390Y114166D02*
X497833Y114166D01*
X492334Y108667D01*
X504390Y114166D02*
X532966Y142742D01*
X532966Y161391D01*
X522423Y171934D01*
D13*
X502421Y177164D03*
D16*
X512433Y171934D02*
X522423Y171934D01*
X507203Y177164D02*
X502421Y177164D01*
X507203Y177164D02*
X512433Y171934D01*
D13*
X500819Y238766D03*
D16*
X417799Y50800D02*
X406400Y50800D01*
X417799Y50800D02*
X427699Y60700D01*
X448857Y60700D01*
X451857Y63700D01*
X465285Y63700D02*
X492334Y90749D01*
X465285Y63700D02*
X451857Y63700D01*
X492334Y90749D02*
X492334Y108667D01*
D13*
X522167Y236467D03*
X514200Y176200D03*
D16*
X523700Y176200D02*
X535966Y163934D01*
X523700Y176200D02*
X514200Y176200D01*
X497833Y105266D02*
X495334Y102767D01*
X510834Y115101D02*
X510834Y116367D01*
X510834Y115101D02*
X500999Y105266D01*
X497833Y105266D01*
X510834Y116367D02*
X535966Y141499D01*
X443199Y50800D02*
X431800Y50800D01*
X443199Y50800D02*
X453099Y60700D01*
X535966Y141499D02*
X535966Y163934D01*
X495334Y89506D02*
X466528Y60700D01*
X453099Y60700D01*
X495334Y89506D02*
X495334Y102767D01*
D13*
X530400Y257500D03*
D16*
X509700Y278200D01*
X436693Y327093D02*
X434900Y325300D01*
X436693Y327093D02*
X438326Y327093D01*
D13*
X438326Y327093D03*
X391016Y363717D03*
D16*
X376833Y377900D02*
X374334Y380399D01*
X374334Y383933D01*
X391016Y364517D02*
X391016Y363717D01*
X391016Y364517D02*
X377633Y377900D01*
X376833Y377900D01*
X374334Y383933D02*
X385400Y394999D01*
X385400Y400333D01*
D13*
X399400Y408700D03*
D16*
X393767Y408700D01*
D13*
X386300Y452300D03*
D16*
X392000Y458000D01*
X439518Y458000D02*
X448618Y467100D01*
X472700Y467100D01*
X482600Y457200D01*
X439518Y458000D02*
X392000Y458000D01*
X393767Y408700D02*
X385400Y400333D01*
X434900Y284200D02*
X443500Y275600D01*
X449367Y275600D01*
X451967Y278200D01*
X509700Y278200D01*
X434900Y284200D02*
X434900Y325300D01*
X393900Y63700D02*
X381000Y50800D01*
X393900Y63700D02*
X447614Y63700D01*
X450614Y66700D01*
X503148Y117166D02*
X529866Y143884D01*
X496590Y117166D02*
X489334Y109910D01*
X496590Y117166D02*
X503148Y117166D01*
X498155Y182845D02*
X488900Y192100D01*
X498155Y182845D02*
X498155Y175397D01*
X488900Y192100D02*
X488900Y193234D01*
D13*
X488900Y193234D03*
X494300Y242600D03*
D16*
X489334Y91991D02*
X464043Y66700D01*
X450614Y66700D01*
X489334Y91991D02*
X489334Y109910D01*
X501452Y172100D02*
X508024Y172100D01*
X511190Y168934D01*
X501452Y172100D02*
X498155Y175397D01*
X511190Y168934D02*
X521181Y168934D01*
X529866Y160249D01*
X529866Y143884D01*
X546566Y210733D02*
X546566Y214267D01*
X534666Y226167D01*
X546566Y210733D02*
X543967Y208134D01*
X514034Y201577D02*
X514034Y195733D01*
X514034Y201577D02*
X520591Y208134D01*
X543967Y208134D01*
X534666Y226167D02*
X534666Y232167D01*
X522300Y244533D01*
D13*
X518300Y257500D03*
D16*
X522300Y253500D01*
X522300Y244533D01*
X554800Y193100D02*
X561000Y186900D01*
X561000Y154467D01*
X516667Y193100D02*
X514034Y195733D01*
X516667Y193100D02*
X554800Y193100D01*
X464100Y57700D02*
X457200Y50800D01*
X464100Y57700D02*
X467771Y57700D01*
X498334Y88263D01*
X498334Y91801D01*
X561000Y154467D01*
D13*
X542400Y257500D03*
D16*
X532167Y253234D02*
X528633Y253234D01*
X526134Y255733D01*
X526134Y257523D01*
X536433Y257500D02*
X542400Y257500D01*
X536433Y257500D02*
X532167Y253234D01*
X526134Y257523D02*
X508457Y275200D01*
D13*
X453200Y273400D03*
D16*
X455000Y275200D01*
X508457Y275200D01*
D13*
X454157Y311266D03*
D16*
X442625Y322798D01*
X442625Y330617D01*
D13*
X442625Y330617D03*
X406734Y351400D03*
D16*
X395534Y392633D02*
X395534Y396167D01*
X406966Y351632D02*
X406734Y351400D01*
X398334Y378522D02*
X398334Y389833D01*
X395534Y392633D01*
X406966Y369890D02*
X406966Y351632D01*
X406966Y369890D02*
X398334Y378522D01*
X395534Y396167D02*
X402669Y403302D01*
X411662Y403302D01*
X420577Y412217D01*
X427283Y412217D01*
X428600Y410900D01*
X434800Y410900D01*
D13*
X436100Y410400D03*
X442100Y454300D03*
D16*
X436100Y410400D02*
X435300Y410400D01*
X434800Y410900D01*
D13*
X586300Y410400D03*
D16*
X586300Y433900D01*
X609600Y457200D01*
D13*
X554300Y257500D03*
X415750Y59434D03*
X558356Y367008D03*
D16*
X558356Y368798D01*
X558600Y369043D01*
X546100Y426900D02*
X546100Y449800D01*
X538700Y457200D01*
X533400Y457200D01*
X558600Y414400D02*
X558600Y369043D01*
X558600Y414400D02*
X546100Y426900D01*
D13*
X497200Y45600D03*
X436700Y442900D03*
X387300Y433200D03*
D18*
X393684Y439584D01*
X404894Y442900D02*
X436700Y442900D01*
X401578Y439584D02*
X393684Y439584D01*
X401578Y439584D02*
X404894Y442900D01*
D13*
X379200Y285300D03*
X368900Y294200D03*
D16*
X362300Y300800D01*
X362300Y354800D02*
X349600Y367500D01*
D13*
X349600Y367500D03*
X327200Y385400D03*
D16*
X324500Y388100D01*
X305100Y388100D01*
X294800Y398400D01*
X362300Y354800D02*
X362300Y300800D01*
X294800Y398400D02*
X294800Y484400D01*
X302500Y492100D01*
X421700Y492100D01*
X450500Y520900D01*
X596700Y520900D01*
X609600Y508000D01*
M02*
