G04 EAGLE Gerber RS-274X export*
G75*
%MOMM*%
%FSLAX34Y34*%
%LPD*%
%INCopper Layer 15*%
%IPPOS*%
%AMOC8*
5,1,8,0,0,1.08239X$1,22.5*%
G01*
%ADD10C,1.530000*%
%ADD11C,1.524000*%
%ADD12C,0.403200*%
%ADD13C,0.750000*%
%ADD14C,1.000000*%
%ADD15C,0.500000*%
%ADD16C,0.200000*%
%ADD17C,0.150000*%
%ADD18C,1.500000*%
%ADD19C,2.000000*%
%ADD20C,0.700000*%
%ADD21C,0.503200*%
%ADD22C,0.800000*%
%ADD23C,1.700000*%
%ADD24C,0.600000*%
%ADD25C,0.300000*%

G36*
X516096Y53267D02*
X516096Y53267D01*
X516193Y53276D01*
X516216Y53286D01*
X516241Y53290D01*
X516327Y53336D01*
X516416Y53377D01*
X516441Y53398D01*
X516456Y53405D01*
X516473Y53424D01*
X516530Y53470D01*
X541013Y77954D01*
X541028Y77974D01*
X541046Y77989D01*
X541098Y78072D01*
X541155Y78152D01*
X541163Y78175D01*
X541175Y78196D01*
X541198Y78292D01*
X541226Y78386D01*
X541226Y78410D01*
X541231Y78434D01*
X541222Y78531D01*
X541218Y78629D01*
X541210Y78652D01*
X541207Y78677D01*
X541167Y78766D01*
X541133Y78858D01*
X541117Y78877D01*
X541107Y78899D01*
X541013Y79013D01*
X540983Y79043D01*
X540983Y81957D01*
X543043Y84017D01*
X545957Y84017D01*
X545987Y83987D01*
X546007Y83972D01*
X546022Y83954D01*
X546105Y83902D01*
X546185Y83845D01*
X546208Y83837D01*
X546229Y83825D01*
X546325Y83802D01*
X546419Y83774D01*
X546443Y83774D01*
X546467Y83769D01*
X546564Y83778D01*
X546662Y83782D01*
X546685Y83790D01*
X546710Y83793D01*
X546799Y83833D01*
X546891Y83867D01*
X546910Y83883D01*
X546932Y83893D01*
X547046Y83987D01*
X558530Y95470D01*
X558587Y95550D01*
X558649Y95625D01*
X558657Y95648D01*
X558672Y95669D01*
X558700Y95762D01*
X558735Y95853D01*
X558738Y95886D01*
X558743Y95902D01*
X558742Y95927D01*
X558749Y96000D01*
X558749Y106500D01*
X558733Y106596D01*
X558724Y106693D01*
X558714Y106716D01*
X558710Y106741D01*
X558664Y106827D01*
X558623Y106916D01*
X558602Y106941D01*
X558595Y106956D01*
X558576Y106973D01*
X558530Y107030D01*
X536030Y129530D01*
X535950Y129587D01*
X535875Y129649D01*
X535852Y129657D01*
X535831Y129672D01*
X535738Y129700D01*
X535647Y129735D01*
X535614Y129738D01*
X535598Y129743D01*
X535573Y129742D01*
X535500Y129749D01*
X506950Y129749D01*
X506926Y129745D01*
X506901Y129748D01*
X506806Y129726D01*
X506709Y129710D01*
X506688Y129698D01*
X506664Y129692D01*
X506580Y129641D01*
X506494Y129595D01*
X506477Y129577D01*
X506456Y129564D01*
X506394Y129488D01*
X506327Y129417D01*
X506317Y129394D01*
X506301Y129375D01*
X506267Y129284D01*
X506226Y129194D01*
X506224Y129170D01*
X506215Y129147D01*
X506201Y129000D01*
X506201Y126707D01*
X506158Y126603D01*
X506141Y126532D01*
X506115Y126463D01*
X506108Y126390D01*
X506102Y126366D01*
X506104Y126349D01*
X506101Y126316D01*
X506101Y117150D01*
X506105Y117126D01*
X506102Y117101D01*
X506124Y117006D01*
X506140Y116909D01*
X506152Y116888D01*
X506158Y116864D01*
X506209Y116780D01*
X506255Y116694D01*
X506273Y116677D01*
X506286Y116656D01*
X506362Y116594D01*
X506433Y116527D01*
X506456Y116517D01*
X506475Y116501D01*
X506566Y116467D01*
X506656Y116426D01*
X506680Y116424D01*
X506703Y116415D01*
X506850Y116401D01*
X507397Y116401D01*
X507493Y116417D01*
X507590Y116426D01*
X507613Y116436D01*
X507638Y116440D01*
X507724Y116486D01*
X507813Y116527D01*
X507838Y116548D01*
X507853Y116555D01*
X507870Y116574D01*
X507927Y116620D01*
X511418Y120111D01*
X513807Y121101D01*
X516393Y121101D01*
X518428Y120258D01*
X518499Y120241D01*
X518568Y120215D01*
X518642Y120208D01*
X518666Y120202D01*
X518682Y120204D01*
X518715Y120201D01*
X536093Y120201D01*
X538482Y119211D01*
X540311Y117382D01*
X541301Y114993D01*
X541301Y112407D01*
X540311Y110018D01*
X538482Y108189D01*
X536093Y107199D01*
X517203Y107199D01*
X517107Y107183D01*
X517010Y107174D01*
X516987Y107164D01*
X516962Y107160D01*
X516876Y107114D01*
X516787Y107073D01*
X516762Y107052D01*
X516747Y107045D01*
X516745Y107042D01*
X516729Y107026D01*
X516673Y106980D01*
X514082Y104389D01*
X511693Y103399D01*
X503866Y103399D01*
X503842Y103395D01*
X503817Y103398D01*
X503722Y103376D01*
X503625Y103360D01*
X503604Y103348D01*
X503580Y103342D01*
X503496Y103291D01*
X503410Y103245D01*
X503393Y103227D01*
X503372Y103214D01*
X503310Y103138D01*
X503243Y103067D01*
X503233Y103044D01*
X503217Y103025D01*
X503183Y102934D01*
X503142Y102844D01*
X503140Y102820D01*
X503131Y102797D01*
X503117Y102650D01*
X503117Y99543D01*
X501057Y97483D01*
X498143Y97483D01*
X496083Y99543D01*
X496083Y102457D01*
X496608Y102982D01*
X496637Y103021D01*
X496673Y103055D01*
X496707Y103120D01*
X496750Y103180D01*
X496765Y103227D01*
X496788Y103270D01*
X496800Y103343D01*
X496821Y103413D01*
X496820Y103462D01*
X496828Y103511D01*
X496816Y103584D01*
X496813Y103657D01*
X496796Y103703D01*
X496788Y103752D01*
X496753Y103817D01*
X496727Y103886D01*
X496696Y103924D01*
X496673Y103967D01*
X496620Y104017D01*
X496573Y104074D01*
X496531Y104100D01*
X496495Y104134D01*
X496366Y104203D01*
X496365Y104203D01*
X496365Y104204D01*
X495918Y104389D01*
X494089Y106218D01*
X493099Y108607D01*
X493099Y129000D01*
X493095Y129024D01*
X493098Y129049D01*
X493076Y129144D01*
X493060Y129241D01*
X493048Y129262D01*
X493042Y129286D01*
X492991Y129370D01*
X492945Y129456D01*
X492927Y129473D01*
X492914Y129494D01*
X492838Y129556D01*
X492767Y129623D01*
X492744Y129633D01*
X492725Y129649D01*
X492634Y129683D01*
X492544Y129724D01*
X492520Y129726D01*
X492497Y129735D01*
X492350Y129749D01*
X478673Y129749D01*
X478649Y129745D01*
X478624Y129748D01*
X478529Y129726D01*
X478432Y129710D01*
X478410Y129698D01*
X478386Y129692D01*
X478303Y129641D01*
X478217Y129595D01*
X478200Y129577D01*
X478179Y129564D01*
X478117Y129488D01*
X478050Y129417D01*
X478040Y129394D01*
X478024Y129375D01*
X477990Y129284D01*
X477949Y129194D01*
X477947Y129170D01*
X477938Y129147D01*
X477923Y129000D01*
X477923Y127250D01*
X475863Y125190D01*
X475592Y125190D01*
X475520Y125178D01*
X475446Y125176D01*
X475400Y125158D01*
X475352Y125150D01*
X475287Y125116D01*
X475218Y125090D01*
X475180Y125058D01*
X475136Y125035D01*
X475086Y124982D01*
X475029Y124935D01*
X475003Y124893D01*
X474969Y124857D01*
X474939Y124790D01*
X474900Y124728D01*
X474889Y124680D01*
X474869Y124635D01*
X474861Y124562D01*
X474845Y124490D01*
X474849Y124441D01*
X474845Y124392D01*
X474861Y124321D01*
X474868Y124247D01*
X474889Y124203D01*
X474900Y124154D01*
X474939Y124092D01*
X474969Y124025D01*
X475015Y123968D01*
X475029Y123947D01*
X475037Y123940D01*
X475040Y123936D01*
X475046Y123930D01*
X475063Y123911D01*
X477217Y121757D01*
X477217Y118843D01*
X475157Y116783D01*
X472243Y116783D01*
X470183Y118843D01*
X470183Y121757D01*
X472243Y123817D01*
X472514Y123817D01*
X472587Y123829D01*
X472660Y123831D01*
X472706Y123848D01*
X472755Y123856D01*
X472820Y123891D01*
X472889Y123917D01*
X472927Y123948D01*
X472970Y123971D01*
X473021Y124025D01*
X473077Y124072D01*
X473103Y124114D01*
X473137Y124149D01*
X473168Y124216D01*
X473206Y124279D01*
X473218Y124327D01*
X473238Y124372D01*
X473245Y124445D01*
X473262Y124516D01*
X473257Y124565D01*
X473262Y124615D01*
X473245Y124686D01*
X473238Y124759D01*
X473218Y124804D01*
X473207Y124852D01*
X473168Y124915D01*
X473138Y124982D01*
X473091Y125038D01*
X473078Y125060D01*
X473065Y125070D01*
X473044Y125096D01*
X470890Y127250D01*
X470890Y129000D01*
X470886Y129024D01*
X470888Y129049D01*
X470866Y129144D01*
X470850Y129241D01*
X470839Y129262D01*
X470833Y129286D01*
X470781Y129370D01*
X470735Y129456D01*
X470717Y129473D01*
X470704Y129494D01*
X470629Y129556D01*
X470557Y129623D01*
X470535Y129633D01*
X470516Y129649D01*
X470424Y129683D01*
X470335Y129724D01*
X470311Y129726D01*
X470288Y129735D01*
X470141Y129749D01*
X465134Y129749D01*
X465110Y129745D01*
X465085Y129748D01*
X464990Y129726D01*
X464893Y129710D01*
X464872Y129698D01*
X464848Y129692D01*
X464764Y129641D01*
X464678Y129595D01*
X464661Y129577D01*
X464640Y129564D01*
X464578Y129488D01*
X464511Y129417D01*
X464501Y129394D01*
X464485Y129375D01*
X464451Y129284D01*
X464410Y129194D01*
X464408Y129170D01*
X464399Y129147D01*
X464385Y129000D01*
X464385Y126925D01*
X461309Y123849D01*
X456959Y123849D01*
X453883Y126925D01*
X453883Y129034D01*
X453879Y129058D01*
X453882Y129083D01*
X453860Y129178D01*
X453844Y129275D01*
X453832Y129296D01*
X453826Y129320D01*
X453775Y129404D01*
X453729Y129490D01*
X453711Y129507D01*
X453698Y129528D01*
X453622Y129590D01*
X453551Y129657D01*
X453528Y129667D01*
X453509Y129683D01*
X453418Y129717D01*
X453328Y129758D01*
X453304Y129760D01*
X453281Y129769D01*
X453134Y129783D01*
X450855Y129783D01*
X449809Y130830D01*
X449729Y130887D01*
X449654Y130949D01*
X449631Y130957D01*
X449610Y130972D01*
X449517Y131000D01*
X449426Y131035D01*
X449393Y131038D01*
X449377Y131043D01*
X449352Y131042D01*
X449279Y131049D01*
X443656Y131049D01*
X443608Y131041D01*
X443559Y131043D01*
X443488Y131022D01*
X443416Y131010D01*
X443372Y130986D01*
X443325Y130972D01*
X443265Y130929D01*
X443200Y130895D01*
X443167Y130859D01*
X443127Y130830D01*
X443084Y130770D01*
X443033Y130717D01*
X443013Y130672D01*
X442985Y130632D01*
X442963Y130561D01*
X442933Y130494D01*
X442928Y130445D01*
X442914Y130399D01*
X442916Y130325D01*
X442909Y130251D01*
X442920Y130204D01*
X442921Y130155D01*
X442964Y130015D01*
X442964Y130014D01*
X442964Y130013D01*
X443461Y128814D01*
X443461Y125186D01*
X442072Y121834D01*
X439506Y119268D01*
X436154Y117879D01*
X432526Y117879D01*
X429174Y119268D01*
X426608Y121834D01*
X425219Y125186D01*
X425219Y128814D01*
X426608Y132166D01*
X429174Y134732D01*
X432526Y136121D01*
X436154Y136121D01*
X438607Y135105D01*
X438732Y135076D01*
X438845Y135049D01*
X438974Y135062D01*
X439087Y135073D01*
X439088Y135073D01*
X439199Y135123D01*
X439310Y135173D01*
X439310Y135174D01*
X439311Y135174D01*
X439424Y135267D01*
X439708Y135551D01*
X449279Y135551D01*
X449375Y135567D01*
X449472Y135576D01*
X449495Y135586D01*
X449520Y135590D01*
X449606Y135636D01*
X449695Y135677D01*
X449720Y135698D01*
X449735Y135705D01*
X449752Y135724D01*
X449809Y135770D01*
X450855Y136817D01*
X451883Y136817D01*
X451955Y136829D01*
X452029Y136831D01*
X452075Y136848D01*
X452124Y136856D01*
X452188Y136891D01*
X452257Y136917D01*
X452295Y136948D01*
X452339Y136971D01*
X452389Y137025D01*
X452446Y137072D01*
X452472Y137114D01*
X452506Y137149D01*
X452536Y137216D01*
X452575Y137279D01*
X452586Y137327D01*
X452606Y137372D01*
X452614Y137445D01*
X452630Y137516D01*
X452626Y137565D01*
X452630Y137615D01*
X452614Y137686D01*
X452607Y137759D01*
X452586Y137804D01*
X452575Y137852D01*
X452536Y137915D01*
X452506Y137982D01*
X452460Y138038D01*
X452447Y138060D01*
X452434Y138070D01*
X452413Y138096D01*
X450083Y140425D01*
X450083Y144775D01*
X453159Y147851D01*
X454500Y147851D01*
X454524Y147855D01*
X454549Y147852D01*
X454644Y147874D01*
X454741Y147890D01*
X454762Y147902D01*
X454786Y147908D01*
X454870Y147959D01*
X454956Y148005D01*
X454973Y148023D01*
X454994Y148036D01*
X455056Y148112D01*
X455123Y148183D01*
X455133Y148206D01*
X455149Y148225D01*
X455183Y148316D01*
X455224Y148406D01*
X455226Y148430D01*
X455235Y148453D01*
X455249Y148600D01*
X455249Y150204D01*
X455233Y150300D01*
X455224Y150397D01*
X455214Y150420D01*
X455210Y150445D01*
X455164Y150531D01*
X455123Y150619D01*
X455102Y150645D01*
X455095Y150660D01*
X455076Y150677D01*
X455030Y150734D01*
X450800Y154964D01*
X450720Y155021D01*
X450645Y155083D01*
X450622Y155091D01*
X450601Y155106D01*
X450508Y155134D01*
X450417Y155169D01*
X450384Y155172D01*
X450368Y155177D01*
X450343Y155176D01*
X450270Y155183D01*
X449277Y155183D01*
X447217Y157243D01*
X447217Y160157D01*
X449277Y162217D01*
X452191Y162217D01*
X453970Y160437D01*
X454030Y160394D01*
X454084Y160344D01*
X454128Y160324D01*
X454169Y160295D01*
X454239Y160274D01*
X454306Y160243D01*
X454355Y160239D01*
X454402Y160224D01*
X454475Y160227D01*
X454549Y160219D01*
X454597Y160231D01*
X454646Y160232D01*
X454715Y160258D01*
X454786Y160275D01*
X454828Y160301D01*
X454874Y160318D01*
X454931Y160365D01*
X454994Y160403D01*
X455025Y160441D01*
X455063Y160473D01*
X455102Y160535D01*
X455149Y160592D01*
X455166Y160638D01*
X455192Y160680D01*
X455209Y160751D01*
X455235Y160820D01*
X455242Y160893D01*
X455248Y160917D01*
X455246Y160934D01*
X455249Y160967D01*
X455249Y176690D01*
X457830Y179270D01*
X457887Y179350D01*
X457949Y179425D01*
X457957Y179448D01*
X457972Y179469D01*
X458000Y179562D01*
X458035Y179653D01*
X458038Y179686D01*
X458043Y179702D01*
X458042Y179727D01*
X458049Y179800D01*
X458049Y180640D01*
X458046Y180658D01*
X458048Y180672D01*
X458035Y180727D01*
X458033Y180736D01*
X458024Y180833D01*
X458014Y180856D01*
X458010Y180881D01*
X457964Y180967D01*
X457923Y181055D01*
X457902Y181081D01*
X457895Y181096D01*
X457876Y181113D01*
X457830Y181170D01*
X421004Y217996D01*
X420924Y218053D01*
X420849Y218115D01*
X420826Y218123D01*
X420805Y218138D01*
X420712Y218166D01*
X420621Y218201D01*
X420588Y218204D01*
X420572Y218209D01*
X420547Y218208D01*
X420474Y218215D01*
X414997Y218215D01*
X414901Y218199D01*
X414804Y218190D01*
X414781Y218180D01*
X414756Y218176D01*
X414670Y218130D01*
X414581Y218089D01*
X414556Y218068D01*
X414541Y218061D01*
X414524Y218042D01*
X414467Y217996D01*
X413189Y216717D01*
X410275Y216717D01*
X409496Y217497D01*
X409476Y217511D01*
X409460Y217530D01*
X409377Y217582D01*
X409297Y217639D01*
X409274Y217646D01*
X409253Y217659D01*
X409158Y217681D01*
X409064Y217710D01*
X409039Y217709D01*
X409016Y217715D01*
X408918Y217705D01*
X408820Y217702D01*
X408797Y217693D01*
X408773Y217691D01*
X408683Y217651D01*
X408592Y217616D01*
X408573Y217601D01*
X408550Y217590D01*
X408436Y217497D01*
X407657Y216717D01*
X404743Y216717D01*
X402683Y218777D01*
X402683Y221691D01*
X403530Y222537D01*
X403587Y222616D01*
X403649Y222692D01*
X403657Y222715D01*
X403672Y222736D01*
X403700Y222829D01*
X403735Y222920D01*
X403738Y222953D01*
X403743Y222969D01*
X403742Y222994D01*
X403749Y223067D01*
X403749Y226733D01*
X403733Y226829D01*
X403724Y226926D01*
X403714Y226949D01*
X403710Y226974D01*
X403664Y227060D01*
X403623Y227149D01*
X403602Y227174D01*
X403595Y227189D01*
X403576Y227206D01*
X403530Y227263D01*
X403483Y227309D01*
X403483Y230223D01*
X405543Y232283D01*
X407557Y232283D01*
X407582Y232287D01*
X407606Y232284D01*
X407701Y232306D01*
X407798Y232322D01*
X407820Y232334D01*
X407844Y232340D01*
X407927Y232391D01*
X408013Y232437D01*
X408030Y232455D01*
X408051Y232468D01*
X408113Y232544D01*
X408180Y232615D01*
X408190Y232638D01*
X408206Y232657D01*
X408241Y232748D01*
X408281Y232838D01*
X408283Y232862D01*
X408292Y232885D01*
X408307Y233032D01*
X408307Y233223D01*
X410367Y235283D01*
X413297Y235283D01*
X413297Y235282D01*
X413351Y235232D01*
X413396Y235212D01*
X413436Y235183D01*
X413506Y235162D01*
X413573Y235131D01*
X413622Y235126D01*
X413669Y235112D01*
X413743Y235114D01*
X413816Y235107D01*
X413864Y235118D01*
X413913Y235120D01*
X413982Y235146D01*
X414054Y235162D01*
X414096Y235189D01*
X414142Y235206D01*
X414199Y235252D01*
X414261Y235291D01*
X414292Y235329D01*
X414330Y235361D01*
X414369Y235423D01*
X414416Y235480D01*
X414433Y235526D01*
X414459Y235568D01*
X414476Y235639D01*
X414502Y235708D01*
X414509Y235781D01*
X414515Y235805D01*
X414513Y235822D01*
X414517Y235855D01*
X414517Y266415D01*
X414501Y266511D01*
X414491Y266608D01*
X414481Y266631D01*
X414477Y266656D01*
X414431Y266742D01*
X414391Y266831D01*
X414370Y266856D01*
X414362Y266871D01*
X414344Y266888D01*
X414297Y266945D01*
X400999Y280243D01*
X400999Y287810D01*
X400983Y287906D01*
X400974Y288003D01*
X400964Y288026D01*
X400960Y288051D01*
X400913Y288137D01*
X400883Y288204D01*
X400883Y291564D01*
X403236Y293917D01*
X406564Y293917D01*
X409001Y291480D01*
X409001Y283868D01*
X409017Y283771D01*
X409026Y283674D01*
X409036Y283652D01*
X409040Y283627D01*
X409086Y283541D01*
X409127Y283452D01*
X409148Y283426D01*
X409155Y283412D01*
X409174Y283395D01*
X409220Y283338D01*
X417970Y274588D01*
X418030Y274545D01*
X418084Y274495D01*
X418128Y274474D01*
X418169Y274446D01*
X418239Y274424D01*
X418306Y274394D01*
X418355Y274389D01*
X418402Y274375D01*
X418475Y274377D01*
X418549Y274370D01*
X418597Y274381D01*
X418646Y274383D01*
X418715Y274408D01*
X418786Y274425D01*
X418828Y274451D01*
X418874Y274468D01*
X418931Y274515D01*
X418994Y274554D01*
X419025Y274592D01*
X419063Y274623D01*
X419102Y274685D01*
X419149Y274742D01*
X419166Y274788D01*
X419192Y274830D01*
X419209Y274902D01*
X419235Y274971D01*
X419242Y275044D01*
X419248Y275068D01*
X419246Y275084D01*
X419249Y275117D01*
X419249Y284867D01*
X419233Y284963D01*
X419224Y285060D01*
X419214Y285083D01*
X419210Y285108D01*
X419164Y285194D01*
X419123Y285283D01*
X419102Y285308D01*
X419095Y285323D01*
X419076Y285340D01*
X419030Y285397D01*
X417983Y286443D01*
X417983Y289357D01*
X419030Y290403D01*
X419087Y290482D01*
X419149Y290558D01*
X419157Y290581D01*
X419172Y290602D01*
X419200Y290695D01*
X419235Y290786D01*
X419238Y290819D01*
X419243Y290835D01*
X419242Y290860D01*
X419249Y290933D01*
X419249Y292334D01*
X419245Y292358D01*
X419248Y292383D01*
X419226Y292478D01*
X419210Y292575D01*
X419198Y292596D01*
X419192Y292620D01*
X419141Y292704D01*
X419095Y292790D01*
X419077Y292807D01*
X419064Y292828D01*
X418988Y292890D01*
X418917Y292957D01*
X418894Y292967D01*
X418875Y292983D01*
X418784Y293017D01*
X418694Y293058D01*
X418670Y293060D01*
X418647Y293069D01*
X418500Y293083D01*
X417836Y293083D01*
X415483Y295436D01*
X415483Y298764D01*
X415811Y299092D01*
X415825Y299112D01*
X415844Y299127D01*
X415896Y299210D01*
X415953Y299290D01*
X415961Y299314D01*
X415973Y299334D01*
X415996Y299430D01*
X416024Y299524D01*
X416023Y299548D01*
X416029Y299572D01*
X416020Y299669D01*
X416016Y299767D01*
X416008Y299790D01*
X416005Y299815D01*
X415965Y299904D01*
X415931Y299996D01*
X415915Y300015D01*
X415905Y300037D01*
X415811Y300151D01*
X379061Y336902D01*
X377083Y338879D01*
X377083Y367721D01*
X381779Y372417D01*
X393000Y372417D01*
X393024Y372421D01*
X393049Y372418D01*
X393144Y372440D01*
X393241Y372456D01*
X393262Y372468D01*
X393286Y372474D01*
X393370Y372525D01*
X393456Y372571D01*
X393473Y372589D01*
X393494Y372602D01*
X393556Y372678D01*
X393623Y372749D01*
X393633Y372772D01*
X393649Y372791D01*
X393683Y372882D01*
X393724Y372972D01*
X393726Y372996D01*
X393735Y373019D01*
X393749Y373166D01*
X393749Y377166D01*
X393745Y377190D01*
X393748Y377215D01*
X393726Y377310D01*
X393710Y377407D01*
X393698Y377428D01*
X393692Y377452D01*
X393641Y377536D01*
X393595Y377622D01*
X393577Y377639D01*
X393564Y377660D01*
X393488Y377722D01*
X393417Y377789D01*
X393394Y377799D01*
X393375Y377815D01*
X393284Y377849D01*
X393194Y377890D01*
X393170Y377892D01*
X393147Y377901D01*
X393000Y377915D01*
X390636Y377915D01*
X388159Y380392D01*
X388157Y380396D01*
X388136Y380422D01*
X388129Y380436D01*
X388110Y380453D01*
X388064Y380510D01*
X386399Y382175D01*
X386399Y411432D01*
X386383Y411529D01*
X386374Y411626D01*
X386364Y411648D01*
X386360Y411673D01*
X386314Y411759D01*
X386273Y411848D01*
X386252Y411874D01*
X386245Y411888D01*
X386226Y411905D01*
X386180Y411962D01*
X382562Y415580D01*
X382483Y415637D01*
X382408Y415699D01*
X382384Y415707D01*
X382364Y415722D01*
X382271Y415750D01*
X382179Y415785D01*
X382146Y415788D01*
X382130Y415793D01*
X382106Y415792D01*
X382032Y415799D01*
X373543Y415799D01*
X361899Y427443D01*
X361899Y436132D01*
X361896Y436151D01*
X361898Y436166D01*
X361884Y436225D01*
X361883Y436229D01*
X361874Y436326D01*
X361864Y436348D01*
X361860Y436373D01*
X361813Y436459D01*
X361773Y436548D01*
X361752Y436574D01*
X361745Y436588D01*
X361726Y436605D01*
X361680Y436662D01*
X360562Y437780D01*
X360483Y437837D01*
X360408Y437899D01*
X360384Y437907D01*
X360364Y437922D01*
X360271Y437950D01*
X360179Y437985D01*
X360147Y437988D01*
X360131Y437993D01*
X360106Y437992D01*
X360033Y437999D01*
X358207Y437999D01*
X355818Y438989D01*
X353491Y441315D01*
X353489Y441318D01*
X353472Y441364D01*
X353425Y441421D01*
X353387Y441484D01*
X353349Y441515D01*
X353317Y441553D01*
X353255Y441592D01*
X353198Y441639D01*
X353152Y441656D01*
X353110Y441682D01*
X353039Y441699D01*
X352970Y441725D01*
X352920Y441726D01*
X352873Y441738D01*
X352799Y441730D01*
X352726Y441733D01*
X352679Y441719D01*
X352630Y441714D01*
X352563Y441684D01*
X352492Y441662D01*
X352452Y441634D01*
X352407Y441613D01*
X352295Y441521D01*
X352294Y441520D01*
X352293Y441520D01*
X351957Y441183D01*
X349043Y441183D01*
X346983Y443243D01*
X346983Y446157D01*
X348909Y448082D01*
X348923Y448102D01*
X348942Y448117D01*
X348994Y448201D01*
X349051Y448280D01*
X349058Y448304D01*
X349071Y448324D01*
X349093Y448420D01*
X349122Y448514D01*
X349121Y448538D01*
X349126Y448562D01*
X349117Y448660D01*
X349114Y448758D01*
X349105Y448781D01*
X349103Y448805D01*
X349062Y448894D01*
X349028Y448986D01*
X349012Y449005D01*
X349002Y449027D01*
X348909Y449142D01*
X337389Y460661D01*
X336399Y463050D01*
X336399Y463149D01*
X336383Y463246D01*
X336374Y463343D01*
X336364Y463365D01*
X336360Y463390D01*
X336314Y463476D01*
X336273Y463565D01*
X336252Y463591D01*
X336245Y463605D01*
X336226Y463622D01*
X336180Y463679D01*
X335142Y464717D01*
X333749Y468080D01*
X333749Y471720D01*
X335142Y475083D01*
X337717Y477658D01*
X341080Y479051D01*
X344720Y479051D01*
X348083Y477658D01*
X350658Y475083D01*
X352051Y471720D01*
X352051Y468080D01*
X351160Y465931D01*
X351131Y465806D01*
X351105Y465693D01*
X351118Y465564D01*
X351129Y465451D01*
X351129Y465450D01*
X351186Y465324D01*
X351229Y465228D01*
X351230Y465228D01*
X351230Y465227D01*
X351323Y465114D01*
X364527Y451910D01*
X365517Y449521D01*
X365517Y447111D01*
X365529Y447038D01*
X365531Y446965D01*
X365552Y446895D01*
X365556Y446870D01*
X365564Y446855D01*
X365574Y446824D01*
X366001Y445793D01*
X366001Y443967D01*
X366017Y443871D01*
X366026Y443774D01*
X366036Y443751D01*
X366040Y443727D01*
X366086Y443641D01*
X366127Y443552D01*
X366148Y443526D01*
X366155Y443512D01*
X366174Y443495D01*
X366220Y443438D01*
X367338Y442320D01*
X369901Y439757D01*
X369901Y431068D01*
X369917Y430971D01*
X369926Y430874D01*
X369936Y430852D01*
X369940Y430827D01*
X369986Y430741D01*
X370027Y430652D01*
X370048Y430626D01*
X370055Y430612D01*
X370074Y430595D01*
X370120Y430538D01*
X376638Y424020D01*
X376717Y423963D01*
X376792Y423901D01*
X376816Y423893D01*
X376836Y423878D01*
X376929Y423850D01*
X377021Y423815D01*
X377054Y423812D01*
X377070Y423807D01*
X377094Y423808D01*
X377168Y423801D01*
X385657Y423801D01*
X392470Y416988D01*
X392530Y416945D01*
X392584Y416895D01*
X392628Y416874D01*
X392669Y416846D01*
X392739Y416824D01*
X392806Y416794D01*
X392855Y416789D01*
X392902Y416775D01*
X392975Y416777D01*
X393049Y416770D01*
X393097Y416781D01*
X393146Y416783D01*
X393215Y416808D01*
X393286Y416825D01*
X393328Y416851D01*
X393374Y416868D01*
X393431Y416915D01*
X393494Y416954D01*
X393525Y416992D01*
X393563Y417023D01*
X393602Y417085D01*
X393649Y417142D01*
X393666Y417188D01*
X393692Y417230D01*
X393709Y417302D01*
X393735Y417371D01*
X393742Y417444D01*
X393748Y417468D01*
X393746Y417484D01*
X393749Y417517D01*
X393749Y431424D01*
X393733Y431521D01*
X393724Y431618D01*
X393714Y431640D01*
X393710Y431665D01*
X393664Y431751D01*
X393623Y431840D01*
X393602Y431866D01*
X393595Y431880D01*
X393576Y431897D01*
X393530Y431954D01*
X392096Y433388D01*
X392036Y433431D01*
X391982Y433481D01*
X391938Y433502D01*
X391897Y433530D01*
X391827Y433552D01*
X391760Y433582D01*
X391711Y433587D01*
X391664Y433601D01*
X391591Y433599D01*
X391517Y433606D01*
X391469Y433595D01*
X391420Y433593D01*
X391351Y433567D01*
X391280Y433551D01*
X391238Y433525D01*
X391192Y433507D01*
X391135Y433461D01*
X391072Y433422D01*
X391041Y433384D01*
X391003Y433353D01*
X390964Y433290D01*
X390917Y433234D01*
X390900Y433188D01*
X390874Y433146D01*
X390857Y433074D01*
X390831Y433005D01*
X390824Y432932D01*
X390818Y432908D01*
X390820Y432891D01*
X390817Y432858D01*
X390817Y431743D01*
X388757Y429683D01*
X385843Y429683D01*
X383783Y431743D01*
X383783Y434657D01*
X385843Y436717D01*
X386958Y436717D01*
X387031Y436729D01*
X387104Y436731D01*
X387150Y436748D01*
X387199Y436756D01*
X387264Y436791D01*
X387333Y436817D01*
X387371Y436848D01*
X387414Y436871D01*
X387465Y436925D01*
X387521Y436972D01*
X387547Y437013D01*
X387581Y437049D01*
X387612Y437116D01*
X387650Y437179D01*
X387662Y437227D01*
X387682Y437272D01*
X387689Y437345D01*
X387706Y437416D01*
X387701Y437465D01*
X387706Y437515D01*
X387689Y437586D01*
X387682Y437659D01*
X387662Y437704D01*
X387651Y437752D01*
X387612Y437815D01*
X387582Y437882D01*
X387535Y437938D01*
X387522Y437960D01*
X387509Y437970D01*
X387488Y437996D01*
X383783Y441701D01*
X383783Y449533D01*
X383767Y449629D01*
X383758Y449726D01*
X383748Y449749D01*
X383744Y449774D01*
X383698Y449860D01*
X383657Y449949D01*
X383636Y449974D01*
X383629Y449989D01*
X383610Y450006D01*
X383564Y450063D01*
X382783Y450843D01*
X382783Y453757D01*
X384843Y455817D01*
X387757Y455817D01*
X389817Y453757D01*
X389817Y450843D01*
X388504Y449531D01*
X388447Y449452D01*
X388385Y449376D01*
X388377Y449353D01*
X388362Y449332D01*
X388334Y449239D01*
X388299Y449148D01*
X388296Y449115D01*
X388291Y449099D01*
X388292Y449074D01*
X388285Y449001D01*
X388285Y448666D01*
X388289Y448642D01*
X388286Y448617D01*
X388308Y448522D01*
X388324Y448425D01*
X388336Y448404D01*
X388342Y448380D01*
X388393Y448296D01*
X388439Y448210D01*
X388457Y448193D01*
X388470Y448172D01*
X388546Y448110D01*
X388617Y448043D01*
X388640Y448033D01*
X388659Y448017D01*
X388750Y447983D01*
X388840Y447942D01*
X388864Y447940D01*
X388887Y447931D01*
X389034Y447917D01*
X391771Y447917D01*
X391780Y447910D01*
X391834Y447860D01*
X391878Y447840D01*
X391918Y447811D01*
X391989Y447790D01*
X392056Y447759D01*
X392105Y447754D01*
X392152Y447740D01*
X392225Y447743D01*
X392299Y447735D01*
X392347Y447746D01*
X392396Y447748D01*
X392465Y447774D01*
X392536Y447791D01*
X392578Y447817D01*
X392624Y447834D01*
X392681Y447880D01*
X392744Y447919D01*
X392775Y447957D01*
X392813Y447989D01*
X392852Y448051D01*
X392899Y448108D01*
X392916Y448154D01*
X392942Y448196D01*
X392959Y448267D01*
X392985Y448336D01*
X392992Y448409D01*
X392998Y448433D01*
X392996Y448450D01*
X392999Y448483D01*
X392999Y460000D01*
X392995Y460024D01*
X392998Y460049D01*
X392976Y460144D01*
X392960Y460241D01*
X392948Y460262D01*
X392942Y460286D01*
X392891Y460370D01*
X392845Y460456D01*
X392827Y460473D01*
X392814Y460494D01*
X392738Y460556D01*
X392667Y460623D01*
X392644Y460633D01*
X392625Y460649D01*
X392534Y460683D01*
X392444Y460724D01*
X392420Y460726D01*
X392397Y460735D01*
X392250Y460749D01*
X391880Y460749D01*
X388517Y462142D01*
X385942Y464717D01*
X384549Y468080D01*
X384549Y471720D01*
X385942Y475083D01*
X388517Y477658D01*
X391880Y479051D01*
X393000Y479051D01*
X393024Y479055D01*
X393049Y479052D01*
X393144Y479074D01*
X393241Y479090D01*
X393262Y479102D01*
X393286Y479108D01*
X393370Y479159D01*
X393456Y479205D01*
X393473Y479223D01*
X393494Y479236D01*
X393556Y479312D01*
X393623Y479383D01*
X393633Y479406D01*
X393649Y479425D01*
X393683Y479516D01*
X393724Y479606D01*
X393726Y479630D01*
X393735Y479653D01*
X393749Y479800D01*
X393749Y482690D01*
X408310Y497251D01*
X548690Y497251D01*
X554653Y491287D01*
X554760Y491211D01*
X554851Y491146D01*
X554851Y491145D01*
X554953Y491115D01*
X555084Y491075D01*
X555085Y491074D01*
X555209Y491079D01*
X555328Y491082D01*
X555329Y491082D01*
X555330Y491083D01*
X555469Y491125D01*
X556980Y491751D01*
X560620Y491751D01*
X563983Y490358D01*
X566558Y487783D01*
X567951Y484420D01*
X567951Y480780D01*
X567325Y479269D01*
X567294Y479136D01*
X567270Y479032D01*
X567282Y478907D01*
X567293Y478789D01*
X567294Y478789D01*
X567348Y478668D01*
X567394Y478567D01*
X567395Y478566D01*
X567488Y478453D01*
X569251Y476690D01*
X569251Y464243D01*
X569267Y464147D01*
X569276Y464050D01*
X569286Y464027D01*
X569290Y464003D01*
X569336Y463916D01*
X569377Y463828D01*
X569398Y463802D01*
X569405Y463787D01*
X569424Y463770D01*
X569470Y463714D01*
X570951Y462233D01*
X570951Y454309D01*
X570967Y454212D01*
X570976Y454115D01*
X570986Y454093D01*
X570990Y454068D01*
X571036Y453982D01*
X571077Y453893D01*
X571098Y453867D01*
X571105Y453853D01*
X571124Y453836D01*
X571170Y453779D01*
X572313Y452636D01*
X572392Y452579D01*
X572467Y452517D01*
X572491Y452509D01*
X572511Y452494D01*
X572605Y452466D01*
X572696Y452431D01*
X572729Y452428D01*
X572745Y452423D01*
X572770Y452424D01*
X572843Y452417D01*
X574323Y452417D01*
X576009Y450730D01*
X576049Y450702D01*
X576083Y450666D01*
X576148Y450631D01*
X576208Y450588D01*
X576255Y450574D01*
X576298Y450551D01*
X576371Y450539D01*
X576383Y450535D01*
X576383Y447443D01*
X574323Y445383D01*
X571409Y445383D01*
X570530Y446263D01*
X570470Y446306D01*
X570417Y446356D01*
X570372Y446376D01*
X570331Y446405D01*
X570261Y446426D01*
X570194Y446457D01*
X570145Y446461D01*
X570098Y446476D01*
X570025Y446473D01*
X569951Y446481D01*
X569903Y446469D01*
X569854Y446468D01*
X569785Y446442D01*
X569714Y446425D01*
X569672Y446399D01*
X569626Y446382D01*
X569569Y446335D01*
X569506Y446297D01*
X569475Y446259D01*
X569437Y446227D01*
X569398Y446165D01*
X569352Y446108D01*
X569334Y446062D01*
X569308Y446020D01*
X569291Y445949D01*
X569265Y445880D01*
X569258Y445807D01*
X569252Y445783D01*
X569254Y445766D01*
X569251Y445733D01*
X569251Y439500D01*
X569267Y439404D01*
X569276Y439307D01*
X569286Y439284D01*
X569290Y439259D01*
X569336Y439173D01*
X569377Y439084D01*
X569398Y439059D01*
X569405Y439044D01*
X569424Y439027D01*
X569470Y438970D01*
X579970Y428470D01*
X580050Y428413D01*
X580125Y428352D01*
X580148Y428343D01*
X580169Y428328D01*
X580262Y428300D01*
X580353Y428265D01*
X580386Y428262D01*
X580402Y428257D01*
X580427Y428258D01*
X580500Y428251D01*
X597357Y428251D01*
X597454Y428267D01*
X597551Y428276D01*
X597573Y428286D01*
X597598Y428290D01*
X597684Y428336D01*
X597773Y428377D01*
X597799Y428398D01*
X597813Y428405D01*
X597830Y428424D01*
X597887Y428470D01*
X602030Y432613D01*
X602077Y432679D01*
X602101Y432704D01*
X602106Y432716D01*
X602149Y432767D01*
X602157Y432791D01*
X602172Y432811D01*
X602200Y432904D01*
X602235Y432996D01*
X602238Y433029D01*
X602243Y433045D01*
X602242Y433070D01*
X602249Y433143D01*
X602249Y451299D01*
X602233Y451396D01*
X602224Y451493D01*
X602214Y451515D01*
X602210Y451540D01*
X602164Y451626D01*
X602123Y451715D01*
X602102Y451741D01*
X602095Y451755D01*
X602076Y451772D01*
X602030Y451829D01*
X601842Y452017D01*
X600449Y455380D01*
X600449Y459020D01*
X601842Y462383D01*
X602030Y462571D01*
X602075Y462633D01*
X602113Y462674D01*
X602121Y462691D01*
X602149Y462725D01*
X602157Y462749D01*
X602172Y462769D01*
X602200Y462863D01*
X602211Y462890D01*
X602213Y462896D01*
X602214Y462898D01*
X602235Y462954D01*
X602238Y462987D01*
X602243Y463003D01*
X602242Y463028D01*
X602249Y463101D01*
X602249Y476699D01*
X602233Y476796D01*
X602224Y476893D01*
X602214Y476915D01*
X602210Y476940D01*
X602164Y477026D01*
X602123Y477115D01*
X602102Y477141D01*
X602095Y477155D01*
X602076Y477172D01*
X602030Y477229D01*
X601842Y477417D01*
X600449Y480780D01*
X600449Y484420D01*
X601842Y487783D01*
X602030Y487971D01*
X602087Y488050D01*
X602149Y488125D01*
X602157Y488149D01*
X602172Y488169D01*
X602200Y488263D01*
X602235Y488354D01*
X602238Y488387D01*
X602243Y488403D01*
X602242Y488428D01*
X602249Y488501D01*
X602249Y502099D01*
X602233Y502196D01*
X602224Y502293D01*
X602214Y502315D01*
X602210Y502340D01*
X602164Y502426D01*
X602123Y502515D01*
X602102Y502541D01*
X602095Y502555D01*
X602076Y502572D01*
X602030Y502629D01*
X601842Y502817D01*
X600449Y506180D01*
X600449Y509820D01*
X601842Y513183D01*
X602030Y513371D01*
X602087Y513450D01*
X602149Y513525D01*
X602157Y513549D01*
X602172Y513569D01*
X602200Y513663D01*
X602235Y513754D01*
X602238Y513787D01*
X602243Y513803D01*
X602242Y513828D01*
X602249Y513901D01*
X602249Y520500D01*
X602233Y520596D01*
X602224Y520693D01*
X602214Y520716D01*
X602210Y520741D01*
X602164Y520827D01*
X602123Y520916D01*
X602102Y520941D01*
X602095Y520956D01*
X602076Y520973D01*
X602030Y521030D01*
X595642Y527418D01*
X595562Y527475D01*
X595487Y527537D01*
X595464Y527545D01*
X595443Y527560D01*
X595350Y527588D01*
X595259Y527623D01*
X595226Y527626D01*
X595210Y527631D01*
X595185Y527630D01*
X595112Y527637D01*
X321388Y527637D01*
X321292Y527621D01*
X321195Y527612D01*
X321172Y527602D01*
X321147Y527598D01*
X321061Y527552D01*
X320972Y527511D01*
X320947Y527490D01*
X320932Y527483D01*
X320915Y527464D01*
X320858Y527418D01*
X311452Y518012D01*
X311395Y517933D01*
X311333Y517857D01*
X311325Y517834D01*
X311310Y517814D01*
X311282Y517720D01*
X311247Y517629D01*
X311247Y517604D01*
X311239Y517580D01*
X311243Y517482D01*
X311239Y517385D01*
X311246Y517361D01*
X311247Y517336D01*
X311282Y517245D01*
X311310Y517151D01*
X311324Y517131D01*
X311333Y517108D01*
X311395Y517032D01*
X311452Y516953D01*
X311472Y516938D01*
X311488Y516919D01*
X311571Y516867D01*
X311650Y516811D01*
X311674Y516803D01*
X311695Y516790D01*
X311790Y516768D01*
X311884Y516739D01*
X311908Y516740D01*
X311933Y516735D01*
X312030Y516744D01*
X312128Y516747D01*
X312159Y516757D01*
X312175Y516758D01*
X312198Y516769D01*
X312269Y516790D01*
X313140Y517151D01*
X316780Y517151D01*
X320143Y515758D01*
X322718Y513183D01*
X324111Y509820D01*
X324111Y506180D01*
X322718Y502817D01*
X320143Y500242D01*
X316780Y498849D01*
X313140Y498849D01*
X309777Y500242D01*
X307202Y502817D01*
X305809Y506180D01*
X305809Y509820D01*
X306170Y510691D01*
X306192Y510786D01*
X306221Y510880D01*
X306220Y510905D01*
X306225Y510929D01*
X306216Y511026D01*
X306213Y511124D01*
X306204Y511147D01*
X306202Y511172D01*
X306161Y511260D01*
X306127Y511352D01*
X306111Y511371D01*
X306101Y511394D01*
X306034Y511465D01*
X305972Y511541D01*
X305951Y511554D01*
X305934Y511572D01*
X305848Y511618D01*
X305765Y511670D01*
X305741Y511675D01*
X305719Y511687D01*
X305622Y511703D01*
X305527Y511725D01*
X305503Y511723D01*
X305478Y511727D01*
X305382Y511711D01*
X305285Y511702D01*
X305262Y511691D01*
X305238Y511687D01*
X305151Y511641D01*
X305062Y511601D01*
X305037Y511580D01*
X305022Y511573D01*
X305005Y511555D01*
X304948Y511508D01*
X298173Y504733D01*
X298130Y504673D01*
X298080Y504620D01*
X298045Y504554D01*
X298031Y504534D01*
X298026Y504518D01*
X298011Y504490D01*
X297318Y502817D01*
X294743Y500242D01*
X293070Y499549D01*
X293008Y499511D01*
X292942Y499481D01*
X292884Y499434D01*
X292863Y499421D01*
X292853Y499408D01*
X292827Y499387D01*
X285970Y492530D01*
X285913Y492450D01*
X285852Y492375D01*
X285843Y492352D01*
X285828Y492331D01*
X285800Y492238D01*
X285765Y492147D01*
X285762Y492114D01*
X285757Y492098D01*
X285758Y492073D01*
X285751Y492000D01*
X285751Y464101D01*
X285767Y464004D01*
X285776Y463907D01*
X285786Y463885D01*
X285790Y463860D01*
X285836Y463774D01*
X285877Y463685D01*
X285898Y463659D01*
X285905Y463645D01*
X285924Y463628D01*
X285970Y463571D01*
X287158Y462383D01*
X288551Y459020D01*
X288551Y455380D01*
X287158Y452017D01*
X285970Y450829D01*
X285913Y450750D01*
X285852Y450675D01*
X285843Y450651D01*
X285828Y450631D01*
X285800Y450537D01*
X285765Y450446D01*
X285762Y450413D01*
X285757Y450397D01*
X285758Y450372D01*
X285751Y450299D01*
X285751Y439050D01*
X285755Y439026D01*
X285752Y439001D01*
X285775Y438906D01*
X285790Y438809D01*
X285802Y438788D01*
X285808Y438764D01*
X285859Y438680D01*
X285905Y438594D01*
X285923Y438577D01*
X285936Y438556D01*
X286012Y438494D01*
X286084Y438427D01*
X286106Y438417D01*
X286125Y438401D01*
X286216Y438367D01*
X286306Y438326D01*
X286330Y438324D01*
X286353Y438315D01*
X286500Y438301D01*
X290993Y438301D01*
X293382Y437311D01*
X315711Y414982D01*
X316701Y412593D01*
X316701Y398783D01*
X316713Y398710D01*
X316715Y398637D01*
X316732Y398591D01*
X316740Y398542D01*
X316775Y398477D01*
X316801Y398409D01*
X316832Y398371D01*
X316855Y398327D01*
X316909Y398277D01*
X316956Y398220D01*
X316998Y398194D01*
X317033Y398160D01*
X317100Y398130D01*
X317163Y398091D01*
X317211Y398080D01*
X317256Y398059D01*
X317329Y398052D01*
X317400Y398035D01*
X317450Y398040D01*
X317499Y398035D01*
X317570Y398052D01*
X317643Y398059D01*
X317688Y398079D01*
X317736Y398091D01*
X317778Y398117D01*
X320757Y398117D01*
X322817Y396057D01*
X322817Y393143D01*
X320757Y391083D01*
X317789Y391083D01*
X317782Y391089D01*
X317711Y391110D01*
X317644Y391141D01*
X317611Y391144D01*
X317601Y391148D01*
X317581Y391150D01*
X317548Y391160D01*
X317497Y391158D01*
X317454Y391163D01*
X317450Y391163D01*
X317440Y391161D01*
X317401Y391165D01*
X317353Y391154D01*
X317304Y391152D01*
X317240Y391128D01*
X317209Y391123D01*
X317200Y391118D01*
X317164Y391109D01*
X317122Y391083D01*
X317076Y391066D01*
X317024Y391024D01*
X316994Y391008D01*
X316986Y390999D01*
X316956Y390981D01*
X316925Y390943D01*
X316887Y390911D01*
X316854Y390858D01*
X316827Y390830D01*
X316821Y390816D01*
X316801Y390792D01*
X316784Y390746D01*
X316758Y390704D01*
X316745Y390649D01*
X316726Y390608D01*
X316724Y390588D01*
X316715Y390564D01*
X316708Y390491D01*
X316702Y390467D01*
X316704Y390450D01*
X316701Y390417D01*
X316701Y380879D01*
X316726Y380728D01*
X316740Y380639D01*
X316740Y380638D01*
X316804Y380518D01*
X316855Y380423D01*
X316944Y380340D01*
X317033Y380256D01*
X317034Y380256D01*
X317163Y380187D01*
X321115Y378550D01*
X324350Y375315D01*
X326101Y371088D01*
X326101Y338612D01*
X324350Y334385D01*
X321115Y331150D01*
X316888Y329399D01*
X312312Y329399D01*
X308085Y331150D01*
X304850Y334385D01*
X303099Y338612D01*
X303099Y354850D01*
X303087Y354923D01*
X303085Y354996D01*
X303068Y355042D01*
X303060Y355091D01*
X303025Y355156D01*
X302999Y355224D01*
X302968Y355263D01*
X302945Y355306D01*
X302891Y355356D01*
X302844Y355413D01*
X302802Y355439D01*
X302767Y355473D01*
X302700Y355503D01*
X302637Y355542D01*
X302589Y355553D01*
X302544Y355574D01*
X302471Y355581D01*
X302400Y355598D01*
X302351Y355593D01*
X302301Y355598D01*
X302230Y355581D01*
X302157Y355574D01*
X302112Y355554D01*
X302064Y355542D01*
X302001Y355504D01*
X301934Y355473D01*
X301878Y355427D01*
X301856Y355414D01*
X301846Y355401D01*
X301820Y355380D01*
X301240Y354800D01*
X301183Y354720D01*
X301121Y354645D01*
X301113Y354622D01*
X301098Y354601D01*
X301070Y354508D01*
X301035Y354417D01*
X301032Y354384D01*
X301027Y354368D01*
X301028Y354343D01*
X301021Y354270D01*
X301021Y318427D01*
X300031Y316038D01*
X296782Y312789D01*
X294393Y311799D01*
X291807Y311799D01*
X290448Y312362D01*
X290377Y312379D01*
X290308Y312405D01*
X290234Y312412D01*
X290210Y312418D01*
X290194Y312416D01*
X290161Y312419D01*
X290149Y312419D01*
X290140Y312428D01*
X290080Y312471D01*
X290027Y312521D01*
X289962Y312556D01*
X289942Y312570D01*
X289926Y312575D01*
X289897Y312591D01*
X289747Y312653D01*
X289616Y312683D01*
X289510Y312708D01*
X289509Y312708D01*
X289374Y312695D01*
X289267Y312684D01*
X289266Y312684D01*
X289151Y312632D01*
X289045Y312584D01*
X289044Y312584D01*
X289044Y312583D01*
X289043Y312583D01*
X288930Y312490D01*
X287297Y310856D01*
X287213Y310740D01*
X287155Y310658D01*
X287121Y310547D01*
X287084Y310425D01*
X287084Y310424D01*
X287088Y310292D01*
X287091Y310181D01*
X287092Y310181D01*
X287092Y310180D01*
X287134Y310040D01*
X288551Y306620D01*
X288551Y302980D01*
X287158Y299617D01*
X284583Y297042D01*
X281220Y295649D01*
X277580Y295649D01*
X274217Y297042D01*
X272229Y299030D01*
X272150Y299087D01*
X272075Y299149D01*
X272051Y299157D01*
X272031Y299172D01*
X271937Y299200D01*
X271846Y299235D01*
X271813Y299238D01*
X271797Y299243D01*
X271772Y299242D01*
X271699Y299249D01*
X220500Y299249D01*
X220404Y299233D01*
X220307Y299224D01*
X220284Y299214D01*
X220259Y299210D01*
X220173Y299164D01*
X220084Y299123D01*
X220059Y299102D01*
X220044Y299095D01*
X220027Y299076D01*
X219970Y299030D01*
X207970Y287030D01*
X207913Y286950D01*
X207852Y286875D01*
X207843Y286852D01*
X207828Y286831D01*
X207800Y286738D01*
X207765Y286647D01*
X207762Y286614D01*
X207757Y286598D01*
X207758Y286573D01*
X207751Y286500D01*
X207751Y275220D01*
X207772Y275092D01*
X207790Y274980D01*
X207859Y274852D01*
X207905Y274765D01*
X207905Y274764D01*
X207988Y274687D01*
X208083Y274598D01*
X208084Y274597D01*
X208213Y274528D01*
X208383Y274458D01*
X210958Y271883D01*
X212351Y268520D01*
X212351Y264880D01*
X210958Y261517D01*
X208383Y258942D01*
X208213Y258872D01*
X208102Y258803D01*
X208006Y258743D01*
X207925Y258644D01*
X207852Y258555D01*
X207851Y258555D01*
X207801Y258420D01*
X207765Y258327D01*
X207765Y258326D01*
X207765Y258325D01*
X207751Y258180D01*
X207751Y255000D01*
X207767Y254904D01*
X207776Y254807D01*
X207786Y254784D01*
X207790Y254759D01*
X207836Y254673D01*
X207877Y254584D01*
X207898Y254559D01*
X207905Y254544D01*
X207924Y254527D01*
X207970Y254470D01*
X225970Y236470D01*
X226050Y236413D01*
X226125Y236352D01*
X226148Y236343D01*
X226169Y236328D01*
X226262Y236300D01*
X226353Y236265D01*
X226386Y236262D01*
X226402Y236257D01*
X226427Y236258D01*
X226500Y236251D01*
X273810Y236251D01*
X273882Y236263D01*
X273955Y236265D01*
X274026Y236286D01*
X274050Y236290D01*
X274065Y236298D01*
X274096Y236308D01*
X277580Y237751D01*
X281220Y237751D01*
X284583Y236358D01*
X287260Y233681D01*
X287263Y233677D01*
X302004Y218936D01*
X302084Y218879D01*
X302159Y218817D01*
X302182Y218809D01*
X302203Y218794D01*
X302296Y218766D01*
X302387Y218731D01*
X302420Y218728D01*
X302436Y218723D01*
X302461Y218724D01*
X302534Y218717D01*
X305686Y218717D01*
X309913Y216966D01*
X328166Y198713D01*
X328525Y197845D01*
X328551Y197804D01*
X328569Y197758D01*
X328615Y197701D01*
X328654Y197638D01*
X328692Y197607D01*
X328723Y197569D01*
X328786Y197530D01*
X328843Y197483D01*
X328889Y197466D01*
X328930Y197440D01*
X329002Y197423D01*
X329071Y197397D01*
X329120Y197396D01*
X329168Y197384D01*
X329241Y197392D01*
X329315Y197389D01*
X329362Y197403D01*
X329411Y197408D01*
X329478Y197438D01*
X329549Y197460D01*
X329588Y197488D01*
X329633Y197509D01*
X329747Y197602D01*
X330475Y198330D01*
X333389Y198330D01*
X335449Y196270D01*
X335449Y193357D01*
X333389Y191297D01*
X331453Y191297D01*
X331380Y191285D01*
X331306Y191282D01*
X331260Y191265D01*
X331212Y191257D01*
X331147Y191222D01*
X331078Y191196D01*
X331040Y191165D01*
X330997Y191142D01*
X330946Y191088D01*
X330889Y191042D01*
X330863Y191000D01*
X330830Y190964D01*
X330799Y190897D01*
X330761Y190834D01*
X330749Y190787D01*
X330729Y190742D01*
X330722Y190668D01*
X330705Y190597D01*
X330710Y190548D01*
X330705Y190499D01*
X330722Y190427D01*
X330729Y190354D01*
X330749Y190309D01*
X330751Y190302D01*
X330751Y111000D01*
X330767Y110904D01*
X330776Y110807D01*
X330786Y110784D01*
X330790Y110759D01*
X330836Y110673D01*
X330877Y110584D01*
X330898Y110559D01*
X330905Y110544D01*
X330924Y110527D01*
X330970Y110470D01*
X336570Y104871D01*
X336649Y104814D01*
X336724Y104752D01*
X336748Y104743D01*
X336768Y104729D01*
X336861Y104700D01*
X336953Y104666D01*
X336986Y104663D01*
X337002Y104658D01*
X337026Y104658D01*
X337100Y104651D01*
X337237Y104651D01*
X341464Y102900D01*
X344699Y99665D01*
X346450Y95438D01*
X346450Y95301D01*
X346466Y95204D01*
X346476Y95107D01*
X346486Y95085D01*
X346490Y95060D01*
X346536Y94974D01*
X346576Y94885D01*
X346597Y94859D01*
X346605Y94845D01*
X346623Y94828D01*
X346670Y94771D01*
X347091Y94349D01*
X347111Y94335D01*
X347127Y94316D01*
X347210Y94264D01*
X347289Y94207D01*
X347313Y94200D01*
X347334Y94187D01*
X347429Y94165D01*
X347523Y94136D01*
X347547Y94137D01*
X347571Y94132D01*
X347669Y94141D01*
X347767Y94144D01*
X347790Y94153D01*
X347814Y94155D01*
X347903Y94196D01*
X347995Y94230D01*
X348014Y94246D01*
X348036Y94256D01*
X348151Y94349D01*
X350434Y96632D01*
X353786Y98021D01*
X357414Y98021D01*
X360766Y96632D01*
X363332Y94066D01*
X364721Y90714D01*
X364721Y87086D01*
X363332Y83734D01*
X361049Y81451D01*
X361035Y81431D01*
X361016Y81415D01*
X360964Y81332D01*
X360907Y81252D01*
X360900Y81229D01*
X360887Y81208D01*
X360865Y81113D01*
X360836Y81019D01*
X360837Y80994D01*
X360832Y80971D01*
X360841Y80873D01*
X360844Y80775D01*
X360853Y80752D01*
X360855Y80728D01*
X360896Y80638D01*
X360930Y80547D01*
X360946Y80528D01*
X360956Y80505D01*
X361049Y80391D01*
X361438Y80002D01*
X361517Y79946D01*
X361593Y79884D01*
X361616Y79875D01*
X361636Y79860D01*
X361730Y79832D01*
X361821Y79798D01*
X361854Y79794D01*
X361870Y79789D01*
X361895Y79790D01*
X361968Y79783D01*
X375367Y79783D01*
X375440Y79795D01*
X375513Y79797D01*
X375559Y79815D01*
X375608Y79823D01*
X375673Y79857D01*
X375741Y79883D01*
X375780Y79914D01*
X375823Y79938D01*
X375873Y79991D01*
X375930Y80038D01*
X375956Y80080D01*
X375990Y80116D01*
X376020Y80183D01*
X376059Y80245D01*
X376070Y80293D01*
X376091Y80338D01*
X376098Y80411D01*
X376115Y80483D01*
X376110Y80532D01*
X376115Y80581D01*
X376098Y80652D01*
X376091Y80725D01*
X376071Y80770D01*
X376060Y80818D01*
X376021Y80881D01*
X375991Y80948D01*
X375944Y81005D01*
X375931Y81026D01*
X375918Y81036D01*
X375897Y81062D01*
X373242Y83717D01*
X371849Y87080D01*
X371849Y90720D01*
X373242Y94083D01*
X375817Y96658D01*
X379180Y98051D01*
X382820Y98051D01*
X386183Y96658D01*
X388758Y94083D01*
X390151Y90720D01*
X390151Y87080D01*
X389128Y84610D01*
X389093Y84464D01*
X389072Y84372D01*
X389085Y84242D01*
X389096Y84130D01*
X389096Y84129D01*
X389150Y84010D01*
X389196Y83907D01*
X389197Y83907D01*
X389197Y83906D01*
X389290Y83793D01*
X390081Y83002D01*
X390160Y82946D01*
X390235Y82884D01*
X390259Y82875D01*
X390279Y82860D01*
X390372Y82832D01*
X390463Y82798D01*
X390496Y82794D01*
X390512Y82789D01*
X390537Y82790D01*
X390610Y82783D01*
X397908Y82783D01*
X397956Y82791D01*
X398005Y82789D01*
X398076Y82811D01*
X398149Y82823D01*
X398192Y82846D01*
X398239Y82860D01*
X398299Y82903D01*
X398364Y82938D01*
X398397Y82974D01*
X398437Y83002D01*
X398480Y83062D01*
X398531Y83116D01*
X398551Y83160D01*
X398579Y83200D01*
X398601Y83271D01*
X398631Y83338D01*
X398636Y83387D01*
X398651Y83434D01*
X398648Y83507D01*
X398655Y83581D01*
X398644Y83629D01*
X398643Y83678D01*
X398600Y83817D01*
X398600Y83818D01*
X398600Y83819D01*
X397249Y87080D01*
X397249Y90720D01*
X398642Y94083D01*
X401217Y96658D01*
X401821Y96908D01*
X401904Y96959D01*
X401990Y97005D01*
X402007Y97024D01*
X402028Y97037D01*
X402090Y97112D01*
X402157Y97184D01*
X402167Y97206D01*
X402183Y97225D01*
X402217Y97317D01*
X402257Y97406D01*
X402260Y97430D01*
X402269Y97454D01*
X402272Y97551D01*
X402282Y97649D01*
X402276Y97673D01*
X402277Y97697D01*
X402248Y97791D01*
X402226Y97886D01*
X402213Y97907D01*
X402206Y97931D01*
X402149Y98010D01*
X402098Y98094D01*
X402079Y98109D01*
X402064Y98129D01*
X401985Y98187D01*
X401909Y98249D01*
X401886Y98257D01*
X401866Y98272D01*
X401772Y98300D01*
X401681Y98335D01*
X401648Y98338D01*
X401632Y98343D01*
X401607Y98342D01*
X401534Y98349D01*
X389468Y98349D01*
X385249Y102568D01*
X385249Y104233D01*
X385247Y104245D01*
X385248Y104248D01*
X385244Y104263D01*
X385233Y104329D01*
X385224Y104426D01*
X385214Y104449D01*
X385210Y104474D01*
X385164Y104560D01*
X385123Y104649D01*
X385102Y104674D01*
X385095Y104689D01*
X385076Y104706D01*
X385030Y104763D01*
X383983Y105809D01*
X383983Y108723D01*
X386043Y110783D01*
X388957Y110783D01*
X391017Y108723D01*
X391017Y105809D01*
X390225Y105018D01*
X390211Y104998D01*
X390192Y104982D01*
X390140Y104899D01*
X390083Y104819D01*
X390076Y104796D01*
X390063Y104775D01*
X390041Y104680D01*
X390012Y104586D01*
X390013Y104561D01*
X390007Y104537D01*
X390017Y104440D01*
X390020Y104342D01*
X390029Y104319D01*
X390031Y104295D01*
X390071Y104205D01*
X390106Y104114D01*
X390121Y104095D01*
X390131Y104072D01*
X390225Y103958D01*
X391113Y103070D01*
X391192Y103013D01*
X391267Y102951D01*
X391291Y102943D01*
X391311Y102928D01*
X391405Y102900D01*
X391496Y102865D01*
X391529Y102862D01*
X391545Y102857D01*
X391570Y102858D01*
X391643Y102851D01*
X469332Y102851D01*
X473747Y98436D01*
X473826Y98379D01*
X473901Y98317D01*
X473925Y98309D01*
X473945Y98294D01*
X474039Y98266D01*
X474130Y98231D01*
X474163Y98228D01*
X474179Y98223D01*
X474204Y98224D01*
X474277Y98217D01*
X475757Y98217D01*
X477817Y96157D01*
X477817Y93243D01*
X475757Y91183D01*
X472843Y91183D01*
X470783Y93243D01*
X470783Y94723D01*
X470767Y94820D01*
X470758Y94917D01*
X470748Y94939D01*
X470744Y94964D01*
X470698Y95050D01*
X470657Y95139D01*
X470636Y95165D01*
X470629Y95179D01*
X470610Y95196D01*
X470564Y95253D01*
X467687Y98130D01*
X467608Y98187D01*
X467533Y98249D01*
X467509Y98257D01*
X467489Y98272D01*
X467395Y98300D01*
X467304Y98335D01*
X467271Y98338D01*
X467255Y98343D01*
X467230Y98342D01*
X467157Y98349D01*
X462066Y98349D01*
X461970Y98333D01*
X461872Y98324D01*
X461850Y98314D01*
X461825Y98310D01*
X461739Y98263D01*
X461650Y98223D01*
X461632Y98206D01*
X461610Y98195D01*
X461543Y98123D01*
X461472Y98056D01*
X461460Y98035D01*
X461443Y98017D01*
X461403Y97927D01*
X461357Y97841D01*
X461353Y97817D01*
X461343Y97794D01*
X461333Y97697D01*
X461317Y97601D01*
X461321Y97576D01*
X461318Y97551D01*
X461341Y97456D01*
X461356Y97360D01*
X461368Y97338D01*
X461374Y97314D01*
X461425Y97231D01*
X461471Y97144D01*
X461489Y97128D01*
X461502Y97106D01*
X461578Y97044D01*
X461649Y96977D01*
X461678Y96962D01*
X461691Y96952D01*
X461714Y96943D01*
X461779Y96908D01*
X462383Y96658D01*
X464958Y94083D01*
X466351Y90720D01*
X466351Y87080D01*
X464958Y83717D01*
X462383Y81142D01*
X459020Y79749D01*
X455380Y79749D01*
X452017Y81142D01*
X449442Y83717D01*
X448049Y87080D01*
X448049Y90720D01*
X449442Y94083D01*
X452017Y96658D01*
X452621Y96908D01*
X452704Y96959D01*
X452790Y97005D01*
X452807Y97024D01*
X452828Y97037D01*
X452890Y97112D01*
X452957Y97184D01*
X452967Y97206D01*
X452983Y97225D01*
X453017Y97317D01*
X453057Y97406D01*
X453060Y97430D01*
X453069Y97454D01*
X453072Y97551D01*
X453082Y97649D01*
X453076Y97673D01*
X453077Y97697D01*
X453048Y97791D01*
X453026Y97886D01*
X453013Y97907D01*
X453006Y97931D01*
X452949Y98010D01*
X452898Y98094D01*
X452879Y98109D01*
X452864Y98129D01*
X452785Y98187D01*
X452709Y98249D01*
X452686Y98257D01*
X452666Y98272D01*
X452572Y98300D01*
X452481Y98335D01*
X452448Y98338D01*
X452432Y98343D01*
X452407Y98342D01*
X452334Y98349D01*
X436666Y98349D01*
X436570Y98333D01*
X436472Y98324D01*
X436450Y98314D01*
X436425Y98310D01*
X436339Y98263D01*
X436250Y98223D01*
X436232Y98206D01*
X436210Y98195D01*
X436143Y98123D01*
X436072Y98056D01*
X436060Y98035D01*
X436043Y98017D01*
X436003Y97927D01*
X435957Y97841D01*
X435953Y97817D01*
X435943Y97794D01*
X435933Y97697D01*
X435917Y97601D01*
X435921Y97576D01*
X435918Y97551D01*
X435941Y97456D01*
X435956Y97360D01*
X435968Y97338D01*
X435974Y97314D01*
X436025Y97231D01*
X436071Y97144D01*
X436089Y97128D01*
X436102Y97106D01*
X436178Y97044D01*
X436249Y96977D01*
X436278Y96962D01*
X436291Y96952D01*
X436314Y96943D01*
X436379Y96908D01*
X436983Y96658D01*
X439558Y94083D01*
X440951Y90720D01*
X440951Y87080D01*
X440777Y86660D01*
X440749Y86541D01*
X440722Y86423D01*
X440737Y86266D01*
X440745Y86180D01*
X440798Y86063D01*
X440846Y85958D01*
X440846Y85957D01*
X440847Y85957D01*
X440939Y85844D01*
X449213Y77570D01*
X449292Y77513D01*
X449367Y77451D01*
X449391Y77443D01*
X449411Y77428D01*
X449505Y77400D01*
X449596Y77365D01*
X449629Y77362D01*
X449645Y77357D01*
X449670Y77358D01*
X449743Y77351D01*
X457018Y77351D01*
X478398Y55970D01*
X478478Y55913D01*
X478553Y55851D01*
X478576Y55843D01*
X478597Y55828D01*
X478690Y55800D01*
X478781Y55765D01*
X478814Y55762D01*
X478830Y55757D01*
X478855Y55758D01*
X478928Y55751D01*
X500857Y55751D01*
X500954Y55767D01*
X501051Y55776D01*
X501073Y55786D01*
X501098Y55790D01*
X501184Y55836D01*
X501273Y55877D01*
X501299Y55898D01*
X501313Y55905D01*
X501330Y55924D01*
X501387Y55970D01*
X509864Y64447D01*
X509921Y64526D01*
X509983Y64601D01*
X509991Y64625D01*
X510006Y64645D01*
X510034Y64739D01*
X510041Y64758D01*
X519264Y73980D01*
X519321Y74059D01*
X519383Y74134D01*
X519391Y74158D01*
X519406Y74178D01*
X519434Y74272D01*
X519469Y74363D01*
X519472Y74396D01*
X519477Y74412D01*
X519476Y74437D01*
X519483Y74510D01*
X519483Y77057D01*
X521543Y79117D01*
X524457Y79117D01*
X526517Y77057D01*
X526517Y74143D01*
X524457Y72083D01*
X524044Y72083D01*
X523947Y72067D01*
X523850Y72058D01*
X523828Y72048D01*
X523803Y72044D01*
X523717Y71998D01*
X523628Y71957D01*
X523602Y71936D01*
X523588Y71929D01*
X523571Y71910D01*
X523514Y71864D01*
X514804Y63154D01*
X514747Y63075D01*
X514685Y63000D01*
X514677Y62976D01*
X514662Y62956D01*
X514634Y62863D01*
X514627Y62844D01*
X513047Y61264D01*
X506313Y54530D01*
X506270Y54470D01*
X506220Y54417D01*
X506199Y54372D01*
X506171Y54331D01*
X506149Y54261D01*
X506119Y54194D01*
X506114Y54145D01*
X506100Y54098D01*
X506102Y54025D01*
X506095Y53951D01*
X506106Y53903D01*
X506108Y53854D01*
X506134Y53785D01*
X506150Y53714D01*
X506176Y53672D01*
X506194Y53626D01*
X506240Y53569D01*
X506279Y53506D01*
X506317Y53475D01*
X506348Y53437D01*
X506411Y53398D01*
X506467Y53352D01*
X506513Y53334D01*
X506555Y53308D01*
X506627Y53291D01*
X506696Y53265D01*
X506769Y53258D01*
X506793Y53252D01*
X506810Y53254D01*
X506843Y53251D01*
X516000Y53251D01*
X516096Y53267D01*
G37*
G36*
X158220Y309014D02*
X158220Y309014D01*
X158316Y309019D01*
X158359Y309034D01*
X158404Y309041D01*
X158491Y309080D01*
X158582Y309112D01*
X158617Y309137D01*
X158661Y309157D01*
X158758Y309240D01*
X158831Y309293D01*
X166533Y316995D01*
X168922Y317985D01*
X246984Y317985D01*
X247079Y317998D01*
X247175Y318003D01*
X247218Y318018D01*
X247263Y318025D01*
X247351Y318064D01*
X247442Y318096D01*
X247476Y318121D01*
X247520Y318141D01*
X247617Y318224D01*
X247691Y318277D01*
X258707Y329293D01*
X258721Y329313D01*
X258735Y329325D01*
X258767Y329373D01*
X258829Y329442D01*
X258849Y329483D01*
X258876Y329519D01*
X258910Y329609D01*
X258952Y329695D01*
X258958Y329737D01*
X258975Y329783D01*
X258985Y329911D01*
X258999Y330000D01*
X258999Y386586D01*
X267714Y395301D01*
X290300Y395301D01*
X290364Y395310D01*
X290428Y395309D01*
X290503Y395330D01*
X290579Y395341D01*
X290638Y395367D01*
X290700Y395384D01*
X290766Y395425D01*
X290836Y395457D01*
X290885Y395499D01*
X290940Y395532D01*
X290992Y395590D01*
X291050Y395640D01*
X291086Y395694D01*
X291129Y395742D01*
X291162Y395811D01*
X291205Y395876D01*
X291224Y395938D01*
X291252Y395995D01*
X291263Y396065D01*
X291287Y396146D01*
X291288Y396231D01*
X291299Y396300D01*
X291299Y414000D01*
X291286Y414095D01*
X291281Y414191D01*
X291266Y414234D01*
X291259Y414279D01*
X291220Y414367D01*
X291188Y414458D01*
X291163Y414492D01*
X291143Y414536D01*
X291060Y414634D01*
X291007Y414707D01*
X286007Y419707D01*
X285930Y419764D01*
X285858Y419829D01*
X285817Y419849D01*
X285781Y419876D01*
X285691Y419910D01*
X285605Y419952D01*
X285563Y419958D01*
X285517Y419975D01*
X285390Y419985D01*
X285300Y419999D01*
X268414Y419999D01*
X259999Y428414D01*
X259999Y447288D01*
X259987Y447374D01*
X259984Y447460D01*
X259967Y447513D01*
X259959Y447567D01*
X259924Y447646D01*
X259897Y447728D01*
X259866Y447774D01*
X259843Y447824D01*
X259787Y447890D01*
X259738Y447961D01*
X259696Y447996D01*
X259660Y448038D01*
X259587Y448086D01*
X259520Y448141D01*
X259470Y448162D01*
X259424Y448193D01*
X259341Y448218D01*
X259261Y448252D01*
X259207Y448259D01*
X259154Y448275D01*
X259067Y448276D01*
X258981Y448287D01*
X258927Y448278D01*
X258872Y448279D01*
X258788Y448256D01*
X258703Y448242D01*
X258653Y448218D01*
X258600Y448203D01*
X258526Y448158D01*
X258448Y448121D01*
X258407Y448084D01*
X258360Y448055D01*
X258302Y447991D01*
X258237Y447933D01*
X258211Y447890D01*
X258171Y447846D01*
X258122Y447744D01*
X258077Y447670D01*
X257851Y447126D01*
X256374Y445649D01*
X254444Y444849D01*
X252356Y444849D01*
X250426Y445649D01*
X248949Y447126D01*
X248149Y449056D01*
X248149Y451144D01*
X248949Y453074D01*
X250426Y454551D01*
X252356Y455351D01*
X254444Y455351D01*
X256374Y454551D01*
X257851Y453074D01*
X258077Y452530D01*
X258121Y452455D01*
X258157Y452376D01*
X258192Y452335D01*
X258220Y452287D01*
X258284Y452228D01*
X258340Y452162D01*
X258386Y452132D01*
X258426Y452094D01*
X258503Y452055D01*
X258576Y452007D01*
X258629Y451991D01*
X258678Y451967D01*
X258763Y451950D01*
X258846Y451925D01*
X258901Y451924D01*
X258955Y451914D01*
X259041Y451922D01*
X259128Y451921D01*
X259181Y451936D01*
X259235Y451941D01*
X259316Y451973D01*
X259400Y451997D01*
X259447Y452025D01*
X259497Y452046D01*
X259566Y452099D01*
X259640Y452145D01*
X259677Y452186D01*
X259720Y452219D01*
X259770Y452289D01*
X259829Y452354D01*
X259853Y452403D01*
X259885Y452448D01*
X259914Y452530D01*
X259952Y452608D01*
X259960Y452658D01*
X259979Y452714D01*
X259986Y452827D01*
X259999Y452912D01*
X259999Y478000D01*
X259986Y478095D01*
X259981Y478191D01*
X259966Y478234D01*
X259959Y478279D01*
X259920Y478367D01*
X259888Y478458D01*
X259863Y478492D01*
X259843Y478536D01*
X259760Y478634D01*
X259707Y478707D01*
X250707Y487707D01*
X250630Y487764D01*
X250558Y487829D01*
X250517Y487849D01*
X250481Y487876D01*
X250391Y487910D01*
X250305Y487952D01*
X250263Y487958D01*
X250217Y487975D01*
X250090Y487985D01*
X250000Y487999D01*
X176000Y487999D01*
X175905Y487986D01*
X175809Y487981D01*
X175766Y487966D01*
X175721Y487959D01*
X175633Y487920D01*
X175542Y487888D01*
X175508Y487863D01*
X175464Y487843D01*
X175367Y487760D01*
X175293Y487707D01*
X138293Y450707D01*
X138236Y450630D01*
X138171Y450558D01*
X138151Y450517D01*
X138124Y450481D01*
X138090Y450391D01*
X138048Y450305D01*
X138042Y450263D01*
X138025Y450217D01*
X138015Y450090D01*
X138001Y450000D01*
X138001Y310000D01*
X138010Y309936D01*
X138009Y309872D01*
X138030Y309797D01*
X138041Y309721D01*
X138067Y309662D01*
X138084Y309600D01*
X138125Y309534D01*
X138157Y309464D01*
X138199Y309415D01*
X138232Y309360D01*
X138290Y309308D01*
X138340Y309250D01*
X138394Y309214D01*
X138442Y309171D01*
X138511Y309138D01*
X138576Y309095D01*
X138638Y309076D01*
X138695Y309048D01*
X138765Y309037D01*
X138846Y309013D01*
X138931Y309012D01*
X139000Y309001D01*
X158125Y309001D01*
X158220Y309014D01*
G37*
G36*
X445179Y361267D02*
X445179Y361267D01*
X445276Y361276D01*
X445299Y361286D01*
X445323Y361290D01*
X445409Y361336D01*
X445498Y361377D01*
X445524Y361398D01*
X445538Y361405D01*
X445555Y361424D01*
X445612Y361470D01*
X448543Y364401D01*
X458041Y364401D01*
X460972Y361470D01*
X461051Y361413D01*
X461126Y361352D01*
X461150Y361343D01*
X461170Y361328D01*
X461263Y361300D01*
X461355Y361265D01*
X461388Y361262D01*
X461404Y361257D01*
X461428Y361258D01*
X461501Y361251D01*
X463000Y361251D01*
X463096Y361267D01*
X463193Y361276D01*
X463216Y361286D01*
X463241Y361290D01*
X463327Y361336D01*
X463416Y361377D01*
X463441Y361398D01*
X463456Y361405D01*
X463473Y361424D01*
X463530Y361470D01*
X468530Y366470D01*
X468587Y366550D01*
X468649Y366625D01*
X468657Y366648D01*
X468672Y366669D01*
X468700Y366762D01*
X468735Y366853D01*
X468738Y366886D01*
X468743Y366902D01*
X468742Y366927D01*
X468749Y367000D01*
X468749Y371567D01*
X468733Y371663D01*
X468724Y371760D01*
X468714Y371783D01*
X468710Y371808D01*
X468664Y371894D01*
X468623Y371983D01*
X468602Y372008D01*
X468595Y372023D01*
X468576Y372040D01*
X468530Y372097D01*
X468283Y372343D01*
X468283Y374833D01*
X468267Y374929D01*
X468258Y375026D01*
X468248Y375049D01*
X468244Y375074D01*
X468197Y375160D01*
X468157Y375249D01*
X468136Y375274D01*
X468129Y375289D01*
X468110Y375306D01*
X468064Y375363D01*
X467130Y376297D01*
X467110Y376311D01*
X467094Y376330D01*
X467011Y376382D01*
X466931Y376439D01*
X466908Y376446D01*
X466887Y376459D01*
X466792Y376481D01*
X466698Y376510D01*
X466674Y376509D01*
X466650Y376515D01*
X466552Y376505D01*
X466454Y376502D01*
X466431Y376493D01*
X466407Y376491D01*
X466317Y376451D01*
X466226Y376416D01*
X466207Y376401D01*
X466184Y376390D01*
X466070Y376297D01*
X463857Y374083D01*
X460943Y374083D01*
X458883Y376143D01*
X458883Y379057D01*
X460943Y381117D01*
X463857Y381117D01*
X464770Y380203D01*
X464790Y380189D01*
X464806Y380170D01*
X464889Y380118D01*
X464969Y380061D01*
X464992Y380054D01*
X465013Y380041D01*
X465108Y380019D01*
X465202Y379990D01*
X465227Y379991D01*
X465250Y379985D01*
X465348Y379995D01*
X465446Y379998D01*
X465469Y380007D01*
X465493Y380009D01*
X465582Y380049D01*
X465674Y380084D01*
X465693Y380100D01*
X465716Y380110D01*
X465830Y380203D01*
X466292Y380665D01*
X466306Y380685D01*
X466325Y380701D01*
X466377Y380784D01*
X466434Y380864D01*
X466441Y380887D01*
X466454Y380908D01*
X466477Y381003D01*
X466505Y381097D01*
X466504Y381122D01*
X466510Y381146D01*
X466500Y381243D01*
X466497Y381341D01*
X466488Y381364D01*
X466486Y381388D01*
X466446Y381478D01*
X466411Y381570D01*
X466396Y381589D01*
X466386Y381611D01*
X466292Y381725D01*
X464053Y383964D01*
X463974Y384021D01*
X463899Y384083D01*
X463875Y384091D01*
X463855Y384106D01*
X463761Y384134D01*
X463670Y384169D01*
X463637Y384172D01*
X463621Y384177D01*
X463596Y384176D01*
X463523Y384183D01*
X462043Y384183D01*
X459983Y386243D01*
X459983Y389157D01*
X462043Y391217D01*
X464957Y391217D01*
X467017Y389157D01*
X467017Y387677D01*
X467033Y387580D01*
X467042Y387483D01*
X467052Y387461D01*
X467056Y387436D01*
X467102Y387350D01*
X467143Y387261D01*
X467164Y387235D01*
X467171Y387221D01*
X467190Y387204D01*
X467236Y387147D01*
X467470Y386913D01*
X467530Y386870D01*
X467584Y386820D01*
X467628Y386799D01*
X467669Y386771D01*
X467739Y386749D01*
X467806Y386719D01*
X467855Y386714D01*
X467902Y386700D01*
X467975Y386702D01*
X468049Y386695D01*
X468097Y386706D01*
X468146Y386708D01*
X468215Y386734D01*
X468286Y386750D01*
X468328Y386776D01*
X468374Y386794D01*
X468431Y386840D01*
X468494Y386879D01*
X468525Y386917D01*
X468563Y386948D01*
X468602Y387011D01*
X468649Y387067D01*
X468666Y387113D01*
X468692Y387155D01*
X468709Y387227D01*
X468735Y387296D01*
X468742Y387369D01*
X468748Y387393D01*
X468746Y387410D01*
X468749Y387443D01*
X468749Y391857D01*
X468733Y391954D01*
X468724Y392051D01*
X468714Y392073D01*
X468710Y392098D01*
X468664Y392184D01*
X468623Y392273D01*
X468602Y392299D01*
X468595Y392313D01*
X468576Y392330D01*
X468530Y392387D01*
X464053Y396864D01*
X463974Y396921D01*
X463899Y396983D01*
X463875Y396991D01*
X463855Y397006D01*
X463761Y397034D01*
X463670Y397069D01*
X463637Y397072D01*
X463621Y397077D01*
X463596Y397076D01*
X463523Y397083D01*
X462043Y397083D01*
X459983Y399143D01*
X459983Y402057D01*
X462043Y404117D01*
X464957Y404117D01*
X465204Y403869D01*
X465264Y403826D01*
X465318Y403776D01*
X465362Y403756D01*
X465403Y403727D01*
X465473Y403706D01*
X465540Y403675D01*
X465589Y403670D01*
X465636Y403656D01*
X465709Y403659D01*
X465783Y403651D01*
X465831Y403662D01*
X465880Y403664D01*
X465949Y403690D01*
X466020Y403707D01*
X466062Y403733D01*
X466108Y403750D01*
X466165Y403796D01*
X466228Y403835D01*
X466259Y403873D01*
X466297Y403905D01*
X466336Y403967D01*
X466383Y404024D01*
X466400Y404070D01*
X466426Y404112D01*
X466443Y404183D01*
X466469Y404252D01*
X466476Y404325D01*
X466482Y404349D01*
X466480Y404366D01*
X466483Y404399D01*
X466483Y407157D01*
X468530Y409203D01*
X468587Y409282D01*
X468649Y409358D01*
X468657Y409381D01*
X468672Y409402D01*
X468700Y409495D01*
X468735Y409586D01*
X468738Y409619D01*
X468743Y409635D01*
X468742Y409660D01*
X468749Y409733D01*
X468749Y410000D01*
X468733Y410096D01*
X468724Y410193D01*
X468714Y410216D01*
X468710Y410241D01*
X468664Y410327D01*
X468623Y410416D01*
X468602Y410441D01*
X468595Y410456D01*
X468576Y410473D01*
X468530Y410530D01*
X459680Y419380D01*
X459600Y419437D01*
X459525Y419499D01*
X459502Y419507D01*
X459481Y419522D01*
X459388Y419550D01*
X459297Y419585D01*
X459264Y419588D01*
X459248Y419593D01*
X459223Y419592D01*
X459150Y419599D01*
X456807Y419599D01*
X454418Y420589D01*
X452484Y422523D01*
X452483Y422523D01*
X451477Y423530D01*
X451398Y423587D01*
X451322Y423649D01*
X451299Y423657D01*
X451278Y423672D01*
X451185Y423700D01*
X451094Y423735D01*
X451061Y423738D01*
X451045Y423743D01*
X451020Y423742D01*
X450947Y423749D01*
X448000Y423749D01*
X447992Y423748D01*
X447984Y423749D01*
X447837Y423731D01*
X438918Y421749D01*
X435000Y421749D01*
X434904Y421733D01*
X434807Y421724D01*
X434784Y421714D01*
X434759Y421710D01*
X434673Y421664D01*
X434584Y421623D01*
X434559Y421602D01*
X434544Y421595D01*
X434527Y421576D01*
X434470Y421530D01*
X433037Y420096D01*
X433022Y420076D01*
X433004Y420061D01*
X432952Y419978D01*
X432895Y419898D01*
X432887Y419875D01*
X432875Y419854D01*
X432852Y419758D01*
X432824Y419664D01*
X432824Y419640D01*
X432819Y419616D01*
X432828Y419519D01*
X432832Y419421D01*
X432840Y419398D01*
X432843Y419373D01*
X432883Y419284D01*
X432917Y419192D01*
X432933Y419173D01*
X432943Y419151D01*
X433037Y419037D01*
X435217Y416857D01*
X435217Y414666D01*
X435221Y414642D01*
X435218Y414617D01*
X435240Y414522D01*
X435256Y414425D01*
X435268Y414404D01*
X435274Y414380D01*
X435325Y414296D01*
X435371Y414210D01*
X435389Y414193D01*
X435402Y414172D01*
X435478Y414110D01*
X435549Y414043D01*
X435572Y414033D01*
X435591Y414017D01*
X435682Y413983D01*
X435772Y413942D01*
X435796Y413940D01*
X435819Y413931D01*
X435966Y413917D01*
X437557Y413917D01*
X439617Y411857D01*
X439617Y408943D01*
X438253Y407580D01*
X438239Y407560D01*
X438220Y407544D01*
X438168Y407461D01*
X438111Y407381D01*
X438104Y407358D01*
X438091Y407337D01*
X438069Y407242D01*
X438040Y407148D01*
X438041Y407124D01*
X438035Y407100D01*
X438045Y407002D01*
X438048Y406904D01*
X438057Y406881D01*
X438059Y406857D01*
X438099Y406768D01*
X438134Y406676D01*
X438150Y406657D01*
X438160Y406634D01*
X438253Y406520D01*
X438717Y406057D01*
X438717Y403143D01*
X436657Y401083D01*
X433743Y401083D01*
X431683Y403143D01*
X431683Y404323D01*
X431667Y404420D01*
X431658Y404517D01*
X431648Y404539D01*
X431644Y404564D01*
X431597Y404650D01*
X431557Y404739D01*
X431536Y404765D01*
X431529Y404779D01*
X431510Y404796D01*
X431464Y404853D01*
X430530Y405787D01*
X430470Y405830D01*
X430417Y405880D01*
X430372Y405901D01*
X430331Y405929D01*
X430261Y405951D01*
X430194Y405981D01*
X430145Y405986D01*
X430098Y406000D01*
X430025Y405998D01*
X429951Y406005D01*
X429903Y405994D01*
X429854Y405992D01*
X429785Y405966D01*
X429714Y405950D01*
X429672Y405924D01*
X429626Y405906D01*
X429569Y405860D01*
X429506Y405821D01*
X429475Y405783D01*
X429437Y405752D01*
X429398Y405689D01*
X429352Y405633D01*
X429334Y405587D01*
X429308Y405545D01*
X429291Y405473D01*
X429265Y405404D01*
X429258Y405331D01*
X429252Y405307D01*
X429254Y405290D01*
X429251Y405257D01*
X429251Y401185D01*
X429255Y401161D01*
X429252Y401137D01*
X429275Y401041D01*
X429290Y400945D01*
X429302Y400923D01*
X429308Y400899D01*
X429359Y400816D01*
X429405Y400729D01*
X429423Y400713D01*
X429436Y400692D01*
X429512Y400630D01*
X429584Y400563D01*
X429606Y400552D01*
X429625Y400537D01*
X429716Y400502D01*
X429806Y400462D01*
X429830Y400459D01*
X429853Y400451D01*
X430000Y400436D01*
X432237Y400436D01*
X434297Y398376D01*
X434297Y395463D01*
X432237Y393403D01*
X431766Y393403D01*
X431742Y393399D01*
X431717Y393401D01*
X431622Y393379D01*
X431525Y393363D01*
X431504Y393351D01*
X431480Y393346D01*
X431396Y393294D01*
X431310Y393248D01*
X431293Y393230D01*
X431272Y393217D01*
X431210Y393141D01*
X431143Y393070D01*
X431133Y393048D01*
X431117Y393029D01*
X431083Y392937D01*
X431042Y392848D01*
X431040Y392823D01*
X431031Y392800D01*
X431017Y392653D01*
X431017Y390243D01*
X430403Y389630D01*
X430389Y389610D01*
X430370Y389594D01*
X430318Y389511D01*
X430261Y389431D01*
X430254Y389408D01*
X430241Y389387D01*
X430219Y389292D01*
X430190Y389198D01*
X430191Y389173D01*
X430185Y389150D01*
X430195Y389052D01*
X430198Y388954D01*
X430207Y388931D01*
X430209Y388907D01*
X430249Y388818D01*
X430284Y388726D01*
X430300Y388707D01*
X430310Y388684D01*
X430403Y388570D01*
X432217Y386757D01*
X432217Y385654D01*
X432221Y385630D01*
X432218Y385606D01*
X432240Y385510D01*
X432256Y385414D01*
X432268Y385392D01*
X432274Y385368D01*
X432325Y385285D01*
X432371Y385198D01*
X432389Y385182D01*
X432402Y385161D01*
X432478Y385098D01*
X432549Y385031D01*
X432572Y385021D01*
X432591Y385006D01*
X432682Y384971D01*
X432772Y384931D01*
X432796Y384928D01*
X432819Y384920D01*
X432966Y384905D01*
X434568Y384905D01*
X436628Y382845D01*
X436628Y379932D01*
X436081Y379385D01*
X436067Y379365D01*
X436048Y379349D01*
X435996Y379266D01*
X435939Y379186D01*
X435932Y379163D01*
X435919Y379142D01*
X435897Y379047D01*
X435868Y378953D01*
X435869Y378928D01*
X435864Y378904D01*
X435873Y378807D01*
X435876Y378709D01*
X435885Y378686D01*
X435887Y378662D01*
X435928Y378572D01*
X435962Y378480D01*
X435978Y378461D01*
X435988Y378439D01*
X436081Y378325D01*
X437901Y376506D01*
X437901Y373592D01*
X435841Y371532D01*
X432927Y371532D01*
X432530Y371930D01*
X432470Y371973D01*
X432417Y372023D01*
X432372Y372043D01*
X432331Y372072D01*
X432261Y372093D01*
X432194Y372124D01*
X432145Y372129D01*
X432098Y372143D01*
X432025Y372140D01*
X431951Y372148D01*
X431903Y372137D01*
X431854Y372135D01*
X431785Y372109D01*
X431714Y372092D01*
X431672Y372066D01*
X431626Y372049D01*
X431569Y372003D01*
X431506Y371964D01*
X431475Y371926D01*
X431437Y371894D01*
X431398Y371832D01*
X431352Y371775D01*
X431334Y371729D01*
X431308Y371687D01*
X431291Y371616D01*
X431265Y371547D01*
X431258Y371474D01*
X431252Y371450D01*
X431254Y371433D01*
X431251Y371400D01*
X431251Y370000D01*
X431267Y369904D01*
X431276Y369807D01*
X431286Y369784D01*
X431290Y369759D01*
X431336Y369673D01*
X431377Y369584D01*
X431398Y369559D01*
X431405Y369544D01*
X431424Y369527D01*
X431470Y369470D01*
X437520Y363420D01*
X437600Y363363D01*
X437675Y363301D01*
X437698Y363293D01*
X437719Y363278D01*
X437812Y363250D01*
X437903Y363215D01*
X437936Y363212D01*
X437952Y363207D01*
X437977Y363208D01*
X438050Y363201D01*
X438117Y363201D01*
X438213Y363217D01*
X438310Y363226D01*
X438333Y363236D01*
X438358Y363240D01*
X438444Y363286D01*
X438533Y363327D01*
X438558Y363348D01*
X438573Y363355D01*
X438590Y363374D01*
X438647Y363420D01*
X438943Y363717D01*
X441857Y363717D01*
X444103Y361470D01*
X444183Y361413D01*
X444258Y361352D01*
X444281Y361343D01*
X444302Y361328D01*
X444395Y361300D01*
X444486Y361265D01*
X444519Y361262D01*
X444535Y361257D01*
X444560Y361258D01*
X444633Y361251D01*
X445083Y361251D01*
X445179Y361267D01*
G37*
%LPC*%
G36*
X350536Y232383D02*
X350536Y232383D01*
X348099Y234820D01*
X348099Y238157D01*
X350280Y240338D01*
X350337Y240417D01*
X350399Y240492D01*
X350407Y240516D01*
X350422Y240536D01*
X350450Y240629D01*
X350485Y240721D01*
X350488Y240754D01*
X350493Y240770D01*
X350492Y240794D01*
X350499Y240868D01*
X350499Y283010D01*
X350483Y283106D01*
X350483Y283107D01*
X350483Y286664D01*
X352836Y289017D01*
X356164Y289017D01*
X358517Y286664D01*
X358517Y283161D01*
X358515Y283157D01*
X358512Y283124D01*
X358507Y283108D01*
X358508Y283083D01*
X358501Y283010D01*
X358501Y264974D01*
X358513Y264902D01*
X358515Y264828D01*
X358532Y264782D01*
X358540Y264733D01*
X358575Y264668D01*
X358601Y264600D01*
X358632Y264562D01*
X358655Y264518D01*
X358709Y264468D01*
X358756Y264411D01*
X358798Y264385D01*
X358833Y264351D01*
X358900Y264321D01*
X358963Y264282D01*
X359011Y264271D01*
X359056Y264250D01*
X359129Y264243D01*
X359200Y264226D01*
X359249Y264231D01*
X359299Y264226D01*
X359370Y264243D01*
X359443Y264250D01*
X359488Y264270D01*
X359536Y264282D01*
X359599Y264320D01*
X359666Y264351D01*
X359722Y264397D01*
X359744Y264410D01*
X359754Y264423D01*
X359780Y264444D01*
X360352Y265017D01*
X363680Y265017D01*
X366033Y262664D01*
X366033Y259336D01*
X363680Y256983D01*
X360352Y256983D01*
X359780Y257556D01*
X359720Y257598D01*
X359666Y257649D01*
X359622Y257669D01*
X359581Y257698D01*
X359511Y257719D01*
X359444Y257750D01*
X359395Y257754D01*
X359348Y257769D01*
X359275Y257766D01*
X359201Y257774D01*
X359153Y257762D01*
X359104Y257761D01*
X359035Y257735D01*
X358964Y257718D01*
X358922Y257692D01*
X358876Y257675D01*
X358819Y257628D01*
X358756Y257590D01*
X358725Y257552D01*
X358687Y257520D01*
X358648Y257458D01*
X358601Y257401D01*
X358584Y257355D01*
X358558Y257313D01*
X358541Y257242D01*
X358515Y257173D01*
X358508Y257100D01*
X358502Y257076D01*
X358504Y257059D01*
X358501Y257026D01*
X358501Y237243D01*
X356436Y235178D01*
X356379Y235099D01*
X356317Y235024D01*
X356309Y235000D01*
X356294Y234980D01*
X356266Y234887D01*
X356231Y234795D01*
X356228Y234762D01*
X356223Y234746D01*
X356223Y234743D01*
X353864Y232383D01*
X350536Y232383D01*
G37*
%LPD*%
%LPC*%
G36*
X531580Y498849D02*
X531580Y498849D01*
X528217Y500242D01*
X525642Y502817D01*
X524249Y506180D01*
X524249Y509368D01*
X524245Y509392D01*
X524248Y509417D01*
X524226Y509512D01*
X524210Y509609D01*
X524198Y509630D01*
X524192Y509654D01*
X524141Y509738D01*
X524095Y509824D01*
X524077Y509841D01*
X524064Y509862D01*
X523988Y509924D01*
X523917Y509991D01*
X523894Y510001D01*
X523875Y510017D01*
X523784Y510051D01*
X523694Y510092D01*
X523670Y510094D01*
X523647Y510103D01*
X523500Y510117D01*
X520543Y510117D01*
X518483Y512177D01*
X518483Y515091D01*
X520543Y517151D01*
X523457Y517151D01*
X525517Y515091D01*
X525517Y514867D01*
X525529Y514794D01*
X525531Y514721D01*
X525548Y514675D01*
X525556Y514626D01*
X525591Y514561D01*
X525617Y514492D01*
X525648Y514454D01*
X525671Y514411D01*
X525725Y514360D01*
X525772Y514304D01*
X525814Y514278D01*
X525849Y514244D01*
X525916Y514213D01*
X525979Y514175D01*
X526027Y514163D01*
X526072Y514143D01*
X526145Y514136D01*
X526216Y514119D01*
X526265Y514124D01*
X526315Y514119D01*
X526386Y514136D01*
X526459Y514143D01*
X526504Y514163D01*
X526552Y514174D01*
X526615Y514213D01*
X526682Y514243D01*
X526738Y514290D01*
X526760Y514303D01*
X526770Y514316D01*
X526796Y514337D01*
X528217Y515758D01*
X531580Y517151D01*
X535220Y517151D01*
X538583Y515758D01*
X541158Y513183D01*
X542551Y509820D01*
X542551Y506180D01*
X541158Y502817D01*
X538583Y500242D01*
X535220Y498849D01*
X531580Y498849D01*
G37*
%LPD*%
%LPC*%
G36*
X506180Y498849D02*
X506180Y498849D01*
X502817Y500242D01*
X500242Y502817D01*
X498849Y506180D01*
X498849Y509820D01*
X500242Y513183D01*
X502817Y515758D01*
X506180Y517151D01*
X509820Y517151D01*
X513183Y515758D01*
X515758Y513183D01*
X517151Y509820D01*
X517151Y506180D01*
X515758Y502817D01*
X513183Y500242D01*
X509820Y498849D01*
X506180Y498849D01*
G37*
%LPD*%
%LPC*%
G36*
X582380Y498849D02*
X582380Y498849D01*
X579017Y500242D01*
X576442Y502817D01*
X575049Y506180D01*
X575049Y509820D01*
X576442Y513183D01*
X579017Y515758D01*
X582380Y517151D01*
X586020Y517151D01*
X589383Y515758D01*
X591958Y513183D01*
X593351Y509820D01*
X593351Y506180D01*
X591958Y502817D01*
X589383Y500242D01*
X586020Y498849D01*
X582380Y498849D01*
G37*
%LPD*%
%LPC*%
G36*
X338540Y498849D02*
X338540Y498849D01*
X335177Y500242D01*
X332602Y502817D01*
X331209Y506180D01*
X331209Y509820D01*
X332602Y513183D01*
X335177Y515758D01*
X338540Y517151D01*
X342180Y517151D01*
X345543Y515758D01*
X348118Y513183D01*
X349511Y509820D01*
X349511Y506180D01*
X348118Y502817D01*
X345543Y500242D01*
X342180Y498849D01*
X338540Y498849D01*
G37*
%LPD*%
%LPC*%
G36*
X455380Y498849D02*
X455380Y498849D01*
X452017Y500242D01*
X449442Y502817D01*
X448049Y506180D01*
X448049Y509820D01*
X449442Y513183D01*
X452017Y515758D01*
X455380Y517151D01*
X459020Y517151D01*
X462383Y515758D01*
X464958Y513183D01*
X466351Y509820D01*
X466351Y506180D01*
X464958Y502817D01*
X462383Y500242D01*
X459020Y498849D01*
X455380Y498849D01*
G37*
%LPD*%
%LPC*%
G36*
X414740Y498849D02*
X414740Y498849D01*
X411377Y500242D01*
X408802Y502817D01*
X407409Y506180D01*
X407409Y509820D01*
X408802Y513183D01*
X411377Y515758D01*
X414740Y517151D01*
X418380Y517151D01*
X421743Y515758D01*
X424318Y513183D01*
X425711Y509820D01*
X425711Y506180D01*
X424318Y502817D01*
X421743Y500242D01*
X418380Y498849D01*
X414740Y498849D01*
G37*
%LPD*%
%LPC*%
G36*
X480780Y498849D02*
X480780Y498849D01*
X477417Y500242D01*
X474842Y502817D01*
X473449Y506180D01*
X473449Y509820D01*
X474842Y513183D01*
X477417Y515758D01*
X480780Y517151D01*
X484420Y517151D01*
X487783Y515758D01*
X490358Y513183D01*
X491751Y509820D01*
X491751Y506180D01*
X490358Y502817D01*
X487783Y500242D01*
X484420Y498849D01*
X480780Y498849D01*
G37*
%LPD*%
%LPC*%
G36*
X556980Y498849D02*
X556980Y498849D01*
X553617Y500242D01*
X551042Y502817D01*
X549649Y506180D01*
X549649Y509820D01*
X551042Y513183D01*
X553617Y515758D01*
X556980Y517151D01*
X560620Y517151D01*
X563983Y515758D01*
X566558Y513183D01*
X567951Y509820D01*
X567951Y506180D01*
X566558Y502817D01*
X563983Y500242D01*
X560620Y498849D01*
X556980Y498849D01*
G37*
%LPD*%
%LPC*%
G36*
X389340Y498849D02*
X389340Y498849D01*
X385977Y500242D01*
X383402Y502817D01*
X382009Y506180D01*
X382009Y509820D01*
X383402Y513183D01*
X385977Y515758D01*
X389340Y517151D01*
X392980Y517151D01*
X396343Y515758D01*
X398918Y513183D01*
X400311Y509820D01*
X400311Y506180D01*
X398918Y502817D01*
X396343Y500242D01*
X392980Y498849D01*
X389340Y498849D01*
G37*
%LPD*%
%LPC*%
G36*
X363940Y498849D02*
X363940Y498849D01*
X360577Y500242D01*
X358002Y502817D01*
X356609Y506180D01*
X356609Y509820D01*
X358002Y513183D01*
X360577Y515758D01*
X363940Y517151D01*
X367580Y517151D01*
X370943Y515758D01*
X373518Y513183D01*
X374911Y509820D01*
X374911Y506180D01*
X373518Y502817D01*
X370943Y500242D01*
X367580Y498849D01*
X363940Y498849D01*
G37*
%LPD*%
%LPC*%
G36*
X582380Y473449D02*
X582380Y473449D01*
X579017Y474842D01*
X576442Y477417D01*
X575049Y480780D01*
X575049Y484420D01*
X576442Y487783D01*
X579017Y490358D01*
X582380Y491751D01*
X586020Y491751D01*
X589383Y490358D01*
X591958Y487783D01*
X593351Y484420D01*
X593351Y480780D01*
X591958Y477417D01*
X589383Y474842D01*
X586020Y473449D01*
X582380Y473449D01*
G37*
%LPD*%
%LPC*%
G36*
X315680Y460749D02*
X315680Y460749D01*
X312317Y462142D01*
X309742Y464717D01*
X308349Y468080D01*
X308349Y471720D01*
X309742Y475083D01*
X312317Y477658D01*
X315680Y479051D01*
X319320Y479051D01*
X322683Y477658D01*
X325258Y475083D01*
X326651Y471720D01*
X326651Y468080D01*
X325258Y464717D01*
X322683Y462142D01*
X319320Y460749D01*
X315680Y460749D01*
G37*
%LPD*%
%LPC*%
G36*
X366480Y460749D02*
X366480Y460749D01*
X363117Y462142D01*
X360542Y464717D01*
X359149Y468080D01*
X359149Y471720D01*
X360542Y475083D01*
X363117Y477658D01*
X366480Y479051D01*
X370120Y479051D01*
X373483Y477658D01*
X376058Y475083D01*
X377451Y471720D01*
X377451Y468080D01*
X376058Y464717D01*
X373483Y462142D01*
X370120Y460749D01*
X366480Y460749D01*
G37*
%LPD*%
%LPC*%
G36*
X277580Y244849D02*
X277580Y244849D01*
X274217Y246242D01*
X271642Y248817D01*
X270249Y252180D01*
X270249Y255820D01*
X271642Y259183D01*
X274217Y261758D01*
X277580Y263151D01*
X281220Y263151D01*
X284583Y261758D01*
X287158Y259183D01*
X288551Y255820D01*
X288551Y252180D01*
X287158Y248817D01*
X284583Y246242D01*
X281220Y244849D01*
X277580Y244849D01*
G37*
%LPD*%
%LPC*%
G36*
X328380Y270249D02*
X328380Y270249D01*
X325017Y271642D01*
X322442Y274217D01*
X321049Y277580D01*
X321049Y281220D01*
X322442Y284583D01*
X325017Y287158D01*
X328380Y288551D01*
X332020Y288551D01*
X335383Y287158D01*
X337958Y284583D01*
X339351Y281220D01*
X339351Y277580D01*
X337958Y274217D01*
X335383Y271642D01*
X332020Y270249D01*
X328380Y270249D01*
G37*
%LPD*%
%LPC*%
G36*
X328380Y295649D02*
X328380Y295649D01*
X325017Y297042D01*
X322442Y299617D01*
X321049Y302980D01*
X321049Y306620D01*
X322442Y309983D01*
X325017Y312558D01*
X328380Y313951D01*
X332020Y313951D01*
X335383Y312558D01*
X337958Y309983D01*
X339351Y306620D01*
X339351Y302980D01*
X337958Y299617D01*
X335383Y297042D01*
X332020Y295649D01*
X328380Y295649D01*
G37*
%LPD*%
%LPC*%
G36*
X328380Y219449D02*
X328380Y219449D01*
X325017Y220842D01*
X322442Y223417D01*
X321049Y226780D01*
X321049Y230420D01*
X322442Y233783D01*
X325017Y236358D01*
X328380Y237751D01*
X332020Y237751D01*
X335383Y236358D01*
X337958Y233783D01*
X339351Y230420D01*
X339351Y226780D01*
X337958Y223417D01*
X335383Y220842D01*
X332020Y219449D01*
X328380Y219449D01*
G37*
%LPD*%
%LPC*%
G36*
X328380Y244849D02*
X328380Y244849D01*
X325017Y246242D01*
X322442Y248817D01*
X321049Y252180D01*
X321049Y255820D01*
X322442Y259183D01*
X325017Y261758D01*
X328380Y263151D01*
X332020Y263151D01*
X335383Y261758D01*
X337958Y259183D01*
X339351Y255820D01*
X339351Y252180D01*
X337958Y248817D01*
X335383Y246242D01*
X332020Y244849D01*
X328380Y244849D01*
G37*
%LPD*%
%LPC*%
G36*
X432526Y143279D02*
X432526Y143279D01*
X429174Y144668D01*
X426608Y147234D01*
X425219Y150586D01*
X425219Y154214D01*
X426608Y157566D01*
X429174Y160132D01*
X432526Y161521D01*
X436154Y161521D01*
X439506Y160132D01*
X442072Y157566D01*
X443461Y154214D01*
X443461Y150586D01*
X442072Y147234D01*
X439506Y144668D01*
X436154Y143279D01*
X432526Y143279D01*
G37*
%LPD*%
%LPC*%
G36*
X304710Y267199D02*
X304710Y267199D01*
X301402Y268570D01*
X298870Y271102D01*
X297499Y274410D01*
X297499Y277990D01*
X298870Y281298D01*
X301402Y283830D01*
X304710Y285201D01*
X308290Y285201D01*
X311598Y283830D01*
X314130Y281298D01*
X315501Y277990D01*
X315501Y274410D01*
X314130Y271102D01*
X311598Y268570D01*
X308290Y267199D01*
X304710Y267199D01*
G37*
%LPD*%
%LPC*%
G36*
X378343Y263783D02*
X378343Y263783D01*
X376283Y265843D01*
X376283Y267323D01*
X376267Y267420D01*
X376258Y267517D01*
X376248Y267539D01*
X376244Y267564D01*
X376198Y267650D01*
X376157Y267739D01*
X376136Y267765D01*
X376129Y267779D01*
X376110Y267796D01*
X376064Y267853D01*
X370449Y273468D01*
X370449Y277167D01*
X370433Y277263D01*
X370424Y277360D01*
X370414Y277383D01*
X370410Y277408D01*
X370364Y277494D01*
X370323Y277583D01*
X370302Y277608D01*
X370295Y277623D01*
X370276Y277640D01*
X370230Y277697D01*
X369183Y278743D01*
X369183Y281657D01*
X371243Y283717D01*
X373401Y283717D01*
X373474Y283729D01*
X373547Y283731D01*
X373593Y283748D01*
X373642Y283756D01*
X373707Y283791D01*
X373775Y283817D01*
X373814Y283848D01*
X373857Y283871D01*
X373907Y283925D01*
X373964Y283972D01*
X373990Y284014D01*
X374024Y284049D01*
X374054Y284116D01*
X374093Y284179D01*
X374104Y284227D01*
X374125Y284272D01*
X374132Y284345D01*
X374149Y284416D01*
X374144Y284465D01*
X374149Y284515D01*
X374132Y284586D01*
X374125Y284659D01*
X374105Y284704D01*
X374093Y284752D01*
X374055Y284815D01*
X374024Y284882D01*
X373978Y284938D01*
X373965Y284960D01*
X373952Y284970D01*
X373931Y284996D01*
X373183Y285743D01*
X373183Y288657D01*
X375243Y290717D01*
X378157Y290717D01*
X380217Y288657D01*
X380217Y285743D01*
X378157Y283683D01*
X375999Y283683D01*
X375926Y283671D01*
X375853Y283669D01*
X375807Y283652D01*
X375758Y283644D01*
X375693Y283609D01*
X375625Y283583D01*
X375586Y283552D01*
X375543Y283529D01*
X375493Y283475D01*
X375436Y283428D01*
X375410Y283386D01*
X375376Y283351D01*
X375346Y283284D01*
X375307Y283221D01*
X375296Y283173D01*
X375275Y283128D01*
X375268Y283055D01*
X375251Y282984D01*
X375256Y282935D01*
X375251Y282885D01*
X375268Y282814D01*
X375275Y282741D01*
X375295Y282696D01*
X375307Y282648D01*
X375345Y282585D01*
X375376Y282518D01*
X375422Y282462D01*
X375435Y282440D01*
X375448Y282430D01*
X375469Y282404D01*
X376217Y281657D01*
X376217Y278743D01*
X375170Y277697D01*
X375113Y277617D01*
X375051Y277542D01*
X375043Y277519D01*
X375028Y277498D01*
X375000Y277405D01*
X374965Y277314D01*
X374962Y277281D01*
X374957Y277265D01*
X374958Y277240D01*
X374951Y277167D01*
X374951Y275643D01*
X374967Y275546D01*
X374976Y275449D01*
X374986Y275427D01*
X374990Y275402D01*
X375036Y275316D01*
X375077Y275227D01*
X375098Y275201D01*
X375105Y275187D01*
X375124Y275170D01*
X375170Y275113D01*
X379247Y271036D01*
X379326Y270979D01*
X379401Y270917D01*
X379425Y270909D01*
X379445Y270894D01*
X379539Y270866D01*
X379630Y270831D01*
X379663Y270828D01*
X379679Y270823D01*
X379704Y270824D01*
X379777Y270817D01*
X381257Y270817D01*
X383317Y268757D01*
X383317Y265843D01*
X381257Y263783D01*
X378343Y263783D01*
G37*
%LPD*%
%LPC*%
G36*
X301964Y481062D02*
X301964Y481062D01*
X299904Y483122D01*
X299904Y486036D01*
X301964Y488096D01*
X304531Y488096D01*
X304555Y488100D01*
X304580Y488097D01*
X304675Y488119D01*
X304772Y488135D01*
X304793Y488147D01*
X304817Y488152D01*
X304901Y488204D01*
X304987Y488250D01*
X305004Y488268D01*
X305025Y488281D01*
X305087Y488357D01*
X305154Y488428D01*
X305164Y488451D01*
X305180Y488470D01*
X305214Y488561D01*
X305255Y488651D01*
X305257Y488675D01*
X305266Y488698D01*
X305280Y488845D01*
X305280Y491343D01*
X307340Y493403D01*
X310254Y493403D01*
X312314Y491343D01*
X312314Y489266D01*
X312318Y489242D01*
X312315Y489217D01*
X312338Y489122D01*
X312353Y489025D01*
X312365Y489004D01*
X312371Y488980D01*
X312422Y488896D01*
X312468Y488810D01*
X312486Y488793D01*
X312499Y488772D01*
X312575Y488710D01*
X312647Y488643D01*
X312669Y488633D01*
X312688Y488617D01*
X312779Y488583D01*
X312869Y488542D01*
X312893Y488540D01*
X312916Y488531D01*
X313063Y488517D01*
X313191Y488517D01*
X315251Y486457D01*
X315251Y483543D01*
X313191Y481483D01*
X310277Y481483D01*
X308217Y483544D01*
X308157Y483586D01*
X308104Y483637D01*
X308059Y483657D01*
X308019Y483686D01*
X307948Y483707D01*
X307881Y483738D01*
X307832Y483742D01*
X307785Y483757D01*
X307712Y483754D01*
X307639Y483762D01*
X307590Y483750D01*
X307541Y483749D01*
X307472Y483723D01*
X307401Y483706D01*
X307359Y483680D01*
X307313Y483663D01*
X307256Y483616D01*
X307194Y483578D01*
X307162Y483540D01*
X307124Y483508D01*
X307085Y483446D01*
X307039Y483389D01*
X307021Y483343D01*
X306995Y483301D01*
X306978Y483230D01*
X306952Y483161D01*
X306950Y483134D01*
X304878Y481062D01*
X301964Y481062D01*
G37*
%LPD*%
%LPC*%
G36*
X202756Y423949D02*
X202756Y423949D01*
X200826Y424749D01*
X199349Y426226D01*
X198549Y428156D01*
X198549Y430244D01*
X199349Y432174D01*
X200826Y433651D01*
X202756Y434451D01*
X204844Y434451D01*
X206774Y433651D01*
X208251Y432174D01*
X209051Y430244D01*
X209051Y428156D01*
X208251Y426226D01*
X206774Y424749D01*
X204844Y423949D01*
X202756Y423949D01*
G37*
%LPD*%
%LPC*%
G36*
X228056Y422949D02*
X228056Y422949D01*
X226126Y423749D01*
X224649Y425226D01*
X223849Y427156D01*
X223849Y429244D01*
X224649Y431174D01*
X226126Y432651D01*
X228056Y433451D01*
X230144Y433451D01*
X232074Y432651D01*
X233551Y431174D01*
X234351Y429244D01*
X234351Y427156D01*
X233551Y425226D01*
X232074Y423749D01*
X230144Y422949D01*
X228056Y422949D01*
G37*
%LPD*%
%LPC*%
G36*
X352560Y481500D02*
X352560Y481500D01*
X350546Y483513D01*
X350526Y483528D01*
X350511Y483547D01*
X350428Y483598D01*
X350348Y483655D01*
X350325Y483663D01*
X350304Y483676D01*
X350208Y483698D01*
X350115Y483726D01*
X350090Y483726D01*
X350066Y483731D01*
X349969Y483722D01*
X349871Y483718D01*
X349848Y483710D01*
X349823Y483707D01*
X349734Y483667D01*
X349642Y483633D01*
X349623Y483617D01*
X349601Y483607D01*
X349487Y483513D01*
X348457Y482483D01*
X345543Y482483D01*
X343483Y484543D01*
X343483Y487457D01*
X345543Y489517D01*
X348457Y489517D01*
X350470Y487503D01*
X350490Y487489D01*
X350506Y487470D01*
X350589Y487418D01*
X350669Y487361D01*
X350692Y487354D01*
X350713Y487341D01*
X350808Y487319D01*
X350902Y487290D01*
X350927Y487291D01*
X350950Y487285D01*
X351048Y487295D01*
X351146Y487298D01*
X351169Y487307D01*
X351193Y487309D01*
X351283Y487349D01*
X351374Y487384D01*
X351393Y487399D01*
X351416Y487410D01*
X351530Y487503D01*
X352560Y488533D01*
X355473Y488533D01*
X357533Y486473D01*
X357533Y483560D01*
X355473Y481500D01*
X352560Y481500D01*
G37*
%LPD*%
%LPC*%
G36*
X385027Y217551D02*
X385027Y217551D01*
X382967Y219611D01*
X382967Y222525D01*
X383055Y222612D01*
X383069Y222632D01*
X383088Y222648D01*
X383140Y222731D01*
X383197Y222810D01*
X383204Y222834D01*
X383217Y222855D01*
X383239Y222950D01*
X383268Y223044D01*
X383267Y223068D01*
X383273Y223092D01*
X383263Y223190D01*
X383260Y223288D01*
X383251Y223311D01*
X383249Y223335D01*
X383209Y223425D01*
X383174Y223516D01*
X383159Y223535D01*
X383148Y223558D01*
X383055Y223672D01*
X381583Y225143D01*
X381583Y228057D01*
X383643Y230117D01*
X386557Y230117D01*
X388617Y228057D01*
X388617Y225143D01*
X388529Y225056D01*
X388515Y225036D01*
X388496Y225020D01*
X388444Y224937D01*
X388387Y224857D01*
X388380Y224834D01*
X388367Y224813D01*
X388345Y224718D01*
X388316Y224624D01*
X388317Y224599D01*
X388311Y224576D01*
X388321Y224478D01*
X388324Y224380D01*
X388333Y224357D01*
X388335Y224333D01*
X388375Y224243D01*
X388410Y224152D01*
X388425Y224133D01*
X388436Y224110D01*
X388529Y223996D01*
X390001Y222525D01*
X390001Y219611D01*
X387941Y217551D01*
X385027Y217551D01*
G37*
%LPD*%
%LPC*%
G36*
X331755Y486749D02*
X331755Y486749D01*
X329695Y488809D01*
X329695Y490734D01*
X329691Y490758D01*
X329693Y490783D01*
X329671Y490878D01*
X329655Y490975D01*
X329644Y490996D01*
X329638Y491020D01*
X329586Y491104D01*
X329540Y491190D01*
X329522Y491207D01*
X329509Y491228D01*
X329434Y491290D01*
X329362Y491357D01*
X329340Y491367D01*
X329321Y491383D01*
X329229Y491417D01*
X329140Y491458D01*
X329116Y491460D01*
X329093Y491469D01*
X328946Y491483D01*
X328543Y491483D01*
X326483Y493543D01*
X326483Y496457D01*
X328543Y498517D01*
X331457Y498517D01*
X333517Y496457D01*
X333517Y494532D01*
X333519Y494518D01*
X333518Y494510D01*
X333520Y494502D01*
X333518Y494483D01*
X333540Y494388D01*
X333556Y494291D01*
X333568Y494270D01*
X333574Y494246D01*
X333625Y494162D01*
X333671Y494076D01*
X333689Y494059D01*
X333702Y494038D01*
X333778Y493976D01*
X333849Y493909D01*
X333872Y493899D01*
X333891Y493883D01*
X333982Y493849D01*
X334072Y493808D01*
X334096Y493806D01*
X334119Y493797D01*
X334266Y493783D01*
X334668Y493783D01*
X336728Y491723D01*
X336728Y488809D01*
X334668Y486749D01*
X331755Y486749D01*
G37*
%LPD*%
%LPC*%
G36*
X382186Y275233D02*
X382186Y275233D01*
X379833Y277586D01*
X379833Y280914D01*
X382186Y283267D01*
X385514Y283267D01*
X387867Y280914D01*
X387867Y277586D01*
X385514Y275233D01*
X382186Y275233D01*
G37*
%LPD*%
%LPC*%
G36*
X354536Y317583D02*
X354536Y317583D01*
X352183Y319936D01*
X352183Y323264D01*
X354536Y325617D01*
X357864Y325617D01*
X360217Y323264D01*
X360217Y319936D01*
X357864Y317583D01*
X354536Y317583D01*
G37*
%LPD*%
%LPC*%
G36*
X373736Y443183D02*
X373736Y443183D01*
X371383Y445536D01*
X371383Y448864D01*
X373736Y451217D01*
X377064Y451217D01*
X379417Y448864D01*
X379417Y445536D01*
X377064Y443183D01*
X373736Y443183D01*
G37*
%LPD*%
%LPC*%
G36*
X332736Y367183D02*
X332736Y367183D01*
X330383Y369536D01*
X330383Y372864D01*
X332736Y375217D01*
X336064Y375217D01*
X338417Y372864D01*
X338417Y369536D01*
X336064Y367183D01*
X332736Y367183D01*
G37*
%LPD*%
%LPC*%
G36*
X382320Y288783D02*
X382320Y288783D01*
X379967Y291136D01*
X379967Y294464D01*
X382320Y296817D01*
X385648Y296817D01*
X388001Y294464D01*
X388001Y291136D01*
X385648Y288783D01*
X382320Y288783D01*
G37*
%LPD*%
%LPC*%
G36*
X203243Y471383D02*
X203243Y471383D01*
X201183Y473443D01*
X201183Y476357D01*
X203243Y478417D01*
X206157Y478417D01*
X208217Y476357D01*
X208217Y473443D01*
X206157Y471383D01*
X203243Y471383D01*
G37*
%LPD*%
%LPC*%
G36*
X214743Y446383D02*
X214743Y446383D01*
X212683Y448443D01*
X212683Y451357D01*
X214743Y453417D01*
X217657Y453417D01*
X219717Y451357D01*
X219717Y448443D01*
X217657Y446383D01*
X214743Y446383D01*
G37*
%LPD*%
%LPC*%
G36*
X224343Y471283D02*
X224343Y471283D01*
X222283Y473343D01*
X222283Y476257D01*
X224343Y478317D01*
X227257Y478317D01*
X229317Y476257D01*
X229317Y473343D01*
X227257Y471283D01*
X224343Y471283D01*
G37*
%LPD*%
%LPC*%
G36*
X350543Y133483D02*
X350543Y133483D01*
X348483Y135543D01*
X348483Y138457D01*
X350543Y140517D01*
X353457Y140517D01*
X355517Y138457D01*
X355517Y135543D01*
X353457Y133483D01*
X350543Y133483D01*
G37*
%LPD*%
%LPC*%
G36*
X378443Y112183D02*
X378443Y112183D01*
X376383Y114243D01*
X376383Y117157D01*
X378443Y119217D01*
X381357Y119217D01*
X383417Y117157D01*
X383417Y114243D01*
X381357Y112183D01*
X378443Y112183D01*
G37*
%LPD*%
%LPC*%
G36*
X414543Y104683D02*
X414543Y104683D01*
X412483Y106743D01*
X412483Y109657D01*
X414543Y111717D01*
X417457Y111717D01*
X419517Y109657D01*
X419517Y106743D01*
X417457Y104683D01*
X414543Y104683D01*
G37*
%LPD*%
%LPC*%
G36*
X513143Y92183D02*
X513143Y92183D01*
X511083Y94243D01*
X511083Y97157D01*
X513143Y99217D01*
X516057Y99217D01*
X518117Y97157D01*
X518117Y94243D01*
X516057Y92183D01*
X513143Y92183D01*
G37*
%LPD*%
%LPC*%
G36*
X509543Y69983D02*
X509543Y69983D01*
X507483Y72043D01*
X507483Y74957D01*
X509543Y77017D01*
X512457Y77017D01*
X514517Y74957D01*
X514517Y72043D01*
X512457Y69983D01*
X509543Y69983D01*
G37*
%LPD*%
%LPC*%
G36*
X308943Y441083D02*
X308943Y441083D01*
X306883Y443143D01*
X306883Y446057D01*
X308943Y448117D01*
X311857Y448117D01*
X313917Y446057D01*
X313917Y443143D01*
X311857Y441083D01*
X308943Y441083D01*
G37*
%LPD*%
%LPC*%
G36*
X326343Y406783D02*
X326343Y406783D01*
X324283Y408843D01*
X324283Y411757D01*
X326343Y413817D01*
X329257Y413817D01*
X331317Y411757D01*
X331317Y408843D01*
X329257Y406783D01*
X326343Y406783D01*
G37*
%LPD*%
%LPC*%
G36*
X364543Y406683D02*
X364543Y406683D01*
X362483Y408743D01*
X362483Y411657D01*
X364543Y413717D01*
X367457Y413717D01*
X369517Y411657D01*
X369517Y408743D01*
X367457Y406683D01*
X364543Y406683D01*
G37*
%LPD*%
%LPC*%
G36*
X452643Y406583D02*
X452643Y406583D01*
X450583Y408643D01*
X450583Y411557D01*
X452643Y413617D01*
X455557Y413617D01*
X457617Y411557D01*
X457617Y408643D01*
X455557Y406583D01*
X452643Y406583D01*
G37*
%LPD*%
%LPC*%
G36*
X452643Y396783D02*
X452643Y396783D01*
X450583Y398843D01*
X450583Y401757D01*
X452643Y403817D01*
X455557Y403817D01*
X457617Y401757D01*
X457617Y398843D01*
X455557Y396783D01*
X452643Y396783D01*
G37*
%LPD*%
%LPC*%
G36*
X357943Y390883D02*
X357943Y390883D01*
X355883Y392943D01*
X355883Y395857D01*
X357943Y397917D01*
X360857Y397917D01*
X362917Y395857D01*
X362917Y392943D01*
X360857Y390883D01*
X357943Y390883D01*
G37*
%LPD*%
%LPC*%
G36*
X377143Y378649D02*
X377143Y378649D01*
X375083Y380709D01*
X375083Y383623D01*
X377143Y385683D01*
X380057Y385683D01*
X382117Y383623D01*
X382117Y380709D01*
X380057Y378649D01*
X377143Y378649D01*
G37*
%LPD*%
%LPC*%
G36*
X447843Y376383D02*
X447843Y376383D01*
X445783Y378443D01*
X445783Y381357D01*
X447843Y383417D01*
X450757Y383417D01*
X452817Y381357D01*
X452817Y378443D01*
X450757Y376383D01*
X447843Y376383D01*
G37*
%LPD*%
%LPC*%
G36*
X447843Y366583D02*
X447843Y366583D01*
X445783Y368643D01*
X445783Y371557D01*
X447843Y373617D01*
X450757Y373617D01*
X452817Y371557D01*
X452817Y368643D01*
X450757Y366583D01*
X447843Y366583D01*
G37*
%LPD*%
%LPC*%
G36*
X385027Y304200D02*
X385027Y304200D01*
X382967Y306260D01*
X382967Y309174D01*
X385027Y311234D01*
X387941Y311234D01*
X390001Y309174D01*
X390001Y306260D01*
X387941Y304200D01*
X385027Y304200D01*
G37*
%LPD*%
%LPC*%
G36*
X448043Y386583D02*
X448043Y386583D01*
X445983Y388643D01*
X445983Y391557D01*
X448043Y393617D01*
X450957Y393617D01*
X453017Y391557D01*
X453017Y388643D01*
X450957Y386583D01*
X448043Y386583D01*
G37*
%LPD*%
%LPC*%
G36*
X402727Y265949D02*
X402727Y265949D01*
X400667Y268009D01*
X400667Y270923D01*
X402727Y272983D01*
X405641Y272983D01*
X407701Y270923D01*
X407701Y268009D01*
X405641Y265949D01*
X402727Y265949D01*
G37*
%LPD*%
%LPC*%
G36*
X407143Y243783D02*
X407143Y243783D01*
X405083Y245843D01*
X405083Y248757D01*
X407143Y250817D01*
X410057Y250817D01*
X412117Y248757D01*
X412117Y245843D01*
X410057Y243783D01*
X407143Y243783D01*
G37*
%LPD*%
%LPC*%
G36*
X369443Y243483D02*
X369443Y243483D01*
X367383Y245543D01*
X367383Y248457D01*
X369443Y250517D01*
X372357Y250517D01*
X374417Y248457D01*
X374417Y245543D01*
X372357Y243483D01*
X369443Y243483D01*
G37*
%LPD*%
%LPC*%
G36*
X364243Y210683D02*
X364243Y210683D01*
X362183Y212743D01*
X362183Y215657D01*
X364243Y217717D01*
X367157Y217717D01*
X369217Y215657D01*
X369217Y212743D01*
X367157Y210683D01*
X364243Y210683D01*
G37*
%LPD*%
%LPC*%
G36*
X350543Y207583D02*
X350543Y207583D01*
X348483Y209643D01*
X348483Y212557D01*
X350543Y214617D01*
X353457Y214617D01*
X355517Y212557D01*
X355517Y209643D01*
X353457Y207583D01*
X350543Y207583D01*
G37*
%LPD*%
%LPC*%
G36*
X422543Y193783D02*
X422543Y193783D01*
X420483Y195843D01*
X420483Y198757D01*
X422543Y200817D01*
X425457Y200817D01*
X427517Y198757D01*
X427517Y195843D01*
X425457Y193783D01*
X422543Y193783D01*
G37*
%LPD*%
%LPC*%
G36*
X436793Y188333D02*
X436793Y188333D01*
X434733Y190393D01*
X434733Y193307D01*
X436793Y195367D01*
X439707Y195367D01*
X441767Y193307D01*
X441767Y190393D01*
X439707Y188333D01*
X436793Y188333D01*
G37*
%LPD*%
%LPC*%
G36*
X380543Y173483D02*
X380543Y173483D01*
X378483Y175543D01*
X378483Y178457D01*
X380543Y180517D01*
X383457Y180517D01*
X385517Y178457D01*
X385517Y175543D01*
X383457Y173483D01*
X380543Y173483D01*
G37*
%LPD*%
%LPC*%
G36*
X360543Y173483D02*
X360543Y173483D01*
X358483Y175543D01*
X358483Y178457D01*
X360543Y180517D01*
X363457Y180517D01*
X365517Y178457D01*
X365517Y175543D01*
X363457Y173483D01*
X360543Y173483D01*
G37*
%LPD*%
%LPC*%
G36*
X350543Y173483D02*
X350543Y173483D01*
X348483Y175543D01*
X348483Y178457D01*
X350543Y180517D01*
X353457Y180517D01*
X355517Y178457D01*
X355517Y175543D01*
X353457Y173483D01*
X350543Y173483D01*
G37*
%LPD*%
%LPC*%
G36*
X370543Y173483D02*
X370543Y173483D01*
X368483Y175543D01*
X368483Y178457D01*
X370543Y180517D01*
X373457Y180517D01*
X375517Y178457D01*
X375517Y175543D01*
X373457Y173483D01*
X370543Y173483D01*
G37*
%LPD*%
%LPC*%
G36*
X390543Y173483D02*
X390543Y173483D01*
X388483Y175543D01*
X388483Y178457D01*
X390543Y180517D01*
X393457Y180517D01*
X395517Y178457D01*
X395517Y175543D01*
X393457Y173483D01*
X390543Y173483D01*
G37*
%LPD*%
%LPC*%
G36*
X429743Y165183D02*
X429743Y165183D01*
X427683Y167243D01*
X427683Y170157D01*
X429743Y172217D01*
X432657Y172217D01*
X434717Y170157D01*
X434717Y167243D01*
X432657Y165183D01*
X429743Y165183D01*
G37*
%LPD*%
%LPC*%
G36*
X350543Y163483D02*
X350543Y163483D01*
X348483Y165543D01*
X348483Y168457D01*
X350543Y170517D01*
X353457Y170517D01*
X355517Y168457D01*
X355517Y165543D01*
X353457Y163483D01*
X350543Y163483D01*
G37*
%LPD*%
%LPC*%
G36*
X390543Y163483D02*
X390543Y163483D01*
X388483Y165543D01*
X388483Y168457D01*
X390543Y170517D01*
X393457Y170517D01*
X395517Y168457D01*
X395517Y165543D01*
X393457Y163483D01*
X390543Y163483D01*
G37*
%LPD*%
%LPC*%
G36*
X380543Y163483D02*
X380543Y163483D01*
X378483Y165543D01*
X378483Y168457D01*
X380543Y170517D01*
X383457Y170517D01*
X385517Y168457D01*
X385517Y165543D01*
X383457Y163483D01*
X380543Y163483D01*
G37*
%LPD*%
%LPC*%
G36*
X370543Y163483D02*
X370543Y163483D01*
X368483Y165543D01*
X368483Y168457D01*
X370543Y170517D01*
X373457Y170517D01*
X375517Y168457D01*
X375517Y165543D01*
X373457Y163483D01*
X370543Y163483D01*
G37*
%LPD*%
%LPC*%
G36*
X360543Y163483D02*
X360543Y163483D01*
X358483Y165543D01*
X358483Y168457D01*
X360543Y170517D01*
X363457Y170517D01*
X365517Y168457D01*
X365517Y165543D01*
X363457Y163483D01*
X360543Y163483D01*
G37*
%LPD*%
%LPC*%
G36*
X408443Y155383D02*
X408443Y155383D01*
X406383Y157443D01*
X406383Y160357D01*
X408443Y162417D01*
X411357Y162417D01*
X413417Y160357D01*
X413417Y157443D01*
X411357Y155383D01*
X408443Y155383D01*
G37*
%LPD*%
%LPC*%
G36*
X390543Y153483D02*
X390543Y153483D01*
X388483Y155543D01*
X388483Y158457D01*
X390543Y160517D01*
X393457Y160517D01*
X395517Y158457D01*
X395517Y155543D01*
X393457Y153483D01*
X390543Y153483D01*
G37*
%LPD*%
%LPC*%
G36*
X380543Y153483D02*
X380543Y153483D01*
X378483Y155543D01*
X378483Y158457D01*
X380543Y160517D01*
X383457Y160517D01*
X385517Y158457D01*
X385517Y155543D01*
X383457Y153483D01*
X380543Y153483D01*
G37*
%LPD*%
%LPC*%
G36*
X370543Y153483D02*
X370543Y153483D01*
X368483Y155543D01*
X368483Y158457D01*
X370543Y160517D01*
X373457Y160517D01*
X375517Y158457D01*
X375517Y155543D01*
X373457Y153483D01*
X370543Y153483D01*
G37*
%LPD*%
%LPC*%
G36*
X350543Y153483D02*
X350543Y153483D01*
X348483Y155543D01*
X348483Y158457D01*
X350543Y160517D01*
X353457Y160517D01*
X355517Y158457D01*
X355517Y155543D01*
X353457Y153483D01*
X350543Y153483D01*
G37*
%LPD*%
%LPC*%
G36*
X360543Y153483D02*
X360543Y153483D01*
X358483Y155543D01*
X358483Y158457D01*
X360543Y160517D01*
X363457Y160517D01*
X365517Y158457D01*
X365517Y155543D01*
X363457Y153483D01*
X360543Y153483D01*
G37*
%LPD*%
%LPC*%
G36*
X360543Y143483D02*
X360543Y143483D01*
X358483Y145543D01*
X358483Y148457D01*
X360543Y150517D01*
X363457Y150517D01*
X365517Y148457D01*
X365517Y145543D01*
X363457Y143483D01*
X360543Y143483D01*
G37*
%LPD*%
%LPC*%
G36*
X370543Y143483D02*
X370543Y143483D01*
X368483Y145543D01*
X368483Y148457D01*
X370543Y150517D01*
X373457Y150517D01*
X375517Y148457D01*
X375517Y145543D01*
X373457Y143483D01*
X370543Y143483D01*
G37*
%LPD*%
%LPC*%
G36*
X390543Y143483D02*
X390543Y143483D01*
X388483Y145543D01*
X388483Y148457D01*
X390543Y150517D01*
X393457Y150517D01*
X395517Y148457D01*
X395517Y145543D01*
X393457Y143483D01*
X390543Y143483D01*
G37*
%LPD*%
%LPC*%
G36*
X380543Y143483D02*
X380543Y143483D01*
X378483Y145543D01*
X378483Y148457D01*
X380543Y150517D01*
X383457Y150517D01*
X385517Y148457D01*
X385517Y145543D01*
X383457Y143483D01*
X380543Y143483D01*
G37*
%LPD*%
%LPC*%
G36*
X350543Y143483D02*
X350543Y143483D01*
X348483Y145543D01*
X348483Y148457D01*
X350543Y150517D01*
X353457Y150517D01*
X355517Y148457D01*
X355517Y145543D01*
X353457Y143483D01*
X350543Y143483D01*
G37*
%LPD*%
%LPC*%
G36*
X390543Y133483D02*
X390543Y133483D01*
X388483Y135543D01*
X388483Y138457D01*
X390543Y140517D01*
X393457Y140517D01*
X395517Y138457D01*
X395517Y135543D01*
X393457Y133483D01*
X390543Y133483D01*
G37*
%LPD*%
%LPC*%
G36*
X380543Y133483D02*
X380543Y133483D01*
X378483Y135543D01*
X378483Y138457D01*
X380543Y140517D01*
X383457Y140517D01*
X385517Y138457D01*
X385517Y135543D01*
X383457Y133483D01*
X380543Y133483D01*
G37*
%LPD*%
%LPC*%
G36*
X370543Y133483D02*
X370543Y133483D01*
X368483Y135543D01*
X368483Y138457D01*
X370543Y140517D01*
X373457Y140517D01*
X375517Y138457D01*
X375517Y135543D01*
X373457Y133483D01*
X370543Y133483D01*
G37*
%LPD*%
%LPC*%
G36*
X360543Y133483D02*
X360543Y133483D01*
X358483Y135543D01*
X358483Y138457D01*
X360543Y140517D01*
X363457Y140517D01*
X365517Y138457D01*
X365517Y135543D01*
X363457Y133483D01*
X360543Y133483D01*
G37*
%LPD*%
%LPC*%
G36*
X581598Y448622D02*
X581598Y448622D01*
X579974Y449295D01*
X578513Y450271D01*
X577662Y451122D01*
X577602Y451165D01*
X577548Y451215D01*
X577504Y451236D01*
X577463Y451265D01*
X577393Y451286D01*
X577326Y451316D01*
X577284Y451320D01*
X577270Y451380D01*
X577263Y451453D01*
X577243Y451498D01*
X577232Y451546D01*
X577163Y451674D01*
X577162Y451676D01*
X576295Y452974D01*
X575622Y454598D01*
X575403Y455701D01*
X582701Y455701D01*
X582701Y448403D01*
X581598Y448622D01*
G37*
%LPD*%
%LPC*%
G36*
X585699Y458699D02*
X585699Y458699D01*
X585699Y465997D01*
X586802Y465778D01*
X588426Y465105D01*
X589887Y464129D01*
X591129Y462887D01*
X592105Y461426D01*
X592778Y459802D01*
X592997Y458699D01*
X585699Y458699D01*
G37*
%LPD*%
%LPC*%
G36*
X230099Y268199D02*
X230099Y268199D01*
X230099Y275497D01*
X231202Y275278D01*
X232826Y274605D01*
X234287Y273629D01*
X235529Y272387D01*
X236505Y270926D01*
X237178Y269302D01*
X237397Y268199D01*
X230099Y268199D01*
G37*
%LPD*%
%LPC*%
G36*
X280899Y280899D02*
X280899Y280899D01*
X280899Y288197D01*
X282002Y287978D01*
X283626Y287305D01*
X285087Y286329D01*
X286329Y285087D01*
X287305Y283626D01*
X287978Y282002D01*
X288197Y280899D01*
X280899Y280899D01*
G37*
%LPD*%
%LPC*%
G36*
X219803Y268199D02*
X219803Y268199D01*
X220022Y269302D01*
X220695Y270926D01*
X221155Y271615D01*
X221156Y271615D01*
X221656Y272364D01*
X221656Y272365D01*
X221671Y272387D01*
X222913Y273629D01*
X224374Y274605D01*
X225998Y275278D01*
X227101Y275497D01*
X227101Y268199D01*
X219803Y268199D01*
G37*
%LPD*%
%LPC*%
G36*
X280899Y277901D02*
X280899Y277901D01*
X288197Y277901D01*
X287978Y276798D01*
X287305Y275174D01*
X286986Y274696D01*
X286485Y273947D01*
X286329Y273713D01*
X285087Y272471D01*
X283626Y271495D01*
X282002Y270822D01*
X280899Y270603D01*
X280899Y277901D01*
G37*
%LPD*%
%LPC*%
G36*
X575403Y458699D02*
X575403Y458699D01*
X575622Y459802D01*
X576295Y461426D01*
X577271Y462887D01*
X578513Y464129D01*
X579974Y465105D01*
X581598Y465778D01*
X582701Y465997D01*
X582701Y458699D01*
X575403Y458699D01*
G37*
%LPD*%
%LPC*%
G36*
X270603Y280899D02*
X270603Y280899D01*
X270822Y282002D01*
X271495Y283626D01*
X271980Y284352D01*
X271980Y284353D01*
X272471Y285087D01*
X273713Y286329D01*
X275174Y287305D01*
X276798Y287978D01*
X277901Y288197D01*
X277901Y280899D01*
X270603Y280899D01*
G37*
%LPD*%
%LPC*%
G36*
X230099Y265201D02*
X230099Y265201D01*
X237397Y265201D01*
X237178Y264098D01*
X236505Y262474D01*
X236161Y261959D01*
X235529Y261013D01*
X234287Y259771D01*
X232826Y258795D01*
X231202Y258122D01*
X230099Y257903D01*
X230099Y265201D01*
G37*
%LPD*%
%LPC*%
G36*
X585699Y455701D02*
X585699Y455701D01*
X592997Y455701D01*
X592778Y454598D01*
X592105Y452974D01*
X591634Y452268D01*
X591133Y451519D01*
X591129Y451513D01*
X589887Y450271D01*
X588426Y449295D01*
X586802Y448622D01*
X585699Y448403D01*
X585699Y455701D01*
G37*
%LPD*%
%LPC*%
G36*
X225998Y258122D02*
X225998Y258122D01*
X224374Y258795D01*
X222913Y259771D01*
X221671Y261013D01*
X220695Y262474D01*
X220022Y264098D01*
X219803Y265201D01*
X227101Y265201D01*
X227101Y257903D01*
X225998Y258122D01*
G37*
%LPD*%
%LPC*%
G36*
X276798Y270822D02*
X276798Y270822D01*
X275174Y271495D01*
X273713Y272471D01*
X272471Y273713D01*
X271495Y275174D01*
X270822Y276798D01*
X270603Y277901D01*
X277901Y277901D01*
X277901Y270603D01*
X276798Y270822D01*
G37*
%LPD*%
%LPC*%
G36*
X281399Y408399D02*
X281399Y408399D01*
X281399Y415098D01*
X282002Y414978D01*
X283626Y414305D01*
X285087Y413329D01*
X286329Y412087D01*
X287305Y410626D01*
X287978Y409002D01*
X288098Y408399D01*
X281399Y408399D01*
G37*
%LPD*%
%LPC*%
G36*
X281399Y404401D02*
X281399Y404401D01*
X288098Y404401D01*
X287978Y403798D01*
X287305Y402174D01*
X286329Y400713D01*
X285087Y399471D01*
X283626Y398495D01*
X282002Y397822D01*
X281399Y397702D01*
X281399Y404401D01*
G37*
%LPD*%
%LPC*%
G36*
X270702Y408399D02*
X270702Y408399D01*
X270822Y409002D01*
X271495Y410626D01*
X272471Y412087D01*
X273713Y413329D01*
X275174Y414305D01*
X276798Y414978D01*
X277401Y415098D01*
X277401Y408399D01*
X270702Y408399D01*
G37*
%LPD*%
%LPC*%
G36*
X276798Y397822D02*
X276798Y397822D01*
X275174Y398495D01*
X273713Y399471D01*
X272471Y400713D01*
X271495Y402174D01*
X270822Y403798D01*
X270702Y404401D01*
X277401Y404401D01*
X277401Y397702D01*
X276798Y397822D01*
G37*
%LPD*%
%LPC*%
G36*
X584199Y457199D02*
X584199Y457199D01*
X584199Y457201D01*
X584201Y457201D01*
X584201Y457199D01*
X584199Y457199D01*
G37*
%LPD*%
%LPC*%
G36*
X279399Y279399D02*
X279399Y279399D01*
X279399Y279401D01*
X279401Y279401D01*
X279401Y279399D01*
X279399Y279399D01*
G37*
%LPD*%
%LPC*%
G36*
X279399Y406399D02*
X279399Y406399D01*
X279399Y406401D01*
X279401Y406401D01*
X279401Y406399D01*
X279399Y406399D01*
G37*
%LPD*%
%LPC*%
G36*
X228599Y266699D02*
X228599Y266699D01*
X228599Y266701D01*
X228601Y266701D01*
X228601Y266699D01*
X228599Y266699D01*
G37*
%LPD*%
D10*
X457200Y482600D03*
X457200Y508000D03*
X482600Y482600D03*
X482600Y508000D03*
X508000Y482600D03*
X508000Y508000D03*
X533400Y482600D03*
X533400Y508000D03*
X558800Y482600D03*
X558800Y508000D03*
X584200Y482600D03*
X584200Y508000D03*
X609600Y482600D03*
X609600Y508000D03*
X635000Y482600D03*
X635000Y508000D03*
X279400Y25400D03*
X279400Y50800D03*
X304800Y25400D03*
X304800Y50800D03*
X330200Y25400D03*
X330200Y50800D03*
X355600Y25400D03*
X355600Y50800D03*
X381000Y25400D03*
X381000Y50800D03*
X406400Y25400D03*
X406400Y50800D03*
X431800Y25400D03*
X431800Y50800D03*
X457200Y25400D03*
X457200Y50800D03*
X416560Y508000D03*
X391160Y508000D03*
X365760Y508000D03*
X340360Y508000D03*
X314960Y508000D03*
X289560Y508000D03*
X264160Y508000D03*
X238760Y508000D03*
X213360Y508000D03*
X187960Y508000D03*
X457200Y457200D03*
X482600Y457200D03*
X508000Y457200D03*
X533400Y457200D03*
X558800Y457200D03*
X584200Y457200D03*
X609600Y457200D03*
X635000Y457200D03*
X508000Y25400D03*
X533400Y25400D03*
X558800Y25400D03*
X584200Y25400D03*
X609600Y25400D03*
X635000Y25400D03*
X330200Y304800D03*
X330200Y279400D03*
X330200Y254000D03*
X330200Y228600D03*
X152400Y266700D03*
X177800Y266700D03*
X203200Y266700D03*
X228600Y266700D03*
X317500Y469900D03*
X342900Y469900D03*
X368300Y469900D03*
X393700Y469900D03*
X457200Y88900D03*
X431800Y88900D03*
X406400Y88900D03*
X381000Y88900D03*
D11*
X434340Y152400D03*
X434340Y127000D03*
X103900Y366200D03*
X355600Y88900D03*
X105100Y331400D03*
X80000Y202100D03*
X635000Y431800D03*
D10*
X279400Y228600D03*
X279400Y254000D03*
X279400Y279400D03*
X279400Y304800D03*
X279400Y330200D03*
X279400Y355600D03*
X279400Y381000D03*
X279400Y406400D03*
X279400Y431800D03*
X279400Y457200D03*
D11*
X39300Y372000D03*
X64700Y372000D03*
D12*
X94200Y350200D03*
X64600Y332000D03*
X94800Y310000D03*
X94600Y285200D03*
X64600Y268200D03*
X65000Y182000D03*
X80600Y181800D03*
X106200Y182600D03*
X89600Y163000D03*
X89600Y140000D03*
X89800Y126800D03*
X64400Y117800D03*
X108800Y141000D03*
X110800Y120000D03*
X89600Y95000D03*
X20000Y74600D03*
X40000Y74600D03*
X70000Y74400D03*
X90000Y74400D03*
X15200Y47600D03*
X65200Y47200D03*
X170000Y47400D03*
X220200Y47400D03*
X235000Y74600D03*
X195000Y74400D03*
X181800Y140600D03*
X352000Y177000D03*
X362000Y177000D03*
X372000Y177000D03*
X382000Y177000D03*
X392000Y177000D03*
X392000Y167000D03*
X382000Y167000D03*
X372000Y167000D03*
X362000Y167000D03*
X352000Y167000D03*
X352000Y157000D03*
X362000Y157000D03*
X372000Y157000D03*
X382000Y157000D03*
X392000Y157000D03*
X392000Y147000D03*
X382000Y147000D03*
X372000Y147000D03*
X362000Y147000D03*
X352000Y147000D03*
X352000Y137000D03*
X362000Y137000D03*
X372000Y137000D03*
X382000Y137000D03*
X392000Y137000D03*
X488000Y382000D03*
X498000Y382000D03*
X508000Y382000D03*
X518000Y382000D03*
X528000Y382000D03*
X528000Y372000D03*
X518000Y372000D03*
X508000Y372000D03*
X498000Y372000D03*
X488000Y372000D03*
X488000Y362000D03*
X498000Y362000D03*
X508000Y362000D03*
X518000Y362000D03*
X528000Y362000D03*
X528000Y352000D03*
X518000Y352000D03*
X508000Y352000D03*
X498000Y352000D03*
X488000Y352000D03*
X488000Y342000D03*
X498000Y342000D03*
X508000Y342000D03*
X518000Y342000D03*
X528000Y342000D03*
X310400Y444600D03*
X350500Y444700D03*
X319300Y394600D03*
X327800Y410300D03*
X359400Y394400D03*
X366000Y410200D03*
X390300Y444400D03*
X406000Y410100D03*
X399800Y394400D03*
X454100Y410100D03*
X454100Y400300D03*
X449500Y390100D03*
X449300Y379900D03*
X449300Y370100D03*
X470100Y414600D03*
X533400Y411300D03*
X559900Y420500D03*
X579500Y404900D03*
X579300Y375000D03*
X584500Y350200D03*
X579400Y335000D03*
X574500Y253800D03*
X574400Y231300D03*
X574400Y208600D03*
X574500Y185600D03*
X554500Y242500D03*
X554300Y227600D03*
X554200Y212500D03*
X554300Y197500D03*
X496200Y149500D03*
X514600Y95700D03*
X379900Y115700D03*
X408600Y247300D03*
X385100Y364400D03*
X204700Y474900D03*
X225800Y474800D03*
X216200Y449900D03*
X352000Y211100D03*
X431200Y168700D03*
X416000Y108200D03*
X323900Y116900D03*
X542100Y315100D03*
X499600Y101000D03*
X482600Y30300D03*
X434000Y425600D03*
D13*
X203800Y429200D03*
X229100Y428200D03*
X253400Y450100D03*
D12*
X546000Y449500D03*
X142000Y479000D03*
X149000Y479000D03*
X149000Y471000D03*
X142000Y471000D03*
X146000Y475000D03*
X80500Y140000D03*
X64600Y126100D03*
X129600Y119900D03*
X106500Y161200D03*
X106100Y173500D03*
X80500Y173000D03*
D14*
X129600Y138100D02*
X129600Y119900D01*
X129600Y138100D02*
X106500Y161200D01*
X106500Y173100D01*
X106100Y173500D01*
X98116Y159473D02*
X93128Y154484D01*
X86073Y154484D01*
X81084Y159473D01*
X98116Y159473D02*
X98116Y165516D01*
X81084Y172416D02*
X80500Y173000D01*
X98116Y165516D02*
X106100Y173500D01*
X81084Y172416D02*
X81084Y159473D01*
D15*
X78500Y140000D02*
X64600Y126100D01*
D14*
X78500Y140000D02*
X80500Y140000D01*
X80500Y148912D01*
X86073Y154484D01*
D12*
X30000Y74600D03*
X207100Y140500D03*
X254000Y74500D03*
X426500Y111020D03*
X534700Y96600D03*
X583500Y320300D03*
X583100Y390300D03*
X595300Y434900D03*
X520100Y420500D03*
X369900Y368400D03*
X350400Y394600D03*
X341600Y419700D03*
X327400Y429300D03*
D14*
X332000Y429300D01*
X341600Y419700D01*
X350400Y410900D01*
X350400Y394600D01*
X525100Y420500D02*
X537800Y433200D01*
X525100Y420500D02*
X520100Y420500D01*
X583500Y327057D02*
X583500Y320300D01*
X583500Y327057D02*
X593016Y336573D01*
X593016Y380384D02*
X583100Y390300D01*
X593016Y380384D02*
X593016Y336573D01*
X534700Y96600D02*
X527544Y96600D01*
X518128Y87184D01*
X497016Y87184D01*
X475200Y109000D02*
X426500Y111020D01*
D16*
X40600Y85200D02*
X30000Y74600D01*
X40600Y85200D02*
X172800Y85200D01*
X207100Y119500D01*
X207100Y140500D01*
X207100Y121400D02*
X254000Y74500D01*
X207100Y121400D02*
X207100Y140500D01*
D12*
X319500Y444700D03*
X351900Y202100D03*
X407000Y108200D03*
X422200Y168700D03*
X395000Y215500D03*
D14*
X390984Y124216D02*
X376373Y124216D01*
X390984Y124216D02*
X407000Y108200D01*
X407484Y111728D02*
X412473Y116716D01*
X419528Y116716D01*
X407484Y108684D02*
X407000Y108200D01*
X407484Y108684D02*
X407484Y111728D01*
X419528Y116716D02*
X427244Y109000D01*
X426500Y111020D01*
X418900Y120100D01*
X418900Y165400D02*
X422200Y168700D01*
X418900Y165400D02*
X418900Y120100D01*
X422200Y168700D02*
X395000Y195900D01*
X395000Y215500D01*
X381600Y202100D01*
X351900Y202100D01*
X395000Y215500D02*
X395000Y312857D01*
X475200Y109000D02*
X497016Y87184D01*
X584200Y443291D02*
X584200Y457200D01*
D12*
X575400Y437000D03*
D14*
X584200Y443291D02*
X592591Y434900D01*
X595300Y434900D01*
X581691Y443291D02*
X575400Y437000D01*
X581691Y443291D02*
X584200Y443291D01*
X575400Y437000D02*
X558744Y437000D01*
X554944Y433200D02*
X537800Y433200D01*
X554944Y433200D02*
X558744Y437000D01*
D13*
X494500Y70900D03*
D14*
X494500Y84668D01*
X497016Y87184D01*
X336061Y11250D02*
X324339Y11250D01*
X350211Y25400D02*
X355600Y25400D01*
X310189Y25400D02*
X304800Y25400D01*
X336061Y11250D02*
X350211Y25400D01*
X324339Y11250D02*
X310189Y25400D01*
X285261Y11250D02*
X273539Y11250D01*
X265250Y19539D01*
X265250Y56661D02*
X268500Y59911D01*
X265250Y56661D02*
X265250Y19539D01*
X299411Y25400D02*
X304800Y25400D01*
X299411Y25400D02*
X285261Y11250D01*
X268500Y68200D02*
X273800Y73500D01*
D13*
X273800Y73500D03*
D14*
X268500Y68200D02*
X268500Y59911D01*
D12*
X340100Y116900D03*
D14*
X369057Y116900D01*
X376373Y124216D01*
X228600Y266700D02*
X241300Y279400D01*
X351416Y202584D02*
X351900Y202100D01*
X316050Y222739D02*
X316050Y242750D01*
X316050Y222739D02*
X336205Y202584D01*
X351416Y202584D01*
X318916Y445284D02*
X318916Y448128D01*
X318916Y445284D02*
X319500Y444700D01*
X327400Y436800D01*
X327400Y429300D01*
X369900Y368400D02*
X369900Y337957D01*
X395000Y312857D01*
X350884Y394116D02*
X350400Y394600D01*
X350884Y394116D02*
X350884Y390873D01*
X369900Y371857D02*
X369900Y368400D01*
X369900Y371857D02*
X350884Y390873D01*
X279400Y279400D02*
X316050Y242750D01*
X279400Y279400D02*
X241300Y279400D01*
X318916Y448128D02*
X273194Y493850D01*
D12*
X273194Y493834D03*
D17*
X273194Y493850D01*
D12*
X473700Y120300D03*
D13*
X459134Y129100D03*
D12*
X438250Y191850D03*
X474407Y128707D03*
D13*
X455334Y142600D03*
D12*
X424000Y197300D03*
X302100Y419400D03*
X310200Y394600D03*
D14*
X302100Y419400D02*
X289700Y431800D01*
X302100Y419400D02*
X310200Y411300D01*
X310200Y394600D01*
D18*
X306500Y276200D03*
X314600Y340900D03*
D14*
X314600Y368800D02*
X308300Y375100D01*
D19*
X314600Y368800D02*
X314600Y340900D01*
D14*
X308300Y375100D02*
X310200Y377000D01*
X310200Y394600D01*
D19*
X318416Y135301D02*
X309700Y126585D01*
X318416Y192199D02*
X303399Y207216D01*
X318416Y192199D02*
X318416Y135301D01*
X374750Y31650D02*
X381000Y25400D01*
X317500Y65182D02*
X309700Y72982D01*
D14*
X317500Y65182D02*
X317500Y58111D01*
D20*
X317500Y45610D01*
X368350Y38050D02*
X374750Y31650D01*
X325060Y38050D02*
X317500Y45610D01*
X325060Y38050D02*
X368350Y38050D01*
D19*
X309700Y72982D02*
X309700Y126585D01*
D21*
X375400Y447200D03*
D14*
X289700Y431800D02*
X279400Y431800D01*
X177800Y266700D02*
X215900Y228600D01*
X279400Y228600D01*
X282015Y228600D02*
X303399Y207216D01*
X282015Y228600D02*
X279400Y228600D01*
D12*
X494400Y167500D03*
X452312Y133300D03*
D17*
X440640Y133300D01*
X434340Y127000D01*
D12*
X506300Y167400D03*
D17*
X506300Y139344D02*
X506788Y138855D01*
D12*
X506788Y138855D03*
X442317Y72117D03*
D17*
X506300Y139344D02*
X506300Y167400D01*
D12*
X557002Y135034D03*
D17*
X557002Y143302D01*
X559534Y145834D01*
X559534Y177266D01*
D12*
X554300Y182500D03*
D17*
X559534Y177266D01*
D12*
X523000Y75600D03*
D17*
X502100Y53500D02*
X477685Y53500D01*
X456085Y75100D02*
X448500Y75100D01*
X434700Y88900D01*
X431800Y88900D01*
X456085Y75100D02*
X477685Y53500D01*
X523000Y74533D02*
X523000Y75600D01*
X523000Y74533D02*
X512334Y63867D01*
X512334Y63734D02*
X502100Y53500D01*
X512334Y63734D02*
X512334Y63867D01*
D12*
X544500Y80500D03*
X552394Y131818D03*
D17*
X552394Y144694D01*
X556534Y148834D01*
X545666Y178234D02*
X540533Y178234D01*
X537800Y180967D01*
X540533Y201766D02*
X542666Y201766D01*
X548400Y207500D01*
X540533Y201766D02*
X537800Y199033D01*
X548400Y207500D02*
X548400Y221500D01*
X556534Y167366D02*
X556534Y148834D01*
X556534Y167366D02*
X545666Y178234D01*
X537800Y180967D02*
X537800Y199033D01*
D12*
X542300Y227600D03*
D17*
X548400Y221500D01*
D12*
X399500Y444600D03*
X406300Y429200D03*
X469000Y430600D03*
X579600Y365200D03*
D14*
X399500Y444600D02*
X399500Y464100D01*
X399500Y444600D02*
X406300Y437800D01*
X406300Y429200D01*
X570784Y381816D02*
X570784Y371473D01*
X570784Y381816D02*
X552300Y400300D01*
X577057Y365200D02*
X579600Y365200D01*
X577057Y365200D02*
X570784Y371473D01*
X552300Y400300D02*
X544400Y400300D01*
X535000Y390900D01*
D22*
X453800Y430400D02*
X440172Y430400D01*
D14*
X453800Y430400D02*
X458100Y426100D01*
X464500Y426100D01*
X469000Y430600D01*
X470100Y430600D01*
X399500Y464100D02*
X393700Y469900D01*
X489822Y403178D02*
X502100Y390900D01*
D20*
X481994Y403284D02*
X477884Y407394D01*
X489716Y403284D02*
X489822Y403178D01*
X477884Y422816D02*
X470100Y430600D01*
X481994Y403284D02*
X489716Y403284D01*
X477884Y407394D02*
X477884Y422816D01*
D14*
X502100Y390900D02*
X535000Y390900D01*
X410200Y433100D02*
X406300Y429200D01*
X410200Y433100D02*
X429457Y433100D01*
X429835Y433479D01*
D15*
X437093Y433479D01*
X440172Y430400D01*
D12*
X434400Y342600D03*
X425516Y407951D03*
X434300Y452800D03*
D17*
X472700Y472700D02*
X482600Y482600D01*
X434300Y462600D02*
X434300Y452800D01*
X444400Y472700D02*
X472700Y472700D01*
X444400Y472700D02*
X434300Y462600D01*
D12*
X359500Y444500D03*
X365900Y429100D03*
X384000Y419800D03*
X390400Y394600D03*
D15*
X365900Y438100D02*
X359500Y444500D01*
X365900Y438100D02*
X365900Y429100D01*
X375200Y419800D01*
X384000Y419800D01*
X390400Y413400D01*
X390400Y394600D01*
D12*
X533200Y315200D03*
D14*
X359500Y444500D02*
X359016Y444984D01*
X359016Y448228D01*
X342900Y464344D01*
D15*
X419972Y360500D02*
X429572Y350900D01*
X402900Y360500D02*
X402200Y361200D01*
D21*
X402200Y361200D03*
X392300Y381932D03*
D15*
X390400Y383832D01*
X390400Y394600D01*
X402900Y360500D02*
X419972Y360500D01*
X470484Y346300D02*
X470484Y334745D01*
X480745Y324484D01*
X517300Y324484D01*
X518800Y321608D02*
X522608Y317800D01*
X530600Y317800D01*
X533200Y315200D01*
X518800Y322984D02*
X517300Y324484D01*
X518800Y322984D02*
X518800Y321608D01*
X439528Y353400D02*
X437028Y350900D01*
X429572Y350900D01*
X443200Y353400D02*
X450200Y360400D01*
X456384Y360400D01*
X443200Y353400D02*
X439528Y353400D01*
X456384Y360400D02*
X470484Y346300D01*
D14*
X342900Y464344D02*
X342900Y469900D01*
D12*
X490700Y318400D03*
X530400Y227500D03*
D17*
X525100Y227500D01*
X506300Y246300D01*
X506300Y270957D01*
X497300Y279957D01*
X492500Y318400D02*
X490700Y318400D01*
X497300Y313600D02*
X497300Y279957D01*
X497300Y313600D02*
X492500Y318400D01*
D12*
X511100Y248700D03*
X409000Y326100D03*
X386484Y307717D03*
D17*
X500300Y281200D02*
X509300Y272200D01*
X509300Y250500D02*
X511100Y248700D01*
X509300Y250500D02*
X509300Y272200D01*
X500300Y300734D02*
X501566Y302000D01*
D12*
X501566Y302000D03*
X484566Y316000D03*
D17*
X500300Y300734D02*
X500300Y281200D01*
D12*
X518300Y227500D03*
X439200Y260800D03*
D17*
X434000Y255600D01*
X432300Y255600D01*
X428733Y252033D01*
X424533Y252033D01*
D12*
X424533Y252033D03*
D17*
X516900Y228900D02*
X518300Y227500D01*
X516900Y228900D02*
X516900Y231357D01*
X503300Y244957D01*
X503300Y269715D01*
X494300Y278715D01*
X494300Y304700D02*
X493000Y306000D01*
D12*
X493000Y306000D03*
D17*
X494300Y304700D02*
X494300Y278715D01*
D12*
X424516Y274417D03*
X404184Y269466D03*
X482300Y227500D03*
D17*
X491300Y299000D02*
X488100Y302200D01*
X488100Y302700D01*
X488200Y302800D01*
D12*
X488200Y302800D03*
D17*
X491300Y274000D02*
X489600Y272300D01*
X489600Y234800D02*
X482300Y227500D01*
X491300Y274000D02*
X491300Y299000D01*
X489600Y272300D02*
X489600Y234800D01*
D12*
X370900Y247000D03*
X365700Y214200D03*
X474400Y165300D03*
D17*
X473400Y165300D01*
D12*
X464633Y174067D03*
D17*
X473400Y165300D01*
D12*
X411823Y231766D03*
D17*
X411500Y220466D02*
X411732Y220234D01*
D12*
X411732Y220234D03*
X474400Y150600D03*
D17*
X460300Y164700D01*
X460300Y181882D01*
X421716Y220466D02*
X411500Y220466D01*
X421716Y220466D02*
X460300Y181882D01*
X411823Y220325D02*
X411732Y220234D01*
X411823Y220325D02*
X411823Y231766D01*
D12*
X407000Y228766D03*
D17*
X406000Y220434D02*
X406200Y220234D01*
D12*
X406200Y220234D03*
X441267Y228367D03*
D17*
X441167Y228267D01*
X436733Y228267D01*
X435926Y229074D02*
X429434Y229074D01*
D12*
X429434Y229074D03*
D17*
X435926Y229074D02*
X436733Y228267D01*
X407000Y228766D02*
X406000Y227766D01*
X406000Y220434D01*
D12*
X453004Y216204D03*
X386484Y221068D03*
X331932Y194813D03*
X385100Y226600D03*
X444088Y219088D03*
X304900Y173300D03*
X258750Y150350D03*
X238200Y125100D03*
X284317Y142117D03*
X242300Y119768D03*
X409900Y158900D03*
X304900Y140900D03*
D17*
X292000Y140900D01*
X275600Y157300D01*
X265643Y157300D01*
X263277Y154934D01*
X252133Y154934D01*
X239267Y167800D02*
X237600Y167800D01*
X239267Y167800D02*
X252133Y154934D01*
X237600Y167500D02*
X237600Y167800D01*
D12*
X237600Y167500D03*
X206500Y152600D03*
X473266Y136350D03*
D16*
X472950Y136350D01*
X450734Y158566D02*
X450734Y158700D01*
D12*
X450734Y158700D03*
D16*
X450734Y158566D02*
X472950Y136350D01*
D12*
X248400Y90000D03*
X518300Y212500D03*
X460309Y247109D03*
D17*
X460309Y255024D01*
X460891Y255606D01*
X460891Y282091D01*
X461900Y283100D01*
X461900Y293800D01*
X460500Y295200D01*
D12*
X460500Y295200D03*
X460934Y300918D03*
D17*
X464900Y281857D02*
X463891Y280848D01*
X464900Y296952D02*
X460934Y300918D01*
X464900Y296952D02*
X464900Y281857D01*
D12*
X465934Y241484D03*
D17*
X464575Y248876D02*
X463891Y249561D01*
X464575Y242843D02*
X465934Y241484D01*
X464575Y242843D02*
X464575Y248876D01*
X463891Y249561D02*
X463891Y280848D01*
D12*
X530300Y212400D03*
X428700Y385300D03*
X515300Y405900D03*
X459645Y306450D03*
D17*
X460911Y305184D01*
X462701Y305184D01*
X467900Y280615D02*
X467575Y280290D01*
X467900Y299985D02*
X462701Y305184D01*
X467900Y299985D02*
X467900Y280615D01*
D12*
X542300Y212500D03*
X472600Y234500D03*
D17*
X470200Y236900D01*
X470200Y243252D02*
X467575Y245876D01*
X470200Y243252D02*
X470200Y236900D01*
X467575Y245876D02*
X467575Y280290D01*
D12*
X525284Y406800D03*
X433112Y381388D03*
X425516Y453734D03*
D17*
X425516Y466382D01*
X426000Y466866D01*
D12*
X426000Y466866D03*
X516000Y315000D03*
X530300Y182400D03*
X459903Y348198D03*
X405700Y381432D03*
X303421Y484579D03*
X333212Y490266D03*
X482300Y197400D03*
X431400Y334066D03*
X378600Y382166D03*
X311734Y485000D03*
X330000Y495000D03*
X475800Y157600D03*
D17*
X484068Y161550D02*
X487150Y164632D01*
X479750Y161550D02*
X475800Y157600D01*
X479750Y161550D02*
X484068Y161550D01*
X487150Y164632D02*
X487150Y171050D01*
X473954Y184246D02*
X473954Y184554D01*
D12*
X473954Y184554D03*
X433752Y241602D03*
D17*
X439584Y256534D02*
X440967Y256534D01*
D12*
X442559Y346884D03*
D17*
X445625Y343818D02*
X445625Y343117D01*
X445625Y343818D02*
X442559Y346884D01*
X473954Y184246D02*
X487150Y171050D01*
D12*
X485300Y395600D03*
X405600Y386964D03*
D17*
X419436Y386964D01*
X431351Y375049D02*
X434384Y375049D01*
D12*
X434384Y375049D03*
D17*
X431351Y375049D02*
X419436Y386964D01*
X443466Y259033D02*
X440967Y256534D01*
X437500Y315991D02*
X446891Y325382D01*
X446891Y341851D01*
X445625Y343117D01*
X434900Y289168D02*
X434900Y285220D01*
X434900Y289168D02*
X437500Y291768D01*
X434900Y285220D02*
X443466Y276654D01*
X443466Y259033D01*
X437500Y291768D02*
X437500Y315991D01*
X439584Y256534D02*
X433000Y249950D01*
X433000Y242353D02*
X433752Y241602D01*
X433000Y242353D02*
X433000Y249950D01*
D12*
X437883Y237383D03*
X462400Y377600D03*
X449891Y344884D03*
X405536Y399036D03*
D17*
X420164Y399036D01*
X427500Y391700D01*
D12*
X427500Y391700D03*
D17*
X449891Y344884D02*
X449891Y324139D01*
X440500Y314749D02*
X440500Y297343D01*
X440500Y314749D02*
X449891Y324139D01*
X449966Y283567D02*
X449966Y280033D01*
X449966Y283567D02*
X449100Y284433D01*
X449966Y280033D02*
X446466Y276533D01*
X449100Y288743D02*
X440500Y297343D01*
X446466Y276533D02*
X446466Y257790D01*
X449100Y284433D02*
X449100Y288743D01*
X442210Y253534D02*
X440827Y253534D01*
X442210Y253534D02*
X446466Y257790D01*
X436000Y248707D02*
X436000Y245386D01*
X438018Y243369D01*
X438018Y239834D01*
X437883Y239700D01*
X436000Y248707D02*
X440827Y253534D01*
X437883Y239700D02*
X437883Y237383D01*
D12*
X494300Y227500D03*
D17*
X480533Y223234D02*
X478034Y225733D01*
X490034Y223234D02*
X494300Y227500D01*
X490034Y223234D02*
X480533Y223234D01*
X478034Y229267D02*
X480533Y231766D01*
X482323Y231766D01*
X488300Y296667D02*
X483934Y301033D01*
X483934Y310366D01*
D12*
X452623Y353284D03*
D17*
X478034Y229267D02*
X478034Y225733D01*
X488300Y276229D02*
X488300Y296667D01*
D12*
X469500Y378900D03*
D17*
X454157Y340143D02*
X483934Y310366D01*
X454157Y340143D02*
X454157Y346651D01*
X452254Y348554D01*
X452254Y352915D01*
X452623Y353284D01*
D12*
X396416Y403616D03*
D17*
X422884Y403616D01*
X429581Y396919D02*
X430781Y396919D01*
D12*
X430781Y396919D03*
X463500Y387700D03*
D17*
X469500Y381700D01*
X469500Y378900D01*
X429581Y396919D02*
X422884Y403616D01*
X486600Y236043D02*
X482323Y231766D01*
X486600Y274529D02*
X488300Y276229D01*
X486600Y274529D02*
X486600Y236043D01*
D12*
X518300Y242500D03*
X471800Y373800D03*
D17*
X504671Y298671D02*
X504671Y281071D01*
X504671Y298671D02*
X508600Y302600D01*
X508400Y302800D01*
D12*
X508400Y302800D03*
D17*
X504671Y281071D02*
X512300Y273443D01*
X515366Y245434D02*
X518300Y242500D01*
X515366Y250467D02*
X512300Y253533D01*
X515366Y250467D02*
X515366Y245434D01*
X512300Y253533D02*
X512300Y273443D01*
D12*
X410884Y418900D03*
D17*
X420600Y418900D01*
X434900Y404600D02*
X435200Y404600D01*
D12*
X435200Y404600D03*
X463500Y400600D03*
D17*
X473766Y377133D02*
X471800Y375167D01*
X471800Y373800D01*
X473766Y390334D02*
X463500Y400600D01*
X473766Y390334D02*
X473766Y377133D01*
X434900Y404600D02*
X420600Y418900D01*
D12*
X539400Y442500D03*
X551400Y289900D03*
D17*
X410868Y445482D02*
X406750Y449600D01*
X428085Y445482D02*
X434933Y438634D01*
X428085Y445482D02*
X410868Y445482D01*
X441534Y438634D02*
X444500Y441600D01*
X467890Y441600D01*
X468540Y440950D01*
X528460Y440950D01*
X441534Y438634D02*
X434933Y438634D01*
D12*
X405484Y470160D03*
D17*
X406750Y467103D02*
X406750Y449600D01*
X406750Y467103D02*
X405484Y468369D01*
X405484Y470160D01*
D12*
X347000Y486000D03*
X308797Y489886D03*
D17*
X538000Y442500D02*
X539400Y442500D01*
X538000Y442500D02*
X536434Y444066D01*
X531576Y444066D02*
X528460Y440950D01*
X531576Y444066D02*
X536434Y444066D01*
X540867Y447066D02*
X530333Y447066D01*
X545033Y442900D02*
X552000Y442900D01*
X545033Y442900D02*
X540867Y447066D01*
X552000Y442900D02*
X552300Y442600D01*
D12*
X552300Y442600D03*
X562900Y290000D03*
D17*
X414668Y448482D02*
X409750Y453400D01*
X527217Y443950D02*
X530333Y447066D01*
X513050Y443950D02*
X510600Y446400D01*
X487943Y444300D02*
X469433Y444300D01*
X466117Y447617D01*
X490043Y446400D02*
X510600Y446400D01*
X490043Y446400D02*
X487943Y444300D01*
X461301Y447300D02*
X453099Y447300D01*
X461617Y447617D02*
X466117Y447617D01*
X461617Y447617D02*
X461301Y447300D01*
X453099Y447300D02*
X450716Y449683D01*
X437217Y449683D01*
X436067Y448534D01*
X432533Y448534D01*
X431599Y449468D01*
X425900Y449468D01*
X424914Y448482D01*
X414668Y448482D01*
X513050Y443950D02*
X527217Y443950D01*
D12*
X409000Y476000D03*
D17*
X409000Y472677D02*
X409750Y471927D01*
X409000Y472677D02*
X409000Y476000D01*
X409750Y471927D02*
X409750Y453400D01*
D12*
X354017Y485017D03*
X527500Y435500D03*
X482300Y242500D03*
X436225Y276700D03*
X421500Y287900D03*
X190400Y89300D03*
X415266Y349600D03*
X436166Y337000D03*
X185000Y65500D03*
X205100Y65600D03*
D17*
X185100Y65600D02*
X185000Y65500D01*
X185100Y65600D02*
X205100Y65600D01*
D12*
X424634Y279949D03*
X445700Y281800D03*
X523216Y304000D03*
X525300Y399600D03*
D17*
X529550Y405033D02*
X529550Y408567D01*
X525300Y400783D02*
X525300Y399600D01*
X529550Y408567D02*
X529134Y408983D01*
X529134Y414234D01*
X529550Y405033D02*
X525300Y400783D01*
X540100Y425200D02*
X597800Y425200D01*
X622100Y449500D01*
X622100Y474300D01*
X613800Y482600D01*
X609600Y482600D01*
X540100Y425200D02*
X529134Y414234D01*
D12*
X520300Y402300D03*
X525166Y448216D03*
X515400Y399600D03*
X478500Y434300D03*
D17*
X510600Y404400D02*
X515400Y399600D01*
X510600Y421800D02*
X499100Y433300D01*
X487267Y429934D02*
X483733Y429934D01*
X479367Y434300D02*
X478500Y434300D01*
X479367Y434300D02*
X483733Y429934D01*
X490633Y433300D02*
X499100Y433300D01*
X490633Y433300D02*
X487267Y429934D01*
X510600Y421800D02*
X510600Y404400D01*
D12*
X431700Y415400D03*
X96800Y74800D03*
X485500Y434200D03*
X472443Y451566D03*
D17*
X503477Y482600D02*
X508000Y482600D01*
X478499Y467100D02*
X472700Y461301D01*
X472700Y451823D02*
X472443Y451566D01*
X487977Y467100D02*
X503477Y482600D01*
X472700Y461301D02*
X472700Y451823D01*
X478499Y467100D02*
X487977Y467100D01*
D12*
X484900Y410300D03*
X506400Y433700D03*
X495000Y410600D03*
X505100Y410700D03*
X565534Y137101D03*
D17*
X565534Y185466D01*
X558000Y193000D01*
D12*
X542300Y197500D03*
D17*
X546800Y193000D01*
X558000Y193000D01*
D12*
X516708Y278669D03*
D17*
X560184Y265916D02*
X560184Y263051D01*
D12*
X560184Y263051D03*
D17*
X545633Y272834D02*
X543134Y275333D01*
X543134Y275466D01*
X545633Y272834D02*
X553266Y272834D01*
X539931Y278669D02*
X516708Y278669D01*
X553266Y272834D02*
X560184Y265916D01*
X543134Y275466D02*
X539931Y278669D01*
D12*
X574600Y266400D03*
D17*
X563900Y277100D01*
X547400Y277100D01*
D12*
X547400Y277100D03*
D18*
X334950Y93151D03*
X271900Y101700D03*
D19*
X144480Y171380D02*
X142660Y173200D01*
X137700Y173200D01*
X144480Y171380D02*
X211377Y171380D01*
X137700Y173200D02*
X123800Y187100D01*
X123800Y190400D01*
D18*
X123800Y190400D03*
X98200Y216000D03*
D19*
X46544Y253100D02*
X36000Y263644D01*
X36000Y336356D02*
X46544Y346900D01*
X46544Y253100D02*
X61100Y253100D01*
X98200Y216000D01*
X50800Y346900D02*
X46544Y346900D01*
X36000Y336356D02*
X36000Y263644D01*
X50800Y346900D02*
X73950Y370050D01*
D18*
X118600Y414700D03*
D19*
X73950Y370050D01*
X271900Y110857D02*
X271900Y101700D01*
X271900Y110857D02*
X211377Y171380D01*
D20*
X393700Y69782D02*
X393700Y44300D01*
D23*
X393700Y69782D02*
X345618Y69782D01*
D19*
X334950Y80451D01*
X334950Y93151D01*
D20*
X393700Y44300D02*
X399900Y38100D01*
X442900Y38100D01*
D19*
X455600Y25400D02*
X457200Y25400D01*
D14*
X455600Y25400D02*
X442900Y38100D01*
D19*
X72000Y372000D02*
X64700Y372000D01*
X72000Y372000D02*
X73950Y370050D01*
D12*
X89600Y182000D03*
D14*
X135280Y227680D01*
X135280Y276549D01*
X170215Y311484D01*
X266115Y311484D01*
D20*
X268237Y311484D01*
D24*
X274173Y317420D01*
D20*
X292220Y317420D02*
X293100Y318300D01*
D24*
X292220Y317420D02*
X274173Y317420D01*
D14*
X293100Y318300D02*
X294520Y319720D01*
X294520Y360880D01*
X279400Y376000D01*
D12*
X482400Y167500D03*
D15*
X418518Y231383D01*
X405000Y289800D02*
X404900Y289900D01*
D21*
X404900Y289900D03*
X383984Y292800D03*
D15*
X418518Y268383D02*
X418518Y231383D01*
X418518Y268383D02*
X405000Y281900D01*
X405000Y289800D01*
D17*
X279400Y376000D02*
X279400Y381000D01*
D12*
X160000Y370000D03*
X170000Y370000D03*
X180000Y370000D03*
X190000Y370000D03*
X200000Y370000D03*
X210000Y370000D03*
X220000Y370000D03*
X220000Y360000D03*
X210000Y360000D03*
X200000Y360000D03*
X190000Y360000D03*
X180000Y360000D03*
X170000Y360000D03*
X160000Y360000D03*
X160000Y350000D03*
X170000Y350000D03*
X180000Y350000D03*
X190000Y350000D03*
X200000Y350000D03*
X210000Y350000D03*
X220000Y350000D03*
X220000Y340000D03*
X210000Y340000D03*
X200000Y340000D03*
X190000Y340000D03*
X180000Y340000D03*
X170000Y340000D03*
X160000Y340000D03*
X220000Y320000D03*
X230000Y320000D03*
X210000Y320000D03*
X200000Y320000D03*
X190000Y320000D03*
X180000Y320000D03*
X170000Y320000D03*
X160000Y320000D03*
X150000Y320000D03*
X185300Y475300D03*
X189900Y450400D03*
X244400Y474800D03*
X562534Y132278D03*
D17*
X562534Y134068D01*
X561268Y135334D01*
X561268Y138868D01*
X562534Y140134D01*
X562534Y184223D01*
X556757Y190000D01*
D12*
X542300Y182500D03*
D17*
X549800Y190000D01*
X556757Y190000D01*
D12*
X511000Y73500D03*
X529500Y56000D03*
X494800Y270434D03*
X453625Y267868D03*
X424600Y234200D03*
D17*
X431000Y234200D01*
X433126Y232074D01*
X438941Y232074D02*
X439500Y232633D01*
X447257Y232633D01*
X453043Y257443D02*
X454891Y259291D01*
X454891Y266602D02*
X453625Y267868D01*
X438941Y232074D02*
X433126Y232074D01*
X447257Y232633D02*
X453043Y238419D01*
X453043Y257443D01*
X454891Y259291D02*
X454891Y266602D01*
D13*
X552500Y358700D03*
D14*
X536516Y338473D02*
X531528Y333484D01*
X484473Y333484D02*
X479484Y338473D01*
X484473Y333484D02*
X531528Y333484D01*
X536516Y342716D02*
X552500Y358700D01*
X536516Y342716D02*
X536516Y338473D01*
X479484Y338473D02*
X479484Y350116D01*
X460800Y368800D02*
X460800Y368900D01*
X461200Y368900D01*
D13*
X461200Y368900D03*
D14*
X460800Y368800D02*
X479484Y350116D01*
D12*
X445100Y410300D03*
X445100Y400300D03*
X440500Y390000D03*
X440400Y380000D03*
X440400Y370000D03*
X444900Y422400D03*
D15*
X445100Y422200D01*
X445100Y410300D01*
X445100Y400300D01*
X445100Y394600D01*
X440500Y390000D01*
X440500Y380100D01*
X440400Y380000D01*
X440400Y370584D01*
D25*
X440400Y370000D02*
X445100Y374700D01*
D15*
X444700Y374700D01*
D16*
X454300Y374700D01*
X454400Y374600D01*
D15*
X460100Y368900D01*
X460800Y368900D01*
D16*
X440400Y370000D02*
X440400Y370584D01*
D12*
X608700Y442300D03*
X90000Y416400D03*
X130100Y153700D03*
X138000Y143800D03*
X64700Y323900D03*
D15*
X70100Y323900D01*
D14*
X126100Y334200D02*
X126200Y334300D01*
D13*
X126200Y334300D03*
D14*
X80400Y334200D02*
X70100Y323900D01*
X80400Y334200D02*
X126100Y334200D01*
D13*
X80800Y272500D03*
D14*
X76084Y277216D01*
X126100Y328744D02*
X126100Y334200D01*
X76084Y306084D02*
X76084Y277216D01*
X76084Y306084D02*
X90000Y320000D01*
X126100Y328744D01*
D12*
X485300Y150000D03*
X515100Y114600D03*
X534800Y113700D03*
D14*
X516000Y113700D01*
X515100Y114600D01*
D12*
X499600Y109900D03*
D14*
X510400Y109900D02*
X515100Y114600D01*
X510400Y109900D02*
X499600Y109900D01*
X499600Y127900D02*
X499700Y128000D01*
X499600Y127900D02*
X499600Y109900D01*
X499700Y133900D02*
X485300Y148300D01*
X485300Y150000D01*
X499700Y133900D02*
X499700Y128000D01*
D12*
X470000Y405700D03*
D21*
X334400Y371200D03*
X356200Y321600D03*
X354500Y285000D03*
D15*
X354500Y238900D01*
X352100Y236500D01*
X352200Y236400D01*
D21*
X352200Y236400D03*
X156150Y149300D03*
D12*
X525300Y324300D03*
X566700Y320300D03*
D15*
X562700Y324300D02*
X525300Y324300D01*
X562700Y324300D02*
X566700Y320300D01*
D12*
X191300Y82200D03*
D21*
X439666Y287194D03*
X419500Y297100D03*
X383850Y279250D03*
X362016Y261000D03*
D12*
X440400Y360200D03*
D25*
X419500Y300706D02*
X419500Y297100D01*
X380084Y366478D02*
X383022Y369416D01*
X428050Y360200D02*
X440400Y360200D01*
X419500Y300706D02*
X380084Y340122D01*
X380084Y366478D01*
X383022Y369416D02*
X418834Y369416D01*
X428050Y360200D01*
D21*
X518500Y149800D03*
D12*
X474300Y94700D03*
D17*
X468400Y100600D01*
X387500Y103500D02*
X387500Y107266D01*
D12*
X387500Y107266D03*
D17*
X390400Y100600D02*
X468400Y100600D01*
X390400Y100600D02*
X387500Y103500D01*
D12*
X479000Y306400D03*
X424200Y303100D03*
X451620Y319836D03*
X372700Y280200D03*
D17*
X372700Y274400D01*
X379800Y267300D01*
D12*
X379800Y267300D03*
X482300Y257600D03*
D17*
X482300Y248533D01*
X478034Y244267D01*
X478034Y233510D01*
D12*
X453600Y228700D03*
D17*
X473224Y228700D01*
X478034Y233510D01*
D12*
X502421Y177164D03*
D17*
X502421Y210346D01*
X502034Y210733D01*
X502034Y234666D01*
X500819Y235881D02*
X500819Y238766D01*
D12*
X500819Y238766D03*
D17*
X500819Y235881D02*
X502034Y234666D01*
D12*
X522167Y236467D03*
D17*
X532167Y231766D02*
X534666Y229267D01*
X534666Y225733D01*
X526867Y231766D02*
X522167Y236467D01*
X522566Y213633D02*
X522566Y208966D01*
X526867Y231766D02*
X532167Y231766D01*
X534666Y225733D02*
X522566Y213633D01*
X511800Y178600D02*
X514200Y176200D01*
D12*
X514200Y176200D03*
D17*
X511800Y198200D02*
X522566Y208966D01*
X511800Y198200D02*
X511800Y178600D01*
D12*
X530400Y257500D03*
X438326Y327093D03*
D17*
X435618Y329800D01*
X429633Y329800D01*
X426700Y332733D01*
X398983Y355750D02*
X391016Y363717D01*
D12*
X391016Y363717D03*
D17*
X426700Y347055D02*
X426700Y332733D01*
X426700Y347055D02*
X418005Y355750D01*
X398983Y355750D01*
D12*
X397300Y410300D03*
D17*
X386034Y451766D02*
X386000Y451800D01*
X386034Y451766D02*
X386034Y442633D01*
X398600Y430067D02*
X398600Y411600D01*
X397300Y410300D01*
X398600Y430067D02*
X386034Y442633D01*
X386000Y451800D02*
X386000Y452000D01*
X386300Y452300D01*
D12*
X386300Y452300D03*
X488900Y193234D03*
D17*
X488900Y201067D01*
X498566Y229267D02*
X496553Y231280D01*
X498566Y210733D02*
X488900Y201067D01*
X498566Y210733D02*
X498566Y229267D01*
D12*
X494300Y242600D03*
D17*
X496553Y240347D01*
X496553Y231280D01*
D12*
X518300Y257500D03*
X542400Y257500D03*
X453200Y273400D03*
D17*
X453200Y285472D01*
X453187Y285485D01*
X453187Y292114D02*
X453000Y292300D01*
X453187Y292114D02*
X453187Y285485D01*
X453000Y292300D02*
X453000Y310109D01*
X454157Y311266D01*
D12*
X454157Y311266D03*
X442625Y330617D03*
D17*
X442592Y325326D02*
X440093Y322827D01*
X423700Y331490D02*
X423700Y342300D01*
X442592Y330584D02*
X442625Y330617D01*
X442592Y330584D02*
X442592Y325326D01*
X440093Y322827D02*
X432364Y322827D01*
X423700Y331490D01*
X413499Y345334D02*
X411000Y347833D01*
X420666Y345334D02*
X423700Y342300D01*
X411000Y347833D02*
X411000Y347900D01*
X407500Y351400D01*
X413499Y345334D02*
X420666Y345334D01*
X407500Y351400D02*
X406734Y351400D01*
D12*
X406734Y351400D03*
X436100Y410400D03*
X442100Y454300D03*
D17*
X444800Y457000D01*
X444800Y459400D01*
X452500Y467100D01*
X466700Y467100D01*
X468177Y449799D02*
X470676Y447300D01*
X486701Y447300D01*
X468177Y465623D02*
X466700Y467100D01*
X468177Y465623D02*
X468177Y449799D01*
X486701Y447300D02*
X496601Y457200D01*
X508000Y457200D01*
D12*
X586300Y410400D03*
X554300Y257500D03*
D17*
X561700Y250100D01*
X561700Y193543D02*
X569800Y185443D01*
X569800Y66700D01*
X441700Y54901D02*
X435901Y60700D01*
X418800Y60700D02*
X418750Y60750D01*
X418800Y60700D02*
X435901Y60700D01*
X441700Y54901D02*
X441700Y52299D01*
X453099Y40900D01*
X544000Y40900D01*
X418750Y60750D02*
X417434Y59434D01*
X415750Y59434D01*
D12*
X415750Y59434D03*
D17*
X561700Y193543D02*
X561700Y250100D01*
X569800Y66700D02*
X544000Y40900D01*
D12*
X558356Y367008D03*
X497200Y45600D03*
D17*
X476700Y45600D01*
X455100Y67200D01*
X410600Y67200D01*
X404450Y74235D02*
X398153Y80532D01*
X389368Y80532D01*
X381000Y88900D01*
X404450Y73350D02*
X410600Y67200D01*
X404450Y73350D02*
X404450Y74235D01*
D12*
X436700Y442900D03*
X387300Y433200D03*
X529000Y290000D03*
X540000Y290000D03*
X572866Y448900D03*
X518300Y197500D03*
X490000Y493000D03*
D17*
X562901Y467100D02*
X568700Y461301D01*
X568700Y453066D02*
X572866Y448900D01*
X568700Y453066D02*
X568700Y461301D01*
X543300Y484099D02*
X543300Y486701D01*
X543300Y484099D02*
X560299Y467100D01*
X562901Y467100D01*
X537001Y493000D02*
X490000Y493000D01*
X537001Y493000D02*
X543300Y486701D01*
D12*
X376700Y287200D03*
X437000Y491000D03*
X297000Y371000D03*
X297000Y401000D03*
X546100Y388800D03*
X506300Y212500D03*
D17*
X508400Y210400D01*
D12*
X550800Y122800D03*
D17*
X550800Y127380D02*
X548128Y130051D01*
X548128Y146972D01*
X512433Y171934D02*
X509934Y174433D01*
X509934Y175466D01*
X512433Y171934D02*
X523166Y171934D01*
X508400Y177000D02*
X508400Y210400D01*
X550800Y127380D02*
X550800Y122800D01*
X548128Y146972D02*
X523166Y171934D01*
X509934Y175466D02*
X508400Y177000D01*
D12*
X457553Y290453D03*
X494300Y212500D03*
D17*
X486566Y220234D01*
X479290Y220234D01*
X479124Y220400D01*
X460700Y220400D01*
X457891Y290114D02*
X457553Y290453D01*
D12*
X534566Y402984D03*
D17*
X460254Y220846D02*
X460700Y220400D01*
X460254Y220846D02*
X460254Y220855D01*
X456675Y224434D02*
X451833Y224434D01*
X456675Y224434D02*
X460254Y220855D01*
X451833Y224434D02*
X449334Y226933D01*
X456043Y255001D02*
X457891Y256848D01*
X449334Y230467D02*
X449334Y226933D01*
X457891Y256848D02*
X457891Y290114D01*
X456043Y255001D02*
X456043Y237176D01*
X449334Y230467D01*
D12*
X522000Y513634D03*
M02*
