G04 EAGLE Gerber RS-274X export*
G75*
%MOMM*%
%FSLAX34Y34*%
%LPD*%
%INCopper Layer 15*%
%IPPOS*%
%AMOC8*
5,1,8,0,0,1.08239X$1,22.5*%
G01*
%ADD10C,1.530000*%
%ADD11C,1.524000*%
%ADD12C,0.403200*%
%ADD13C,1.500000*%
%ADD14C,1.000000*%
%ADD15C,0.500000*%
%ADD16C,0.200000*%
%ADD17C,0.750000*%
%ADD18C,2.000000*%
%ADD19C,0.700000*%
%ADD20C,0.503200*%
%ADD21C,0.150000*%
%ADD22C,0.800000*%
%ADD23C,1.700000*%
%ADD24C,0.600000*%
%ADD25C,0.300000*%

G36*
X158220Y309014D02*
X158220Y309014D01*
X158316Y309019D01*
X158359Y309034D01*
X158404Y309041D01*
X158491Y309080D01*
X158582Y309112D01*
X158617Y309137D01*
X158661Y309157D01*
X158758Y309240D01*
X158831Y309293D01*
X166533Y316995D01*
X168922Y317985D01*
X246984Y317985D01*
X247079Y317998D01*
X247175Y318003D01*
X247218Y318018D01*
X247263Y318025D01*
X247351Y318064D01*
X247442Y318096D01*
X247476Y318121D01*
X247520Y318141D01*
X247617Y318224D01*
X247691Y318277D01*
X258707Y329293D01*
X258721Y329313D01*
X258735Y329325D01*
X258767Y329373D01*
X258829Y329442D01*
X258849Y329483D01*
X258876Y329519D01*
X258910Y329609D01*
X258952Y329695D01*
X258958Y329737D01*
X258975Y329783D01*
X258985Y329911D01*
X258999Y330000D01*
X258999Y386586D01*
X267714Y395301D01*
X290300Y395301D01*
X290364Y395310D01*
X290428Y395309D01*
X290503Y395330D01*
X290579Y395341D01*
X290638Y395367D01*
X290700Y395384D01*
X290766Y395425D01*
X290836Y395457D01*
X290885Y395499D01*
X290940Y395532D01*
X290992Y395590D01*
X291050Y395640D01*
X291086Y395694D01*
X291129Y395742D01*
X291162Y395811D01*
X291205Y395876D01*
X291224Y395938D01*
X291252Y395995D01*
X291263Y396065D01*
X291287Y396146D01*
X291288Y396231D01*
X291299Y396300D01*
X291299Y414000D01*
X291286Y414095D01*
X291281Y414191D01*
X291266Y414234D01*
X291259Y414279D01*
X291220Y414367D01*
X291188Y414458D01*
X291163Y414492D01*
X291143Y414536D01*
X291060Y414634D01*
X291007Y414707D01*
X286007Y419707D01*
X285930Y419764D01*
X285858Y419829D01*
X285817Y419849D01*
X285781Y419876D01*
X285691Y419910D01*
X285605Y419952D01*
X285563Y419958D01*
X285517Y419975D01*
X285390Y419985D01*
X285300Y419999D01*
X268414Y419999D01*
X259999Y428414D01*
X259999Y478000D01*
X259986Y478095D01*
X259981Y478191D01*
X259966Y478234D01*
X259959Y478279D01*
X259920Y478367D01*
X259888Y478458D01*
X259863Y478492D01*
X259843Y478536D01*
X259760Y478634D01*
X259707Y478707D01*
X250707Y487707D01*
X250630Y487764D01*
X250558Y487829D01*
X250517Y487849D01*
X250481Y487876D01*
X250391Y487910D01*
X250305Y487952D01*
X250263Y487958D01*
X250217Y487975D01*
X250090Y487985D01*
X250000Y487999D01*
X176000Y487999D01*
X175905Y487986D01*
X175809Y487981D01*
X175766Y487966D01*
X175721Y487959D01*
X175633Y487920D01*
X175542Y487888D01*
X175508Y487863D01*
X175464Y487843D01*
X175367Y487760D01*
X175293Y487707D01*
X138293Y450707D01*
X138236Y450630D01*
X138171Y450558D01*
X138151Y450517D01*
X138124Y450481D01*
X138090Y450391D01*
X138048Y450305D01*
X138042Y450263D01*
X138025Y450217D01*
X138015Y450090D01*
X138001Y450000D01*
X138001Y310000D01*
X138010Y309936D01*
X138009Y309872D01*
X138030Y309797D01*
X138041Y309721D01*
X138067Y309662D01*
X138084Y309600D01*
X138125Y309534D01*
X138157Y309464D01*
X138199Y309415D01*
X138232Y309360D01*
X138290Y309308D01*
X138340Y309250D01*
X138394Y309214D01*
X138442Y309171D01*
X138511Y309138D01*
X138576Y309095D01*
X138638Y309076D01*
X138695Y309048D01*
X138765Y309037D01*
X138846Y309013D01*
X138931Y309012D01*
X139000Y309001D01*
X158125Y309001D01*
X158220Y309014D01*
G37*
G36*
X396214Y426510D02*
X396214Y426510D01*
X396278Y426509D01*
X396353Y426530D01*
X396429Y426541D01*
X396488Y426567D01*
X396550Y426584D01*
X396616Y426625D01*
X396686Y426657D01*
X396735Y426699D01*
X396790Y426732D01*
X396842Y426790D01*
X396900Y426840D01*
X396936Y426894D01*
X396979Y426942D01*
X397012Y427011D01*
X397055Y427076D01*
X397074Y427138D01*
X397102Y427195D01*
X397113Y427265D01*
X397137Y427346D01*
X397138Y427431D01*
X397149Y427500D01*
X397149Y427921D01*
X397136Y428016D01*
X397131Y428112D01*
X397116Y428155D01*
X397109Y428200D01*
X397070Y428288D01*
X397038Y428378D01*
X397013Y428413D01*
X396993Y428457D01*
X396910Y428554D01*
X396857Y428627D01*
X392523Y432961D01*
X392497Y432981D01*
X392476Y433005D01*
X392384Y433065D01*
X392297Y433131D01*
X392267Y433142D01*
X392240Y433160D01*
X392135Y433192D01*
X392033Y433230D01*
X392001Y433233D01*
X391970Y433242D01*
X391861Y433244D01*
X391752Y433252D01*
X391720Y433245D01*
X391688Y433246D01*
X391583Y433217D01*
X391476Y433194D01*
X391447Y433179D01*
X391416Y433171D01*
X391323Y433113D01*
X391227Y433062D01*
X391204Y433039D01*
X391176Y433022D01*
X391103Y432941D01*
X391025Y432865D01*
X391009Y432837D01*
X390987Y432813D01*
X390940Y432715D01*
X390886Y432620D01*
X390878Y432588D01*
X390864Y432559D01*
X390850Y432470D01*
X390821Y432345D01*
X390823Y432297D01*
X390817Y432255D01*
X390817Y431743D01*
X388757Y429683D01*
X385843Y429683D01*
X383783Y431743D01*
X383783Y434657D01*
X385843Y436717D01*
X386355Y436717D01*
X386387Y436721D01*
X386419Y436719D01*
X386526Y436741D01*
X386634Y436757D01*
X386663Y436770D01*
X386695Y436776D01*
X386791Y436828D01*
X386891Y436873D01*
X386915Y436894D01*
X386944Y436909D01*
X387022Y436985D01*
X387105Y437056D01*
X387123Y437083D01*
X387146Y437106D01*
X387200Y437201D01*
X387260Y437292D01*
X387269Y437323D01*
X387285Y437351D01*
X387310Y437457D01*
X387342Y437562D01*
X387343Y437594D01*
X387350Y437625D01*
X387344Y437735D01*
X387346Y437844D01*
X387337Y437875D01*
X387336Y437907D01*
X387300Y438010D01*
X387271Y438116D01*
X387254Y438143D01*
X387243Y438174D01*
X387190Y438247D01*
X387122Y438356D01*
X387086Y438388D01*
X387061Y438423D01*
X383783Y441701D01*
X383783Y449429D01*
X383770Y449524D01*
X383765Y449621D01*
X383750Y449664D01*
X383743Y449709D01*
X383704Y449796D01*
X383672Y449887D01*
X383647Y449921D01*
X383627Y449966D01*
X383544Y450063D01*
X383491Y450136D01*
X382783Y450843D01*
X382783Y453757D01*
X384843Y455817D01*
X387757Y455817D01*
X389817Y453757D01*
X389817Y450843D01*
X388596Y449623D01*
X388577Y449597D01*
X388552Y449576D01*
X388492Y449484D01*
X388427Y449397D01*
X388415Y449367D01*
X388398Y449340D01*
X388366Y449235D01*
X388327Y449133D01*
X388325Y449101D01*
X388315Y449070D01*
X388314Y448961D01*
X388305Y448852D01*
X388312Y448820D01*
X388311Y448788D01*
X388341Y448683D01*
X388363Y448576D01*
X388378Y448547D01*
X388387Y448516D01*
X388444Y448423D01*
X388495Y448327D01*
X388518Y448304D01*
X388535Y448276D01*
X388616Y448203D01*
X388692Y448125D01*
X388720Y448109D01*
X388744Y448087D01*
X388842Y448040D01*
X388938Y447986D01*
X388969Y447978D01*
X388998Y447964D01*
X389087Y447950D01*
X389212Y447921D01*
X389260Y447923D01*
X389303Y447917D01*
X392000Y447917D01*
X392064Y447926D01*
X392128Y447925D01*
X392203Y447946D01*
X392279Y447957D01*
X392338Y447983D01*
X392400Y448000D01*
X392466Y448041D01*
X392536Y448073D01*
X392585Y448115D01*
X392640Y448148D01*
X392692Y448206D01*
X392750Y448256D01*
X392786Y448310D01*
X392829Y448358D01*
X392862Y448427D01*
X392905Y448492D01*
X392924Y448554D01*
X392952Y448611D01*
X392963Y448681D01*
X392987Y448762D01*
X392988Y448847D01*
X392999Y448916D01*
X392999Y459750D01*
X392990Y459814D01*
X392991Y459878D01*
X392970Y459953D01*
X392959Y460029D01*
X392933Y460088D01*
X392916Y460150D01*
X392875Y460216D01*
X392843Y460286D01*
X392801Y460335D01*
X392768Y460390D01*
X392710Y460442D01*
X392660Y460500D01*
X392606Y460536D01*
X392558Y460579D01*
X392489Y460612D01*
X392424Y460655D01*
X392362Y460674D01*
X392305Y460702D01*
X392235Y460713D01*
X392154Y460737D01*
X392069Y460738D01*
X392000Y460749D01*
X391880Y460749D01*
X388516Y462142D01*
X385942Y464716D01*
X384549Y468080D01*
X384549Y471720D01*
X385942Y475084D01*
X388516Y477658D01*
X391880Y479051D01*
X394912Y479051D01*
X394944Y479055D01*
X394976Y479053D01*
X395083Y479075D01*
X395191Y479091D01*
X395221Y479104D01*
X395252Y479110D01*
X395349Y479162D01*
X395448Y479207D01*
X395473Y479228D01*
X395501Y479243D01*
X395580Y479319D01*
X395663Y479390D01*
X395680Y479417D01*
X395703Y479440D01*
X395757Y479535D01*
X395817Y479626D01*
X395827Y479657D01*
X395842Y479685D01*
X395868Y479792D01*
X395899Y479896D01*
X395900Y479928D01*
X395907Y479959D01*
X395902Y480069D01*
X395903Y480178D01*
X395895Y480209D01*
X395893Y480241D01*
X395857Y480344D01*
X395828Y480450D01*
X395811Y480477D01*
X395800Y480508D01*
X395747Y480581D01*
X395680Y480690D01*
X395644Y480722D01*
X395619Y480757D01*
X390520Y485855D01*
X388909Y487466D01*
X388909Y498360D01*
X388908Y498369D01*
X388909Y498379D01*
X388888Y498509D01*
X388869Y498639D01*
X388866Y498648D01*
X388864Y498657D01*
X388807Y498777D01*
X388753Y498896D01*
X388747Y498903D01*
X388743Y498912D01*
X388655Y499011D01*
X388570Y499110D01*
X388562Y499116D01*
X388556Y499123D01*
X388490Y499163D01*
X388334Y499265D01*
X388311Y499272D01*
X388292Y499283D01*
X385976Y500242D01*
X383402Y502816D01*
X382009Y506180D01*
X382009Y509820D01*
X383402Y513184D01*
X385976Y515758D01*
X389340Y517151D01*
X392980Y517151D01*
X396344Y515758D01*
X398918Y513184D01*
X400311Y509820D01*
X400311Y506180D01*
X398918Y502816D01*
X396344Y500242D01*
X394028Y499283D01*
X394019Y499278D01*
X394010Y499276D01*
X393898Y499206D01*
X393785Y499139D01*
X393778Y499133D01*
X393770Y499128D01*
X393682Y499030D01*
X393592Y498934D01*
X393588Y498925D01*
X393581Y498918D01*
X393524Y498800D01*
X393464Y498682D01*
X393462Y498673D01*
X393458Y498665D01*
X393446Y498589D01*
X393412Y498405D01*
X393414Y498381D01*
X393411Y498360D01*
X393411Y489744D01*
X393424Y489650D01*
X393429Y489553D01*
X393444Y489510D01*
X393451Y489465D01*
X393490Y489378D01*
X393522Y489287D01*
X393547Y489252D01*
X393567Y489208D01*
X393650Y489111D01*
X393703Y489038D01*
X398243Y484498D01*
X398269Y484479D01*
X398290Y484454D01*
X398382Y484394D01*
X398469Y484329D01*
X398499Y484317D01*
X398526Y484300D01*
X398631Y484268D01*
X398733Y484229D01*
X398765Y484227D01*
X398796Y484217D01*
X398905Y484216D01*
X399014Y484207D01*
X399046Y484214D01*
X399078Y484213D01*
X399183Y484243D01*
X399290Y484265D01*
X399319Y484280D01*
X399350Y484289D01*
X399443Y484346D01*
X399539Y484397D01*
X399562Y484420D01*
X399590Y484437D01*
X399663Y484518D01*
X399741Y484594D01*
X399757Y484622D01*
X399779Y484646D01*
X399826Y484744D01*
X399880Y484839D01*
X399888Y484871D01*
X399902Y484900D01*
X399916Y484989D01*
X399945Y485114D01*
X399943Y485162D01*
X399949Y485204D01*
X399949Y494572D01*
X408152Y502775D01*
X408158Y502783D01*
X408165Y502788D01*
X408242Y502895D01*
X408321Y503001D01*
X408325Y503009D01*
X408330Y503017D01*
X408374Y503140D01*
X408421Y503264D01*
X408421Y503274D01*
X408425Y503283D01*
X408432Y503414D01*
X408443Y503546D01*
X408441Y503555D01*
X408441Y503564D01*
X408423Y503640D01*
X408385Y503822D01*
X408374Y503843D01*
X408369Y503864D01*
X407409Y506180D01*
X407409Y509820D01*
X408802Y513184D01*
X411376Y515758D01*
X414740Y517151D01*
X418380Y517151D01*
X421744Y515758D01*
X424318Y513184D01*
X425711Y509820D01*
X425711Y506180D01*
X424318Y502816D01*
X421744Y500242D01*
X418380Y498849D01*
X414740Y498849D01*
X412424Y499809D01*
X412415Y499811D01*
X412407Y499816D01*
X412278Y499846D01*
X412151Y499879D01*
X412141Y499878D01*
X412132Y499881D01*
X411999Y499874D01*
X411869Y499870D01*
X411860Y499867D01*
X411850Y499866D01*
X411726Y499823D01*
X411601Y499782D01*
X411593Y499777D01*
X411584Y499774D01*
X411522Y499728D01*
X411368Y499623D01*
X411352Y499605D01*
X411335Y499592D01*
X404743Y493000D01*
X404686Y492924D01*
X404621Y492852D01*
X404601Y492811D01*
X404574Y492775D01*
X404540Y492685D01*
X404498Y492598D01*
X404492Y492556D01*
X404475Y492511D01*
X404465Y492383D01*
X404451Y492294D01*
X404451Y483947D01*
X404464Y483852D01*
X404469Y483756D01*
X404484Y483713D01*
X404491Y483668D01*
X404530Y483581D01*
X404562Y483490D01*
X404587Y483455D01*
X404607Y483411D01*
X404690Y483314D01*
X404743Y483241D01*
X412001Y475983D01*
X412001Y454746D01*
X412014Y454651D01*
X412019Y454555D01*
X412034Y454512D01*
X412041Y454467D01*
X412080Y454380D01*
X412112Y454289D01*
X412137Y454254D01*
X412157Y454210D01*
X412240Y454113D01*
X412293Y454040D01*
X415308Y451025D01*
X415385Y450968D01*
X415456Y450903D01*
X415497Y450883D01*
X415533Y450856D01*
X415623Y450822D01*
X415710Y450780D01*
X415752Y450774D01*
X415797Y450756D01*
X415925Y450747D01*
X416014Y450733D01*
X421132Y450733D01*
X421164Y450737D01*
X421196Y450735D01*
X421303Y450757D01*
X421411Y450772D01*
X421440Y450786D01*
X421472Y450792D01*
X421568Y450844D01*
X421668Y450889D01*
X421692Y450910D01*
X421721Y450925D01*
X421799Y451001D01*
X421882Y451072D01*
X421900Y451099D01*
X421923Y451122D01*
X421976Y451216D01*
X422037Y451308D01*
X422046Y451339D01*
X422062Y451367D01*
X422087Y451473D01*
X422119Y451578D01*
X422119Y451610D01*
X422127Y451641D01*
X422121Y451751D01*
X422123Y451860D01*
X422114Y451891D01*
X422112Y451923D01*
X422077Y452026D01*
X422047Y452132D01*
X422030Y452159D01*
X422020Y452190D01*
X421999Y452218D01*
X421999Y455191D01*
X422973Y456164D01*
X423030Y456241D01*
X423095Y456312D01*
X423115Y456353D01*
X423142Y456390D01*
X423176Y456480D01*
X423218Y456566D01*
X423224Y456608D01*
X423241Y456653D01*
X423251Y456781D01*
X423265Y456871D01*
X423265Y464213D01*
X423252Y464308D01*
X423247Y464405D01*
X423232Y464448D01*
X423225Y464493D01*
X423186Y464580D01*
X423154Y464671D01*
X423129Y464705D01*
X423109Y464750D01*
X423026Y464847D01*
X422973Y464920D01*
X422483Y465409D01*
X422483Y468323D01*
X424543Y470383D01*
X427457Y470383D01*
X429517Y468323D01*
X429517Y465409D01*
X428059Y463952D01*
X428002Y463875D01*
X427937Y463804D01*
X427917Y463763D01*
X427890Y463726D01*
X427856Y463636D01*
X427814Y463550D01*
X427808Y463508D01*
X427791Y463463D01*
X427781Y463335D01*
X427767Y463245D01*
X427767Y456871D01*
X427780Y456776D01*
X427785Y456679D01*
X427800Y456636D01*
X427807Y456591D01*
X427846Y456504D01*
X427878Y456413D01*
X427903Y456379D01*
X427923Y456334D01*
X428006Y456237D01*
X428059Y456164D01*
X429033Y455191D01*
X429033Y454919D01*
X429037Y454887D01*
X429035Y454854D01*
X429057Y454747D01*
X429073Y454639D01*
X429086Y454610D01*
X429092Y454578D01*
X429144Y454482D01*
X429189Y454382D01*
X429210Y454358D01*
X429225Y454329D01*
X429301Y454251D01*
X429372Y454168D01*
X429399Y454150D01*
X429422Y454127D01*
X429517Y454074D01*
X429608Y454014D01*
X429639Y454004D01*
X429667Y453988D01*
X429773Y453963D01*
X429878Y453931D01*
X429910Y453931D01*
X429941Y453923D01*
X430051Y453929D01*
X430160Y453927D01*
X430191Y453936D01*
X430223Y453938D01*
X430326Y453973D01*
X430432Y454003D01*
X430459Y454020D01*
X430490Y454030D01*
X430563Y454084D01*
X430672Y454151D01*
X430704Y454187D01*
X430739Y454212D01*
X431757Y455230D01*
X431814Y455307D01*
X431879Y455378D01*
X431899Y455419D01*
X431926Y455456D01*
X431960Y455546D01*
X432002Y455632D01*
X432008Y455674D01*
X432025Y455719D01*
X432035Y455847D01*
X432049Y455937D01*
X432049Y463532D01*
X443468Y474951D01*
X449496Y474951D01*
X449528Y474955D01*
X449560Y474953D01*
X449667Y474975D01*
X449775Y474991D01*
X449804Y475004D01*
X449836Y475010D01*
X449932Y475062D01*
X450032Y475107D01*
X450056Y475128D01*
X450085Y475143D01*
X450163Y475219D01*
X450246Y475290D01*
X450264Y475317D01*
X450287Y475340D01*
X450341Y475435D01*
X450401Y475526D01*
X450410Y475557D01*
X450426Y475585D01*
X450451Y475691D01*
X450483Y475796D01*
X450484Y475828D01*
X450491Y475859D01*
X450485Y475969D01*
X450487Y476078D01*
X450478Y476109D01*
X450477Y476141D01*
X450441Y476244D01*
X450412Y476350D01*
X450395Y476377D01*
X450384Y476408D01*
X450331Y476481D01*
X450263Y476590D01*
X450227Y476622D01*
X450202Y476657D01*
X449442Y477417D01*
X448049Y480780D01*
X448049Y484420D01*
X449442Y487784D01*
X452016Y490358D01*
X455380Y491751D01*
X459020Y491751D01*
X462384Y490358D01*
X464958Y487784D01*
X466351Y484420D01*
X466351Y480780D01*
X464958Y477417D01*
X464198Y476657D01*
X464178Y476631D01*
X464154Y476610D01*
X464094Y476518D01*
X464028Y476431D01*
X464017Y476401D01*
X463999Y476374D01*
X463967Y476269D01*
X463929Y476167D01*
X463926Y476135D01*
X463917Y476104D01*
X463915Y475995D01*
X463907Y475886D01*
X463914Y475854D01*
X463913Y475822D01*
X463942Y475717D01*
X463965Y475610D01*
X463980Y475581D01*
X463988Y475550D01*
X464046Y475457D01*
X464097Y475361D01*
X464120Y475338D01*
X464137Y475310D01*
X464217Y475237D01*
X464294Y475159D01*
X464322Y475143D01*
X464346Y475121D01*
X464444Y475074D01*
X464539Y475020D01*
X464571Y475012D01*
X464600Y474998D01*
X464689Y474984D01*
X464814Y474955D01*
X464862Y474957D01*
X464904Y474951D01*
X471354Y474951D01*
X471449Y474964D01*
X471545Y474969D01*
X471588Y474984D01*
X471633Y474991D01*
X471721Y475030D01*
X471811Y475062D01*
X471846Y475087D01*
X471890Y475107D01*
X471987Y475190D01*
X472060Y475243D01*
X474192Y477375D01*
X474198Y477383D01*
X474205Y477388D01*
X474282Y477496D01*
X474361Y477601D01*
X474365Y477609D01*
X474370Y477617D01*
X474414Y477741D01*
X474461Y477864D01*
X474461Y477874D01*
X474465Y477883D01*
X474472Y478014D01*
X474483Y478146D01*
X474481Y478155D01*
X474481Y478164D01*
X474463Y478240D01*
X474425Y478422D01*
X474414Y478443D01*
X474409Y478464D01*
X473449Y480780D01*
X473449Y484420D01*
X474842Y487784D01*
X477416Y490358D01*
X480780Y491751D01*
X484420Y491751D01*
X487784Y490358D01*
X490358Y487784D01*
X491751Y484420D01*
X491751Y480780D01*
X490358Y477416D01*
X487784Y474842D01*
X484420Y473449D01*
X480780Y473449D01*
X478464Y474409D01*
X478455Y474411D01*
X478446Y474416D01*
X478318Y474446D01*
X478191Y474479D01*
X478181Y474478D01*
X478172Y474481D01*
X478040Y474474D01*
X477909Y474470D01*
X477900Y474467D01*
X477890Y474466D01*
X477766Y474423D01*
X477641Y474382D01*
X477633Y474377D01*
X477624Y474374D01*
X477562Y474328D01*
X477548Y474319D01*
X477526Y474309D01*
X477496Y474283D01*
X477408Y474223D01*
X477392Y474205D01*
X477375Y474192D01*
X475243Y472060D01*
X473632Y470449D01*
X468946Y470449D01*
X468914Y470445D01*
X468882Y470447D01*
X468775Y470425D01*
X468667Y470409D01*
X468638Y470396D01*
X468606Y470390D01*
X468509Y470338D01*
X468410Y470293D01*
X468386Y470272D01*
X468357Y470257D01*
X468279Y470181D01*
X468196Y470110D01*
X468178Y470083D01*
X468155Y470060D01*
X468101Y469966D01*
X468041Y469874D01*
X468032Y469843D01*
X468016Y469815D01*
X467991Y469709D01*
X467959Y469604D01*
X467958Y469572D01*
X467951Y469541D01*
X467957Y469431D01*
X467955Y469322D01*
X467964Y469291D01*
X467965Y469259D01*
X468001Y469156D01*
X468030Y469050D01*
X468047Y469023D01*
X468058Y468992D01*
X468111Y468919D01*
X468178Y468810D01*
X468214Y468778D01*
X468240Y468743D01*
X468817Y468167D01*
X468817Y468166D01*
X470428Y466555D01*
X470428Y464624D01*
X470432Y464592D01*
X470430Y464560D01*
X470452Y464453D01*
X470467Y464345D01*
X470481Y464315D01*
X470487Y464284D01*
X470539Y464187D01*
X470584Y464088D01*
X470605Y464063D01*
X470620Y464035D01*
X470696Y463956D01*
X470767Y463873D01*
X470794Y463856D01*
X470817Y463833D01*
X470911Y463779D01*
X471003Y463719D01*
X471034Y463709D01*
X471062Y463694D01*
X471168Y463668D01*
X471273Y463636D01*
X471305Y463636D01*
X471336Y463629D01*
X471446Y463634D01*
X471555Y463633D01*
X471586Y463641D01*
X471618Y463643D01*
X471721Y463679D01*
X471827Y463708D01*
X471854Y463725D01*
X471884Y463735D01*
X471958Y463789D01*
X472067Y463856D01*
X472099Y463892D01*
X472133Y463917D01*
X475956Y467740D01*
X477567Y469351D01*
X486631Y469351D01*
X486726Y469364D01*
X486822Y469369D01*
X486865Y469384D01*
X486910Y469391D01*
X486997Y469430D01*
X487088Y469462D01*
X487123Y469487D01*
X487167Y469507D01*
X487264Y469590D01*
X487337Y469643D01*
X498557Y480863D01*
X498614Y480939D01*
X498679Y481011D01*
X498699Y481052D01*
X498726Y481088D01*
X498760Y481178D01*
X498802Y481265D01*
X498808Y481307D01*
X498825Y481352D01*
X498835Y481480D01*
X498849Y481569D01*
X498849Y484420D01*
X500242Y487784D01*
X502816Y490358D01*
X506180Y491751D01*
X509820Y491751D01*
X513184Y490358D01*
X515758Y487784D01*
X517151Y484420D01*
X517151Y480780D01*
X515758Y477416D01*
X513184Y474842D01*
X509820Y473449D01*
X506180Y473449D01*
X502816Y474842D01*
X501566Y476093D01*
X501515Y476131D01*
X501470Y476178D01*
X501402Y476216D01*
X501340Y476262D01*
X501280Y476285D01*
X501224Y476317D01*
X501149Y476334D01*
X501077Y476362D01*
X501013Y476367D01*
X500950Y476382D01*
X500872Y476378D01*
X500795Y476384D01*
X500733Y476370D01*
X500668Y476367D01*
X500595Y476342D01*
X500519Y476326D01*
X500463Y476296D01*
X500402Y476275D01*
X500345Y476233D01*
X500270Y476193D01*
X500209Y476134D01*
X500153Y476093D01*
X490520Y466460D01*
X489107Y465047D01*
X489069Y464996D01*
X489022Y464951D01*
X488984Y464884D01*
X488938Y464822D01*
X488915Y464761D01*
X488883Y464706D01*
X488866Y464630D01*
X488838Y464558D01*
X488833Y464494D01*
X488818Y464431D01*
X488822Y464354D01*
X488816Y464277D01*
X488830Y464214D01*
X488833Y464149D01*
X488858Y464076D01*
X488874Y464000D01*
X488904Y463944D01*
X488925Y463883D01*
X488967Y463826D01*
X489007Y463751D01*
X489066Y463691D01*
X489107Y463634D01*
X490358Y462383D01*
X491751Y459020D01*
X491751Y457945D01*
X491755Y457913D01*
X491753Y457881D01*
X491775Y457774D01*
X491791Y457666D01*
X491804Y457637D01*
X491810Y457605D01*
X491862Y457509D01*
X491907Y457409D01*
X491928Y457385D01*
X491943Y457356D01*
X492019Y457278D01*
X492090Y457195D01*
X492117Y457177D01*
X492140Y457154D01*
X492234Y457100D01*
X492326Y457040D01*
X492357Y457031D01*
X492385Y457015D01*
X492491Y456990D01*
X492596Y456958D01*
X492628Y456958D01*
X492659Y456950D01*
X492769Y456956D01*
X492878Y456954D01*
X492909Y456963D01*
X492941Y456965D01*
X493044Y457000D01*
X493150Y457030D01*
X493177Y457047D01*
X493208Y457057D01*
X493281Y457110D01*
X493390Y457178D01*
X493422Y457214D01*
X493457Y457239D01*
X494057Y457840D01*
X495668Y459451D01*
X498360Y459451D01*
X498369Y459452D01*
X498379Y459451D01*
X498509Y459472D01*
X498639Y459491D01*
X498648Y459494D01*
X498657Y459496D01*
X498777Y459553D01*
X498896Y459607D01*
X498903Y459613D01*
X498912Y459617D01*
X499011Y459705D01*
X499110Y459790D01*
X499116Y459798D01*
X499123Y459804D01*
X499163Y459870D01*
X499265Y460026D01*
X499270Y460043D01*
X499275Y460051D01*
X499277Y460058D01*
X499283Y460068D01*
X500242Y462384D01*
X502816Y464958D01*
X506180Y466351D01*
X509820Y466351D01*
X513184Y464958D01*
X515758Y462384D01*
X517151Y459020D01*
X517151Y455380D01*
X515758Y452016D01*
X513184Y449442D01*
X509999Y448123D01*
X509924Y448079D01*
X509845Y448043D01*
X509803Y448008D01*
X509756Y447980D01*
X509696Y447916D01*
X509631Y447860D01*
X509600Y447814D01*
X509563Y447774D01*
X509524Y447697D01*
X509476Y447624D01*
X509460Y447571D01*
X509435Y447522D01*
X509419Y447437D01*
X509394Y447354D01*
X509393Y447299D01*
X509383Y447245D01*
X509391Y447159D01*
X509390Y447072D01*
X509405Y447019D01*
X509410Y446965D01*
X509442Y446884D01*
X509465Y446800D01*
X509494Y446753D01*
X509514Y446703D01*
X509568Y446634D01*
X509613Y446560D01*
X509654Y446523D01*
X509688Y446480D01*
X509758Y446430D01*
X509823Y446371D01*
X509872Y446347D01*
X509916Y446315D01*
X509998Y446286D01*
X510076Y446248D01*
X510127Y446240D01*
X510182Y446221D01*
X510296Y446214D01*
X510381Y446201D01*
X520650Y446201D01*
X520714Y446210D01*
X520778Y446209D01*
X520853Y446230D01*
X520929Y446241D01*
X520988Y446267D01*
X521050Y446284D01*
X521116Y446325D01*
X521186Y446357D01*
X521235Y446399D01*
X521290Y446432D01*
X521342Y446490D01*
X521400Y446540D01*
X521436Y446594D01*
X521479Y446642D01*
X521512Y446711D01*
X521555Y446776D01*
X521574Y446838D01*
X521602Y446895D01*
X521613Y446965D01*
X521637Y447046D01*
X521638Y447131D01*
X521649Y447200D01*
X521649Y449673D01*
X523709Y451733D01*
X524264Y451733D01*
X524382Y451749D01*
X524500Y451761D01*
X524521Y451769D01*
X524544Y451773D01*
X524651Y451821D01*
X524762Y451865D01*
X524780Y451879D01*
X524801Y451889D01*
X524891Y451966D01*
X524984Y452039D01*
X524998Y452057D01*
X525015Y452072D01*
X525080Y452172D01*
X525149Y452268D01*
X525157Y452289D01*
X525169Y452308D01*
X525204Y452422D01*
X525244Y452533D01*
X525245Y452556D01*
X525252Y452578D01*
X525253Y452696D01*
X525260Y452815D01*
X525255Y452836D01*
X525255Y452860D01*
X525206Y453039D01*
X525188Y453114D01*
X524249Y455380D01*
X524249Y459020D01*
X525642Y462384D01*
X528216Y464958D01*
X531580Y466351D01*
X535220Y466351D01*
X538584Y464958D01*
X541158Y462384D01*
X542551Y459020D01*
X542551Y455380D01*
X541158Y452017D01*
X540664Y451523D01*
X540644Y451497D01*
X540620Y451476D01*
X540560Y451384D01*
X540494Y451297D01*
X540483Y451267D01*
X540465Y451240D01*
X540433Y451135D01*
X540395Y451033D01*
X540392Y451001D01*
X540383Y450970D01*
X540381Y450861D01*
X540373Y450752D01*
X540380Y450720D01*
X540379Y450688D01*
X540408Y450583D01*
X540431Y450476D01*
X540446Y450447D01*
X540454Y450416D01*
X540512Y450323D01*
X540563Y450227D01*
X540586Y450204D01*
X540603Y450176D01*
X540684Y450103D01*
X540760Y450025D01*
X540788Y450009D01*
X540812Y449987D01*
X540910Y449940D01*
X541005Y449886D01*
X541037Y449878D01*
X541066Y449864D01*
X541155Y449850D01*
X541280Y449821D01*
X541328Y449823D01*
X541370Y449817D01*
X541799Y449817D01*
X544673Y446943D01*
X544749Y446886D01*
X544821Y446821D01*
X544862Y446801D01*
X544898Y446774D01*
X544988Y446740D01*
X545075Y446698D01*
X545117Y446692D01*
X545162Y446675D01*
X545290Y446665D01*
X545379Y446651D01*
X551432Y446651D01*
X551674Y446409D01*
X551750Y446352D01*
X551822Y446287D01*
X551863Y446267D01*
X551899Y446240D01*
X551989Y446206D01*
X552076Y446164D01*
X552118Y446158D01*
X552163Y446141D01*
X552291Y446131D01*
X552380Y446117D01*
X553757Y446117D01*
X555817Y444057D01*
X555817Y441143D01*
X553757Y439083D01*
X550843Y439083D01*
X548783Y441143D01*
X548783Y441150D01*
X548774Y441214D01*
X548775Y441278D01*
X548754Y441353D01*
X548743Y441429D01*
X548717Y441488D01*
X548700Y441550D01*
X548659Y441616D01*
X548627Y441686D01*
X548585Y441735D01*
X548552Y441790D01*
X548494Y441842D01*
X548444Y441900D01*
X548390Y441936D01*
X548342Y441979D01*
X548273Y442012D01*
X548208Y442055D01*
X548146Y442074D01*
X548089Y442102D01*
X548019Y442113D01*
X547938Y442137D01*
X547853Y442138D01*
X547784Y442149D01*
X543916Y442149D01*
X543852Y442140D01*
X543788Y442141D01*
X543713Y442120D01*
X543637Y442109D01*
X543578Y442083D01*
X543516Y442066D01*
X543450Y442025D01*
X543380Y441993D01*
X543331Y441951D01*
X543276Y441918D01*
X543224Y441860D01*
X543166Y441810D01*
X543130Y441756D01*
X543087Y441708D01*
X543054Y441639D01*
X543011Y441574D01*
X542992Y441512D01*
X542964Y441455D01*
X542953Y441385D01*
X542929Y441304D01*
X542928Y441219D01*
X542917Y441150D01*
X542917Y441043D01*
X540857Y438983D01*
X539480Y438983D01*
X539385Y438970D01*
X539289Y438965D01*
X539246Y438950D01*
X539201Y438943D01*
X539114Y438904D01*
X539023Y438872D01*
X538988Y438847D01*
X538944Y438827D01*
X538847Y438744D01*
X538786Y438699D01*
X531643Y438699D01*
X531548Y438686D01*
X531452Y438681D01*
X531409Y438666D01*
X531364Y438659D01*
X531276Y438620D01*
X531186Y438588D01*
X531151Y438563D01*
X531107Y438543D01*
X531010Y438460D01*
X530937Y438407D01*
X528929Y436399D01*
X510916Y436399D01*
X510852Y436390D01*
X510788Y436391D01*
X510713Y436370D01*
X510637Y436359D01*
X510578Y436333D01*
X510516Y436316D01*
X510450Y436275D01*
X510380Y436243D01*
X510331Y436201D01*
X510276Y436168D01*
X510224Y436110D01*
X510166Y436060D01*
X510130Y436006D01*
X510087Y435958D01*
X510054Y435889D01*
X510011Y435824D01*
X509992Y435762D01*
X509964Y435705D01*
X509953Y435635D01*
X509929Y435554D01*
X509928Y435469D01*
X509917Y435400D01*
X509917Y432243D01*
X507857Y430183D01*
X507812Y430183D01*
X507780Y430179D01*
X507748Y430181D01*
X507641Y430159D01*
X507533Y430143D01*
X507504Y430130D01*
X507472Y430124D01*
X507376Y430072D01*
X507276Y430027D01*
X507251Y430006D01*
X507223Y429991D01*
X507145Y429915D01*
X507062Y429844D01*
X507044Y429817D01*
X507021Y429794D01*
X506967Y429699D01*
X506907Y429608D01*
X506898Y429577D01*
X506882Y429549D01*
X506857Y429443D01*
X506825Y429338D01*
X506824Y429306D01*
X506817Y429275D01*
X506823Y429165D01*
X506821Y429056D01*
X506830Y429025D01*
X506831Y428993D01*
X506867Y428890D01*
X506896Y428784D01*
X506913Y428757D01*
X506924Y428726D01*
X506977Y428653D01*
X507044Y428544D01*
X507080Y428512D01*
X507106Y428477D01*
X508790Y426793D01*
X508867Y426736D01*
X508938Y426671D01*
X508979Y426651D01*
X509015Y426624D01*
X509105Y426590D01*
X509192Y426548D01*
X509234Y426542D01*
X509279Y426525D01*
X509407Y426515D01*
X509496Y426501D01*
X537804Y426501D01*
X537899Y426514D01*
X537995Y426519D01*
X538038Y426534D01*
X538083Y426541D01*
X538171Y426580D01*
X538261Y426612D01*
X538296Y426637D01*
X538340Y426657D01*
X538437Y426740D01*
X538510Y426793D01*
X539168Y427451D01*
X596454Y427451D01*
X596549Y427464D01*
X596645Y427469D01*
X596688Y427484D01*
X596733Y427491D01*
X596821Y427530D01*
X596911Y427562D01*
X596946Y427587D01*
X596990Y427607D01*
X597087Y427690D01*
X597160Y427743D01*
X601607Y432190D01*
X601664Y432266D01*
X601729Y432338D01*
X601749Y432379D01*
X601776Y432415D01*
X601810Y432505D01*
X601852Y432592D01*
X601858Y432634D01*
X601875Y432679D01*
X601885Y432807D01*
X601899Y432896D01*
X601899Y451681D01*
X601893Y451722D01*
X601896Y451763D01*
X601876Y451847D01*
X601859Y451960D01*
X601835Y452013D01*
X601823Y452063D01*
X600449Y455380D01*
X600449Y459020D01*
X601823Y462337D01*
X601834Y462377D01*
X601852Y462415D01*
X601865Y462500D01*
X601893Y462610D01*
X601891Y462669D01*
X601899Y462719D01*
X601899Y477080D01*
X601893Y477122D01*
X601896Y477163D01*
X601876Y477247D01*
X601859Y477360D01*
X601835Y477413D01*
X601823Y477463D01*
X600449Y480780D01*
X600449Y484420D01*
X601823Y487737D01*
X601834Y487777D01*
X601852Y487815D01*
X601865Y487900D01*
X601893Y488010D01*
X601891Y488069D01*
X601899Y488120D01*
X601899Y502480D01*
X601893Y502522D01*
X601896Y502563D01*
X601876Y502647D01*
X601859Y502760D01*
X601835Y502813D01*
X601823Y502863D01*
X600449Y506180D01*
X600449Y509820D01*
X601823Y513137D01*
X601834Y513177D01*
X601852Y513215D01*
X601865Y513300D01*
X601893Y513410D01*
X601891Y513469D01*
X601899Y513520D01*
X601899Y526638D01*
X601890Y526702D01*
X601891Y526766D01*
X601870Y526841D01*
X601859Y526917D01*
X601833Y526976D01*
X601816Y527038D01*
X601775Y527104D01*
X601743Y527174D01*
X601701Y527223D01*
X601668Y527278D01*
X601610Y527330D01*
X601560Y527388D01*
X601506Y527424D01*
X601458Y527467D01*
X601389Y527500D01*
X601324Y527543D01*
X601262Y527562D01*
X601205Y527590D01*
X601135Y527601D01*
X601054Y527625D01*
X600969Y527626D01*
X600900Y527637D01*
X350300Y527637D01*
X350236Y527628D01*
X350172Y527629D01*
X350097Y527608D01*
X350021Y527597D01*
X349962Y527571D01*
X349900Y527554D01*
X349834Y527513D01*
X349764Y527481D01*
X349715Y527439D01*
X349660Y527406D01*
X349608Y527348D01*
X349550Y527298D01*
X349514Y527244D01*
X349471Y527196D01*
X349438Y527127D01*
X349395Y527062D01*
X349376Y527000D01*
X349348Y526943D01*
X349337Y526873D01*
X349313Y526792D01*
X349312Y526707D01*
X349301Y526638D01*
X349301Y510526D01*
X349307Y510485D01*
X349304Y510443D01*
X349325Y510359D01*
X349341Y510247D01*
X349365Y510193D01*
X349377Y510143D01*
X349511Y509820D01*
X349511Y506180D01*
X349377Y505857D01*
X349366Y505816D01*
X349348Y505779D01*
X349335Y505694D01*
X349307Y505583D01*
X349309Y505525D01*
X349301Y505474D01*
X349301Y476854D01*
X349314Y476759D01*
X349319Y476663D01*
X349334Y476620D01*
X349341Y476575D01*
X349380Y476488D01*
X349412Y476397D01*
X349437Y476362D01*
X349457Y476318D01*
X349540Y476221D01*
X349593Y476148D01*
X350658Y475084D01*
X352051Y471720D01*
X352051Y468080D01*
X351224Y466085D01*
X351222Y466076D01*
X351217Y466067D01*
X351187Y465938D01*
X351154Y465812D01*
X351155Y465802D01*
X351152Y465793D01*
X351159Y465660D01*
X351163Y465530D01*
X351166Y465521D01*
X351167Y465511D01*
X351210Y465387D01*
X351251Y465262D01*
X351256Y465254D01*
X351259Y465245D01*
X351305Y465183D01*
X351410Y465029D01*
X351428Y465013D01*
X351441Y464996D01*
X364527Y451910D01*
X365517Y449521D01*
X365517Y447160D01*
X365523Y447119D01*
X365520Y447078D01*
X365540Y446994D01*
X365557Y446881D01*
X365581Y446828D01*
X365593Y446778D01*
X366001Y445793D01*
X366001Y444071D01*
X366014Y443976D01*
X366019Y443880D01*
X366034Y443837D01*
X366041Y443792D01*
X366080Y443704D01*
X366112Y443613D01*
X366137Y443579D01*
X366157Y443535D01*
X366240Y443438D01*
X366293Y443364D01*
X369364Y440293D01*
X369365Y440293D01*
X372001Y437657D01*
X372001Y431371D01*
X372014Y431276D01*
X372019Y431180D01*
X372034Y431137D01*
X372041Y431092D01*
X372080Y431004D01*
X372112Y430913D01*
X372137Y430879D01*
X372157Y430835D01*
X372240Y430738D01*
X372293Y430665D01*
X376164Y426793D01*
X376241Y426736D01*
X376313Y426671D01*
X376354Y426651D01*
X376390Y426624D01*
X376480Y426590D01*
X376566Y426548D01*
X376609Y426542D01*
X376654Y426525D01*
X376782Y426515D01*
X376871Y426501D01*
X396150Y426501D01*
X396214Y426510D01*
G37*
G36*
X568096Y328267D02*
X568096Y328267D01*
X568193Y328276D01*
X568216Y328286D01*
X568241Y328290D01*
X568327Y328336D01*
X568416Y328377D01*
X568441Y328398D01*
X568456Y328405D01*
X568473Y328424D01*
X568530Y328470D01*
X575664Y335604D01*
X575721Y335684D01*
X575783Y335759D01*
X575791Y335782D01*
X575806Y335803D01*
X575834Y335896D01*
X575869Y335987D01*
X575872Y336020D01*
X575877Y336036D01*
X575876Y336061D01*
X575883Y336134D01*
X575883Y336457D01*
X577943Y338517D01*
X578266Y338517D01*
X578362Y338533D01*
X578459Y338542D01*
X578482Y338552D01*
X578507Y338556D01*
X578593Y338602D01*
X578682Y338643D01*
X578707Y338664D01*
X578722Y338671D01*
X578739Y338690D01*
X578796Y338736D01*
X585464Y345404D01*
X585507Y345464D01*
X585557Y345518D01*
X585577Y345562D01*
X585606Y345603D01*
X585627Y345673D01*
X585658Y345740D01*
X585663Y345789D01*
X585677Y345836D01*
X585674Y345909D01*
X585682Y345983D01*
X585671Y346031D01*
X585669Y346080D01*
X585643Y346149D01*
X585626Y346220D01*
X585600Y346262D01*
X585583Y346308D01*
X585537Y346365D01*
X585498Y346428D01*
X585460Y346459D01*
X585428Y346497D01*
X585366Y346536D01*
X585309Y346583D01*
X585263Y346600D01*
X585221Y346626D01*
X585150Y346643D01*
X585081Y346669D01*
X585008Y346676D01*
X584984Y346682D01*
X584967Y346680D01*
X584934Y346683D01*
X583043Y346683D01*
X580983Y348743D01*
X580983Y351657D01*
X583043Y353717D01*
X585766Y353717D01*
X585790Y353721D01*
X585815Y353718D01*
X585910Y353740D01*
X586007Y353756D01*
X586028Y353768D01*
X586052Y353774D01*
X586136Y353825D01*
X586222Y353871D01*
X586239Y353889D01*
X586260Y353902D01*
X586322Y353978D01*
X586389Y354049D01*
X586399Y354072D01*
X586415Y354091D01*
X586449Y354182D01*
X586490Y354272D01*
X586492Y354296D01*
X586501Y354319D01*
X586515Y354466D01*
X586515Y377381D01*
X586499Y377477D01*
X586490Y377574D01*
X586480Y377597D01*
X586476Y377622D01*
X586430Y377708D01*
X586389Y377797D01*
X586368Y377822D01*
X586361Y377837D01*
X586342Y377854D01*
X586296Y377911D01*
X577589Y386618D01*
X577043Y387936D01*
X577004Y387998D01*
X576974Y388065D01*
X576927Y388122D01*
X576914Y388143D01*
X576901Y388154D01*
X576880Y388179D01*
X546530Y418530D01*
X546450Y418587D01*
X546375Y418649D01*
X546352Y418657D01*
X546331Y418672D01*
X546238Y418700D01*
X546147Y418735D01*
X546114Y418738D01*
X546098Y418743D01*
X546073Y418742D01*
X546000Y418749D01*
X538000Y418749D01*
X537904Y418733D01*
X537807Y418724D01*
X537784Y418714D01*
X537759Y418710D01*
X537673Y418664D01*
X537584Y418623D01*
X537559Y418602D01*
X537544Y418595D01*
X537527Y418576D01*
X537470Y418530D01*
X534837Y415896D01*
X534822Y415876D01*
X534804Y415861D01*
X534752Y415778D01*
X534695Y415698D01*
X534687Y415675D01*
X534675Y415654D01*
X534652Y415558D01*
X534624Y415464D01*
X534624Y415440D01*
X534619Y415416D01*
X534628Y415319D01*
X534632Y415221D01*
X534640Y415198D01*
X534643Y415173D01*
X534683Y415084D01*
X534717Y414992D01*
X534733Y414973D01*
X534743Y414951D01*
X534837Y414837D01*
X536917Y412757D01*
X536917Y409843D01*
X534853Y407780D01*
X534810Y407720D01*
X534760Y407666D01*
X534740Y407622D01*
X534711Y407581D01*
X534690Y407511D01*
X534659Y407444D01*
X534654Y407395D01*
X534640Y407348D01*
X534643Y407275D01*
X534635Y407201D01*
X534646Y407153D01*
X534648Y407104D01*
X534674Y407035D01*
X534691Y406964D01*
X534717Y406922D01*
X534734Y406876D01*
X534780Y406819D01*
X534819Y406756D01*
X534857Y406725D01*
X534889Y406687D01*
X534951Y406648D01*
X535008Y406601D01*
X535054Y406584D01*
X535096Y406558D01*
X535167Y406541D01*
X535236Y406515D01*
X535309Y406508D01*
X535333Y406502D01*
X535350Y406504D01*
X535383Y406501D01*
X536023Y406501D01*
X538083Y404441D01*
X538083Y401527D01*
X536023Y399467D01*
X533109Y399467D01*
X531049Y401527D01*
X531049Y401540D01*
X531037Y401613D01*
X531035Y401686D01*
X531018Y401732D01*
X531010Y401781D01*
X530975Y401846D01*
X530949Y401915D01*
X530918Y401953D01*
X530895Y401996D01*
X530841Y402047D01*
X530794Y402103D01*
X530752Y402129D01*
X530717Y402163D01*
X530650Y402194D01*
X530587Y402232D01*
X530539Y402244D01*
X530494Y402264D01*
X530421Y402271D01*
X530350Y402288D01*
X530301Y402283D01*
X530251Y402288D01*
X530180Y402271D01*
X530107Y402264D01*
X530062Y402244D01*
X530014Y402233D01*
X529951Y402194D01*
X529884Y402164D01*
X529828Y402117D01*
X529806Y402104D01*
X529796Y402091D01*
X529770Y402070D01*
X529036Y401336D01*
X528979Y401257D01*
X528917Y401182D01*
X528909Y401158D01*
X528894Y401138D01*
X528866Y401045D01*
X528831Y400953D01*
X528828Y400920D01*
X528823Y400904D01*
X528824Y400879D01*
X528817Y400806D01*
X528817Y398143D01*
X526757Y396083D01*
X523843Y396083D01*
X521763Y398164D01*
X521760Y398178D01*
X521744Y398275D01*
X521732Y398296D01*
X521726Y398320D01*
X521675Y398404D01*
X521629Y398490D01*
X521611Y398507D01*
X521598Y398528D01*
X521522Y398590D01*
X521451Y398657D01*
X521428Y398667D01*
X521409Y398683D01*
X521318Y398717D01*
X521228Y398758D01*
X521204Y398760D01*
X521181Y398769D01*
X521034Y398783D01*
X519666Y398783D01*
X519642Y398779D01*
X519617Y398782D01*
X519522Y398760D01*
X519425Y398744D01*
X519404Y398732D01*
X519380Y398726D01*
X519296Y398675D01*
X519210Y398629D01*
X519193Y398611D01*
X519172Y398598D01*
X519110Y398522D01*
X519043Y398451D01*
X519033Y398428D01*
X519017Y398409D01*
X518983Y398318D01*
X518942Y398228D01*
X518940Y398204D01*
X518931Y398181D01*
X518929Y398155D01*
X516857Y396083D01*
X513943Y396083D01*
X511883Y398143D01*
X511883Y399623D01*
X511867Y399720D01*
X511858Y399817D01*
X511848Y399839D01*
X511844Y399864D01*
X511798Y399950D01*
X511757Y400039D01*
X511736Y400065D01*
X511729Y400079D01*
X511710Y400096D01*
X511664Y400153D01*
X508349Y403468D01*
X508349Y407167D01*
X508337Y407240D01*
X508335Y407313D01*
X508318Y407359D01*
X508310Y407408D01*
X508275Y407473D01*
X508249Y407541D01*
X508218Y407579D01*
X508195Y407623D01*
X508141Y407673D01*
X508094Y407730D01*
X508052Y407756D01*
X508017Y407790D01*
X507950Y407820D01*
X507887Y407859D01*
X507839Y407870D01*
X507794Y407891D01*
X507721Y407898D01*
X507650Y407915D01*
X507601Y407910D01*
X507551Y407915D01*
X507480Y407898D01*
X507407Y407891D01*
X507362Y407871D01*
X507314Y407859D01*
X507251Y407821D01*
X507184Y407790D01*
X507128Y407744D01*
X507106Y407731D01*
X507096Y407718D01*
X507070Y407697D01*
X506557Y407183D01*
X503643Y407183D01*
X501583Y409243D01*
X501583Y412157D01*
X503643Y414217D01*
X506557Y414217D01*
X507070Y413703D01*
X507130Y413660D01*
X507184Y413610D01*
X507228Y413590D01*
X507269Y413561D01*
X507339Y413540D01*
X507406Y413509D01*
X507455Y413504D01*
X507502Y413490D01*
X507575Y413493D01*
X507649Y413485D01*
X507697Y413496D01*
X507746Y413498D01*
X507815Y413524D01*
X507886Y413541D01*
X507928Y413567D01*
X507974Y413584D01*
X508031Y413630D01*
X508094Y413669D01*
X508125Y413707D01*
X508163Y413739D01*
X508202Y413801D01*
X508249Y413858D01*
X508266Y413904D01*
X508292Y413946D01*
X508309Y414017D01*
X508335Y414086D01*
X508342Y414159D01*
X508348Y414183D01*
X508346Y414200D01*
X508349Y414233D01*
X508349Y420557D01*
X508333Y420654D01*
X508324Y420751D01*
X508314Y420773D01*
X508310Y420798D01*
X508264Y420884D01*
X508223Y420973D01*
X508202Y420999D01*
X508195Y421013D01*
X508176Y421030D01*
X508130Y421087D01*
X505687Y423530D01*
X505608Y423587D01*
X505533Y423649D01*
X505509Y423657D01*
X505489Y423672D01*
X505396Y423700D01*
X505304Y423735D01*
X505271Y423738D01*
X505255Y423743D01*
X505230Y423742D01*
X505157Y423749D01*
X473000Y423749D01*
X472976Y423745D01*
X472951Y423748D01*
X472856Y423726D01*
X472759Y423710D01*
X472738Y423698D01*
X472714Y423692D01*
X472630Y423641D01*
X472544Y423595D01*
X472527Y423577D01*
X472506Y423564D01*
X472444Y423488D01*
X472377Y423417D01*
X472367Y423394D01*
X472352Y423375D01*
X472317Y423284D01*
X472276Y423194D01*
X472274Y423170D01*
X472265Y423147D01*
X472251Y423000D01*
X472251Y417733D01*
X472267Y417637D01*
X472276Y417540D01*
X472286Y417517D01*
X472290Y417492D01*
X472336Y417406D01*
X472377Y417317D01*
X472398Y417292D01*
X472405Y417277D01*
X472424Y417260D01*
X472470Y417203D01*
X473617Y416057D01*
X473617Y413143D01*
X472470Y411997D01*
X472413Y411917D01*
X472352Y411842D01*
X472343Y411819D01*
X472328Y411798D01*
X472300Y411705D01*
X472265Y411614D01*
X472262Y411581D01*
X472257Y411565D01*
X472258Y411540D01*
X472251Y411467D01*
X472251Y408733D01*
X472267Y408637D01*
X472276Y408540D01*
X472286Y408517D01*
X472290Y408492D01*
X472336Y408406D01*
X472377Y408317D01*
X472398Y408292D01*
X472405Y408277D01*
X472424Y408260D01*
X472470Y408203D01*
X473517Y407157D01*
X473517Y404243D01*
X472470Y403197D01*
X472413Y403117D01*
X472352Y403042D01*
X472343Y403019D01*
X472328Y402998D01*
X472300Y402905D01*
X472265Y402814D01*
X472262Y402781D01*
X472257Y402765D01*
X472258Y402740D01*
X472251Y402667D01*
X472251Y398000D01*
X472267Y397904D01*
X472276Y397807D01*
X472286Y397784D01*
X472290Y397759D01*
X472336Y397673D01*
X472377Y397584D01*
X472398Y397559D01*
X472405Y397544D01*
X472424Y397527D01*
X472470Y397470D01*
X476251Y393690D01*
X476251Y372310D01*
X475470Y371530D01*
X475413Y371450D01*
X475352Y371375D01*
X475343Y371352D01*
X475328Y371331D01*
X475300Y371238D01*
X475265Y371147D01*
X475262Y371114D01*
X475257Y371098D01*
X475258Y371073D01*
X475251Y371000D01*
X475251Y363853D01*
X475267Y363757D01*
X475276Y363660D01*
X475286Y363637D01*
X475290Y363612D01*
X475336Y363526D01*
X475377Y363437D01*
X475398Y363412D01*
X475405Y363397D01*
X475424Y363380D01*
X475470Y363323D01*
X484380Y354413D01*
X484400Y354399D01*
X484416Y354380D01*
X484499Y354328D01*
X484579Y354271D01*
X484602Y354264D01*
X484623Y354251D01*
X484718Y354229D01*
X484812Y354200D01*
X484837Y354201D01*
X484860Y354195D01*
X484958Y354205D01*
X485056Y354208D01*
X485079Y354217D01*
X485103Y354219D01*
X485193Y354259D01*
X485284Y354294D01*
X485303Y354309D01*
X485326Y354320D01*
X485440Y354413D01*
X486543Y355517D01*
X489457Y355517D01*
X491517Y353457D01*
X491517Y350543D01*
X489457Y348483D01*
X486734Y348483D01*
X486710Y348479D01*
X486685Y348482D01*
X486590Y348460D01*
X486493Y348444D01*
X486472Y348432D01*
X486448Y348426D01*
X486364Y348375D01*
X486278Y348329D01*
X486261Y348311D01*
X486240Y348298D01*
X486178Y348222D01*
X486111Y348151D01*
X486101Y348128D01*
X486085Y348109D01*
X486051Y348017D01*
X486010Y347928D01*
X486008Y347904D01*
X485999Y347881D01*
X485985Y347734D01*
X485985Y346266D01*
X485989Y346242D01*
X485986Y346217D01*
X486008Y346122D01*
X486024Y346025D01*
X486036Y346004D01*
X486042Y345980D01*
X486093Y345896D01*
X486139Y345810D01*
X486157Y345793D01*
X486170Y345772D01*
X486246Y345710D01*
X486317Y345643D01*
X486340Y345633D01*
X486359Y345617D01*
X486450Y345583D01*
X486540Y345542D01*
X486564Y345540D01*
X486587Y345531D01*
X486734Y345517D01*
X489457Y345517D01*
X491517Y343457D01*
X491517Y340734D01*
X491521Y340710D01*
X491518Y340685D01*
X491540Y340590D01*
X491556Y340493D01*
X491568Y340472D01*
X491574Y340448D01*
X491625Y340364D01*
X491671Y340278D01*
X491689Y340261D01*
X491702Y340240D01*
X491778Y340178D01*
X491849Y340111D01*
X491872Y340101D01*
X491891Y340085D01*
X491982Y340051D01*
X492072Y340010D01*
X492096Y340008D01*
X492119Y339999D01*
X492266Y339985D01*
X493734Y339985D01*
X493758Y339989D01*
X493783Y339986D01*
X493878Y340008D01*
X493975Y340024D01*
X493996Y340036D01*
X494020Y340042D01*
X494104Y340093D01*
X494190Y340139D01*
X494207Y340157D01*
X494228Y340170D01*
X494290Y340246D01*
X494357Y340317D01*
X494367Y340340D01*
X494383Y340359D01*
X494417Y340450D01*
X494458Y340540D01*
X494460Y340564D01*
X494469Y340587D01*
X494483Y340734D01*
X494483Y343457D01*
X496543Y345517D01*
X499457Y345517D01*
X501517Y343457D01*
X501517Y340734D01*
X501521Y340710D01*
X501518Y340685D01*
X501540Y340590D01*
X501556Y340493D01*
X501568Y340472D01*
X501574Y340448D01*
X501625Y340364D01*
X501671Y340278D01*
X501689Y340261D01*
X501702Y340240D01*
X501778Y340178D01*
X501849Y340111D01*
X501872Y340101D01*
X501891Y340085D01*
X501982Y340051D01*
X502072Y340010D01*
X502096Y340008D01*
X502119Y339999D01*
X502266Y339985D01*
X503734Y339985D01*
X503758Y339989D01*
X503783Y339986D01*
X503878Y340008D01*
X503975Y340024D01*
X503996Y340036D01*
X504020Y340042D01*
X504104Y340093D01*
X504190Y340139D01*
X504207Y340157D01*
X504228Y340170D01*
X504290Y340246D01*
X504357Y340317D01*
X504367Y340340D01*
X504383Y340359D01*
X504417Y340450D01*
X504458Y340540D01*
X504460Y340564D01*
X504469Y340587D01*
X504483Y340734D01*
X504483Y343457D01*
X506543Y345517D01*
X509457Y345517D01*
X511517Y343457D01*
X511517Y340734D01*
X511521Y340710D01*
X511518Y340685D01*
X511540Y340590D01*
X511556Y340493D01*
X511568Y340472D01*
X511574Y340448D01*
X511625Y340364D01*
X511671Y340278D01*
X511689Y340261D01*
X511702Y340240D01*
X511778Y340178D01*
X511849Y340111D01*
X511872Y340101D01*
X511891Y340085D01*
X511982Y340051D01*
X512072Y340010D01*
X512096Y340008D01*
X512119Y339999D01*
X512266Y339985D01*
X513734Y339985D01*
X513758Y339989D01*
X513783Y339986D01*
X513878Y340008D01*
X513975Y340024D01*
X513996Y340036D01*
X514020Y340042D01*
X514104Y340093D01*
X514190Y340139D01*
X514207Y340157D01*
X514228Y340170D01*
X514290Y340246D01*
X514357Y340317D01*
X514367Y340340D01*
X514383Y340359D01*
X514417Y340450D01*
X514458Y340540D01*
X514460Y340564D01*
X514469Y340587D01*
X514483Y340734D01*
X514483Y343457D01*
X516543Y345517D01*
X519457Y345517D01*
X521517Y343457D01*
X521517Y340734D01*
X521521Y340710D01*
X521518Y340685D01*
X521540Y340590D01*
X521556Y340493D01*
X521568Y340472D01*
X521574Y340448D01*
X521625Y340364D01*
X521671Y340278D01*
X521689Y340261D01*
X521702Y340240D01*
X521778Y340178D01*
X521849Y340111D01*
X521872Y340101D01*
X521891Y340085D01*
X521982Y340051D01*
X522072Y340010D01*
X522096Y340008D01*
X522119Y339999D01*
X522266Y339985D01*
X523734Y339985D01*
X523758Y339989D01*
X523783Y339986D01*
X523878Y340008D01*
X523975Y340024D01*
X523996Y340036D01*
X524020Y340042D01*
X524104Y340093D01*
X524190Y340139D01*
X524207Y340157D01*
X524228Y340170D01*
X524290Y340246D01*
X524357Y340317D01*
X524367Y340340D01*
X524383Y340359D01*
X524417Y340450D01*
X524458Y340540D01*
X524460Y340564D01*
X524469Y340587D01*
X524483Y340734D01*
X524483Y343457D01*
X526543Y345517D01*
X529457Y345517D01*
X529500Y345473D01*
X529540Y345444D01*
X529574Y345409D01*
X529639Y345374D01*
X529699Y345331D01*
X529746Y345317D01*
X529789Y345294D01*
X529862Y345281D01*
X529932Y345260D01*
X529981Y345262D01*
X530030Y345254D01*
X530102Y345266D01*
X530176Y345268D01*
X530222Y345285D01*
X530270Y345293D01*
X530335Y345328D01*
X530404Y345354D01*
X530442Y345385D01*
X530486Y345408D01*
X530536Y345462D01*
X530593Y345508D01*
X530619Y345550D01*
X530653Y345586D01*
X530722Y345715D01*
X530722Y345716D01*
X531005Y346398D01*
X548818Y364211D01*
X551207Y365201D01*
X553793Y365201D01*
X553803Y365197D01*
X553851Y365185D01*
X553895Y365165D01*
X553969Y365158D01*
X554041Y365141D01*
X554089Y365146D01*
X554138Y365141D01*
X554210Y365158D01*
X554283Y365165D01*
X554328Y365185D01*
X554376Y365196D01*
X554439Y365235D01*
X554506Y365266D01*
X554542Y365299D01*
X554583Y365325D01*
X554630Y365382D01*
X554684Y365432D01*
X554707Y365476D01*
X554738Y365514D01*
X554764Y365582D01*
X554799Y365647D01*
X554807Y365696D01*
X554824Y365742D01*
X554839Y365887D01*
X554839Y365888D01*
X554839Y365889D01*
X554839Y368465D01*
X556899Y370525D01*
X559812Y370525D01*
X561872Y368465D01*
X561872Y365551D01*
X559812Y363491D01*
X558673Y363491D01*
X558625Y363483D01*
X558576Y363485D01*
X558505Y363464D01*
X558432Y363452D01*
X558389Y363428D01*
X558342Y363414D01*
X558282Y363371D01*
X558217Y363337D01*
X558184Y363301D01*
X558144Y363272D01*
X558101Y363212D01*
X558050Y363159D01*
X558030Y363114D01*
X558001Y363074D01*
X557980Y363003D01*
X557949Y362936D01*
X557945Y362887D01*
X557930Y362841D01*
X557933Y362767D01*
X557925Y362693D01*
X557936Y362646D01*
X557938Y362597D01*
X557980Y362457D01*
X557981Y362456D01*
X557981Y362455D01*
X559001Y359993D01*
X559001Y357407D01*
X558011Y355018D01*
X543236Y340243D01*
X543179Y340163D01*
X543117Y340088D01*
X543109Y340065D01*
X543094Y340044D01*
X543066Y339951D01*
X543031Y339860D01*
X543028Y339827D01*
X543023Y339811D01*
X543024Y339786D01*
X543017Y339713D01*
X543017Y337179D01*
X542027Y334790D01*
X540093Y332856D01*
X537144Y329907D01*
X536817Y329580D01*
X536774Y329520D01*
X536724Y329466D01*
X536703Y329422D01*
X536675Y329381D01*
X536653Y329311D01*
X536623Y329244D01*
X536618Y329195D01*
X536604Y329148D01*
X536606Y329075D01*
X536599Y329001D01*
X536610Y328953D01*
X536612Y328904D01*
X536637Y328835D01*
X536654Y328764D01*
X536680Y328722D01*
X536697Y328676D01*
X536744Y328619D01*
X536783Y328556D01*
X536821Y328525D01*
X536852Y328487D01*
X536915Y328448D01*
X536971Y328401D01*
X537017Y328384D01*
X537059Y328358D01*
X537131Y328341D01*
X537200Y328315D01*
X537273Y328308D01*
X537297Y328302D01*
X537313Y328304D01*
X537346Y328301D01*
X564476Y328301D01*
X564479Y328300D01*
X564571Y328265D01*
X564604Y328262D01*
X564620Y328257D01*
X564644Y328258D01*
X564717Y328251D01*
X568000Y328251D01*
X568096Y328267D01*
G37*
G36*
X445179Y361267D02*
X445179Y361267D01*
X445276Y361276D01*
X445299Y361286D01*
X445323Y361290D01*
X445409Y361336D01*
X445498Y361377D01*
X445524Y361398D01*
X445538Y361405D01*
X445555Y361424D01*
X445612Y361470D01*
X448543Y364401D01*
X458041Y364401D01*
X460972Y361470D01*
X461051Y361413D01*
X461126Y361352D01*
X461150Y361343D01*
X461170Y361328D01*
X461263Y361300D01*
X461355Y361265D01*
X461388Y361262D01*
X461404Y361257D01*
X461428Y361258D01*
X461501Y361251D01*
X463000Y361251D01*
X463096Y361267D01*
X463193Y361276D01*
X463216Y361286D01*
X463241Y361290D01*
X463327Y361336D01*
X463416Y361377D01*
X463441Y361398D01*
X463456Y361405D01*
X463473Y361424D01*
X463530Y361470D01*
X468530Y366470D01*
X468587Y366550D01*
X468649Y366625D01*
X468657Y366648D01*
X468672Y366669D01*
X468700Y366762D01*
X468735Y366853D01*
X468738Y366886D01*
X468743Y366902D01*
X468742Y366927D01*
X468749Y367000D01*
X468749Y371567D01*
X468733Y371663D01*
X468724Y371760D01*
X468714Y371783D01*
X468710Y371808D01*
X468664Y371894D01*
X468623Y371983D01*
X468602Y372008D01*
X468595Y372023D01*
X468576Y372040D01*
X468530Y372097D01*
X468283Y372343D01*
X468283Y374833D01*
X468267Y374929D01*
X468258Y375026D01*
X468248Y375049D01*
X468244Y375074D01*
X468198Y375160D01*
X468157Y375249D01*
X468136Y375274D01*
X468129Y375289D01*
X468110Y375306D01*
X468064Y375363D01*
X467130Y376297D01*
X467110Y376311D01*
X467094Y376330D01*
X467011Y376382D01*
X466931Y376439D01*
X466908Y376446D01*
X466887Y376459D01*
X466792Y376481D01*
X466698Y376510D01*
X466673Y376509D01*
X466650Y376515D01*
X466552Y376505D01*
X466454Y376502D01*
X466431Y376493D01*
X466407Y376491D01*
X466318Y376451D01*
X466226Y376416D01*
X466207Y376400D01*
X466184Y376390D01*
X466070Y376297D01*
X463857Y374083D01*
X460943Y374083D01*
X458883Y376143D01*
X458883Y379057D01*
X460943Y381117D01*
X463857Y381117D01*
X464770Y380203D01*
X464790Y380189D01*
X464806Y380170D01*
X464889Y380118D01*
X464969Y380061D01*
X464992Y380054D01*
X465013Y380041D01*
X465108Y380019D01*
X465202Y379990D01*
X465227Y379991D01*
X465250Y379985D01*
X465348Y379995D01*
X465446Y379998D01*
X465469Y380007D01*
X465493Y380009D01*
X465582Y380049D01*
X465674Y380084D01*
X465693Y380100D01*
X465716Y380110D01*
X465830Y380203D01*
X466292Y380665D01*
X466306Y380685D01*
X466325Y380701D01*
X466377Y380784D01*
X466434Y380864D01*
X466441Y380887D01*
X466454Y380908D01*
X466477Y381003D01*
X466505Y381097D01*
X466504Y381122D01*
X466510Y381146D01*
X466500Y381243D01*
X466497Y381341D01*
X466488Y381364D01*
X466486Y381388D01*
X466446Y381478D01*
X466411Y381570D01*
X466396Y381589D01*
X466386Y381611D01*
X466292Y381725D01*
X464053Y383964D01*
X463974Y384021D01*
X463899Y384083D01*
X463875Y384091D01*
X463855Y384106D01*
X463761Y384134D01*
X463670Y384169D01*
X463637Y384172D01*
X463621Y384177D01*
X463596Y384176D01*
X463523Y384183D01*
X462043Y384183D01*
X459983Y386243D01*
X459983Y389157D01*
X462043Y391217D01*
X464957Y391217D01*
X467017Y389157D01*
X467017Y387677D01*
X467033Y387580D01*
X467042Y387483D01*
X467052Y387461D01*
X467056Y387436D01*
X467102Y387350D01*
X467143Y387261D01*
X467164Y387235D01*
X467171Y387221D01*
X467190Y387204D01*
X467236Y387147D01*
X467470Y386913D01*
X467530Y386870D01*
X467584Y386820D01*
X467628Y386799D01*
X467669Y386771D01*
X467739Y386749D01*
X467806Y386719D01*
X467855Y386714D01*
X467902Y386700D01*
X467975Y386702D01*
X468049Y386695D01*
X468097Y386706D01*
X468146Y386708D01*
X468215Y386734D01*
X468286Y386750D01*
X468328Y386776D01*
X468374Y386794D01*
X468431Y386840D01*
X468494Y386879D01*
X468525Y386917D01*
X468563Y386948D01*
X468602Y387011D01*
X468649Y387067D01*
X468666Y387113D01*
X468692Y387155D01*
X468709Y387227D01*
X468735Y387296D01*
X468742Y387369D01*
X468748Y387393D01*
X468746Y387410D01*
X468749Y387443D01*
X468749Y391857D01*
X468733Y391954D01*
X468724Y392051D01*
X468714Y392073D01*
X468710Y392098D01*
X468664Y392184D01*
X468623Y392273D01*
X468602Y392299D01*
X468595Y392313D01*
X468576Y392330D01*
X468530Y392387D01*
X464053Y396864D01*
X463974Y396921D01*
X463899Y396983D01*
X463875Y396991D01*
X463855Y397006D01*
X463762Y397034D01*
X463670Y397069D01*
X463637Y397072D01*
X463621Y397077D01*
X463596Y397076D01*
X463523Y397083D01*
X462043Y397083D01*
X459983Y399143D01*
X459983Y402057D01*
X462043Y404117D01*
X464957Y404117D01*
X465204Y403869D01*
X465264Y403826D01*
X465318Y403776D01*
X465362Y403756D01*
X465403Y403727D01*
X465473Y403706D01*
X465540Y403675D01*
X465589Y403670D01*
X465636Y403656D01*
X465709Y403659D01*
X465783Y403651D01*
X465831Y403662D01*
X465880Y403664D01*
X465949Y403690D01*
X466020Y403707D01*
X466062Y403733D01*
X466108Y403750D01*
X466165Y403796D01*
X466228Y403835D01*
X466259Y403873D01*
X466297Y403905D01*
X466336Y403967D01*
X466383Y404024D01*
X466400Y404070D01*
X466426Y404112D01*
X466443Y404183D01*
X466469Y404252D01*
X466476Y404325D01*
X466482Y404349D01*
X466480Y404366D01*
X466483Y404399D01*
X466483Y407157D01*
X468530Y409203D01*
X468587Y409282D01*
X468649Y409358D01*
X468657Y409381D01*
X468672Y409402D01*
X468700Y409495D01*
X468735Y409586D01*
X468738Y409619D01*
X468743Y409635D01*
X468742Y409660D01*
X468749Y409733D01*
X468749Y410000D01*
X468733Y410096D01*
X468724Y410193D01*
X468714Y410216D01*
X468710Y410241D01*
X468664Y410327D01*
X468623Y410416D01*
X468602Y410441D01*
X468595Y410456D01*
X468576Y410473D01*
X468530Y410530D01*
X459680Y419380D01*
X459600Y419437D01*
X459525Y419499D01*
X459502Y419507D01*
X459481Y419522D01*
X459388Y419550D01*
X459297Y419585D01*
X459264Y419588D01*
X459248Y419593D01*
X459223Y419592D01*
X459150Y419599D01*
X456807Y419599D01*
X454418Y420589D01*
X452484Y422523D01*
X452483Y422523D01*
X451477Y423530D01*
X451398Y423587D01*
X451322Y423649D01*
X451299Y423657D01*
X451278Y423672D01*
X451185Y423700D01*
X451094Y423735D01*
X451061Y423738D01*
X451045Y423743D01*
X451020Y423742D01*
X450947Y423749D01*
X448000Y423749D01*
X447992Y423748D01*
X447984Y423749D01*
X447837Y423731D01*
X438918Y421749D01*
X435000Y421749D01*
X434904Y421733D01*
X434807Y421724D01*
X434784Y421714D01*
X434759Y421710D01*
X434673Y421664D01*
X434584Y421623D01*
X434559Y421602D01*
X434544Y421595D01*
X434527Y421576D01*
X434470Y421530D01*
X433037Y420096D01*
X433022Y420076D01*
X433004Y420061D01*
X432952Y419978D01*
X432895Y419898D01*
X432887Y419875D01*
X432875Y419854D01*
X432852Y419758D01*
X432824Y419664D01*
X432824Y419640D01*
X432819Y419616D01*
X432828Y419519D01*
X432832Y419421D01*
X432840Y419398D01*
X432843Y419373D01*
X432883Y419284D01*
X432917Y419192D01*
X432933Y419173D01*
X432943Y419151D01*
X433037Y419037D01*
X435217Y416857D01*
X435217Y414666D01*
X435221Y414642D01*
X435218Y414617D01*
X435240Y414522D01*
X435256Y414425D01*
X435268Y414404D01*
X435274Y414380D01*
X435325Y414296D01*
X435371Y414210D01*
X435389Y414193D01*
X435402Y414172D01*
X435478Y414110D01*
X435549Y414043D01*
X435572Y414033D01*
X435591Y414017D01*
X435682Y413983D01*
X435772Y413942D01*
X435796Y413940D01*
X435819Y413931D01*
X435966Y413917D01*
X437557Y413917D01*
X439617Y411857D01*
X439617Y408943D01*
X438253Y407580D01*
X438239Y407560D01*
X438220Y407544D01*
X438168Y407461D01*
X438111Y407381D01*
X438104Y407358D01*
X438091Y407337D01*
X438069Y407242D01*
X438040Y407148D01*
X438041Y407124D01*
X438035Y407100D01*
X438045Y407002D01*
X438048Y406904D01*
X438057Y406881D01*
X438059Y406857D01*
X438099Y406768D01*
X438134Y406676D01*
X438150Y406657D01*
X438160Y406634D01*
X438253Y406520D01*
X438717Y406057D01*
X438717Y403143D01*
X436657Y401083D01*
X433743Y401083D01*
X431683Y403143D01*
X431683Y404323D01*
X431667Y404420D01*
X431658Y404517D01*
X431648Y404539D01*
X431644Y404564D01*
X431598Y404650D01*
X431557Y404739D01*
X431536Y404765D01*
X431529Y404779D01*
X431510Y404796D01*
X431464Y404853D01*
X430530Y405787D01*
X430470Y405830D01*
X430417Y405880D01*
X430372Y405901D01*
X430331Y405929D01*
X430261Y405951D01*
X430194Y405981D01*
X430145Y405986D01*
X430098Y406000D01*
X430025Y405998D01*
X429951Y406005D01*
X429903Y405994D01*
X429854Y405992D01*
X429785Y405966D01*
X429714Y405950D01*
X429672Y405924D01*
X429626Y405906D01*
X429569Y405860D01*
X429506Y405821D01*
X429475Y405783D01*
X429437Y405752D01*
X429398Y405689D01*
X429352Y405633D01*
X429334Y405587D01*
X429308Y405545D01*
X429291Y405473D01*
X429265Y405404D01*
X429258Y405331D01*
X429252Y405307D01*
X429254Y405290D01*
X429251Y405257D01*
X429251Y401185D01*
X429255Y401161D01*
X429252Y401137D01*
X429275Y401041D01*
X429290Y400945D01*
X429302Y400923D01*
X429308Y400899D01*
X429359Y400816D01*
X429405Y400729D01*
X429423Y400713D01*
X429436Y400692D01*
X429512Y400630D01*
X429584Y400563D01*
X429606Y400552D01*
X429625Y400537D01*
X429716Y400502D01*
X429806Y400462D01*
X429830Y400459D01*
X429853Y400451D01*
X430000Y400436D01*
X432237Y400436D01*
X434297Y398376D01*
X434297Y395463D01*
X432237Y393403D01*
X431766Y393403D01*
X431742Y393399D01*
X431717Y393401D01*
X431622Y393379D01*
X431525Y393363D01*
X431504Y393351D01*
X431480Y393346D01*
X431396Y393294D01*
X431310Y393248D01*
X431293Y393230D01*
X431272Y393217D01*
X431210Y393141D01*
X431143Y393070D01*
X431133Y393048D01*
X431117Y393029D01*
X431083Y392937D01*
X431042Y392848D01*
X431040Y392823D01*
X431031Y392800D01*
X431017Y392653D01*
X431017Y390243D01*
X430403Y389630D01*
X430389Y389610D01*
X430370Y389594D01*
X430318Y389511D01*
X430261Y389431D01*
X430254Y389408D01*
X430241Y389387D01*
X430219Y389292D01*
X430190Y389198D01*
X430191Y389174D01*
X430185Y389150D01*
X430195Y389052D01*
X430198Y388954D01*
X430207Y388931D01*
X430209Y388907D01*
X430249Y388817D01*
X430284Y388726D01*
X430299Y388707D01*
X430310Y388684D01*
X430403Y388570D01*
X432217Y386757D01*
X432217Y385654D01*
X432221Y385630D01*
X432218Y385606D01*
X432240Y385510D01*
X432256Y385414D01*
X432268Y385392D01*
X432274Y385368D01*
X432325Y385285D01*
X432371Y385198D01*
X432389Y385182D01*
X432402Y385161D01*
X432478Y385098D01*
X432549Y385031D01*
X432572Y385021D01*
X432591Y385006D01*
X432682Y384971D01*
X432772Y384931D01*
X432796Y384928D01*
X432819Y384920D01*
X432966Y384905D01*
X434568Y384905D01*
X436628Y382845D01*
X436628Y379932D01*
X436081Y379385D01*
X436067Y379365D01*
X436048Y379349D01*
X435996Y379266D01*
X435939Y379186D01*
X435932Y379163D01*
X435919Y379142D01*
X435897Y379047D01*
X435868Y378953D01*
X435869Y378928D01*
X435864Y378904D01*
X435873Y378807D01*
X435876Y378709D01*
X435885Y378686D01*
X435887Y378662D01*
X435928Y378572D01*
X435962Y378480D01*
X435978Y378461D01*
X435988Y378439D01*
X436081Y378325D01*
X437901Y376506D01*
X437901Y373592D01*
X435841Y371532D01*
X432927Y371532D01*
X432530Y371930D01*
X432470Y371973D01*
X432417Y372023D01*
X432372Y372043D01*
X432331Y372072D01*
X432261Y372093D01*
X432194Y372124D01*
X432145Y372129D01*
X432098Y372143D01*
X432025Y372140D01*
X431951Y372148D01*
X431903Y372137D01*
X431854Y372135D01*
X431785Y372109D01*
X431714Y372092D01*
X431672Y372066D01*
X431626Y372049D01*
X431569Y372003D01*
X431506Y371964D01*
X431475Y371926D01*
X431437Y371894D01*
X431398Y371832D01*
X431352Y371775D01*
X431334Y371729D01*
X431308Y371687D01*
X431291Y371616D01*
X431265Y371547D01*
X431258Y371474D01*
X431252Y371450D01*
X431254Y371433D01*
X431251Y371400D01*
X431251Y370000D01*
X431267Y369904D01*
X431276Y369807D01*
X431286Y369784D01*
X431290Y369759D01*
X431336Y369673D01*
X431377Y369584D01*
X431398Y369559D01*
X431405Y369544D01*
X431424Y369527D01*
X431470Y369470D01*
X437520Y363420D01*
X437600Y363363D01*
X437675Y363301D01*
X437698Y363293D01*
X437719Y363278D01*
X437812Y363250D01*
X437903Y363215D01*
X437936Y363212D01*
X437952Y363207D01*
X437977Y363208D01*
X438050Y363201D01*
X438117Y363201D01*
X438213Y363217D01*
X438310Y363226D01*
X438333Y363236D01*
X438358Y363240D01*
X438444Y363286D01*
X438533Y363327D01*
X438558Y363348D01*
X438573Y363355D01*
X438590Y363374D01*
X438647Y363420D01*
X438943Y363717D01*
X441857Y363717D01*
X444103Y361470D01*
X444183Y361413D01*
X444258Y361352D01*
X444281Y361343D01*
X444302Y361328D01*
X444395Y361300D01*
X444486Y361265D01*
X444519Y361262D01*
X444535Y361257D01*
X444560Y361258D01*
X444633Y361251D01*
X445083Y361251D01*
X445179Y361267D01*
G37*
%LPC*%
G36*
X556980Y498849D02*
X556980Y498849D01*
X553616Y500242D01*
X551042Y502816D01*
X549649Y506180D01*
X549649Y509820D01*
X551042Y513184D01*
X553616Y515758D01*
X556980Y517151D01*
X560620Y517151D01*
X563984Y515758D01*
X566558Y513184D01*
X567951Y509820D01*
X567951Y506180D01*
X566558Y502816D01*
X563984Y500242D01*
X560620Y498849D01*
X556980Y498849D01*
G37*
%LPD*%
%LPC*%
G36*
X455380Y498849D02*
X455380Y498849D01*
X452016Y500242D01*
X449442Y502816D01*
X448049Y506180D01*
X448049Y509820D01*
X449442Y513184D01*
X452016Y515758D01*
X455380Y517151D01*
X459020Y517151D01*
X462384Y515758D01*
X464958Y513184D01*
X466351Y509820D01*
X466351Y506180D01*
X464958Y502816D01*
X462384Y500242D01*
X459020Y498849D01*
X455380Y498849D01*
G37*
%LPD*%
%LPC*%
G36*
X582380Y498849D02*
X582380Y498849D01*
X579016Y500242D01*
X576442Y502816D01*
X575049Y506180D01*
X575049Y509820D01*
X576442Y513184D01*
X579016Y515758D01*
X582380Y517151D01*
X586020Y517151D01*
X589384Y515758D01*
X591958Y513184D01*
X593351Y509820D01*
X593351Y506180D01*
X591958Y502816D01*
X589384Y500242D01*
X586020Y498849D01*
X582380Y498849D01*
G37*
%LPD*%
%LPC*%
G36*
X506180Y498849D02*
X506180Y498849D01*
X502816Y500242D01*
X500242Y502816D01*
X498849Y506180D01*
X498849Y509820D01*
X500242Y513184D01*
X502816Y515758D01*
X506180Y517151D01*
X509820Y517151D01*
X513184Y515758D01*
X515758Y513184D01*
X517151Y509820D01*
X517151Y506180D01*
X515758Y502816D01*
X513184Y500242D01*
X509820Y498849D01*
X506180Y498849D01*
G37*
%LPD*%
%LPC*%
G36*
X480780Y498849D02*
X480780Y498849D01*
X477416Y500242D01*
X474842Y502816D01*
X473449Y506180D01*
X473449Y509820D01*
X474842Y513184D01*
X477416Y515758D01*
X480780Y517151D01*
X484420Y517151D01*
X487784Y515758D01*
X490358Y513184D01*
X491751Y509820D01*
X491751Y506180D01*
X490358Y502816D01*
X487784Y500242D01*
X484420Y498849D01*
X480780Y498849D01*
G37*
%LPD*%
%LPC*%
G36*
X531580Y498849D02*
X531580Y498849D01*
X528216Y500242D01*
X525642Y502816D01*
X524249Y506180D01*
X524249Y509820D01*
X525642Y513184D01*
X528216Y515758D01*
X531580Y517151D01*
X535220Y517151D01*
X538584Y515758D01*
X541158Y513184D01*
X542551Y509820D01*
X542551Y506180D01*
X541158Y502816D01*
X538584Y500242D01*
X535220Y498849D01*
X531580Y498849D01*
G37*
%LPD*%
%LPC*%
G36*
X556980Y473449D02*
X556980Y473449D01*
X553616Y474842D01*
X551042Y477416D01*
X549649Y480780D01*
X549649Y484420D01*
X551042Y487784D01*
X553616Y490358D01*
X556980Y491751D01*
X560620Y491751D01*
X563984Y490358D01*
X566558Y487784D01*
X567951Y484420D01*
X567951Y480780D01*
X566558Y477416D01*
X563984Y474842D01*
X560620Y473449D01*
X556980Y473449D01*
G37*
%LPD*%
%LPC*%
G36*
X582380Y473449D02*
X582380Y473449D01*
X579016Y474842D01*
X576442Y477416D01*
X575049Y480780D01*
X575049Y484420D01*
X576442Y487784D01*
X579016Y490358D01*
X582380Y491751D01*
X586020Y491751D01*
X589384Y490358D01*
X591958Y487784D01*
X593351Y484420D01*
X593351Y480780D01*
X591958Y477416D01*
X589384Y474842D01*
X586020Y473449D01*
X582380Y473449D01*
G37*
%LPD*%
%LPC*%
G36*
X531580Y473449D02*
X531580Y473449D01*
X528216Y474842D01*
X525642Y477416D01*
X524249Y480780D01*
X524249Y484420D01*
X525642Y487784D01*
X528216Y490358D01*
X531580Y491751D01*
X535220Y491751D01*
X538584Y490358D01*
X541158Y487784D01*
X542551Y484420D01*
X542551Y480780D01*
X541158Y477416D01*
X538584Y474842D01*
X535220Y473449D01*
X531580Y473449D01*
G37*
%LPD*%
%LPC*%
G36*
X366480Y460749D02*
X366480Y460749D01*
X363116Y462142D01*
X360542Y464716D01*
X359149Y468080D01*
X359149Y471720D01*
X360542Y475084D01*
X363116Y477658D01*
X366480Y479051D01*
X370120Y479051D01*
X373484Y477658D01*
X376058Y475084D01*
X377451Y471720D01*
X377451Y468080D01*
X376058Y464716D01*
X373484Y462142D01*
X370120Y460749D01*
X366480Y460749D01*
G37*
%LPD*%
%LPC*%
G36*
X556980Y448049D02*
X556980Y448049D01*
X553616Y449442D01*
X551042Y452016D01*
X549649Y455380D01*
X549649Y459020D01*
X551042Y462384D01*
X553616Y464958D01*
X556980Y466351D01*
X560620Y466351D01*
X563984Y464958D01*
X566558Y462384D01*
X567951Y459020D01*
X567951Y455380D01*
X566558Y452016D01*
X563984Y449442D01*
X560620Y448049D01*
X556980Y448049D01*
G37*
%LPD*%
%LPC*%
G36*
X571409Y445383D02*
X571409Y445383D01*
X569349Y447443D01*
X569349Y450357D01*
X571409Y452417D01*
X574323Y452417D01*
X574531Y452208D01*
X574600Y452156D01*
X574664Y452097D01*
X574713Y452072D01*
X574757Y452039D01*
X574838Y452008D01*
X574915Y451969D01*
X574969Y451959D01*
X575021Y451940D01*
X575107Y451933D01*
X575192Y451917D01*
X575247Y451922D01*
X575302Y451918D01*
X575387Y451935D01*
X575473Y451944D01*
X575524Y451964D01*
X575578Y451975D01*
X575654Y452016D01*
X575735Y452048D01*
X575778Y452082D01*
X575827Y452108D01*
X575889Y452168D01*
X575957Y452222D01*
X575990Y452266D01*
X576029Y452305D01*
X576072Y452380D01*
X576122Y452450D01*
X576141Y452502D01*
X576168Y452550D01*
X576188Y452635D01*
X576217Y452716D01*
X576220Y452771D01*
X576233Y452824D01*
X576228Y452911D01*
X576233Y452998D01*
X576221Y453047D01*
X576218Y453106D01*
X576181Y453214D01*
X576161Y453297D01*
X575622Y454598D01*
X575502Y455201D01*
X582201Y455201D01*
X582201Y448502D01*
X581598Y448622D01*
X579974Y449295D01*
X578513Y450271D01*
X578089Y450696D01*
X578063Y450715D01*
X578042Y450739D01*
X577950Y450799D01*
X577863Y450865D01*
X577833Y450876D01*
X577806Y450894D01*
X577701Y450926D01*
X577599Y450964D01*
X577567Y450967D01*
X577536Y450976D01*
X577427Y450978D01*
X577318Y450986D01*
X577286Y450980D01*
X577254Y450980D01*
X577149Y450951D01*
X577042Y450929D01*
X577013Y450913D01*
X576982Y450905D01*
X576889Y450847D01*
X576793Y450796D01*
X576770Y450774D01*
X576742Y450757D01*
X576669Y450676D01*
X576591Y450599D01*
X576575Y450571D01*
X576553Y450547D01*
X576506Y450449D01*
X576452Y450354D01*
X576444Y450323D01*
X576430Y450294D01*
X576416Y450204D01*
X576387Y450080D01*
X576389Y450031D01*
X576383Y449989D01*
X576383Y447443D01*
X574323Y445383D01*
X571409Y445383D01*
G37*
%LPD*%
%LPC*%
G36*
X373736Y443183D02*
X373736Y443183D01*
X371383Y445536D01*
X371383Y448864D01*
X373736Y451217D01*
X377064Y451217D01*
X379417Y448864D01*
X379417Y445536D01*
X377064Y443183D01*
X373736Y443183D01*
G37*
%LPD*%
%LPC*%
G36*
X214743Y446383D02*
X214743Y446383D01*
X212683Y448443D01*
X212683Y451357D01*
X214743Y453417D01*
X217657Y453417D01*
X219717Y451357D01*
X219717Y448443D01*
X217657Y446383D01*
X214743Y446383D01*
G37*
%LPD*%
%LPC*%
G36*
X203243Y471383D02*
X203243Y471383D01*
X201183Y473443D01*
X201183Y476357D01*
X203243Y478417D01*
X206157Y478417D01*
X208217Y476357D01*
X208217Y473443D01*
X206157Y471383D01*
X203243Y471383D01*
G37*
%LPD*%
%LPC*%
G36*
X224343Y471283D02*
X224343Y471283D01*
X222283Y473343D01*
X222283Y476257D01*
X224343Y478317D01*
X227257Y478317D01*
X229317Y476257D01*
X229317Y473343D01*
X227257Y471283D01*
X224343Y471283D01*
G37*
%LPD*%
%LPC*%
G36*
X506543Y368483D02*
X506543Y368483D01*
X504483Y370543D01*
X504483Y373457D01*
X506543Y375517D01*
X509457Y375517D01*
X511517Y373457D01*
X511517Y370543D01*
X509457Y368483D01*
X506543Y368483D01*
G37*
%LPD*%
%LPC*%
G36*
X447843Y366583D02*
X447843Y366583D01*
X445783Y368643D01*
X445783Y371557D01*
X447843Y373617D01*
X450757Y373617D01*
X452817Y371557D01*
X452817Y368643D01*
X450757Y366583D01*
X447843Y366583D01*
G37*
%LPD*%
%LPC*%
G36*
X516543Y358483D02*
X516543Y358483D01*
X514483Y360543D01*
X514483Y363457D01*
X516543Y365517D01*
X519457Y365517D01*
X521517Y363457D01*
X521517Y360543D01*
X519457Y358483D01*
X516543Y358483D01*
G37*
%LPD*%
%LPC*%
G36*
X486543Y358483D02*
X486543Y358483D01*
X484483Y360543D01*
X484483Y363457D01*
X486543Y365517D01*
X489457Y365517D01*
X491517Y363457D01*
X491517Y360543D01*
X489457Y358483D01*
X486543Y358483D01*
G37*
%LPD*%
%LPC*%
G36*
X526543Y358483D02*
X526543Y358483D01*
X524483Y360543D01*
X524483Y363457D01*
X526543Y365517D01*
X529457Y365517D01*
X531517Y363457D01*
X531517Y360543D01*
X529457Y358483D01*
X526543Y358483D01*
G37*
%LPD*%
%LPC*%
G36*
X506543Y358483D02*
X506543Y358483D01*
X504483Y360543D01*
X504483Y363457D01*
X506543Y365517D01*
X509457Y365517D01*
X511517Y363457D01*
X511517Y360543D01*
X509457Y358483D01*
X506543Y358483D01*
G37*
%LPD*%
%LPC*%
G36*
X496543Y358483D02*
X496543Y358483D01*
X494483Y360543D01*
X494483Y363457D01*
X496543Y365517D01*
X499457Y365517D01*
X501517Y363457D01*
X501517Y360543D01*
X499457Y358483D01*
X496543Y358483D01*
G37*
%LPD*%
%LPC*%
G36*
X506543Y348483D02*
X506543Y348483D01*
X504483Y350543D01*
X504483Y353457D01*
X506543Y355517D01*
X509457Y355517D01*
X511517Y353457D01*
X511517Y350543D01*
X509457Y348483D01*
X506543Y348483D01*
G37*
%LPD*%
%LPC*%
G36*
X496543Y348483D02*
X496543Y348483D01*
X494483Y350543D01*
X494483Y353457D01*
X496543Y355517D01*
X499457Y355517D01*
X501517Y353457D01*
X501517Y350543D01*
X499457Y348483D01*
X496543Y348483D01*
G37*
%LPD*%
%LPC*%
G36*
X526543Y348483D02*
X526543Y348483D01*
X524483Y350543D01*
X524483Y353457D01*
X526543Y355517D01*
X529457Y355517D01*
X531517Y353457D01*
X531517Y350543D01*
X529457Y348483D01*
X526543Y348483D01*
G37*
%LPD*%
%LPC*%
G36*
X516543Y348483D02*
X516543Y348483D01*
X514483Y350543D01*
X514483Y353457D01*
X516543Y355517D01*
X519457Y355517D01*
X521517Y353457D01*
X521517Y350543D01*
X519457Y348483D01*
X516543Y348483D01*
G37*
%LPD*%
%LPC*%
G36*
X493543Y407083D02*
X493543Y407083D01*
X491483Y409143D01*
X491483Y412057D01*
X493543Y414117D01*
X496457Y414117D01*
X498517Y412057D01*
X498517Y409143D01*
X496457Y407083D01*
X493543Y407083D01*
G37*
%LPD*%
%LPC*%
G36*
X483443Y406783D02*
X483443Y406783D01*
X481383Y408843D01*
X481383Y411757D01*
X483443Y413817D01*
X486357Y413817D01*
X488417Y411757D01*
X488417Y408843D01*
X486357Y406783D01*
X483443Y406783D01*
G37*
%LPD*%
%LPC*%
G36*
X452643Y406583D02*
X452643Y406583D01*
X450583Y408643D01*
X450583Y411557D01*
X452643Y413617D01*
X455557Y413617D01*
X457617Y411557D01*
X457617Y408643D01*
X455557Y406583D01*
X452643Y406583D01*
G37*
%LPD*%
%LPC*%
G36*
X452643Y396783D02*
X452643Y396783D01*
X450583Y398843D01*
X450583Y401757D01*
X452643Y403817D01*
X455557Y403817D01*
X457617Y401757D01*
X457617Y398843D01*
X455557Y396783D01*
X452643Y396783D01*
G37*
%LPD*%
%LPC*%
G36*
X483843Y392083D02*
X483843Y392083D01*
X481783Y394143D01*
X481783Y397057D01*
X483843Y399117D01*
X486757Y399117D01*
X488817Y397057D01*
X488817Y394143D01*
X486757Y392083D01*
X483843Y392083D01*
G37*
%LPD*%
%LPC*%
G36*
X448043Y386583D02*
X448043Y386583D01*
X445983Y388643D01*
X445983Y391557D01*
X448043Y393617D01*
X450957Y393617D01*
X453017Y391557D01*
X453017Y388643D01*
X450957Y386583D01*
X448043Y386583D01*
G37*
%LPD*%
%LPC*%
G36*
X544643Y385283D02*
X544643Y385283D01*
X542583Y387343D01*
X542583Y390257D01*
X544643Y392317D01*
X547557Y392317D01*
X549617Y390257D01*
X549617Y387343D01*
X547557Y385283D01*
X544643Y385283D01*
G37*
%LPD*%
%LPC*%
G36*
X486543Y378483D02*
X486543Y378483D01*
X484483Y380543D01*
X484483Y383457D01*
X486543Y385517D01*
X489457Y385517D01*
X491517Y383457D01*
X491517Y380543D01*
X489457Y378483D01*
X486543Y378483D01*
G37*
%LPD*%
%LPC*%
G36*
X506543Y378483D02*
X506543Y378483D01*
X504483Y380543D01*
X504483Y383457D01*
X506543Y385517D01*
X509457Y385517D01*
X511517Y383457D01*
X511517Y380543D01*
X509457Y378483D01*
X506543Y378483D01*
G37*
%LPD*%
%LPC*%
G36*
X516543Y378483D02*
X516543Y378483D01*
X514483Y380543D01*
X514483Y383457D01*
X516543Y385517D01*
X519457Y385517D01*
X521517Y383457D01*
X521517Y380543D01*
X519457Y378483D01*
X516543Y378483D01*
G37*
%LPD*%
%LPC*%
G36*
X526543Y378483D02*
X526543Y378483D01*
X524483Y380543D01*
X524483Y383457D01*
X526543Y385517D01*
X529457Y385517D01*
X531517Y383457D01*
X531517Y380543D01*
X529457Y378483D01*
X526543Y378483D01*
G37*
%LPD*%
%LPC*%
G36*
X496543Y378483D02*
X496543Y378483D01*
X494483Y380543D01*
X494483Y383457D01*
X496543Y385517D01*
X499457Y385517D01*
X501517Y383457D01*
X501517Y380543D01*
X499457Y378483D01*
X496543Y378483D01*
G37*
%LPD*%
%LPC*%
G36*
X447843Y376383D02*
X447843Y376383D01*
X445783Y378443D01*
X445783Y381357D01*
X447843Y383417D01*
X450757Y383417D01*
X452817Y381357D01*
X452817Y378443D01*
X450757Y376383D01*
X447843Y376383D01*
G37*
%LPD*%
%LPC*%
G36*
X577843Y371483D02*
X577843Y371483D01*
X575783Y373543D01*
X575783Y376457D01*
X577843Y378517D01*
X580757Y378517D01*
X582817Y376457D01*
X582817Y373543D01*
X580757Y371483D01*
X577843Y371483D01*
G37*
%LPD*%
%LPC*%
G36*
X516543Y368483D02*
X516543Y368483D01*
X514483Y370543D01*
X514483Y373457D01*
X516543Y375517D01*
X519457Y375517D01*
X521517Y373457D01*
X521517Y370543D01*
X519457Y368483D01*
X516543Y368483D01*
G37*
%LPD*%
%LPC*%
G36*
X486543Y368483D02*
X486543Y368483D01*
X484483Y370543D01*
X484483Y373457D01*
X486543Y375517D01*
X489457Y375517D01*
X491517Y373457D01*
X491517Y370543D01*
X489457Y368483D01*
X486543Y368483D01*
G37*
%LPD*%
%LPC*%
G36*
X526543Y368483D02*
X526543Y368483D01*
X524483Y370543D01*
X524483Y373457D01*
X526543Y375517D01*
X529457Y375517D01*
X531517Y373457D01*
X531517Y370543D01*
X529457Y368483D01*
X526543Y368483D01*
G37*
%LPD*%
%LPC*%
G36*
X496543Y368483D02*
X496543Y368483D01*
X494483Y370543D01*
X494483Y373457D01*
X496543Y375517D01*
X499457Y375517D01*
X501517Y373457D01*
X501517Y370543D01*
X499457Y368483D01*
X496543Y368483D01*
G37*
%LPD*%
%LPC*%
G36*
X367759Y509999D02*
X367759Y509999D01*
X367759Y516698D01*
X368362Y516578D01*
X369986Y515905D01*
X371447Y514929D01*
X372689Y513687D01*
X373665Y512226D01*
X374338Y510602D01*
X374458Y509999D01*
X367759Y509999D01*
G37*
%LPD*%
%LPC*%
G36*
X586199Y459199D02*
X586199Y459199D01*
X586199Y465898D01*
X586802Y465778D01*
X588426Y465105D01*
X589887Y464129D01*
X591129Y462887D01*
X592105Y461426D01*
X592778Y459802D01*
X592898Y459199D01*
X586199Y459199D01*
G37*
%LPD*%
%LPC*%
G36*
X281399Y408399D02*
X281399Y408399D01*
X281399Y415098D01*
X282002Y414978D01*
X283626Y414305D01*
X285087Y413329D01*
X286329Y412087D01*
X287305Y410626D01*
X287978Y409002D01*
X288098Y408399D01*
X281399Y408399D01*
G37*
%LPD*%
%LPC*%
G36*
X357062Y509999D02*
X357062Y509999D01*
X357182Y510602D01*
X357855Y512226D01*
X358831Y513687D01*
X360073Y514929D01*
X361534Y515905D01*
X363158Y516578D01*
X363761Y516698D01*
X363761Y509999D01*
X357062Y509999D01*
G37*
%LPD*%
%LPC*%
G36*
X367759Y506001D02*
X367759Y506001D01*
X374458Y506001D01*
X374338Y505398D01*
X373665Y503774D01*
X372689Y502313D01*
X371447Y501071D01*
X369986Y500095D01*
X368362Y499422D01*
X367759Y499302D01*
X367759Y506001D01*
G37*
%LPD*%
%LPC*%
G36*
X575502Y459199D02*
X575502Y459199D01*
X575622Y459802D01*
X576295Y461426D01*
X577271Y462887D01*
X578513Y464129D01*
X579974Y465105D01*
X581598Y465778D01*
X582201Y465898D01*
X582201Y459199D01*
X575502Y459199D01*
G37*
%LPD*%
%LPC*%
G36*
X586199Y455201D02*
X586199Y455201D01*
X592898Y455201D01*
X592778Y454598D01*
X592105Y452974D01*
X591129Y451513D01*
X589887Y450271D01*
X588426Y449295D01*
X586802Y448622D01*
X586199Y448502D01*
X586199Y455201D01*
G37*
%LPD*%
%LPC*%
G36*
X270702Y408399D02*
X270702Y408399D01*
X270822Y409002D01*
X271495Y410626D01*
X272471Y412087D01*
X273713Y413329D01*
X275174Y414305D01*
X276798Y414978D01*
X277401Y415098D01*
X277401Y408399D01*
X270702Y408399D01*
G37*
%LPD*%
%LPC*%
G36*
X281399Y404401D02*
X281399Y404401D01*
X288098Y404401D01*
X287978Y403798D01*
X287305Y402174D01*
X286329Y400713D01*
X285087Y399471D01*
X283626Y398495D01*
X282002Y397822D01*
X281399Y397702D01*
X281399Y404401D01*
G37*
%LPD*%
%LPC*%
G36*
X363158Y499422D02*
X363158Y499422D01*
X361534Y500095D01*
X360073Y501071D01*
X358831Y502313D01*
X357855Y503774D01*
X357182Y505398D01*
X357062Y506001D01*
X363761Y506001D01*
X363761Y499302D01*
X363158Y499422D01*
G37*
%LPD*%
%LPC*%
G36*
X276798Y397822D02*
X276798Y397822D01*
X275174Y398495D01*
X273713Y399471D01*
X272471Y400713D01*
X271495Y402174D01*
X270822Y403798D01*
X270702Y404401D01*
X277401Y404401D01*
X277401Y397702D01*
X276798Y397822D01*
G37*
%LPD*%
%LPC*%
G36*
X365759Y507999D02*
X365759Y507999D01*
X365759Y508001D01*
X365761Y508001D01*
X365761Y507999D01*
X365759Y507999D01*
G37*
%LPD*%
%LPC*%
G36*
X584199Y457199D02*
X584199Y457199D01*
X584199Y457201D01*
X584201Y457201D01*
X584201Y457199D01*
X584199Y457199D01*
G37*
%LPD*%
%LPC*%
G36*
X279399Y406399D02*
X279399Y406399D01*
X279399Y406401D01*
X279401Y406401D01*
X279401Y406399D01*
X279399Y406399D01*
G37*
%LPD*%
D10*
X457200Y482600D03*
X457200Y508000D03*
X482600Y482600D03*
X482600Y508000D03*
X508000Y482600D03*
X508000Y508000D03*
X533400Y482600D03*
X533400Y508000D03*
X558800Y482600D03*
X558800Y508000D03*
X584200Y482600D03*
X584200Y508000D03*
X609600Y482600D03*
X609600Y508000D03*
X635000Y482600D03*
X635000Y508000D03*
X279400Y25400D03*
X279400Y50800D03*
X304800Y25400D03*
X304800Y50800D03*
X330200Y25400D03*
X330200Y50800D03*
X355600Y25400D03*
X355600Y50800D03*
X381000Y25400D03*
X381000Y50800D03*
X406400Y25400D03*
X406400Y50800D03*
X431800Y25400D03*
X431800Y50800D03*
X457200Y25400D03*
X457200Y50800D03*
X187960Y508000D03*
X213360Y508000D03*
X238760Y508000D03*
X264160Y508000D03*
X289560Y508000D03*
X314960Y508000D03*
X340360Y508000D03*
X365760Y508000D03*
X391160Y508000D03*
X416560Y508000D03*
X457200Y457200D03*
X482600Y457200D03*
X508000Y457200D03*
X533400Y457200D03*
X558800Y457200D03*
X584200Y457200D03*
X609600Y457200D03*
X635000Y457200D03*
X508000Y25400D03*
X533400Y25400D03*
X558800Y25400D03*
X584200Y25400D03*
X609600Y25400D03*
X635000Y25400D03*
X279400Y228600D03*
X279400Y254000D03*
X279400Y279400D03*
X279400Y304800D03*
X330200Y304800D03*
X330200Y279400D03*
X330200Y254000D03*
X330200Y228600D03*
X152400Y266700D03*
X177800Y266700D03*
X203200Y266700D03*
X228600Y266700D03*
X317500Y469900D03*
X342900Y469900D03*
X368300Y469900D03*
X393700Y469900D03*
X279400Y330200D03*
X279400Y355600D03*
X279400Y381000D03*
X279400Y406400D03*
X279400Y431800D03*
X279400Y457200D03*
X457200Y88900D03*
X431800Y88900D03*
X406400Y88900D03*
X381000Y88900D03*
D11*
X434340Y152400D03*
X434340Y127000D03*
X103900Y366200D03*
X355600Y88900D03*
X105100Y331400D03*
X80000Y202100D03*
X635000Y431800D03*
D12*
X94200Y350200D03*
X64600Y332000D03*
X94800Y310000D03*
X94600Y285200D03*
X64600Y268200D03*
X65000Y182000D03*
X80600Y181800D03*
X106200Y182600D03*
X89600Y163000D03*
X89600Y140000D03*
X89800Y126800D03*
X64400Y117800D03*
X108800Y141000D03*
X110800Y120000D03*
X89600Y95000D03*
X20000Y74600D03*
X40000Y74600D03*
X70000Y74400D03*
X90000Y74400D03*
X15200Y47600D03*
X65200Y47200D03*
X175000Y47400D03*
X225200Y47400D03*
X235000Y74600D03*
X195000Y74400D03*
X181800Y140600D03*
X352000Y177000D03*
X362000Y177000D03*
X372000Y177000D03*
X382000Y177000D03*
X392000Y177000D03*
X392000Y167000D03*
X382000Y167000D03*
X372000Y167000D03*
X362000Y167000D03*
X352000Y167000D03*
X352000Y157000D03*
X362000Y157000D03*
X372000Y157000D03*
X382000Y157000D03*
X392000Y157000D03*
X392000Y147000D03*
X382000Y147000D03*
X372000Y147000D03*
X362000Y147000D03*
X352000Y147000D03*
X352000Y137000D03*
X362000Y137000D03*
X372000Y137000D03*
X382000Y137000D03*
X392000Y137000D03*
X488000Y382000D03*
X498000Y382000D03*
X508000Y382000D03*
X518000Y382000D03*
X528000Y382000D03*
X528000Y372000D03*
X518000Y372000D03*
X508000Y372000D03*
X498000Y372000D03*
X488000Y372000D03*
X488000Y362000D03*
X498000Y362000D03*
X508000Y362000D03*
X518000Y362000D03*
X528000Y362000D03*
X528000Y352000D03*
X518000Y352000D03*
X508000Y352000D03*
X498000Y352000D03*
X488000Y352000D03*
X488000Y342000D03*
X498000Y342000D03*
X508000Y342000D03*
X518000Y342000D03*
X528000Y342000D03*
X310400Y444600D03*
X350500Y444700D03*
X319300Y394600D03*
X327800Y410300D03*
X359400Y394400D03*
X368400Y409900D03*
X390300Y444400D03*
X407700Y410000D03*
X399800Y394400D03*
X454100Y410100D03*
X454100Y400300D03*
X449500Y390100D03*
X449300Y379900D03*
X449300Y370100D03*
X470100Y414600D03*
X533400Y411300D03*
X559900Y420500D03*
X579500Y404900D03*
X579300Y375000D03*
X584500Y350200D03*
X579400Y335000D03*
X574500Y253800D03*
X574400Y231300D03*
X574400Y208600D03*
X574500Y185600D03*
X554500Y242500D03*
X554300Y227600D03*
X554200Y212500D03*
X554300Y197500D03*
X496200Y149500D03*
X514600Y95700D03*
X379900Y115700D03*
X408600Y247300D03*
X385100Y364400D03*
X145700Y474900D03*
X204700Y474900D03*
X225800Y474800D03*
X216200Y449900D03*
X342000Y211100D03*
X431200Y168700D03*
X416000Y108200D03*
X323900Y116900D03*
X536100Y315100D03*
X499600Y101000D03*
D13*
X30000Y418000D03*
X52000Y392000D03*
D12*
X482600Y30300D03*
X434000Y425600D03*
X80500Y140000D03*
X64600Y126100D03*
X129600Y119900D03*
X106500Y161200D03*
X106100Y173500D03*
X80500Y173000D03*
X64900Y174000D03*
D14*
X129600Y138100D02*
X129600Y119900D01*
X129600Y138100D02*
X106500Y161200D01*
X106500Y173100D01*
X106100Y173500D01*
X98116Y159473D02*
X93128Y154484D01*
X86073Y154484D01*
X81084Y159473D01*
X98116Y159473D02*
X98116Y165516D01*
X81084Y172416D02*
X80500Y173000D01*
X98116Y165516D02*
X106100Y173500D01*
X81084Y172416D02*
X81084Y159473D01*
X80500Y173000D02*
X66485Y173000D01*
D15*
X78500Y140000D02*
X64600Y126100D01*
D14*
X78500Y140000D02*
X80500Y140000D01*
X80500Y148912D01*
X86073Y154484D01*
D16*
X65485Y174000D02*
X64900Y174000D01*
X65485Y174000D02*
X66485Y173000D01*
D12*
X30000Y74600D03*
X207100Y140500D03*
X259000Y74500D03*
X426500Y111020D03*
X534700Y96600D03*
X583500Y320300D03*
X583100Y390300D03*
X595300Y434900D03*
X520100Y420500D03*
X369900Y368400D03*
X350400Y394600D03*
X341600Y419700D03*
X327400Y429300D03*
D14*
X332000Y429300D01*
X341600Y419700D01*
X350400Y410900D01*
X350400Y394600D01*
X520100Y420500D02*
X533300Y433700D01*
X583500Y327057D02*
X583500Y320300D01*
X583500Y327057D02*
X593016Y336573D01*
X593016Y380384D02*
X583100Y390300D01*
X593016Y380384D02*
X593016Y336573D01*
X534700Y96600D02*
X527544Y96600D01*
X518128Y87184D01*
X497016Y87184D01*
X475200Y109000D02*
X426500Y111020D01*
D16*
X40600Y85200D02*
X30000Y74600D01*
X40600Y85200D02*
X172800Y85200D01*
X207100Y119500D01*
X207100Y140500D01*
X207100Y126400D02*
X259000Y74500D01*
X207100Y126400D02*
X207100Y140500D01*
D14*
X302380Y479749D02*
X310651Y488020D01*
D12*
X319500Y444700D03*
X341900Y202100D03*
X407000Y108200D03*
X422200Y168700D03*
X395000Y215500D03*
D14*
X390984Y124216D02*
X376373Y124216D01*
X390984Y124216D02*
X407000Y108200D01*
X407484Y111728D02*
X412473Y116716D01*
X419528Y116716D01*
X407484Y108684D02*
X407000Y108200D01*
X407484Y108684D02*
X407484Y111728D01*
X419528Y116716D02*
X427244Y109000D01*
X426500Y111020D01*
X418900Y120100D01*
X418900Y165400D02*
X422200Y168700D01*
X418900Y165400D02*
X418900Y120100D01*
X422200Y168700D02*
X395000Y195900D01*
X395000Y215500D01*
X381600Y202100D01*
X341900Y202100D01*
X395000Y215500D02*
X395000Y312857D01*
X475200Y109000D02*
X497016Y87184D01*
X365760Y493360D02*
X365760Y508000D01*
X360420Y488020D02*
X310651Y488020D01*
X360420Y488020D02*
X365760Y493360D01*
X584200Y457200D02*
X584200Y443291D01*
D12*
X575400Y437000D03*
D14*
X584200Y443291D02*
X592591Y434900D01*
X595300Y434900D01*
X581691Y443291D02*
X575400Y437000D01*
X581691Y443291D02*
X584200Y443291D01*
X575400Y437000D02*
X558744Y437000D01*
X555444Y433700D02*
X533300Y433700D01*
X555444Y433700D02*
X558744Y437000D01*
D17*
X494500Y70900D03*
D14*
X494500Y84668D01*
X497016Y87184D01*
X336061Y11250D02*
X324339Y11250D01*
X350211Y25400D02*
X355600Y25400D01*
X310189Y25400D02*
X304800Y25400D01*
X336061Y11250D02*
X350211Y25400D01*
X324339Y11250D02*
X310189Y25400D01*
X285261Y11250D02*
X273539Y11250D01*
X265250Y19539D01*
X265250Y56661D02*
X268500Y59911D01*
X265250Y56661D02*
X265250Y19539D01*
X299411Y25400D02*
X304800Y25400D01*
X299411Y25400D02*
X285261Y11250D01*
X268500Y68200D02*
X273800Y73500D01*
D17*
X273800Y73500D03*
D14*
X268500Y68200D02*
X268500Y59911D01*
D12*
X340100Y116900D03*
D14*
X369057Y116900D01*
X376373Y124216D01*
X279400Y279400D02*
X241300Y279400D01*
X228600Y266700D01*
X279400Y279400D02*
X316050Y242750D01*
X341416Y202584D02*
X341900Y202100D01*
X316050Y222739D02*
X316050Y242750D01*
X316050Y222739D02*
X336205Y202584D01*
X341416Y202584D01*
X318916Y445284D02*
X318916Y448128D01*
X318916Y445284D02*
X319500Y444700D01*
X318916Y448128D02*
X302380Y464664D01*
X302380Y479749D01*
X319500Y444700D02*
X327400Y436800D01*
X327400Y429300D01*
X369900Y368400D02*
X369900Y337957D01*
X395000Y312857D01*
X350884Y394116D02*
X350400Y394600D01*
X350884Y394116D02*
X350884Y390873D01*
X369900Y371857D02*
X369900Y368400D01*
X369900Y371857D02*
X350884Y390873D01*
D12*
X473700Y120300D03*
D17*
X459134Y129100D03*
D12*
X474407Y128707D03*
D17*
X455334Y142600D03*
D12*
X302100Y419400D03*
X310200Y394600D03*
D14*
X302100Y419400D02*
X289700Y431800D01*
X302100Y419400D02*
X310200Y411300D01*
X310200Y394600D01*
D13*
X306500Y276200D03*
X314600Y340900D03*
D18*
X314600Y368800D02*
X308300Y375100D01*
X314600Y368800D02*
X314600Y340900D01*
D14*
X308300Y375100D02*
X310200Y377000D01*
X310200Y394600D01*
D18*
X318416Y135301D02*
X309700Y126585D01*
X318416Y192199D02*
X303399Y207216D01*
X318416Y192199D02*
X318416Y135301D01*
X374750Y31650D02*
X381000Y25400D01*
D14*
X303399Y207216D02*
X282015Y228600D01*
X279400Y228600D01*
X215900Y228600D02*
X177800Y266700D01*
X215900Y228600D02*
X279400Y228600D01*
X279400Y431800D02*
X289700Y431800D01*
D18*
X309700Y72982D02*
X317500Y65182D01*
D14*
X317500Y58111D01*
D19*
X317500Y45610D01*
X368350Y38050D02*
X374750Y31650D01*
X325060Y38050D02*
X317500Y45610D01*
X325060Y38050D02*
X368350Y38050D01*
D18*
X309700Y72982D02*
X309700Y126585D01*
D20*
X375400Y447200D03*
D12*
X494400Y167500D03*
X452312Y133300D03*
D21*
X440640Y133300D01*
X434340Y127000D01*
D12*
X506300Y167400D03*
D21*
X506300Y139344D02*
X506788Y138855D01*
D12*
X506788Y138855D03*
X469117Y83017D03*
D21*
X506300Y139344D02*
X506300Y167400D01*
D12*
X546100Y388800D03*
X506300Y212500D03*
D21*
X508400Y210400D01*
D12*
X550800Y122800D03*
D21*
X550800Y127380D02*
X548128Y130051D01*
X548128Y146972D01*
X512433Y171934D02*
X509934Y174433D01*
X509934Y175466D01*
X512433Y171934D02*
X523166Y171934D01*
X508400Y177000D02*
X508400Y210400D01*
X550800Y127380D02*
X550800Y122800D01*
X548128Y146972D02*
X523166Y171934D01*
X509934Y175466D02*
X508400Y177000D01*
D12*
X457553Y290453D03*
X494300Y212500D03*
D21*
X486566Y220234D01*
X479290Y220234D01*
X479124Y220400D01*
X460700Y220400D01*
X457891Y290114D02*
X457553Y290453D01*
D12*
X534566Y402984D03*
D21*
X460254Y220846D02*
X460700Y220400D01*
X460254Y220846D02*
X460254Y220855D01*
X456675Y224434D02*
X451833Y224434D01*
X456675Y224434D02*
X460254Y220855D01*
X451833Y224434D02*
X449334Y226933D01*
X456043Y255001D02*
X457891Y256848D01*
X449334Y230467D02*
X449334Y226933D01*
X457891Y256848D02*
X457891Y290114D01*
X456043Y255001D02*
X456043Y237176D01*
X449334Y230467D01*
D12*
X557002Y135034D03*
D21*
X557002Y143302D01*
X559534Y145834D01*
X559534Y177266D01*
D12*
X554300Y182500D03*
D21*
X559534Y177266D01*
D12*
X523000Y75600D03*
D21*
X502100Y53500D02*
X477685Y53500D01*
X457985Y73200D02*
X443000Y73200D01*
X431800Y84400D01*
X431800Y88900D01*
X457985Y73200D02*
X477685Y53500D01*
X512334Y72867D02*
X515067Y75600D01*
X523000Y75600D01*
X512334Y63734D02*
X502100Y53500D01*
X512334Y63734D02*
X512334Y72867D01*
D12*
X552394Y131818D03*
D21*
X552394Y144694D01*
X556534Y148834D01*
X545666Y178234D02*
X540533Y178234D01*
X537800Y180967D01*
X540533Y201766D02*
X542666Y201766D01*
X548400Y207500D01*
X540533Y201766D02*
X537800Y199033D01*
X548400Y207500D02*
X548400Y221500D01*
X556534Y167366D02*
X556534Y148834D01*
X556534Y167366D02*
X545666Y178234D01*
X537800Y180967D02*
X537800Y199033D01*
D12*
X542300Y227600D03*
D21*
X548400Y221500D01*
X406400Y88900D02*
X425100Y70200D01*
X476443Y50500D02*
X506200Y50500D01*
X476443Y50500D02*
X456743Y70200D01*
X425100Y70200D01*
D12*
X516600Y71100D03*
D21*
X516600Y60900D01*
X506200Y50500D01*
D12*
X399500Y444600D03*
X407900Y429300D03*
X469000Y430600D03*
X579600Y365200D03*
D14*
X399500Y444600D02*
X399500Y464100D01*
X399500Y444600D02*
X407900Y436200D01*
X407900Y429300D01*
X570784Y381816D02*
X570784Y371473D01*
X570784Y381816D02*
X552300Y400300D01*
X577057Y365200D02*
X579600Y365200D01*
X577057Y365200D02*
X570784Y371473D01*
X552300Y400300D02*
X544400Y400300D01*
X535000Y390900D01*
D22*
X453800Y430400D02*
X440172Y430400D01*
D14*
X453800Y430400D02*
X458100Y426100D01*
X464500Y426100D01*
X469000Y430600D01*
X470100Y430600D01*
X399500Y464100D02*
X393700Y469900D01*
X489822Y403178D02*
X502100Y390900D01*
D19*
X481994Y403284D02*
X477884Y407394D01*
X489716Y403284D02*
X489822Y403178D01*
X477884Y422816D02*
X470100Y430600D01*
X481994Y403284D02*
X489716Y403284D01*
X477884Y407394D02*
X477884Y422816D01*
D14*
X502100Y390900D02*
X535000Y390900D01*
X411700Y433100D02*
X407900Y429300D01*
X411700Y433100D02*
X429457Y433100D01*
X429835Y433479D01*
D15*
X437093Y433479D01*
X440172Y430400D01*
D12*
X434400Y342600D03*
X425516Y407951D03*
X434300Y452800D03*
D21*
X472700Y472700D02*
X482600Y482600D01*
X434300Y462600D02*
X434300Y452800D01*
X444400Y472700D02*
X472700Y472700D01*
X444400Y472700D02*
X434300Y462600D01*
D12*
X359500Y444500D03*
X368000Y429300D03*
X381700Y419900D03*
X390400Y394600D03*
D15*
X368000Y436000D02*
X359500Y444500D01*
X368000Y436000D02*
X368000Y429300D01*
X377400Y419900D01*
X381700Y419900D01*
X390400Y411200D01*
X390400Y394600D01*
D12*
X527200Y315200D03*
D14*
X359500Y444500D02*
X359016Y444984D01*
X359016Y448228D01*
X342900Y464344D01*
D15*
X419972Y360500D02*
X429572Y350900D01*
X402900Y360500D02*
X402200Y361200D01*
D20*
X402200Y361200D03*
X392300Y381932D03*
D15*
X390400Y383832D01*
X390400Y394600D01*
X402900Y360500D02*
X419972Y360500D01*
X470484Y346300D02*
X470484Y334745D01*
X480745Y324484D01*
X517300Y324484D01*
X518800Y321608D02*
X522608Y317800D01*
X524600Y317800D01*
X527200Y315200D01*
X518800Y322984D02*
X517300Y324484D01*
X518800Y322984D02*
X518800Y321608D01*
X439528Y353400D02*
X437028Y350900D01*
X429572Y350900D01*
X443200Y353400D02*
X450200Y360400D01*
X456384Y360400D01*
X443200Y353400D02*
X439528Y353400D01*
X456384Y360400D02*
X470484Y346300D01*
D14*
X342900Y464344D02*
X342900Y469900D01*
D12*
X490700Y318400D03*
X530400Y227500D03*
D21*
X525100Y227500D01*
X506300Y246300D01*
X506300Y270957D01*
X497300Y279957D01*
X492500Y318400D02*
X490700Y318400D01*
X497300Y313600D02*
X497300Y279957D01*
X497300Y313600D02*
X492500Y318400D01*
D12*
X500300Y318400D03*
X511100Y248700D03*
D21*
X500300Y281200D02*
X500300Y318400D01*
D12*
X409000Y326100D03*
X386484Y307717D03*
D21*
X500300Y281200D02*
X509300Y272200D01*
X509300Y250500D02*
X511100Y248700D01*
X509300Y250500D02*
X509300Y272200D01*
D12*
X485200Y316900D03*
X518300Y227500D03*
X439200Y260800D03*
D21*
X434000Y255600D01*
X432300Y255600D01*
X428733Y252033D01*
X424533Y252033D01*
D12*
X424533Y252033D03*
D21*
X516900Y228900D02*
X518300Y227500D01*
X516900Y228900D02*
X516900Y231357D01*
X494300Y278715D02*
X494300Y312357D01*
X503300Y244957D02*
X516900Y231357D01*
X503300Y244957D02*
X503300Y269715D01*
X494300Y278715D01*
X494300Y312357D02*
X492523Y314134D01*
X486167Y316900D02*
X485200Y316900D01*
X488933Y314134D02*
X492523Y314134D01*
X488933Y314134D02*
X486167Y316900D01*
D12*
X424516Y274417D03*
X404184Y269466D03*
X482300Y227500D03*
D21*
X491300Y299000D02*
X488100Y302200D01*
X488100Y302700D01*
X488200Y302800D01*
D12*
X488200Y302800D03*
D21*
X491300Y274000D02*
X489600Y272300D01*
X489600Y234800D02*
X482300Y227500D01*
X491300Y274000D02*
X491300Y299000D01*
X489600Y272300D02*
X489600Y234800D01*
D12*
X370900Y247000D03*
X365700Y214200D03*
X474400Y165300D03*
D21*
X473400Y165300D01*
D12*
X464633Y174067D03*
D21*
X473400Y165300D01*
D12*
X411823Y231766D03*
D21*
X411500Y220466D02*
X411732Y220234D01*
D12*
X411732Y220234D03*
X474400Y150600D03*
D21*
X460300Y164700D01*
X460300Y181882D01*
X421716Y220466D02*
X411500Y220466D01*
X421716Y220466D02*
X460300Y181882D01*
X411823Y220325D02*
X411732Y220234D01*
X411823Y220325D02*
X411823Y231766D01*
D12*
X407000Y228766D03*
D21*
X406000Y220434D02*
X406200Y220234D01*
D12*
X406200Y220234D03*
X441267Y228367D03*
D21*
X441167Y228267D01*
X436733Y228267D01*
X435926Y229074D02*
X429434Y229074D01*
D12*
X429434Y229074D03*
D21*
X435926Y229074D02*
X436733Y228267D01*
X407000Y228766D02*
X406000Y227766D01*
X406000Y220434D01*
D12*
X453004Y216204D03*
X386484Y221068D03*
X385100Y226600D03*
X444088Y219088D03*
X258750Y150350D03*
X238200Y125100D03*
X284317Y142117D03*
X242300Y119768D03*
X409900Y158900D03*
X304900Y140900D03*
D21*
X292000Y140900D01*
X275600Y157300D01*
X265643Y157300D01*
X263277Y154934D01*
X252133Y154934D01*
X239267Y167800D02*
X237600Y167800D01*
X239267Y167800D02*
X252133Y154934D01*
X237600Y167500D02*
X237600Y167800D01*
D12*
X237600Y167500D03*
X206500Y152600D03*
X473266Y136350D03*
D16*
X472950Y136350D01*
X450734Y158566D02*
X450734Y158700D01*
D12*
X450734Y158700D03*
D16*
X450734Y158566D02*
X472950Y136350D01*
D12*
X253400Y90000D03*
X518300Y212500D03*
X460309Y247109D03*
D21*
X460309Y255024D01*
X460891Y255606D01*
X460891Y282091D01*
X461900Y283100D01*
X461900Y293800D01*
X460500Y295200D01*
D12*
X460500Y295200D03*
X460934Y300918D03*
D21*
X464900Y281857D02*
X463891Y280848D01*
X464900Y296952D02*
X460934Y300918D01*
X464900Y296952D02*
X464900Y281857D01*
D12*
X465934Y241484D03*
D21*
X464575Y248876D02*
X463891Y249561D01*
X464575Y242843D02*
X465934Y241484D01*
X464575Y242843D02*
X464575Y248876D01*
X463891Y249561D02*
X463891Y280848D01*
D12*
X530300Y212400D03*
X428700Y385300D03*
X515300Y405900D03*
X459645Y306450D03*
D21*
X460911Y305184D01*
X462701Y305184D01*
X467900Y280615D02*
X467575Y280290D01*
X467900Y299985D02*
X462701Y305184D01*
X467900Y299985D02*
X467900Y280615D01*
D12*
X542300Y212500D03*
X472600Y234500D03*
D21*
X470200Y236900D01*
X470200Y243252D02*
X467575Y245876D01*
X470200Y243252D02*
X470200Y236900D01*
X467575Y245876D02*
X467575Y280290D01*
D12*
X525284Y406800D03*
X433112Y381388D03*
X425516Y453734D03*
D21*
X425516Y466382D01*
X426000Y466866D01*
D12*
X426000Y466866D03*
X540200Y290400D03*
X530300Y182400D03*
X459903Y348198D03*
X405700Y381432D03*
X482300Y197400D03*
X431400Y334066D03*
X378600Y382166D03*
X475800Y157600D03*
D21*
X484068Y161550D02*
X487150Y164632D01*
X479750Y161550D02*
X475800Y157600D01*
X479750Y161550D02*
X484068Y161550D01*
X487150Y164632D02*
X487150Y171050D01*
X473954Y184246D02*
X473954Y184554D01*
D12*
X473954Y184554D03*
X433752Y241602D03*
D21*
X439584Y256534D02*
X440967Y256534D01*
D12*
X442559Y346884D03*
D21*
X445625Y343818D02*
X445625Y343117D01*
X445625Y343818D02*
X442559Y346884D01*
X473954Y184246D02*
X487150Y171050D01*
D12*
X485300Y395600D03*
X405600Y386964D03*
D21*
X419436Y386964D01*
X431351Y375049D02*
X434384Y375049D01*
D12*
X434384Y375049D03*
D21*
X431351Y375049D02*
X419436Y386964D01*
X443466Y259033D02*
X440967Y256534D01*
X437500Y315991D02*
X446891Y325382D01*
X446891Y341851D01*
X445625Y343117D01*
X434900Y289168D02*
X434900Y285220D01*
X434900Y289168D02*
X437500Y291768D01*
X434900Y285220D02*
X443466Y276654D01*
X443466Y259033D01*
X437500Y291768D02*
X437500Y315991D01*
X439584Y256534D02*
X433000Y249950D01*
X433000Y242353D02*
X433752Y241602D01*
X433000Y242353D02*
X433000Y249950D01*
D12*
X437883Y237383D03*
X462400Y377600D03*
X449891Y344884D03*
X405536Y399036D03*
D21*
X420164Y399036D01*
X427500Y391700D01*
D12*
X427500Y391700D03*
D21*
X449891Y344884D02*
X449891Y324139D01*
X440500Y314749D02*
X440500Y297343D01*
X440500Y314749D02*
X449891Y324139D01*
X449966Y283567D02*
X449966Y280033D01*
X449966Y283567D02*
X449100Y284433D01*
X449966Y280033D02*
X446466Y276533D01*
X449100Y288743D02*
X440500Y297343D01*
X446466Y276533D02*
X446466Y257790D01*
X449100Y284433D02*
X449100Y288743D01*
X442210Y253534D02*
X440827Y253534D01*
X442210Y253534D02*
X446466Y257790D01*
X436000Y248707D02*
X436000Y245386D01*
X438018Y243369D01*
X438018Y239834D01*
X437883Y239700D01*
X436000Y248707D02*
X440827Y253534D01*
X437883Y239700D02*
X437883Y237383D01*
D12*
X494300Y227500D03*
D21*
X480533Y223234D02*
X478034Y225733D01*
X490034Y223234D02*
X494300Y227500D01*
X490034Y223234D02*
X480533Y223234D01*
X478034Y229267D02*
X480533Y231766D01*
X482323Y231766D01*
X488300Y296667D02*
X483934Y301033D01*
X483934Y310366D01*
D12*
X452623Y353284D03*
D21*
X478034Y229267D02*
X478034Y225733D01*
X488300Y276229D02*
X488300Y296667D01*
D12*
X469500Y378900D03*
D21*
X454157Y340143D02*
X483934Y310366D01*
X454157Y340143D02*
X454157Y346651D01*
X452254Y348554D01*
X452254Y352915D01*
X452623Y353284D01*
D12*
X396416Y403616D03*
D21*
X422884Y403616D01*
X429581Y396919D02*
X430781Y396919D01*
D12*
X430781Y396919D03*
X463500Y387700D03*
D21*
X469500Y381700D01*
X469500Y378900D01*
X429581Y396919D02*
X422884Y403616D01*
X486600Y236043D02*
X482323Y231766D01*
X486600Y274529D02*
X488300Y276229D01*
X486600Y274529D02*
X486600Y236043D01*
D12*
X518300Y242500D03*
X471800Y373800D03*
D21*
X504671Y298671D02*
X504671Y281071D01*
X504671Y298671D02*
X508600Y302600D01*
X508400Y302800D01*
D12*
X508400Y302800D03*
D21*
X504671Y281071D02*
X512300Y273443D01*
X515366Y245434D02*
X518300Y242500D01*
X515366Y250467D02*
X512300Y253533D01*
X515366Y250467D02*
X515366Y245434D01*
X512300Y253533D02*
X512300Y273443D01*
D12*
X410984Y419100D03*
D21*
X420400Y419100D01*
X434900Y404600D02*
X435200Y404600D01*
D12*
X435200Y404600D03*
X463500Y400600D03*
D21*
X473766Y377133D02*
X471800Y375167D01*
X471800Y373800D01*
X473766Y390334D02*
X463500Y400600D01*
X473766Y390334D02*
X473766Y377133D01*
X434900Y404600D02*
X420400Y419100D01*
D12*
X539400Y442500D03*
X551400Y289900D03*
D21*
X537850Y440950D02*
X539400Y442500D01*
X537850Y440950D02*
X530297Y440950D01*
X527997Y438650D01*
X391160Y488398D02*
X391160Y508000D01*
X406750Y472808D02*
X406750Y449600D01*
X406750Y472808D02*
X391160Y488398D01*
X406750Y449600D02*
X410868Y445482D01*
X428085Y445482D02*
X434933Y438634D01*
X428085Y445482D02*
X410868Y445482D01*
X441534Y438634D02*
X444500Y441600D01*
X467890Y441600D01*
X468540Y440950D01*
X509650Y440950D01*
X511950Y438650D02*
X527997Y438650D01*
X441534Y438634D02*
X434933Y438634D01*
X509650Y440950D02*
X511950Y438650D01*
X537333Y447566D02*
X540867Y447566D01*
X544033Y444400D02*
X550500Y444400D01*
X544033Y444400D02*
X540867Y447566D01*
X550500Y444400D02*
X552300Y442600D01*
D12*
X552300Y442600D03*
X562900Y290000D03*
D21*
X414668Y448482D02*
X409750Y453400D01*
X409750Y475051D01*
X402200Y482601D01*
X402200Y493640D02*
X416560Y508000D01*
X533717Y443950D02*
X537333Y447566D01*
X402200Y482601D02*
X402200Y493640D01*
X495600Y446400D02*
X498050Y443950D01*
X487943Y444300D02*
X469433Y444300D01*
X466117Y447617D01*
X490043Y446400D02*
X495600Y446400D01*
X490043Y446400D02*
X487943Y444300D01*
X461301Y447300D02*
X453099Y447300D01*
X461617Y447617D02*
X466117Y447617D01*
X461617Y447617D02*
X461301Y447300D01*
X453099Y447300D02*
X450716Y449683D01*
X437217Y449683D01*
X436067Y448534D01*
X432533Y448534D01*
X431599Y449468D01*
X425900Y449468D01*
X424914Y448482D01*
X414668Y448482D01*
X498050Y443950D02*
X533717Y443950D01*
D12*
X482300Y242500D03*
X436225Y276700D03*
X421500Y287900D03*
X190400Y89300D03*
X415266Y349600D03*
X436166Y337000D03*
X185000Y65500D03*
X205100Y65600D03*
D21*
X185100Y65600D02*
X185000Y65500D01*
X185100Y65600D02*
X205100Y65600D01*
D12*
X424634Y279949D03*
X445700Y281800D03*
X529400Y290000D03*
X525300Y399600D03*
D21*
X529550Y405033D02*
X529550Y408567D01*
X525300Y400783D02*
X525300Y399600D01*
X529550Y408567D02*
X529134Y408983D01*
X529134Y414234D01*
X529550Y405033D02*
X525300Y400783D01*
X540100Y425200D02*
X597800Y425200D01*
X622100Y449500D01*
X622100Y474300D01*
X613800Y482600D01*
X609600Y482600D01*
X540100Y425200D02*
X529134Y414234D01*
D12*
X520300Y402300D03*
X525166Y448216D03*
X515400Y399600D03*
X478500Y434300D03*
D21*
X510600Y404400D02*
X515400Y399600D01*
X510600Y421800D02*
X499100Y433300D01*
X487267Y429934D02*
X483733Y429934D01*
X479367Y434300D02*
X478500Y434300D01*
X479367Y434300D02*
X483733Y429934D01*
X490633Y433300D02*
X499100Y433300D01*
X490633Y433300D02*
X487267Y429934D01*
X510600Y421800D02*
X510600Y404400D01*
D12*
X431700Y415400D03*
X96800Y74800D03*
X485500Y434200D03*
X472443Y451566D03*
D21*
X503477Y482600D02*
X508000Y482600D01*
X478499Y467100D02*
X472700Y461301D01*
X472700Y451823D02*
X472443Y451566D01*
X487977Y467100D02*
X503477Y482600D01*
X472700Y461301D02*
X472700Y451823D01*
X478499Y467100D02*
X487977Y467100D01*
D12*
X484900Y410300D03*
X506400Y433700D03*
X495000Y410600D03*
X505100Y410700D03*
X565534Y137101D03*
D21*
X565534Y185466D01*
X558000Y193000D01*
D12*
X542300Y197500D03*
D21*
X546800Y193000D01*
X558000Y193000D01*
D12*
X572866Y448900D03*
X518300Y197500D03*
X516708Y278669D03*
D21*
X560184Y265916D02*
X560184Y263051D01*
D12*
X560184Y263051D03*
D21*
X545633Y272834D02*
X543134Y275333D01*
X543134Y275466D01*
X545633Y272834D02*
X553266Y272834D01*
X539931Y278669D02*
X516708Y278669D01*
X553266Y272834D02*
X560184Y265916D01*
X543134Y275466D02*
X539931Y278669D01*
D12*
X574600Y266400D03*
D21*
X563900Y277100D01*
X547400Y277100D01*
D12*
X547400Y277100D03*
D13*
X334950Y93151D03*
X271900Y101700D03*
D18*
X144480Y171380D02*
X142660Y173200D01*
X137700Y173200D01*
X144480Y171380D02*
X211377Y171380D01*
X137700Y173200D02*
X123800Y187100D01*
X123800Y190400D01*
D13*
X123800Y190400D03*
X98200Y216000D03*
D18*
X46544Y253100D02*
X36000Y263644D01*
X36000Y336356D02*
X46544Y346900D01*
X46544Y253100D02*
X61100Y253100D01*
X98200Y216000D01*
X50800Y346900D02*
X46544Y346900D01*
X36000Y336356D02*
X36000Y263644D01*
X50800Y346900D02*
X118600Y414700D01*
D13*
X118600Y414700D03*
D18*
X271900Y110857D02*
X271900Y101700D01*
X271900Y110857D02*
X211377Y171380D01*
D19*
X393700Y69782D02*
X393700Y44300D01*
D23*
X393700Y69782D02*
X345618Y69782D01*
D18*
X334950Y80451D01*
X334950Y93151D01*
D19*
X393700Y44300D02*
X399900Y38100D01*
X442900Y38100D01*
D18*
X455600Y25400D02*
X457200Y25400D01*
D14*
X455600Y25400D02*
X442900Y38100D01*
D12*
X89600Y182000D03*
D14*
X135280Y227680D01*
X135280Y276549D01*
X170215Y311484D01*
X266115Y311484D01*
D19*
X268237Y311484D01*
D24*
X274173Y317420D01*
D19*
X292220Y317420D02*
X293100Y318300D01*
D24*
X292220Y317420D02*
X274173Y317420D01*
D14*
X293100Y318300D02*
X296520Y321720D01*
X296520Y361880D01*
X279400Y379000D01*
X279400Y381000D01*
D12*
X482400Y167500D03*
D15*
X418518Y231383D01*
X405000Y289800D02*
X404900Y289900D01*
D20*
X404900Y289900D03*
X385984Y290800D03*
D15*
X361700Y315084D01*
X346865Y321720D02*
X296520Y321720D01*
X353501Y315084D02*
X361700Y315084D01*
X353501Y315084D02*
X346865Y321720D01*
X418518Y268383D02*
X418518Y231383D01*
X418518Y268383D02*
X405000Y281900D01*
X405000Y289800D01*
D12*
X160000Y370000D03*
X170000Y370000D03*
X180000Y370000D03*
X190000Y370000D03*
X200000Y370000D03*
X210000Y370000D03*
X220000Y370000D03*
X220000Y360000D03*
X210000Y360000D03*
X200000Y360000D03*
X190000Y360000D03*
X180000Y360000D03*
X170000Y360000D03*
X160000Y360000D03*
X160000Y350000D03*
X170000Y350000D03*
X180000Y350000D03*
X190000Y350000D03*
X200000Y350000D03*
X210000Y350000D03*
X220000Y350000D03*
X220000Y340000D03*
X210000Y340000D03*
X200000Y340000D03*
X190000Y340000D03*
X180000Y340000D03*
X170000Y340000D03*
X160000Y340000D03*
X220000Y320000D03*
X230000Y320000D03*
X210000Y320000D03*
X200000Y320000D03*
X190000Y320000D03*
X180000Y320000D03*
X170000Y320000D03*
X160000Y320000D03*
X150000Y320000D03*
X185300Y475300D03*
X189900Y450400D03*
X244400Y474800D03*
X562534Y132278D03*
D21*
X562534Y134068D01*
X561268Y135334D01*
X561268Y138868D01*
X562534Y140134D01*
X562534Y184223D01*
X556757Y190000D01*
D12*
X542300Y182500D03*
D21*
X549800Y190000D01*
X556757Y190000D01*
D12*
X536100Y82500D03*
D21*
X515090Y79866D02*
X494824Y59600D01*
X533466Y79866D02*
X536100Y82500D01*
X533466Y79866D02*
X515090Y79866D01*
X486500Y59600D02*
X457200Y88900D01*
X486500Y59600D02*
X494824Y59600D01*
D12*
X494800Y270434D03*
X453625Y267868D03*
X424600Y234200D03*
D21*
X431000Y234200D01*
X433126Y232074D01*
X438941Y232074D02*
X439500Y232633D01*
X447257Y232633D01*
X453043Y257443D02*
X454891Y259291D01*
X454891Y266602D02*
X453625Y267868D01*
X438941Y232074D02*
X433126Y232074D01*
X447257Y232633D02*
X453043Y238419D01*
X453043Y257443D01*
X454891Y259291D02*
X454891Y266602D01*
D17*
X552500Y358700D03*
D14*
X536516Y338473D02*
X531528Y333484D01*
X484473Y333484D02*
X479484Y338473D01*
X484473Y333484D02*
X531528Y333484D01*
X536516Y342716D02*
X552500Y358700D01*
X536516Y342716D02*
X536516Y338473D01*
X479484Y338473D02*
X479484Y350116D01*
X460800Y368800D02*
X460800Y368900D01*
X461200Y368900D01*
D17*
X461200Y368900D03*
D14*
X460800Y368800D02*
X479484Y350116D01*
D12*
X445100Y410300D03*
X445100Y400300D03*
X440500Y390000D03*
X440400Y380000D03*
X440400Y370000D03*
X444900Y422400D03*
D15*
X445100Y422200D01*
X445100Y410300D01*
X445100Y400300D01*
X445100Y394600D01*
X440500Y390000D01*
X440500Y380100D01*
X440400Y380000D01*
X440400Y370584D01*
D25*
X440400Y370000D02*
X445100Y374700D01*
D15*
X444700Y374700D01*
D16*
X454300Y374700D01*
X454400Y374600D01*
D15*
X460100Y368900D01*
X460800Y368900D01*
D16*
X440400Y370000D02*
X440400Y370584D01*
D12*
X608700Y442300D03*
X90000Y411400D03*
X64700Y323900D03*
D15*
X70100Y323900D01*
D14*
X126100Y334200D02*
X126200Y334300D01*
D17*
X126200Y334300D03*
D14*
X80400Y334200D02*
X70100Y323900D01*
X80400Y334200D02*
X126100Y334200D01*
D17*
X80800Y272500D03*
D14*
X76084Y277216D01*
X126100Y328744D02*
X126100Y334200D01*
X76084Y306084D02*
X76084Y277216D01*
X76084Y306084D02*
X90000Y320000D01*
X126100Y328744D01*
D12*
X485300Y150000D03*
X515100Y114600D03*
X534800Y113700D03*
D14*
X516000Y113700D01*
X515100Y114600D01*
D12*
X499600Y109900D03*
D14*
X510400Y109900D02*
X515100Y114600D01*
X510400Y109900D02*
X499600Y109900D01*
X499600Y127900D02*
X499700Y128000D01*
X499600Y127900D02*
X499600Y109900D01*
X499700Y133900D02*
X485300Y148300D01*
X485300Y150000D01*
X499700Y133900D02*
X499700Y128000D01*
D12*
X470000Y405700D03*
D20*
X334400Y371200D03*
X356200Y321600D03*
X354500Y285000D03*
D15*
X354500Y238900D01*
X352100Y236500D01*
X352200Y236400D01*
D20*
X352200Y236400D03*
X156150Y149300D03*
D12*
X525300Y324300D03*
X566700Y320300D03*
D15*
X562700Y324300D02*
X525300Y324300D01*
X562700Y324300D02*
X566700Y320300D01*
D12*
X191300Y82200D03*
D20*
X439666Y287194D03*
X419500Y297100D03*
X383850Y279250D03*
X362016Y261000D03*
D12*
X440400Y360200D03*
D25*
X419500Y300706D02*
X419500Y297100D01*
X380084Y366478D02*
X383022Y369416D01*
X428050Y360200D02*
X440400Y360200D01*
X419500Y300706D02*
X380084Y340122D01*
X380084Y366478D01*
X383022Y369416D02*
X418834Y369416D01*
X428050Y360200D01*
D20*
X518500Y149800D03*
D12*
X474300Y94700D03*
D21*
X468400Y100600D01*
X387500Y103500D02*
X387500Y107266D01*
D12*
X387500Y107266D03*
D21*
X390400Y100600D02*
X468400Y100600D01*
X390400Y100600D02*
X387500Y103500D01*
D12*
X479000Y306400D03*
X424200Y303100D03*
X451620Y319836D03*
X372700Y280200D03*
D21*
X372700Y274400D01*
X379800Y267300D01*
D12*
X379800Y267300D03*
X482300Y257600D03*
D21*
X482300Y248533D01*
X478034Y244267D01*
X478034Y233510D01*
D12*
X453600Y228700D03*
D21*
X473224Y228700D01*
X478034Y233510D01*
D12*
X502421Y177164D03*
D21*
X502421Y210346D01*
X502034Y210733D01*
X502034Y234666D01*
X500819Y235881D02*
X500819Y238766D01*
D12*
X500819Y238766D03*
D21*
X500819Y235881D02*
X502034Y234666D01*
D12*
X522167Y236467D03*
D21*
X532167Y231766D02*
X534666Y229267D01*
X534666Y225733D01*
X526867Y231766D02*
X522167Y236467D01*
X522566Y213633D02*
X522566Y208966D01*
X526867Y231766D02*
X532167Y231766D01*
X534666Y225733D02*
X522566Y213633D01*
X511800Y178600D02*
X514200Y176200D01*
D12*
X514200Y176200D03*
D21*
X511800Y198200D02*
X522566Y208966D01*
X511800Y198200D02*
X511800Y178600D01*
D12*
X530400Y257500D03*
X438326Y327093D03*
D21*
X435618Y329800D01*
X429633Y329800D01*
X426700Y332733D01*
X398983Y355750D02*
X391016Y363717D01*
D12*
X391016Y363717D03*
D21*
X426700Y347055D02*
X426700Y332733D01*
X426700Y347055D02*
X418005Y355750D01*
X398983Y355750D01*
D12*
X399400Y408700D03*
D21*
X386034Y451766D02*
X386000Y451800D01*
X386034Y451766D02*
X386034Y442633D01*
X399400Y429267D02*
X399400Y408700D01*
X399400Y429267D02*
X386034Y442633D01*
X386000Y451800D02*
X386000Y452000D01*
X386300Y452300D01*
D12*
X386300Y452300D03*
X488900Y193234D03*
D21*
X488900Y201067D01*
X498566Y229267D02*
X496553Y231280D01*
X498566Y210733D02*
X488900Y201067D01*
X498566Y210733D02*
X498566Y229267D01*
D12*
X494300Y242600D03*
D21*
X496553Y240347D01*
X496553Y231280D01*
D12*
X518300Y257500D03*
X542400Y257500D03*
X453200Y273400D03*
D21*
X453200Y285472D01*
X453187Y285485D01*
X453187Y292114D02*
X453000Y292300D01*
X453187Y292114D02*
X453187Y285485D01*
X453000Y292300D02*
X453000Y310109D01*
X454157Y311266D01*
D12*
X454157Y311266D03*
X442625Y330617D03*
D21*
X442592Y325326D02*
X440093Y322827D01*
X423700Y331490D02*
X423700Y342300D01*
X442592Y330584D02*
X442625Y330617D01*
X442592Y330584D02*
X442592Y325326D01*
X440093Y322827D02*
X432364Y322827D01*
X423700Y331490D01*
X413499Y345334D02*
X411000Y347833D01*
X420666Y345334D02*
X423700Y342300D01*
X411000Y347833D02*
X411000Y347900D01*
X407500Y351400D01*
X413499Y345334D02*
X420666Y345334D01*
X407500Y351400D02*
X406734Y351400D01*
D12*
X406734Y351400D03*
X436100Y410400D03*
X442100Y454300D03*
D21*
X444800Y457000D01*
X444800Y459400D01*
X452500Y467100D01*
X466700Y467100D01*
X468177Y449799D02*
X470676Y447300D01*
X486701Y447300D01*
X468177Y465623D02*
X466700Y467100D01*
X468177Y465623D02*
X468177Y449799D01*
X486701Y447300D02*
X496601Y457200D01*
X508000Y457200D01*
D12*
X586300Y410400D03*
X554300Y257500D03*
D21*
X561700Y250100D01*
X561700Y193543D02*
X569800Y185443D01*
X569800Y66700D01*
X441700Y54901D02*
X435901Y60700D01*
X418800Y60700D02*
X418750Y60750D01*
X418800Y60700D02*
X435901Y60700D01*
X441700Y54901D02*
X441700Y52299D01*
X453099Y40900D01*
X544000Y40900D01*
X418750Y60750D02*
X417434Y59434D01*
X415750Y59434D01*
D12*
X415750Y59434D03*
D21*
X561700Y193543D02*
X561700Y250100D01*
X569800Y66700D02*
X544000Y40900D01*
D12*
X558356Y367008D03*
X497200Y45600D03*
D21*
X476700Y45600D01*
X455100Y67200D01*
X410600Y67200D01*
X404450Y74235D02*
X398153Y80532D01*
X389368Y80532D01*
X381000Y88900D01*
X404450Y73350D02*
X410600Y67200D01*
X404450Y73350D02*
X404450Y74235D01*
D12*
X436700Y442900D03*
X387300Y433200D03*
X379200Y285300D03*
D21*
X370300Y294200D01*
X368900Y294200D01*
D12*
X368900Y294200D03*
X349600Y367500D03*
D21*
X331700Y385400D01*
X327200Y385400D01*
D12*
X327200Y385400D03*
M02*
