G04 EAGLE Gerber RS-274X export*
G75*
%MOMM*%
%FSLAX34Y34*%
%LPD*%
%INDocument*%
%IPPOS*%
%AMOC8*
5,1,8,0,0,1.08239X$1,22.5*%
G01*
%ADD10C,0.152400*%


D10*
X0Y-24130D02*
X0Y-50800D01*
X660400Y-38100D02*
X660400Y-5080D01*
X706120Y0D02*
X739140Y0D01*
X739140Y25400D02*
X706120Y25400D01*
X706120Y50800D02*
X739140Y50800D01*
X731520Y378460D02*
X706120Y378460D01*
X706120Y403860D02*
X731520Y403860D01*
X721360Y518160D02*
X703580Y518160D01*
X703580Y533400D02*
X721360Y533400D01*
X660400Y538480D02*
X660400Y553720D01*
X645160Y553720D02*
X645160Y538480D01*
X685800Y-5080D02*
X685800Y-38100D01*
X6686Y-77978D02*
X-4160Y-77978D01*
X-6872Y-75266D01*
X-6872Y-69843D01*
X-4160Y-67131D01*
X6686Y-67131D01*
X9398Y-69843D01*
X9398Y-75266D01*
X6686Y-77978D01*
X-4160Y-67131D01*
X662178Y-100151D02*
X662178Y-110998D01*
X651331Y-100151D01*
X648620Y-100151D01*
X645908Y-102863D01*
X645908Y-108286D01*
X648620Y-110998D01*
X648620Y-89203D02*
X645908Y-83780D01*
X648620Y-89203D02*
X654043Y-94626D01*
X659466Y-94626D01*
X662178Y-91915D01*
X662178Y-86492D01*
X659466Y-83780D01*
X656755Y-83780D01*
X654043Y-86492D01*
X654043Y-94626D01*
X659466Y-78255D02*
X648620Y-78255D01*
X645908Y-75543D01*
X645908Y-70120D01*
X648620Y-67408D01*
X659466Y-67408D01*
X662178Y-70120D01*
X662178Y-75543D01*
X659466Y-78255D01*
X648620Y-67408D01*
X648620Y-61883D02*
X659466Y-61883D01*
X648620Y-61883D02*
X645908Y-59172D01*
X645908Y-53748D01*
X648620Y-51037D01*
X659466Y-51037D01*
X662178Y-53748D01*
X662178Y-59172D01*
X659466Y-61883D01*
X648620Y-51037D01*
X697738Y-100151D02*
X697738Y-110998D01*
X686891Y-100151D01*
X684180Y-100151D01*
X681468Y-102863D01*
X681468Y-108286D01*
X684180Y-110998D01*
X681468Y-94626D02*
X681468Y-83780D01*
X684180Y-83780D01*
X695026Y-94626D01*
X697738Y-94626D01*
X695026Y-78255D02*
X684180Y-78255D01*
X681468Y-75543D01*
X681468Y-70120D01*
X684180Y-67408D01*
X695026Y-67408D01*
X697738Y-70120D01*
X697738Y-75543D01*
X695026Y-78255D01*
X684180Y-67408D01*
X684180Y-61883D02*
X695026Y-61883D01*
X684180Y-61883D02*
X681468Y-59172D01*
X681468Y-53748D01*
X684180Y-51037D01*
X695026Y-51037D01*
X697738Y-53748D01*
X697738Y-59172D01*
X695026Y-61883D01*
X684180Y-51037D01*
X757682Y-6686D02*
X757682Y4160D01*
X760394Y6872D01*
X765817Y6872D01*
X768529Y4160D01*
X768529Y-6686D01*
X765817Y-9398D01*
X760394Y-9398D01*
X757682Y-6686D01*
X768529Y4160D01*
X757682Y29389D02*
X763105Y34812D01*
X763105Y18542D01*
X757682Y18542D02*
X768529Y18542D01*
X774054Y21254D02*
X774054Y32100D01*
X776765Y34812D01*
X782189Y34812D01*
X784900Y32100D01*
X784900Y21254D01*
X782189Y18542D01*
X776765Y18542D01*
X774054Y21254D01*
X784900Y32100D01*
X790425Y32100D02*
X790425Y21254D01*
X790425Y32100D02*
X793137Y34812D01*
X798560Y34812D01*
X801272Y32100D01*
X801272Y21254D01*
X798560Y18542D01*
X793137Y18542D01*
X790425Y21254D01*
X801272Y32100D01*
X768529Y43942D02*
X757682Y43942D01*
X768529Y54789D01*
X768529Y57500D01*
X765817Y60212D01*
X760394Y60212D01*
X757682Y57500D01*
X774054Y57500D02*
X774054Y46654D01*
X774054Y57500D02*
X776765Y60212D01*
X782189Y60212D01*
X784900Y57500D01*
X784900Y46654D01*
X782189Y43942D01*
X776765Y43942D01*
X774054Y46654D01*
X784900Y57500D01*
X790425Y57500D02*
X790425Y46654D01*
X790425Y57500D02*
X793137Y60212D01*
X798560Y60212D01*
X801272Y57500D01*
X801272Y46654D01*
X798560Y43942D01*
X793137Y43942D01*
X790425Y46654D01*
X801272Y57500D01*
X739902Y379909D02*
X745325Y385332D01*
X745325Y369062D01*
X739902Y369062D02*
X750749Y369062D01*
X764409Y369062D02*
X764409Y385332D01*
X756274Y377197D01*
X767120Y377197D01*
X772645Y371774D02*
X775357Y369062D01*
X780780Y369062D01*
X783492Y371774D01*
X783492Y382620D01*
X780780Y385332D01*
X775357Y385332D01*
X772645Y382620D01*
X772645Y379909D01*
X775357Y377197D01*
X783492Y377197D01*
X789017Y371774D02*
X789017Y382620D01*
X791728Y385332D01*
X797152Y385332D01*
X799863Y382620D01*
X799863Y371774D01*
X797152Y369062D01*
X791728Y369062D01*
X789017Y371774D01*
X799863Y382620D01*
X745325Y415812D02*
X739902Y410389D01*
X745325Y415812D02*
X745325Y399542D01*
X739902Y399542D02*
X750749Y399542D01*
X756274Y415812D02*
X767120Y415812D01*
X756274Y415812D02*
X756274Y407677D01*
X761697Y410389D01*
X764409Y410389D01*
X767120Y407677D01*
X767120Y402254D01*
X764409Y399542D01*
X758985Y399542D01*
X756274Y402254D01*
X772645Y402254D02*
X775357Y399542D01*
X780780Y399542D01*
X783492Y402254D01*
X783492Y413100D01*
X780780Y415812D01*
X775357Y415812D01*
X772645Y413100D01*
X772645Y410389D01*
X775357Y407677D01*
X783492Y407677D01*
X789017Y402254D02*
X789017Y413100D01*
X791728Y415812D01*
X797152Y415812D01*
X799863Y413100D01*
X799863Y402254D01*
X797152Y399542D01*
X791728Y399542D01*
X789017Y402254D01*
X799863Y413100D01*
X738049Y506222D02*
X727202Y506222D01*
X738049Y517069D01*
X738049Y519780D01*
X735337Y522492D01*
X729914Y522492D01*
X727202Y519780D01*
X743574Y519780D02*
X743574Y508934D01*
X743574Y519780D02*
X746285Y522492D01*
X751709Y522492D01*
X754420Y519780D01*
X754420Y508934D01*
X751709Y506222D01*
X746285Y506222D01*
X743574Y508934D01*
X754420Y519780D01*
X768080Y522492D02*
X768080Y506222D01*
X759945Y514357D02*
X768080Y522492D01*
X770792Y514357D02*
X759945Y514357D01*
X776317Y508934D02*
X776317Y519780D01*
X779028Y522492D01*
X784452Y522492D01*
X787163Y519780D01*
X787163Y508934D01*
X784452Y506222D01*
X779028Y506222D01*
X776317Y508934D01*
X787163Y519780D01*
X738049Y529082D02*
X727202Y529082D01*
X738049Y539929D01*
X738049Y542640D01*
X735337Y545352D01*
X729914Y545352D01*
X727202Y542640D01*
X743574Y539929D02*
X748997Y545352D01*
X748997Y529082D01*
X743574Y529082D02*
X754420Y529082D01*
X759945Y531794D02*
X759945Y542640D01*
X762657Y545352D01*
X768080Y545352D01*
X770792Y542640D01*
X770792Y531794D01*
X768080Y529082D01*
X762657Y529082D01*
X759945Y531794D01*
X770792Y542640D01*
X776317Y542640D02*
X776317Y531794D01*
X776317Y542640D02*
X779028Y545352D01*
X784452Y545352D01*
X787163Y542640D01*
X787163Y531794D01*
X784452Y529082D01*
X779028Y529082D01*
X776317Y531794D01*
X787163Y542640D01*
X646938Y564642D02*
X646938Y575489D01*
X646938Y564642D02*
X636091Y575489D01*
X633380Y575489D01*
X630668Y572777D01*
X630668Y567354D01*
X633380Y564642D01*
X630668Y581014D02*
X630668Y591860D01*
X630668Y581014D02*
X638803Y581014D01*
X636091Y586437D01*
X636091Y589149D01*
X638803Y591860D01*
X644226Y591860D01*
X646938Y589149D01*
X646938Y583725D01*
X644226Y581014D01*
X646938Y605520D02*
X630668Y605520D01*
X638803Y597385D01*
X638803Y608232D01*
X644226Y613757D02*
X633380Y613757D01*
X630668Y616468D01*
X630668Y621892D01*
X633380Y624603D01*
X644226Y624603D01*
X646938Y621892D01*
X646938Y616468D01*
X644226Y613757D01*
X633380Y624603D01*
X672338Y575489D02*
X672338Y564642D01*
X661491Y575489D01*
X658780Y575489D01*
X656068Y572777D01*
X656068Y567354D01*
X658780Y564642D01*
X658780Y586437D02*
X656068Y591860D01*
X658780Y586437D02*
X664203Y581014D01*
X669626Y581014D01*
X672338Y583725D01*
X672338Y589149D01*
X669626Y591860D01*
X666915Y591860D01*
X664203Y589149D01*
X664203Y581014D01*
X669626Y597385D02*
X658780Y597385D01*
X656068Y600097D01*
X656068Y605520D01*
X658780Y608232D01*
X669626Y608232D01*
X672338Y605520D01*
X672338Y600097D01*
X669626Y597385D01*
X658780Y608232D01*
X658780Y613757D02*
X669626Y613757D01*
X658780Y613757D02*
X656068Y616468D01*
X656068Y621892D01*
X658780Y624603D01*
X669626Y624603D01*
X672338Y621892D01*
X672338Y616468D01*
X669626Y613757D01*
X658780Y624603D01*
X152400Y558800D02*
X152400Y538480D01*
X145700Y575145D02*
X142988Y580569D01*
X145700Y575145D02*
X151123Y569722D01*
X156546Y569722D01*
X159258Y572434D01*
X159258Y577857D01*
X156546Y580569D01*
X153835Y580569D01*
X151123Y577857D01*
X151123Y569722D01*
X156546Y586094D02*
X145700Y586094D01*
X142988Y588805D01*
X142988Y594229D01*
X145700Y596940D01*
X156546Y596940D01*
X159258Y594229D01*
X159258Y588805D01*
X156546Y586094D01*
X145700Y596940D01*
X145700Y602465D02*
X156546Y602465D01*
X145700Y602465D02*
X142988Y605177D01*
X142988Y610600D01*
X145700Y613312D01*
X156546Y613312D01*
X159258Y610600D01*
X159258Y605177D01*
X156546Y602465D01*
X145700Y613312D01*
X139700Y-10160D02*
X139700Y-30480D01*
X130288Y-72211D02*
X130288Y-83058D01*
X138423Y-83058D01*
X135711Y-77635D01*
X135711Y-74923D01*
X138423Y-72211D01*
X143846Y-72211D01*
X146558Y-74923D01*
X146558Y-80346D01*
X143846Y-83058D01*
X130288Y-66686D02*
X130288Y-55840D01*
X130288Y-66686D02*
X138423Y-66686D01*
X135711Y-61263D01*
X135711Y-58552D01*
X138423Y-55840D01*
X143846Y-55840D01*
X146558Y-58552D01*
X146558Y-63975D01*
X143846Y-66686D01*
X143846Y-50315D02*
X133000Y-50315D01*
X130288Y-47603D01*
X130288Y-42180D01*
X133000Y-39468D01*
X143846Y-39468D01*
X146558Y-42180D01*
X146558Y-47603D01*
X143846Y-50315D01*
X133000Y-39468D01*
X-10160Y508000D02*
X-27940Y508000D01*
X-82371Y501142D02*
X-93218Y501142D01*
X-82371Y511989D01*
X-82371Y514700D01*
X-85083Y517412D01*
X-90506Y517412D01*
X-93218Y514700D01*
X-76846Y514700D02*
X-76846Y503854D01*
X-76846Y514700D02*
X-74135Y517412D01*
X-68712Y517412D01*
X-66000Y514700D01*
X-66000Y503854D01*
X-68712Y501142D01*
X-74135Y501142D01*
X-76846Y503854D01*
X-66000Y514700D01*
X-60475Y514700D02*
X-60475Y503854D01*
X-60475Y514700D02*
X-57763Y517412D01*
X-52340Y517412D01*
X-49628Y514700D01*
X-49628Y503854D01*
X-52340Y501142D01*
X-57763Y501142D01*
X-60475Y503854D01*
X-49628Y514700D01*
X-44103Y514700D02*
X-44103Y503854D01*
X-44103Y514700D02*
X-41392Y517412D01*
X-35968Y517412D01*
X-33257Y514700D01*
X-33257Y503854D01*
X-35968Y501142D01*
X-41392Y501142D01*
X-44103Y503854D01*
X-33257Y514700D01*
X-22860Y25400D02*
X-5080Y25400D01*
X-67475Y34812D02*
X-72898Y29389D01*
X-67475Y34812D02*
X-67475Y18542D01*
X-72898Y18542D02*
X-62051Y18542D01*
X-56526Y21254D02*
X-56526Y32100D01*
X-53815Y34812D01*
X-48392Y34812D01*
X-45680Y32100D01*
X-45680Y21254D01*
X-48392Y18542D01*
X-53815Y18542D01*
X-56526Y21254D01*
X-45680Y32100D01*
X-40155Y32100D02*
X-40155Y21254D01*
X-40155Y32100D02*
X-37443Y34812D01*
X-32020Y34812D01*
X-29308Y32100D01*
X-29308Y21254D01*
X-32020Y18542D01*
X-37443Y18542D01*
X-40155Y21254D01*
X-29308Y32100D01*
X698500Y76200D02*
X734060Y76200D01*
X742442Y85440D02*
X745154Y88152D01*
X750577Y88152D01*
X753289Y85440D01*
X753289Y82729D01*
X750577Y80017D01*
X747865Y80017D01*
X750577Y80017D02*
X753289Y77305D01*
X753289Y74594D01*
X750577Y71882D01*
X745154Y71882D01*
X742442Y74594D01*
X758814Y74594D02*
X758814Y85440D01*
X761525Y88152D01*
X766949Y88152D01*
X769660Y85440D01*
X769660Y74594D01*
X766949Y71882D01*
X761525Y71882D01*
X758814Y74594D01*
X769660Y85440D01*
X775185Y85440D02*
X775185Y74594D01*
X775185Y85440D02*
X777897Y88152D01*
X783320Y88152D01*
X786032Y85440D01*
X786032Y74594D01*
X783320Y71882D01*
X777897Y71882D01*
X775185Y74594D01*
X786032Y85440D01*
X731520Y355600D02*
X706120Y355600D01*
X739902Y357049D02*
X745325Y362472D01*
X745325Y346202D01*
X739902Y346202D02*
X750749Y346202D01*
X764409Y346202D02*
X764409Y362472D01*
X756274Y354337D01*
X767120Y354337D01*
X772645Y348914D02*
X772645Y359760D01*
X775357Y362472D01*
X780780Y362472D01*
X783492Y359760D01*
X783492Y348914D01*
X780780Y346202D01*
X775357Y346202D01*
X772645Y348914D01*
X783492Y359760D01*
X789017Y359760D02*
X789017Y348914D01*
X789017Y359760D02*
X791728Y362472D01*
X797152Y362472D01*
X799863Y359760D01*
X799863Y348914D01*
X797152Y346202D01*
X791728Y346202D01*
X789017Y348914D01*
X799863Y359760D01*
X-1778Y746252D02*
X-1778Y762522D01*
X6357Y762522D01*
X9069Y759810D01*
X9069Y754387D01*
X6357Y751675D01*
X-1778Y751675D01*
X14594Y762522D02*
X17305Y762522D01*
X17305Y746252D01*
X14594Y746252D02*
X20017Y746252D01*
X28220Y746252D02*
X33643Y746252D01*
X28220Y746252D02*
X25508Y748964D01*
X25508Y754387D01*
X28220Y757099D01*
X33643Y757099D01*
X36355Y754387D01*
X36355Y751675D01*
X25508Y751675D01*
X44591Y757099D02*
X50014Y757099D01*
X52726Y754387D01*
X52726Y746252D01*
X44591Y746252D01*
X41880Y748964D01*
X44591Y751675D01*
X52726Y751675D01*
X58251Y746252D02*
X66386Y746252D01*
X69098Y748964D01*
X66386Y751675D01*
X60963Y751675D01*
X58251Y754387D01*
X60963Y757099D01*
X69098Y757099D01*
X77334Y746252D02*
X82758Y746252D01*
X77334Y746252D02*
X74623Y748964D01*
X74623Y754387D01*
X77334Y757099D01*
X82758Y757099D01*
X85469Y754387D01*
X85469Y751675D01*
X74623Y751675D01*
X107366Y757099D02*
X107366Y740829D01*
X107366Y757099D02*
X115501Y757099D01*
X118212Y754387D01*
X118212Y748964D01*
X115501Y746252D01*
X107366Y746252D01*
X123737Y748964D02*
X123737Y757099D01*
X123737Y748964D02*
X126449Y746252D01*
X134584Y746252D01*
X134584Y757099D01*
X142821Y759810D02*
X142821Y748964D01*
X145532Y746252D01*
X145532Y757099D02*
X140109Y757099D01*
X170106Y757099D02*
X175530Y757099D01*
X178241Y754387D01*
X178241Y746252D01*
X170106Y746252D01*
X167395Y748964D01*
X170106Y751675D01*
X178241Y751675D01*
X183766Y757099D02*
X183766Y740829D01*
X183766Y757099D02*
X191901Y757099D01*
X194613Y754387D01*
X194613Y748964D01*
X191901Y746252D01*
X183766Y746252D01*
X200138Y740829D02*
X200138Y757099D01*
X208273Y757099D01*
X210985Y754387D01*
X210985Y748964D01*
X208273Y746252D01*
X200138Y746252D01*
X216510Y746252D02*
X216510Y757099D01*
X221933Y757099D02*
X216510Y751675D01*
X221933Y757099D02*
X224644Y757099D01*
X232864Y746252D02*
X238287Y746252D01*
X240999Y748964D01*
X240999Y754387D01*
X238287Y757099D01*
X232864Y757099D01*
X230152Y754387D01*
X230152Y748964D01*
X232864Y746252D01*
X246524Y740829D02*
X246524Y757099D01*
X254659Y757099D01*
X257371Y754387D01*
X257371Y748964D01*
X254659Y746252D01*
X246524Y746252D01*
X262896Y746252D02*
X262896Y757099D01*
X268319Y757099D02*
X262896Y751675D01*
X268319Y757099D02*
X271031Y757099D01*
X276539Y757099D02*
X279250Y757099D01*
X279250Y746252D01*
X276539Y746252D02*
X281962Y746252D01*
X279250Y762522D02*
X279250Y765234D01*
X290165Y757099D02*
X295588Y757099D01*
X298300Y754387D01*
X298300Y746252D01*
X290165Y746252D01*
X287453Y748964D01*
X290165Y751675D01*
X298300Y751675D01*
X306536Y748964D02*
X306536Y759810D01*
X306536Y748964D02*
X309248Y746252D01*
X309248Y757099D02*
X303825Y757099D01*
X317451Y746252D02*
X322874Y746252D01*
X317451Y746252D02*
X314739Y748964D01*
X314739Y754387D01*
X317451Y757099D01*
X322874Y757099D01*
X325585Y754387D01*
X325585Y751675D01*
X314739Y751675D01*
X347482Y748964D02*
X347482Y762522D01*
X347482Y748964D02*
X350194Y746252D01*
X355617Y746252D01*
X358329Y748964D01*
X358329Y762522D01*
X363854Y762522D02*
X363854Y746252D01*
X374700Y746252D01*
X396597Y746252D02*
X396597Y757099D01*
X399308Y757099D01*
X402020Y754387D01*
X402020Y746252D01*
X402020Y754387D02*
X404732Y757099D01*
X407443Y754387D01*
X407443Y746252D01*
X415680Y757099D02*
X421103Y757099D01*
X423815Y754387D01*
X423815Y746252D01*
X415680Y746252D01*
X412968Y748964D01*
X415680Y751675D01*
X423815Y751675D01*
X429340Y746252D02*
X429340Y757099D01*
X434763Y757099D02*
X429340Y751675D01*
X434763Y757099D02*
X437475Y757099D01*
X442983Y762522D02*
X442983Y746252D01*
X442983Y751675D02*
X451118Y746252D01*
X442983Y751675D02*
X451118Y757099D01*
X456626Y757099D02*
X459337Y757099D01*
X459337Y746252D01*
X456626Y746252D02*
X462049Y746252D01*
X459337Y762522D02*
X459337Y765234D01*
X467540Y757099D02*
X467540Y746252D01*
X467540Y757099D02*
X475675Y757099D01*
X478387Y754387D01*
X478387Y746252D01*
X489335Y740829D02*
X492047Y740829D01*
X494758Y743540D01*
X494758Y757099D01*
X486623Y757099D01*
X483912Y754387D01*
X483912Y748964D01*
X486623Y746252D01*
X494758Y746252D01*
X516655Y746252D02*
X527501Y762522D01*
X557533Y762522D02*
X560245Y759810D01*
X557533Y762522D02*
X552110Y762522D01*
X549398Y759810D01*
X549398Y748964D01*
X552110Y746252D01*
X557533Y746252D01*
X560245Y748964D01*
X565770Y762522D02*
X576616Y762522D01*
X565770Y762522D02*
X565770Y746252D01*
X576616Y746252D01*
X571193Y754387D02*
X565770Y754387D01*
X598513Y757099D02*
X598513Y746252D01*
X598513Y757099D02*
X601224Y757099D01*
X603936Y754387D01*
X603936Y746252D01*
X603936Y754387D02*
X606648Y757099D01*
X609359Y754387D01*
X609359Y746252D01*
X617596Y757099D02*
X623019Y757099D01*
X625731Y754387D01*
X625731Y746252D01*
X617596Y746252D01*
X614884Y748964D01*
X617596Y751675D01*
X625731Y751675D01*
X631256Y746252D02*
X631256Y757099D01*
X636679Y757099D02*
X631256Y751675D01*
X636679Y757099D02*
X639391Y757099D01*
X644899Y762522D02*
X644899Y746252D01*
X644899Y751675D02*
X653034Y746252D01*
X644899Y751675D02*
X653034Y757099D01*
X658542Y757099D02*
X661253Y757099D01*
X661253Y746252D01*
X658542Y746252D02*
X663965Y746252D01*
X661253Y762522D02*
X661253Y765234D01*
X669456Y757099D02*
X669456Y746252D01*
X669456Y757099D02*
X677591Y757099D01*
X680303Y754387D01*
X680303Y746252D01*
X691251Y740829D02*
X693963Y740829D01*
X696674Y743540D01*
X696674Y757099D01*
X688539Y757099D01*
X685828Y754387D01*
X685828Y748964D01*
X688539Y746252D01*
X696674Y746252D01*
X702199Y746252D02*
X710334Y746252D01*
X713046Y748964D01*
X710334Y751675D01*
X704911Y751675D01*
X702199Y754387D01*
X704911Y757099D01*
X713046Y757099D01*
X734942Y751675D02*
X740366Y746252D01*
X734942Y751675D02*
X734942Y757099D01*
X740366Y762522D01*
X745857Y746252D02*
X753992Y746252D01*
X756703Y748964D01*
X753992Y751675D01*
X748568Y751675D01*
X745857Y754387D01*
X748568Y757099D01*
X756703Y757099D01*
X762228Y746252D02*
X767652Y751675D01*
X767652Y757099D01*
X762228Y762522D01*
X6357Y730429D02*
X934Y730429D01*
X6357Y730429D02*
X9069Y727717D01*
X9069Y719582D01*
X934Y719582D01*
X-1778Y722294D01*
X934Y725005D01*
X9069Y725005D01*
X14594Y719582D02*
X22729Y719582D01*
X25440Y722294D01*
X22729Y725005D01*
X17305Y725005D01*
X14594Y727717D01*
X17305Y730429D01*
X25440Y730429D01*
X30965Y719582D02*
X39100Y719582D01*
X41812Y722294D01*
X39100Y725005D01*
X33677Y725005D01*
X30965Y727717D01*
X33677Y730429D01*
X41812Y730429D01*
X50048Y719582D02*
X55472Y719582D01*
X58183Y722294D01*
X58183Y727717D01*
X55472Y730429D01*
X50048Y730429D01*
X47337Y727717D01*
X47337Y722294D01*
X50048Y719582D01*
X66420Y730429D02*
X74555Y730429D01*
X66420Y730429D02*
X63708Y727717D01*
X63708Y722294D01*
X66420Y719582D01*
X74555Y719582D01*
X80080Y730429D02*
X82791Y730429D01*
X82791Y719582D01*
X80080Y719582D02*
X85503Y719582D01*
X82791Y735852D02*
X82791Y738564D01*
X93706Y730429D02*
X99129Y730429D01*
X101841Y727717D01*
X101841Y719582D01*
X93706Y719582D01*
X90994Y722294D01*
X93706Y725005D01*
X101841Y725005D01*
X110077Y722294D02*
X110077Y733140D01*
X110077Y722294D02*
X112789Y719582D01*
X112789Y730429D02*
X107366Y730429D01*
X120992Y719582D02*
X126415Y719582D01*
X120992Y719582D02*
X118280Y722294D01*
X118280Y727717D01*
X120992Y730429D01*
X126415Y730429D01*
X129127Y727717D01*
X129127Y725005D01*
X118280Y725005D01*
X145498Y719582D02*
X145498Y735852D01*
X145498Y719582D02*
X137363Y719582D01*
X134652Y722294D01*
X134652Y727717D01*
X137363Y730429D01*
X145498Y730429D01*
X167395Y730429D02*
X167395Y722294D01*
X170106Y719582D01*
X172818Y722294D01*
X175530Y719582D01*
X178241Y722294D01*
X178241Y730429D01*
X183766Y730429D02*
X186478Y730429D01*
X186478Y719582D01*
X183766Y719582D02*
X189190Y719582D01*
X186478Y735852D02*
X186478Y738564D01*
X197392Y733140D02*
X197392Y722294D01*
X200104Y719582D01*
X200104Y730429D02*
X194681Y730429D01*
X205595Y735852D02*
X205595Y719582D01*
X205595Y727717D02*
X208307Y730429D01*
X213730Y730429D01*
X216442Y727717D01*
X216442Y719582D01*
X238338Y722294D02*
X238338Y730429D01*
X238338Y722294D02*
X241050Y719582D01*
X249185Y719582D01*
X249185Y716870D02*
X249185Y730429D01*
X249185Y716870D02*
X246473Y714159D01*
X243762Y714159D01*
X257421Y719582D02*
X262845Y719582D01*
X265556Y722294D01*
X265556Y727717D01*
X262845Y730429D01*
X257421Y730429D01*
X254710Y727717D01*
X254710Y722294D01*
X257421Y719582D01*
X271081Y722294D02*
X271081Y730429D01*
X271081Y722294D02*
X273793Y719582D01*
X281928Y719582D01*
X281928Y730429D01*
X287453Y730429D02*
X287453Y719582D01*
X287453Y725005D02*
X292876Y730429D01*
X295588Y730429D01*
X320179Y733140D02*
X320179Y719582D01*
X320179Y733140D02*
X322891Y735852D01*
X322891Y727717D02*
X317467Y727717D01*
X331093Y730429D02*
X336517Y730429D01*
X339228Y727717D01*
X339228Y719582D01*
X331093Y719582D01*
X328382Y722294D01*
X331093Y725005D01*
X339228Y725005D01*
X344753Y719582D02*
X344753Y735852D01*
X344753Y719582D02*
X352888Y719582D01*
X355600Y722294D01*
X355600Y727717D01*
X352888Y730429D01*
X344753Y730429D01*
X380208Y730429D02*
X385631Y730429D01*
X388343Y727717D01*
X388343Y719582D01*
X380208Y719582D01*
X377497Y722294D01*
X380208Y725005D01*
X388343Y725005D01*
X393868Y719582D02*
X393868Y730429D01*
X402003Y730429D01*
X404715Y727717D01*
X404715Y719582D01*
X421086Y719582D02*
X421086Y735852D01*
X421086Y719582D02*
X412951Y719582D01*
X410240Y722294D01*
X410240Y727717D01*
X412951Y730429D01*
X421086Y730429D01*
X442983Y730429D02*
X442983Y714159D01*
X442983Y730429D02*
X451118Y730429D01*
X453829Y727717D01*
X453829Y722294D01*
X451118Y719582D01*
X442983Y719582D01*
X459354Y719582D02*
X459354Y730429D01*
X459354Y725005D02*
X464778Y730429D01*
X467489Y730429D01*
X475709Y719582D02*
X481132Y719582D01*
X483844Y722294D01*
X483844Y727717D01*
X481132Y730429D01*
X475709Y730429D01*
X472997Y727717D01*
X472997Y722294D01*
X475709Y719582D01*
X492081Y730429D02*
X500215Y730429D01*
X492081Y730429D02*
X489369Y727717D01*
X489369Y722294D01*
X492081Y719582D01*
X500215Y719582D01*
X508452Y719582D02*
X513875Y719582D01*
X508452Y719582D02*
X505740Y722294D01*
X505740Y727717D01*
X508452Y730429D01*
X513875Y730429D01*
X516587Y727717D01*
X516587Y725005D01*
X505740Y725005D01*
X522112Y719582D02*
X530247Y719582D01*
X532959Y722294D01*
X530247Y725005D01*
X524824Y725005D01*
X522112Y727717D01*
X524824Y730429D01*
X532959Y730429D01*
X538484Y719582D02*
X546619Y719582D01*
X549330Y722294D01*
X546619Y725005D01*
X541195Y725005D01*
X538484Y727717D01*
X541195Y730429D01*
X549330Y730429D01*
X557567Y719582D02*
X562990Y719582D01*
X557567Y719582D02*
X554855Y722294D01*
X554855Y727717D01*
X557567Y730429D01*
X562990Y730429D01*
X565702Y727717D01*
X565702Y725005D01*
X554855Y725005D01*
X571227Y719582D02*
X579362Y719582D01*
X582073Y722294D01*
X579362Y725005D01*
X573938Y725005D01*
X571227Y727717D01*
X573938Y730429D01*
X582073Y730429D01*
X587598Y722294D02*
X587598Y719582D01*
X587598Y722294D02*
X590310Y722294D01*
X590310Y719582D01*
X587598Y719582D01*
X3645Y692912D02*
X-1778Y692912D01*
X934Y692912D02*
X934Y709182D01*
X3645Y709182D02*
X-1778Y709182D01*
X9136Y695624D02*
X9136Y692912D01*
X9136Y695624D02*
X11848Y695624D01*
X11848Y692912D01*
X9136Y692912D01*
X20034Y692912D02*
X25457Y692912D01*
X20034Y692912D02*
X17322Y695624D01*
X17322Y701047D01*
X20034Y703759D01*
X25457Y703759D01*
X28169Y701047D01*
X28169Y698335D01*
X17322Y698335D01*
X50065Y695624D02*
X52777Y692912D01*
X58200Y692912D01*
X60912Y695624D01*
X60912Y706470D01*
X58200Y709182D01*
X52777Y709182D01*
X50065Y706470D01*
X50065Y703759D01*
X52777Y701047D01*
X60912Y701047D01*
X74572Y692912D02*
X74572Y709182D01*
X66437Y701047D01*
X77283Y701047D01*
X82808Y701047D02*
X93655Y701047D01*
X99180Y698335D02*
X99180Y709182D01*
X99180Y698335D02*
X104603Y692912D01*
X110027Y698335D01*
X110027Y709182D01*
X120975Y692912D02*
X115552Y687489D01*
X120975Y692912D02*
X120975Y695624D01*
X118263Y695624D01*
X118263Y692912D01*
X120975Y692912D01*
X142837Y703759D02*
X148261Y709182D01*
X148261Y692912D01*
X153684Y692912D02*
X142837Y692912D01*
X167344Y709182D02*
X170056Y706470D01*
X167344Y709182D02*
X161921Y709182D01*
X159209Y706470D01*
X159209Y703759D01*
X161921Y701047D01*
X167344Y701047D01*
X170056Y698335D01*
X170056Y695624D01*
X167344Y692912D01*
X161921Y692912D01*
X159209Y695624D01*
X194664Y692912D02*
X200087Y692912D01*
X202799Y695624D01*
X202799Y701047D01*
X200087Y703759D01*
X194664Y703759D01*
X191952Y701047D01*
X191952Y695624D01*
X194664Y692912D01*
X208324Y692912D02*
X208324Y703759D01*
X213747Y703759D02*
X208324Y698335D01*
X213747Y703759D02*
X216459Y703759D01*
X238338Y703759D02*
X243762Y709182D01*
X243762Y692912D01*
X249185Y692912D02*
X238338Y692912D01*
X254710Y692912D02*
X254710Y709182D01*
X260133Y703759D01*
X265556Y709182D01*
X265556Y692912D01*
X271081Y687489D02*
X276505Y692912D01*
X276505Y695624D01*
X273793Y695624D01*
X273793Y692912D01*
X276505Y692912D01*
X298367Y695624D02*
X298367Y709182D01*
X298367Y695624D02*
X301079Y692912D01*
X306502Y692912D01*
X309214Y695624D01*
X309214Y709182D01*
X314739Y709182D02*
X314739Y692912D01*
X325585Y692912D01*
X347482Y692912D02*
X347482Y709182D01*
X358329Y709182D01*
X352905Y701047D02*
X347482Y701047D01*
X363854Y703759D02*
X366565Y703759D01*
X366565Y692912D01*
X363854Y692912D02*
X369277Y692912D01*
X366565Y709182D02*
X366565Y711894D01*
X374768Y709182D02*
X377480Y709182D01*
X377480Y692912D01*
X380191Y692912D02*
X374768Y692912D01*
X388394Y692912D02*
X393817Y692912D01*
X388394Y692912D02*
X385682Y695624D01*
X385682Y701047D01*
X388394Y703759D01*
X393817Y703759D01*
X396529Y701047D01*
X396529Y698335D01*
X385682Y698335D01*
X418425Y692912D02*
X418425Y709182D01*
X429272Y692912D01*
X429272Y709182D01*
X437509Y692912D02*
X442932Y692912D01*
X445644Y695624D01*
X445644Y701047D01*
X442932Y703759D01*
X437509Y703759D01*
X434797Y701047D01*
X434797Y695624D01*
X437509Y692912D01*
X451169Y692912D02*
X451169Y695624D01*
X453880Y695624D01*
X453880Y692912D01*
X451169Y692912D01*
X478438Y692912D02*
X483861Y692912D01*
X478438Y692912D02*
X475726Y695624D01*
X475726Y701047D01*
X478438Y703759D01*
X483861Y703759D01*
X486573Y701047D01*
X486573Y698335D01*
X475726Y698335D01*
X494809Y695624D02*
X494809Y706470D01*
X494809Y695624D02*
X497521Y692912D01*
X497521Y703759D02*
X492097Y703759D01*
X505723Y703759D02*
X513858Y703759D01*
X505723Y703759D02*
X503012Y701047D01*
X503012Y695624D01*
X505723Y692912D01*
X513858Y692912D01*
X519383Y692912D02*
X519383Y695624D01*
X522095Y695624D01*
X522095Y692912D01*
X519383Y692912D01*
M02*
