G04 EAGLE Gerber RS-274X export*
G75*
%MOMM*%
%FSLAX34Y34*%
%LPD*%
%IN*%
%IPPOS*%
%AMOC8*
5,1,8,0,0,1.08239X$1,22.5*%
G01*
%ADD10C,0.254000*%


D10*
X0Y0D02*
X660400Y0D01*
X660400Y25400D01*
X685800Y50800D01*
X685800Y378460D01*
X660400Y403860D01*
X660400Y518160D01*
X645160Y533400D01*
X0Y533400D01*
X0Y0D01*
X179500Y17500D02*
X190500Y17500D01*
X190500Y22500D01*
X179500Y22500D01*
X179500Y17500D01*
X74500Y17500D02*
X85500Y17500D01*
X85500Y22500D01*
X74500Y22500D01*
X74500Y17500D01*
X24500Y17500D02*
X35500Y17500D01*
X35500Y22500D01*
X24500Y22500D01*
X24500Y17500D01*
X229500Y17500D02*
X240500Y17500D01*
X240500Y22500D01*
X229500Y22500D01*
X229500Y17500D01*
X168275Y507480D02*
X168207Y506443D01*
X168071Y505413D01*
X167869Y504393D01*
X167600Y503389D01*
X167265Y502405D01*
X166868Y501445D01*
X166408Y500513D01*
X165888Y499612D01*
X165311Y498748D01*
X164678Y497924D01*
X163993Y497142D01*
X163258Y496407D01*
X162476Y495722D01*
X161652Y495089D01*
X160788Y494512D01*
X159887Y493992D01*
X158955Y493532D01*
X157995Y493135D01*
X157011Y492800D01*
X156007Y492531D01*
X154987Y492329D01*
X153957Y492193D01*
X152920Y492125D01*
X151880Y492125D01*
X150843Y492193D01*
X149813Y492329D01*
X148793Y492531D01*
X147789Y492800D01*
X146805Y493135D01*
X145845Y493532D01*
X144913Y493992D01*
X144012Y494512D01*
X143148Y495089D01*
X142324Y495722D01*
X141542Y496407D01*
X140807Y497142D01*
X140122Y497924D01*
X139489Y498748D01*
X138912Y499612D01*
X138392Y500513D01*
X137932Y501445D01*
X137535Y502405D01*
X137200Y503389D01*
X136931Y504393D01*
X136729Y505413D01*
X136593Y506443D01*
X136525Y507480D01*
X136525Y508520D01*
X136593Y509557D01*
X136729Y510587D01*
X136931Y511607D01*
X137200Y512611D01*
X137535Y513595D01*
X137932Y514555D01*
X138392Y515487D01*
X138912Y516388D01*
X139489Y517252D01*
X140122Y518076D01*
X140807Y518858D01*
X141542Y519593D01*
X142324Y520278D01*
X143148Y520911D01*
X144012Y521488D01*
X144913Y522008D01*
X145845Y522468D01*
X146805Y522865D01*
X147789Y523200D01*
X148793Y523469D01*
X149813Y523671D01*
X150843Y523807D01*
X151880Y523875D01*
X152920Y523875D01*
X153957Y523807D01*
X154987Y523671D01*
X156007Y523469D01*
X157011Y523200D01*
X157995Y522865D01*
X158955Y522468D01*
X159887Y522008D01*
X160788Y521488D01*
X161652Y520911D01*
X162476Y520278D01*
X163258Y519593D01*
X163993Y518858D01*
X164678Y518076D01*
X165311Y517252D01*
X165888Y516388D01*
X166408Y515487D01*
X166868Y514555D01*
X167265Y513595D01*
X167600Y512611D01*
X167869Y511607D01*
X168071Y510587D01*
X168207Y509557D01*
X168275Y508520D01*
X168275Y507480D01*
X155575Y24880D02*
X155507Y23843D01*
X155371Y22813D01*
X155169Y21793D01*
X154900Y20789D01*
X154565Y19805D01*
X154168Y18845D01*
X153708Y17913D01*
X153188Y17012D01*
X152611Y16148D01*
X151978Y15324D01*
X151293Y14542D01*
X150558Y13807D01*
X149776Y13122D01*
X148952Y12489D01*
X148088Y11912D01*
X147187Y11392D01*
X146255Y10932D01*
X145295Y10535D01*
X144311Y10200D01*
X143307Y9931D01*
X142287Y9729D01*
X141257Y9593D01*
X140220Y9525D01*
X139180Y9525D01*
X138143Y9593D01*
X137113Y9729D01*
X136093Y9931D01*
X135089Y10200D01*
X134105Y10535D01*
X133145Y10932D01*
X132213Y11392D01*
X131312Y11912D01*
X130448Y12489D01*
X129624Y13122D01*
X128842Y13807D01*
X128107Y14542D01*
X127422Y15324D01*
X126789Y16148D01*
X126212Y17012D01*
X125692Y17913D01*
X125232Y18845D01*
X124835Y19805D01*
X124500Y20789D01*
X124231Y21793D01*
X124029Y22813D01*
X123893Y23843D01*
X123825Y24880D01*
X123825Y25920D01*
X123893Y26957D01*
X124029Y27987D01*
X124231Y29007D01*
X124500Y30011D01*
X124835Y30995D01*
X125232Y31955D01*
X125692Y32887D01*
X126212Y33788D01*
X126789Y34652D01*
X127422Y35476D01*
X128107Y36258D01*
X128842Y36993D01*
X129624Y37678D01*
X130448Y38311D01*
X131312Y38888D01*
X132213Y39408D01*
X133145Y39868D01*
X134105Y40265D01*
X135089Y40600D01*
X136093Y40869D01*
X137113Y41071D01*
X138143Y41207D01*
X139180Y41275D01*
X140220Y41275D01*
X141257Y41207D01*
X142287Y41071D01*
X143307Y40869D01*
X144311Y40600D01*
X145295Y40265D01*
X146255Y39868D01*
X147187Y39408D01*
X148088Y38888D01*
X148952Y38311D01*
X149776Y37678D01*
X150558Y36993D01*
X151293Y36258D01*
X151978Y35476D01*
X152611Y34652D01*
X153188Y33788D01*
X153708Y32887D01*
X154168Y31955D01*
X154565Y30995D01*
X154900Y30011D01*
X155169Y29007D01*
X155371Y27987D01*
X155507Y26957D01*
X155575Y25920D01*
X155575Y24880D01*
X676275Y75680D02*
X676207Y74643D01*
X676071Y73613D01*
X675869Y72593D01*
X675600Y71589D01*
X675265Y70605D01*
X674868Y69645D01*
X674408Y68713D01*
X673888Y67812D01*
X673311Y66948D01*
X672678Y66124D01*
X671993Y65342D01*
X671258Y64607D01*
X670476Y63922D01*
X669652Y63289D01*
X668788Y62712D01*
X667887Y62192D01*
X666955Y61732D01*
X665995Y61335D01*
X665011Y61000D01*
X664007Y60731D01*
X662987Y60529D01*
X661957Y60393D01*
X660920Y60325D01*
X659880Y60325D01*
X658843Y60393D01*
X657813Y60529D01*
X656793Y60731D01*
X655789Y61000D01*
X654805Y61335D01*
X653845Y61732D01*
X652913Y62192D01*
X652012Y62712D01*
X651148Y63289D01*
X650324Y63922D01*
X649542Y64607D01*
X648807Y65342D01*
X648122Y66124D01*
X647489Y66948D01*
X646912Y67812D01*
X646392Y68713D01*
X645932Y69645D01*
X645535Y70605D01*
X645200Y71589D01*
X644931Y72593D01*
X644729Y73613D01*
X644593Y74643D01*
X644525Y75680D01*
X644525Y76720D01*
X644593Y77757D01*
X644729Y78787D01*
X644931Y79807D01*
X645200Y80811D01*
X645535Y81795D01*
X645932Y82755D01*
X646392Y83687D01*
X646912Y84588D01*
X647489Y85452D01*
X648122Y86276D01*
X648807Y87058D01*
X649542Y87793D01*
X650324Y88478D01*
X651148Y89111D01*
X652012Y89688D01*
X652913Y90208D01*
X653845Y90668D01*
X654805Y91065D01*
X655789Y91400D01*
X656793Y91669D01*
X657813Y91871D01*
X658843Y92007D01*
X659880Y92075D01*
X660920Y92075D01*
X661957Y92007D01*
X662987Y91871D01*
X664007Y91669D01*
X665011Y91400D01*
X665995Y91065D01*
X666955Y90668D01*
X667887Y90208D01*
X668788Y89688D01*
X669652Y89111D01*
X670476Y88478D01*
X671258Y87793D01*
X671993Y87058D01*
X672678Y86276D01*
X673311Y85452D01*
X673888Y84588D01*
X674408Y83687D01*
X674868Y82755D01*
X675265Y81795D01*
X675600Y80811D01*
X675869Y79807D01*
X676071Y78787D01*
X676207Y77757D01*
X676275Y76720D01*
X676275Y75680D01*
X676275Y355080D02*
X676207Y354043D01*
X676071Y353013D01*
X675869Y351993D01*
X675600Y350989D01*
X675265Y350005D01*
X674868Y349045D01*
X674408Y348113D01*
X673888Y347212D01*
X673311Y346348D01*
X672678Y345524D01*
X671993Y344742D01*
X671258Y344007D01*
X670476Y343322D01*
X669652Y342689D01*
X668788Y342112D01*
X667887Y341592D01*
X666955Y341132D01*
X665995Y340735D01*
X665011Y340400D01*
X664007Y340131D01*
X662987Y339929D01*
X661957Y339793D01*
X660920Y339725D01*
X659880Y339725D01*
X658843Y339793D01*
X657813Y339929D01*
X656793Y340131D01*
X655789Y340400D01*
X654805Y340735D01*
X653845Y341132D01*
X652913Y341592D01*
X652012Y342112D01*
X651148Y342689D01*
X650324Y343322D01*
X649542Y344007D01*
X648807Y344742D01*
X648122Y345524D01*
X647489Y346348D01*
X646912Y347212D01*
X646392Y348113D01*
X645932Y349045D01*
X645535Y350005D01*
X645200Y350989D01*
X644931Y351993D01*
X644729Y353013D01*
X644593Y354043D01*
X644525Y355080D01*
X644525Y356120D01*
X644593Y357157D01*
X644729Y358187D01*
X644931Y359207D01*
X645200Y360211D01*
X645535Y361195D01*
X645932Y362155D01*
X646392Y363087D01*
X646912Y363988D01*
X647489Y364852D01*
X648122Y365676D01*
X648807Y366458D01*
X649542Y367193D01*
X650324Y367878D01*
X651148Y368511D01*
X652012Y369088D01*
X652913Y369608D01*
X653845Y370068D01*
X654805Y370465D01*
X655789Y370800D01*
X656793Y371069D01*
X657813Y371271D01*
X658843Y371407D01*
X659880Y371475D01*
X660920Y371475D01*
X661957Y371407D01*
X662987Y371271D01*
X664007Y371069D01*
X665011Y370800D01*
X665995Y370465D01*
X666955Y370068D01*
X667887Y369608D01*
X668788Y369088D01*
X669652Y368511D01*
X670476Y367878D01*
X671258Y367193D01*
X671993Y366458D01*
X672678Y365676D01*
X673311Y364852D01*
X673888Y363988D01*
X674408Y363087D01*
X674868Y362155D01*
X675265Y361195D01*
X675600Y360211D01*
X675869Y359207D01*
X676071Y358187D01*
X676207Y357157D01*
X676275Y356120D01*
X676275Y355080D01*
X214466Y134500D02*
X214533Y135095D01*
X214666Y135679D01*
X214864Y136244D01*
X215124Y136784D01*
X215443Y137292D01*
X215816Y137760D01*
X216240Y138184D01*
X216709Y138557D01*
X217216Y138876D01*
X217756Y139136D01*
X218321Y139334D01*
X218905Y139467D01*
X219500Y139534D01*
X220100Y139534D01*
X220695Y139467D01*
X221279Y139334D01*
X221844Y139136D01*
X222384Y138876D01*
X222892Y138557D01*
X223360Y138184D01*
X223784Y137760D01*
X224157Y137292D01*
X224476Y136784D01*
X224736Y136244D01*
X224934Y135679D01*
X225067Y135095D01*
X225134Y134500D01*
X225134Y133900D01*
X225067Y133305D01*
X224934Y132721D01*
X224736Y132156D01*
X224476Y131616D01*
X224157Y131109D01*
X223784Y130640D01*
X223360Y130216D01*
X222892Y129843D01*
X222384Y129524D01*
X221844Y129264D01*
X221279Y129066D01*
X220695Y128933D01*
X220100Y128866D01*
X219500Y128866D01*
X218905Y128933D01*
X218321Y129066D01*
X217756Y129264D01*
X217216Y129524D01*
X216709Y129843D01*
X216240Y130216D01*
X215816Y130640D01*
X215443Y131109D01*
X215124Y131616D01*
X214864Y132156D01*
X214666Y132721D01*
X214533Y133305D01*
X214466Y133900D01*
X214466Y134500D01*
X163666Y124340D02*
X163733Y124935D01*
X163866Y125519D01*
X164064Y126084D01*
X164324Y126624D01*
X164643Y127132D01*
X165016Y127600D01*
X165440Y128024D01*
X165909Y128397D01*
X166416Y128716D01*
X166956Y128976D01*
X167521Y129174D01*
X168105Y129307D01*
X168700Y129374D01*
X169300Y129374D01*
X169895Y129307D01*
X170479Y129174D01*
X171044Y128976D01*
X171584Y128716D01*
X172092Y128397D01*
X172560Y128024D01*
X172984Y127600D01*
X173357Y127132D01*
X173676Y126624D01*
X173936Y126084D01*
X174134Y125519D01*
X174267Y124935D01*
X174334Y124340D01*
X174334Y123740D01*
X174267Y123145D01*
X174134Y122561D01*
X173936Y121996D01*
X173676Y121456D01*
X173357Y120949D01*
X172984Y120480D01*
X172560Y120056D01*
X172092Y119683D01*
X171584Y119364D01*
X171044Y119104D01*
X170479Y118906D01*
X169895Y118773D01*
X169300Y118706D01*
X168700Y118706D01*
X168105Y118773D01*
X167521Y118906D01*
X166956Y119104D01*
X166416Y119364D01*
X165909Y119683D01*
X165440Y120056D01*
X165016Y120480D01*
X164643Y120949D01*
X164324Y121456D01*
X164064Y121996D01*
X163866Y122561D01*
X163733Y123145D01*
X163666Y123740D01*
X163666Y124340D01*
X163666Y144660D02*
X163733Y145255D01*
X163866Y145839D01*
X164064Y146404D01*
X164324Y146944D01*
X164643Y147452D01*
X165016Y147920D01*
X165440Y148344D01*
X165909Y148717D01*
X166416Y149036D01*
X166956Y149296D01*
X167521Y149494D01*
X168105Y149627D01*
X168700Y149694D01*
X169300Y149694D01*
X169895Y149627D01*
X170479Y149494D01*
X171044Y149296D01*
X171584Y149036D01*
X172092Y148717D01*
X172560Y148344D01*
X172984Y147920D01*
X173357Y147452D01*
X173676Y146944D01*
X173936Y146404D01*
X174134Y145839D01*
X174267Y145255D01*
X174334Y144660D01*
X174334Y144060D01*
X174267Y143465D01*
X174134Y142881D01*
X173936Y142316D01*
X173676Y141776D01*
X173357Y141269D01*
X172984Y140800D01*
X172560Y140376D01*
X172092Y140003D01*
X171584Y139684D01*
X171044Y139424D01*
X170479Y139226D01*
X169895Y139093D01*
X169300Y139026D01*
X168700Y139026D01*
X168105Y139093D01*
X167521Y139226D01*
X166956Y139424D01*
X166416Y139684D01*
X165909Y140003D01*
X165440Y140376D01*
X165016Y140800D01*
X164643Y141269D01*
X164324Y141776D01*
X164064Y142316D01*
X163866Y142881D01*
X163733Y143465D01*
X163666Y144060D01*
X163666Y144660D01*
X37000Y454656D02*
X36933Y453972D01*
X36798Y453297D01*
X36599Y452639D01*
X36336Y452004D01*
X36011Y451397D01*
X35629Y450825D01*
X35193Y450293D01*
X34707Y449807D01*
X34175Y449371D01*
X33603Y448989D01*
X32997Y448664D01*
X32361Y448401D01*
X31703Y448202D01*
X31028Y448067D01*
X30344Y448000D01*
X29656Y448000D01*
X28972Y448067D01*
X28297Y448202D01*
X27639Y448401D01*
X27004Y448664D01*
X26397Y448989D01*
X25825Y449371D01*
X25293Y449807D01*
X24807Y450293D01*
X24371Y450825D01*
X23989Y451397D01*
X23664Y452004D01*
X23401Y452639D01*
X23202Y453297D01*
X23067Y453972D01*
X23000Y454656D01*
X23000Y455344D01*
X23067Y456028D01*
X23202Y456703D01*
X23401Y457361D01*
X23664Y457997D01*
X23989Y458603D01*
X24371Y459175D01*
X24807Y459707D01*
X25293Y460193D01*
X25825Y460629D01*
X26397Y461011D01*
X27004Y461336D01*
X27639Y461599D01*
X28297Y461798D01*
X28972Y461933D01*
X29656Y462000D01*
X30344Y462000D01*
X31028Y461933D01*
X31703Y461798D01*
X32361Y461599D01*
X32997Y461336D01*
X33603Y461011D01*
X34175Y460629D01*
X34707Y460193D01*
X35193Y459707D01*
X35629Y459175D01*
X36011Y458603D01*
X36336Y457997D01*
X36599Y457361D01*
X36798Y456703D01*
X36933Y456028D01*
X37000Y455344D01*
X37000Y454656D01*
X84000Y454607D02*
X83932Y453824D01*
X83795Y453050D01*
X83592Y452291D01*
X83323Y451553D01*
X82991Y450840D01*
X82598Y450160D01*
X82147Y449516D01*
X81642Y448914D01*
X81086Y448358D01*
X80484Y447853D01*
X79840Y447402D01*
X79160Y447009D01*
X78447Y446677D01*
X77709Y446408D01*
X76950Y446205D01*
X76176Y446069D01*
X75393Y446000D01*
X74607Y446000D01*
X73824Y446069D01*
X73050Y446205D01*
X72291Y446408D01*
X71553Y446677D01*
X70840Y447009D01*
X70160Y447402D01*
X69516Y447853D01*
X68914Y448358D01*
X68358Y448914D01*
X67853Y449516D01*
X67402Y450160D01*
X67009Y450840D01*
X66677Y451553D01*
X66408Y452291D01*
X66205Y453050D01*
X66069Y453824D01*
X66000Y454607D01*
X66000Y455393D01*
X66069Y456176D01*
X66205Y456950D01*
X66408Y457709D01*
X66677Y458447D01*
X67009Y459160D01*
X67402Y459840D01*
X67853Y460484D01*
X68358Y461086D01*
X68914Y461642D01*
X69516Y462147D01*
X70160Y462598D01*
X70840Y462991D01*
X71553Y463323D01*
X72291Y463592D01*
X73050Y463795D01*
X73824Y463932D01*
X74607Y464000D01*
X75393Y464000D01*
X76176Y463932D01*
X76950Y463795D01*
X77709Y463592D01*
X78447Y463323D01*
X79160Y462991D01*
X79840Y462598D01*
X80484Y462147D01*
X81086Y461642D01*
X81642Y461086D01*
X82147Y460484D01*
X82598Y459840D01*
X82991Y459160D01*
X83323Y458447D01*
X83592Y457709D01*
X83795Y456950D01*
X83932Y456176D01*
X84000Y455393D01*
X84000Y454607D01*
X53764Y175900D02*
X53298Y175974D01*
X52848Y176120D01*
X52428Y176334D01*
X52046Y176612D01*
X51712Y176946D01*
X51434Y177328D01*
X51220Y177748D01*
X51074Y178198D01*
X51000Y178664D01*
X51000Y179136D01*
X51074Y179603D01*
X51220Y180052D01*
X51434Y180472D01*
X51712Y180854D01*
X52046Y181188D01*
X52428Y181466D01*
X52848Y181680D01*
X53298Y181826D01*
X53764Y181900D01*
X54236Y181900D01*
X54703Y181826D01*
X55152Y181680D01*
X55572Y181466D01*
X55954Y181188D01*
X56288Y180854D01*
X56566Y180472D01*
X56780Y180052D01*
X56926Y179603D01*
X57000Y179136D01*
X57000Y178664D01*
X56926Y178198D01*
X56780Y177748D01*
X56566Y177328D01*
X56288Y176946D01*
X55954Y176612D01*
X55572Y176334D01*
X55152Y176120D01*
X54703Y175974D01*
X54236Y175900D01*
X53764Y175900D01*
X53764Y118100D02*
X53298Y118174D01*
X52848Y118320D01*
X52428Y118534D01*
X52046Y118812D01*
X51712Y119146D01*
X51434Y119528D01*
X51220Y119948D01*
X51074Y120398D01*
X51000Y120864D01*
X51000Y121336D01*
X51074Y121803D01*
X51220Y122252D01*
X51434Y122672D01*
X51712Y123054D01*
X52046Y123388D01*
X52428Y123666D01*
X52848Y123880D01*
X53298Y124026D01*
X53764Y124100D01*
X54236Y124100D01*
X54703Y124026D01*
X55152Y123880D01*
X55572Y123666D01*
X55954Y123388D01*
X56288Y123054D01*
X56566Y122672D01*
X56780Y122252D01*
X56926Y121803D01*
X57000Y121336D01*
X57000Y120864D01*
X56926Y120398D01*
X56780Y119948D01*
X56566Y119528D01*
X56288Y119146D01*
X55954Y118812D01*
X55572Y118534D01*
X55152Y118320D01*
X54703Y118174D01*
X54236Y118100D01*
X53764Y118100D01*
X53764Y325900D02*
X53298Y325974D01*
X52848Y326120D01*
X52428Y326334D01*
X52046Y326612D01*
X51712Y326946D01*
X51434Y327328D01*
X51220Y327748D01*
X51074Y328198D01*
X51000Y328664D01*
X51000Y329136D01*
X51074Y329603D01*
X51220Y330052D01*
X51434Y330472D01*
X51712Y330854D01*
X52046Y331188D01*
X52428Y331466D01*
X52848Y331680D01*
X53298Y331826D01*
X53764Y331900D01*
X54236Y331900D01*
X54703Y331826D01*
X55152Y331680D01*
X55572Y331466D01*
X55954Y331188D01*
X56288Y330854D01*
X56566Y330472D01*
X56780Y330052D01*
X56926Y329603D01*
X57000Y329136D01*
X57000Y328664D01*
X56926Y328198D01*
X56780Y327748D01*
X56566Y327328D01*
X56288Y326946D01*
X55954Y326612D01*
X55572Y326334D01*
X55152Y326120D01*
X54703Y325974D01*
X54236Y325900D01*
X53764Y325900D01*
X53764Y268100D02*
X53298Y268174D01*
X52848Y268320D01*
X52428Y268534D01*
X52046Y268812D01*
X51712Y269146D01*
X51434Y269528D01*
X51220Y269948D01*
X51074Y270398D01*
X51000Y270864D01*
X51000Y271336D01*
X51074Y271803D01*
X51220Y272252D01*
X51434Y272672D01*
X51712Y273054D01*
X52046Y273388D01*
X52428Y273666D01*
X52848Y273880D01*
X53298Y274026D01*
X53764Y274100D01*
X54236Y274100D01*
X54703Y274026D01*
X55152Y273880D01*
X55572Y273666D01*
X55954Y273388D01*
X56288Y273054D01*
X56566Y272672D01*
X56780Y272252D01*
X56926Y271803D01*
X57000Y271336D01*
X57000Y270864D01*
X56926Y270398D01*
X56780Y269948D01*
X56566Y269528D01*
X56288Y269146D01*
X55954Y268812D01*
X55572Y268534D01*
X55152Y268320D01*
X54703Y268174D01*
X54236Y268100D01*
X53764Y268100D01*
M02*
