G04 EAGLE Gerber RS-274X export*
G75*
%MOMM*%
%FSLAX34Y34*%
%LPD*%
%INSilkscreen Top*%
%IPPOS*%
%AMOC8*
5,1,8,0,0,1.08239X$1,22.5*%
G01*
%ADD10R,0.129731X0.016213*%
%ADD11R,0.145944X0.016213*%
%ADD12R,0.275675X0.016213*%
%ADD13R,0.389188X0.016219*%
%ADD14R,0.356756X0.016219*%
%ADD15R,0.437838X0.016213*%
%ADD16R,0.470269X0.016213*%
%ADD17R,0.486488X0.016213*%
%ADD18R,0.502700X0.016213*%
%ADD19R,0.518919X0.016213*%
%ADD20R,0.535131X0.016213*%
%ADD21R,0.567569X0.016213*%
%ADD22R,0.243244X0.016219*%
%ADD23R,0.275675X0.016219*%
%ADD24R,0.194594X0.016213*%
%ADD25R,0.210813X0.016213*%
%ADD26R,0.210806X0.016213*%
%ADD27R,0.178375X0.016213*%
%ADD28R,0.178381X0.016213*%
%ADD29R,0.162163X0.016213*%
%ADD30R,0.162156X0.016213*%
%ADD31R,0.162156X0.016219*%
%ADD32R,0.162163X0.016219*%
%ADD33R,0.145944X0.016219*%
%ADD34R,0.064863X0.016213*%
%ADD35R,0.081081X0.016213*%
%ADD36R,0.113513X0.016213*%
%ADD37R,0.081075X0.016213*%
%ADD38R,0.097294X0.016213*%
%ADD39R,0.227025X0.016213*%
%ADD40R,0.016213X0.016213*%
%ADD41R,0.032431X0.016213*%
%ADD42R,0.243238X0.016213*%
%ADD43R,0.372969X0.016213*%
%ADD44R,0.308106X0.016213*%
%ADD45R,0.291894X0.016213*%
%ADD46R,0.340544X0.016213*%
%ADD47R,0.421619X0.016213*%
%ADD48R,0.259456X0.016213*%
%ADD49R,0.405406X0.016213*%
%ADD50R,0.324325X0.016213*%
%ADD51R,0.486481X0.016213*%
%ADD52R,0.178375X0.016219*%
%ADD53R,0.178381X0.016219*%
%ADD54R,0.535131X0.016219*%
%ADD55R,0.502700X0.016219*%
%ADD56R,0.421619X0.016219*%
%ADD57R,0.470269X0.016219*%
%ADD58R,0.486488X0.016219*%
%ADD59R,0.616213X0.016213*%
%ADD60R,0.551350X0.016213*%
%ADD61R,0.583781X0.016213*%
%ADD62R,0.567563X0.016213*%
%ADD63R,0.632431X0.016213*%
%ADD64R,0.535138X0.016213*%
%ADD65R,0.243244X0.016213*%
%ADD66R,0.259462X0.016213*%
%ADD67R,0.340537X0.016213*%
%ADD68R,0.227025X0.016219*%
%ADD69R,0.243238X0.016219*%
%ADD70R,0.194594X0.016219*%
%ADD71R,0.210806X0.016219*%
%ADD72R,0.129725X0.016213*%
%ADD73R,0.113513X0.016219*%
%ADD74R,0.129725X0.016219*%
%ADD75R,0.129731X0.016219*%
%ADD76R,0.048650X0.016213*%
%ADD77R,0.064863X0.016219*%
%ADD78R,0.372975X0.016213*%
%ADD79R,0.389188X0.016213*%
%ADD80R,0.762156X0.016213*%
%ADD81R,0.762163X0.016213*%
%ADD82R,0.145950X0.016219*%
%ADD83R,0.762156X0.016219*%
%ADD84R,0.762163X0.016219*%
%ADD85R,0.145950X0.016213*%
%ADD86R,0.372969X0.016219*%
%ADD87R,0.275669X0.016213*%
%ADD88R,0.210813X0.016219*%
%ADD89R,0.356756X0.016213*%
%ADD90R,0.291888X0.016213*%
%ADD91R,1.086488X0.016213*%
%ADD92R,0.518919X0.016219*%
%ADD93R,0.454050X0.016219*%
%ADD94R,0.502706X0.016219*%
%ADD95R,0.421625X0.016219*%
%ADD96R,0.454056X0.016213*%
%ADD97R,0.048644X0.016213*%
%ADD98R,0.486481X0.016219*%
%ADD99R,0.259456X0.016219*%
%ADD100R,0.616213X0.016219*%
%ADD101R,0.405406X0.016219*%
%ADD102R,0.340537X0.016219*%
%ADD103R,0.454050X0.016213*%
%ADD104R,0.664863X0.016213*%
%ADD105R,0.324325X0.016219*%
%ADD106R,0.648650X0.016219*%
%ADD107R,0.048650X0.016219*%
%ADD108R,0.372975X0.016219*%
%ADD109R,0.405400X0.016219*%
%ADD110R,0.097300X0.016213*%
%ADD111R,0.097300X0.016219*%
%ADD112R,0.778375X0.016213*%
%ADD113R,0.778375X0.016219*%
%ADD114R,7.751350X0.016213*%
%ADD115R,7.881075X0.016213*%
%ADD116R,7.978375X0.016219*%
%ADD117R,8.043238X0.016213*%
%ADD118R,8.075669X0.016213*%
%ADD119R,8.140538X0.016213*%
%ADD120R,8.172969X0.016213*%
%ADD121R,8.205406X0.016219*%
%ADD122R,8.237838X0.016213*%
%ADD123R,8.270263X0.016213*%
%ADD124R,8.302700X0.016213*%
%ADD125R,8.335131X0.016219*%
%ADD126R,0.324319X0.016219*%
%ADD127R,0.697294X0.016219*%
%ADD128R,0.681081X0.016219*%
%ADD129R,0.697294X0.016213*%
%ADD130R,0.681081X0.016213*%
%ADD131R,0.600000X0.016213*%
%ADD132R,0.567569X0.016219*%
%ADD133R,0.632431X0.016219*%
%ADD134R,0.308113X0.016213*%
%ADD135R,0.356750X0.016213*%
%ADD136R,0.405400X0.016213*%
%ADD137R,0.551350X0.016219*%
%ADD138R,0.016219X0.016213*%
%ADD139R,0.502706X0.016213*%
%ADD140R,0.648644X0.016213*%
%ADD141R,0.454056X0.016219*%
%ADD142R,0.664863X0.016219*%
%ADD143R,0.064869X0.016213*%
%ADD144R,0.324319X0.016213*%
%ADD145R,5.918919X0.016213*%
%ADD146R,5.935131X0.016213*%
%ADD147R,5.951350X0.016213*%
%ADD148R,0.291894X0.016219*%
%ADD149R,5.951344X0.016219*%
%ADD150R,5.935138X0.016213*%
%ADD151R,5.918919X0.016219*%
%ADD152R,5.902700X0.016213*%
%ADD153R,5.886481X0.016213*%
%ADD154R,5.854050X0.016213*%
%ADD155R,5.854050X0.016219*%
%ADD156R,0.421625X0.016213*%
%ADD157R,5.821619X0.016213*%
%ADD158R,5.805400X0.016213*%
%ADD159R,5.772969X0.016213*%
%ADD160R,5.708106X0.016213*%
%ADD161R,5.643244X0.016213*%
%ADD162R,5.772969X0.016219*%
%ADD163R,5.902700X0.016219*%
%ADD164R,5.951350X0.016219*%
%ADD165R,5.951344X0.016213*%
%ADD166R,0.259462X0.016219*%
%ADD167R,0.064869X0.016219*%
%ADD168R,0.016219X0.016219*%
%ADD169R,0.389194X0.016213*%
%ADD170R,0.081081X0.016219*%
%ADD171R,8.335131X0.016213*%
%ADD172R,8.237838X0.016219*%
%ADD173R,8.205406X0.016213*%
%ADD174R,8.075669X0.016219*%
%ADD175R,7.978375X0.016213*%
%ADD176C,0.152400*%
%ADD177C,0.076200*%
%ADD178C,0.050800*%
%ADD179C,0.050000*%
%ADD180C,0.100000*%
%ADD181C,0.101600*%
%ADD182C,0.127000*%
%ADD183C,0.447213*%
%ADD184C,1.270000*%
%ADD185C,0.282838*%
%ADD186C,0.200000*%
%ADD187C,0.600000*%
%ADD188C,0.432663*%


D10*
X588071Y41874D03*
D11*
X596746Y41874D03*
D12*
X588152Y42037D03*
X596746Y42037D03*
D13*
X588233Y42199D03*
D14*
X596828Y42199D03*
D15*
X588152Y42361D03*
X596909Y42361D03*
D16*
X588152Y42523D03*
D17*
X596828Y42523D03*
D18*
X588152Y42685D03*
D19*
X596828Y42685D03*
D20*
X588152Y42847D03*
X596909Y42847D03*
D21*
X588152Y43010D03*
X596909Y43010D03*
D22*
X586530Y43172D03*
X589936Y43172D03*
X595125Y43172D03*
D23*
X598692Y43172D03*
D24*
X586125Y43334D03*
D25*
X590422Y43334D03*
D24*
X594882Y43334D03*
D26*
X599017Y43334D03*
D27*
X586044Y43496D03*
D25*
X590584Y43496D03*
D24*
X594719Y43496D03*
X599260Y43496D03*
D27*
X585882Y43658D03*
D28*
X590746Y43658D03*
D29*
X594557Y43658D03*
D28*
X599341Y43658D03*
D30*
X585800Y43820D03*
D29*
X590828Y43820D03*
X594557Y43820D03*
X599584Y43820D03*
D31*
X585800Y43983D03*
D32*
X590990Y43983D03*
D33*
X594476Y43983D03*
D32*
X599584Y43983D03*
D11*
X585719Y44145D03*
D29*
X590990Y44145D03*
D30*
X594395Y44145D03*
D27*
X599665Y44145D03*
D11*
X585719Y44307D03*
X591071Y44307D03*
D30*
X594395Y44307D03*
D29*
X599746Y44307D03*
D34*
X585314Y44469D03*
D10*
X590990Y44469D03*
D35*
X593990Y44469D03*
D11*
X599828Y44469D03*
X591071Y44631D03*
X599828Y44631D03*
D32*
X591152Y44793D03*
D33*
X599828Y44793D03*
D36*
X571611Y44956D03*
D37*
X579882Y44956D03*
D29*
X591152Y44956D03*
D10*
X599746Y44956D03*
D35*
X605990Y44956D03*
D34*
X624071Y44956D03*
D38*
X632017Y44956D03*
D11*
X532692Y45118D03*
X537395Y45118D03*
X543882Y45118D03*
D10*
X548665Y45118D03*
D11*
X555233Y45118D03*
X559936Y45118D03*
D27*
X565611Y45118D03*
D12*
X571449Y45118D03*
D39*
X579963Y45118D03*
D40*
X588152Y45118D03*
D29*
X591152Y45118D03*
D41*
X596828Y45118D03*
D11*
X599828Y45118D03*
D42*
X605990Y45118D03*
D30*
X612071Y45118D03*
D27*
X617828Y45118D03*
D39*
X624071Y45118D03*
X632017Y45118D03*
D11*
X638098Y45118D03*
X642963Y45118D03*
D29*
X647746Y45118D03*
D11*
X532692Y45280D03*
X537395Y45280D03*
X543882Y45280D03*
D10*
X548665Y45280D03*
D11*
X555233Y45280D03*
X559936Y45280D03*
D27*
X565611Y45280D03*
D43*
X571611Y45280D03*
D44*
X579882Y45280D03*
D25*
X588152Y45280D03*
D11*
X591233Y45280D03*
D24*
X596828Y45280D03*
D29*
X599909Y45280D03*
D44*
X605990Y45280D03*
D30*
X612071Y45280D03*
D27*
X617828Y45280D03*
D45*
X624071Y45280D03*
D46*
X632098Y45280D03*
D11*
X638098Y45280D03*
X642963Y45280D03*
D29*
X647746Y45280D03*
D27*
X532692Y45442D03*
X537395Y45442D03*
X543882Y45442D03*
D30*
X548665Y45442D03*
D27*
X555233Y45442D03*
D28*
X559936Y45442D03*
D27*
X565611Y45442D03*
D47*
X571530Y45442D03*
X579963Y45442D03*
D12*
X587990Y45442D03*
D11*
X591233Y45442D03*
D48*
X596665Y45442D03*
D29*
X599909Y45442D03*
D47*
X606071Y45442D03*
D30*
X612071Y45442D03*
D27*
X617828Y45442D03*
D43*
X623990Y45442D03*
D49*
X631936Y45442D03*
D11*
X638098Y45442D03*
X642963Y45442D03*
D29*
X647746Y45442D03*
D27*
X532692Y45604D03*
X537395Y45604D03*
X543882Y45604D03*
D30*
X548665Y45604D03*
D27*
X555233Y45604D03*
D28*
X559936Y45604D03*
D27*
X565611Y45604D03*
D17*
X571530Y45604D03*
X579963Y45604D03*
D50*
X588071Y45604D03*
D11*
X591233Y45604D03*
D50*
X596828Y45604D03*
D29*
X599909Y45604D03*
D51*
X606071Y45604D03*
D30*
X612071Y45604D03*
D27*
X617828Y45604D03*
D15*
X624152Y45604D03*
X631936Y45604D03*
D11*
X638098Y45604D03*
X642963Y45604D03*
D29*
X647746Y45604D03*
D52*
X532692Y45766D03*
X537395Y45766D03*
X543882Y45766D03*
D31*
X548665Y45766D03*
D52*
X555233Y45766D03*
D53*
X559936Y45766D03*
D52*
X565611Y45766D03*
D54*
X571611Y45766D03*
D55*
X579882Y45766D03*
D56*
X588071Y45766D03*
D33*
X591233Y45766D03*
D13*
X596665Y45766D03*
D32*
X599909Y45766D03*
D55*
X605990Y45766D03*
D31*
X612071Y45766D03*
D52*
X617828Y45766D03*
D57*
X623990Y45766D03*
D58*
X631855Y45766D03*
D33*
X638098Y45766D03*
X642963Y45766D03*
D32*
X647746Y45766D03*
D24*
X532611Y45929D03*
X537476Y45929D03*
D25*
X543882Y45929D03*
D27*
X548746Y45929D03*
D24*
X555152Y45929D03*
X560017Y45929D03*
D27*
X565611Y45929D03*
D20*
X571611Y45929D03*
X579882Y45929D03*
D15*
X587990Y45929D03*
D11*
X591233Y45929D03*
D59*
X597638Y45929D03*
D60*
X605909Y45929D03*
D30*
X612071Y45929D03*
D27*
X617828Y45929D03*
D18*
X623990Y45929D03*
D20*
X631936Y45929D03*
D11*
X638098Y45929D03*
X642963Y45929D03*
D29*
X647746Y45929D03*
D25*
X532692Y46091D03*
D26*
X537395Y46091D03*
D25*
X543882Y46091D03*
D24*
X548665Y46091D03*
D26*
X555233Y46091D03*
D25*
X559936Y46091D03*
D27*
X565611Y46091D03*
D61*
X571692Y46091D03*
D62*
X579882Y46091D03*
D59*
X588882Y46091D03*
D63*
X597557Y46091D03*
D21*
X605990Y46091D03*
D30*
X612071Y46091D03*
D27*
X617828Y46091D03*
D64*
X623990Y46091D03*
D39*
X630233Y46091D03*
D65*
X633557Y46091D03*
D11*
X638098Y46091D03*
X642963Y46091D03*
D29*
X647746Y46091D03*
D25*
X532692Y46253D03*
D26*
X537395Y46253D03*
D25*
X543882Y46253D03*
D24*
X548665Y46253D03*
D26*
X555233Y46253D03*
D25*
X559936Y46253D03*
D27*
X565611Y46253D03*
D48*
X569909Y46253D03*
X573314Y46253D03*
D66*
X578179Y46253D03*
X581584Y46253D03*
D65*
X586855Y46253D03*
D50*
X590341Y46253D03*
D66*
X595530Y46253D03*
D67*
X599017Y46253D03*
D65*
X604206Y46253D03*
X607611Y46253D03*
D30*
X612071Y46253D03*
D27*
X617828Y46253D03*
D65*
X622368Y46253D03*
D39*
X625692Y46253D03*
D25*
X629990Y46253D03*
D24*
X633963Y46253D03*
D11*
X638098Y46253D03*
X642963Y46253D03*
D29*
X647746Y46253D03*
D39*
X532611Y46415D03*
X537476Y46415D03*
X543800Y46415D03*
D26*
X548746Y46415D03*
D39*
X555152Y46415D03*
X560017Y46415D03*
D27*
X565611Y46415D03*
D39*
X569584Y46415D03*
D27*
X573719Y46415D03*
D65*
X577936Y46415D03*
D26*
X581990Y46415D03*
D25*
X586530Y46415D03*
D48*
X590665Y46415D03*
D24*
X595206Y46415D03*
D12*
X599341Y46415D03*
D65*
X604044Y46415D03*
D24*
X608017Y46415D03*
D30*
X612071Y46415D03*
D27*
X617828Y46415D03*
D25*
X622206Y46415D03*
D26*
X625936Y46415D03*
D24*
X629909Y46415D03*
D30*
X634125Y46415D03*
D11*
X638098Y46415D03*
X642963Y46415D03*
D29*
X647746Y46415D03*
D68*
X532611Y46577D03*
D22*
X537395Y46577D03*
X543882Y46577D03*
D68*
X548665Y46577D03*
X555152Y46577D03*
D69*
X559936Y46577D03*
D52*
X565611Y46577D03*
D70*
X569422Y46577D03*
D52*
X573882Y46577D03*
D70*
X577692Y46577D03*
X582071Y46577D03*
D53*
X586368Y46577D03*
D22*
X590746Y46577D03*
D70*
X595044Y46577D03*
D22*
X599503Y46577D03*
D70*
X603800Y46577D03*
X608179Y46577D03*
D31*
X612071Y46577D03*
D52*
X617828Y46577D03*
D71*
X622044Y46577D03*
D31*
X626179Y46577D03*
D70*
X629746Y46577D03*
D32*
X634287Y46577D03*
D33*
X638098Y46577D03*
X642963Y46577D03*
D32*
X647746Y46577D03*
D65*
X532692Y46739D03*
X537395Y46739D03*
X543882Y46739D03*
D39*
X548665Y46739D03*
D65*
X555233Y46739D03*
D42*
X559936Y46739D03*
D27*
X565611Y46739D03*
X569179Y46739D03*
X574044Y46739D03*
D24*
X577530Y46739D03*
D27*
X582314Y46739D03*
X586206Y46739D03*
D39*
X590828Y46739D03*
D28*
X594963Y46739D03*
D39*
X599584Y46739D03*
D24*
X603638Y46739D03*
D27*
X608422Y46739D03*
D30*
X612071Y46739D03*
D27*
X617828Y46739D03*
X621882Y46739D03*
D29*
X626341Y46739D03*
D27*
X629503Y46739D03*
D28*
X634530Y46739D03*
D11*
X638098Y46739D03*
X642963Y46739D03*
D29*
X647746Y46739D03*
D65*
X532692Y46902D03*
X537395Y46902D03*
X543882Y46902D03*
X548746Y46902D03*
X555233Y46902D03*
D48*
X560017Y46902D03*
D27*
X569179Y46902D03*
D29*
X574125Y46902D03*
D27*
X577449Y46902D03*
D30*
X582395Y46902D03*
D29*
X586125Y46902D03*
D24*
X590990Y46902D03*
D29*
X594719Y46902D03*
D25*
X599665Y46902D03*
D24*
X603476Y46902D03*
D27*
X608422Y46902D03*
D30*
X612071Y46902D03*
D27*
X621719Y46902D03*
D11*
X626422Y46902D03*
D30*
X629422Y46902D03*
D29*
X634611Y46902D03*
D11*
X638098Y46902D03*
X642963Y46902D03*
D29*
X647746Y46902D03*
D72*
X531963Y47064D03*
D36*
X533341Y47064D03*
D48*
X537476Y47064D03*
D12*
X543882Y47064D03*
D65*
X548746Y47064D03*
D66*
X555152Y47064D03*
D48*
X560017Y47064D03*
D29*
X569098Y47064D03*
X574287Y47064D03*
D27*
X577449Y47064D03*
X582476Y47064D03*
D29*
X585963Y47064D03*
D27*
X591071Y47064D03*
D11*
X594638Y47064D03*
D24*
X599746Y47064D03*
D27*
X603395Y47064D03*
X608584Y47064D03*
D30*
X612071Y47064D03*
D27*
X621719Y47064D03*
D29*
X626503Y47064D03*
D11*
X629341Y47064D03*
D29*
X634773Y47064D03*
D11*
X638098Y47064D03*
X642963Y47064D03*
D29*
X647746Y47064D03*
D72*
X531963Y47226D03*
D36*
X533341Y47226D03*
D12*
X537395Y47226D03*
D11*
X543233Y47226D03*
D36*
X544692Y47226D03*
D48*
X548665Y47226D03*
D66*
X555152Y47226D03*
D12*
X559936Y47226D03*
D11*
X569017Y47226D03*
D29*
X574287Y47226D03*
X577206Y47226D03*
D27*
X582638Y47226D03*
D11*
X585882Y47226D03*
D27*
X591071Y47226D03*
D29*
X594557Y47226D03*
D27*
X599828Y47226D03*
D30*
X603314Y47226D03*
D27*
X608746Y47226D03*
D30*
X612071Y47226D03*
X621638Y47226D03*
D29*
X626665Y47226D03*
X629260Y47226D03*
X634773Y47226D03*
D11*
X638098Y47226D03*
X642963Y47226D03*
D29*
X647746Y47226D03*
D73*
X531882Y47388D03*
D74*
X533422Y47388D03*
D23*
X537395Y47388D03*
D75*
X543152Y47388D03*
D73*
X544692Y47388D03*
D75*
X548017Y47388D03*
D74*
X549476Y47388D03*
D75*
X554503Y47388D03*
X555963Y47388D03*
D33*
X559287Y47388D03*
D74*
X560828Y47388D03*
D32*
X568936Y47388D03*
X574287Y47388D03*
D31*
X577044Y47388D03*
D52*
X582638Y47388D03*
D33*
X585719Y47388D03*
D32*
X591152Y47388D03*
D33*
X594476Y47388D03*
D32*
X599909Y47388D03*
X603152Y47388D03*
D52*
X608746Y47388D03*
D31*
X612071Y47388D03*
D32*
X621476Y47388D03*
X626665Y47388D03*
D33*
X629179Y47388D03*
D75*
X634773Y47388D03*
D33*
X638098Y47388D03*
X642963Y47388D03*
D32*
X647746Y47388D03*
D10*
X531801Y47550D03*
D72*
X533422Y47550D03*
D10*
X536665Y47550D03*
D72*
X538287Y47550D03*
D11*
X543071Y47550D03*
D36*
X544692Y47550D03*
X547936Y47550D03*
D72*
X549476Y47550D03*
D11*
X554422Y47550D03*
D36*
X556044Y47550D03*
D10*
X559206Y47550D03*
D72*
X560828Y47550D03*
D29*
X568936Y47550D03*
X574287Y47550D03*
D30*
X577044Y47550D03*
D29*
X582719Y47550D03*
D72*
X585638Y47550D03*
D29*
X591152Y47550D03*
D72*
X594395Y47550D03*
D29*
X599909Y47550D03*
X603152Y47550D03*
D30*
X608828Y47550D03*
X612071Y47550D03*
D11*
X621395Y47550D03*
D29*
X626828Y47550D03*
D11*
X629179Y47550D03*
X634855Y47550D03*
X638098Y47550D03*
X642963Y47550D03*
D29*
X647746Y47550D03*
D10*
X531801Y47712D03*
D72*
X533422Y47712D03*
D10*
X536665Y47712D03*
D72*
X538287Y47712D03*
D11*
X543071Y47712D03*
D10*
X544773Y47712D03*
D36*
X547936Y47712D03*
D72*
X549476Y47712D03*
D11*
X554422Y47712D03*
D36*
X556044Y47712D03*
D10*
X559206Y47712D03*
D72*
X560828Y47712D03*
X569098Y47712D03*
D28*
X574206Y47712D03*
D11*
X576963Y47712D03*
D72*
X582557Y47712D03*
D11*
X585557Y47712D03*
X591233Y47712D03*
X594314Y47712D03*
D29*
X599909Y47712D03*
D11*
X603071Y47712D03*
D72*
X608665Y47712D03*
D30*
X612071Y47712D03*
D11*
X621395Y47712D03*
D29*
X626828Y47712D03*
X629098Y47712D03*
D11*
X635017Y47712D03*
X638098Y47712D03*
X642963Y47712D03*
D29*
X647746Y47712D03*
D36*
X531719Y47874D03*
X533503Y47874D03*
D11*
X536584Y47874D03*
D72*
X538287Y47874D03*
X542990Y47874D03*
D36*
X544855Y47874D03*
D72*
X547855Y47874D03*
X549638Y47874D03*
D10*
X554341Y47874D03*
D36*
X556044Y47874D03*
D11*
X559125Y47874D03*
D10*
X560990Y47874D03*
D76*
X569503Y47874D03*
D24*
X574125Y47874D03*
D11*
X576963Y47874D03*
D41*
X582233Y47874D03*
D11*
X585557Y47874D03*
X591233Y47874D03*
X594314Y47874D03*
X599990Y47874D03*
X603071Y47874D03*
D41*
X608341Y47874D03*
D30*
X612071Y47874D03*
D11*
X621395Y47874D03*
D29*
X626828Y47874D03*
D11*
X629017Y47874D03*
X635017Y47874D03*
X638098Y47874D03*
X642963Y47874D03*
D29*
X647746Y47874D03*
D10*
X531638Y48037D03*
X533584Y48037D03*
X536503Y48037D03*
D11*
X538368Y48037D03*
X542909Y48037D03*
D36*
X544855Y48037D03*
D72*
X547855Y48037D03*
X549638Y48037D03*
D11*
X554260Y48037D03*
D36*
X556206Y48037D03*
D11*
X559125Y48037D03*
D10*
X560990Y48037D03*
D27*
X574044Y48037D03*
D11*
X576963Y48037D03*
X585557Y48037D03*
X591233Y48037D03*
D10*
X594233Y48037D03*
D11*
X599990Y48037D03*
D29*
X602990Y48037D03*
D30*
X612071Y48037D03*
D29*
X621314Y48037D03*
D11*
X626909Y48037D03*
X629017Y48037D03*
X635017Y48037D03*
X638098Y48037D03*
X642963Y48037D03*
D29*
X647746Y48037D03*
D75*
X531638Y48199D03*
X533584Y48199D03*
X536503Y48199D03*
D33*
X538368Y48199D03*
X542909Y48199D03*
D73*
X544855Y48199D03*
D74*
X547855Y48199D03*
X549638Y48199D03*
D33*
X554260Y48199D03*
D73*
X556206Y48199D03*
D33*
X559125Y48199D03*
D75*
X560990Y48199D03*
D71*
X573882Y48199D03*
D33*
X576963Y48199D03*
X585557Y48199D03*
X591233Y48199D03*
X594152Y48199D03*
X599990Y48199D03*
D32*
X602990Y48199D03*
D31*
X612071Y48199D03*
D32*
X621314Y48199D03*
D77*
X626503Y48199D03*
D75*
X628936Y48199D03*
D73*
X635017Y48199D03*
D33*
X638098Y48199D03*
X642963Y48199D03*
D32*
X647746Y48199D03*
D36*
X531557Y48361D03*
D10*
X533584Y48361D03*
X536503Y48361D03*
D72*
X538449Y48361D03*
X542828Y48361D03*
X544936Y48361D03*
D36*
X547773Y48361D03*
D72*
X549800Y48361D03*
X554179Y48361D03*
D36*
X556206Y48361D03*
D10*
X559044Y48361D03*
X561152Y48361D03*
D12*
X573557Y48361D03*
D30*
X576882Y48361D03*
D72*
X585476Y48361D03*
D10*
X591314Y48361D03*
D11*
X594152Y48361D03*
X599990Y48361D03*
D29*
X602990Y48361D03*
D30*
X612071Y48361D03*
D29*
X621314Y48361D03*
D10*
X628936Y48361D03*
D72*
X635098Y48361D03*
D11*
X638098Y48361D03*
X642963Y48361D03*
D29*
X647746Y48361D03*
D36*
X531557Y48523D03*
D10*
X533746Y48523D03*
D72*
X536341Y48523D03*
X538449Y48523D03*
X542828Y48523D03*
D36*
X545017Y48523D03*
D10*
X547692Y48523D03*
D72*
X549800Y48523D03*
X554179Y48523D03*
D10*
X556287Y48523D03*
D11*
X558963Y48523D03*
D10*
X561152Y48523D03*
D50*
X573152Y48523D03*
D30*
X576882Y48523D03*
D11*
X585395Y48523D03*
D10*
X591314Y48523D03*
D11*
X594152Y48523D03*
D72*
X600071Y48523D03*
D29*
X602990Y48523D03*
D30*
X612071Y48523D03*
D29*
X621314Y48523D03*
D10*
X628936Y48523D03*
D11*
X635179Y48523D03*
X638098Y48523D03*
X642963Y48523D03*
D29*
X647746Y48523D03*
D72*
X531476Y48685D03*
D10*
X533746Y48685D03*
D72*
X536341Y48685D03*
D11*
X538530Y48685D03*
X542746Y48685D03*
D36*
X545017Y48685D03*
D10*
X547692Y48685D03*
D72*
X549800Y48685D03*
D11*
X554098Y48685D03*
D10*
X556287Y48685D03*
D11*
X558963Y48685D03*
D10*
X561152Y48685D03*
D78*
X572909Y48685D03*
D30*
X576882Y48685D03*
D11*
X585395Y48685D03*
D10*
X591314Y48685D03*
D11*
X594152Y48685D03*
D72*
X600071Y48685D03*
D29*
X602990Y48685D03*
D30*
X612071Y48685D03*
D11*
X621233Y48685D03*
X628855Y48685D03*
X635179Y48685D03*
X638098Y48685D03*
X642963Y48685D03*
D29*
X647746Y48685D03*
D72*
X531476Y48847D03*
D10*
X533746Y48847D03*
D72*
X536341Y48847D03*
D11*
X538530Y48847D03*
X542746Y48847D03*
D72*
X545098Y48847D03*
D10*
X547692Y48847D03*
D11*
X549882Y48847D03*
X554098Y48847D03*
D10*
X556287Y48847D03*
D11*
X558963Y48847D03*
X561233Y48847D03*
D79*
X572665Y48847D03*
D80*
X579882Y48847D03*
D11*
X585395Y48847D03*
D10*
X591314Y48847D03*
D11*
X594152Y48847D03*
D72*
X600071Y48847D03*
D81*
X605990Y48847D03*
D30*
X612071Y48847D03*
D11*
X621233Y48847D03*
X628855Y48847D03*
X635179Y48847D03*
X638098Y48847D03*
X642963Y48847D03*
D29*
X647746Y48847D03*
D36*
X531395Y49010D03*
X533828Y49010D03*
D10*
X536179Y49010D03*
D72*
X538611Y49010D03*
D10*
X542665Y49010D03*
D36*
X545179Y49010D03*
D10*
X547530Y49010D03*
X549963Y49010D03*
D72*
X554017Y49010D03*
D36*
X556368Y49010D03*
D11*
X558800Y49010D03*
D72*
X561314Y49010D03*
D15*
X572260Y49010D03*
D80*
X579882Y49010D03*
D11*
X585395Y49010D03*
D10*
X591314Y49010D03*
D72*
X594071Y49010D03*
X600071Y49010D03*
D81*
X605990Y49010D03*
D30*
X612071Y49010D03*
D11*
X621233Y49010D03*
X628855Y49010D03*
X635179Y49010D03*
X638098Y49010D03*
X642963Y49010D03*
D29*
X647746Y49010D03*
D75*
X531314Y49172D03*
D74*
X533909Y49172D03*
D75*
X536179Y49172D03*
D33*
X538692Y49172D03*
D82*
X542584Y49172D03*
D73*
X545179Y49172D03*
D75*
X547530Y49172D03*
X549963Y49172D03*
D33*
X553936Y49172D03*
D75*
X556449Y49172D03*
D33*
X558800Y49172D03*
D74*
X561314Y49172D03*
D57*
X571936Y49172D03*
D83*
X579882Y49172D03*
D33*
X585395Y49172D03*
D75*
X591314Y49172D03*
D74*
X594071Y49172D03*
X600071Y49172D03*
D84*
X605990Y49172D03*
D31*
X612071Y49172D03*
D33*
X621233Y49172D03*
X628855Y49172D03*
X635179Y49172D03*
X638098Y49172D03*
X642963Y49172D03*
D32*
X647746Y49172D03*
D10*
X531314Y49334D03*
D72*
X533909Y49334D03*
D10*
X536179Y49334D03*
D11*
X538692Y49334D03*
D85*
X542584Y49334D03*
D36*
X545179Y49334D03*
D10*
X547530Y49334D03*
X549963Y49334D03*
D11*
X553936Y49334D03*
D10*
X556449Y49334D03*
D11*
X558800Y49334D03*
D72*
X561314Y49334D03*
D17*
X571692Y49334D03*
D80*
X579882Y49334D03*
D11*
X585395Y49334D03*
D10*
X591314Y49334D03*
D72*
X594071Y49334D03*
X600071Y49334D03*
D81*
X605990Y49334D03*
D30*
X612071Y49334D03*
D11*
X621233Y49334D03*
X628855Y49334D03*
X635179Y49334D03*
X638098Y49334D03*
X642963Y49334D03*
D29*
X647746Y49334D03*
D36*
X531233Y49496D03*
X533990Y49496D03*
D10*
X536179Y49496D03*
D72*
X538773Y49496D03*
D10*
X542503Y49496D03*
D72*
X545260Y49496D03*
D36*
X547449Y49496D03*
D10*
X550125Y49496D03*
D72*
X553855Y49496D03*
D36*
X556530Y49496D03*
D10*
X558719Y49496D03*
D72*
X561476Y49496D03*
D17*
X571530Y49496D03*
D80*
X579882Y49496D03*
D11*
X585395Y49496D03*
D10*
X591314Y49496D03*
D72*
X594071Y49496D03*
X600071Y49496D03*
D81*
X605990Y49496D03*
D30*
X612071Y49496D03*
D11*
X621233Y49496D03*
X628855Y49496D03*
X635179Y49496D03*
X638098Y49496D03*
X642963Y49496D03*
D29*
X647746Y49496D03*
D10*
X531152Y49658D03*
D36*
X533990Y49658D03*
D10*
X536017Y49658D03*
D11*
X538855Y49658D03*
X542422Y49658D03*
D36*
X545341Y49658D03*
D72*
X547368Y49658D03*
D10*
X550125Y49658D03*
D11*
X553773Y49658D03*
D36*
X556530Y49658D03*
D11*
X558638Y49658D03*
D72*
X561476Y49658D03*
D17*
X571206Y49658D03*
D80*
X579882Y49658D03*
D11*
X585395Y49658D03*
D10*
X591314Y49658D03*
D72*
X594071Y49658D03*
X600071Y49658D03*
D81*
X605990Y49658D03*
D30*
X612071Y49658D03*
D11*
X621233Y49658D03*
X628855Y49658D03*
X635179Y49658D03*
X638098Y49658D03*
X642963Y49658D03*
D29*
X647746Y49658D03*
D10*
X531152Y49820D03*
D72*
X534071Y49820D03*
D10*
X536017Y49820D03*
D11*
X538855Y49820D03*
X542422Y49820D03*
D36*
X545341Y49820D03*
D72*
X547368Y49820D03*
D10*
X550125Y49820D03*
D11*
X553773Y49820D03*
D72*
X556611Y49820D03*
D11*
X558638Y49820D03*
D72*
X561476Y49820D03*
D47*
X570882Y49820D03*
D80*
X579882Y49820D03*
D11*
X585395Y49820D03*
D10*
X591314Y49820D03*
D72*
X594071Y49820D03*
X600071Y49820D03*
D81*
X605990Y49820D03*
D30*
X612071Y49820D03*
D11*
X621233Y49820D03*
D10*
X628936Y49820D03*
D11*
X635179Y49820D03*
X638098Y49820D03*
X642963Y49820D03*
D29*
X647746Y49820D03*
D75*
X531152Y49983D03*
D74*
X534071Y49983D03*
D75*
X536017Y49983D03*
X538936Y49983D03*
D33*
X542422Y49983D03*
D74*
X545422Y49983D03*
X547368Y49983D03*
X550287Y49983D03*
D33*
X553773Y49983D03*
D74*
X556611Y49983D03*
D33*
X558638Y49983D03*
X561557Y49983D03*
D86*
X570476Y49983D03*
D33*
X576801Y49983D03*
X582963Y49983D03*
X585395Y49983D03*
D75*
X591314Y49983D03*
D33*
X594152Y49983D03*
D74*
X600071Y49983D03*
D33*
X602909Y49983D03*
X609071Y49983D03*
D31*
X612071Y49983D03*
D32*
X621314Y49983D03*
D75*
X628936Y49983D03*
D33*
X635179Y49983D03*
X638098Y49983D03*
X642963Y49983D03*
D32*
X647746Y49983D03*
D36*
X531071Y50145D03*
X534152Y50145D03*
D10*
X536017Y50145D03*
X538936Y50145D03*
X542341Y50145D03*
D72*
X545422Y50145D03*
D36*
X547287Y50145D03*
D72*
X550287Y50145D03*
X553692Y50145D03*
D36*
X556692Y50145D03*
D10*
X558557Y50145D03*
D72*
X561638Y50145D03*
D50*
X570233Y50145D03*
D72*
X576882Y50145D03*
D10*
X582882Y50145D03*
D11*
X585395Y50145D03*
D10*
X591314Y50145D03*
D11*
X594152Y50145D03*
X599990Y50145D03*
X602909Y50145D03*
D72*
X608990Y50145D03*
D30*
X612071Y50145D03*
D29*
X621314Y50145D03*
D10*
X628936Y50145D03*
D72*
X635098Y50145D03*
D11*
X638098Y50145D03*
X642963Y50145D03*
D29*
X647746Y50145D03*
D72*
X530990Y50307D03*
D36*
X534152Y50307D03*
D72*
X535855Y50307D03*
D11*
X539017Y50307D03*
X542260Y50307D03*
D36*
X545503Y50307D03*
D10*
X547206Y50307D03*
D72*
X550287Y50307D03*
D11*
X553611Y50307D03*
D36*
X556692Y50307D03*
D11*
X558476Y50307D03*
D72*
X561638Y50307D03*
D87*
X569828Y50307D03*
D72*
X576882Y50307D03*
D10*
X582882Y50307D03*
D72*
X585476Y50307D03*
D11*
X591233Y50307D03*
X594152Y50307D03*
X599990Y50307D03*
D10*
X602990Y50307D03*
D72*
X608990Y50307D03*
D30*
X612071Y50307D03*
D29*
X621314Y50307D03*
D11*
X629017Y50307D03*
X635017Y50307D03*
X638098Y50307D03*
X642963Y50307D03*
D29*
X647746Y50307D03*
D72*
X530990Y50469D03*
X534233Y50469D03*
X535855Y50469D03*
D10*
X539098Y50469D03*
D11*
X542260Y50469D03*
D36*
X545503Y50469D03*
D10*
X547206Y50469D03*
X550449Y50469D03*
D11*
X553611Y50469D03*
D10*
X556773Y50469D03*
D11*
X558476Y50469D03*
X561719Y50469D03*
D39*
X569584Y50469D03*
D72*
X576882Y50469D03*
D11*
X582800Y50469D03*
D72*
X585476Y50469D03*
D11*
X591233Y50469D03*
X594152Y50469D03*
X599990Y50469D03*
D10*
X602990Y50469D03*
D11*
X608909Y50469D03*
D30*
X612071Y50469D03*
D29*
X621314Y50469D03*
D11*
X629017Y50469D03*
X635017Y50469D03*
D30*
X638179Y50469D03*
D11*
X642963Y50469D03*
D29*
X647746Y50469D03*
D72*
X530990Y50631D03*
X534233Y50631D03*
X535855Y50631D03*
D10*
X539098Y50631D03*
D11*
X542260Y50631D03*
D10*
X545584Y50631D03*
X547206Y50631D03*
X550449Y50631D03*
D11*
X553611Y50631D03*
D10*
X556773Y50631D03*
D11*
X558476Y50631D03*
X561719Y50631D03*
D24*
X569422Y50631D03*
D72*
X576882Y50631D03*
D11*
X582800Y50631D03*
X585557Y50631D03*
X591233Y50631D03*
D10*
X594233Y50631D03*
D29*
X599909Y50631D03*
D10*
X602990Y50631D03*
D11*
X608909Y50631D03*
D30*
X612071Y50631D03*
D29*
X621476Y50631D03*
D41*
X626179Y50631D03*
D11*
X629017Y50631D03*
X635017Y50631D03*
D30*
X638179Y50631D03*
D29*
X643044Y50631D03*
X647746Y50631D03*
D74*
X530828Y50793D03*
D73*
X534314Y50793D03*
D74*
X535855Y50793D03*
D33*
X539179Y50793D03*
X542098Y50793D03*
D75*
X545584Y50793D03*
D73*
X547125Y50793D03*
D75*
X550449Y50793D03*
D33*
X553449Y50793D03*
D73*
X556855Y50793D03*
D74*
X558395Y50793D03*
X561800Y50793D03*
D31*
X569260Y50793D03*
D74*
X577044Y50793D03*
D33*
X582800Y50793D03*
X585557Y50793D03*
X591233Y50793D03*
X594314Y50793D03*
D52*
X599828Y50793D03*
D74*
X603152Y50793D03*
X608828Y50793D03*
D31*
X612071Y50793D03*
D32*
X621476Y50793D03*
D73*
X626422Y50793D03*
D75*
X629098Y50793D03*
D33*
X635017Y50793D03*
D31*
X638179Y50793D03*
D52*
X642963Y50793D03*
D32*
X647746Y50793D03*
D72*
X530828Y50956D03*
D36*
X534314Y50956D03*
D72*
X535855Y50956D03*
X539260Y50956D03*
D11*
X542098Y50956D03*
D36*
X545665Y50956D03*
X547125Y50956D03*
D72*
X550611Y50956D03*
D11*
X553449Y50956D03*
D36*
X556855Y50956D03*
D72*
X558395Y50956D03*
D11*
X561882Y50956D03*
D30*
X569260Y50956D03*
D35*
X573557Y50956D03*
D72*
X577044Y50956D03*
D11*
X582638Y50956D03*
D72*
X585638Y50956D03*
D11*
X591233Y50956D03*
X594314Y50956D03*
D27*
X599828Y50956D03*
D72*
X603152Y50956D03*
D11*
X608746Y50956D03*
D27*
X612152Y50956D03*
D29*
X621476Y50956D03*
X626665Y50956D03*
D11*
X629179Y50956D03*
D29*
X634936Y50956D03*
D27*
X638260Y50956D03*
X642963Y50956D03*
D29*
X647746Y50956D03*
D72*
X530828Y51118D03*
D48*
X535044Y51118D03*
D72*
X539260Y51118D03*
D11*
X542098Y51118D03*
D66*
X546395Y51118D03*
D72*
X550611Y51118D03*
D11*
X553449Y51118D03*
D12*
X557665Y51118D03*
D11*
X561882Y51118D03*
X569179Y51118D03*
D29*
X573963Y51118D03*
D11*
X577125Y51118D03*
D72*
X582557Y51118D03*
D11*
X585719Y51118D03*
D29*
X591152Y51118D03*
D11*
X594314Y51118D03*
D27*
X599828Y51118D03*
D72*
X603152Y51118D03*
D30*
X608665Y51118D03*
D27*
X612152Y51118D03*
X621557Y51118D03*
X626584Y51118D03*
D11*
X629179Y51118D03*
D29*
X634773Y51118D03*
D27*
X638260Y51118D03*
X642963Y51118D03*
D29*
X647746Y51118D03*
D10*
X530665Y51280D03*
D65*
X535125Y51280D03*
D11*
X539341Y51280D03*
X541936Y51280D03*
D65*
X546314Y51280D03*
D72*
X550611Y51280D03*
D11*
X553287Y51280D03*
D42*
X557665Y51280D03*
D10*
X561963Y51280D03*
D11*
X569179Y51280D03*
D29*
X573963Y51280D03*
D72*
X577206Y51280D03*
X582557Y51280D03*
X585800Y51280D03*
D27*
X591071Y51280D03*
D11*
X594476Y51280D03*
D24*
X599746Y51280D03*
D11*
X603233Y51280D03*
X608584Y51280D03*
D24*
X612233Y51280D03*
D27*
X621557Y51280D03*
X626584Y51280D03*
D72*
X629260Y51280D03*
D11*
X634692Y51280D03*
D27*
X638260Y51280D03*
D24*
X643044Y51280D03*
D29*
X647746Y51280D03*
D10*
X530665Y51442D03*
D65*
X535125Y51442D03*
D11*
X539341Y51442D03*
X541936Y51442D03*
D65*
X546314Y51442D03*
D11*
X550692Y51442D03*
X553287Y51442D03*
D42*
X557665Y51442D03*
D11*
X562044Y51442D03*
X569179Y51442D03*
D27*
X573882Y51442D03*
D72*
X577206Y51442D03*
D11*
X582476Y51442D03*
X585882Y51442D03*
D24*
X590990Y51442D03*
D29*
X594557Y51442D03*
D24*
X599746Y51442D03*
D11*
X603233Y51442D03*
X608584Y51442D03*
D24*
X612233Y51442D03*
D27*
X621719Y51442D03*
D29*
X626503Y51442D03*
D11*
X629341Y51442D03*
D29*
X634611Y51442D03*
D27*
X638260Y51442D03*
D25*
X642963Y51442D03*
D29*
X647584Y51442D03*
D75*
X530665Y51604D03*
D22*
X535125Y51604D03*
D75*
X539422Y51604D03*
D33*
X541936Y51604D03*
D22*
X546314Y51604D03*
D74*
X550773Y51604D03*
D33*
X553287Y51604D03*
D69*
X557665Y51604D03*
D33*
X562044Y51604D03*
X569179Y51604D03*
D52*
X573719Y51604D03*
D33*
X577287Y51604D03*
D31*
X582395Y51604D03*
D32*
X585963Y51604D03*
D88*
X590909Y51604D03*
D33*
X594638Y51604D03*
D70*
X599746Y51604D03*
D33*
X603395Y51604D03*
X608584Y51604D03*
D70*
X612233Y51604D03*
D52*
X621719Y51604D03*
X626422Y51604D03*
D31*
X629422Y51604D03*
D53*
X634530Y51604D03*
D70*
X638341Y51604D03*
D88*
X642963Y51604D03*
D52*
X647503Y51604D03*
D10*
X530665Y51766D03*
D39*
X535044Y51766D03*
D10*
X539422Y51766D03*
D11*
X541936Y51766D03*
D39*
X546395Y51766D03*
D72*
X550773Y51766D03*
D11*
X553287Y51766D03*
D42*
X557665Y51766D03*
D11*
X562044Y51766D03*
X569179Y51766D03*
D24*
X573638Y51766D03*
D29*
X577368Y51766D03*
D27*
X582152Y51766D03*
D11*
X586044Y51766D03*
D39*
X590828Y51766D03*
D11*
X594638Y51766D03*
D39*
X599584Y51766D03*
D30*
X603476Y51766D03*
D27*
X608260Y51766D03*
D26*
X612314Y51766D03*
D76*
X615071Y51766D03*
D27*
X621882Y51766D03*
X626260Y51766D03*
D30*
X629422Y51766D03*
D24*
X634287Y51766D03*
D26*
X638422Y51766D03*
D65*
X642963Y51766D03*
D27*
X647503Y51766D03*
D72*
X530503Y51929D03*
D25*
X535125Y51929D03*
D11*
X539503Y51929D03*
X541773Y51929D03*
D26*
X546314Y51929D03*
D11*
X550855Y51929D03*
X553125Y51929D03*
D25*
X557665Y51929D03*
D11*
X562206Y51929D03*
D30*
X569422Y51929D03*
D24*
X573638Y51929D03*
D29*
X577530Y51929D03*
D24*
X582071Y51929D03*
D11*
X586206Y51929D03*
D65*
X590746Y51929D03*
D29*
X594882Y51929D03*
D48*
X599422Y51929D03*
D29*
X603638Y51929D03*
D28*
X608098Y51929D03*
D48*
X612557Y51929D03*
D38*
X614828Y51929D03*
D24*
X621963Y51929D03*
X626179Y51929D03*
D27*
X629665Y51929D03*
D25*
X634206Y51929D03*
D39*
X638503Y51929D03*
D12*
X642963Y51929D03*
D26*
X647341Y51929D03*
D72*
X530503Y52091D03*
D25*
X535125Y52091D03*
D10*
X539584Y52091D03*
D11*
X541773Y52091D03*
D26*
X546314Y52091D03*
D10*
X550936Y52091D03*
D11*
X553125Y52091D03*
D25*
X557665Y52091D03*
D11*
X562206Y52091D03*
D27*
X569503Y52091D03*
D39*
X573314Y52091D03*
D27*
X577773Y52091D03*
D24*
X581909Y52091D03*
D29*
X586287Y52091D03*
D48*
X590665Y52091D03*
D28*
X594963Y52091D03*
D12*
X599341Y52091D03*
D27*
X603882Y52091D03*
D24*
X608017Y52091D03*
D47*
X613368Y52091D03*
D39*
X622287Y52091D03*
D26*
X625936Y52091D03*
D27*
X629828Y52091D03*
D26*
X634044Y52091D03*
D12*
X638746Y52091D03*
D89*
X643044Y52091D03*
D39*
X647098Y52091D03*
D72*
X530503Y52253D03*
D25*
X535125Y52253D03*
D10*
X539584Y52253D03*
D11*
X541773Y52253D03*
D26*
X546314Y52253D03*
D10*
X550936Y52253D03*
D11*
X553125Y52253D03*
D25*
X557665Y52253D03*
D11*
X562206Y52253D03*
D62*
X571611Y52253D03*
D27*
X577936Y52253D03*
D24*
X581746Y52253D03*
X586611Y52253D03*
D90*
X590503Y52253D03*
D25*
X595287Y52253D03*
D90*
X599260Y52253D03*
D27*
X604044Y52253D03*
D25*
X607773Y52253D03*
D47*
X613368Y52253D03*
D60*
X624071Y52253D03*
D25*
X630152Y52253D03*
D26*
X633882Y52253D03*
D91*
X642801Y52253D03*
D11*
X530422Y52415D03*
D24*
X535044Y52415D03*
D11*
X539665Y52415D03*
D29*
X541692Y52415D03*
D24*
X546395Y52415D03*
D11*
X551017Y52415D03*
D30*
X553044Y52415D03*
D25*
X557665Y52415D03*
D29*
X562287Y52415D03*
D60*
X571530Y52415D03*
X579963Y52415D03*
D59*
X588882Y52415D03*
D63*
X597557Y52415D03*
D21*
X605990Y52415D03*
D47*
X613368Y52415D03*
D64*
X624152Y52415D03*
D21*
X632098Y52415D03*
D61*
X640287Y52415D03*
D15*
X645882Y52415D03*
D75*
X530341Y52577D03*
D52*
X535125Y52577D03*
D74*
X539746Y52577D03*
D33*
X541611Y52577D03*
D52*
X546314Y52577D03*
D75*
X551098Y52577D03*
D33*
X552963Y52577D03*
D53*
X557665Y52577D03*
D33*
X562368Y52577D03*
D92*
X571530Y52577D03*
D55*
X579882Y52577D03*
D93*
X588071Y52577D03*
D33*
X591233Y52577D03*
D93*
X596828Y52577D03*
D33*
X599990Y52577D03*
D92*
X605909Y52577D03*
D56*
X613368Y52577D03*
D94*
X624152Y52577D03*
D92*
X632017Y52577D03*
D33*
X638098Y52577D03*
D95*
X641098Y52577D03*
D56*
X645963Y52577D03*
D10*
X530341Y52739D03*
D27*
X535125Y52739D03*
D72*
X539746Y52739D03*
D11*
X541611Y52739D03*
D27*
X546314Y52739D03*
D10*
X551098Y52739D03*
D11*
X552963Y52739D03*
D28*
X557665Y52739D03*
D11*
X562368Y52739D03*
D17*
X571530Y52739D03*
D16*
X579882Y52739D03*
D47*
X588071Y52739D03*
D11*
X591233Y52739D03*
D47*
X596828Y52739D03*
D11*
X599990Y52739D03*
D16*
X605990Y52739D03*
D11*
X611990Y52739D03*
D12*
X614260Y52739D03*
D16*
X624152Y52739D03*
D17*
X632017Y52739D03*
D11*
X638098Y52739D03*
D49*
X641179Y52739D03*
D79*
X645963Y52739D03*
D11*
X530260Y52902D03*
D27*
X535125Y52902D03*
D11*
X539828Y52902D03*
D29*
X541530Y52902D03*
D27*
X546314Y52902D03*
D11*
X551179Y52902D03*
D30*
X552882Y52902D03*
D28*
X557665Y52902D03*
D30*
X562449Y52902D03*
D96*
X571530Y52902D03*
D47*
X579963Y52902D03*
D49*
X588152Y52902D03*
D11*
X591233Y52902D03*
D79*
X596828Y52902D03*
D11*
X599990Y52902D03*
D47*
X606071Y52902D03*
D11*
X611990Y52902D03*
D66*
X614341Y52902D03*
D15*
X624152Y52902D03*
D96*
X632017Y52902D03*
D11*
X638098Y52902D03*
D89*
X641098Y52902D03*
X645963Y52902D03*
D10*
X530179Y53064D03*
D11*
X535125Y53064D03*
D10*
X539909Y53064D03*
D11*
X541449Y53064D03*
X546314Y53064D03*
D72*
X551260Y53064D03*
D11*
X552801Y53064D03*
X557665Y53064D03*
X562530Y53064D03*
D47*
X571530Y53064D03*
D43*
X579882Y53064D03*
D50*
X588071Y53064D03*
D11*
X591233Y53064D03*
D50*
X596828Y53064D03*
D11*
X599990Y53064D03*
D78*
X605990Y53064D03*
D11*
X611990Y53064D03*
D65*
X614422Y53064D03*
D43*
X624152Y53064D03*
D79*
X632017Y53064D03*
D11*
X638098Y53064D03*
D50*
X641098Y53064D03*
X645963Y53064D03*
D10*
X530179Y53226D03*
D11*
X535125Y53226D03*
D10*
X539909Y53226D03*
D11*
X541449Y53226D03*
X546314Y53226D03*
D72*
X551260Y53226D03*
D11*
X552801Y53226D03*
X557665Y53226D03*
X562530Y53226D03*
D67*
X571611Y53226D03*
D44*
X579882Y53226D03*
D12*
X588152Y53226D03*
D11*
X591233Y53226D03*
D12*
X596909Y53226D03*
D11*
X599990Y53226D03*
D44*
X605990Y53226D03*
D11*
X611990Y53226D03*
D39*
X614503Y53226D03*
D90*
X624233Y53226D03*
D44*
X631936Y53226D03*
D11*
X638098Y53226D03*
D48*
X641098Y53226D03*
D66*
X645963Y53226D03*
D22*
X571449Y53388D03*
D88*
X579882Y53388D03*
D70*
X588233Y53388D03*
X596990Y53388D03*
D88*
X605990Y53388D03*
D33*
X614422Y53388D03*
D22*
X624152Y53388D03*
D68*
X632017Y53388D03*
D71*
X641179Y53388D03*
D70*
X645963Y53388D03*
D34*
X571368Y53550D03*
D97*
X579882Y53550D03*
D41*
X588233Y53550D03*
D76*
X596909Y53550D03*
D97*
X605990Y53550D03*
D41*
X614341Y53550D03*
D76*
X624152Y53550D03*
D97*
X632098Y53550D03*
D41*
X641098Y53550D03*
X645963Y53550D03*
D28*
X636801Y54361D03*
D36*
X642476Y54361D03*
D90*
X636719Y54523D03*
D29*
X642557Y54523D03*
D78*
X636801Y54685D03*
D26*
X642800Y54685D03*
D47*
X636882Y54847D03*
D26*
X642800Y54847D03*
D96*
X636882Y55010D03*
D39*
X642719Y55010D03*
D98*
X636882Y55172D03*
D99*
X642882Y55172D03*
D18*
X636801Y55334D03*
D12*
X642963Y55334D03*
D24*
X635260Y55496D03*
X638665Y55496D03*
D12*
X642963Y55496D03*
D27*
X635017Y55658D03*
D28*
X638909Y55658D03*
D41*
X641746Y55658D03*
D29*
X643692Y55658D03*
X634936Y55820D03*
X638990Y55820D03*
D72*
X643855Y55820D03*
D33*
X634855Y55983D03*
D32*
X639152Y55983D03*
D73*
X643936Y55983D03*
D10*
X634773Y56145D03*
D11*
X639233Y56145D03*
D36*
X643936Y56145D03*
D10*
X634773Y56307D03*
D72*
X639314Y56307D03*
X644017Y56307D03*
D10*
X634773Y56469D03*
D72*
X639314Y56469D03*
X644179Y56469D03*
D34*
X634449Y56631D03*
D72*
X639314Y56631D03*
X644179Y56631D03*
D33*
X639395Y56793D03*
D75*
X644341Y56793D03*
D34*
X531314Y56956D03*
D41*
X589855Y56956D03*
D40*
X597233Y56956D03*
X619125Y56956D03*
D41*
X629584Y56956D03*
D11*
X639395Y56956D03*
D10*
X644341Y56956D03*
D39*
X531152Y57118D03*
D59*
X543638Y57118D03*
D11*
X548584Y57118D03*
D10*
X551584Y57118D03*
D72*
X556125Y57118D03*
D11*
X559125Y57118D03*
X563503Y57118D03*
D72*
X582071Y57118D03*
D39*
X589855Y57118D03*
D26*
X597233Y57118D03*
D11*
X601936Y57118D03*
D10*
X606395Y57118D03*
D72*
X609476Y57118D03*
D11*
X613936Y57118D03*
D39*
X619044Y57118D03*
D72*
X624395Y57118D03*
D25*
X629503Y57118D03*
D97*
X636800Y57118D03*
D72*
X639476Y57118D03*
D10*
X644341Y57118D03*
D50*
X531314Y57280D03*
D59*
X543638Y57280D03*
D11*
X548584Y57280D03*
D10*
X551584Y57280D03*
D72*
X556125Y57280D03*
D11*
X559125Y57280D03*
D29*
X563422Y57280D03*
D72*
X582071Y57280D03*
D44*
X589773Y57280D03*
D87*
X597233Y57280D03*
D11*
X601936Y57280D03*
D10*
X606395Y57280D03*
D72*
X609476Y57280D03*
D11*
X613936Y57280D03*
D44*
X619125Y57280D03*
D72*
X624395Y57280D03*
D44*
X629665Y57280D03*
D24*
X636882Y57280D03*
D72*
X639476Y57280D03*
D11*
X644260Y57280D03*
D89*
X531152Y57442D03*
D59*
X543638Y57442D03*
D11*
X548584Y57442D03*
D10*
X551584Y57442D03*
D72*
X556125Y57442D03*
D11*
X559125Y57442D03*
D29*
X563260Y57442D03*
D72*
X582071Y57442D03*
D49*
X589936Y57442D03*
D89*
X597152Y57442D03*
D11*
X601936Y57442D03*
D10*
X606395Y57442D03*
D72*
X609476Y57442D03*
D11*
X613936Y57442D03*
D78*
X618963Y57442D03*
D72*
X624395Y57442D03*
D43*
X629503Y57442D03*
D87*
X636638Y57442D03*
D72*
X639476Y57442D03*
D11*
X644260Y57442D03*
D86*
X531233Y57604D03*
D100*
X543638Y57604D03*
D33*
X548584Y57604D03*
D75*
X551584Y57604D03*
D74*
X556125Y57604D03*
D33*
X559125Y57604D03*
X563179Y57604D03*
D74*
X582071Y57604D03*
D56*
X589855Y57604D03*
D101*
X597233Y57604D03*
D33*
X601936Y57604D03*
D75*
X606395Y57604D03*
D74*
X609476Y57604D03*
D33*
X613936Y57604D03*
D56*
X619044Y57604D03*
D74*
X624395Y57604D03*
D56*
X629584Y57604D03*
D102*
X636800Y57604D03*
D74*
X639476Y57604D03*
D33*
X644260Y57604D03*
D49*
X531233Y57766D03*
D59*
X543638Y57766D03*
D11*
X548584Y57766D03*
D10*
X551584Y57766D03*
D72*
X556125Y57766D03*
D11*
X559125Y57766D03*
D29*
X563098Y57766D03*
D72*
X582071Y57766D03*
D16*
X589773Y57766D03*
D15*
X597233Y57766D03*
D11*
X601936Y57766D03*
D10*
X606395Y57766D03*
D72*
X609476Y57766D03*
D11*
X613936Y57766D03*
D103*
X619044Y57766D03*
D72*
X624395Y57766D03*
D96*
X629584Y57766D03*
D89*
X636719Y57766D03*
D72*
X639476Y57766D03*
D27*
X644260Y57766D03*
D15*
X531233Y57929D03*
D59*
X543638Y57929D03*
D11*
X548584Y57929D03*
D10*
X551584Y57929D03*
D72*
X556125Y57929D03*
D11*
X559125Y57929D03*
D29*
X562936Y57929D03*
D72*
X582071Y57929D03*
D17*
X589855Y57929D03*
D51*
X597314Y57929D03*
D11*
X601936Y57929D03*
D10*
X606395Y57929D03*
D72*
X609476Y57929D03*
D11*
X613936Y57929D03*
D65*
X617828Y57929D03*
D26*
X620422Y57929D03*
D72*
X624395Y57929D03*
D65*
X628368Y57929D03*
D25*
X630963Y57929D03*
D20*
X637449Y57929D03*
D27*
X644260Y57929D03*
D51*
X531314Y58091D03*
D59*
X543638Y58091D03*
D11*
X548584Y58091D03*
D10*
X551584Y58091D03*
D72*
X556125Y58091D03*
D11*
X559125Y58091D03*
X562855Y58091D03*
D72*
X582071Y58091D03*
D48*
X588557Y58091D03*
D39*
X591314Y58091D03*
D48*
X596017Y58091D03*
D39*
X598611Y58091D03*
D11*
X601936Y58091D03*
D10*
X606395Y58091D03*
D72*
X609476Y58091D03*
D11*
X613936Y58091D03*
D24*
X617422Y58091D03*
D27*
X620584Y58091D03*
D72*
X624395Y58091D03*
D24*
X627963Y58091D03*
D28*
X631125Y58091D03*
D65*
X635828Y58091D03*
D90*
X638665Y58091D03*
D24*
X644341Y58091D03*
D39*
X530017Y58253D03*
X532611Y58253D03*
D59*
X543638Y58253D03*
D11*
X548584Y58253D03*
D10*
X551584Y58253D03*
D72*
X556125Y58253D03*
D11*
X559125Y58253D03*
D29*
X562773Y58253D03*
D72*
X582071Y58253D03*
D24*
X588233Y58253D03*
D28*
X591719Y58253D03*
D24*
X595692Y58253D03*
D29*
X598936Y58253D03*
D11*
X601936Y58253D03*
D10*
X606395Y58253D03*
D72*
X609476Y58253D03*
D11*
X613936Y58253D03*
D27*
X617341Y58253D03*
D11*
X620909Y58253D03*
D72*
X624395Y58253D03*
D29*
X627800Y58253D03*
D11*
X631449Y58253D03*
D27*
X635341Y58253D03*
D39*
X638990Y58253D03*
D26*
X644260Y58253D03*
D27*
X529773Y58415D03*
X533017Y58415D03*
D11*
X541287Y58415D03*
X548584Y58415D03*
D10*
X551584Y58415D03*
D72*
X556125Y58415D03*
D11*
X559125Y58415D03*
X562692Y58415D03*
D72*
X582071Y58415D03*
D27*
X587990Y58415D03*
D29*
X591801Y58415D03*
D11*
X595449Y58415D03*
X599179Y58415D03*
X601936Y58415D03*
D10*
X606395Y58415D03*
D72*
X609476Y58415D03*
D11*
X613936Y58415D03*
D85*
X617179Y58415D03*
D11*
X621233Y58415D03*
D72*
X624395Y58415D03*
D11*
X627557Y58415D03*
X631773Y58415D03*
X635179Y58415D03*
D25*
X639071Y58415D03*
D26*
X644260Y58415D03*
D31*
X529692Y58577D03*
X533098Y58577D03*
D33*
X541287Y58577D03*
X548584Y58577D03*
D75*
X551584Y58577D03*
D74*
X556125Y58577D03*
D33*
X559125Y58577D03*
X562530Y58577D03*
D74*
X582071Y58577D03*
D32*
X587909Y58577D03*
X591963Y58577D03*
X595368Y58577D03*
D75*
X599260Y58577D03*
D33*
X601936Y58577D03*
D75*
X606395Y58577D03*
D74*
X609476Y58577D03*
D33*
X613936Y58577D03*
X617017Y58577D03*
X621395Y58577D03*
D74*
X624395Y58577D03*
D33*
X627557Y58577D03*
D31*
X631855Y58577D03*
D33*
X635017Y58577D03*
D52*
X639233Y58577D03*
D68*
X644341Y58577D03*
D29*
X529530Y58739D03*
D11*
X533179Y58739D03*
X541287Y58739D03*
X548584Y58739D03*
D10*
X551584Y58739D03*
D72*
X556125Y58739D03*
D11*
X559125Y58739D03*
D30*
X562449Y58739D03*
D72*
X582071Y58739D03*
D29*
X587746Y58739D03*
D11*
X592206Y58739D03*
X595287Y58739D03*
D72*
X599422Y58739D03*
D11*
X601936Y58739D03*
D10*
X606395Y58739D03*
D72*
X609476Y58739D03*
D11*
X613936Y58739D03*
X616855Y58739D03*
D72*
X621476Y58739D03*
X624395Y58739D03*
X627314Y58739D03*
X632017Y58739D03*
X634936Y58739D03*
D29*
X639314Y58739D03*
D42*
X644260Y58739D03*
D11*
X529449Y58902D03*
D30*
X533260Y58902D03*
D11*
X541287Y58902D03*
X548584Y58902D03*
D10*
X551584Y58902D03*
D72*
X556125Y58902D03*
D11*
X559125Y58902D03*
X562368Y58902D03*
D72*
X582071Y58902D03*
D11*
X587665Y58902D03*
X592206Y58902D03*
X595125Y58902D03*
X599503Y58902D03*
X601936Y58902D03*
D10*
X606395Y58902D03*
D72*
X609476Y58902D03*
D11*
X613936Y58902D03*
D10*
X616773Y58902D03*
D11*
X621557Y58902D03*
D72*
X624395Y58902D03*
X627314Y58902D03*
D11*
X632098Y58902D03*
D10*
X634773Y58902D03*
D11*
X639395Y58902D03*
D72*
X643692Y58902D03*
D38*
X644990Y58902D03*
D11*
X529449Y59064D03*
X533341Y59064D03*
X541287Y59064D03*
X548584Y59064D03*
D10*
X551584Y59064D03*
D72*
X556125Y59064D03*
D11*
X559125Y59064D03*
X562206Y59064D03*
D72*
X582071Y59064D03*
D11*
X587503Y59064D03*
D30*
X592287Y59064D03*
D72*
X595044Y59064D03*
D11*
X599503Y59064D03*
X601936Y59064D03*
D10*
X606395Y59064D03*
D72*
X609476Y59064D03*
D11*
X613936Y59064D03*
D72*
X616611Y59064D03*
D10*
X621638Y59064D03*
D72*
X624395Y59064D03*
D10*
X627152Y59064D03*
X632179Y59064D03*
X634773Y59064D03*
D11*
X639395Y59064D03*
X643611Y59064D03*
D36*
X645071Y59064D03*
D11*
X529449Y59226D03*
X533341Y59226D03*
X541287Y59226D03*
X548584Y59226D03*
D10*
X551584Y59226D03*
D72*
X556125Y59226D03*
D11*
X559125Y59226D03*
D29*
X562125Y59226D03*
D72*
X582071Y59226D03*
D11*
X587503Y59226D03*
X592368Y59226D03*
D72*
X595044Y59226D03*
D10*
X599584Y59226D03*
D11*
X601936Y59226D03*
D10*
X606395Y59226D03*
D72*
X609476Y59226D03*
D11*
X613936Y59226D03*
D72*
X616611Y59226D03*
D10*
X621638Y59226D03*
D72*
X624395Y59226D03*
D10*
X627152Y59226D03*
X632179Y59226D03*
D36*
X634692Y59226D03*
D72*
X639476Y59226D03*
D10*
X643530Y59226D03*
D36*
X645071Y59226D03*
D75*
X529368Y59388D03*
D33*
X533341Y59388D03*
X541287Y59388D03*
X548584Y59388D03*
D75*
X551584Y59388D03*
D74*
X556125Y59388D03*
D33*
X559125Y59388D03*
X562044Y59388D03*
D74*
X582071Y59388D03*
D33*
X587503Y59388D03*
D77*
X592125Y59388D03*
D33*
X594963Y59388D03*
X599665Y59388D03*
X601936Y59388D03*
D75*
X606395Y59388D03*
D74*
X609476Y59388D03*
D33*
X613936Y59388D03*
D74*
X616611Y59388D03*
D73*
X621719Y59388D03*
D74*
X624395Y59388D03*
D73*
X627071Y59388D03*
X632260Y59388D03*
D75*
X634611Y59388D03*
D74*
X639476Y59388D03*
D75*
X643530Y59388D03*
D74*
X645152Y59388D03*
D10*
X529368Y59550D03*
D11*
X533341Y59550D03*
X541287Y59550D03*
X548584Y59550D03*
D10*
X551584Y59550D03*
D72*
X556125Y59550D03*
D11*
X559125Y59550D03*
X561882Y59550D03*
D72*
X582071Y59550D03*
D85*
X587341Y59550D03*
D11*
X594963Y59550D03*
X599665Y59550D03*
X601936Y59550D03*
D10*
X606395Y59550D03*
D72*
X609476Y59550D03*
D11*
X613936Y59550D03*
D72*
X616611Y59550D03*
D36*
X621719Y59550D03*
D72*
X624395Y59550D03*
D36*
X627071Y59550D03*
X632260Y59550D03*
X634530Y59550D03*
D72*
X639476Y59550D03*
D11*
X643449Y59550D03*
D36*
X645233Y59550D03*
D10*
X529368Y59712D03*
D11*
X533341Y59712D03*
X541287Y59712D03*
X548584Y59712D03*
D10*
X551584Y59712D03*
D72*
X556125Y59712D03*
D11*
X559125Y59712D03*
D29*
X561801Y59712D03*
D72*
X582071Y59712D03*
D85*
X587341Y59712D03*
D10*
X594882Y59712D03*
D34*
X599422Y59712D03*
D11*
X601936Y59712D03*
D10*
X606395Y59712D03*
D72*
X609476Y59712D03*
D11*
X613936Y59712D03*
D36*
X616530Y59712D03*
D72*
X621800Y59712D03*
X624395Y59712D03*
D36*
X627071Y59712D03*
D10*
X632341Y59712D03*
D36*
X634530Y59712D03*
X639557Y59712D03*
D11*
X643449Y59712D03*
D36*
X645233Y59712D03*
D10*
X529368Y59874D03*
D72*
X533422Y59874D03*
D11*
X541287Y59874D03*
X548584Y59874D03*
D10*
X551584Y59874D03*
D72*
X556125Y59874D03*
D11*
X559125Y59874D03*
X561719Y59874D03*
D72*
X582071Y59874D03*
D85*
X587341Y59874D03*
D10*
X594882Y59874D03*
D11*
X601936Y59874D03*
D10*
X606395Y59874D03*
D72*
X609476Y59874D03*
D11*
X613936Y59874D03*
D72*
X616449Y59874D03*
X621800Y59874D03*
X624395Y59874D03*
D10*
X626990Y59874D03*
X632341Y59874D03*
D36*
X634530Y59874D03*
X639557Y59874D03*
D10*
X643368Y59874D03*
D36*
X645395Y59874D03*
D34*
X529692Y60037D03*
D72*
X533422Y60037D03*
D79*
X537314Y60037D03*
D11*
X541287Y60037D03*
X548584Y60037D03*
D10*
X551584Y60037D03*
D72*
X556125Y60037D03*
D11*
X559125Y60037D03*
X561557Y60037D03*
D72*
X582071Y60037D03*
D85*
X587341Y60037D03*
D10*
X594882Y60037D03*
D11*
X601936Y60037D03*
D10*
X606395Y60037D03*
D72*
X609476Y60037D03*
D11*
X613936Y60037D03*
D72*
X616449Y60037D03*
D36*
X621882Y60037D03*
D72*
X624395Y60037D03*
D10*
X626990Y60037D03*
D36*
X632422Y60037D03*
D72*
X634449Y60037D03*
D36*
X639557Y60037D03*
D11*
X643287Y60037D03*
D36*
X645395Y60037D03*
D74*
X533422Y60199D03*
D13*
X537314Y60199D03*
D33*
X541287Y60199D03*
X548584Y60199D03*
D75*
X551584Y60199D03*
D74*
X556125Y60199D03*
D31*
X559206Y60199D03*
D33*
X561557Y60199D03*
D74*
X582071Y60199D03*
D82*
X587341Y60199D03*
D75*
X594882Y60199D03*
D33*
X601936Y60199D03*
D75*
X606395Y60199D03*
D74*
X609476Y60199D03*
D33*
X613936Y60199D03*
D74*
X616449Y60199D03*
D73*
X621882Y60199D03*
D74*
X624395Y60199D03*
D75*
X626990Y60199D03*
D73*
X632422Y60199D03*
D74*
X634449Y60199D03*
D73*
X639557Y60199D03*
D33*
X643287Y60199D03*
D75*
X645476Y60199D03*
D72*
X533422Y60361D03*
D79*
X537314Y60361D03*
D11*
X541287Y60361D03*
X548584Y60361D03*
D10*
X551584Y60361D03*
D72*
X556125Y60361D03*
D27*
X559287Y60361D03*
D11*
X561395Y60361D03*
D72*
X582071Y60361D03*
D104*
X589936Y60361D03*
D10*
X594882Y60361D03*
D11*
X601936Y60361D03*
D10*
X606395Y60361D03*
D72*
X609476Y60361D03*
D11*
X613936Y60361D03*
D72*
X616449Y60361D03*
D36*
X621882Y60361D03*
D72*
X624395Y60361D03*
D10*
X626990Y60361D03*
D36*
X632422Y60361D03*
D72*
X634449Y60361D03*
D36*
X639557Y60361D03*
D72*
X643206Y60361D03*
D36*
X645557Y60361D03*
D72*
X533422Y60523D03*
D79*
X537314Y60523D03*
D11*
X541287Y60523D03*
X548584Y60523D03*
D10*
X551584Y60523D03*
D72*
X556125Y60523D03*
D24*
X559368Y60523D03*
D11*
X561233Y60523D03*
D72*
X582071Y60523D03*
D104*
X589936Y60523D03*
D11*
X594800Y60523D03*
X601936Y60523D03*
D10*
X606395Y60523D03*
D72*
X609476Y60523D03*
D11*
X613936Y60523D03*
D72*
X616449Y60523D03*
X621963Y60523D03*
X624395Y60523D03*
D36*
X626909Y60523D03*
X632422Y60523D03*
D72*
X634449Y60523D03*
D36*
X639557Y60523D03*
D10*
X643044Y60523D03*
D36*
X645557Y60523D03*
D72*
X533422Y60685D03*
D79*
X537314Y60685D03*
D11*
X541287Y60685D03*
X548584Y60685D03*
D10*
X551584Y60685D03*
D72*
X556125Y60685D03*
D89*
X560179Y60685D03*
D72*
X582071Y60685D03*
D104*
X589936Y60685D03*
D11*
X594800Y60685D03*
X601936Y60685D03*
D10*
X606395Y60685D03*
D72*
X609476Y60685D03*
D11*
X613936Y60685D03*
D72*
X616449Y60685D03*
X621963Y60685D03*
X624395Y60685D03*
D36*
X626909Y60685D03*
X632422Y60685D03*
D72*
X634449Y60685D03*
D36*
X639557Y60685D03*
D10*
X643044Y60685D03*
X645638Y60685D03*
D72*
X533422Y60847D03*
D79*
X537314Y60847D03*
D11*
X541287Y60847D03*
X548584Y60847D03*
D10*
X551584Y60847D03*
D72*
X556125Y60847D03*
D67*
X560098Y60847D03*
D72*
X582071Y60847D03*
D104*
X589936Y60847D03*
D11*
X594800Y60847D03*
X601936Y60847D03*
D10*
X606395Y60847D03*
D72*
X609476Y60847D03*
D11*
X613936Y60847D03*
D72*
X616449Y60847D03*
X621963Y60847D03*
X624395Y60847D03*
D36*
X626909Y60847D03*
X632422Y60847D03*
D72*
X634449Y60847D03*
D36*
X639557Y60847D03*
D11*
X642963Y60847D03*
D36*
X645719Y60847D03*
D72*
X533422Y61010D03*
D79*
X537314Y61010D03*
D11*
X541287Y61010D03*
X548584Y61010D03*
D10*
X551584Y61010D03*
D72*
X556125Y61010D03*
D50*
X560017Y61010D03*
D72*
X582071Y61010D03*
D104*
X589936Y61010D03*
D10*
X594882Y61010D03*
D11*
X601936Y61010D03*
D10*
X606395Y61010D03*
D72*
X609476Y61010D03*
D11*
X613936Y61010D03*
D72*
X616449Y61010D03*
D36*
X621882Y61010D03*
D72*
X624395Y61010D03*
D10*
X626990Y61010D03*
D36*
X632422Y61010D03*
D72*
X634449Y61010D03*
D36*
X639557Y61010D03*
D10*
X642882Y61010D03*
D36*
X645719Y61010D03*
D74*
X533422Y61172D03*
D13*
X537314Y61172D03*
D33*
X541287Y61172D03*
X548584Y61172D03*
D75*
X551584Y61172D03*
D74*
X556125Y61172D03*
D105*
X560017Y61172D03*
D74*
X582071Y61172D03*
D106*
X589855Y61172D03*
D75*
X594882Y61172D03*
D33*
X601936Y61172D03*
D75*
X606395Y61172D03*
D74*
X609476Y61172D03*
D33*
X613936Y61172D03*
D74*
X616449Y61172D03*
D73*
X621882Y61172D03*
D74*
X624395Y61172D03*
D75*
X626990Y61172D03*
D73*
X632422Y61172D03*
D74*
X634449Y61172D03*
D73*
X639557Y61172D03*
D75*
X642882Y61172D03*
X645801Y61172D03*
D72*
X533422Y61334D03*
D79*
X537314Y61334D03*
D11*
X541287Y61334D03*
X548584Y61334D03*
D10*
X551584Y61334D03*
D72*
X556125Y61334D03*
D44*
X559936Y61334D03*
D72*
X582071Y61334D03*
D10*
X587260Y61334D03*
D36*
X592530Y61334D03*
D10*
X594882Y61334D03*
D11*
X601936Y61334D03*
D10*
X606395Y61334D03*
D72*
X609476Y61334D03*
D11*
X613936Y61334D03*
D36*
X616530Y61334D03*
X621882Y61334D03*
D72*
X624395Y61334D03*
D10*
X626990Y61334D03*
D36*
X632422Y61334D03*
D72*
X634449Y61334D03*
D36*
X639557Y61334D03*
D11*
X642801Y61334D03*
D36*
X645882Y61334D03*
D72*
X533422Y61496D03*
D11*
X541287Y61496D03*
X548584Y61496D03*
D10*
X551584Y61496D03*
D72*
X556125Y61496D03*
D90*
X559855Y61496D03*
D11*
X567395Y61496D03*
D10*
X571206Y61496D03*
D36*
X573557Y61496D03*
D10*
X576071Y61496D03*
D72*
X582071Y61496D03*
D10*
X587260Y61496D03*
D36*
X592530Y61496D03*
D10*
X594882Y61496D03*
D11*
X601936Y61496D03*
D10*
X606395Y61496D03*
D72*
X609476Y61496D03*
D11*
X613936Y61496D03*
D36*
X616530Y61496D03*
X621882Y61496D03*
D72*
X624395Y61496D03*
D36*
X627071Y61496D03*
D10*
X632341Y61496D03*
D72*
X634449Y61496D03*
D36*
X639557Y61496D03*
D72*
X642719Y61496D03*
D10*
X645963Y61496D03*
D72*
X533422Y61658D03*
D11*
X541287Y61658D03*
X548584Y61658D03*
D10*
X551584Y61658D03*
D72*
X556125Y61658D03*
D44*
X559936Y61658D03*
D11*
X567395Y61658D03*
D10*
X571206Y61658D03*
D36*
X573557Y61658D03*
D10*
X576071Y61658D03*
D72*
X582071Y61658D03*
D36*
X587341Y61658D03*
X592530Y61658D03*
D11*
X594963Y61658D03*
X601936Y61658D03*
D10*
X606395Y61658D03*
D72*
X609476Y61658D03*
D11*
X613936Y61658D03*
D36*
X616530Y61658D03*
D72*
X621800Y61658D03*
X624395Y61658D03*
D36*
X627071Y61658D03*
D10*
X632341Y61658D03*
D36*
X634530Y61658D03*
D72*
X639476Y61658D03*
X642719Y61658D03*
D10*
X645963Y61658D03*
D72*
X533422Y61820D03*
D11*
X541287Y61820D03*
X548584Y61820D03*
X551665Y61820D03*
X556044Y61820D03*
X559125Y61820D03*
D29*
X560828Y61820D03*
D11*
X567395Y61820D03*
D10*
X571206Y61820D03*
D11*
X573557Y61820D03*
D10*
X576071Y61820D03*
D72*
X582071Y61820D03*
D36*
X587341Y61820D03*
D72*
X592449Y61820D03*
D11*
X594963Y61820D03*
X601936Y61820D03*
D10*
X606395Y61820D03*
D72*
X609476Y61820D03*
D11*
X613936Y61820D03*
D72*
X616611Y61820D03*
D11*
X621719Y61820D03*
D72*
X624395Y61820D03*
D36*
X627071Y61820D03*
D10*
X632341Y61820D03*
D36*
X634530Y61820D03*
D72*
X639476Y61820D03*
D11*
X642638Y61820D03*
D36*
X646044Y61820D03*
D74*
X533422Y61983D03*
D33*
X541287Y61983D03*
X548584Y61983D03*
X551665Y61983D03*
X556044Y61983D03*
X559125Y61983D03*
D32*
X560990Y61983D03*
D33*
X567395Y61983D03*
D75*
X571206Y61983D03*
D33*
X573557Y61983D03*
D75*
X576071Y61983D03*
D74*
X582071Y61983D03*
D75*
X587422Y61983D03*
D73*
X592368Y61983D03*
D33*
X594963Y61983D03*
D107*
X599179Y61983D03*
D33*
X601936Y61983D03*
D75*
X606395Y61983D03*
D33*
X609557Y61983D03*
D74*
X613855Y61983D03*
X616611Y61983D03*
D75*
X621638Y61983D03*
D74*
X624395Y61983D03*
D75*
X627152Y61983D03*
X632179Y61983D03*
D73*
X634530Y61983D03*
D74*
X639476Y61983D03*
D75*
X642557Y61983D03*
X646125Y61983D03*
D72*
X533422Y62145D03*
D11*
X541287Y62145D03*
X548584Y62145D03*
X551665Y62145D03*
X556044Y62145D03*
X559125Y62145D03*
D29*
X561152Y62145D03*
D11*
X567395Y62145D03*
D10*
X571206Y62145D03*
D11*
X573557Y62145D03*
D10*
X576071Y62145D03*
D72*
X582071Y62145D03*
D10*
X587422Y62145D03*
D72*
X592287Y62145D03*
D29*
X595044Y62145D03*
D11*
X599503Y62145D03*
D30*
X602017Y62145D03*
D11*
X606314Y62145D03*
X609557Y62145D03*
D72*
X613855Y62145D03*
X616611Y62145D03*
D10*
X621638Y62145D03*
D72*
X624395Y62145D03*
D10*
X627152Y62145D03*
D11*
X632098Y62145D03*
D10*
X634611Y62145D03*
D72*
X639476Y62145D03*
D10*
X642557Y62145D03*
X646125Y62145D03*
D72*
X533422Y62307D03*
D11*
X541287Y62307D03*
X548584Y62307D03*
D29*
X551746Y62307D03*
D11*
X556044Y62307D03*
X559125Y62307D03*
D29*
X561314Y62307D03*
D11*
X567395Y62307D03*
D10*
X571206Y62307D03*
D11*
X573557Y62307D03*
D10*
X576071Y62307D03*
D72*
X582071Y62307D03*
D36*
X587503Y62307D03*
D72*
X592287Y62307D03*
D11*
X595125Y62307D03*
X599503Y62307D03*
D30*
X602017Y62307D03*
D11*
X606314Y62307D03*
X609557Y62307D03*
X613773Y62307D03*
D36*
X616692Y62307D03*
D10*
X621638Y62307D03*
D72*
X624395Y62307D03*
D36*
X627233Y62307D03*
D11*
X632098Y62307D03*
D36*
X634692Y62307D03*
D11*
X639395Y62307D03*
X642476Y62307D03*
D10*
X646287Y62307D03*
D72*
X533422Y62469D03*
D11*
X541287Y62469D03*
X548584Y62469D03*
D29*
X551746Y62469D03*
D30*
X555963Y62469D03*
D11*
X559125Y62469D03*
D30*
X561476Y62469D03*
D11*
X567395Y62469D03*
D10*
X571206Y62469D03*
D27*
X573557Y62469D03*
D10*
X576071Y62469D03*
D72*
X582071Y62469D03*
D10*
X587584Y62469D03*
D36*
X592206Y62469D03*
D29*
X595206Y62469D03*
X599422Y62469D03*
D30*
X602017Y62469D03*
D29*
X606233Y62469D03*
D30*
X609638Y62469D03*
D11*
X613773Y62469D03*
D10*
X616773Y62469D03*
D36*
X621557Y62469D03*
D72*
X624395Y62469D03*
X627314Y62469D03*
D11*
X631936Y62469D03*
D10*
X634773Y62469D03*
D29*
X639314Y62469D03*
D10*
X642395Y62469D03*
X646287Y62469D03*
D72*
X533422Y62631D03*
D11*
X541287Y62631D03*
X548584Y62631D03*
D27*
X551828Y62631D03*
D30*
X555963Y62631D03*
D11*
X559125Y62631D03*
D30*
X561638Y62631D03*
D11*
X567395Y62631D03*
D10*
X571206Y62631D03*
D27*
X573557Y62631D03*
D10*
X576071Y62631D03*
D72*
X582071Y62631D03*
D10*
X587584Y62631D03*
D11*
X592044Y62631D03*
X595287Y62631D03*
X599341Y62631D03*
D30*
X602017Y62631D03*
D29*
X606233Y62631D03*
D27*
X609719Y62631D03*
D29*
X613692Y62631D03*
D10*
X616936Y62631D03*
D11*
X621395Y62631D03*
D72*
X624395Y62631D03*
X627476Y62631D03*
D11*
X631936Y62631D03*
D10*
X634773Y62631D03*
D27*
X639233Y62631D03*
D11*
X642314Y62631D03*
D10*
X646287Y62631D03*
D74*
X533422Y62793D03*
D33*
X541287Y62793D03*
X548584Y62793D03*
D52*
X551828Y62793D03*
D32*
X555801Y62793D03*
D33*
X559125Y62793D03*
D32*
X561801Y62793D03*
D33*
X567395Y62793D03*
D75*
X571206Y62793D03*
D52*
X573557Y62793D03*
D75*
X576071Y62793D03*
D74*
X582071Y62793D03*
D75*
X587746Y62793D03*
D33*
X591882Y62793D03*
X595287Y62793D03*
X599179Y62793D03*
D52*
X602098Y62793D03*
D32*
X606233Y62793D03*
D52*
X609719Y62793D03*
D32*
X613692Y62793D03*
D75*
X616936Y62793D03*
X621314Y62793D03*
D74*
X624395Y62793D03*
X627476Y62793D03*
X631855Y62793D03*
X634936Y62793D03*
D70*
X639152Y62793D03*
D74*
X642233Y62793D03*
D75*
X646449Y62793D03*
D72*
X533422Y62956D03*
D11*
X541287Y62956D03*
X548584Y62956D03*
D24*
X551909Y62956D03*
D28*
X555719Y62956D03*
D11*
X559125Y62956D03*
D29*
X561963Y62956D03*
D11*
X567395Y62956D03*
D10*
X571206Y62956D03*
D27*
X573557Y62956D03*
D10*
X576071Y62956D03*
D72*
X582071Y62956D03*
D36*
X587828Y62956D03*
D29*
X591801Y62956D03*
D11*
X595449Y62956D03*
D29*
X599098Y62956D03*
D26*
X602260Y62956D03*
D28*
X605990Y62956D03*
D24*
X609801Y62956D03*
D27*
X613449Y62956D03*
D10*
X617098Y62956D03*
D29*
X621152Y62956D03*
D72*
X624395Y62956D03*
D10*
X627638Y62956D03*
D11*
X631611Y62956D03*
D72*
X635098Y62956D03*
D25*
X639071Y62956D03*
D72*
X642233Y62956D03*
D10*
X646449Y62956D03*
D72*
X533422Y63118D03*
D11*
X541287Y63118D03*
X548584Y63118D03*
D65*
X552152Y63118D03*
D24*
X555476Y63118D03*
D11*
X559125Y63118D03*
D29*
X562125Y63118D03*
D11*
X567395Y63118D03*
D10*
X571206Y63118D03*
D25*
X573557Y63118D03*
D10*
X576071Y63118D03*
D72*
X582071Y63118D03*
D11*
X587990Y63118D03*
D29*
X591638Y63118D03*
D27*
X595611Y63118D03*
X598855Y63118D03*
D39*
X602341Y63118D03*
D25*
X605828Y63118D03*
D65*
X610044Y63118D03*
D26*
X613287Y63118D03*
D10*
X617260Y63118D03*
D27*
X620909Y63118D03*
D72*
X624395Y63118D03*
D11*
X627719Y63118D03*
D27*
X631449Y63118D03*
D11*
X635179Y63118D03*
D42*
X638909Y63118D03*
D11*
X642152Y63118D03*
D10*
X646449Y63118D03*
D72*
X533422Y63280D03*
D11*
X541287Y63280D03*
X548584Y63280D03*
D60*
X553692Y63280D03*
D11*
X559125Y63280D03*
D29*
X562287Y63280D03*
D11*
X567395Y63280D03*
D10*
X571206Y63280D03*
D25*
X573557Y63280D03*
D10*
X576071Y63280D03*
D72*
X582071Y63280D03*
D29*
X588233Y63280D03*
D24*
X591476Y63280D03*
D51*
X597314Y63280D03*
D60*
X603963Y63280D03*
X611584Y63280D03*
D27*
X617503Y63280D03*
D24*
X620828Y63280D03*
D72*
X624395Y63280D03*
D24*
X627963Y63280D03*
D25*
X631287Y63280D03*
D29*
X635422Y63280D03*
D48*
X638828Y63280D03*
D10*
X642071Y63280D03*
X646611Y63280D03*
D72*
X533422Y63442D03*
D11*
X541287Y63442D03*
X548584Y63442D03*
D60*
X553692Y63442D03*
D11*
X559125Y63442D03*
D30*
X562449Y63442D03*
D11*
X567395Y63442D03*
D10*
X571206Y63442D03*
D25*
X573557Y63442D03*
D10*
X576071Y63442D03*
D72*
X582071Y63442D03*
D16*
X589936Y63442D03*
D103*
X597314Y63442D03*
D20*
X603882Y63442D03*
D36*
X609395Y63442D03*
D49*
X612152Y63442D03*
D18*
X619125Y63442D03*
D72*
X624395Y63442D03*
D18*
X629665Y63442D03*
D20*
X637449Y63442D03*
D10*
X642071Y63442D03*
X646611Y63442D03*
D72*
X533422Y63604D03*
D11*
X541287Y63604D03*
X548584Y63604D03*
D20*
X553611Y63604D03*
D11*
X559125Y63604D03*
D30*
X562611Y63604D03*
D11*
X567395Y63604D03*
D10*
X571206Y63604D03*
D25*
X573557Y63604D03*
D10*
X576071Y63604D03*
D72*
X582071Y63604D03*
D15*
X589936Y63604D03*
X597395Y63604D03*
D20*
X603882Y63604D03*
D36*
X609395Y63604D03*
D79*
X612071Y63604D03*
D16*
X619125Y63604D03*
D72*
X624395Y63604D03*
D16*
X629665Y63604D03*
D20*
X637449Y63604D03*
D11*
X641990Y63604D03*
X646692Y63604D03*
D74*
X533422Y63766D03*
D33*
X541287Y63766D03*
X548584Y63766D03*
D75*
X551584Y63766D03*
D14*
X554341Y63766D03*
D33*
X559125Y63766D03*
D32*
X562773Y63766D03*
D33*
X567395Y63766D03*
D75*
X571206Y63766D03*
D22*
X573557Y63766D03*
D75*
X576071Y63766D03*
D74*
X582071Y63766D03*
D13*
X590017Y63766D03*
D101*
X597395Y63766D03*
D33*
X601936Y63766D03*
D108*
X604692Y63766D03*
D73*
X609395Y63766D03*
D102*
X612152Y63766D03*
D56*
X619206Y63766D03*
D74*
X624395Y63766D03*
D109*
X629665Y63766D03*
D14*
X636719Y63766D03*
D74*
X639476Y63766D03*
D75*
X641909Y63766D03*
X646773Y63766D03*
D72*
X533422Y63929D03*
D11*
X541287Y63929D03*
X548584Y63929D03*
D10*
X551584Y63929D03*
D44*
X554260Y63929D03*
D11*
X559125Y63929D03*
D29*
X562936Y63929D03*
D11*
X567395Y63929D03*
D10*
X571206Y63929D03*
D65*
X573557Y63929D03*
D10*
X576071Y63929D03*
D72*
X582071Y63929D03*
D67*
X589936Y63929D03*
D89*
X597314Y63929D03*
D11*
X601936Y63929D03*
D44*
X604692Y63929D03*
D36*
X609395Y63929D03*
D44*
X612152Y63929D03*
D67*
X619125Y63929D03*
D72*
X624395Y63929D03*
D67*
X629665Y63929D03*
D50*
X636719Y63929D03*
D72*
X639476Y63929D03*
D10*
X641909Y63929D03*
X646773Y63929D03*
D72*
X533422Y64091D03*
D11*
X541287Y64091D03*
X548584Y64091D03*
D10*
X551584Y64091D03*
D48*
X554341Y64091D03*
D11*
X559125Y64091D03*
D29*
X563098Y64091D03*
D11*
X567395Y64091D03*
D10*
X571206Y64091D03*
D36*
X572909Y64091D03*
D38*
X574287Y64091D03*
D10*
X576071Y64091D03*
D72*
X582071Y64091D03*
D48*
X589855Y64091D03*
D12*
X597395Y64091D03*
D11*
X601936Y64091D03*
D65*
X604530Y64091D03*
D36*
X609395Y64091D03*
D48*
X612233Y64091D03*
X619206Y64091D03*
D72*
X624395Y64091D03*
D12*
X629665Y64091D03*
D42*
X636800Y64091D03*
D72*
X639476Y64091D03*
D11*
X641828Y64091D03*
X646855Y64091D03*
D72*
X533422Y64253D03*
D11*
X541287Y64253D03*
X548584Y64253D03*
D10*
X551584Y64253D03*
D27*
X554260Y64253D03*
D11*
X559125Y64253D03*
X563179Y64253D03*
X567395Y64253D03*
D10*
X571206Y64253D03*
X572828Y64253D03*
D36*
X574368Y64253D03*
D10*
X576071Y64253D03*
D72*
X582071Y64253D03*
D24*
X589855Y64253D03*
D26*
X597395Y64253D03*
D11*
X601936Y64253D03*
D24*
X604611Y64253D03*
D36*
X609395Y64253D03*
D30*
X612071Y64253D03*
D24*
X619206Y64253D03*
D72*
X624395Y64253D03*
D24*
X629584Y64253D03*
D28*
X636801Y64253D03*
D72*
X639476Y64253D03*
X641746Y64253D03*
X646936Y64253D03*
X533422Y64415D03*
D11*
X541287Y64415D03*
X559125Y64415D03*
X567395Y64415D03*
D10*
X571206Y64415D03*
X572828Y64415D03*
D36*
X574368Y64415D03*
D10*
X576071Y64415D03*
D72*
X582071Y64415D03*
D11*
X601936Y64415D03*
D72*
X624395Y64415D03*
D74*
X533422Y64577D03*
D33*
X541287Y64577D03*
X559125Y64577D03*
X567395Y64577D03*
D75*
X571206Y64577D03*
X572828Y64577D03*
D73*
X574368Y64577D03*
D75*
X576071Y64577D03*
D74*
X582071Y64577D03*
D33*
X601936Y64577D03*
D74*
X624395Y64577D03*
D72*
X533422Y64739D03*
D11*
X541287Y64739D03*
X559125Y64739D03*
X567395Y64739D03*
D10*
X571206Y64739D03*
D36*
X572746Y64739D03*
D38*
X574449Y64739D03*
D10*
X576071Y64739D03*
D72*
X582071Y64739D03*
D11*
X601936Y64739D03*
D72*
X624395Y64739D03*
X533422Y64902D03*
D11*
X541287Y64902D03*
X559125Y64902D03*
X567395Y64902D03*
D10*
X571206Y64902D03*
D72*
X572665Y64902D03*
D36*
X574530Y64902D03*
D10*
X576071Y64902D03*
D72*
X582071Y64902D03*
D11*
X601936Y64902D03*
D72*
X624395Y64902D03*
X533422Y65064D03*
D11*
X541287Y65064D03*
X559125Y65064D03*
X567395Y65064D03*
D10*
X571206Y65064D03*
D72*
X572665Y65064D03*
D36*
X574530Y65064D03*
D10*
X576071Y65064D03*
D72*
X582071Y65064D03*
D11*
X601936Y65064D03*
D72*
X624395Y65064D03*
X533422Y65226D03*
D11*
X541287Y65226D03*
X559125Y65226D03*
X567395Y65226D03*
D10*
X571206Y65226D03*
D36*
X572584Y65226D03*
D110*
X574611Y65226D03*
D10*
X576071Y65226D03*
D72*
X582071Y65226D03*
D11*
X601936Y65226D03*
D72*
X624395Y65226D03*
D74*
X533422Y65388D03*
D33*
X541287Y65388D03*
X559125Y65388D03*
X567395Y65388D03*
D75*
X571206Y65388D03*
D73*
X572584Y65388D03*
D111*
X574611Y65388D03*
D75*
X576071Y65388D03*
D74*
X582071Y65388D03*
D33*
X601936Y65388D03*
D74*
X624395Y65388D03*
D72*
X533422Y65550D03*
D11*
X541287Y65550D03*
X548584Y65550D03*
X559125Y65550D03*
X567395Y65550D03*
D48*
X571855Y65550D03*
D36*
X574692Y65550D03*
D10*
X576071Y65550D03*
D72*
X582071Y65550D03*
D11*
X601936Y65550D03*
D72*
X624395Y65550D03*
X533422Y65712D03*
D11*
X541287Y65712D03*
X548584Y65712D03*
X559125Y65712D03*
X567395Y65712D03*
D48*
X571855Y65712D03*
D36*
X574692Y65712D03*
D10*
X576071Y65712D03*
D112*
X582071Y65712D03*
D11*
X601936Y65712D03*
D72*
X624395Y65712D03*
X533422Y65874D03*
D11*
X541287Y65874D03*
X548584Y65874D03*
X559125Y65874D03*
X567395Y65874D03*
D65*
X571773Y65874D03*
D110*
X574773Y65874D03*
D10*
X576071Y65874D03*
D112*
X582071Y65874D03*
D11*
X601936Y65874D03*
D72*
X624395Y65874D03*
X533422Y66037D03*
D11*
X541287Y66037D03*
X548584Y66037D03*
X559125Y66037D03*
X567395Y66037D03*
D65*
X571773Y66037D03*
D110*
X574773Y66037D03*
D10*
X576071Y66037D03*
D112*
X582071Y66037D03*
D11*
X601936Y66037D03*
D72*
X624395Y66037D03*
D74*
X533422Y66199D03*
D33*
X541287Y66199D03*
X548584Y66199D03*
X559125Y66199D03*
X567395Y66199D03*
D22*
X571773Y66199D03*
X575503Y66199D03*
D113*
X582071Y66199D03*
D33*
X601936Y66199D03*
D74*
X624395Y66199D03*
D72*
X533422Y66361D03*
D11*
X541287Y66361D03*
X548584Y66361D03*
X559125Y66361D03*
X567395Y66361D03*
D65*
X571773Y66361D03*
X575503Y66361D03*
D112*
X582071Y66361D03*
D11*
X601936Y66361D03*
D72*
X624395Y66361D03*
X533422Y66523D03*
D11*
X541287Y66523D03*
X548584Y66523D03*
X559125Y66523D03*
X567395Y66523D03*
D39*
X571692Y66523D03*
X575584Y66523D03*
D112*
X582071Y66523D03*
D11*
X601936Y66523D03*
D72*
X624395Y66523D03*
X533422Y66685D03*
D11*
X541287Y66685D03*
X548584Y66685D03*
X559125Y66685D03*
X567395Y66685D03*
D39*
X571692Y66685D03*
X575584Y66685D03*
D112*
X582071Y66685D03*
D11*
X601936Y66685D03*
D72*
X624395Y66685D03*
X533422Y66847D03*
D11*
X541287Y66847D03*
X548584Y66847D03*
X559125Y66847D03*
D18*
X567395Y66847D03*
D39*
X571692Y66847D03*
X575584Y66847D03*
D112*
X582071Y66847D03*
D11*
X601936Y66847D03*
D72*
X624395Y66847D03*
D18*
X567395Y67010D03*
D25*
X571611Y67010D03*
D26*
X575665Y67010D03*
D55*
X567395Y67172D03*
D88*
X571611Y67172D03*
D71*
X575665Y67172D03*
D18*
X567395Y67334D03*
D25*
X571611Y67334D03*
D26*
X575665Y67334D03*
D18*
X567395Y67496D03*
D25*
X571611Y67496D03*
D26*
X575665Y67496D03*
D18*
X567395Y67658D03*
D24*
X571530Y67658D03*
X575746Y67658D03*
D18*
X567395Y67820D03*
D24*
X571530Y67820D03*
X575746Y67820D03*
D114*
X585638Y71064D03*
D115*
X585638Y71226D03*
D116*
X585638Y71388D03*
D117*
X585638Y71550D03*
D118*
X585638Y71712D03*
D119*
X585638Y71874D03*
D120*
X585638Y72037D03*
D121*
X585638Y72199D03*
D122*
X585638Y72361D03*
X585638Y72523D03*
D123*
X585638Y72685D03*
D124*
X585638Y72847D03*
X585638Y73010D03*
D125*
X585638Y73172D03*
D48*
X545260Y73334D03*
X626017Y73334D03*
D65*
X545179Y73496D03*
X626098Y73496D03*
X545017Y73658D03*
X626260Y73658D03*
D39*
X544936Y73820D03*
X626341Y73820D03*
D71*
X544855Y73983D03*
X626422Y73983D03*
D26*
X544855Y74145D03*
X626422Y74145D03*
D39*
X544936Y74307D03*
X626503Y74307D03*
X544936Y74469D03*
X626503Y74469D03*
X544936Y74631D03*
X626503Y74631D03*
D68*
X544936Y74793D03*
X626503Y74793D03*
D39*
X544936Y74956D03*
X626503Y74956D03*
X544936Y75118D03*
X626503Y75118D03*
X544936Y75280D03*
X626503Y75280D03*
X544936Y75442D03*
X626503Y75442D03*
D68*
X544936Y75604D03*
X626503Y75604D03*
D39*
X544936Y75766D03*
X626503Y75766D03*
X544936Y75929D03*
X626503Y75929D03*
X544936Y76091D03*
X626503Y76091D03*
X544936Y76253D03*
X626503Y76253D03*
X544936Y76415D03*
D26*
X570638Y76415D03*
D27*
X588963Y76415D03*
D28*
X599341Y76415D03*
D39*
X626503Y76415D03*
D68*
X544936Y76577D03*
D126*
X570557Y76577D03*
D127*
X579719Y76577D03*
D105*
X588882Y76577D03*
D14*
X599260Y76577D03*
D128*
X608828Y76577D03*
D74*
X614828Y76577D03*
D32*
X621314Y76577D03*
D68*
X626503Y76577D03*
D39*
X544936Y76739D03*
D35*
X549557Y76739D03*
X557017Y76739D03*
D49*
X570638Y76739D03*
D129*
X579719Y76739D03*
D47*
X589044Y76739D03*
X599260Y76739D03*
D130*
X608828Y76739D03*
D72*
X614828Y76739D03*
D27*
X621233Y76739D03*
D39*
X626503Y76739D03*
X544936Y76902D03*
D11*
X549557Y76902D03*
X557017Y76902D03*
D96*
X570557Y76902D03*
D129*
X579719Y76902D03*
D17*
X589044Y76902D03*
D18*
X599341Y76902D03*
D130*
X608828Y76902D03*
D72*
X614828Y76902D03*
D27*
X621071Y76902D03*
D39*
X626503Y76902D03*
X544936Y77064D03*
D25*
X549557Y77064D03*
D26*
X557017Y77064D03*
D18*
X570638Y77064D03*
D129*
X579719Y77064D03*
D60*
X589044Y77064D03*
X599422Y77064D03*
D130*
X608828Y77064D03*
D72*
X614828Y77064D03*
D29*
X620990Y77064D03*
D39*
X626503Y77064D03*
X544936Y77226D03*
D65*
X549557Y77226D03*
X557017Y77226D03*
D20*
X570638Y77226D03*
D129*
X579719Y77226D03*
D131*
X588963Y77226D03*
X599341Y77226D03*
D130*
X608828Y77226D03*
D72*
X614828Y77226D03*
D27*
X620909Y77226D03*
D39*
X626503Y77226D03*
D68*
X544936Y77388D03*
D22*
X549557Y77388D03*
X557017Y77388D03*
D132*
X570638Y77388D03*
D127*
X579719Y77388D03*
D100*
X589044Y77388D03*
D133*
X599341Y77388D03*
D128*
X608828Y77388D03*
D74*
X614828Y77388D03*
D52*
X620746Y77388D03*
D68*
X626503Y77388D03*
D39*
X544936Y77550D03*
D12*
X549557Y77550D03*
X557017Y77550D03*
D44*
X569179Y77550D03*
D12*
X572422Y77550D03*
D129*
X579719Y77550D03*
D50*
X587260Y77550D03*
X590828Y77550D03*
D44*
X597557Y77550D03*
D67*
X601125Y77550D03*
D130*
X608828Y77550D03*
D72*
X614828Y77550D03*
D30*
X620665Y77550D03*
D39*
X626503Y77550D03*
X544936Y77712D03*
D12*
X549557Y77712D03*
X557017Y77712D03*
D39*
X568611Y77712D03*
D26*
X572909Y77712D03*
D11*
X576963Y77712D03*
D65*
X586692Y77712D03*
D90*
X591476Y77712D03*
D42*
X597071Y77712D03*
D90*
X601855Y77712D03*
D11*
X606152Y77712D03*
D72*
X614828Y77712D03*
D27*
X620584Y77712D03*
D39*
X626503Y77712D03*
X544936Y77874D03*
D134*
X549557Y77874D03*
D44*
X557017Y77874D03*
D24*
X568449Y77874D03*
D29*
X573152Y77874D03*
D11*
X576963Y77874D03*
D39*
X586449Y77874D03*
D42*
X591719Y77874D03*
D39*
X596828Y77874D03*
D65*
X602098Y77874D03*
D11*
X606152Y77874D03*
D72*
X614828Y77874D03*
D29*
X620503Y77874D03*
D39*
X626503Y77874D03*
X544936Y78037D03*
D50*
X549638Y78037D03*
X557098Y78037D03*
D27*
X568206Y78037D03*
D11*
X573233Y78037D03*
X576963Y78037D03*
D27*
X586206Y78037D03*
D25*
X591882Y78037D03*
D24*
X596503Y78037D03*
D26*
X602260Y78037D03*
D11*
X606152Y78037D03*
D72*
X614828Y78037D03*
D29*
X620341Y78037D03*
D39*
X626503Y78037D03*
D68*
X544936Y78199D03*
D105*
X549638Y78199D03*
D102*
X557179Y78199D03*
D32*
X568125Y78199D03*
D73*
X573395Y78199D03*
D33*
X576963Y78199D03*
D52*
X586044Y78199D03*
X592044Y78199D03*
D70*
X596341Y78199D03*
D52*
X602422Y78199D03*
D33*
X606152Y78199D03*
D74*
X614828Y78199D03*
D52*
X620260Y78199D03*
D68*
X626503Y78199D03*
D39*
X544936Y78361D03*
D67*
X549719Y78361D03*
X557179Y78361D03*
D29*
X567963Y78361D03*
D11*
X573557Y78361D03*
X576963Y78361D03*
D27*
X585882Y78361D03*
D72*
X592287Y78361D03*
D29*
X596179Y78361D03*
D11*
X602584Y78361D03*
X606152Y78361D03*
D72*
X614828Y78361D03*
D29*
X620179Y78361D03*
D39*
X626503Y78361D03*
X544936Y78523D03*
D89*
X549800Y78523D03*
D135*
X557260Y78523D03*
D11*
X567882Y78523D03*
D72*
X573638Y78523D03*
D11*
X576963Y78523D03*
D30*
X585800Y78523D03*
D72*
X592287Y78523D03*
D11*
X596098Y78523D03*
X602584Y78523D03*
X606152Y78523D03*
D72*
X614828Y78523D03*
D29*
X620017Y78523D03*
D39*
X626503Y78523D03*
X544936Y78685D03*
D89*
X549963Y78685D03*
X557422Y78685D03*
D10*
X567801Y78685D03*
D72*
X573638Y78685D03*
D11*
X576963Y78685D03*
X585719Y78685D03*
D72*
X592287Y78685D03*
D29*
X596017Y78685D03*
D11*
X602584Y78685D03*
X606152Y78685D03*
D72*
X614828Y78685D03*
D27*
X619936Y78685D03*
D39*
X626503Y78685D03*
X544936Y78847D03*
D89*
X549963Y78847D03*
D78*
X557503Y78847D03*
D10*
X567801Y78847D03*
D72*
X573638Y78847D03*
D11*
X576963Y78847D03*
X585557Y78847D03*
D72*
X592287Y78847D03*
D29*
X596017Y78847D03*
D11*
X602584Y78847D03*
X606152Y78847D03*
D72*
X614828Y78847D03*
D27*
X619773Y78847D03*
D39*
X626503Y78847D03*
D68*
X544936Y79010D03*
D14*
X550125Y79010D03*
X557584Y79010D03*
D33*
X567719Y79010D03*
D74*
X573638Y79010D03*
D33*
X576963Y79010D03*
X585557Y79010D03*
D74*
X592287Y79010D03*
D32*
X595855Y79010D03*
D33*
X602584Y79010D03*
X606152Y79010D03*
D74*
X614828Y79010D03*
D31*
X619692Y79010D03*
D68*
X626503Y79010D03*
D39*
X544936Y79172D03*
D78*
X550206Y79172D03*
X557665Y79172D03*
D11*
X567719Y79172D03*
D72*
X573638Y79172D03*
D11*
X576963Y79172D03*
X585395Y79172D03*
D72*
X592287Y79172D03*
D11*
X595773Y79172D03*
X602584Y79172D03*
X606152Y79172D03*
D72*
X614828Y79172D03*
D30*
X619692Y79172D03*
D39*
X626503Y79172D03*
X544936Y79334D03*
D78*
X550368Y79334D03*
X557828Y79334D03*
D72*
X567638Y79334D03*
D11*
X573557Y79334D03*
X576963Y79334D03*
D10*
X585314Y79334D03*
D72*
X592287Y79334D03*
D11*
X595773Y79334D03*
X602584Y79334D03*
X606152Y79334D03*
D72*
X614828Y79334D03*
D29*
X619530Y79334D03*
D39*
X626503Y79334D03*
X544936Y79496D03*
D78*
X550368Y79496D03*
X557990Y79496D03*
D72*
X567638Y79496D03*
D11*
X573557Y79496D03*
X576963Y79496D03*
D10*
X585314Y79496D03*
D72*
X592287Y79496D03*
D11*
X595611Y79496D03*
X602584Y79496D03*
X606152Y79496D03*
D72*
X614828Y79496D03*
D29*
X619368Y79496D03*
D39*
X626503Y79496D03*
X544936Y79658D03*
D43*
X550530Y79658D03*
D79*
X558071Y79658D03*
D30*
X573476Y79658D03*
D11*
X576963Y79658D03*
X585233Y79658D03*
D72*
X592287Y79658D03*
D11*
X595611Y79658D03*
X602584Y79658D03*
X606152Y79658D03*
D72*
X614828Y79658D03*
D27*
X619287Y79658D03*
D39*
X626503Y79658D03*
X544936Y79820D03*
D43*
X550692Y79820D03*
X558152Y79820D03*
D27*
X573395Y79820D03*
D11*
X576963Y79820D03*
X585233Y79820D03*
D72*
X592287Y79820D03*
D11*
X595611Y79820D03*
X602584Y79820D03*
X606152Y79820D03*
D72*
X614828Y79820D03*
D28*
X619125Y79820D03*
D39*
X626503Y79820D03*
D68*
X544936Y79983D03*
D86*
X550855Y79983D03*
X558314Y79983D03*
D52*
X573233Y79983D03*
D33*
X576963Y79983D03*
X585233Y79983D03*
D74*
X592287Y79983D03*
D33*
X595611Y79983D03*
X602584Y79983D03*
X606152Y79983D03*
D74*
X614828Y79983D03*
D53*
X618963Y79983D03*
D68*
X626503Y79983D03*
D39*
X544936Y80145D03*
D43*
X550855Y80145D03*
X558476Y80145D03*
D26*
X573071Y80145D03*
D11*
X576963Y80145D03*
X585233Y80145D03*
D49*
X590909Y80145D03*
D11*
X595449Y80145D03*
D136*
X601287Y80145D03*
D11*
X606152Y80145D03*
D72*
X614828Y80145D03*
D24*
X618882Y80145D03*
D39*
X626503Y80145D03*
X544936Y80307D03*
D43*
X551017Y80307D03*
D79*
X558557Y80307D03*
D65*
X572746Y80307D03*
D11*
X576963Y80307D03*
X585233Y80307D03*
D49*
X590909Y80307D03*
D11*
X595449Y80307D03*
D136*
X601287Y80307D03*
D11*
X606152Y80307D03*
D72*
X614828Y80307D03*
D27*
X618638Y80307D03*
D39*
X626503Y80307D03*
X544936Y80469D03*
D78*
X551179Y80469D03*
X558638Y80469D03*
D44*
X572260Y80469D03*
D11*
X576963Y80469D03*
D10*
X585152Y80469D03*
D49*
X590909Y80469D03*
D11*
X595449Y80469D03*
D136*
X601287Y80469D03*
D11*
X606152Y80469D03*
D18*
X616692Y80469D03*
D39*
X626503Y80469D03*
X544936Y80631D03*
D78*
X551341Y80631D03*
X558801Y80631D03*
D89*
X571855Y80631D03*
D63*
X579395Y80631D03*
D10*
X585152Y80631D03*
D49*
X590909Y80631D03*
D11*
X595449Y80631D03*
D136*
X601287Y80631D03*
D63*
X608584Y80631D03*
D19*
X616773Y80631D03*
D39*
X626503Y80631D03*
D68*
X544936Y80793D03*
D108*
X551341Y80793D03*
X558963Y80793D03*
D101*
X571611Y80793D03*
D133*
X579395Y80793D03*
D75*
X585152Y80793D03*
D101*
X590909Y80793D03*
D33*
X595449Y80793D03*
D109*
X601287Y80793D03*
D133*
X608584Y80793D03*
D137*
X616936Y80793D03*
D68*
X626503Y80793D03*
D39*
X544936Y80956D03*
D43*
X551503Y80956D03*
D79*
X559044Y80956D03*
D47*
X571368Y80956D03*
D63*
X579395Y80956D03*
D10*
X585152Y80956D03*
D49*
X590909Y80956D03*
D11*
X595449Y80956D03*
D136*
X601287Y80956D03*
D63*
X608584Y80956D03*
D131*
X617179Y80956D03*
D39*
X626503Y80956D03*
X544936Y81118D03*
D43*
X551665Y81118D03*
D79*
X559206Y81118D03*
D47*
X570882Y81118D03*
D63*
X579395Y81118D03*
D10*
X585152Y81118D03*
D49*
X590909Y81118D03*
D11*
X595449Y81118D03*
D136*
X601287Y81118D03*
D63*
X608584Y81118D03*
D59*
X617260Y81118D03*
D39*
X626503Y81118D03*
X544936Y81280D03*
D43*
X551828Y81280D03*
X559287Y81280D03*
D103*
X570719Y81280D03*
D63*
X579395Y81280D03*
D10*
X585152Y81280D03*
D11*
X595449Y81280D03*
D63*
X608584Y81280D03*
D104*
X617503Y81280D03*
D39*
X626503Y81280D03*
X544936Y81442D03*
D43*
X551828Y81442D03*
X559449Y81442D03*
D15*
X570314Y81442D03*
D63*
X579395Y81442D03*
D10*
X585152Y81442D03*
D11*
X595449Y81442D03*
D63*
X608584Y81442D03*
D104*
X617503Y81442D03*
D39*
X626503Y81442D03*
X544936Y81604D03*
D43*
X551990Y81604D03*
X559611Y81604D03*
D79*
X569909Y81604D03*
D63*
X579395Y81604D03*
D10*
X585152Y81604D03*
D72*
X595530Y81604D03*
D63*
X608584Y81604D03*
D36*
X614746Y81604D03*
D29*
X620017Y81604D03*
D39*
X626503Y81604D03*
D68*
X544936Y81766D03*
D108*
X552152Y81766D03*
D13*
X559692Y81766D03*
D14*
X569584Y81766D03*
D133*
X579395Y81766D03*
D33*
X585233Y81766D03*
D74*
X595530Y81766D03*
D133*
X608584Y81766D03*
D73*
X614746Y81766D03*
D32*
X620341Y81766D03*
D68*
X626503Y81766D03*
D39*
X544936Y81929D03*
D78*
X552314Y81929D03*
X559773Y81929D03*
D44*
X569179Y81929D03*
D11*
X576963Y81929D03*
X585233Y81929D03*
D72*
X595530Y81929D03*
D11*
X606152Y81929D03*
D36*
X614746Y81929D03*
D11*
X620584Y81929D03*
D39*
X626503Y81929D03*
X544936Y82091D03*
D78*
X552314Y82091D03*
X559936Y82091D03*
D39*
X568773Y82091D03*
D11*
X576963Y82091D03*
X585233Y82091D03*
X595611Y82091D03*
X606152Y82091D03*
D36*
X614746Y82091D03*
D72*
X620665Y82091D03*
D39*
X626503Y82091D03*
X544936Y82253D03*
D43*
X552476Y82253D03*
X560098Y82253D03*
D26*
X568530Y82253D03*
D11*
X576963Y82253D03*
X585233Y82253D03*
X595611Y82253D03*
X606152Y82253D03*
D36*
X614746Y82253D03*
D72*
X620665Y82253D03*
D39*
X626503Y82253D03*
X544936Y82415D03*
D43*
X552638Y82415D03*
D79*
X560179Y82415D03*
D30*
X568287Y82415D03*
D11*
X576963Y82415D03*
D10*
X585314Y82415D03*
X595692Y82415D03*
D11*
X606152Y82415D03*
D36*
X614746Y82415D03*
X620746Y82415D03*
D39*
X626503Y82415D03*
D68*
X544936Y82577D03*
D86*
X552800Y82577D03*
X560260Y82577D03*
D33*
X568206Y82577D03*
X576963Y82577D03*
X585395Y82577D03*
X595773Y82577D03*
X606152Y82577D03*
D73*
X614746Y82577D03*
D74*
X620828Y82577D03*
D68*
X626503Y82577D03*
D39*
X544936Y82739D03*
D43*
X552800Y82739D03*
X560422Y82739D03*
D72*
X568125Y82739D03*
D11*
X576963Y82739D03*
X585395Y82739D03*
D41*
X591638Y82739D03*
D11*
X595773Y82739D03*
D41*
X602017Y82739D03*
D11*
X606152Y82739D03*
D36*
X614746Y82739D03*
D72*
X620828Y82739D03*
D39*
X626503Y82739D03*
X544936Y82902D03*
D43*
X552963Y82902D03*
X560584Y82902D03*
D11*
X568044Y82902D03*
D34*
X572990Y82902D03*
D11*
X576963Y82902D03*
D72*
X585476Y82902D03*
D37*
X591882Y82902D03*
D10*
X595855Y82902D03*
D110*
X602179Y82902D03*
D11*
X606152Y82902D03*
D36*
X614746Y82902D03*
X620909Y82902D03*
D39*
X626503Y82902D03*
X544936Y83064D03*
D78*
X553125Y83064D03*
X560746Y83064D03*
D11*
X568044Y83064D03*
D72*
X573314Y83064D03*
D11*
X576963Y83064D03*
X585557Y83064D03*
D10*
X591963Y83064D03*
D11*
X595936Y83064D03*
D10*
X602341Y83064D03*
D11*
X606152Y83064D03*
D36*
X614746Y83064D03*
X620909Y83064D03*
D39*
X626503Y83064D03*
X544936Y83226D03*
D78*
X553287Y83226D03*
D79*
X560828Y83226D03*
D10*
X567963Y83226D03*
D72*
X573314Y83226D03*
D11*
X576963Y83226D03*
X585557Y83226D03*
D10*
X591963Y83226D03*
D11*
X595936Y83226D03*
X602260Y83226D03*
X606152Y83226D03*
D36*
X614746Y83226D03*
X620909Y83226D03*
D39*
X626503Y83226D03*
D68*
X544936Y83388D03*
D108*
X553287Y83388D03*
X560909Y83388D03*
D75*
X567963Y83388D03*
D33*
X573233Y83388D03*
X576963Y83388D03*
D74*
X585638Y83388D03*
D75*
X591963Y83388D03*
D33*
X596098Y83388D03*
D74*
X602179Y83388D03*
D33*
X606152Y83388D03*
D73*
X614746Y83388D03*
D74*
X620828Y83388D03*
D68*
X626503Y83388D03*
D39*
X544936Y83550D03*
D43*
X553449Y83550D03*
X561071Y83550D03*
D36*
X568044Y83550D03*
D11*
X573233Y83550D03*
X576963Y83550D03*
X585719Y83550D03*
X591882Y83550D03*
D29*
X596179Y83550D03*
D72*
X602179Y83550D03*
D11*
X606152Y83550D03*
D36*
X614746Y83550D03*
D72*
X620828Y83550D03*
D39*
X626503Y83550D03*
X544936Y83712D03*
D78*
X553611Y83712D03*
X561233Y83712D03*
D72*
X568125Y83712D03*
D11*
X573233Y83712D03*
X576963Y83712D03*
X585882Y83712D03*
X591719Y83712D03*
D29*
X596341Y83712D03*
D11*
X602098Y83712D03*
X606152Y83712D03*
D36*
X614746Y83712D03*
D72*
X620665Y83712D03*
D39*
X626503Y83712D03*
X544936Y83874D03*
D43*
X553773Y83874D03*
D79*
X561314Y83874D03*
D72*
X568125Y83874D03*
D11*
X573071Y83874D03*
X576963Y83874D03*
X586044Y83874D03*
X591557Y83874D03*
D29*
X596341Y83874D03*
D30*
X602017Y83874D03*
D11*
X606152Y83874D03*
D36*
X614746Y83874D03*
D72*
X620665Y83874D03*
D39*
X626503Y83874D03*
X544936Y84037D03*
D43*
X553773Y84037D03*
X561395Y84037D03*
D72*
X568125Y84037D03*
D29*
X572990Y84037D03*
D11*
X576963Y84037D03*
X586206Y84037D03*
D29*
X591476Y84037D03*
D11*
X596422Y84037D03*
D29*
X601855Y84037D03*
D11*
X606152Y84037D03*
D36*
X614746Y84037D03*
D72*
X620665Y84037D03*
D39*
X626503Y84037D03*
X544936Y84199D03*
D43*
X553936Y84199D03*
X561557Y84199D03*
D72*
X568287Y84199D03*
D27*
X572909Y84199D03*
D11*
X576963Y84199D03*
D24*
X586449Y84199D03*
X591314Y84199D03*
D30*
X596665Y84199D03*
D24*
X601692Y84199D03*
D11*
X606152Y84199D03*
D36*
X614746Y84199D03*
D29*
X620503Y84199D03*
D39*
X626503Y84199D03*
D68*
X544936Y84361D03*
D86*
X554098Y84361D03*
X561719Y84361D03*
D31*
X568449Y84361D03*
D88*
X572584Y84361D03*
D33*
X576963Y84361D03*
D70*
X586611Y84361D03*
D71*
X591233Y84361D03*
D70*
X596990Y84361D03*
X601530Y84361D03*
D33*
X606152Y84361D03*
D73*
X614746Y84361D03*
D70*
X620179Y84361D03*
D68*
X626503Y84361D03*
D39*
X544936Y84523D03*
D138*
X548098Y84523D03*
D89*
X554179Y84523D03*
D79*
X561801Y84523D03*
D65*
X569017Y84523D03*
D12*
X572098Y84523D03*
D104*
X579557Y84523D03*
D65*
X587017Y84523D03*
D48*
X590828Y84523D03*
X597314Y84523D03*
D12*
X601125Y84523D03*
D104*
X608746Y84523D03*
D36*
X614746Y84523D03*
D27*
X620098Y84523D03*
D39*
X626503Y84523D03*
X544936Y84685D03*
D138*
X548098Y84685D03*
D78*
X554260Y84685D03*
X561882Y84685D03*
D20*
X570638Y84685D03*
D104*
X579557Y84685D03*
D131*
X588963Y84685D03*
X599179Y84685D03*
D104*
X608746Y84685D03*
X617503Y84685D03*
D39*
X626503Y84685D03*
X544936Y84847D03*
D41*
X548179Y84847D03*
D43*
X554422Y84847D03*
X562044Y84847D03*
D19*
X570557Y84847D03*
D104*
X579557Y84847D03*
D21*
X588963Y84847D03*
X599179Y84847D03*
D104*
X608746Y84847D03*
X617503Y84847D03*
D39*
X626503Y84847D03*
X544936Y85010D03*
D76*
X548260Y85010D03*
D78*
X554584Y85010D03*
X562206Y85010D03*
D17*
X570557Y85010D03*
D104*
X579557Y85010D03*
D139*
X588963Y85010D03*
D19*
X599260Y85010D03*
D104*
X608746Y85010D03*
D140*
X617422Y85010D03*
D39*
X626503Y85010D03*
D68*
X544936Y85172D03*
D107*
X548260Y85172D03*
D14*
X554665Y85172D03*
D108*
X562368Y85172D03*
D141*
X570557Y85172D03*
D142*
X579557Y85172D03*
D57*
X588963Y85172D03*
D98*
X599260Y85172D03*
D142*
X608746Y85172D03*
D100*
X617260Y85172D03*
D68*
X626503Y85172D03*
D39*
X544936Y85334D03*
D143*
X548341Y85334D03*
D78*
X554746Y85334D03*
D79*
X562449Y85334D03*
D43*
X570638Y85334D03*
D104*
X579557Y85334D03*
D49*
X588963Y85334D03*
D47*
X599260Y85334D03*
D104*
X608746Y85334D03*
D131*
X617179Y85334D03*
D39*
X626503Y85334D03*
X544936Y85496D03*
D35*
X548422Y85496D03*
D43*
X554909Y85496D03*
X562530Y85496D03*
D144*
X570557Y85496D03*
D104*
X579557Y85496D03*
D134*
X588963Y85496D03*
D44*
X599341Y85496D03*
D104*
X608746Y85496D03*
D20*
X616855Y85496D03*
D39*
X626503Y85496D03*
X544936Y85658D03*
D35*
X548422Y85658D03*
D43*
X555071Y85658D03*
X562692Y85658D03*
D26*
X570476Y85658D03*
D25*
X588963Y85658D03*
D24*
X599260Y85658D03*
D39*
X626503Y85658D03*
X544936Y85820D03*
D110*
X548503Y85820D03*
D89*
X555152Y85820D03*
D43*
X562855Y85820D03*
D39*
X626503Y85820D03*
D68*
X544936Y85983D03*
D73*
X548584Y85983D03*
D86*
X555233Y85983D03*
D13*
X562936Y85983D03*
D68*
X626503Y85983D03*
D39*
X544936Y86145D03*
D10*
X548665Y86145D03*
D43*
X555395Y86145D03*
X563017Y86145D03*
D39*
X626503Y86145D03*
X544936Y86307D03*
D10*
X548665Y86307D03*
D78*
X555557Y86307D03*
X563179Y86307D03*
D39*
X626503Y86307D03*
X544936Y86469D03*
D11*
X548746Y86469D03*
D78*
X555557Y86469D03*
X563341Y86469D03*
D39*
X626503Y86469D03*
X544936Y86631D03*
D29*
X548828Y86631D03*
D78*
X555719Y86631D03*
D79*
X563422Y86631D03*
D39*
X626503Y86631D03*
D68*
X544936Y86793D03*
D32*
X548828Y86793D03*
D86*
X555882Y86793D03*
D13*
X563584Y86793D03*
D68*
X626503Y86793D03*
D39*
X544936Y86956D03*
D28*
X548909Y86956D03*
D43*
X556044Y86956D03*
X563665Y86956D03*
D39*
X626503Y86956D03*
X544936Y87118D03*
D24*
X548990Y87118D03*
D43*
X556044Y87118D03*
X563828Y87118D03*
D39*
X626503Y87118D03*
X544936Y87280D03*
D25*
X549071Y87280D03*
D43*
X556206Y87280D03*
X563990Y87280D03*
D39*
X626503Y87280D03*
X544936Y87442D03*
D25*
X549071Y87442D03*
D78*
X556368Y87442D03*
D79*
X564071Y87442D03*
D39*
X626503Y87442D03*
X544936Y87604D03*
X549152Y87604D03*
D78*
X556530Y87604D03*
X564152Y87604D03*
D39*
X626503Y87604D03*
D68*
X544936Y87766D03*
D22*
X549233Y87766D03*
D108*
X556530Y87766D03*
X564314Y87766D03*
D68*
X626503Y87766D03*
D39*
X544936Y87929D03*
D66*
X549314Y87929D03*
D78*
X556692Y87929D03*
D43*
X564476Y87929D03*
D39*
X626503Y87929D03*
X544936Y88091D03*
D66*
X549314Y88091D03*
D78*
X556855Y88091D03*
D145*
X592206Y88091D03*
D39*
X626503Y88091D03*
X544936Y88253D03*
D12*
X549395Y88253D03*
D43*
X557017Y88253D03*
D146*
X592449Y88253D03*
D39*
X626503Y88253D03*
X544936Y88415D03*
D45*
X549476Y88415D03*
D43*
X557017Y88415D03*
D147*
X592692Y88415D03*
D39*
X626503Y88415D03*
D68*
X544936Y88577D03*
D148*
X549476Y88577D03*
D86*
X557179Y88577D03*
D149*
X592855Y88577D03*
D68*
X626503Y88577D03*
D39*
X544936Y88739D03*
D134*
X549557Y88739D03*
D43*
X557341Y88739D03*
D146*
X592936Y88739D03*
D39*
X626503Y88739D03*
X544936Y88902D03*
D50*
X549638Y88902D03*
D78*
X557503Y88902D03*
D147*
X593017Y88902D03*
D39*
X626503Y88902D03*
X544936Y89064D03*
D67*
X549719Y89064D03*
D78*
X557503Y89064D03*
D150*
X593098Y89064D03*
D39*
X626503Y89064D03*
X544936Y89226D03*
D67*
X549719Y89226D03*
D78*
X557665Y89226D03*
D146*
X593260Y89226D03*
D39*
X626503Y89226D03*
D68*
X544936Y89388D03*
D14*
X549800Y89388D03*
D108*
X557828Y89388D03*
D151*
X593341Y89388D03*
D68*
X626503Y89388D03*
D39*
X544936Y89550D03*
D78*
X549882Y89550D03*
X557990Y89550D03*
D145*
X593341Y89550D03*
D39*
X626503Y89550D03*
X544936Y89712D03*
D79*
X549963Y89712D03*
D78*
X557990Y89712D03*
D152*
X593422Y89712D03*
D39*
X626503Y89712D03*
X544936Y89874D03*
D79*
X549963Y89874D03*
D43*
X558152Y89874D03*
D153*
X593503Y89874D03*
D39*
X626503Y89874D03*
X544936Y90037D03*
D49*
X550044Y90037D03*
D43*
X558314Y90037D03*
D154*
X593503Y90037D03*
D39*
X626503Y90037D03*
D68*
X544936Y90199D03*
D95*
X550125Y90199D03*
D86*
X558476Y90199D03*
D155*
X593503Y90199D03*
D68*
X626503Y90199D03*
D39*
X544936Y90361D03*
D156*
X550125Y90361D03*
D43*
X558476Y90361D03*
D157*
X593503Y90361D03*
D39*
X626503Y90361D03*
X544936Y90523D03*
D15*
X550206Y90523D03*
D78*
X558638Y90523D03*
D158*
X593584Y90523D03*
D39*
X626503Y90523D03*
X544936Y90685D03*
D96*
X550287Y90685D03*
D78*
X558801Y90685D03*
D159*
X593584Y90685D03*
D39*
X626503Y90685D03*
X544936Y90847D03*
D16*
X550368Y90847D03*
D78*
X558963Y90847D03*
D160*
X593584Y90847D03*
D39*
X626503Y90847D03*
X544936Y91010D03*
D16*
X550368Y91010D03*
D79*
X559044Y91010D03*
D161*
X593584Y91010D03*
D39*
X626503Y91010D03*
D68*
X544936Y91172D03*
D58*
X550449Y91172D03*
D13*
X559206Y91172D03*
D68*
X626503Y91172D03*
D39*
X544936Y91334D03*
D139*
X550530Y91334D03*
D43*
X559287Y91334D03*
D39*
X626503Y91334D03*
X544936Y91496D03*
D139*
X550530Y91496D03*
D43*
X559449Y91496D03*
D39*
X626503Y91496D03*
X544936Y91658D03*
D19*
X550611Y91658D03*
D43*
X559449Y91658D03*
D39*
X626503Y91658D03*
X544936Y91820D03*
D64*
X550692Y91820D03*
D43*
X559611Y91820D03*
D39*
X626503Y91820D03*
D68*
X544936Y91983D03*
D137*
X550773Y91983D03*
D14*
X559692Y91983D03*
D68*
X626503Y91983D03*
D39*
X544936Y92145D03*
D60*
X550773Y92145D03*
D89*
X559692Y92145D03*
D39*
X626503Y92145D03*
X544936Y92307D03*
D60*
X550773Y92307D03*
D89*
X559692Y92307D03*
D39*
X626503Y92307D03*
X544936Y92469D03*
D64*
X550692Y92469D03*
D43*
X559611Y92469D03*
D39*
X626503Y92469D03*
X544936Y92631D03*
D19*
X550611Y92631D03*
D43*
X559449Y92631D03*
D39*
X626503Y92631D03*
D68*
X544936Y92793D03*
D94*
X550530Y92793D03*
D13*
X559368Y92793D03*
D68*
X626503Y92793D03*
D39*
X544936Y92956D03*
D139*
X550530Y92956D03*
D43*
X559287Y92956D03*
D39*
X626503Y92956D03*
X544936Y93118D03*
D17*
X550449Y93118D03*
D79*
X559206Y93118D03*
D39*
X626503Y93118D03*
X544936Y93280D03*
D16*
X550368Y93280D03*
D79*
X559044Y93280D03*
D161*
X593584Y93280D03*
D39*
X626503Y93280D03*
X544936Y93442D03*
D96*
X550287Y93442D03*
D78*
X558801Y93442D03*
D160*
X593584Y93442D03*
D39*
X626503Y93442D03*
D68*
X544936Y93604D03*
D141*
X550287Y93604D03*
D108*
X558801Y93604D03*
D162*
X593584Y93604D03*
D68*
X626503Y93604D03*
D39*
X544936Y93766D03*
D15*
X550206Y93766D03*
D78*
X558638Y93766D03*
D158*
X593584Y93766D03*
D39*
X626503Y93766D03*
X544936Y93929D03*
D156*
X550125Y93929D03*
D43*
X558476Y93929D03*
D157*
X593503Y93929D03*
D39*
X626503Y93929D03*
X544936Y94091D03*
D156*
X550125Y94091D03*
D43*
X558314Y94091D03*
D154*
X593503Y94091D03*
D39*
X626503Y94091D03*
X544936Y94253D03*
D49*
X550044Y94253D03*
D43*
X558314Y94253D03*
D154*
X593503Y94253D03*
D39*
X626503Y94253D03*
X544936Y94415D03*
D79*
X549963Y94415D03*
D43*
X558152Y94415D03*
D153*
X593503Y94415D03*
D39*
X626503Y94415D03*
D68*
X544936Y94577D03*
D108*
X549882Y94577D03*
X557990Y94577D03*
D163*
X593422Y94577D03*
D68*
X626503Y94577D03*
D39*
X544936Y94739D03*
D78*
X549882Y94739D03*
X557828Y94739D03*
D145*
X593341Y94739D03*
D39*
X626503Y94739D03*
X544936Y94902D03*
D89*
X549800Y94902D03*
D78*
X557828Y94902D03*
D145*
X593341Y94902D03*
D39*
X626503Y94902D03*
X544936Y95064D03*
D67*
X549719Y95064D03*
D78*
X557665Y95064D03*
D146*
X593260Y95064D03*
D39*
X626503Y95064D03*
X544936Y95226D03*
D50*
X549638Y95226D03*
D78*
X557503Y95226D03*
D150*
X593098Y95226D03*
D39*
X626503Y95226D03*
D68*
X544936Y95388D03*
D105*
X549638Y95388D03*
D86*
X557341Y95388D03*
D164*
X593017Y95388D03*
D68*
X626503Y95388D03*
D39*
X544936Y95550D03*
D134*
X549557Y95550D03*
D43*
X557341Y95550D03*
D146*
X592936Y95550D03*
D39*
X626503Y95550D03*
X544936Y95712D03*
D45*
X549476Y95712D03*
D43*
X557179Y95712D03*
D165*
X592855Y95712D03*
D39*
X626503Y95712D03*
X544936Y95874D03*
D12*
X549395Y95874D03*
D43*
X557017Y95874D03*
D147*
X592692Y95874D03*
D39*
X626503Y95874D03*
X544936Y96037D03*
D12*
X549395Y96037D03*
D78*
X556855Y96037D03*
D146*
X592449Y96037D03*
D39*
X626503Y96037D03*
D68*
X544936Y96199D03*
D166*
X549314Y96199D03*
D108*
X556855Y96199D03*
D151*
X592206Y96199D03*
D68*
X626503Y96199D03*
D39*
X544936Y96361D03*
D65*
X549233Y96361D03*
D78*
X556692Y96361D03*
D43*
X564476Y96361D03*
D39*
X626503Y96361D03*
X544936Y96523D03*
X549152Y96523D03*
D78*
X556530Y96523D03*
X564314Y96523D03*
D39*
X626503Y96523D03*
X544936Y96685D03*
X549152Y96685D03*
D78*
X556368Y96685D03*
X564152Y96685D03*
D39*
X626503Y96685D03*
X544936Y96847D03*
D25*
X549071Y96847D03*
D78*
X556368Y96847D03*
D79*
X564071Y96847D03*
D39*
X626503Y96847D03*
X544936Y97010D03*
D24*
X548990Y97010D03*
D43*
X556206Y97010D03*
X563990Y97010D03*
D39*
X626503Y97010D03*
D68*
X544936Y97172D03*
D53*
X548909Y97172D03*
D86*
X556044Y97172D03*
X563828Y97172D03*
D68*
X626503Y97172D03*
D39*
X544936Y97334D03*
D28*
X548909Y97334D03*
D43*
X555882Y97334D03*
X563665Y97334D03*
D39*
X626503Y97334D03*
X544936Y97496D03*
D29*
X548828Y97496D03*
D43*
X555882Y97496D03*
D79*
X563584Y97496D03*
D39*
X626503Y97496D03*
X544936Y97658D03*
D11*
X548746Y97658D03*
D78*
X555719Y97658D03*
D43*
X563503Y97658D03*
D39*
X626503Y97658D03*
X544936Y97820D03*
D11*
X548746Y97820D03*
D78*
X555557Y97820D03*
X563341Y97820D03*
D39*
X626503Y97820D03*
D68*
X544936Y97983D03*
D75*
X548665Y97983D03*
D86*
X555395Y97983D03*
D108*
X563179Y97983D03*
D68*
X626503Y97983D03*
D39*
X544936Y98145D03*
D36*
X548584Y98145D03*
D43*
X555395Y98145D03*
X563017Y98145D03*
D39*
X626503Y98145D03*
X544936Y98307D03*
D110*
X548503Y98307D03*
D43*
X555233Y98307D03*
D79*
X562936Y98307D03*
D39*
X626503Y98307D03*
X544936Y98469D03*
D110*
X548503Y98469D03*
D43*
X555071Y98469D03*
X562855Y98469D03*
D39*
X626503Y98469D03*
X544936Y98631D03*
D35*
X548422Y98631D03*
D43*
X554909Y98631D03*
X562692Y98631D03*
D39*
X626503Y98631D03*
D68*
X544936Y98793D03*
D167*
X548341Y98793D03*
D86*
X554909Y98793D03*
X562530Y98793D03*
D68*
X626503Y98793D03*
D39*
X544936Y98956D03*
D76*
X548260Y98956D03*
D78*
X554746Y98956D03*
D79*
X562449Y98956D03*
D39*
X626503Y98956D03*
X544936Y99118D03*
D76*
X548260Y99118D03*
D78*
X554584Y99118D03*
X562368Y99118D03*
D39*
X626503Y99118D03*
X544936Y99280D03*
D41*
X548179Y99280D03*
D43*
X554422Y99280D03*
D78*
X562206Y99280D03*
D39*
X626503Y99280D03*
X544936Y99442D03*
D138*
X548098Y99442D03*
D43*
X554422Y99442D03*
X562044Y99442D03*
D39*
X626503Y99442D03*
D68*
X544936Y99604D03*
D168*
X548098Y99604D03*
D108*
X554260Y99604D03*
D13*
X561963Y99604D03*
D68*
X626503Y99604D03*
D39*
X544936Y99766D03*
D43*
X554098Y99766D03*
D78*
X561882Y99766D03*
D39*
X626503Y99766D03*
X544936Y99929D03*
D43*
X553936Y99929D03*
X561719Y99929D03*
D39*
X626503Y99929D03*
X544936Y100091D03*
D43*
X553936Y100091D03*
X561557Y100091D03*
D39*
X626503Y100091D03*
X544936Y100253D03*
D43*
X553773Y100253D03*
X561395Y100253D03*
D39*
X626503Y100253D03*
X544936Y100415D03*
D78*
X553611Y100415D03*
D43*
X561395Y100415D03*
D39*
X626503Y100415D03*
D68*
X544936Y100577D03*
D86*
X553449Y100577D03*
D108*
X561233Y100577D03*
D68*
X626503Y100577D03*
D39*
X544936Y100739D03*
D43*
X553449Y100739D03*
X561071Y100739D03*
D39*
X626503Y100739D03*
X544936Y100902D03*
D78*
X553287Y100902D03*
X560909Y100902D03*
D39*
X626503Y100902D03*
X544936Y101064D03*
D78*
X553125Y101064D03*
D79*
X560828Y101064D03*
D39*
X626503Y101064D03*
X544936Y101226D03*
D43*
X552963Y101226D03*
D78*
X560746Y101226D03*
D39*
X626503Y101226D03*
D68*
X544936Y101388D03*
D86*
X552963Y101388D03*
X560584Y101388D03*
D68*
X626503Y101388D03*
D39*
X544936Y101550D03*
D43*
X552800Y101550D03*
X560422Y101550D03*
D39*
X626503Y101550D03*
X544936Y101712D03*
D43*
X552638Y101712D03*
D79*
X560341Y101712D03*
D39*
X626503Y101712D03*
X544936Y101874D03*
D43*
X552476Y101874D03*
X560260Y101874D03*
D39*
X626503Y101874D03*
X544936Y102037D03*
D43*
X552476Y102037D03*
X560098Y102037D03*
D39*
X626503Y102037D03*
X544936Y102199D03*
D78*
X552314Y102199D03*
X559936Y102199D03*
D39*
X626503Y102199D03*
D68*
X544936Y102361D03*
D108*
X552152Y102361D03*
D13*
X559855Y102361D03*
D68*
X626503Y102361D03*
D39*
X544936Y102523D03*
D43*
X551990Y102523D03*
D78*
X559773Y102523D03*
D39*
X626503Y102523D03*
X544936Y102685D03*
D43*
X551990Y102685D03*
X559611Y102685D03*
D39*
X626503Y102685D03*
X544936Y102847D03*
D43*
X551828Y102847D03*
X559449Y102847D03*
D39*
X626503Y102847D03*
X544936Y103010D03*
D43*
X551665Y103010D03*
X559287Y103010D03*
D39*
X626503Y103010D03*
D68*
X544936Y103172D03*
D86*
X551503Y103172D03*
D13*
X559206Y103172D03*
D68*
X626503Y103172D03*
D39*
X544936Y103334D03*
D43*
X551503Y103334D03*
D78*
X559125Y103334D03*
D39*
X626503Y103334D03*
X544936Y103496D03*
D78*
X551341Y103496D03*
X558963Y103496D03*
D39*
X626503Y103496D03*
X544936Y103658D03*
D78*
X551179Y103658D03*
X558801Y103658D03*
D39*
X626503Y103658D03*
X544936Y103820D03*
D43*
X551017Y103820D03*
D169*
X558719Y103820D03*
D39*
X626503Y103820D03*
D68*
X544936Y103983D03*
D86*
X551017Y103983D03*
D108*
X558638Y103983D03*
D68*
X626503Y103983D03*
D39*
X544936Y104145D03*
D43*
X550855Y104145D03*
X558476Y104145D03*
D39*
X626503Y104145D03*
X544936Y104307D03*
D43*
X550692Y104307D03*
X558314Y104307D03*
D39*
X626503Y104307D03*
X544936Y104469D03*
D43*
X550530Y104469D03*
D79*
X558233Y104469D03*
D39*
X626503Y104469D03*
X544936Y104631D03*
D43*
X550530Y104631D03*
X558152Y104631D03*
D39*
X626503Y104631D03*
D68*
X544936Y104793D03*
D108*
X550368Y104793D03*
X557990Y104793D03*
D68*
X626503Y104793D03*
D39*
X544936Y104956D03*
D78*
X550206Y104956D03*
X557828Y104956D03*
D39*
X626503Y104956D03*
X544936Y105118D03*
D89*
X550125Y105118D03*
X557746Y105118D03*
D39*
X626503Y105118D03*
X544936Y105280D03*
D43*
X550044Y105280D03*
D78*
X557665Y105280D03*
D39*
X626503Y105280D03*
X544936Y105442D03*
D89*
X549963Y105442D03*
X557584Y105442D03*
D39*
X626503Y105442D03*
X544936Y105604D03*
D89*
X549800Y105604D03*
X557422Y105604D03*
D39*
X626503Y105604D03*
D68*
X544936Y105766D03*
D102*
X549719Y105766D03*
X557341Y105766D03*
D68*
X626503Y105766D03*
D39*
X544936Y105929D03*
D67*
X549719Y105929D03*
X557341Y105929D03*
D39*
X626503Y105929D03*
X544936Y106091D03*
D50*
X549638Y106091D03*
X557260Y106091D03*
D39*
X626503Y106091D03*
X544936Y106253D03*
D134*
X549557Y106253D03*
X557179Y106253D03*
D39*
X626503Y106253D03*
X544936Y106415D03*
D12*
X549557Y106415D03*
X557179Y106415D03*
D39*
X626503Y106415D03*
D68*
X544936Y106577D03*
D23*
X549557Y106577D03*
X557179Y106577D03*
D68*
X626503Y106577D03*
D39*
X544936Y106739D03*
D65*
X549557Y106739D03*
X557179Y106739D03*
D39*
X626503Y106739D03*
X544936Y106902D03*
D65*
X549557Y106902D03*
X557179Y106902D03*
D39*
X626503Y106902D03*
X544936Y107064D03*
D25*
X549557Y107064D03*
X557179Y107064D03*
D39*
X626503Y107064D03*
X544936Y107226D03*
D11*
X549557Y107226D03*
X557179Y107226D03*
D39*
X626503Y107226D03*
D68*
X544936Y107388D03*
D170*
X549557Y107388D03*
X557179Y107388D03*
D68*
X626503Y107388D03*
D39*
X544936Y107550D03*
X626503Y107550D03*
X544936Y107712D03*
X626503Y107712D03*
X544936Y107874D03*
X626503Y107874D03*
X544936Y108037D03*
X626503Y108037D03*
X544936Y108199D03*
X626503Y108199D03*
D68*
X544936Y108361D03*
X626503Y108361D03*
D39*
X544936Y108523D03*
X626503Y108523D03*
X544936Y108685D03*
X626503Y108685D03*
X544936Y108847D03*
X626503Y108847D03*
X544936Y109010D03*
X626503Y109010D03*
D68*
X544936Y109172D03*
X626503Y109172D03*
D39*
X544936Y109334D03*
X626503Y109334D03*
X544936Y109496D03*
X626503Y109496D03*
X544936Y109658D03*
X626503Y109658D03*
X544936Y109820D03*
X626503Y109820D03*
D71*
X544855Y109983D03*
X626422Y109983D03*
D26*
X544855Y110145D03*
X626422Y110145D03*
X544855Y110307D03*
X626422Y110307D03*
D39*
X544936Y110469D03*
X626341Y110469D03*
D65*
X545017Y110631D03*
X626260Y110631D03*
D22*
X545179Y110793D03*
X626098Y110793D03*
D48*
X545260Y110956D03*
D114*
X585638Y110956D03*
D48*
X626017Y110956D03*
D171*
X585638Y111118D03*
D124*
X585638Y111280D03*
X585638Y111442D03*
D123*
X585638Y111604D03*
D172*
X585638Y111766D03*
D122*
X585638Y111929D03*
D173*
X585638Y112091D03*
D120*
X585638Y112253D03*
D119*
X585638Y112415D03*
D174*
X585638Y112577D03*
D117*
X585638Y112739D03*
D175*
X585638Y112902D03*
D115*
X585638Y113064D03*
D176*
X85762Y230762D02*
X85762Y237244D01*
X85762Y234003D02*
X90083Y234003D01*
X90083Y237244D02*
X90083Y230762D01*
X93128Y231842D02*
X93128Y237244D01*
X93128Y231842D02*
X94209Y230762D01*
X96369Y230762D01*
X97449Y231842D01*
X97449Y237244D01*
X100495Y237244D02*
X100495Y230762D01*
X100495Y237244D02*
X103735Y237244D01*
X104816Y236163D01*
X104816Y234003D01*
X103735Y232923D01*
X100495Y232923D01*
X102655Y232923D02*
X104816Y230762D01*
X107861Y230762D02*
X107861Y237244D01*
X107861Y230762D02*
X112182Y230762D01*
X115227Y237244D02*
X119548Y237244D01*
X115227Y237244D02*
X115227Y230762D01*
X119548Y230762D01*
X117388Y234003D02*
X115227Y234003D01*
X122593Y236163D02*
X122593Y237244D01*
X122593Y236163D02*
X124754Y234003D01*
X126914Y236163D01*
X126914Y237244D01*
X124754Y234003D02*
X124754Y230762D01*
X137326Y230762D02*
X137326Y237244D01*
X140567Y237244D01*
X141647Y236163D01*
X141647Y234003D01*
X140567Y232923D01*
X137326Y232923D01*
X139486Y232923D02*
X141647Y230762D01*
X144692Y237244D02*
X149013Y237244D01*
X144692Y237244D02*
X144692Y230762D01*
X149013Y230762D01*
X146853Y234003D02*
X144692Y234003D01*
X155299Y237244D02*
X156380Y236163D01*
X155299Y237244D02*
X153139Y237244D01*
X152059Y236163D01*
X152059Y235083D01*
X153139Y234003D01*
X155299Y234003D01*
X156380Y232923D01*
X156380Y231842D01*
X155299Y230762D01*
X153139Y230762D01*
X152059Y231842D01*
X159425Y237244D02*
X163746Y237244D01*
X159425Y237244D02*
X159425Y230762D01*
X163746Y230762D01*
X161585Y234003D02*
X159425Y234003D01*
X166791Y235083D02*
X166791Y230762D01*
X166791Y235083D02*
X168952Y237244D01*
X171112Y235083D01*
X171112Y230762D01*
X171112Y234003D02*
X166791Y234003D01*
X174157Y230762D02*
X174157Y237244D01*
X177398Y237244D01*
X178478Y236163D01*
X178478Y234003D01*
X177398Y232923D01*
X174157Y232923D01*
X176318Y232923D02*
X178478Y230762D01*
X184764Y237244D02*
X185845Y236163D01*
X184764Y237244D02*
X182604Y237244D01*
X181524Y236163D01*
X181524Y231842D01*
X182604Y230762D01*
X184764Y230762D01*
X185845Y231842D01*
X188890Y230762D02*
X188890Y237244D01*
X188890Y234003D02*
X193211Y234003D01*
X193211Y237244D02*
X193211Y230762D01*
X203623Y230762D02*
X203623Y237244D01*
X203623Y230762D02*
X207944Y230762D01*
X210989Y230762D02*
X210989Y237244D01*
X210989Y230762D02*
X215310Y230762D01*
X221596Y237244D02*
X222676Y236163D01*
X221596Y237244D02*
X219435Y237244D01*
X218355Y236163D01*
X218355Y231842D01*
X219435Y230762D01*
X221596Y230762D01*
X222676Y231842D01*
X233088Y230762D02*
X237409Y230762D01*
X233088Y230762D02*
X237409Y235083D01*
X237409Y236163D01*
X236328Y237244D01*
X234168Y237244D01*
X233088Y236163D01*
X240454Y236163D02*
X240454Y231842D01*
X240454Y236163D02*
X241534Y237244D01*
X243695Y237244D01*
X244775Y236163D01*
X244775Y231842D01*
X243695Y230762D01*
X241534Y230762D01*
X240454Y231842D01*
X244775Y236163D01*
X247820Y230762D02*
X252141Y230762D01*
X247820Y230762D02*
X252141Y235083D01*
X252141Y236163D01*
X251061Y237244D01*
X248900Y237244D01*
X247820Y236163D01*
X255186Y230762D02*
X259507Y230762D01*
X255186Y230762D02*
X259507Y235083D01*
X259507Y236163D01*
X258427Y237244D01*
X256267Y237244D01*
X255186Y236163D01*
X90083Y248163D02*
X89003Y249244D01*
X86842Y249244D01*
X85762Y248163D01*
X85762Y243842D01*
X86842Y242762D01*
X89003Y242762D01*
X90083Y243842D01*
X94209Y242762D02*
X96369Y242762D01*
X97449Y243842D01*
X97449Y246003D01*
X96369Y247083D01*
X94209Y247083D01*
X93128Y246003D01*
X93128Y243842D01*
X94209Y242762D01*
X100495Y240602D02*
X100495Y247083D01*
X103735Y247083D01*
X104816Y246003D01*
X104816Y243842D01*
X103735Y242762D01*
X100495Y242762D01*
X107861Y243842D02*
X107861Y247083D01*
X107861Y243842D02*
X108941Y242762D01*
X112182Y242762D01*
X112182Y241682D02*
X112182Y247083D01*
X112182Y241682D02*
X111102Y240602D01*
X110021Y240602D01*
X115227Y242762D02*
X115227Y247083D01*
X115227Y244923D02*
X117388Y247083D01*
X118468Y247083D01*
X121366Y247083D02*
X122446Y247083D01*
X122446Y242762D01*
X121366Y242762D02*
X123526Y242762D01*
X122446Y249244D02*
X122446Y250324D01*
X128437Y240602D02*
X129517Y240602D01*
X130598Y241682D01*
X130598Y247083D01*
X127357Y247083D01*
X126277Y246003D01*
X126277Y243842D01*
X127357Y242762D01*
X130598Y242762D01*
X133643Y242762D02*
X133643Y249244D01*
X134723Y247083D02*
X133643Y246003D01*
X134723Y247083D02*
X136884Y247083D01*
X137964Y246003D01*
X137964Y242762D01*
X142089Y243842D02*
X142089Y248163D01*
X142089Y243842D02*
X143170Y242762D01*
X143170Y247083D02*
X141009Y247083D01*
X103762Y207244D02*
X103762Y200762D01*
X103762Y207244D02*
X107003Y207244D01*
X108083Y206163D01*
X108083Y205083D01*
X107003Y204003D01*
X108083Y202923D01*
X108083Y201842D01*
X107003Y200762D01*
X103762Y200762D01*
X103762Y204003D02*
X107003Y204003D01*
X111128Y207244D02*
X111128Y200762D01*
X115449Y200762D01*
X118495Y207244D02*
X122816Y207244D01*
X118495Y207244D02*
X118495Y200762D01*
X122816Y200762D01*
X120655Y204003D02*
X118495Y204003D01*
X125861Y204003D02*
X130182Y204003D01*
X133227Y200762D02*
X133227Y207244D01*
X137548Y207244D01*
X135388Y204003D02*
X133227Y204003D01*
X140593Y200762D02*
X140593Y207244D01*
X143834Y207244D01*
X144914Y206163D01*
X144914Y204003D01*
X143834Y202923D01*
X140593Y202923D01*
X151200Y207244D02*
X152281Y206163D01*
X151200Y207244D02*
X149040Y207244D01*
X147960Y206163D01*
X147960Y201842D01*
X149040Y200762D01*
X151200Y200762D01*
X152281Y201842D01*
X152281Y204003D01*
X150120Y204003D01*
X155326Y205083D02*
X155326Y200762D01*
X155326Y205083D02*
X157486Y207244D01*
X159647Y205083D01*
X159647Y200762D01*
X159647Y204003D02*
X155326Y204003D01*
X170059Y207244D02*
X170059Y200762D01*
X173299Y200762D01*
X174380Y201842D01*
X174380Y206163D01*
X173299Y207244D01*
X170059Y207244D01*
X177425Y207244D02*
X181746Y207244D01*
X177425Y207244D02*
X177425Y200762D01*
X181746Y200762D01*
X179585Y204003D02*
X177425Y204003D01*
X184791Y202923D02*
X184791Y207244D01*
X184791Y202923D02*
X186952Y200762D01*
X189112Y202923D01*
X189112Y207244D01*
X199524Y207244D02*
X199524Y200762D01*
X199524Y207244D02*
X202764Y207244D01*
X203845Y206163D01*
X203845Y205083D01*
X202764Y204003D01*
X203845Y202923D01*
X203845Y201842D01*
X202764Y200762D01*
X199524Y200762D01*
X199524Y204003D02*
X202764Y204003D01*
X207970Y207244D02*
X210131Y207244D01*
X207970Y207244D02*
X206890Y206163D01*
X206890Y201842D01*
X207970Y200762D01*
X210131Y200762D01*
X211211Y201842D01*
X211211Y206163D01*
X210131Y207244D01*
X214256Y205083D02*
X214256Y200762D01*
X214256Y205083D02*
X216417Y207244D01*
X218577Y205083D01*
X218577Y200762D01*
X218577Y204003D02*
X214256Y204003D01*
X221623Y200762D02*
X221623Y207244D01*
X224863Y207244D01*
X225944Y206163D01*
X225944Y204003D01*
X224863Y202923D01*
X221623Y202923D01*
X223783Y202923D02*
X225944Y200762D01*
X228989Y200762D02*
X228989Y207244D01*
X228989Y200762D02*
X232230Y200762D01*
X233310Y201842D01*
X233310Y206163D01*
X232230Y207244D01*
X228989Y207244D01*
X243721Y205083D02*
X245882Y207244D01*
X245882Y200762D01*
X248042Y200762D02*
X243721Y200762D01*
X251088Y200762D02*
X251088Y201842D01*
X252168Y201842D01*
X252168Y200762D01*
X251088Y200762D01*
X254771Y201842D02*
X254771Y206163D01*
X255851Y207244D01*
X258012Y207244D01*
X259092Y206163D01*
X259092Y201842D01*
X258012Y200762D01*
X255851Y200762D01*
X254771Y201842D01*
X259092Y206163D01*
X120762Y217762D02*
X120762Y224244D01*
X121842Y222083D02*
X120762Y221003D01*
X121842Y222083D02*
X124003Y222083D01*
X125083Y221003D01*
X125083Y217762D01*
X128128Y218842D02*
X128128Y222083D01*
X128128Y218842D02*
X129209Y217762D01*
X132449Y217762D01*
X132449Y222083D01*
X135495Y222083D02*
X135495Y217762D01*
X135495Y219923D02*
X137655Y222083D01*
X138735Y222083D01*
X141633Y224244D02*
X142713Y224244D01*
X142713Y217762D01*
X141633Y217762D02*
X143794Y217762D01*
X147624Y217762D02*
X149785Y217762D01*
X147624Y217762D02*
X146544Y218842D01*
X146544Y221003D01*
X147624Y222083D01*
X149785Y222083D01*
X150865Y221003D01*
X150865Y219923D01*
X146544Y219923D01*
X153910Y218842D02*
X153910Y222083D01*
X153910Y218842D02*
X154991Y217762D01*
X158231Y217762D01*
X158231Y216682D02*
X158231Y222083D01*
X158231Y216682D02*
X157151Y215602D01*
X156071Y215602D01*
X161277Y217762D02*
X161277Y222083D01*
X161277Y219923D02*
X163437Y222083D01*
X164517Y222083D01*
X168495Y217762D02*
X170656Y217762D01*
X168495Y217762D02*
X167415Y218842D01*
X167415Y221003D01*
X168495Y222083D01*
X170656Y222083D01*
X171736Y221003D01*
X171736Y219923D01*
X167415Y219923D01*
X174781Y217762D02*
X178022Y217762D01*
X179102Y218842D01*
X178022Y219923D01*
X175862Y219923D01*
X174781Y221003D01*
X175862Y222083D01*
X179102Y222083D01*
X183228Y217762D02*
X185388Y217762D01*
X183228Y217762D02*
X182148Y218842D01*
X182148Y221003D01*
X183228Y222083D01*
X185388Y222083D01*
X186469Y221003D01*
X186469Y219923D01*
X182148Y219923D01*
X190594Y222083D02*
X192755Y222083D01*
X193835Y221003D01*
X193835Y217762D01*
X190594Y217762D01*
X189514Y218842D01*
X190594Y219923D01*
X193835Y219923D01*
X196880Y217762D02*
X196880Y222083D01*
X196880Y219923D02*
X199041Y222083D01*
X200121Y222083D01*
X204099Y222083D02*
X207340Y222083D01*
X204099Y222083D02*
X203019Y221003D01*
X203019Y218842D01*
X204099Y217762D01*
X207340Y217762D01*
X210385Y217762D02*
X210385Y224244D01*
X211465Y222083D02*
X210385Y221003D01*
X211465Y222083D02*
X213626Y222083D01*
X214706Y221003D01*
X214706Y217762D01*
X217751Y217762D02*
X217751Y218842D01*
X218832Y218842D01*
X218832Y217762D01*
X217751Y217762D01*
X222515Y222083D02*
X225755Y222083D01*
X222515Y222083D02*
X221434Y221003D01*
X221434Y218842D01*
X222515Y217762D01*
X225755Y217762D01*
X229881Y217762D02*
X232042Y217762D01*
X233122Y218842D01*
X233122Y221003D01*
X232042Y222083D01*
X229881Y222083D01*
X228801Y221003D01*
X228801Y218842D01*
X229881Y217762D01*
X236167Y217762D02*
X236167Y222083D01*
X237247Y222083D01*
X238328Y221003D01*
X238328Y217762D01*
X238328Y221003D02*
X239408Y222083D01*
X240488Y221003D01*
X240488Y217762D01*
D177*
X101119Y167948D02*
X93875Y167948D01*
X101119Y167948D02*
X101119Y172778D01*
X96290Y175315D02*
X93875Y177729D01*
X101119Y177729D01*
X101119Y175315D02*
X101119Y180144D01*
D178*
X80216Y150302D02*
X81299Y149219D01*
X80216Y150302D02*
X78050Y150302D01*
X76968Y149219D01*
X76968Y144887D01*
X78050Y143804D01*
X80216Y143804D01*
X81299Y144887D01*
X83413Y149219D02*
X84496Y150302D01*
X86662Y150302D01*
X87745Y149219D01*
X87745Y148136D01*
X86662Y147053D01*
X85579Y147053D01*
X86662Y147053D02*
X87745Y145970D01*
X87745Y144887D01*
X86662Y143804D01*
X84496Y143804D01*
X83413Y144887D01*
X89859Y148136D02*
X92024Y150302D01*
X92024Y143804D01*
X89859Y143804D02*
X94190Y143804D01*
X79736Y191519D02*
X78653Y192602D01*
X76487Y192602D01*
X75404Y191519D01*
X75404Y187187D01*
X76487Y186104D01*
X78653Y186104D01*
X79736Y187187D01*
X81850Y191519D02*
X82932Y192602D01*
X85098Y192602D01*
X86181Y191519D01*
X86181Y190436D01*
X85098Y189353D01*
X84015Y189353D01*
X85098Y189353D02*
X86181Y188270D01*
X86181Y187187D01*
X85098Y186104D01*
X82932Y186104D01*
X81850Y187187D01*
X88295Y186104D02*
X92627Y186104D01*
X88295Y186104D02*
X92627Y190436D01*
X92627Y191519D01*
X91544Y192602D01*
X89378Y192602D01*
X88295Y191519D01*
D177*
X98754Y194675D02*
X99962Y193468D01*
X98754Y194675D02*
X96339Y194675D01*
X95132Y193468D01*
X95132Y188638D01*
X96339Y187431D01*
X98754Y187431D01*
X99962Y188638D01*
X102498Y193468D02*
X103706Y194675D01*
X106121Y194675D01*
X107328Y193468D01*
X107328Y192260D01*
X106121Y191053D01*
X104913Y191053D01*
X106121Y191053D02*
X107328Y189846D01*
X107328Y188638D01*
X106121Y187431D01*
X103706Y187431D01*
X102498Y188638D01*
X113487Y187431D02*
X113487Y194675D01*
X109865Y191053D01*
X114694Y191053D01*
D179*
X99750Y166000D02*
X99750Y136000D01*
X132250Y136000D01*
X132250Y166000D01*
X99750Y166000D01*
D177*
X113898Y168131D02*
X113898Y175375D01*
X113898Y168131D02*
X117521Y168131D01*
X118728Y169338D01*
X118728Y174168D01*
X117521Y175375D01*
X113898Y175375D01*
X121265Y168131D02*
X126094Y168131D01*
X121265Y168131D02*
X126094Y172960D01*
X126094Y174168D01*
X124887Y175375D01*
X122472Y175375D01*
X121265Y174168D01*
D180*
X570000Y300000D02*
X682300Y300000D01*
X682300Y150000D01*
X634300Y150000D02*
X570000Y150000D01*
X634300Y150000D02*
X682300Y150000D01*
X479300Y290000D02*
X474300Y290000D01*
X570000Y290000D02*
X570000Y300000D01*
X474300Y290000D02*
X474300Y150000D01*
D176*
X479300Y150000D01*
D180*
X574300Y290000D02*
X634300Y290000D01*
X634300Y150000D01*
D178*
X629046Y257234D02*
X624550Y257234D01*
X624550Y259482D01*
X625299Y260232D01*
X626049Y260232D01*
X626798Y259482D01*
X627547Y260232D01*
X628297Y260232D01*
X629046Y259482D01*
X629046Y257234D01*
X626798Y257234D02*
X626798Y259482D01*
X629046Y263337D02*
X624550Y263337D01*
X624550Y264835D02*
X624550Y261838D01*
X624550Y268690D02*
X629046Y268690D01*
X626798Y266442D02*
X624550Y268690D01*
X626798Y269439D02*
X626798Y266442D01*
X628297Y271046D02*
X625299Y271046D01*
X624550Y271795D01*
X624550Y273294D01*
X625299Y274043D01*
X628297Y274043D01*
X629046Y273294D01*
X629046Y271795D01*
X628297Y271046D01*
X625299Y274043D01*
X624550Y275650D02*
X624550Y278647D01*
X624550Y275650D02*
X629046Y275650D01*
X629046Y278647D01*
X626798Y277149D02*
X626798Y275650D01*
X674550Y267234D02*
X679046Y267234D01*
X674550Y267234D02*
X674550Y269482D01*
X675299Y270232D01*
X676049Y270232D01*
X676798Y269482D01*
X677547Y270232D01*
X678297Y270232D01*
X679046Y269482D01*
X679046Y267234D01*
X676798Y267234D02*
X676798Y269482D01*
X679046Y273337D02*
X674550Y273337D01*
X674550Y274835D02*
X674550Y271838D01*
X674550Y278690D02*
X679046Y278690D01*
X676798Y276442D02*
X674550Y278690D01*
X676798Y279439D02*
X676798Y276442D01*
X678297Y281046D02*
X675299Y281046D01*
X674550Y281795D01*
X674550Y283294D01*
X675299Y284043D01*
X678297Y284043D01*
X679046Y283294D01*
X679046Y281795D01*
X678297Y281046D01*
X675299Y284043D01*
X674550Y285650D02*
X679046Y285650D01*
X674550Y285650D02*
X674550Y288647D01*
X676798Y287149D02*
X676798Y285650D01*
D181*
X456692Y243098D02*
X456692Y237273D01*
X457857Y236108D01*
X460187Y236108D01*
X461352Y237273D01*
X461352Y243098D01*
X464058Y236108D02*
X468718Y236108D01*
X464058Y236108D02*
X468718Y240768D01*
X468718Y241933D01*
X467553Y243098D01*
X465223Y243098D01*
X464058Y241933D01*
D177*
X489532Y99962D02*
X488325Y98754D01*
X488325Y96339D01*
X489532Y95132D01*
X494362Y95132D01*
X495569Y96339D01*
X495569Y98754D01*
X494362Y99962D01*
X495569Y106121D02*
X488325Y106121D01*
X491947Y102498D01*
X491947Y107328D01*
X489532Y109865D02*
X488325Y111072D01*
X488325Y113487D01*
X489532Y114694D01*
X490740Y114694D01*
X491947Y113487D01*
X493154Y114694D01*
X494362Y114694D01*
X495569Y113487D01*
X495569Y111072D01*
X494362Y109865D01*
X493154Y109865D01*
X491947Y111072D01*
X490740Y109865D01*
X489532Y109865D01*
X491947Y111072D02*
X491947Y113487D01*
X459025Y403653D02*
X460232Y404860D01*
X459025Y403653D02*
X459025Y401238D01*
X460232Y400031D01*
X465062Y400031D01*
X466269Y401238D01*
X466269Y403653D01*
X465062Y404860D01*
X460232Y409812D02*
X459025Y412227D01*
X460232Y409812D02*
X462647Y407397D01*
X465062Y407397D01*
X466269Y408605D01*
X466269Y411019D01*
X465062Y412227D01*
X463854Y412227D01*
X462647Y411019D01*
X462647Y407397D01*
X466269Y414764D02*
X466269Y419593D01*
X466269Y414764D02*
X461440Y419593D01*
X460232Y419593D01*
X459025Y418386D01*
X459025Y415971D01*
X460232Y414764D01*
X590653Y338975D02*
X591860Y337768D01*
X590653Y338975D02*
X588238Y338975D01*
X587031Y337768D01*
X587031Y332938D01*
X588238Y331731D01*
X590653Y331731D01*
X591860Y332938D01*
X596812Y337768D02*
X599227Y338975D01*
X596812Y337768D02*
X594397Y335353D01*
X594397Y332938D01*
X595605Y331731D01*
X598019Y331731D01*
X599227Y332938D01*
X599227Y334146D01*
X598019Y335353D01*
X594397Y335353D01*
X601764Y337768D02*
X602971Y338975D01*
X605386Y338975D01*
X606593Y337768D01*
X606593Y336560D01*
X605386Y335353D01*
X604178Y335353D01*
X605386Y335353D02*
X606593Y334146D01*
X606593Y332938D01*
X605386Y331731D01*
X602971Y331731D01*
X601764Y332938D01*
X589860Y407768D02*
X588653Y408975D01*
X586238Y408975D01*
X585031Y407768D01*
X585031Y402938D01*
X586238Y401731D01*
X588653Y401731D01*
X589860Y402938D01*
X594812Y407768D02*
X597227Y408975D01*
X594812Y407768D02*
X592397Y405353D01*
X592397Y402938D01*
X593605Y401731D01*
X596019Y401731D01*
X597227Y402938D01*
X597227Y404146D01*
X596019Y405353D01*
X592397Y405353D01*
X599764Y408975D02*
X604593Y408975D01*
X599764Y408975D02*
X599764Y405353D01*
X602178Y406560D01*
X603386Y406560D01*
X604593Y405353D01*
X604593Y402938D01*
X603386Y401731D01*
X600971Y401731D01*
X599764Y402938D01*
X424460Y411968D02*
X423253Y413175D01*
X420838Y413175D01*
X419631Y411968D01*
X419631Y407138D01*
X420838Y405931D01*
X423253Y405931D01*
X424460Y407138D01*
X429412Y411968D02*
X431827Y413175D01*
X429412Y411968D02*
X426997Y409553D01*
X426997Y407138D01*
X428205Y405931D01*
X430619Y405931D01*
X431827Y407138D01*
X431827Y408346D01*
X430619Y409553D01*
X426997Y409553D01*
X434364Y413175D02*
X439193Y413175D01*
X439193Y411968D01*
X434364Y407138D01*
X434364Y405931D01*
X424460Y402968D02*
X423253Y404175D01*
X420838Y404175D01*
X419631Y402968D01*
X419631Y398138D01*
X420838Y396931D01*
X423253Y396931D01*
X424460Y398138D01*
X429412Y402968D02*
X431827Y404175D01*
X429412Y402968D02*
X426997Y400553D01*
X426997Y398138D01*
X428205Y396931D01*
X430619Y396931D01*
X431827Y398138D01*
X431827Y399346D01*
X430619Y400553D01*
X426997Y400553D01*
X434364Y402968D02*
X435571Y404175D01*
X437986Y404175D01*
X439193Y402968D01*
X439193Y401760D01*
X437986Y400553D01*
X439193Y399346D01*
X439193Y398138D01*
X437986Y396931D01*
X435571Y396931D01*
X434364Y398138D01*
X434364Y399346D01*
X435571Y400553D01*
X434364Y401760D01*
X434364Y402968D01*
X435571Y400553D02*
X437986Y400553D01*
X420860Y392768D02*
X419653Y393975D01*
X417238Y393975D01*
X416031Y392768D01*
X416031Y387938D01*
X417238Y386731D01*
X419653Y386731D01*
X420860Y387938D01*
X425812Y392768D02*
X428227Y393975D01*
X425812Y392768D02*
X423397Y390353D01*
X423397Y387938D01*
X424605Y386731D01*
X427019Y386731D01*
X428227Y387938D01*
X428227Y389146D01*
X427019Y390353D01*
X423397Y390353D01*
X430764Y387938D02*
X431971Y386731D01*
X434386Y386731D01*
X435593Y387938D01*
X435593Y392768D01*
X434386Y393975D01*
X431971Y393975D01*
X430764Y392768D01*
X430764Y391560D01*
X431971Y390353D01*
X435593Y390353D01*
X420860Y381768D02*
X419653Y382975D01*
X417238Y382975D01*
X416031Y381768D01*
X416031Y376938D01*
X417238Y375731D01*
X419653Y375731D01*
X420860Y376938D01*
X423397Y382975D02*
X428227Y382975D01*
X428227Y381768D01*
X423397Y376938D01*
X423397Y375731D01*
X430764Y376938D02*
X430764Y381768D01*
X431971Y382975D01*
X434386Y382975D01*
X435593Y381768D01*
X435593Y376938D01*
X434386Y375731D01*
X431971Y375731D01*
X430764Y376938D01*
X435593Y381768D01*
X421860Y372768D02*
X420653Y373975D01*
X418238Y373975D01*
X417031Y372768D01*
X417031Y367938D01*
X418238Y366731D01*
X420653Y366731D01*
X421860Y367938D01*
X424397Y373975D02*
X429227Y373975D01*
X429227Y372768D01*
X424397Y367938D01*
X424397Y366731D01*
X431764Y371560D02*
X434178Y373975D01*
X434178Y366731D01*
X431764Y366731D02*
X436593Y366731D01*
X589653Y380975D02*
X590860Y379768D01*
X589653Y380975D02*
X587238Y380975D01*
X586031Y379768D01*
X586031Y374938D01*
X587238Y373731D01*
X589653Y373731D01*
X590860Y374938D01*
X593397Y380975D02*
X598227Y380975D01*
X598227Y379768D01*
X593397Y374938D01*
X593397Y373731D01*
X600764Y380975D02*
X605593Y380975D01*
X600764Y380975D02*
X600764Y377353D01*
X603178Y378560D01*
X604386Y378560D01*
X605593Y377353D01*
X605593Y374938D01*
X604386Y373731D01*
X601971Y373731D01*
X600764Y374938D01*
X587031Y369975D02*
X587031Y362731D01*
X587031Y369975D02*
X590653Y369975D01*
X591860Y368768D01*
X591860Y366353D01*
X590653Y365146D01*
X587031Y365146D01*
X589446Y365146D02*
X591860Y362731D01*
X594397Y363938D02*
X595605Y362731D01*
X598019Y362731D01*
X599227Y363938D01*
X599227Y368768D01*
X598019Y369975D01*
X595605Y369975D01*
X594397Y368768D01*
X594397Y367560D01*
X595605Y366353D01*
X599227Y366353D01*
X601764Y367560D02*
X604178Y369975D01*
X604178Y362731D01*
X601764Y362731D02*
X606593Y362731D01*
X517198Y86575D02*
X517198Y79331D01*
X517198Y86575D02*
X520821Y86575D01*
X522028Y85368D01*
X522028Y82953D01*
X520821Y81746D01*
X517198Y81746D01*
X519613Y81746D02*
X522028Y79331D01*
X524565Y86575D02*
X529394Y86575D01*
X524565Y86575D02*
X524565Y82953D01*
X526979Y84160D01*
X528187Y84160D01*
X529394Y82953D01*
X529394Y80538D01*
X528187Y79331D01*
X525772Y79331D01*
X524565Y80538D01*
X527069Y46898D02*
X519825Y46898D01*
X519825Y50521D01*
X521032Y51728D01*
X523447Y51728D01*
X524654Y50521D01*
X524654Y46898D01*
X524654Y49313D02*
X527069Y51728D01*
X521032Y56679D02*
X519825Y59094D01*
X521032Y56679D02*
X523447Y54265D01*
X525862Y54265D01*
X527069Y55472D01*
X527069Y57887D01*
X525862Y59094D01*
X524654Y59094D01*
X523447Y57887D01*
X523447Y54265D01*
X498998Y77931D02*
X498998Y85175D01*
X502621Y85175D01*
X503828Y83968D01*
X503828Y81553D01*
X502621Y80346D01*
X498998Y80346D01*
X501413Y80346D02*
X503828Y77931D01*
X506365Y85175D02*
X511194Y85175D01*
X511194Y83968D01*
X506365Y79138D01*
X506365Y77931D01*
X510031Y408731D02*
X510031Y415975D01*
X513653Y415975D01*
X514860Y414768D01*
X514860Y412353D01*
X513653Y411146D01*
X510031Y411146D01*
X512446Y411146D02*
X514860Y408731D01*
X517397Y413560D02*
X519812Y415975D01*
X519812Y408731D01*
X517397Y408731D02*
X522227Y408731D01*
X481069Y409031D02*
X473825Y409031D01*
X473825Y412653D01*
X475032Y413860D01*
X477447Y413860D01*
X478654Y412653D01*
X478654Y409031D01*
X478654Y411446D02*
X481069Y413860D01*
X481069Y416397D02*
X481069Y421227D01*
X476240Y421227D02*
X481069Y416397D01*
X476240Y421227D02*
X475032Y421227D01*
X473825Y420019D01*
X473825Y417605D01*
X475032Y416397D01*
D178*
X490804Y406701D02*
X490804Y401204D01*
X490804Y406701D02*
X493552Y406701D01*
X494468Y405785D01*
X494468Y403952D01*
X493552Y403036D01*
X490804Y403036D01*
X492636Y403036D02*
X494468Y401204D01*
X496329Y405785D02*
X497245Y406701D01*
X499077Y406701D01*
X499993Y405785D01*
X499993Y404868D01*
X499077Y403952D01*
X498161Y403952D01*
X499077Y403952D02*
X499993Y403036D01*
X499993Y402120D01*
X499077Y401204D01*
X497245Y401204D01*
X496329Y402120D01*
D177*
X401031Y223975D02*
X401031Y216731D01*
X401031Y223975D02*
X404653Y223975D01*
X405860Y222768D01*
X405860Y220353D01*
X404653Y219146D01*
X401031Y219146D01*
X403446Y219146D02*
X405860Y216731D01*
X412019Y216731D02*
X412019Y223975D01*
X408397Y220353D01*
X413227Y220353D01*
D178*
X459718Y103228D02*
X466216Y103228D01*
X459718Y103228D02*
X459718Y106476D01*
X460801Y107559D01*
X462967Y107559D01*
X464050Y106476D01*
X464050Y103228D01*
X464050Y105393D02*
X466216Y107559D01*
X461884Y109673D02*
X459718Y111839D01*
X466216Y111839D01*
X466216Y109673D02*
X466216Y114005D01*
X465133Y116119D02*
X460801Y116119D01*
X459718Y117201D01*
X459718Y119367D01*
X460801Y120450D01*
X465133Y120450D01*
X466216Y119367D01*
X466216Y117201D01*
X465133Y116119D01*
X460801Y120450D01*
D177*
X434532Y186031D02*
X434532Y193275D01*
X438154Y193275D01*
X439362Y192068D01*
X439362Y189653D01*
X438154Y188446D01*
X434532Y188446D01*
X436947Y188446D02*
X439362Y186031D01*
X441898Y190860D02*
X444313Y193275D01*
X444313Y186031D01*
X441898Y186031D02*
X446728Y186031D01*
X449265Y190860D02*
X451679Y193275D01*
X451679Y186031D01*
X449265Y186031D02*
X454094Y186031D01*
X311328Y125068D02*
X310121Y126275D01*
X307706Y126275D01*
X306498Y125068D01*
X306498Y120238D01*
X307706Y119031D01*
X310121Y119031D01*
X311328Y120238D01*
X313865Y126275D02*
X318694Y126275D01*
X313865Y126275D02*
X313865Y122653D01*
X316279Y123860D01*
X317487Y123860D01*
X318694Y122653D01*
X318694Y120238D01*
X317487Y119031D01*
X315072Y119031D01*
X313865Y120238D01*
X417953Y164275D02*
X419160Y163068D01*
X417953Y164275D02*
X415538Y164275D01*
X414331Y163068D01*
X414331Y158238D01*
X415538Y157031D01*
X417953Y157031D01*
X419160Y158238D01*
X424112Y163068D02*
X426527Y164275D01*
X424112Y163068D02*
X421697Y160653D01*
X421697Y158238D01*
X422905Y157031D01*
X425319Y157031D01*
X426527Y158238D01*
X426527Y159446D01*
X425319Y160653D01*
X421697Y160653D01*
X393753Y112575D02*
X394960Y111368D01*
X393753Y112575D02*
X391338Y112575D01*
X390131Y111368D01*
X390131Y106538D01*
X391338Y105331D01*
X393753Y105331D01*
X394960Y106538D01*
X397497Y112575D02*
X402327Y112575D01*
X402327Y111368D01*
X397497Y106538D01*
X397497Y105331D01*
X346825Y204521D02*
X348032Y205728D01*
X346825Y204521D02*
X346825Y202106D01*
X348032Y200898D01*
X352862Y200898D01*
X354069Y202106D01*
X354069Y204521D01*
X352862Y205728D01*
X348032Y208265D02*
X346825Y209472D01*
X346825Y211887D01*
X348032Y213094D01*
X349240Y213094D01*
X350447Y211887D01*
X351654Y213094D01*
X352862Y213094D01*
X354069Y211887D01*
X354069Y209472D01*
X352862Y208265D01*
X351654Y208265D01*
X350447Y209472D01*
X349240Y208265D01*
X348032Y208265D01*
X350447Y209472D02*
X350447Y211887D01*
D178*
X205250Y156812D02*
X202878Y154439D01*
X205250Y156812D02*
X205250Y149694D01*
X202878Y149694D02*
X207623Y149694D01*
X207623Y111594D02*
X202878Y111594D01*
X207623Y116339D01*
X207623Y117526D01*
X206437Y118712D01*
X204064Y118712D01*
X202878Y117526D01*
X182223Y156812D02*
X177478Y156812D01*
X177478Y153253D01*
X179850Y154439D01*
X181037Y154439D01*
X182223Y153253D01*
X182223Y150880D01*
X181037Y149694D01*
X178664Y149694D01*
X177478Y150880D01*
X182223Y118712D02*
X179850Y117526D01*
X177478Y115153D01*
X177478Y112780D01*
X178664Y111594D01*
X181037Y111594D01*
X182223Y112780D01*
X182223Y113967D01*
X181037Y115153D01*
X177478Y115153D01*
D182*
X156300Y108800D02*
X232500Y108800D01*
X156300Y108800D02*
X156300Y159600D01*
X232500Y159600D01*
X232500Y108800D01*
D177*
X187438Y164381D02*
X186231Y165588D01*
X187438Y164381D02*
X188646Y164381D01*
X189853Y165588D01*
X189853Y171625D01*
X188646Y171625D02*
X191060Y171625D01*
X193597Y169210D02*
X196012Y171625D01*
X196012Y164381D01*
X193597Y164381D02*
X198427Y164381D01*
D183*
X463800Y392300D03*
D180*
X472800Y396300D02*
X476800Y396300D01*
X472800Y396300D02*
X472800Y392300D01*
X542800Y392300D02*
X542800Y396300D01*
X538800Y396300D01*
X538800Y326300D02*
X542800Y326300D01*
X542800Y330300D01*
X472800Y330300D02*
X472800Y326300D01*
X476800Y326300D01*
D177*
X452181Y326888D02*
X452181Y332925D01*
X452181Y326888D02*
X453388Y325681D01*
X455803Y325681D01*
X457010Y326888D01*
X457010Y332925D01*
X459547Y332925D02*
X464377Y332925D01*
X464377Y331718D01*
X459547Y326888D01*
X459547Y325681D01*
X428632Y347031D02*
X428632Y354275D01*
X432254Y354275D01*
X433462Y353068D01*
X433462Y350653D01*
X432254Y349446D01*
X428632Y349446D01*
X431047Y349446D02*
X433462Y347031D01*
X435998Y351860D02*
X438413Y354275D01*
X438413Y347031D01*
X435998Y347031D02*
X440828Y347031D01*
X446987Y347031D02*
X446987Y354275D01*
X443365Y350653D01*
X448194Y350653D01*
D178*
X74704Y86802D02*
X74704Y80304D01*
X74704Y86802D02*
X77953Y86802D01*
X79036Y85719D01*
X79036Y83553D01*
X77953Y82470D01*
X74704Y82470D01*
X76870Y82470D02*
X79036Y80304D01*
X81150Y84636D02*
X83315Y86802D01*
X83315Y80304D01*
X81150Y80304D02*
X85481Y80304D01*
X87595Y86802D02*
X91927Y86802D01*
X87595Y86802D02*
X87595Y83553D01*
X89761Y84636D01*
X90844Y84636D01*
X91927Y83553D01*
X91927Y81387D01*
X90844Y80304D01*
X88678Y80304D01*
X87595Y81387D01*
D180*
X421550Y248700D02*
X421550Y324900D01*
X358050Y324900D02*
X358050Y248700D01*
D184*
X366700Y229050D03*
D177*
X425981Y293838D02*
X425981Y299875D01*
X425981Y293838D02*
X427188Y292631D01*
X429603Y292631D01*
X430810Y293838D01*
X430810Y299875D01*
X433347Y297460D02*
X435762Y299875D01*
X435762Y292631D01*
X433347Y292631D02*
X438177Y292631D01*
X440714Y293838D02*
X440714Y298668D01*
X441921Y299875D01*
X444336Y299875D01*
X445543Y298668D01*
X445543Y293838D01*
X444336Y292631D01*
X441921Y292631D01*
X440714Y293838D01*
X445543Y298668D01*
X280432Y74075D02*
X280432Y66831D01*
X280432Y74075D02*
X284054Y74075D01*
X285262Y72868D01*
X285262Y70453D01*
X284054Y69246D01*
X280432Y69246D01*
X282847Y69246D02*
X285262Y66831D01*
X287798Y71660D02*
X290213Y74075D01*
X290213Y66831D01*
X287798Y66831D02*
X292628Y66831D01*
X295165Y74075D02*
X299994Y74075D01*
X299994Y72868D01*
X295165Y68038D01*
X295165Y66831D01*
D178*
X33396Y80404D02*
X26898Y80404D01*
X26898Y83653D01*
X27981Y84736D01*
X30147Y84736D01*
X31230Y83653D01*
X31230Y80404D01*
X31230Y82570D02*
X33396Y84736D01*
X29064Y86850D02*
X26898Y89015D01*
X33396Y89015D01*
X33396Y86850D02*
X33396Y91181D01*
X27981Y93295D02*
X26898Y94378D01*
X26898Y96544D01*
X27981Y97627D01*
X29064Y97627D01*
X30147Y96544D01*
X31230Y97627D01*
X32313Y97627D01*
X33396Y96544D01*
X33396Y94378D01*
X32313Y93295D01*
X31230Y93295D01*
X30147Y94378D01*
X29064Y93295D01*
X27981Y93295D01*
X30147Y94378D02*
X30147Y96544D01*
D177*
X348653Y389575D02*
X349860Y388368D01*
X348653Y389575D02*
X346238Y389575D01*
X345031Y388368D01*
X345031Y383538D01*
X346238Y382331D01*
X348653Y382331D01*
X349860Y383538D01*
X352397Y387160D02*
X354812Y389575D01*
X354812Y382331D01*
X352397Y382331D02*
X357227Y382331D01*
X359764Y387160D02*
X362178Y389575D01*
X362178Y382331D01*
X359764Y382331D02*
X364593Y382331D01*
X349462Y454668D02*
X348254Y455875D01*
X345839Y455875D01*
X344632Y454668D01*
X344632Y449838D01*
X345839Y448631D01*
X348254Y448631D01*
X349462Y449838D01*
X351998Y453460D02*
X354413Y455875D01*
X354413Y448631D01*
X351998Y448631D02*
X356828Y448631D01*
X362987Y448631D02*
X362987Y455875D01*
X359365Y452253D01*
X364194Y452253D01*
X378754Y455375D02*
X379962Y454168D01*
X378754Y455375D02*
X376339Y455375D01*
X375132Y454168D01*
X375132Y449338D01*
X376339Y448131D01*
X378754Y448131D01*
X379962Y449338D01*
X382498Y452960D02*
X384913Y455375D01*
X384913Y448131D01*
X382498Y448131D02*
X387328Y448131D01*
X389865Y455375D02*
X394694Y455375D01*
X389865Y455375D02*
X389865Y451753D01*
X392279Y452960D01*
X393487Y452960D01*
X394694Y451753D01*
X394694Y449338D01*
X393487Y448131D01*
X391072Y448131D01*
X389865Y449338D01*
X389653Y390575D02*
X390860Y389368D01*
X389653Y390575D02*
X387238Y390575D01*
X386031Y389368D01*
X386031Y384538D01*
X387238Y383331D01*
X389653Y383331D01*
X390860Y384538D01*
X393397Y388160D02*
X395812Y390575D01*
X395812Y383331D01*
X393397Y383331D02*
X398227Y383331D01*
X403178Y389368D02*
X405593Y390575D01*
X403178Y389368D02*
X400764Y386953D01*
X400764Y384538D01*
X401971Y383331D01*
X404386Y383331D01*
X405593Y384538D01*
X405593Y385746D01*
X404386Y386953D01*
X400764Y386953D01*
X310860Y388368D02*
X309653Y389575D01*
X307238Y389575D01*
X306031Y388368D01*
X306031Y383538D01*
X307238Y382331D01*
X309653Y382331D01*
X310860Y383538D01*
X313397Y387160D02*
X315812Y389575D01*
X315812Y382331D01*
X313397Y382331D02*
X318227Y382331D01*
X320764Y389575D02*
X325593Y389575D01*
X325593Y388368D01*
X320764Y383538D01*
X320764Y382331D01*
X306860Y454168D02*
X305653Y455375D01*
X303238Y455375D01*
X302031Y454168D01*
X302031Y449338D01*
X303238Y448131D01*
X305653Y448131D01*
X306860Y449338D01*
X309397Y452960D02*
X311812Y455375D01*
X311812Y448131D01*
X309397Y448131D02*
X314227Y448131D01*
X316764Y454168D02*
X317971Y455375D01*
X320386Y455375D01*
X321593Y454168D01*
X321593Y452960D01*
X320386Y451753D01*
X321593Y450546D01*
X321593Y449338D01*
X320386Y448131D01*
X317971Y448131D01*
X316764Y449338D01*
X316764Y450546D01*
X317971Y451753D01*
X316764Y452960D01*
X316764Y454168D01*
X317971Y451753D02*
X320386Y451753D01*
X179269Y65031D02*
X172025Y65031D01*
X172025Y68653D01*
X173232Y69860D01*
X175647Y69860D01*
X176854Y68653D01*
X176854Y65031D01*
X176854Y67446D02*
X179269Y69860D01*
X178062Y72397D02*
X179269Y73605D01*
X179269Y76019D01*
X178062Y77227D01*
X173232Y77227D01*
X172025Y76019D01*
X172025Y73605D01*
X173232Y72397D01*
X174440Y72397D01*
X175647Y73605D01*
X175647Y77227D01*
X139269Y62031D02*
X132025Y62031D01*
X132025Y65653D01*
X133232Y66860D01*
X135647Y66860D01*
X136854Y65653D01*
X136854Y62031D01*
X136854Y64446D02*
X139269Y66860D01*
X139269Y69397D02*
X139269Y74227D01*
X134440Y74227D02*
X139269Y69397D01*
X134440Y74227D02*
X133232Y74227D01*
X132025Y73019D01*
X132025Y70605D01*
X133232Y69397D01*
X133232Y76764D02*
X132025Y77971D01*
X132025Y80386D01*
X133232Y81593D01*
X134440Y81593D01*
X135647Y80386D01*
X135647Y79178D01*
X135647Y80386D02*
X136854Y81593D01*
X138062Y81593D01*
X139269Y80386D01*
X139269Y77971D01*
X138062Y76764D01*
X156725Y79231D02*
X163969Y79231D01*
X156725Y79231D02*
X156725Y82853D01*
X157932Y84060D01*
X160347Y84060D01*
X161554Y82853D01*
X161554Y79231D01*
X161554Y81646D02*
X163969Y84060D01*
X163969Y86597D02*
X163969Y91427D01*
X159140Y91427D02*
X163969Y86597D01*
X159140Y91427D02*
X157932Y91427D01*
X156725Y90219D01*
X156725Y87805D01*
X157932Y86597D01*
X156725Y97586D02*
X163969Y97586D01*
X160347Y93964D02*
X156725Y97586D01*
X160347Y98793D02*
X160347Y93964D01*
D180*
X-20000Y405000D02*
X-20000Y495000D01*
X-20000Y405000D02*
X15000Y405000D01*
X15000Y495000D02*
X-20000Y495000D01*
X105000Y495000D02*
X128000Y495000D01*
X128000Y405000D01*
X106000Y405000D01*
D177*
X7088Y384981D02*
X5881Y386188D01*
X7088Y384981D02*
X8296Y384981D01*
X9503Y386188D01*
X9503Y392225D01*
X8296Y392225D02*
X10710Y392225D01*
X13247Y392225D02*
X18077Y392225D01*
X18077Y391018D01*
X13247Y386188D01*
X13247Y384981D01*
D185*
X519700Y43100D03*
D178*
X491863Y60337D02*
X491863Y65752D01*
X491863Y60337D02*
X492946Y59254D01*
X495112Y59254D01*
X496195Y60337D01*
X496195Y65752D01*
X498309Y65752D02*
X502640Y65752D01*
X498309Y65752D02*
X498309Y62503D01*
X500474Y63586D01*
X501557Y63586D01*
X502640Y62503D01*
X502640Y60337D01*
X501557Y59254D01*
X499391Y59254D01*
X498309Y60337D01*
D185*
X491054Y441028D03*
D177*
X479135Y440753D02*
X479135Y434716D01*
X480342Y433509D01*
X482757Y433509D01*
X483964Y434716D01*
X483964Y440753D01*
X486501Y438338D02*
X488916Y440753D01*
X488916Y433509D01*
X486501Y433509D02*
X491331Y433509D01*
D180*
X361000Y434600D02*
X348000Y434600D01*
X348000Y425600D01*
X348000Y404600D02*
X361000Y404600D01*
X348000Y404600D02*
X348000Y413600D01*
D177*
X365981Y439588D02*
X365981Y445625D01*
X365981Y439588D02*
X367188Y438381D01*
X369603Y438381D01*
X370810Y439588D01*
X370810Y445625D01*
X375762Y444418D02*
X378177Y445625D01*
X375762Y444418D02*
X373347Y442003D01*
X373347Y439588D01*
X374555Y438381D01*
X376969Y438381D01*
X378177Y439588D01*
X378177Y440796D01*
X376969Y442003D01*
X373347Y442003D01*
D180*
X388000Y434600D02*
X401000Y434600D01*
X388000Y434600D02*
X388000Y425600D01*
X388000Y404600D02*
X401000Y404600D01*
X388000Y404600D02*
X388000Y413600D01*
D177*
X371048Y401925D02*
X371048Y395888D01*
X372256Y394681D01*
X374671Y394681D01*
X375878Y395888D01*
X375878Y401925D01*
X378415Y395888D02*
X379622Y394681D01*
X382037Y394681D01*
X383244Y395888D01*
X383244Y400718D01*
X382037Y401925D01*
X379622Y401925D01*
X378415Y400718D01*
X378415Y399510D01*
X379622Y398303D01*
X383244Y398303D01*
D180*
X70000Y105000D02*
X67000Y105000D01*
X51000Y105000D02*
X27000Y105000D01*
X7000Y105000D02*
X-7000Y105000D01*
X-7000Y195000D01*
X7000Y195000D01*
X27000Y195000D02*
X50000Y195000D01*
X67000Y195000D02*
X70000Y195000D01*
D177*
X9488Y215881D02*
X8281Y217088D01*
X9488Y215881D02*
X10696Y215881D01*
X11903Y217088D01*
X11903Y223125D01*
X10696Y223125D02*
X13110Y223125D01*
X15647Y215881D02*
X20477Y215881D01*
X20477Y220710D02*
X15647Y215881D01*
X20477Y220710D02*
X20477Y221918D01*
X19269Y223125D01*
X16855Y223125D01*
X15647Y221918D01*
D180*
X67000Y255000D02*
X70000Y255000D01*
X51000Y255000D02*
X27000Y255000D01*
X7000Y255000D02*
X-7000Y255000D01*
X-7000Y345000D01*
X7000Y345000D01*
X27000Y345000D02*
X50000Y345000D01*
X67000Y345000D02*
X70000Y345000D01*
D177*
X11388Y364281D02*
X10181Y365488D01*
X11388Y364281D02*
X12596Y364281D01*
X13803Y365488D01*
X13803Y371525D01*
X12596Y371525D02*
X15010Y371525D01*
X17547Y370318D02*
X18755Y371525D01*
X21169Y371525D01*
X22377Y370318D01*
X22377Y369110D01*
X21169Y367903D01*
X22377Y366696D01*
X22377Y365488D01*
X21169Y364281D01*
X18755Y364281D01*
X17547Y365488D01*
X17547Y366696D01*
X18755Y367903D01*
X17547Y369110D01*
X17547Y370318D01*
X18755Y367903D02*
X21169Y367903D01*
D178*
X76768Y158802D02*
X76768Y152304D01*
X76768Y158802D02*
X80016Y158802D01*
X81099Y157719D01*
X81099Y155553D01*
X80016Y154470D01*
X76768Y154470D01*
X78933Y154470D02*
X81099Y152304D01*
X83213Y156636D02*
X85379Y158802D01*
X85379Y152304D01*
X83213Y152304D02*
X87545Y152304D01*
X89659Y153387D02*
X90741Y152304D01*
X92907Y152304D01*
X93990Y153387D01*
X93990Y157719D01*
X92907Y158802D01*
X90741Y158802D01*
X89659Y157719D01*
X89659Y156636D01*
X90741Y155553D01*
X93990Y155553D01*
D177*
X72732Y120575D02*
X72732Y113331D01*
X72732Y120575D02*
X76354Y120575D01*
X77562Y119368D01*
X77562Y116953D01*
X76354Y115746D01*
X72732Y115746D01*
X75147Y115746D02*
X77562Y113331D01*
X80098Y113331D02*
X84928Y113331D01*
X84928Y118160D02*
X80098Y113331D01*
X84928Y118160D02*
X84928Y119368D01*
X83721Y120575D01*
X81306Y120575D01*
X80098Y119368D01*
X87465Y119368D02*
X87465Y114538D01*
X87465Y119368D02*
X88672Y120575D01*
X91087Y120575D01*
X92294Y119368D01*
X92294Y114538D01*
X91087Y113331D01*
X88672Y113331D01*
X87465Y114538D01*
X92294Y119368D01*
X88932Y270131D02*
X88932Y277375D01*
X92554Y277375D01*
X93762Y276168D01*
X93762Y273753D01*
X92554Y272546D01*
X88932Y272546D01*
X91347Y272546D02*
X93762Y270131D01*
X96298Y270131D02*
X101128Y270131D01*
X101128Y274960D02*
X96298Y270131D01*
X101128Y274960D02*
X101128Y276168D01*
X99921Y277375D01*
X97506Y277375D01*
X96298Y276168D01*
X103665Y274960D02*
X106079Y277375D01*
X106079Y270131D01*
X103665Y270131D02*
X108494Y270131D01*
X99032Y306031D02*
X99032Y313275D01*
X102654Y313275D01*
X103862Y312068D01*
X103862Y309653D01*
X102654Y308446D01*
X99032Y308446D01*
X101447Y308446D02*
X103862Y306031D01*
X106398Y306031D02*
X111228Y306031D01*
X111228Y310860D02*
X106398Y306031D01*
X111228Y310860D02*
X111228Y312068D01*
X110021Y313275D01*
X107606Y313275D01*
X106398Y312068D01*
X113765Y313275D02*
X118594Y313275D01*
X113765Y313275D02*
X113765Y309653D01*
X116179Y310860D01*
X117387Y310860D01*
X118594Y309653D01*
X118594Y307238D01*
X117387Y306031D01*
X114972Y306031D01*
X113765Y307238D01*
X99632Y345031D02*
X99632Y352275D01*
X103254Y352275D01*
X104462Y351068D01*
X104462Y348653D01*
X103254Y347446D01*
X99632Y347446D01*
X102047Y347446D02*
X104462Y345031D01*
X106998Y345031D02*
X111828Y345031D01*
X111828Y349860D02*
X106998Y345031D01*
X111828Y349860D02*
X111828Y351068D01*
X110621Y352275D01*
X108206Y352275D01*
X106998Y351068D01*
X116779Y351068D02*
X119194Y352275D01*
X116779Y351068D02*
X114365Y348653D01*
X114365Y346238D01*
X115572Y345031D01*
X117987Y345031D01*
X119194Y346238D01*
X119194Y347446D01*
X117987Y348653D01*
X114365Y348653D01*
X96232Y99375D02*
X96232Y92131D01*
X96232Y99375D02*
X99854Y99375D01*
X101062Y98168D01*
X101062Y95753D01*
X99854Y94546D01*
X96232Y94546D01*
X98647Y94546D02*
X101062Y92131D01*
X103598Y92131D02*
X108428Y92131D01*
X108428Y96960D02*
X103598Y92131D01*
X108428Y96960D02*
X108428Y98168D01*
X107221Y99375D01*
X104806Y99375D01*
X103598Y98168D01*
X110965Y99375D02*
X115794Y99375D01*
X115794Y98168D01*
X110965Y93338D01*
X110965Y92131D01*
X556725Y400254D02*
X557932Y401462D01*
X556725Y400254D02*
X556725Y397839D01*
X557932Y396632D01*
X562762Y396632D01*
X563969Y397839D01*
X563969Y400254D01*
X562762Y401462D01*
X559140Y403998D02*
X556725Y406413D01*
X563969Y406413D01*
X563969Y403998D02*
X563969Y408828D01*
X562762Y411365D02*
X557932Y411365D01*
X556725Y412572D01*
X556725Y414987D01*
X557932Y416194D01*
X562762Y416194D01*
X563969Y414987D01*
X563969Y412572D01*
X562762Y411365D01*
X557932Y416194D01*
X514269Y424031D02*
X507025Y424031D01*
X507025Y427653D01*
X508232Y428860D01*
X510647Y428860D01*
X511854Y427653D01*
X511854Y424031D01*
X511854Y426446D02*
X514269Y428860D01*
X509440Y431397D02*
X507025Y433812D01*
X514269Y433812D01*
X514269Y431397D02*
X514269Y436227D01*
X508232Y438764D02*
X507025Y439971D01*
X507025Y442386D01*
X508232Y443593D01*
X509440Y443593D01*
X510647Y442386D01*
X510647Y441178D01*
X510647Y442386D02*
X511854Y443593D01*
X513062Y443593D01*
X514269Y442386D01*
X514269Y439971D01*
X513062Y438764D01*
D180*
X250000Y-20000D02*
X230000Y-20000D01*
X250000Y-20000D02*
X250000Y10000D01*
X230000Y10000D02*
X230000Y-20000D01*
X217000Y10000D02*
X217000Y48000D01*
X217000Y10000D02*
X230000Y10000D01*
X263000Y10000D02*
X263000Y48000D01*
X263000Y10000D02*
X250000Y10000D01*
X248000Y48000D02*
X232000Y48000D01*
D177*
X270810Y88518D02*
X269603Y89725D01*
X267188Y89725D01*
X265981Y88518D01*
X265981Y87310D01*
X267188Y86103D01*
X269603Y86103D01*
X270810Y84896D01*
X270810Y83688D01*
X269603Y82481D01*
X267188Y82481D01*
X265981Y83688D01*
X273347Y87310D02*
X275762Y89725D01*
X275762Y82481D01*
X273347Y82481D02*
X278177Y82481D01*
D180*
X40000Y-20000D02*
X20000Y-20000D01*
X40000Y-20000D02*
X40000Y10000D01*
X20000Y10000D02*
X20000Y-20000D01*
X7000Y10000D02*
X7000Y48000D01*
X7000Y10000D02*
X20000Y10000D01*
X53000Y10000D02*
X53000Y48000D01*
X53000Y10000D02*
X40000Y10000D01*
X38000Y48000D02*
X22000Y48000D01*
D177*
X7610Y66718D02*
X6403Y67925D01*
X3988Y67925D01*
X2781Y66718D01*
X2781Y65510D01*
X3988Y64303D01*
X6403Y64303D01*
X7610Y63096D01*
X7610Y61888D01*
X6403Y60681D01*
X3988Y60681D01*
X2781Y61888D01*
X12562Y66718D02*
X14977Y67925D01*
X12562Y66718D02*
X10147Y64303D01*
X10147Y61888D01*
X11355Y60681D01*
X13769Y60681D01*
X14977Y61888D01*
X14977Y63096D01*
X13769Y64303D01*
X10147Y64303D01*
D180*
X70000Y-20000D02*
X90000Y-20000D01*
X90000Y10000D01*
X70000Y10000D02*
X70000Y-20000D01*
X57000Y10000D02*
X57000Y48000D01*
X57000Y10000D02*
X70000Y10000D01*
X103000Y10000D02*
X103000Y48000D01*
X103000Y10000D02*
X90000Y10000D01*
X88000Y48000D02*
X72000Y48000D01*
D177*
X112703Y43425D02*
X113910Y42218D01*
X112703Y43425D02*
X110288Y43425D01*
X109081Y42218D01*
X109081Y41010D01*
X110288Y39803D01*
X112703Y39803D01*
X113910Y38596D01*
X113910Y37388D01*
X112703Y36181D01*
X110288Y36181D01*
X109081Y37388D01*
X116447Y43425D02*
X121277Y43425D01*
X121277Y42218D01*
X116447Y37388D01*
X116447Y36181D01*
D180*
X180000Y-20000D02*
X200000Y-20000D01*
X200000Y10000D01*
X180000Y10000D02*
X180000Y-20000D01*
X167000Y10000D02*
X167000Y48000D01*
X167000Y10000D02*
X180000Y10000D01*
X213000Y10000D02*
X213000Y48000D01*
X213000Y10000D02*
X200000Y10000D01*
X198000Y48000D02*
X182000Y48000D01*
D177*
X154210Y54418D02*
X153003Y55625D01*
X150588Y55625D01*
X149381Y54418D01*
X149381Y53210D01*
X150588Y52003D01*
X153003Y52003D01*
X154210Y50796D01*
X154210Y49588D01*
X153003Y48381D01*
X150588Y48381D01*
X149381Y49588D01*
X156747Y54418D02*
X157955Y55625D01*
X160369Y55625D01*
X161577Y54418D01*
X161577Y53210D01*
X160369Y52003D01*
X161577Y50796D01*
X161577Y49588D01*
X160369Y48381D01*
X157955Y48381D01*
X156747Y49588D01*
X156747Y50796D01*
X157955Y52003D01*
X156747Y53210D01*
X156747Y54418D01*
X157955Y52003D02*
X160369Y52003D01*
D178*
X231904Y53704D02*
X231904Y60202D01*
X235153Y60202D01*
X236236Y59119D01*
X236236Y56953D01*
X235153Y55870D01*
X231904Y55870D01*
X234070Y55870D02*
X236236Y53704D01*
X238350Y53704D02*
X242681Y53704D01*
X238350Y53704D02*
X242681Y58036D01*
X242681Y59119D01*
X241598Y60202D01*
X239432Y60202D01*
X238350Y59119D01*
X244795Y59119D02*
X245878Y60202D01*
X248044Y60202D01*
X249127Y59119D01*
X249127Y58036D01*
X248044Y56953D01*
X249127Y55870D01*
X249127Y54787D01*
X248044Y53704D01*
X245878Y53704D01*
X244795Y54787D01*
X244795Y55870D01*
X245878Y56953D01*
X244795Y58036D01*
X244795Y59119D01*
X245878Y56953D02*
X248044Y56953D01*
X1904Y79604D02*
X1904Y86102D01*
X5153Y86102D01*
X6236Y85019D01*
X6236Y82853D01*
X5153Y81770D01*
X1904Y81770D01*
X4070Y81770D02*
X6236Y79604D01*
X8350Y79604D02*
X12681Y79604D01*
X8350Y79604D02*
X12681Y83936D01*
X12681Y85019D01*
X11598Y86102D01*
X9432Y86102D01*
X8350Y85019D01*
X14795Y80687D02*
X15878Y79604D01*
X18044Y79604D01*
X19127Y80687D01*
X19127Y85019D01*
X18044Y86102D01*
X15878Y86102D01*
X14795Y85019D01*
X14795Y83936D01*
X15878Y82853D01*
X19127Y82853D01*
X181704Y61002D02*
X181704Y54504D01*
X181704Y61002D02*
X184953Y61002D01*
X186036Y59919D01*
X186036Y57753D01*
X184953Y56670D01*
X181704Y56670D01*
X183870Y56670D02*
X186036Y54504D01*
X188150Y59919D02*
X189232Y61002D01*
X191398Y61002D01*
X192481Y59919D01*
X192481Y58836D01*
X191398Y57753D01*
X190315Y57753D01*
X191398Y57753D02*
X192481Y56670D01*
X192481Y55587D01*
X191398Y54504D01*
X189232Y54504D01*
X188150Y55587D01*
X194595Y55587D02*
X194595Y59919D01*
X195678Y61002D01*
X197844Y61002D01*
X198927Y59919D01*
X198927Y55587D01*
X197844Y54504D01*
X195678Y54504D01*
X194595Y55587D01*
X198927Y59919D01*
X72696Y80004D02*
X66198Y80004D01*
X66198Y83253D01*
X67281Y84336D01*
X69447Y84336D01*
X70530Y83253D01*
X70530Y80004D01*
X70530Y82170D02*
X72696Y84336D01*
X67281Y86450D02*
X66198Y87532D01*
X66198Y89698D01*
X67281Y90781D01*
X68364Y90781D01*
X69447Y89698D01*
X69447Y88615D01*
X69447Y89698D02*
X70530Y90781D01*
X71613Y90781D01*
X72696Y89698D01*
X72696Y87532D01*
X71613Y86450D01*
X68364Y92895D02*
X66198Y95061D01*
X72696Y95061D01*
X72696Y92895D02*
X72696Y97227D01*
D186*
X443500Y106020D02*
X443500Y116020D01*
D177*
X425319Y117861D02*
X418075Y117861D01*
X425319Y117861D02*
X425319Y121483D01*
X424112Y122690D01*
X419282Y122690D01*
X418075Y121483D01*
X418075Y117861D01*
X418075Y125227D02*
X418075Y130057D01*
X418075Y125227D02*
X421697Y125227D01*
X420490Y127642D01*
X420490Y128849D01*
X421697Y130057D01*
X424112Y130057D01*
X425319Y128849D01*
X425319Y126435D01*
X424112Y125227D01*
X144310Y123718D02*
X143103Y124925D01*
X140688Y124925D01*
X139481Y123718D01*
X139481Y118888D01*
X140688Y117681D01*
X143103Y117681D01*
X144310Y118888D01*
X146847Y118888D02*
X148055Y117681D01*
X150469Y117681D01*
X151677Y118888D01*
X151677Y123718D01*
X150469Y124925D01*
X148055Y124925D01*
X146847Y123718D01*
X146847Y122510D01*
X148055Y121303D01*
X151677Y121303D01*
X135812Y462718D02*
X134604Y463925D01*
X132189Y463925D01*
X130982Y462718D01*
X130982Y457888D01*
X132189Y456681D01*
X134604Y456681D01*
X135812Y457888D01*
X138348Y461510D02*
X140763Y463925D01*
X140763Y456681D01*
X138348Y456681D02*
X143178Y456681D01*
X145715Y456681D02*
X150544Y456681D01*
X145715Y456681D02*
X150544Y461510D01*
X150544Y462718D01*
X149337Y463925D01*
X146922Y463925D01*
X145715Y462718D01*
X190303Y494325D02*
X191510Y493118D01*
X190303Y494325D02*
X187888Y494325D01*
X186681Y493118D01*
X186681Y488288D01*
X187888Y487081D01*
X190303Y487081D01*
X191510Y488288D01*
X194047Y491910D02*
X196462Y494325D01*
X196462Y487081D01*
X194047Y487081D02*
X198877Y487081D01*
X201414Y493118D02*
X202621Y494325D01*
X205036Y494325D01*
X206243Y493118D01*
X206243Y491910D01*
X205036Y490703D01*
X203828Y490703D01*
X205036Y490703D02*
X206243Y489496D01*
X206243Y488288D01*
X205036Y487081D01*
X202621Y487081D01*
X201414Y488288D01*
X512303Y130325D02*
X513510Y129118D01*
X512303Y130325D02*
X509888Y130325D01*
X508681Y129118D01*
X508681Y124288D01*
X509888Y123081D01*
X512303Y123081D01*
X513510Y124288D01*
X516047Y129118D02*
X517255Y130325D01*
X519669Y130325D01*
X520877Y129118D01*
X520877Y127910D01*
X519669Y126703D01*
X518462Y126703D01*
X519669Y126703D02*
X520877Y125496D01*
X520877Y124288D01*
X519669Y123081D01*
X517255Y123081D01*
X516047Y124288D01*
X600510Y351918D02*
X599303Y353125D01*
X596888Y353125D01*
X595681Y351918D01*
X595681Y347088D01*
X596888Y345881D01*
X599303Y345881D01*
X600510Y347088D01*
X606669Y345881D02*
X606669Y353125D01*
X603047Y349503D01*
X607877Y349503D01*
D178*
X37781Y84336D02*
X36698Y83253D01*
X36698Y81087D01*
X37781Y80004D01*
X42113Y80004D01*
X43196Y81087D01*
X43196Y83253D01*
X42113Y84336D01*
X38864Y86450D02*
X36698Y88615D01*
X43196Y88615D01*
X43196Y86450D02*
X43196Y90781D01*
X42113Y92895D02*
X43196Y93978D01*
X43196Y96144D01*
X42113Y97227D01*
X37781Y97227D01*
X36698Y96144D01*
X36698Y93978D01*
X37781Y92895D01*
X38864Y92895D01*
X39947Y93978D01*
X39947Y97227D01*
D177*
X94625Y66553D02*
X95832Y67760D01*
X94625Y66553D02*
X94625Y64138D01*
X95832Y62931D01*
X100662Y62931D01*
X101869Y64138D01*
X101869Y66553D01*
X100662Y67760D01*
X101869Y70297D02*
X101869Y75127D01*
X97040Y75127D02*
X101869Y70297D01*
X97040Y75127D02*
X95832Y75127D01*
X94625Y73919D01*
X94625Y71505D01*
X95832Y70297D01*
X95832Y77664D02*
X100662Y77664D01*
X95832Y77664D02*
X94625Y78871D01*
X94625Y81286D01*
X95832Y82493D01*
X100662Y82493D01*
X101869Y81286D01*
X101869Y78871D01*
X100662Y77664D01*
X95832Y82493D01*
X393254Y364275D02*
X394462Y363068D01*
X393254Y364275D02*
X390839Y364275D01*
X389632Y363068D01*
X389632Y358238D01*
X390839Y357031D01*
X393254Y357031D01*
X394462Y358238D01*
X396998Y357031D02*
X401828Y357031D01*
X401828Y361860D02*
X396998Y357031D01*
X401828Y361860D02*
X401828Y363068D01*
X400621Y364275D01*
X398206Y364275D01*
X396998Y363068D01*
X404365Y361860D02*
X406779Y364275D01*
X406779Y357031D01*
X404365Y357031D02*
X409194Y357031D01*
X594032Y422931D02*
X594032Y430175D01*
X597654Y430175D01*
X598862Y428968D01*
X598862Y426553D01*
X597654Y425346D01*
X594032Y425346D01*
X596447Y425346D02*
X598862Y422931D01*
X601398Y428968D02*
X602606Y430175D01*
X605021Y430175D01*
X606228Y428968D01*
X606228Y427760D01*
X605021Y426553D01*
X603813Y426553D01*
X605021Y426553D02*
X606228Y425346D01*
X606228Y424138D01*
X605021Y422931D01*
X602606Y422931D01*
X601398Y424138D01*
X608765Y422931D02*
X613594Y422931D01*
X608765Y422931D02*
X613594Y427760D01*
X613594Y428968D01*
X612387Y430175D01*
X609972Y430175D01*
X608765Y428968D01*
D178*
X452304Y437104D02*
X452304Y443602D01*
X455553Y443602D01*
X456636Y442519D01*
X456636Y440353D01*
X455553Y439270D01*
X452304Y439270D01*
X454470Y439270D02*
X456636Y437104D01*
X458750Y441436D02*
X460915Y443602D01*
X460915Y437104D01*
X458750Y437104D02*
X463081Y437104D01*
X467361Y442519D02*
X469527Y443602D01*
X467361Y442519D02*
X465195Y440353D01*
X465195Y438187D01*
X466278Y437104D01*
X468444Y437104D01*
X469527Y438187D01*
X469527Y439270D01*
X468444Y440353D01*
X465195Y440353D01*
D177*
X530031Y127975D02*
X530031Y120731D01*
X530031Y127975D02*
X533653Y127975D01*
X534860Y126768D01*
X534860Y124353D01*
X533653Y123146D01*
X530031Y123146D01*
X532446Y123146D02*
X534860Y120731D01*
X537397Y126768D02*
X538605Y127975D01*
X541019Y127975D01*
X542227Y126768D01*
X542227Y125560D01*
X541019Y124353D01*
X539812Y124353D01*
X541019Y124353D02*
X542227Y123146D01*
X542227Y121938D01*
X541019Y120731D01*
X538605Y120731D01*
X537397Y121938D01*
X544764Y126768D02*
X545971Y127975D01*
X548386Y127975D01*
X549593Y126768D01*
X549593Y125560D01*
X548386Y124353D01*
X547178Y124353D01*
X548386Y124353D02*
X549593Y123146D01*
X549593Y121938D01*
X548386Y120731D01*
X545971Y120731D01*
X544764Y121938D01*
X342031Y359731D02*
X342031Y366975D01*
X345653Y366975D01*
X346860Y365768D01*
X346860Y363353D01*
X345653Y362146D01*
X342031Y362146D01*
X344446Y362146D02*
X346860Y359731D01*
X349397Y365768D02*
X350605Y366975D01*
X353019Y366975D01*
X354227Y365768D01*
X354227Y364560D01*
X353019Y363353D01*
X351812Y363353D01*
X353019Y363353D02*
X354227Y362146D01*
X354227Y360938D01*
X353019Y359731D01*
X350605Y359731D01*
X349397Y360938D01*
X360386Y359731D02*
X360386Y366975D01*
X356764Y363353D01*
X361593Y363353D01*
X582425Y417531D02*
X589669Y417531D01*
X582425Y417531D02*
X582425Y421153D01*
X583632Y422360D01*
X586047Y422360D01*
X587254Y421153D01*
X587254Y417531D01*
X587254Y419946D02*
X589669Y422360D01*
X584840Y424897D02*
X582425Y427312D01*
X589669Y427312D01*
X589669Y424897D02*
X589669Y429727D01*
X589669Y432264D02*
X589669Y437093D01*
X589669Y432264D02*
X584840Y437093D01*
X583632Y437093D01*
X582425Y435886D01*
X582425Y433471D01*
X583632Y432264D01*
X591031Y323975D02*
X591031Y316731D01*
X591031Y323975D02*
X594653Y323975D01*
X595860Y322768D01*
X595860Y320353D01*
X594653Y319146D01*
X591031Y319146D01*
X593446Y319146D02*
X595860Y316731D01*
X598397Y322768D02*
X599605Y323975D01*
X602019Y323975D01*
X603227Y322768D01*
X603227Y321560D01*
X602019Y320353D01*
X600812Y320353D01*
X602019Y320353D02*
X603227Y319146D01*
X603227Y317938D01*
X602019Y316731D01*
X599605Y316731D01*
X598397Y317938D01*
X605764Y323975D02*
X610593Y323975D01*
X605764Y323975D02*
X605764Y320353D01*
X608178Y321560D01*
X609386Y321560D01*
X610593Y320353D01*
X610593Y317938D01*
X609386Y316731D01*
X606971Y316731D01*
X605764Y317938D01*
X593031Y387731D02*
X593031Y394975D01*
X596653Y394975D01*
X597860Y393768D01*
X597860Y391353D01*
X596653Y390146D01*
X593031Y390146D01*
X595446Y390146D02*
X597860Y387731D01*
X600397Y393768D02*
X601605Y394975D01*
X604019Y394975D01*
X605227Y393768D01*
X605227Y392560D01*
X604019Y391353D01*
X602812Y391353D01*
X604019Y391353D02*
X605227Y390146D01*
X605227Y388938D01*
X604019Y387731D01*
X601605Y387731D01*
X600397Y388938D01*
X610178Y393768D02*
X612593Y394975D01*
X610178Y393768D02*
X607764Y391353D01*
X607764Y388938D01*
X608971Y387731D01*
X611386Y387731D01*
X612593Y388938D01*
X612593Y390146D01*
X611386Y391353D01*
X607764Y391353D01*
D180*
X135000Y335000D02*
X135000Y450000D01*
X155000Y450000D01*
X225000Y450000D02*
X245000Y450000D01*
X245000Y335000D01*
D177*
X182648Y301625D02*
X182648Y295588D01*
X183856Y294381D01*
X186271Y294381D01*
X187478Y295588D01*
X187478Y301625D01*
X193637Y301625D02*
X193637Y294381D01*
X190015Y298003D02*
X193637Y301625D01*
X194844Y298003D02*
X190015Y298003D01*
X227812Y491718D02*
X226604Y492925D01*
X224189Y492925D01*
X222982Y491718D01*
X222982Y486888D01*
X224189Y485681D01*
X226604Y485681D01*
X227812Y486888D01*
X230348Y485681D02*
X235178Y485681D01*
X235178Y490510D02*
X230348Y485681D01*
X235178Y490510D02*
X235178Y491718D01*
X233971Y492925D01*
X231556Y492925D01*
X230348Y491718D01*
X237715Y485681D02*
X242544Y485681D01*
X237715Y485681D02*
X242544Y490510D01*
X242544Y491718D01*
X241337Y492925D01*
X238922Y492925D01*
X237715Y491718D01*
D180*
X308000Y434600D02*
X321000Y434600D01*
X308000Y434600D02*
X308000Y425600D01*
X308000Y404600D02*
X321000Y404600D01*
X308000Y404600D02*
X308000Y413600D01*
D177*
X328981Y439588D02*
X328981Y445625D01*
X328981Y439588D02*
X330188Y438381D01*
X332603Y438381D01*
X333810Y439588D01*
X333810Y445625D01*
X336347Y444418D02*
X337555Y445625D01*
X339969Y445625D01*
X341177Y444418D01*
X341177Y443210D01*
X339969Y442003D01*
X338762Y442003D01*
X339969Y442003D02*
X341177Y440796D01*
X341177Y439588D01*
X339969Y438381D01*
X337555Y438381D01*
X336347Y439588D01*
D187*
X523000Y439000D03*
D177*
X528588Y442625D02*
X531003Y442625D01*
X528588Y442625D02*
X527381Y441418D01*
X527381Y436588D01*
X528588Y435381D01*
X531003Y435381D01*
X532210Y436588D01*
X532210Y441418D01*
X531003Y442625D01*
X538369Y442625D02*
X539577Y441418D01*
X538369Y442625D02*
X535955Y442625D01*
X534747Y441418D01*
X534747Y440210D01*
X535955Y439003D01*
X538369Y439003D01*
X539577Y437796D01*
X539577Y436588D01*
X538369Y435381D01*
X535955Y435381D01*
X534747Y436588D01*
X545736Y442625D02*
X546943Y441418D01*
X545736Y442625D02*
X543321Y442625D01*
X542114Y441418D01*
X542114Y436588D01*
X543321Y435381D01*
X545736Y435381D01*
X546943Y436588D01*
X549480Y440210D02*
X551895Y442625D01*
X551895Y435381D01*
X554309Y435381D02*
X549480Y435381D01*
D188*
X413700Y126500D03*
D177*
X315148Y187888D02*
X315148Y193925D01*
X315148Y187888D02*
X316356Y186681D01*
X318771Y186681D01*
X319978Y187888D01*
X319978Y193925D01*
X322515Y192718D02*
X323722Y193925D01*
X326137Y193925D01*
X327344Y192718D01*
X327344Y191510D01*
X326137Y190303D01*
X327344Y189096D01*
X327344Y187888D01*
X326137Y186681D01*
X323722Y186681D01*
X322515Y187888D01*
X322515Y189096D01*
X323722Y190303D01*
X322515Y191510D01*
X322515Y192718D01*
X323722Y190303D02*
X326137Y190303D01*
X544353Y314075D02*
X545560Y312868D01*
X544353Y314075D02*
X541938Y314075D01*
X540731Y312868D01*
X540731Y308038D01*
X541938Y306831D01*
X544353Y306831D01*
X545560Y308038D01*
X548097Y306831D02*
X552927Y306831D01*
X552927Y311660D02*
X548097Y306831D01*
X552927Y311660D02*
X552927Y312868D01*
X551719Y314075D01*
X549305Y314075D01*
X548097Y312868D01*
X555464Y312868D02*
X556671Y314075D01*
X559086Y314075D01*
X560293Y312868D01*
X560293Y311660D01*
X559086Y310453D01*
X557878Y310453D01*
X559086Y310453D02*
X560293Y309246D01*
X560293Y308038D01*
X559086Y306831D01*
X556671Y306831D01*
X555464Y308038D01*
D180*
X650100Y520300D02*
X442100Y520300D01*
X442100Y470300D01*
X650100Y470300D01*
X650100Y520300D01*
D177*
X653481Y497888D02*
X654688Y496681D01*
X655896Y496681D01*
X657103Y497888D01*
X657103Y503925D01*
X655896Y503925D02*
X658310Y503925D01*
X660847Y497888D02*
X662055Y496681D01*
X664469Y496681D01*
X665677Y497888D01*
X665677Y502718D01*
X664469Y503925D01*
X662055Y503925D01*
X660847Y502718D01*
X660847Y501510D01*
X662055Y500303D01*
X665677Y500303D01*
D180*
X472300Y63100D02*
X264300Y63100D01*
X264300Y13100D01*
X472300Y13100D01*
X472300Y63100D01*
D177*
X359188Y64781D02*
X357981Y65988D01*
X359188Y64781D02*
X360396Y64781D01*
X361603Y65988D01*
X361603Y72025D01*
X360396Y72025D02*
X362810Y72025D01*
X365347Y69610D02*
X367762Y72025D01*
X367762Y64781D01*
X365347Y64781D02*
X370177Y64781D01*
X375128Y70818D02*
X377543Y72025D01*
X375128Y70818D02*
X372714Y68403D01*
X372714Y65988D01*
X373921Y64781D01*
X376336Y64781D01*
X377543Y65988D01*
X377543Y67196D01*
X376336Y68403D01*
X372714Y68403D01*
D180*
X431660Y520300D02*
X172860Y520300D01*
X172860Y495700D01*
X431660Y495700D01*
X431660Y520300D01*
D177*
X419241Y486288D02*
X420448Y485081D01*
X421656Y485081D01*
X422863Y486288D01*
X422863Y492325D01*
X421656Y492325D02*
X424070Y492325D01*
X426607Y492325D02*
X431437Y492325D01*
X426607Y492325D02*
X426607Y488703D01*
X429022Y489910D01*
X430229Y489910D01*
X431437Y488703D01*
X431437Y486288D01*
X430229Y485081D01*
X427815Y485081D01*
X426607Y486288D01*
D180*
X442100Y469500D02*
X650100Y469500D01*
X442100Y469500D02*
X442100Y444900D01*
X650100Y444900D01*
X650100Y469500D01*
D177*
X652481Y454488D02*
X653688Y453281D01*
X654896Y453281D01*
X656103Y454488D01*
X656103Y460525D01*
X654896Y460525D02*
X657310Y460525D01*
X659847Y458110D02*
X662262Y460525D01*
X662262Y453281D01*
X659847Y453281D02*
X664677Y453281D01*
X667214Y454488D02*
X667214Y459318D01*
X668421Y460525D01*
X670836Y460525D01*
X672043Y459318D01*
X672043Y454488D01*
X670836Y453281D01*
X668421Y453281D01*
X667214Y454488D01*
X672043Y459318D01*
D180*
X650100Y37700D02*
X492900Y37700D01*
X492900Y13100D01*
X650100Y13100D01*
X650100Y37700D01*
D177*
X658981Y21888D02*
X660188Y20681D01*
X661396Y20681D01*
X662603Y21888D01*
X662603Y27925D01*
X661396Y27925D02*
X663810Y27925D01*
X666347Y25510D02*
X668762Y27925D01*
X668762Y20681D01*
X666347Y20681D02*
X671177Y20681D01*
X673714Y25510D02*
X676128Y27925D01*
X676128Y20681D01*
X673714Y20681D02*
X678543Y20681D01*
D176*
X266700Y215900D02*
X266700Y317500D01*
X292100Y317500D01*
X292100Y215900D01*
X266700Y215900D01*
D178*
X246100Y286154D02*
X245018Y287237D01*
X246100Y286154D02*
X247183Y286154D01*
X248266Y287237D01*
X248266Y292652D01*
X247183Y292652D02*
X249349Y292652D01*
X251463Y290486D02*
X253629Y292652D01*
X253629Y286154D01*
X251463Y286154D02*
X255795Y286154D01*
X257909Y291569D02*
X258991Y292652D01*
X261157Y292652D01*
X262240Y291569D01*
X262240Y290486D01*
X261157Y289403D01*
X260074Y289403D01*
X261157Y289403D02*
X262240Y288320D01*
X262240Y287237D01*
X261157Y286154D01*
X258991Y286154D01*
X257909Y287237D01*
D176*
X342900Y317500D02*
X342900Y215900D01*
X317500Y215900D01*
X317500Y317500D01*
X342900Y317500D01*
D178*
X298437Y296154D02*
X297354Y297237D01*
X298437Y296154D02*
X299520Y296154D01*
X300603Y297237D01*
X300603Y302652D01*
X299520Y302652D02*
X301686Y302652D01*
X303800Y300486D02*
X305965Y302652D01*
X305965Y296154D01*
X303800Y296154D02*
X308131Y296154D01*
X313494Y296154D02*
X313494Y302652D01*
X310245Y299403D01*
X314577Y299403D01*
D176*
X241300Y279400D02*
X139700Y279400D01*
X241300Y279400D02*
X241300Y254000D01*
X139700Y254000D01*
X139700Y279400D01*
D178*
X181554Y282737D02*
X182637Y281654D01*
X183720Y281654D01*
X184803Y282737D01*
X184803Y288152D01*
X183720Y288152D02*
X185886Y288152D01*
X188000Y285986D02*
X190165Y288152D01*
X190165Y281654D01*
X188000Y281654D02*
X192331Y281654D01*
X194445Y288152D02*
X198777Y288152D01*
X194445Y288152D02*
X194445Y284903D01*
X196611Y285986D01*
X197694Y285986D01*
X198777Y284903D01*
X198777Y282737D01*
X197694Y281654D01*
X195528Y281654D01*
X194445Y282737D01*
D176*
X304800Y482600D02*
X406400Y482600D01*
X406400Y457200D01*
X304800Y457200D01*
X304800Y482600D01*
D178*
X412654Y467937D02*
X413737Y466854D01*
X414820Y466854D01*
X415903Y467937D01*
X415903Y473352D01*
X414820Y473352D02*
X416986Y473352D01*
X419100Y471186D02*
X421265Y473352D01*
X421265Y466854D01*
X419100Y466854D02*
X423431Y466854D01*
X425545Y473352D02*
X429877Y473352D01*
X429877Y472269D01*
X425545Y467937D01*
X425545Y466854D01*
D180*
X267100Y472300D02*
X267100Y315100D01*
X291700Y315100D01*
X291700Y472300D01*
X267100Y472300D01*
D178*
X247818Y403037D02*
X248900Y401954D01*
X249983Y401954D01*
X251066Y403037D01*
X251066Y408452D01*
X249983Y408452D02*
X252149Y408452D01*
X254263Y406286D02*
X256429Y408452D01*
X256429Y401954D01*
X254263Y401954D02*
X258595Y401954D01*
X260709Y407369D02*
X261791Y408452D01*
X263957Y408452D01*
X265040Y407369D01*
X265040Y406286D01*
X263957Y405203D01*
X265040Y404120D01*
X265040Y403037D01*
X263957Y401954D01*
X261791Y401954D01*
X260709Y403037D01*
X260709Y404120D01*
X261791Y405203D01*
X260709Y406286D01*
X260709Y407369D01*
X261791Y405203D02*
X263957Y405203D01*
X61696Y63513D02*
X55198Y63513D01*
X55198Y66762D01*
X56281Y67845D01*
X58447Y67845D01*
X59530Y66762D01*
X59530Y63513D01*
X59530Y65679D02*
X61696Y67845D01*
X56281Y69959D02*
X55198Y71041D01*
X55198Y73207D01*
X56281Y74290D01*
X57364Y74290D01*
X58447Y73207D01*
X59530Y74290D01*
X60613Y74290D01*
X61696Y73207D01*
X61696Y71041D01*
X60613Y69959D01*
X59530Y69959D01*
X58447Y71041D01*
X57364Y69959D01*
X56281Y69959D01*
X58447Y71041D02*
X58447Y73207D01*
X114798Y60668D02*
X121296Y60668D01*
X114798Y60668D02*
X114798Y63916D01*
X115881Y64999D01*
X118047Y64999D01*
X119130Y63916D01*
X119130Y60668D01*
X119130Y62833D02*
X121296Y64999D01*
X121296Y67113D02*
X121296Y71445D01*
X121296Y67113D02*
X116964Y71445D01*
X115881Y71445D01*
X114798Y70362D01*
X114798Y68196D01*
X115881Y67113D01*
X121296Y73559D02*
X121296Y77890D01*
X121296Y73559D02*
X116964Y77890D01*
X115881Y77890D01*
X114798Y76807D01*
X114798Y74641D01*
X115881Y73559D01*
X361768Y202704D02*
X361768Y209202D01*
X365016Y209202D01*
X366099Y208119D01*
X366099Y205953D01*
X365016Y204870D01*
X361768Y204870D01*
X363933Y204870D02*
X366099Y202704D01*
X368213Y208119D02*
X369296Y209202D01*
X371462Y209202D01*
X372545Y208119D01*
X372545Y207036D01*
X371462Y205953D01*
X370379Y205953D01*
X371462Y205953D02*
X372545Y204870D01*
X372545Y203787D01*
X371462Y202704D01*
X369296Y202704D01*
X368213Y203787D01*
X374659Y209202D02*
X378990Y209202D01*
X378990Y208119D01*
X374659Y203787D01*
X374659Y202704D01*
X483898Y46204D02*
X490396Y46204D01*
X483898Y46204D02*
X483898Y49453D01*
X484981Y50536D01*
X487147Y50536D01*
X488230Y49453D01*
X488230Y46204D01*
X488230Y48370D02*
X490396Y50536D01*
X484981Y52650D02*
X483898Y53732D01*
X483898Y55898D01*
X484981Y56981D01*
X486064Y56981D01*
X487147Y55898D01*
X487147Y54815D01*
X487147Y55898D02*
X488230Y56981D01*
X489313Y56981D01*
X490396Y55898D01*
X490396Y53732D01*
X489313Y52650D01*
X484981Y59095D02*
X483898Y60178D01*
X483898Y62344D01*
X484981Y63427D01*
X486064Y63427D01*
X487147Y62344D01*
X488230Y63427D01*
X489313Y63427D01*
X490396Y62344D01*
X490396Y60178D01*
X489313Y59095D01*
X488230Y59095D01*
X487147Y60178D01*
X486064Y59095D01*
X484981Y59095D01*
X487147Y60178D02*
X487147Y62344D01*
X480481Y17845D02*
X479398Y16762D01*
X479398Y14596D01*
X480481Y13513D01*
X484813Y13513D01*
X485896Y14596D01*
X485896Y16762D01*
X484813Y17845D01*
X481564Y19959D02*
X479398Y22124D01*
X485896Y22124D01*
X485896Y19959D02*
X485896Y24290D01*
X423636Y432519D02*
X422553Y433602D01*
X420387Y433602D01*
X419304Y432519D01*
X419304Y428187D01*
X420387Y427104D01*
X422553Y427104D01*
X423636Y428187D01*
X425750Y427104D02*
X430081Y427104D01*
X425750Y427104D02*
X430081Y431436D01*
X430081Y432519D01*
X428998Y433602D01*
X426832Y433602D01*
X425750Y432519D01*
X414104Y443404D02*
X414104Y449902D01*
X417353Y449902D01*
X418436Y448819D01*
X418436Y446653D01*
X417353Y445570D01*
X414104Y445570D01*
X416270Y445570D02*
X418436Y443404D01*
X420550Y448819D02*
X421632Y449902D01*
X423798Y449902D01*
X424881Y448819D01*
X424881Y447736D01*
X423798Y446653D01*
X422715Y446653D01*
X423798Y446653D02*
X424881Y445570D01*
X424881Y444487D01*
X423798Y443404D01*
X421632Y443404D01*
X420550Y444487D01*
X426995Y444487D02*
X428078Y443404D01*
X430244Y443404D01*
X431327Y444487D01*
X431327Y448819D01*
X430244Y449902D01*
X428078Y449902D01*
X426995Y448819D01*
X426995Y447736D01*
X428078Y446653D01*
X431327Y446653D01*
D176*
X469900Y76200D02*
X368300Y76200D01*
X368300Y101600D01*
X469900Y101600D01*
X469900Y76200D01*
D178*
X409546Y66854D02*
X408463Y67937D01*
X409546Y66854D02*
X410629Y66854D01*
X411712Y67937D01*
X411712Y73352D01*
X410629Y73352D02*
X412795Y73352D01*
X414909Y72269D02*
X415991Y73352D01*
X418157Y73352D01*
X419240Y72269D01*
X419240Y71186D01*
X418157Y70103D01*
X417074Y70103D01*
X418157Y70103D02*
X419240Y69020D01*
X419240Y67937D01*
X418157Y66854D01*
X415991Y66854D01*
X414909Y67937D01*
X445960Y148854D02*
X445960Y155352D01*
X443794Y155352D02*
X448126Y155352D01*
X450240Y154269D02*
X451322Y155352D01*
X453488Y155352D01*
X454571Y154269D01*
X454571Y153186D01*
X453488Y152103D01*
X452405Y152103D01*
X453488Y152103D02*
X454571Y151020D01*
X454571Y149937D01*
X453488Y148854D01*
X451322Y148854D01*
X450240Y149937D01*
X421960Y143152D02*
X421960Y136654D01*
X419794Y143152D02*
X424126Y143152D01*
X426240Y136654D02*
X430571Y136654D01*
X426240Y136654D02*
X430571Y140986D01*
X430571Y142069D01*
X429488Y143152D01*
X427322Y143152D01*
X426240Y142069D01*
X122320Y366254D02*
X122320Y372752D01*
X120154Y372752D02*
X124486Y372752D01*
X126600Y370586D02*
X128765Y372752D01*
X128765Y366254D01*
X126600Y366254D02*
X130931Y366254D01*
X343220Y80852D02*
X343220Y74354D01*
X341054Y80852D02*
X345386Y80852D01*
X350748Y80852D02*
X350748Y74354D01*
X347500Y77603D02*
X350748Y80852D01*
X351831Y77603D02*
X347500Y77603D01*
X119020Y321154D02*
X119020Y327652D01*
X116854Y327652D02*
X121186Y327652D01*
X123300Y327652D02*
X127631Y327652D01*
X123300Y327652D02*
X123300Y324403D01*
X125465Y325486D01*
X126548Y325486D01*
X127631Y324403D01*
X127631Y322237D01*
X126548Y321154D01*
X124382Y321154D01*
X123300Y322237D01*
X73120Y221852D02*
X73120Y215354D01*
X70954Y221852D02*
X75286Y221852D01*
X77400Y219686D02*
X79565Y221852D01*
X79565Y215354D01*
X77400Y215354D02*
X81731Y215354D01*
X83845Y216437D02*
X83845Y220769D01*
X84928Y221852D01*
X87094Y221852D01*
X88177Y220769D01*
X88177Y216437D01*
X87094Y215354D01*
X84928Y215354D01*
X83845Y216437D01*
X88177Y220769D01*
X646820Y428554D02*
X646820Y435052D01*
X644654Y435052D02*
X648986Y435052D01*
X651100Y432886D02*
X653265Y435052D01*
X653265Y428554D01*
X651100Y428554D02*
X655431Y428554D01*
X657545Y433969D02*
X658628Y435052D01*
X660794Y435052D01*
X661877Y433969D01*
X661877Y432886D01*
X660794Y431803D01*
X659711Y431803D01*
X660794Y431803D02*
X661877Y430720D01*
X661877Y429637D01*
X660794Y428554D01*
X658628Y428554D01*
X657545Y429637D01*
X57020Y231052D02*
X57020Y224554D01*
X54854Y231052D02*
X59186Y231052D01*
X61300Y229969D02*
X62382Y231052D01*
X64548Y231052D01*
X65631Y229969D01*
X65631Y228886D01*
X64548Y227803D01*
X65631Y226720D01*
X65631Y225637D01*
X64548Y224554D01*
X62382Y224554D01*
X61300Y225637D01*
X61300Y226720D01*
X62382Y227803D01*
X61300Y228886D01*
X61300Y229969D01*
X62382Y227803D02*
X64548Y227803D01*
X82220Y108752D02*
X82220Y102254D01*
X80054Y108752D02*
X84386Y108752D01*
X86500Y103337D02*
X87582Y102254D01*
X89748Y102254D01*
X90831Y103337D01*
X90831Y107669D01*
X89748Y108752D01*
X87582Y108752D01*
X86500Y107669D01*
X86500Y106586D01*
X87582Y105503D01*
X90831Y105503D01*
X82920Y328754D02*
X82920Y335252D01*
X80754Y335252D02*
X85086Y335252D01*
X89365Y334169D02*
X91531Y335252D01*
X89365Y334169D02*
X87200Y332003D01*
X87200Y329837D01*
X88282Y328754D01*
X90448Y328754D01*
X91531Y329837D01*
X91531Y330920D01*
X90448Y332003D01*
X87200Y332003D01*
X123020Y287852D02*
X123020Y281354D01*
X120854Y287852D02*
X125186Y287852D01*
X127300Y287852D02*
X131631Y287852D01*
X131631Y286769D01*
X127300Y282437D01*
X127300Y281354D01*
X139820Y101352D02*
X139820Y94854D01*
X137654Y101352D02*
X141986Y101352D01*
X144100Y99186D02*
X146265Y101352D01*
X146265Y94854D01*
X144100Y94854D02*
X148431Y94854D01*
X150545Y99186D02*
X152711Y101352D01*
X152711Y94854D01*
X150545Y94854D02*
X154877Y94854D01*
X422920Y198154D02*
X422920Y204652D01*
X420754Y204652D02*
X425086Y204652D01*
X427200Y202486D02*
X429365Y204652D01*
X429365Y198154D01*
X427200Y198154D02*
X431531Y198154D01*
X433645Y198154D02*
X437977Y198154D01*
X433645Y198154D02*
X437977Y202486D01*
X437977Y203569D01*
X436894Y204652D01*
X434728Y204652D01*
X433645Y203569D01*
M02*
