G04 EAGLE Gerber RS-274X export*
G75*
%MOMM*%
%FSLAX34Y34*%
%LPD*%
%INSilkscreen Bottom*%
%IPPOS*%
%AMOC8*
5,1,8,0,0,1.08239X$1,22.5*%
G01*
%ADD10C,0.254000*%
%ADD11C,0.030478*%
%ADD12R,0.254000X0.889000*%
%ADD13C,0.101600*%
%ADD14C,0.050800*%


D10*
X654237Y134156D02*
X655899Y132494D01*
X655899Y129171D01*
X654237Y127510D01*
X647591Y127510D01*
X645930Y129171D01*
X645930Y132494D01*
X647591Y134156D01*
X645930Y140681D02*
X645930Y144004D01*
X647591Y145665D01*
X650914Y145665D01*
X652576Y144004D01*
X652576Y140681D01*
X650914Y139020D01*
X647591Y139020D01*
X645930Y140681D01*
X642607Y150530D02*
X652576Y150530D01*
X652576Y155514D01*
X650914Y157175D01*
X647591Y157175D01*
X645930Y155514D01*
X645930Y150530D01*
X647591Y162039D02*
X652576Y162039D01*
X647591Y162039D02*
X645930Y163701D01*
X645930Y168685D01*
X644269Y168685D02*
X652576Y168685D01*
X644269Y168685D02*
X642607Y167024D01*
X642607Y165362D01*
X645930Y173549D02*
X652576Y173549D01*
X649253Y173549D02*
X652576Y176872D01*
X652576Y178534D01*
X652576Y183141D02*
X652576Y184802D01*
X645930Y184802D01*
X645930Y183141D02*
X645930Y186464D01*
X655899Y184802D02*
X657560Y184802D01*
X642607Y194137D02*
X642607Y195798D01*
X644269Y197460D01*
X652576Y197460D01*
X652576Y192475D01*
X650914Y190814D01*
X647591Y190814D01*
X645930Y192475D01*
X645930Y197460D01*
X645930Y202324D02*
X655899Y202324D01*
X652576Y203985D02*
X650914Y202324D01*
X652576Y203985D02*
X652576Y207308D01*
X650914Y208969D01*
X645930Y208969D01*
X647591Y215495D02*
X654237Y215495D01*
X647591Y215495D02*
X645930Y217156D01*
X652576Y217156D02*
X652576Y213834D01*
X645930Y233017D02*
X645930Y239662D01*
X645930Y233017D02*
X652576Y239662D01*
X654237Y239662D01*
X655899Y238001D01*
X655899Y234678D01*
X654237Y233017D01*
X654237Y244526D02*
X647591Y244526D01*
X654237Y244526D02*
X655899Y246188D01*
X655899Y249511D01*
X654237Y251172D01*
X647591Y251172D01*
X645930Y249511D01*
X645930Y246188D01*
X647591Y244526D01*
X654237Y251172D01*
X645930Y256036D02*
X645930Y262682D01*
X645930Y256036D02*
X652576Y262682D01*
X654237Y262682D01*
X655899Y261021D01*
X655899Y257698D01*
X654237Y256036D01*
X655899Y272530D02*
X645930Y272530D01*
X650914Y267546D02*
X655899Y272530D01*
X650914Y274192D02*
X650914Y267546D01*
X637149Y127510D02*
X627180Y127510D01*
X632164Y127510D02*
X632164Y134156D01*
X627180Y134156D02*
X637149Y134156D01*
X637149Y139020D02*
X628841Y139020D01*
X627180Y140681D01*
X627180Y144004D01*
X628841Y145665D01*
X637149Y145665D01*
X637149Y150530D02*
X627180Y150530D01*
X637149Y150530D02*
X637149Y155514D01*
X635487Y157175D01*
X632164Y157175D01*
X630503Y155514D01*
X630503Y150530D01*
X630503Y153852D02*
X627180Y157175D01*
X627180Y162039D02*
X637149Y162039D01*
X627180Y162039D02*
X627180Y168685D01*
X637149Y173549D02*
X637149Y180195D01*
X637149Y173549D02*
X627180Y173549D01*
X627180Y180195D01*
X632164Y176872D02*
X632164Y173549D01*
X635487Y185059D02*
X637149Y185059D01*
X635487Y185059D02*
X632164Y188382D01*
X635487Y191705D01*
X637149Y191705D01*
X632164Y188382D02*
X627180Y188382D01*
X627180Y208079D02*
X637149Y208079D01*
X637149Y213063D01*
X635487Y214724D01*
X632164Y214724D01*
X630503Y213063D01*
X630503Y208079D01*
X630503Y211402D02*
X627180Y214724D01*
X637149Y219589D02*
X637149Y226234D01*
X637149Y219589D02*
X627180Y219589D01*
X627180Y226234D01*
X632164Y222911D02*
X632164Y219589D01*
X637149Y236083D02*
X635487Y237744D01*
X637149Y236083D02*
X637149Y232760D01*
X635487Y231098D01*
X633826Y231098D01*
X632164Y232760D01*
X632164Y236083D01*
X630503Y237744D01*
X628841Y237744D01*
X627180Y236083D01*
X627180Y232760D01*
X628841Y231098D01*
X637149Y242608D02*
X637149Y249254D01*
X637149Y242608D02*
X627180Y242608D01*
X627180Y249254D01*
X632164Y245931D02*
X632164Y242608D01*
X633826Y254118D02*
X627180Y254118D01*
X633826Y254118D02*
X637149Y257441D01*
X633826Y260764D01*
X627180Y260764D01*
X632164Y260764D02*
X632164Y254118D01*
X627180Y265628D02*
X637149Y265628D01*
X637149Y270612D01*
X635487Y272273D01*
X632164Y272273D01*
X630503Y270612D01*
X630503Y265628D01*
X630503Y268951D02*
X627180Y272273D01*
X637149Y282122D02*
X635487Y283783D01*
X637149Y282122D02*
X637149Y278799D01*
X635487Y277138D01*
X628841Y277138D01*
X627180Y278799D01*
X627180Y282122D01*
X628841Y283783D01*
X627180Y288647D02*
X637149Y288647D01*
X632164Y288647D02*
X632164Y295293D01*
X627180Y295293D02*
X637149Y295293D01*
X637149Y311667D02*
X627180Y311667D01*
X627180Y318313D01*
X627180Y323177D02*
X637149Y323177D01*
X627180Y323177D02*
X627180Y329822D01*
X637149Y339671D02*
X635487Y341332D01*
X637149Y339671D02*
X637149Y336348D01*
X635487Y334687D01*
X628841Y334687D01*
X627180Y336348D01*
X627180Y339671D01*
X628841Y341332D01*
X618399Y127510D02*
X608430Y127510D01*
X608430Y134156D02*
X618399Y127510D01*
X618399Y134156D02*
X608430Y134156D01*
X608430Y139020D02*
X618399Y139020D01*
X618399Y144004D01*
X616737Y145665D01*
X613414Y145665D01*
X611753Y144004D01*
X611753Y139020D01*
X611753Y142343D02*
X608430Y145665D01*
X608430Y150530D02*
X618399Y150530D01*
X618399Y157175D01*
X613414Y153852D02*
X613414Y150530D01*
X608430Y162039D02*
X608430Y165362D01*
X608430Y163701D02*
X618399Y163701D01*
X618399Y165362D02*
X618399Y162039D01*
X618399Y174697D02*
X616737Y176358D01*
X618399Y174697D02*
X618399Y171374D01*
X616737Y169713D01*
X610091Y169713D01*
X608430Y171374D01*
X608430Y174697D01*
X610091Y176358D01*
X618399Y181222D02*
X618399Y187868D01*
X618399Y181222D02*
X608430Y181222D01*
X608430Y187868D01*
X613414Y184545D02*
X613414Y181222D01*
X615076Y204242D02*
X618399Y207565D01*
X608430Y207565D01*
X608430Y204242D02*
X608430Y210888D01*
X608430Y215752D02*
X610091Y215752D01*
X610091Y217413D01*
X608430Y217413D01*
X608430Y215752D01*
X615076Y221507D02*
X618399Y224830D01*
X608430Y224830D01*
X608430Y228152D02*
X608430Y221507D01*
D11*
X606951Y86378D02*
X609673Y86038D01*
X609652Y85822D01*
X609637Y85606D01*
X609627Y85389D01*
X609622Y85171D01*
X609623Y84954D01*
X609629Y84737D01*
X609640Y84520D01*
X609657Y84303D01*
X609679Y84087D01*
X609706Y83872D01*
X609739Y83657D01*
X609776Y83443D01*
X609819Y83230D01*
X609867Y83018D01*
X609921Y82808D01*
X609979Y82599D01*
X610043Y82391D01*
X610111Y82185D01*
X610185Y81980D01*
X610264Y81778D01*
X610347Y81578D01*
X610436Y81379D01*
X610529Y81183D01*
X610627Y80989D01*
X610730Y80798D01*
X610837Y80609D01*
X610949Y80423D01*
X611066Y80240D01*
X611187Y80059D01*
X611312Y79882D01*
X611442Y79708D01*
X611576Y79537D01*
X611714Y79369D01*
X611856Y79205D01*
X612003Y79044D01*
X612153Y78887D01*
X612306Y78734D01*
X612464Y78584D01*
X612625Y78438D01*
X612790Y78297D01*
X612958Y78159D01*
X613129Y78026D01*
X613304Y77897D01*
X613482Y77772D01*
X613662Y77651D01*
X613846Y77535D01*
X614033Y77424D01*
X614222Y77317D01*
X614413Y77215D01*
X614607Y77117D01*
X614804Y77024D01*
X615003Y76937D01*
X615203Y76854D01*
X615406Y76776D01*
X615611Y76702D01*
X615817Y76634D01*
X616025Y76572D01*
X616234Y76514D01*
X616445Y76461D01*
X616657Y76414D01*
X616870Y76371D01*
X617084Y76334D01*
X617299Y76302D01*
X617514Y76276D01*
X617731Y76255D01*
X617947Y76239D01*
X618164Y76228D01*
X618381Y76223D01*
X618599Y76223D01*
X618816Y76228D01*
X619033Y76239D01*
X619249Y76255D01*
X619466Y76276D01*
X619681Y76302D01*
X619896Y76334D01*
X620110Y76371D01*
X620323Y76414D01*
X620535Y76461D01*
X620746Y76514D01*
X620955Y76572D01*
X621163Y76634D01*
X621369Y76702D01*
X621574Y76776D01*
X621777Y76854D01*
X621977Y76937D01*
X622176Y77024D01*
X622373Y77117D01*
X622567Y77215D01*
X622758Y77317D01*
X622947Y77424D01*
X623134Y77535D01*
X623318Y77651D01*
X623498Y77772D01*
X623676Y77897D01*
X623851Y78026D01*
X624022Y78159D01*
X624190Y78297D01*
X624355Y78438D01*
X624516Y78584D01*
X624674Y78734D01*
X624827Y78887D01*
X624977Y79044D01*
X625124Y79205D01*
X625266Y79369D01*
X625404Y79537D01*
X625538Y79708D01*
X625668Y79882D01*
X625793Y80059D01*
X625914Y80240D01*
X626031Y80423D01*
X626143Y80609D01*
X626250Y80798D01*
X626353Y80989D01*
X626451Y81183D01*
X626544Y81379D01*
X626633Y81578D01*
X626716Y81778D01*
X626795Y81980D01*
X626869Y82185D01*
X626937Y82391D01*
X627001Y82599D01*
X627059Y82808D01*
X627113Y83018D01*
X627161Y83230D01*
X627204Y83443D01*
X627241Y83657D01*
X627274Y83872D01*
X627301Y84087D01*
X627323Y84303D01*
X627340Y84520D01*
X627351Y84737D01*
X627357Y84954D01*
X627358Y85171D01*
X627353Y85389D01*
X627343Y85606D01*
X627328Y85822D01*
X627307Y86038D01*
X630029Y86378D01*
X630029Y86379D01*
X630057Y86097D01*
X630078Y85815D01*
X630093Y85532D01*
X630100Y85249D01*
X630100Y84966D01*
X630094Y84683D01*
X630081Y84400D01*
X630060Y84118D01*
X630033Y83836D01*
X629999Y83555D01*
X629958Y83275D01*
X629911Y82996D01*
X629856Y82719D01*
X629795Y82442D01*
X629727Y82168D01*
X629653Y81894D01*
X629571Y81623D01*
X629484Y81354D01*
X629389Y81087D01*
X629288Y80823D01*
X629181Y80561D01*
X629068Y80302D01*
X628948Y80045D01*
X628822Y79792D01*
X628690Y79542D01*
X628551Y79295D01*
X628407Y79051D01*
X628257Y78811D01*
X628101Y78575D01*
X627939Y78343D01*
X627772Y78114D01*
X627599Y77890D01*
X627421Y77670D01*
X627238Y77455D01*
X627049Y77244D01*
X626855Y77038D01*
X626656Y76836D01*
X626453Y76640D01*
X626244Y76448D01*
X626031Y76262D01*
X625814Y76080D01*
X625592Y75904D01*
X625366Y75734D01*
X625136Y75569D01*
X624902Y75410D01*
X624664Y75257D01*
X624423Y75109D01*
X624178Y74967D01*
X623929Y74832D01*
X623678Y74702D01*
X623423Y74579D01*
X623165Y74462D01*
X622905Y74351D01*
X622642Y74247D01*
X622376Y74149D01*
X622108Y74057D01*
X621838Y73972D01*
X621566Y73894D01*
X621292Y73822D01*
X621017Y73757D01*
X620740Y73699D01*
X620462Y73648D01*
X620182Y73603D01*
X619902Y73565D01*
X619620Y73534D01*
X619338Y73510D01*
X619056Y73493D01*
X618773Y73482D01*
X618490Y73479D01*
X618207Y73482D01*
X617924Y73493D01*
X617642Y73510D01*
X617360Y73534D01*
X617078Y73565D01*
X616798Y73603D01*
X616518Y73648D01*
X616240Y73699D01*
X615963Y73757D01*
X615688Y73822D01*
X615414Y73894D01*
X615142Y73972D01*
X614872Y74057D01*
X614604Y74149D01*
X614338Y74247D01*
X614075Y74351D01*
X613815Y74462D01*
X613557Y74579D01*
X613302Y74702D01*
X613051Y74832D01*
X612802Y74967D01*
X612557Y75109D01*
X612316Y75257D01*
X612078Y75410D01*
X611844Y75569D01*
X611614Y75734D01*
X611388Y75904D01*
X611166Y76080D01*
X610949Y76262D01*
X610736Y76448D01*
X610527Y76640D01*
X610324Y76836D01*
X610125Y77038D01*
X609931Y77244D01*
X609742Y77455D01*
X609559Y77670D01*
X609381Y77890D01*
X609208Y78114D01*
X609041Y78343D01*
X608879Y78575D01*
X608723Y78811D01*
X608573Y79051D01*
X608429Y79295D01*
X608290Y79542D01*
X608158Y79792D01*
X608032Y80045D01*
X607912Y80302D01*
X607799Y80561D01*
X607692Y80823D01*
X607591Y81087D01*
X607496Y81354D01*
X607409Y81623D01*
X607327Y81894D01*
X607253Y82168D01*
X607185Y82442D01*
X607124Y82719D01*
X607069Y82996D01*
X607022Y83275D01*
X606981Y83555D01*
X606947Y83836D01*
X606920Y84118D01*
X606899Y84400D01*
X606886Y84683D01*
X606880Y84966D01*
X606880Y85249D01*
X606887Y85532D01*
X606902Y85815D01*
X606923Y86097D01*
X606951Y86379D01*
X607238Y86343D01*
X607210Y86068D01*
X607190Y85793D01*
X607176Y85518D01*
X607169Y85242D01*
X607169Y84966D01*
X607175Y84690D01*
X607188Y84414D01*
X607208Y84139D01*
X607235Y83864D01*
X607268Y83590D01*
X607308Y83317D01*
X607354Y83045D01*
X607407Y82775D01*
X607467Y82505D01*
X607533Y82237D01*
X607606Y81971D01*
X607685Y81707D01*
X607771Y81445D01*
X607863Y81184D01*
X607961Y80927D01*
X608066Y80671D01*
X608177Y80419D01*
X608294Y80169D01*
X608416Y79922D01*
X608545Y79678D01*
X608680Y79437D01*
X608821Y79200D01*
X608967Y78966D01*
X609119Y78735D01*
X609277Y78509D01*
X609440Y78286D01*
X609609Y78068D01*
X609782Y77854D01*
X609961Y77643D01*
X610145Y77438D01*
X610334Y77237D01*
X610528Y77040D01*
X610727Y76849D01*
X610930Y76662D01*
X611138Y76480D01*
X611350Y76304D01*
X611566Y76132D01*
X611786Y75966D01*
X612010Y75805D01*
X612239Y75650D01*
X612471Y75501D01*
X612706Y75357D01*
X612945Y75219D01*
X613187Y75087D01*
X613432Y74960D01*
X613681Y74840D01*
X613932Y74726D01*
X614186Y74618D01*
X614442Y74516D01*
X614701Y74421D01*
X614962Y74332D01*
X615226Y74249D01*
X615491Y74172D01*
X615758Y74103D01*
X616026Y74039D01*
X616296Y73983D01*
X616568Y73932D01*
X616840Y73889D01*
X617114Y73852D01*
X617388Y73822D01*
X617663Y73798D01*
X617938Y73781D01*
X618214Y73771D01*
X618490Y73768D01*
X618766Y73771D01*
X619042Y73781D01*
X619317Y73798D01*
X619592Y73822D01*
X619866Y73852D01*
X620140Y73889D01*
X620412Y73932D01*
X620684Y73983D01*
X620954Y74039D01*
X621222Y74103D01*
X621489Y74172D01*
X621754Y74249D01*
X622018Y74332D01*
X622279Y74421D01*
X622538Y74516D01*
X622794Y74618D01*
X623048Y74726D01*
X623299Y74840D01*
X623548Y74960D01*
X623793Y75087D01*
X624035Y75219D01*
X624274Y75357D01*
X624509Y75501D01*
X624741Y75650D01*
X624970Y75805D01*
X625194Y75966D01*
X625414Y76132D01*
X625630Y76304D01*
X625842Y76480D01*
X626050Y76662D01*
X626253Y76849D01*
X626452Y77040D01*
X626646Y77237D01*
X626835Y77438D01*
X627019Y77643D01*
X627198Y77854D01*
X627371Y78068D01*
X627540Y78286D01*
X627703Y78509D01*
X627861Y78735D01*
X628013Y78966D01*
X628159Y79200D01*
X628300Y79437D01*
X628435Y79678D01*
X628564Y79922D01*
X628686Y80169D01*
X628803Y80419D01*
X628914Y80671D01*
X629019Y80927D01*
X629117Y81184D01*
X629209Y81445D01*
X629295Y81707D01*
X629374Y81971D01*
X629447Y82237D01*
X629513Y82505D01*
X629573Y82775D01*
X629626Y83045D01*
X629672Y83317D01*
X629712Y83590D01*
X629745Y83864D01*
X629772Y84139D01*
X629792Y84414D01*
X629805Y84690D01*
X629811Y84966D01*
X629811Y85242D01*
X629804Y85518D01*
X629790Y85793D01*
X629770Y86068D01*
X629742Y86343D01*
X629456Y86307D01*
X629482Y86039D01*
X629502Y85771D01*
X629515Y85503D01*
X629522Y85234D01*
X629522Y84965D01*
X629516Y84697D01*
X629503Y84428D01*
X629484Y84160D01*
X629458Y83892D01*
X629425Y83625D01*
X629386Y83359D01*
X629341Y83094D01*
X629289Y82831D01*
X629231Y82568D01*
X629166Y82307D01*
X629095Y82048D01*
X629018Y81790D01*
X628935Y81535D01*
X628845Y81282D01*
X628749Y81030D01*
X628647Y80782D01*
X628539Y80535D01*
X628425Y80292D01*
X628305Y80051D01*
X628180Y79814D01*
X628048Y79579D01*
X627911Y79348D01*
X627768Y79120D01*
X627620Y78896D01*
X627466Y78675D01*
X627307Y78458D01*
X627143Y78245D01*
X626974Y78037D01*
X626800Y77832D01*
X626620Y77632D01*
X626436Y77436D01*
X626247Y77245D01*
X626054Y77058D01*
X625856Y76876D01*
X625654Y76699D01*
X625447Y76527D01*
X625236Y76360D01*
X625022Y76198D01*
X624803Y76042D01*
X624581Y75890D01*
X624355Y75745D01*
X624125Y75605D01*
X623893Y75470D01*
X623657Y75341D01*
X623417Y75218D01*
X623175Y75101D01*
X622931Y74990D01*
X622683Y74885D01*
X622433Y74786D01*
X622181Y74693D01*
X621927Y74606D01*
X621670Y74525D01*
X621412Y74451D01*
X621152Y74383D01*
X620890Y74321D01*
X620627Y74266D01*
X620363Y74217D01*
X620097Y74175D01*
X619831Y74139D01*
X619564Y74109D01*
X619296Y74086D01*
X619027Y74070D01*
X618759Y74060D01*
X618490Y74057D01*
X618221Y74060D01*
X617953Y74070D01*
X617684Y74086D01*
X617416Y74109D01*
X617149Y74139D01*
X616883Y74175D01*
X616617Y74217D01*
X616353Y74266D01*
X616090Y74321D01*
X615828Y74383D01*
X615568Y74451D01*
X615310Y74525D01*
X615053Y74606D01*
X614799Y74693D01*
X614547Y74786D01*
X614297Y74885D01*
X614049Y74990D01*
X613805Y75101D01*
X613563Y75218D01*
X613323Y75341D01*
X613087Y75470D01*
X612855Y75605D01*
X612625Y75745D01*
X612399Y75890D01*
X612177Y76042D01*
X611958Y76198D01*
X611744Y76360D01*
X611533Y76527D01*
X611326Y76699D01*
X611124Y76876D01*
X610926Y77058D01*
X610733Y77245D01*
X610544Y77436D01*
X610360Y77632D01*
X610180Y77832D01*
X610006Y78037D01*
X609837Y78245D01*
X609673Y78458D01*
X609514Y78675D01*
X609360Y78896D01*
X609212Y79120D01*
X609069Y79348D01*
X608932Y79579D01*
X608800Y79814D01*
X608675Y80051D01*
X608555Y80292D01*
X608441Y80535D01*
X608333Y80782D01*
X608231Y81030D01*
X608135Y81282D01*
X608045Y81535D01*
X607962Y81790D01*
X607885Y82048D01*
X607814Y82307D01*
X607749Y82568D01*
X607691Y82831D01*
X607639Y83094D01*
X607594Y83359D01*
X607555Y83625D01*
X607522Y83892D01*
X607496Y84160D01*
X607477Y84428D01*
X607464Y84697D01*
X607458Y84965D01*
X607458Y85234D01*
X607465Y85503D01*
X607478Y85771D01*
X607498Y86039D01*
X607524Y86307D01*
X607811Y86271D01*
X607785Y86009D01*
X607766Y85746D01*
X607753Y85483D01*
X607747Y85219D01*
X607747Y84955D01*
X607753Y84692D01*
X607766Y84428D01*
X607786Y84165D01*
X607812Y83903D01*
X607844Y83641D01*
X607883Y83381D01*
X607928Y83121D01*
X607979Y82862D01*
X608037Y82605D01*
X608101Y82349D01*
X608172Y82095D01*
X608248Y81843D01*
X608331Y81593D01*
X608420Y81345D01*
X608515Y81099D01*
X608616Y80855D01*
X608723Y80614D01*
X608836Y80376D01*
X608954Y80140D01*
X609078Y79908D01*
X609208Y79678D01*
X609344Y79452D01*
X609485Y79230D01*
X609632Y79010D01*
X609783Y78795D01*
X609941Y78583D01*
X610103Y78375D01*
X610270Y78171D01*
X610442Y77972D01*
X610619Y77777D01*
X610801Y77586D01*
X610988Y77399D01*
X611179Y77217D01*
X611374Y77040D01*
X611574Y76868D01*
X611777Y76701D01*
X611985Y76539D01*
X612197Y76382D01*
X612413Y76230D01*
X612632Y76084D01*
X612855Y75943D01*
X613081Y75807D01*
X613310Y75677D01*
X613543Y75553D01*
X613778Y75434D01*
X614017Y75322D01*
X614258Y75215D01*
X614501Y75114D01*
X614747Y75019D01*
X614995Y74930D01*
X615246Y74848D01*
X615498Y74771D01*
X615752Y74701D01*
X616008Y74637D01*
X616265Y74579D01*
X616524Y74527D01*
X616784Y74482D01*
X617044Y74444D01*
X617306Y74411D01*
X617568Y74386D01*
X617831Y74366D01*
X618095Y74353D01*
X618358Y74347D01*
X618622Y74347D01*
X618885Y74353D01*
X619149Y74366D01*
X619412Y74386D01*
X619674Y74411D01*
X619936Y74444D01*
X620196Y74482D01*
X620456Y74527D01*
X620715Y74579D01*
X620972Y74637D01*
X621228Y74701D01*
X621482Y74771D01*
X621734Y74848D01*
X621985Y74930D01*
X622233Y75019D01*
X622479Y75114D01*
X622722Y75215D01*
X622963Y75322D01*
X623202Y75434D01*
X623437Y75553D01*
X623670Y75677D01*
X623899Y75807D01*
X624125Y75943D01*
X624348Y76084D01*
X624567Y76230D01*
X624783Y76382D01*
X624995Y76539D01*
X625203Y76701D01*
X625406Y76868D01*
X625606Y77040D01*
X625801Y77217D01*
X625992Y77399D01*
X626179Y77586D01*
X626361Y77777D01*
X626538Y77972D01*
X626710Y78171D01*
X626877Y78375D01*
X627039Y78583D01*
X627197Y78795D01*
X627348Y79010D01*
X627495Y79230D01*
X627636Y79452D01*
X627772Y79678D01*
X627902Y79908D01*
X628026Y80140D01*
X628144Y80376D01*
X628257Y80614D01*
X628364Y80855D01*
X628465Y81099D01*
X628560Y81345D01*
X628649Y81593D01*
X628732Y81843D01*
X628808Y82095D01*
X628879Y82349D01*
X628943Y82605D01*
X629001Y82862D01*
X629052Y83121D01*
X629097Y83381D01*
X629136Y83641D01*
X629168Y83903D01*
X629194Y84165D01*
X629214Y84428D01*
X629227Y84692D01*
X629233Y84955D01*
X629233Y85219D01*
X629227Y85483D01*
X629214Y85746D01*
X629195Y86009D01*
X629169Y86271D01*
X628882Y86235D01*
X628907Y85980D01*
X628926Y85724D01*
X628938Y85468D01*
X628944Y85212D01*
X628944Y84955D01*
X628938Y84699D01*
X628925Y84443D01*
X628906Y84187D01*
X628881Y83932D01*
X628849Y83677D01*
X628811Y83423D01*
X628767Y83171D01*
X628717Y82919D01*
X628661Y82669D01*
X628598Y82420D01*
X628530Y82173D01*
X628455Y81927D01*
X628375Y81684D01*
X628288Y81442D01*
X628196Y81203D01*
X628097Y80966D01*
X627993Y80732D01*
X627884Y80500D01*
X627768Y80271D01*
X627647Y80045D01*
X627521Y79822D01*
X627389Y79602D01*
X627251Y79385D01*
X627109Y79172D01*
X626961Y78962D01*
X626808Y78756D01*
X626650Y78554D01*
X626487Y78356D01*
X626320Y78162D01*
X626148Y77972D01*
X625971Y77786D01*
X625789Y77605D01*
X625603Y77428D01*
X625413Y77256D01*
X625219Y77088D01*
X625021Y76926D01*
X624818Y76768D01*
X624612Y76615D01*
X624403Y76467D01*
X624189Y76325D01*
X623973Y76188D01*
X623753Y76056D01*
X623529Y75930D01*
X623303Y75809D01*
X623074Y75694D01*
X622842Y75584D01*
X622608Y75480D01*
X622371Y75382D01*
X622131Y75290D01*
X621890Y75203D01*
X621646Y75123D01*
X621401Y75048D01*
X621154Y74980D01*
X620905Y74918D01*
X620654Y74862D01*
X620403Y74811D01*
X620150Y74768D01*
X619896Y74730D01*
X619642Y74699D01*
X619387Y74674D01*
X619131Y74655D01*
X618875Y74642D01*
X618618Y74636D01*
X618362Y74636D01*
X618105Y74642D01*
X617849Y74655D01*
X617593Y74674D01*
X617338Y74699D01*
X617084Y74730D01*
X616830Y74768D01*
X616577Y74811D01*
X616326Y74862D01*
X616075Y74918D01*
X615826Y74980D01*
X615579Y75048D01*
X615334Y75123D01*
X615090Y75203D01*
X614849Y75290D01*
X614609Y75382D01*
X614372Y75480D01*
X614138Y75584D01*
X613906Y75694D01*
X613677Y75809D01*
X613451Y75930D01*
X613227Y76056D01*
X613007Y76188D01*
X612791Y76325D01*
X612577Y76467D01*
X612368Y76615D01*
X612162Y76768D01*
X611959Y76926D01*
X611761Y77088D01*
X611567Y77256D01*
X611377Y77428D01*
X611191Y77605D01*
X611009Y77786D01*
X610832Y77972D01*
X610660Y78162D01*
X610493Y78356D01*
X610330Y78554D01*
X610172Y78756D01*
X610019Y78962D01*
X609871Y79172D01*
X609729Y79385D01*
X609591Y79602D01*
X609459Y79822D01*
X609333Y80045D01*
X609212Y80271D01*
X609096Y80500D01*
X608987Y80732D01*
X608883Y80966D01*
X608784Y81203D01*
X608692Y81442D01*
X608605Y81684D01*
X608525Y81927D01*
X608450Y82173D01*
X608382Y82420D01*
X608319Y82669D01*
X608263Y82919D01*
X608213Y83171D01*
X608169Y83423D01*
X608131Y83677D01*
X608099Y83932D01*
X608074Y84187D01*
X608055Y84443D01*
X608042Y84699D01*
X608036Y84955D01*
X608036Y85212D01*
X608042Y85468D01*
X608054Y85724D01*
X608073Y85980D01*
X608098Y86235D01*
X608385Y86199D01*
X608361Y85951D01*
X608342Y85703D01*
X608331Y85454D01*
X608325Y85204D01*
X608325Y84955D01*
X608331Y84706D01*
X608344Y84457D01*
X608362Y84208D01*
X608387Y83960D01*
X608418Y83712D01*
X608455Y83466D01*
X608497Y83220D01*
X608546Y82976D01*
X608601Y82732D01*
X608662Y82491D01*
X608729Y82250D01*
X608801Y82012D01*
X608880Y81775D01*
X608964Y81540D01*
X609054Y81308D01*
X609149Y81078D01*
X609251Y80850D01*
X609357Y80624D01*
X609470Y80402D01*
X609587Y80182D01*
X609710Y79965D01*
X609839Y79751D01*
X609972Y79541D01*
X610111Y79333D01*
X610255Y79130D01*
X610403Y78930D01*
X610557Y78733D01*
X610715Y78540D01*
X610878Y78352D01*
X611046Y78167D01*
X611218Y77987D01*
X611394Y77810D01*
X611575Y77638D01*
X611759Y77471D01*
X611948Y77308D01*
X612141Y77150D01*
X612338Y76997D01*
X612538Y76848D01*
X612742Y76705D01*
X612949Y76567D01*
X613160Y76433D01*
X613374Y76305D01*
X613591Y76182D01*
X613811Y76065D01*
X614034Y75953D01*
X614259Y75846D01*
X614487Y75745D01*
X614718Y75650D01*
X614950Y75560D01*
X615185Y75476D01*
X615422Y75398D01*
X615660Y75326D01*
X615901Y75259D01*
X616143Y75199D01*
X616386Y75144D01*
X616630Y75096D01*
X616876Y75053D01*
X617123Y75016D01*
X617370Y74986D01*
X617618Y74961D01*
X617867Y74943D01*
X618116Y74931D01*
X618365Y74925D01*
X618615Y74925D01*
X618864Y74931D01*
X619113Y74943D01*
X619362Y74961D01*
X619610Y74986D01*
X619857Y75016D01*
X620104Y75053D01*
X620350Y75096D01*
X620594Y75144D01*
X620837Y75199D01*
X621079Y75259D01*
X621320Y75326D01*
X621558Y75398D01*
X621795Y75476D01*
X622030Y75560D01*
X622262Y75650D01*
X622493Y75745D01*
X622721Y75846D01*
X622946Y75953D01*
X623169Y76065D01*
X623389Y76182D01*
X623606Y76305D01*
X623820Y76433D01*
X624031Y76567D01*
X624238Y76705D01*
X624442Y76848D01*
X624642Y76997D01*
X624839Y77150D01*
X625032Y77308D01*
X625221Y77471D01*
X625405Y77638D01*
X625586Y77810D01*
X625762Y77987D01*
X625934Y78167D01*
X626102Y78352D01*
X626265Y78540D01*
X626423Y78733D01*
X626577Y78930D01*
X626725Y79130D01*
X626869Y79333D01*
X627008Y79541D01*
X627141Y79751D01*
X627270Y79965D01*
X627393Y80182D01*
X627510Y80402D01*
X627623Y80624D01*
X627729Y80850D01*
X627831Y81078D01*
X627926Y81308D01*
X628016Y81540D01*
X628100Y81775D01*
X628179Y82012D01*
X628251Y82250D01*
X628318Y82491D01*
X628379Y82732D01*
X628434Y82976D01*
X628483Y83220D01*
X628525Y83466D01*
X628562Y83712D01*
X628593Y83960D01*
X628618Y84208D01*
X628636Y84457D01*
X628649Y84706D01*
X628655Y84955D01*
X628655Y85204D01*
X628649Y85454D01*
X628638Y85703D01*
X628619Y85951D01*
X628595Y86199D01*
X628308Y86164D01*
X628332Y85923D01*
X628349Y85681D01*
X628361Y85439D01*
X628366Y85197D01*
X628366Y84955D01*
X628360Y84713D01*
X628348Y84471D01*
X628329Y84229D01*
X628305Y83988D01*
X628275Y83748D01*
X628240Y83508D01*
X628198Y83270D01*
X628150Y83032D01*
X628097Y82796D01*
X628038Y82561D01*
X627973Y82328D01*
X627902Y82096D01*
X627826Y81866D01*
X627744Y81638D01*
X627657Y81413D01*
X627564Y81189D01*
X627466Y80968D01*
X627362Y80749D01*
X627253Y80533D01*
X627138Y80319D01*
X627019Y80108D01*
X626894Y79901D01*
X626764Y79696D01*
X626630Y79495D01*
X626490Y79297D01*
X626345Y79103D01*
X626196Y78912D01*
X626043Y78725D01*
X625884Y78542D01*
X625721Y78362D01*
X625554Y78187D01*
X625383Y78016D01*
X625207Y77849D01*
X625028Y77686D01*
X624844Y77528D01*
X624657Y77375D01*
X624466Y77226D01*
X624271Y77082D01*
X624073Y76942D01*
X623872Y76808D01*
X623667Y76679D01*
X623459Y76554D01*
X623249Y76435D01*
X623035Y76321D01*
X622819Y76212D01*
X622600Y76109D01*
X622378Y76010D01*
X622154Y75918D01*
X621928Y75831D01*
X621700Y75749D01*
X621470Y75673D01*
X621238Y75603D01*
X621005Y75539D01*
X620770Y75480D01*
X620534Y75427D01*
X620296Y75380D01*
X620058Y75338D01*
X619818Y75303D01*
X619578Y75273D01*
X619337Y75249D01*
X619095Y75232D01*
X618853Y75220D01*
X618611Y75214D01*
X618369Y75214D01*
X618127Y75220D01*
X617885Y75232D01*
X617643Y75249D01*
X617402Y75273D01*
X617162Y75303D01*
X616922Y75338D01*
X616684Y75380D01*
X616446Y75427D01*
X616210Y75480D01*
X615975Y75539D01*
X615742Y75603D01*
X615510Y75673D01*
X615280Y75749D01*
X615052Y75831D01*
X614826Y75918D01*
X614602Y76010D01*
X614380Y76109D01*
X614161Y76212D01*
X613945Y76321D01*
X613731Y76435D01*
X613521Y76554D01*
X613313Y76679D01*
X613108Y76808D01*
X612907Y76942D01*
X612709Y77082D01*
X612514Y77226D01*
X612323Y77375D01*
X612136Y77528D01*
X611952Y77686D01*
X611773Y77849D01*
X611597Y78016D01*
X611426Y78187D01*
X611259Y78362D01*
X611096Y78542D01*
X610937Y78725D01*
X610784Y78912D01*
X610635Y79103D01*
X610490Y79297D01*
X610350Y79495D01*
X610216Y79696D01*
X610086Y79901D01*
X609961Y80108D01*
X609842Y80319D01*
X609727Y80533D01*
X609618Y80749D01*
X609514Y80968D01*
X609416Y81189D01*
X609323Y81413D01*
X609236Y81638D01*
X609154Y81866D01*
X609078Y82096D01*
X609007Y82328D01*
X608942Y82561D01*
X608883Y82796D01*
X608830Y83032D01*
X608782Y83270D01*
X608740Y83508D01*
X608705Y83748D01*
X608675Y83988D01*
X608651Y84229D01*
X608632Y84471D01*
X608620Y84713D01*
X608614Y84955D01*
X608614Y85197D01*
X608619Y85439D01*
X608631Y85681D01*
X608648Y85923D01*
X608672Y86164D01*
X608958Y86128D01*
X608936Y85894D01*
X608919Y85659D01*
X608908Y85425D01*
X608903Y85190D01*
X608903Y84955D01*
X608909Y84720D01*
X608921Y84485D01*
X608939Y84251D01*
X608962Y84017D01*
X608991Y83783D01*
X609026Y83551D01*
X609067Y83319D01*
X609113Y83089D01*
X609165Y82860D01*
X609222Y82632D01*
X609285Y82405D01*
X609354Y82181D01*
X609428Y81958D01*
X609508Y81736D01*
X609593Y81517D01*
X609683Y81300D01*
X609778Y81085D01*
X609879Y80873D01*
X609985Y80663D01*
X610096Y80456D01*
X610212Y80252D01*
X610333Y80050D01*
X610459Y79852D01*
X610590Y79657D01*
X610726Y79465D01*
X610866Y79276D01*
X611011Y79091D01*
X611160Y78909D01*
X611314Y78732D01*
X611472Y78558D01*
X611634Y78387D01*
X611800Y78221D01*
X611971Y78060D01*
X612145Y77902D01*
X612323Y77748D01*
X612505Y77599D01*
X612690Y77455D01*
X612879Y77315D01*
X613071Y77180D01*
X613267Y77050D01*
X613466Y76924D01*
X613667Y76803D01*
X613872Y76687D01*
X614079Y76577D01*
X614289Y76471D01*
X614502Y76371D01*
X614717Y76276D01*
X614934Y76186D01*
X615153Y76101D01*
X615374Y76022D01*
X615598Y75949D01*
X615823Y75880D01*
X616049Y75818D01*
X616277Y75761D01*
X616507Y75709D01*
X616737Y75664D01*
X616969Y75623D01*
X617201Y75589D01*
X617434Y75560D01*
X617668Y75537D01*
X617903Y75520D01*
X618138Y75508D01*
X618372Y75503D01*
X618608Y75503D01*
X618842Y75508D01*
X619077Y75520D01*
X619312Y75537D01*
X619546Y75560D01*
X619779Y75589D01*
X620011Y75623D01*
X620243Y75664D01*
X620473Y75709D01*
X620703Y75761D01*
X620931Y75818D01*
X621157Y75880D01*
X621382Y75949D01*
X621606Y76022D01*
X621827Y76101D01*
X622046Y76186D01*
X622263Y76276D01*
X622478Y76371D01*
X622691Y76471D01*
X622901Y76577D01*
X623108Y76687D01*
X623313Y76803D01*
X623514Y76924D01*
X623713Y77050D01*
X623909Y77180D01*
X624101Y77315D01*
X624290Y77455D01*
X624475Y77599D01*
X624657Y77748D01*
X624835Y77902D01*
X625009Y78060D01*
X625180Y78221D01*
X625346Y78387D01*
X625508Y78558D01*
X625666Y78732D01*
X625820Y78909D01*
X625969Y79091D01*
X626114Y79276D01*
X626254Y79465D01*
X626390Y79657D01*
X626521Y79852D01*
X626647Y80050D01*
X626768Y80252D01*
X626884Y80456D01*
X626995Y80663D01*
X627101Y80873D01*
X627202Y81085D01*
X627297Y81300D01*
X627387Y81517D01*
X627472Y81736D01*
X627552Y81958D01*
X627626Y82181D01*
X627695Y82405D01*
X627758Y82632D01*
X627815Y82860D01*
X627867Y83089D01*
X627913Y83319D01*
X627954Y83551D01*
X627989Y83783D01*
X628018Y84017D01*
X628041Y84251D01*
X628059Y84485D01*
X628071Y84720D01*
X628077Y84955D01*
X628077Y85190D01*
X628072Y85425D01*
X628061Y85659D01*
X628044Y85894D01*
X628022Y86128D01*
X627735Y86092D01*
X627757Y85865D01*
X627773Y85638D01*
X627783Y85410D01*
X627789Y85182D01*
X627788Y84954D01*
X627782Y84727D01*
X627770Y84499D01*
X627753Y84272D01*
X627730Y84045D01*
X627702Y83819D01*
X627668Y83594D01*
X627628Y83369D01*
X627583Y83146D01*
X627533Y82923D01*
X627477Y82703D01*
X627416Y82483D01*
X627350Y82265D01*
X627278Y82049D01*
X627200Y81834D01*
X627118Y81622D01*
X627030Y81412D01*
X626938Y81203D01*
X626840Y80997D01*
X626737Y80794D01*
X626629Y80593D01*
X626517Y80395D01*
X626399Y80200D01*
X626277Y80008D01*
X626150Y79818D01*
X626019Y79632D01*
X625883Y79449D01*
X625742Y79270D01*
X625598Y79094D01*
X625448Y78921D01*
X625295Y78753D01*
X625138Y78588D01*
X624977Y78427D01*
X624811Y78270D01*
X624642Y78117D01*
X624470Y77969D01*
X624293Y77824D01*
X624114Y77684D01*
X623930Y77549D01*
X623744Y77417D01*
X623554Y77291D01*
X623362Y77169D01*
X623166Y77052D01*
X622968Y76940D01*
X622767Y76833D01*
X622563Y76730D01*
X622357Y76633D01*
X622149Y76541D01*
X621938Y76454D01*
X621725Y76372D01*
X621511Y76295D01*
X621294Y76224D01*
X621076Y76158D01*
X620857Y76097D01*
X620635Y76042D01*
X620413Y75992D01*
X620190Y75948D01*
X619965Y75909D01*
X619740Y75875D01*
X619513Y75847D01*
X619287Y75825D01*
X619059Y75808D01*
X618832Y75797D01*
X618604Y75792D01*
X618376Y75792D01*
X618148Y75797D01*
X617921Y75808D01*
X617693Y75825D01*
X617467Y75847D01*
X617240Y75875D01*
X617015Y75909D01*
X616790Y75948D01*
X616567Y75992D01*
X616345Y76042D01*
X616123Y76097D01*
X615904Y76158D01*
X615686Y76224D01*
X615469Y76295D01*
X615255Y76372D01*
X615042Y76454D01*
X614831Y76541D01*
X614623Y76633D01*
X614417Y76730D01*
X614213Y76833D01*
X614012Y76940D01*
X613814Y77052D01*
X613618Y77169D01*
X613426Y77291D01*
X613236Y77417D01*
X613050Y77549D01*
X612866Y77684D01*
X612687Y77824D01*
X612510Y77969D01*
X612338Y78117D01*
X612169Y78270D01*
X612003Y78427D01*
X611842Y78588D01*
X611685Y78753D01*
X611532Y78921D01*
X611382Y79094D01*
X611238Y79270D01*
X611097Y79449D01*
X610961Y79632D01*
X610830Y79818D01*
X610703Y80008D01*
X610581Y80200D01*
X610463Y80395D01*
X610351Y80593D01*
X610243Y80794D01*
X610140Y80997D01*
X610042Y81203D01*
X609950Y81412D01*
X609862Y81622D01*
X609780Y81834D01*
X609702Y82049D01*
X609630Y82265D01*
X609564Y82483D01*
X609503Y82703D01*
X609447Y82923D01*
X609397Y83146D01*
X609352Y83369D01*
X609312Y83594D01*
X609278Y83819D01*
X609250Y84045D01*
X609227Y84272D01*
X609210Y84499D01*
X609198Y84727D01*
X609192Y84954D01*
X609191Y85182D01*
X609197Y85410D01*
X609207Y85638D01*
X609223Y85865D01*
X609245Y86092D01*
X609532Y86056D01*
X609511Y85836D01*
X609495Y85616D01*
X609485Y85396D01*
X609480Y85175D01*
X609481Y84954D01*
X609487Y84734D01*
X609498Y84513D01*
X609515Y84293D01*
X609538Y84073D01*
X609565Y83854D01*
X609598Y83636D01*
X609636Y83419D01*
X609680Y83202D01*
X609729Y82987D01*
X609783Y82773D01*
X609842Y82561D01*
X609907Y82349D01*
X609977Y82140D01*
X610051Y81932D01*
X610131Y81727D01*
X610216Y81523D01*
X610306Y81321D01*
X610401Y81122D01*
X610501Y80925D01*
X610605Y80730D01*
X610714Y80539D01*
X610828Y80349D01*
X610946Y80163D01*
X611069Y79980D01*
X611197Y79800D01*
X611329Y79623D01*
X611465Y79449D01*
X611605Y79278D01*
X611749Y79111D01*
X611898Y78948D01*
X612050Y78788D01*
X612207Y78633D01*
X612367Y78481D01*
X612530Y78333D01*
X612698Y78189D01*
X612869Y78049D01*
X613043Y77913D01*
X613220Y77782D01*
X613401Y77655D01*
X613584Y77533D01*
X613771Y77415D01*
X613960Y77301D01*
X614153Y77193D01*
X614347Y77089D01*
X614545Y76990D01*
X614744Y76896D01*
X614946Y76806D01*
X615150Y76722D01*
X615356Y76643D01*
X615564Y76568D01*
X615774Y76499D01*
X615985Y76435D01*
X616198Y76376D01*
X616412Y76323D01*
X616627Y76275D01*
X616844Y76232D01*
X617061Y76194D01*
X617280Y76162D01*
X617499Y76135D01*
X617718Y76113D01*
X617938Y76097D01*
X618159Y76086D01*
X618380Y76081D01*
X618600Y76081D01*
X618821Y76086D01*
X619042Y76097D01*
X619262Y76113D01*
X619481Y76135D01*
X619700Y76162D01*
X619919Y76194D01*
X620136Y76232D01*
X620353Y76275D01*
X620568Y76323D01*
X620782Y76376D01*
X620995Y76435D01*
X621206Y76499D01*
X621416Y76568D01*
X621624Y76643D01*
X621830Y76722D01*
X622034Y76806D01*
X622236Y76896D01*
X622435Y76990D01*
X622633Y77089D01*
X622827Y77193D01*
X623020Y77301D01*
X623209Y77415D01*
X623396Y77533D01*
X623579Y77655D01*
X623760Y77782D01*
X623937Y77913D01*
X624111Y78049D01*
X624282Y78189D01*
X624450Y78333D01*
X624613Y78481D01*
X624773Y78633D01*
X624930Y78788D01*
X625082Y78948D01*
X625231Y79111D01*
X625375Y79278D01*
X625515Y79449D01*
X625651Y79623D01*
X625783Y79800D01*
X625911Y79980D01*
X626034Y80163D01*
X626152Y80349D01*
X626266Y80539D01*
X626375Y80730D01*
X626479Y80925D01*
X626579Y81122D01*
X626674Y81321D01*
X626764Y81523D01*
X626849Y81727D01*
X626929Y81932D01*
X627003Y82140D01*
X627073Y82349D01*
X627138Y82561D01*
X627197Y82773D01*
X627251Y82987D01*
X627300Y83202D01*
X627344Y83419D01*
X627382Y83636D01*
X627415Y83854D01*
X627442Y84073D01*
X627465Y84293D01*
X627482Y84513D01*
X627493Y84734D01*
X627499Y84954D01*
X627500Y85175D01*
X627495Y85396D01*
X627485Y85616D01*
X627469Y85836D01*
X627448Y86056D01*
X606951Y106698D02*
X609673Y106358D01*
X609652Y106142D01*
X609637Y105926D01*
X609627Y105709D01*
X609622Y105491D01*
X609623Y105274D01*
X609629Y105057D01*
X609640Y104840D01*
X609657Y104623D01*
X609679Y104407D01*
X609706Y104192D01*
X609739Y103977D01*
X609776Y103763D01*
X609819Y103550D01*
X609867Y103338D01*
X609921Y103128D01*
X609979Y102919D01*
X610043Y102711D01*
X610111Y102505D01*
X610185Y102300D01*
X610264Y102098D01*
X610347Y101898D01*
X610436Y101699D01*
X610529Y101503D01*
X610627Y101309D01*
X610730Y101118D01*
X610837Y100929D01*
X610949Y100743D01*
X611066Y100560D01*
X611187Y100379D01*
X611312Y100202D01*
X611442Y100028D01*
X611576Y99857D01*
X611714Y99689D01*
X611856Y99525D01*
X612003Y99364D01*
X612153Y99207D01*
X612306Y99054D01*
X612464Y98904D01*
X612625Y98758D01*
X612790Y98617D01*
X612958Y98479D01*
X613129Y98346D01*
X613304Y98217D01*
X613482Y98092D01*
X613662Y97971D01*
X613846Y97855D01*
X614033Y97744D01*
X614222Y97637D01*
X614413Y97535D01*
X614607Y97437D01*
X614804Y97344D01*
X615003Y97257D01*
X615203Y97174D01*
X615406Y97096D01*
X615611Y97022D01*
X615817Y96954D01*
X616025Y96892D01*
X616234Y96834D01*
X616445Y96781D01*
X616657Y96734D01*
X616870Y96691D01*
X617084Y96654D01*
X617299Y96622D01*
X617514Y96596D01*
X617731Y96575D01*
X617947Y96559D01*
X618164Y96548D01*
X618381Y96543D01*
X618599Y96543D01*
X618816Y96548D01*
X619033Y96559D01*
X619249Y96575D01*
X619466Y96596D01*
X619681Y96622D01*
X619896Y96654D01*
X620110Y96691D01*
X620323Y96734D01*
X620535Y96781D01*
X620746Y96834D01*
X620955Y96892D01*
X621163Y96954D01*
X621369Y97022D01*
X621574Y97096D01*
X621777Y97174D01*
X621977Y97257D01*
X622176Y97344D01*
X622373Y97437D01*
X622567Y97535D01*
X622758Y97637D01*
X622947Y97744D01*
X623134Y97855D01*
X623318Y97971D01*
X623498Y98092D01*
X623676Y98217D01*
X623851Y98346D01*
X624022Y98479D01*
X624190Y98617D01*
X624355Y98758D01*
X624516Y98904D01*
X624674Y99054D01*
X624827Y99207D01*
X624977Y99364D01*
X625124Y99525D01*
X625266Y99689D01*
X625404Y99857D01*
X625538Y100028D01*
X625668Y100202D01*
X625793Y100379D01*
X625914Y100560D01*
X626031Y100743D01*
X626143Y100929D01*
X626250Y101118D01*
X626353Y101309D01*
X626451Y101503D01*
X626544Y101699D01*
X626633Y101898D01*
X626716Y102098D01*
X626795Y102300D01*
X626869Y102505D01*
X626937Y102711D01*
X627001Y102919D01*
X627059Y103128D01*
X627113Y103338D01*
X627161Y103550D01*
X627204Y103763D01*
X627241Y103977D01*
X627274Y104192D01*
X627301Y104407D01*
X627323Y104623D01*
X627340Y104840D01*
X627351Y105057D01*
X627357Y105274D01*
X627358Y105491D01*
X627353Y105709D01*
X627343Y105926D01*
X627328Y106142D01*
X627307Y106358D01*
X630029Y106698D01*
X630029Y106699D01*
X630057Y106417D01*
X630078Y106135D01*
X630093Y105852D01*
X630100Y105569D01*
X630100Y105286D01*
X630094Y105003D01*
X630081Y104720D01*
X630060Y104438D01*
X630033Y104156D01*
X629999Y103875D01*
X629958Y103595D01*
X629911Y103316D01*
X629856Y103039D01*
X629795Y102762D01*
X629727Y102488D01*
X629653Y102214D01*
X629571Y101943D01*
X629484Y101674D01*
X629389Y101407D01*
X629288Y101143D01*
X629181Y100881D01*
X629068Y100622D01*
X628948Y100365D01*
X628822Y100112D01*
X628690Y99862D01*
X628551Y99615D01*
X628407Y99371D01*
X628257Y99131D01*
X628101Y98895D01*
X627939Y98663D01*
X627772Y98434D01*
X627599Y98210D01*
X627421Y97990D01*
X627238Y97775D01*
X627049Y97564D01*
X626855Y97358D01*
X626656Y97156D01*
X626453Y96960D01*
X626244Y96768D01*
X626031Y96582D01*
X625814Y96400D01*
X625592Y96224D01*
X625366Y96054D01*
X625136Y95889D01*
X624902Y95730D01*
X624664Y95577D01*
X624423Y95429D01*
X624178Y95287D01*
X623929Y95152D01*
X623678Y95022D01*
X623423Y94899D01*
X623165Y94782D01*
X622905Y94671D01*
X622642Y94567D01*
X622376Y94469D01*
X622108Y94377D01*
X621838Y94292D01*
X621566Y94214D01*
X621292Y94142D01*
X621017Y94077D01*
X620740Y94019D01*
X620462Y93968D01*
X620182Y93923D01*
X619902Y93885D01*
X619620Y93854D01*
X619338Y93830D01*
X619056Y93813D01*
X618773Y93802D01*
X618490Y93799D01*
X618207Y93802D01*
X617924Y93813D01*
X617642Y93830D01*
X617360Y93854D01*
X617078Y93885D01*
X616798Y93923D01*
X616518Y93968D01*
X616240Y94019D01*
X615963Y94077D01*
X615688Y94142D01*
X615414Y94214D01*
X615142Y94292D01*
X614872Y94377D01*
X614604Y94469D01*
X614338Y94567D01*
X614075Y94671D01*
X613815Y94782D01*
X613557Y94899D01*
X613302Y95022D01*
X613051Y95152D01*
X612802Y95287D01*
X612557Y95429D01*
X612316Y95577D01*
X612078Y95730D01*
X611844Y95889D01*
X611614Y96054D01*
X611388Y96224D01*
X611166Y96400D01*
X610949Y96582D01*
X610736Y96768D01*
X610527Y96960D01*
X610324Y97156D01*
X610125Y97358D01*
X609931Y97564D01*
X609742Y97775D01*
X609559Y97990D01*
X609381Y98210D01*
X609208Y98434D01*
X609041Y98663D01*
X608879Y98895D01*
X608723Y99131D01*
X608573Y99371D01*
X608429Y99615D01*
X608290Y99862D01*
X608158Y100112D01*
X608032Y100365D01*
X607912Y100622D01*
X607799Y100881D01*
X607692Y101143D01*
X607591Y101407D01*
X607496Y101674D01*
X607409Y101943D01*
X607327Y102214D01*
X607253Y102488D01*
X607185Y102762D01*
X607124Y103039D01*
X607069Y103316D01*
X607022Y103595D01*
X606981Y103875D01*
X606947Y104156D01*
X606920Y104438D01*
X606899Y104720D01*
X606886Y105003D01*
X606880Y105286D01*
X606880Y105569D01*
X606887Y105852D01*
X606902Y106135D01*
X606923Y106417D01*
X606951Y106699D01*
X607238Y106663D01*
X607210Y106388D01*
X607190Y106113D01*
X607176Y105838D01*
X607169Y105562D01*
X607169Y105286D01*
X607175Y105010D01*
X607188Y104734D01*
X607208Y104459D01*
X607235Y104184D01*
X607268Y103910D01*
X607308Y103637D01*
X607354Y103365D01*
X607407Y103095D01*
X607467Y102825D01*
X607533Y102557D01*
X607606Y102291D01*
X607685Y102027D01*
X607771Y101765D01*
X607863Y101504D01*
X607961Y101247D01*
X608066Y100991D01*
X608177Y100739D01*
X608294Y100489D01*
X608416Y100242D01*
X608545Y99998D01*
X608680Y99757D01*
X608821Y99520D01*
X608967Y99286D01*
X609119Y99055D01*
X609277Y98829D01*
X609440Y98606D01*
X609609Y98388D01*
X609782Y98174D01*
X609961Y97963D01*
X610145Y97758D01*
X610334Y97557D01*
X610528Y97360D01*
X610727Y97169D01*
X610930Y96982D01*
X611138Y96800D01*
X611350Y96624D01*
X611566Y96452D01*
X611786Y96286D01*
X612010Y96125D01*
X612239Y95970D01*
X612471Y95821D01*
X612706Y95677D01*
X612945Y95539D01*
X613187Y95407D01*
X613432Y95280D01*
X613681Y95160D01*
X613932Y95046D01*
X614186Y94938D01*
X614442Y94836D01*
X614701Y94741D01*
X614962Y94652D01*
X615226Y94569D01*
X615491Y94492D01*
X615758Y94423D01*
X616026Y94359D01*
X616296Y94303D01*
X616568Y94252D01*
X616840Y94209D01*
X617114Y94172D01*
X617388Y94142D01*
X617663Y94118D01*
X617938Y94101D01*
X618214Y94091D01*
X618490Y94088D01*
X618766Y94091D01*
X619042Y94101D01*
X619317Y94118D01*
X619592Y94142D01*
X619866Y94172D01*
X620140Y94209D01*
X620412Y94252D01*
X620684Y94303D01*
X620954Y94359D01*
X621222Y94423D01*
X621489Y94492D01*
X621754Y94569D01*
X622018Y94652D01*
X622279Y94741D01*
X622538Y94836D01*
X622794Y94938D01*
X623048Y95046D01*
X623299Y95160D01*
X623548Y95280D01*
X623793Y95407D01*
X624035Y95539D01*
X624274Y95677D01*
X624509Y95821D01*
X624741Y95970D01*
X624970Y96125D01*
X625194Y96286D01*
X625414Y96452D01*
X625630Y96624D01*
X625842Y96800D01*
X626050Y96982D01*
X626253Y97169D01*
X626452Y97360D01*
X626646Y97557D01*
X626835Y97758D01*
X627019Y97963D01*
X627198Y98174D01*
X627371Y98388D01*
X627540Y98606D01*
X627703Y98829D01*
X627861Y99055D01*
X628013Y99286D01*
X628159Y99520D01*
X628300Y99757D01*
X628435Y99998D01*
X628564Y100242D01*
X628686Y100489D01*
X628803Y100739D01*
X628914Y100991D01*
X629019Y101247D01*
X629117Y101504D01*
X629209Y101765D01*
X629295Y102027D01*
X629374Y102291D01*
X629447Y102557D01*
X629513Y102825D01*
X629573Y103095D01*
X629626Y103365D01*
X629672Y103637D01*
X629712Y103910D01*
X629745Y104184D01*
X629772Y104459D01*
X629792Y104734D01*
X629805Y105010D01*
X629811Y105286D01*
X629811Y105562D01*
X629804Y105838D01*
X629790Y106113D01*
X629770Y106388D01*
X629742Y106663D01*
X629456Y106627D01*
X629482Y106359D01*
X629502Y106091D01*
X629515Y105823D01*
X629522Y105554D01*
X629522Y105285D01*
X629516Y105017D01*
X629503Y104748D01*
X629484Y104480D01*
X629458Y104212D01*
X629425Y103945D01*
X629386Y103679D01*
X629341Y103414D01*
X629289Y103151D01*
X629231Y102888D01*
X629166Y102627D01*
X629095Y102368D01*
X629018Y102110D01*
X628935Y101855D01*
X628845Y101602D01*
X628749Y101350D01*
X628647Y101102D01*
X628539Y100855D01*
X628425Y100612D01*
X628305Y100371D01*
X628180Y100134D01*
X628048Y99899D01*
X627911Y99668D01*
X627768Y99440D01*
X627620Y99216D01*
X627466Y98995D01*
X627307Y98778D01*
X627143Y98565D01*
X626974Y98357D01*
X626800Y98152D01*
X626620Y97952D01*
X626436Y97756D01*
X626247Y97565D01*
X626054Y97378D01*
X625856Y97196D01*
X625654Y97019D01*
X625447Y96847D01*
X625236Y96680D01*
X625022Y96518D01*
X624803Y96362D01*
X624581Y96210D01*
X624355Y96065D01*
X624125Y95925D01*
X623893Y95790D01*
X623657Y95661D01*
X623417Y95538D01*
X623175Y95421D01*
X622931Y95310D01*
X622683Y95205D01*
X622433Y95106D01*
X622181Y95013D01*
X621927Y94926D01*
X621670Y94845D01*
X621412Y94771D01*
X621152Y94703D01*
X620890Y94641D01*
X620627Y94586D01*
X620363Y94537D01*
X620097Y94495D01*
X619831Y94459D01*
X619564Y94429D01*
X619296Y94406D01*
X619027Y94390D01*
X618759Y94380D01*
X618490Y94377D01*
X618221Y94380D01*
X617953Y94390D01*
X617684Y94406D01*
X617416Y94429D01*
X617149Y94459D01*
X616883Y94495D01*
X616617Y94537D01*
X616353Y94586D01*
X616090Y94641D01*
X615828Y94703D01*
X615568Y94771D01*
X615310Y94845D01*
X615053Y94926D01*
X614799Y95013D01*
X614547Y95106D01*
X614297Y95205D01*
X614049Y95310D01*
X613805Y95421D01*
X613563Y95538D01*
X613323Y95661D01*
X613087Y95790D01*
X612855Y95925D01*
X612625Y96065D01*
X612399Y96210D01*
X612177Y96362D01*
X611958Y96518D01*
X611744Y96680D01*
X611533Y96847D01*
X611326Y97019D01*
X611124Y97196D01*
X610926Y97378D01*
X610733Y97565D01*
X610544Y97756D01*
X610360Y97952D01*
X610180Y98152D01*
X610006Y98357D01*
X609837Y98565D01*
X609673Y98778D01*
X609514Y98995D01*
X609360Y99216D01*
X609212Y99440D01*
X609069Y99668D01*
X608932Y99899D01*
X608800Y100134D01*
X608675Y100371D01*
X608555Y100612D01*
X608441Y100855D01*
X608333Y101102D01*
X608231Y101350D01*
X608135Y101602D01*
X608045Y101855D01*
X607962Y102110D01*
X607885Y102368D01*
X607814Y102627D01*
X607749Y102888D01*
X607691Y103151D01*
X607639Y103414D01*
X607594Y103679D01*
X607555Y103945D01*
X607522Y104212D01*
X607496Y104480D01*
X607477Y104748D01*
X607464Y105017D01*
X607458Y105285D01*
X607458Y105554D01*
X607465Y105823D01*
X607478Y106091D01*
X607498Y106359D01*
X607524Y106627D01*
X607811Y106591D01*
X607785Y106329D01*
X607766Y106066D01*
X607753Y105803D01*
X607747Y105539D01*
X607747Y105275D01*
X607753Y105012D01*
X607766Y104748D01*
X607786Y104485D01*
X607812Y104223D01*
X607844Y103961D01*
X607883Y103701D01*
X607928Y103441D01*
X607979Y103182D01*
X608037Y102925D01*
X608101Y102669D01*
X608172Y102415D01*
X608248Y102163D01*
X608331Y101913D01*
X608420Y101665D01*
X608515Y101419D01*
X608616Y101175D01*
X608723Y100934D01*
X608836Y100696D01*
X608954Y100460D01*
X609078Y100228D01*
X609208Y99998D01*
X609344Y99772D01*
X609485Y99550D01*
X609632Y99330D01*
X609783Y99115D01*
X609941Y98903D01*
X610103Y98695D01*
X610270Y98491D01*
X610442Y98292D01*
X610619Y98097D01*
X610801Y97906D01*
X610988Y97719D01*
X611179Y97537D01*
X611374Y97360D01*
X611574Y97188D01*
X611777Y97021D01*
X611985Y96859D01*
X612197Y96702D01*
X612413Y96550D01*
X612632Y96404D01*
X612855Y96263D01*
X613081Y96127D01*
X613310Y95997D01*
X613543Y95873D01*
X613778Y95754D01*
X614017Y95642D01*
X614258Y95535D01*
X614501Y95434D01*
X614747Y95339D01*
X614995Y95250D01*
X615246Y95168D01*
X615498Y95091D01*
X615752Y95021D01*
X616008Y94957D01*
X616265Y94899D01*
X616524Y94847D01*
X616784Y94802D01*
X617044Y94764D01*
X617306Y94731D01*
X617568Y94706D01*
X617831Y94686D01*
X618095Y94673D01*
X618358Y94667D01*
X618622Y94667D01*
X618885Y94673D01*
X619149Y94686D01*
X619412Y94706D01*
X619674Y94731D01*
X619936Y94764D01*
X620196Y94802D01*
X620456Y94847D01*
X620715Y94899D01*
X620972Y94957D01*
X621228Y95021D01*
X621482Y95091D01*
X621734Y95168D01*
X621985Y95250D01*
X622233Y95339D01*
X622479Y95434D01*
X622722Y95535D01*
X622963Y95642D01*
X623202Y95754D01*
X623437Y95873D01*
X623670Y95997D01*
X623899Y96127D01*
X624125Y96263D01*
X624348Y96404D01*
X624567Y96550D01*
X624783Y96702D01*
X624995Y96859D01*
X625203Y97021D01*
X625406Y97188D01*
X625606Y97360D01*
X625801Y97537D01*
X625992Y97719D01*
X626179Y97906D01*
X626361Y98097D01*
X626538Y98292D01*
X626710Y98491D01*
X626877Y98695D01*
X627039Y98903D01*
X627197Y99115D01*
X627348Y99330D01*
X627495Y99550D01*
X627636Y99772D01*
X627772Y99998D01*
X627902Y100228D01*
X628026Y100460D01*
X628144Y100696D01*
X628257Y100934D01*
X628364Y101175D01*
X628465Y101419D01*
X628560Y101665D01*
X628649Y101913D01*
X628732Y102163D01*
X628808Y102415D01*
X628879Y102669D01*
X628943Y102925D01*
X629001Y103182D01*
X629052Y103441D01*
X629097Y103701D01*
X629136Y103961D01*
X629168Y104223D01*
X629194Y104485D01*
X629214Y104748D01*
X629227Y105012D01*
X629233Y105275D01*
X629233Y105539D01*
X629227Y105803D01*
X629214Y106066D01*
X629195Y106329D01*
X629169Y106591D01*
X628882Y106555D01*
X628907Y106300D01*
X628926Y106044D01*
X628938Y105788D01*
X628944Y105532D01*
X628944Y105275D01*
X628938Y105019D01*
X628925Y104763D01*
X628906Y104507D01*
X628881Y104252D01*
X628849Y103997D01*
X628811Y103743D01*
X628767Y103491D01*
X628717Y103239D01*
X628661Y102989D01*
X628598Y102740D01*
X628530Y102493D01*
X628455Y102247D01*
X628375Y102004D01*
X628288Y101762D01*
X628196Y101523D01*
X628097Y101286D01*
X627993Y101052D01*
X627884Y100820D01*
X627768Y100591D01*
X627647Y100365D01*
X627521Y100142D01*
X627389Y99922D01*
X627251Y99705D01*
X627109Y99492D01*
X626961Y99282D01*
X626808Y99076D01*
X626650Y98874D01*
X626487Y98676D01*
X626320Y98482D01*
X626148Y98292D01*
X625971Y98106D01*
X625789Y97925D01*
X625603Y97748D01*
X625413Y97576D01*
X625219Y97408D01*
X625021Y97246D01*
X624818Y97088D01*
X624612Y96935D01*
X624403Y96787D01*
X624189Y96645D01*
X623973Y96508D01*
X623753Y96376D01*
X623529Y96250D01*
X623303Y96129D01*
X623074Y96014D01*
X622842Y95904D01*
X622608Y95800D01*
X622371Y95702D01*
X622131Y95610D01*
X621890Y95523D01*
X621646Y95443D01*
X621401Y95368D01*
X621154Y95300D01*
X620905Y95238D01*
X620654Y95182D01*
X620403Y95131D01*
X620150Y95088D01*
X619896Y95050D01*
X619642Y95019D01*
X619387Y94994D01*
X619131Y94975D01*
X618875Y94962D01*
X618618Y94956D01*
X618362Y94956D01*
X618105Y94962D01*
X617849Y94975D01*
X617593Y94994D01*
X617338Y95019D01*
X617084Y95050D01*
X616830Y95088D01*
X616577Y95131D01*
X616326Y95182D01*
X616075Y95238D01*
X615826Y95300D01*
X615579Y95368D01*
X615334Y95443D01*
X615090Y95523D01*
X614849Y95610D01*
X614609Y95702D01*
X614372Y95800D01*
X614138Y95904D01*
X613906Y96014D01*
X613677Y96129D01*
X613451Y96250D01*
X613227Y96376D01*
X613007Y96508D01*
X612791Y96645D01*
X612577Y96787D01*
X612368Y96935D01*
X612162Y97088D01*
X611959Y97246D01*
X611761Y97408D01*
X611567Y97576D01*
X611377Y97748D01*
X611191Y97925D01*
X611009Y98106D01*
X610832Y98292D01*
X610660Y98482D01*
X610493Y98676D01*
X610330Y98874D01*
X610172Y99076D01*
X610019Y99282D01*
X609871Y99492D01*
X609729Y99705D01*
X609591Y99922D01*
X609459Y100142D01*
X609333Y100365D01*
X609212Y100591D01*
X609096Y100820D01*
X608987Y101052D01*
X608883Y101286D01*
X608784Y101523D01*
X608692Y101762D01*
X608605Y102004D01*
X608525Y102247D01*
X608450Y102493D01*
X608382Y102740D01*
X608319Y102989D01*
X608263Y103239D01*
X608213Y103491D01*
X608169Y103743D01*
X608131Y103997D01*
X608099Y104252D01*
X608074Y104507D01*
X608055Y104763D01*
X608042Y105019D01*
X608036Y105275D01*
X608036Y105532D01*
X608042Y105788D01*
X608054Y106044D01*
X608073Y106300D01*
X608098Y106555D01*
X608385Y106519D01*
X608361Y106271D01*
X608342Y106023D01*
X608331Y105774D01*
X608325Y105524D01*
X608325Y105275D01*
X608331Y105026D01*
X608344Y104777D01*
X608362Y104528D01*
X608387Y104280D01*
X608418Y104032D01*
X608455Y103786D01*
X608497Y103540D01*
X608546Y103296D01*
X608601Y103052D01*
X608662Y102811D01*
X608729Y102570D01*
X608801Y102332D01*
X608880Y102095D01*
X608964Y101860D01*
X609054Y101628D01*
X609149Y101398D01*
X609251Y101170D01*
X609357Y100944D01*
X609470Y100722D01*
X609587Y100502D01*
X609710Y100285D01*
X609839Y100071D01*
X609972Y99861D01*
X610111Y99653D01*
X610255Y99450D01*
X610403Y99250D01*
X610557Y99053D01*
X610715Y98860D01*
X610878Y98672D01*
X611046Y98487D01*
X611218Y98307D01*
X611394Y98130D01*
X611575Y97958D01*
X611759Y97791D01*
X611948Y97628D01*
X612141Y97470D01*
X612338Y97317D01*
X612538Y97168D01*
X612742Y97025D01*
X612949Y96887D01*
X613160Y96753D01*
X613374Y96625D01*
X613591Y96502D01*
X613811Y96385D01*
X614034Y96273D01*
X614259Y96166D01*
X614487Y96065D01*
X614718Y95970D01*
X614950Y95880D01*
X615185Y95796D01*
X615422Y95718D01*
X615660Y95646D01*
X615901Y95579D01*
X616143Y95519D01*
X616386Y95464D01*
X616630Y95416D01*
X616876Y95373D01*
X617123Y95336D01*
X617370Y95306D01*
X617618Y95281D01*
X617867Y95263D01*
X618116Y95251D01*
X618365Y95245D01*
X618615Y95245D01*
X618864Y95251D01*
X619113Y95263D01*
X619362Y95281D01*
X619610Y95306D01*
X619857Y95336D01*
X620104Y95373D01*
X620350Y95416D01*
X620594Y95464D01*
X620837Y95519D01*
X621079Y95579D01*
X621320Y95646D01*
X621558Y95718D01*
X621795Y95796D01*
X622030Y95880D01*
X622262Y95970D01*
X622493Y96065D01*
X622721Y96166D01*
X622946Y96273D01*
X623169Y96385D01*
X623389Y96502D01*
X623606Y96625D01*
X623820Y96753D01*
X624031Y96887D01*
X624238Y97025D01*
X624442Y97168D01*
X624642Y97317D01*
X624839Y97470D01*
X625032Y97628D01*
X625221Y97791D01*
X625405Y97958D01*
X625586Y98130D01*
X625762Y98307D01*
X625934Y98487D01*
X626102Y98672D01*
X626265Y98860D01*
X626423Y99053D01*
X626577Y99250D01*
X626725Y99450D01*
X626869Y99653D01*
X627008Y99861D01*
X627141Y100071D01*
X627270Y100285D01*
X627393Y100502D01*
X627510Y100722D01*
X627623Y100944D01*
X627729Y101170D01*
X627831Y101398D01*
X627926Y101628D01*
X628016Y101860D01*
X628100Y102095D01*
X628179Y102332D01*
X628251Y102570D01*
X628318Y102811D01*
X628379Y103052D01*
X628434Y103296D01*
X628483Y103540D01*
X628525Y103786D01*
X628562Y104032D01*
X628593Y104280D01*
X628618Y104528D01*
X628636Y104777D01*
X628649Y105026D01*
X628655Y105275D01*
X628655Y105524D01*
X628649Y105774D01*
X628638Y106023D01*
X628619Y106271D01*
X628595Y106519D01*
X628308Y106484D01*
X628332Y106243D01*
X628349Y106001D01*
X628361Y105759D01*
X628366Y105517D01*
X628366Y105275D01*
X628360Y105033D01*
X628348Y104791D01*
X628329Y104549D01*
X628305Y104308D01*
X628275Y104068D01*
X628240Y103828D01*
X628198Y103590D01*
X628150Y103352D01*
X628097Y103116D01*
X628038Y102881D01*
X627973Y102648D01*
X627902Y102416D01*
X627826Y102186D01*
X627744Y101958D01*
X627657Y101733D01*
X627564Y101509D01*
X627466Y101288D01*
X627362Y101069D01*
X627253Y100853D01*
X627138Y100639D01*
X627019Y100428D01*
X626894Y100221D01*
X626764Y100016D01*
X626630Y99815D01*
X626490Y99617D01*
X626345Y99423D01*
X626196Y99232D01*
X626043Y99045D01*
X625884Y98862D01*
X625721Y98682D01*
X625554Y98507D01*
X625383Y98336D01*
X625207Y98169D01*
X625028Y98006D01*
X624844Y97848D01*
X624657Y97695D01*
X624466Y97546D01*
X624271Y97402D01*
X624073Y97262D01*
X623872Y97128D01*
X623667Y96999D01*
X623459Y96874D01*
X623249Y96755D01*
X623035Y96641D01*
X622819Y96532D01*
X622600Y96429D01*
X622378Y96330D01*
X622154Y96238D01*
X621928Y96151D01*
X621700Y96069D01*
X621470Y95993D01*
X621238Y95923D01*
X621005Y95859D01*
X620770Y95800D01*
X620534Y95747D01*
X620296Y95700D01*
X620058Y95658D01*
X619818Y95623D01*
X619578Y95593D01*
X619337Y95569D01*
X619095Y95552D01*
X618853Y95540D01*
X618611Y95534D01*
X618369Y95534D01*
X618127Y95540D01*
X617885Y95552D01*
X617643Y95569D01*
X617402Y95593D01*
X617162Y95623D01*
X616922Y95658D01*
X616684Y95700D01*
X616446Y95747D01*
X616210Y95800D01*
X615975Y95859D01*
X615742Y95923D01*
X615510Y95993D01*
X615280Y96069D01*
X615052Y96151D01*
X614826Y96238D01*
X614602Y96330D01*
X614380Y96429D01*
X614161Y96532D01*
X613945Y96641D01*
X613731Y96755D01*
X613521Y96874D01*
X613313Y96999D01*
X613108Y97128D01*
X612907Y97262D01*
X612709Y97402D01*
X612514Y97546D01*
X612323Y97695D01*
X612136Y97848D01*
X611952Y98006D01*
X611773Y98169D01*
X611597Y98336D01*
X611426Y98507D01*
X611259Y98682D01*
X611096Y98862D01*
X610937Y99045D01*
X610784Y99232D01*
X610635Y99423D01*
X610490Y99617D01*
X610350Y99815D01*
X610216Y100016D01*
X610086Y100221D01*
X609961Y100428D01*
X609842Y100639D01*
X609727Y100853D01*
X609618Y101069D01*
X609514Y101288D01*
X609416Y101509D01*
X609323Y101733D01*
X609236Y101958D01*
X609154Y102186D01*
X609078Y102416D01*
X609007Y102648D01*
X608942Y102881D01*
X608883Y103116D01*
X608830Y103352D01*
X608782Y103590D01*
X608740Y103828D01*
X608705Y104068D01*
X608675Y104308D01*
X608651Y104549D01*
X608632Y104791D01*
X608620Y105033D01*
X608614Y105275D01*
X608614Y105517D01*
X608619Y105759D01*
X608631Y106001D01*
X608648Y106243D01*
X608672Y106484D01*
X608958Y106448D01*
X608936Y106214D01*
X608919Y105979D01*
X608908Y105745D01*
X608903Y105510D01*
X608903Y105275D01*
X608909Y105040D01*
X608921Y104805D01*
X608939Y104571D01*
X608962Y104337D01*
X608991Y104103D01*
X609026Y103871D01*
X609067Y103639D01*
X609113Y103409D01*
X609165Y103180D01*
X609222Y102952D01*
X609285Y102725D01*
X609354Y102501D01*
X609428Y102278D01*
X609508Y102056D01*
X609593Y101837D01*
X609683Y101620D01*
X609778Y101405D01*
X609879Y101193D01*
X609985Y100983D01*
X610096Y100776D01*
X610212Y100572D01*
X610333Y100370D01*
X610459Y100172D01*
X610590Y99977D01*
X610726Y99785D01*
X610866Y99596D01*
X611011Y99411D01*
X611160Y99229D01*
X611314Y99052D01*
X611472Y98878D01*
X611634Y98707D01*
X611800Y98541D01*
X611971Y98380D01*
X612145Y98222D01*
X612323Y98068D01*
X612505Y97919D01*
X612690Y97775D01*
X612879Y97635D01*
X613071Y97500D01*
X613267Y97370D01*
X613466Y97244D01*
X613667Y97123D01*
X613872Y97007D01*
X614079Y96897D01*
X614289Y96791D01*
X614502Y96691D01*
X614717Y96596D01*
X614934Y96506D01*
X615153Y96421D01*
X615374Y96342D01*
X615598Y96269D01*
X615823Y96200D01*
X616049Y96138D01*
X616277Y96081D01*
X616507Y96029D01*
X616737Y95984D01*
X616969Y95943D01*
X617201Y95909D01*
X617434Y95880D01*
X617668Y95857D01*
X617903Y95840D01*
X618138Y95828D01*
X618372Y95823D01*
X618608Y95823D01*
X618842Y95828D01*
X619077Y95840D01*
X619312Y95857D01*
X619546Y95880D01*
X619779Y95909D01*
X620011Y95943D01*
X620243Y95984D01*
X620473Y96029D01*
X620703Y96081D01*
X620931Y96138D01*
X621157Y96200D01*
X621382Y96269D01*
X621606Y96342D01*
X621827Y96421D01*
X622046Y96506D01*
X622263Y96596D01*
X622478Y96691D01*
X622691Y96791D01*
X622901Y96897D01*
X623108Y97007D01*
X623313Y97123D01*
X623514Y97244D01*
X623713Y97370D01*
X623909Y97500D01*
X624101Y97635D01*
X624290Y97775D01*
X624475Y97919D01*
X624657Y98068D01*
X624835Y98222D01*
X625009Y98380D01*
X625180Y98541D01*
X625346Y98707D01*
X625508Y98878D01*
X625666Y99052D01*
X625820Y99229D01*
X625969Y99411D01*
X626114Y99596D01*
X626254Y99785D01*
X626390Y99977D01*
X626521Y100172D01*
X626647Y100370D01*
X626768Y100572D01*
X626884Y100776D01*
X626995Y100983D01*
X627101Y101193D01*
X627202Y101405D01*
X627297Y101620D01*
X627387Y101837D01*
X627472Y102056D01*
X627552Y102278D01*
X627626Y102501D01*
X627695Y102725D01*
X627758Y102952D01*
X627815Y103180D01*
X627867Y103409D01*
X627913Y103639D01*
X627954Y103871D01*
X627989Y104103D01*
X628018Y104337D01*
X628041Y104571D01*
X628059Y104805D01*
X628071Y105040D01*
X628077Y105275D01*
X628077Y105510D01*
X628072Y105745D01*
X628061Y105979D01*
X628044Y106214D01*
X628022Y106448D01*
X627735Y106412D01*
X627757Y106185D01*
X627773Y105958D01*
X627783Y105730D01*
X627789Y105502D01*
X627788Y105274D01*
X627782Y105047D01*
X627770Y104819D01*
X627753Y104592D01*
X627730Y104365D01*
X627702Y104139D01*
X627668Y103914D01*
X627628Y103689D01*
X627583Y103466D01*
X627533Y103243D01*
X627477Y103023D01*
X627416Y102803D01*
X627350Y102585D01*
X627278Y102369D01*
X627200Y102154D01*
X627118Y101942D01*
X627030Y101732D01*
X626938Y101523D01*
X626840Y101317D01*
X626737Y101114D01*
X626629Y100913D01*
X626517Y100715D01*
X626399Y100520D01*
X626277Y100328D01*
X626150Y100138D01*
X626019Y99952D01*
X625883Y99769D01*
X625742Y99590D01*
X625598Y99414D01*
X625448Y99241D01*
X625295Y99073D01*
X625138Y98908D01*
X624977Y98747D01*
X624811Y98590D01*
X624642Y98437D01*
X624470Y98289D01*
X624293Y98144D01*
X624114Y98004D01*
X623930Y97869D01*
X623744Y97737D01*
X623554Y97611D01*
X623362Y97489D01*
X623166Y97372D01*
X622968Y97260D01*
X622767Y97153D01*
X622563Y97050D01*
X622357Y96953D01*
X622149Y96861D01*
X621938Y96774D01*
X621725Y96692D01*
X621511Y96615D01*
X621294Y96544D01*
X621076Y96478D01*
X620857Y96417D01*
X620635Y96362D01*
X620413Y96312D01*
X620190Y96268D01*
X619965Y96229D01*
X619740Y96195D01*
X619513Y96167D01*
X619287Y96145D01*
X619059Y96128D01*
X618832Y96117D01*
X618604Y96112D01*
X618376Y96112D01*
X618148Y96117D01*
X617921Y96128D01*
X617693Y96145D01*
X617467Y96167D01*
X617240Y96195D01*
X617015Y96229D01*
X616790Y96268D01*
X616567Y96312D01*
X616345Y96362D01*
X616123Y96417D01*
X615904Y96478D01*
X615686Y96544D01*
X615469Y96615D01*
X615255Y96692D01*
X615042Y96774D01*
X614831Y96861D01*
X614623Y96953D01*
X614417Y97050D01*
X614213Y97153D01*
X614012Y97260D01*
X613814Y97372D01*
X613618Y97489D01*
X613426Y97611D01*
X613236Y97737D01*
X613050Y97869D01*
X612866Y98004D01*
X612687Y98144D01*
X612510Y98289D01*
X612338Y98437D01*
X612169Y98590D01*
X612003Y98747D01*
X611842Y98908D01*
X611685Y99073D01*
X611532Y99241D01*
X611382Y99414D01*
X611238Y99590D01*
X611097Y99769D01*
X610961Y99952D01*
X610830Y100138D01*
X610703Y100328D01*
X610581Y100520D01*
X610463Y100715D01*
X610351Y100913D01*
X610243Y101114D01*
X610140Y101317D01*
X610042Y101523D01*
X609950Y101732D01*
X609862Y101942D01*
X609780Y102154D01*
X609702Y102369D01*
X609630Y102585D01*
X609564Y102803D01*
X609503Y103023D01*
X609447Y103243D01*
X609397Y103466D01*
X609352Y103689D01*
X609312Y103914D01*
X609278Y104139D01*
X609250Y104365D01*
X609227Y104592D01*
X609210Y104819D01*
X609198Y105047D01*
X609192Y105274D01*
X609191Y105502D01*
X609197Y105730D01*
X609207Y105958D01*
X609223Y106185D01*
X609245Y106412D01*
X609532Y106376D01*
X609511Y106156D01*
X609495Y105936D01*
X609485Y105716D01*
X609480Y105495D01*
X609481Y105274D01*
X609487Y105054D01*
X609498Y104833D01*
X609515Y104613D01*
X609538Y104393D01*
X609565Y104174D01*
X609598Y103956D01*
X609636Y103739D01*
X609680Y103522D01*
X609729Y103307D01*
X609783Y103093D01*
X609842Y102881D01*
X609907Y102669D01*
X609977Y102460D01*
X610051Y102252D01*
X610131Y102047D01*
X610216Y101843D01*
X610306Y101641D01*
X610401Y101442D01*
X610501Y101245D01*
X610605Y101050D01*
X610714Y100859D01*
X610828Y100669D01*
X610946Y100483D01*
X611069Y100300D01*
X611197Y100120D01*
X611329Y99943D01*
X611465Y99769D01*
X611605Y99598D01*
X611749Y99431D01*
X611898Y99268D01*
X612050Y99108D01*
X612207Y98953D01*
X612367Y98801D01*
X612530Y98653D01*
X612698Y98509D01*
X612869Y98369D01*
X613043Y98233D01*
X613220Y98102D01*
X613401Y97975D01*
X613584Y97853D01*
X613771Y97735D01*
X613960Y97621D01*
X614153Y97513D01*
X614347Y97409D01*
X614545Y97310D01*
X614744Y97216D01*
X614946Y97126D01*
X615150Y97042D01*
X615356Y96963D01*
X615564Y96888D01*
X615774Y96819D01*
X615985Y96755D01*
X616198Y96696D01*
X616412Y96643D01*
X616627Y96595D01*
X616844Y96552D01*
X617061Y96514D01*
X617280Y96482D01*
X617499Y96455D01*
X617718Y96433D01*
X617938Y96417D01*
X618159Y96406D01*
X618380Y96401D01*
X618600Y96401D01*
X618821Y96406D01*
X619042Y96417D01*
X619262Y96433D01*
X619481Y96455D01*
X619700Y96482D01*
X619919Y96514D01*
X620136Y96552D01*
X620353Y96595D01*
X620568Y96643D01*
X620782Y96696D01*
X620995Y96755D01*
X621206Y96819D01*
X621416Y96888D01*
X621624Y96963D01*
X621830Y97042D01*
X622034Y97126D01*
X622236Y97216D01*
X622435Y97310D01*
X622633Y97409D01*
X622827Y97513D01*
X623020Y97621D01*
X623209Y97735D01*
X623396Y97853D01*
X623579Y97975D01*
X623760Y98102D01*
X623937Y98233D01*
X624111Y98369D01*
X624282Y98509D01*
X624450Y98653D01*
X624613Y98801D01*
X624773Y98953D01*
X624930Y99108D01*
X625082Y99268D01*
X625231Y99431D01*
X625375Y99598D01*
X625515Y99769D01*
X625651Y99943D01*
X625783Y100120D01*
X625911Y100300D01*
X626034Y100483D01*
X626152Y100669D01*
X626266Y100859D01*
X626375Y101050D01*
X626479Y101245D01*
X626579Y101442D01*
X626674Y101641D01*
X626764Y101843D01*
X626849Y102047D01*
X626929Y102252D01*
X627003Y102460D01*
X627073Y102669D01*
X627138Y102881D01*
X627197Y103093D01*
X627251Y103307D01*
X627300Y103522D01*
X627344Y103739D01*
X627382Y103956D01*
X627415Y104174D01*
X627442Y104393D01*
X627465Y104613D01*
X627482Y104833D01*
X627493Y105054D01*
X627499Y105274D01*
X627500Y105495D01*
X627495Y105716D01*
X627485Y105936D01*
X627469Y106156D01*
X627448Y106376D01*
D12*
X618490Y99695D03*
D13*
X549342Y308058D02*
X549342Y319752D01*
X543495Y319752D01*
X541546Y317803D01*
X541546Y313905D01*
X543495Y311956D01*
X549342Y311956D01*
X545444Y311956D02*
X541546Y308058D01*
X531801Y308058D02*
X531801Y319752D01*
X537648Y313905D01*
X529852Y313905D01*
X525954Y310007D02*
X525954Y317803D01*
X524005Y319752D01*
X520107Y319752D01*
X518158Y317803D01*
X518158Y310007D01*
X520107Y308058D01*
X524005Y308058D01*
X525954Y310007D01*
X518158Y317803D01*
D14*
X545816Y431444D02*
X545816Y435940D01*
X543568Y435940D01*
X542819Y435191D01*
X542819Y433692D01*
X543568Y432943D01*
X545816Y432943D01*
X544317Y432943D02*
X542819Y431444D01*
X538964Y431444D02*
X538964Y435940D01*
X541212Y433692D01*
X538215Y433692D01*
X536608Y434441D02*
X535110Y435940D01*
X535110Y431444D01*
X536608Y431444D02*
X533611Y431444D01*
D13*
X219994Y162502D02*
X219994Y150808D01*
X223892Y162502D02*
X216096Y162502D01*
X212198Y158604D02*
X208300Y162502D01*
X208300Y150808D01*
X212198Y150808D02*
X204402Y150808D01*
X200504Y162502D02*
X192708Y162502D01*
X200504Y162502D02*
X200504Y156655D01*
X196606Y158604D01*
X194657Y158604D01*
X192708Y156655D01*
X192708Y152757D01*
X194657Y150808D01*
X198555Y150808D01*
X200504Y152757D01*
X119094Y98202D02*
X119094Y86508D01*
X122992Y98202D02*
X115196Y98202D01*
X111298Y94304D02*
X107400Y98202D01*
X107400Y86508D01*
X111298Y86508D02*
X103502Y86508D01*
X95706Y96253D02*
X91808Y98202D01*
X95706Y96253D02*
X99604Y92355D01*
X99604Y88457D01*
X97655Y86508D01*
X93757Y86508D01*
X91808Y88457D01*
X91808Y90406D01*
X93757Y92355D01*
X99604Y92355D01*
X485594Y198308D02*
X485594Y210002D01*
X489492Y210002D02*
X481696Y210002D01*
X477798Y206104D02*
X473900Y210002D01*
X473900Y198308D01*
X477798Y198308D02*
X470002Y198308D01*
X466104Y210002D02*
X458308Y210002D01*
X458308Y208053D01*
X466104Y200257D01*
X466104Y198308D01*
X387994Y199008D02*
X387994Y210702D01*
X391892Y210702D02*
X384096Y210702D01*
X380198Y206804D02*
X376300Y210702D01*
X376300Y199008D01*
X380198Y199008D02*
X372402Y199008D01*
X368504Y208753D02*
X366555Y210702D01*
X362657Y210702D01*
X360708Y208753D01*
X360708Y206804D01*
X362657Y204855D01*
X360708Y202906D01*
X360708Y200957D01*
X362657Y199008D01*
X366555Y199008D01*
X368504Y200957D01*
X368504Y202906D01*
X366555Y204855D01*
X368504Y206804D01*
X368504Y208753D01*
X366555Y204855D02*
X362657Y204855D01*
X323394Y145602D02*
X323394Y133908D01*
X327292Y145602D02*
X319496Y145602D01*
X315598Y141704D02*
X311700Y145602D01*
X311700Y133908D01*
X315598Y133908D02*
X307802Y133908D01*
X303904Y135857D02*
X301955Y133908D01*
X298057Y133908D01*
X296108Y135857D01*
X296108Y143653D01*
X298057Y145602D01*
X301955Y145602D01*
X303904Y143653D01*
X303904Y141704D01*
X301955Y139755D01*
X296108Y139755D01*
X303294Y195608D02*
X303294Y207302D01*
X307192Y207302D02*
X299396Y207302D01*
X295498Y195608D02*
X287702Y195608D01*
X295498Y195608D02*
X287702Y203404D01*
X287702Y205353D01*
X289651Y207302D01*
X293549Y207302D01*
X295498Y205353D01*
X283804Y205353D02*
X283804Y197557D01*
X283804Y205353D02*
X281855Y207302D01*
X277957Y207302D01*
X276008Y205353D01*
X276008Y197557D01*
X277957Y195608D01*
X281855Y195608D01*
X283804Y197557D01*
X276008Y205353D01*
X167294Y217408D02*
X167294Y229102D01*
X171192Y229102D02*
X163396Y229102D01*
X159498Y217408D02*
X151702Y217408D01*
X159498Y217408D02*
X151702Y225204D01*
X151702Y227153D01*
X153651Y229102D01*
X157549Y229102D01*
X159498Y227153D01*
X147804Y225204D02*
X143906Y229102D01*
X143906Y217408D01*
X147804Y217408D02*
X140008Y217408D01*
X121294Y140102D02*
X121294Y128408D01*
X125192Y140102D02*
X117396Y140102D01*
X113498Y128408D02*
X105702Y128408D01*
X113498Y128408D02*
X105702Y136204D01*
X105702Y138153D01*
X107651Y140102D01*
X111549Y140102D01*
X113498Y138153D01*
X101804Y128408D02*
X94008Y128408D01*
X101804Y128408D02*
X94008Y136204D01*
X94008Y138153D01*
X95957Y140102D01*
X99855Y140102D01*
X101804Y138153D01*
X424394Y164308D02*
X424394Y176002D01*
X428292Y176002D02*
X420496Y176002D01*
X416598Y164308D02*
X408802Y164308D01*
X416598Y164308D02*
X408802Y172104D01*
X408802Y174053D01*
X410751Y176002D01*
X414649Y176002D01*
X416598Y174053D01*
X404904Y174053D02*
X402955Y176002D01*
X399057Y176002D01*
X397108Y174053D01*
X397108Y172104D01*
X399057Y170155D01*
X401006Y170155D01*
X399057Y170155D02*
X397108Y168206D01*
X397108Y166257D01*
X399057Y164308D01*
X402955Y164308D01*
X404904Y166257D01*
X103094Y166508D02*
X103094Y178202D01*
X106992Y178202D02*
X99196Y178202D01*
X95298Y166508D02*
X87502Y166508D01*
X95298Y166508D02*
X87502Y174304D01*
X87502Y176253D01*
X89451Y178202D01*
X93349Y178202D01*
X95298Y176253D01*
X77757Y178202D02*
X77757Y166508D01*
X83604Y172355D02*
X77757Y178202D01*
X75808Y172355D02*
X83604Y172355D01*
X188994Y107702D02*
X188994Y96008D01*
X192892Y107702D02*
X185096Y107702D01*
X181198Y103804D02*
X177300Y107702D01*
X177300Y96008D01*
X181198Y96008D02*
X173402Y96008D01*
X163657Y96008D02*
X163657Y107702D01*
X169504Y101855D01*
X161708Y101855D01*
X232694Y84902D02*
X232694Y73208D01*
X236592Y84902D02*
X228796Y84902D01*
X224898Y73208D02*
X217102Y73208D01*
X224898Y73208D02*
X217102Y81004D01*
X217102Y82953D01*
X219051Y84902D01*
X222949Y84902D01*
X224898Y82953D01*
X213204Y84902D02*
X205408Y84902D01*
X205408Y82953D01*
X213204Y75157D01*
X213204Y73208D01*
M02*
