G04 EAGLE Gerber RS-274X export*
G75*
%MOMM*%
%FSLAX34Y34*%
%LPD*%
%INSilkscreen Bottom*%
%IPPOS*%
%AMOC8*
5,1,8,0,0,1.08239X$1,22.5*%
G01*
%ADD10C,0.254000*%


D10*
X662827Y118916D02*
X664489Y117254D01*
X664489Y113931D01*
X662827Y112270D01*
X656181Y112270D01*
X654520Y113931D01*
X654520Y117254D01*
X656181Y118916D01*
X654520Y125441D02*
X654520Y128764D01*
X656181Y130425D01*
X659504Y130425D01*
X661166Y128764D01*
X661166Y125441D01*
X659504Y123780D01*
X656181Y123780D01*
X654520Y125441D01*
X651197Y135290D02*
X661166Y135290D01*
X661166Y140274D01*
X659504Y141935D01*
X656181Y141935D01*
X654520Y140274D01*
X654520Y135290D01*
X656181Y146799D02*
X661166Y146799D01*
X656181Y146799D02*
X654520Y148461D01*
X654520Y153445D01*
X652859Y153445D02*
X661166Y153445D01*
X652859Y153445D02*
X651197Y151784D01*
X651197Y150122D01*
X654520Y158309D02*
X661166Y158309D01*
X657843Y158309D02*
X661166Y161632D01*
X661166Y163294D01*
X661166Y167901D02*
X661166Y169562D01*
X654520Y169562D01*
X654520Y167901D02*
X654520Y171224D01*
X664489Y169562D02*
X666150Y169562D01*
X651197Y178897D02*
X651197Y180558D01*
X652859Y182220D01*
X661166Y182220D01*
X661166Y177235D01*
X659504Y175574D01*
X656181Y175574D01*
X654520Y177235D01*
X654520Y182220D01*
X654520Y187084D02*
X664489Y187084D01*
X661166Y188745D02*
X659504Y187084D01*
X661166Y188745D02*
X661166Y192068D01*
X659504Y193729D01*
X654520Y193729D01*
X656181Y200255D02*
X662827Y200255D01*
X656181Y200255D02*
X654520Y201916D01*
X661166Y201916D02*
X661166Y198594D01*
X654520Y217777D02*
X654520Y224422D01*
X654520Y217777D02*
X661166Y224422D01*
X662827Y224422D01*
X664489Y222761D01*
X664489Y219438D01*
X662827Y217777D01*
X662827Y229286D02*
X656181Y229286D01*
X662827Y229286D02*
X664489Y230948D01*
X664489Y234271D01*
X662827Y235932D01*
X656181Y235932D01*
X654520Y234271D01*
X654520Y230948D01*
X656181Y229286D01*
X662827Y235932D01*
X654520Y240796D02*
X654520Y247442D01*
X654520Y240796D02*
X661166Y247442D01*
X662827Y247442D01*
X664489Y245781D01*
X664489Y242458D01*
X662827Y240796D01*
X654520Y252306D02*
X654520Y258952D01*
X654520Y252306D02*
X661166Y258952D01*
X662827Y258952D01*
X664489Y257290D01*
X664489Y253967D01*
X662827Y252306D01*
X645739Y112270D02*
X635770Y112270D01*
X640754Y112270D02*
X640754Y118916D01*
X635770Y118916D02*
X645739Y118916D01*
X645739Y123780D02*
X637431Y123780D01*
X635770Y125441D01*
X635770Y128764D01*
X637431Y130425D01*
X645739Y130425D01*
X645739Y135290D02*
X635770Y135290D01*
X645739Y135290D02*
X645739Y140274D01*
X644077Y141935D01*
X640754Y141935D01*
X639093Y140274D01*
X639093Y135290D01*
X639093Y138612D02*
X635770Y141935D01*
X635770Y146799D02*
X645739Y146799D01*
X635770Y146799D02*
X635770Y153445D01*
X645739Y158309D02*
X645739Y164955D01*
X645739Y158309D02*
X635770Y158309D01*
X635770Y164955D01*
X640754Y161632D02*
X640754Y158309D01*
X644077Y169819D02*
X645739Y169819D01*
X644077Y169819D02*
X640754Y173142D01*
X644077Y176465D01*
X645739Y176465D01*
X640754Y173142D02*
X635770Y173142D01*
X635770Y192839D02*
X645739Y192839D01*
X645739Y197823D01*
X644077Y199484D01*
X640754Y199484D01*
X639093Y197823D01*
X639093Y192839D01*
X639093Y196162D02*
X635770Y199484D01*
X645739Y204349D02*
X645739Y210994D01*
X645739Y204349D02*
X635770Y204349D01*
X635770Y210994D01*
X640754Y207671D02*
X640754Y204349D01*
X645739Y220843D02*
X644077Y222504D01*
X645739Y220843D02*
X645739Y217520D01*
X644077Y215858D01*
X642416Y215858D01*
X640754Y217520D01*
X640754Y220843D01*
X639093Y222504D01*
X637431Y222504D01*
X635770Y220843D01*
X635770Y217520D01*
X637431Y215858D01*
X645739Y227368D02*
X645739Y234014D01*
X645739Y227368D02*
X635770Y227368D01*
X635770Y234014D01*
X640754Y230691D02*
X640754Y227368D01*
X642416Y238878D02*
X635770Y238878D01*
X642416Y238878D02*
X645739Y242201D01*
X642416Y245524D01*
X635770Y245524D01*
X640754Y245524D02*
X640754Y238878D01*
X635770Y250388D02*
X645739Y250388D01*
X645739Y255372D01*
X644077Y257033D01*
X640754Y257033D01*
X639093Y255372D01*
X639093Y250388D01*
X639093Y253711D02*
X635770Y257033D01*
X645739Y266882D02*
X644077Y268543D01*
X645739Y266882D02*
X645739Y263559D01*
X644077Y261898D01*
X637431Y261898D01*
X635770Y263559D01*
X635770Y266882D01*
X637431Y268543D01*
X635770Y273407D02*
X645739Y273407D01*
X640754Y273407D02*
X640754Y280053D01*
X635770Y280053D02*
X645739Y280053D01*
X645739Y296427D02*
X635770Y296427D01*
X635770Y303073D01*
X635770Y307937D02*
X645739Y307937D01*
X635770Y307937D02*
X635770Y314582D01*
X645739Y324431D02*
X644077Y326092D01*
X645739Y324431D02*
X645739Y321108D01*
X644077Y319447D01*
X637431Y319447D01*
X635770Y321108D01*
X635770Y324431D01*
X637431Y326092D01*
X626989Y112270D02*
X617020Y112270D01*
X622004Y112270D02*
X623666Y113931D01*
X623666Y117254D01*
X622004Y118916D01*
X617020Y118916D01*
X618681Y123780D02*
X623666Y123780D01*
X618681Y123780D02*
X617020Y125441D01*
X617020Y130425D01*
X623666Y130425D01*
X623666Y135290D02*
X617020Y135290D01*
X620343Y135290D02*
X623666Y138612D01*
X623666Y140274D01*
X626989Y144881D02*
X626989Y146543D01*
X617020Y146543D01*
X617020Y148204D02*
X617020Y144881D01*
X617020Y154216D02*
X617020Y157539D01*
X617020Y154216D02*
X618681Y152554D01*
X622004Y152554D01*
X623666Y154216D01*
X623666Y157539D01*
X622004Y159200D01*
X620343Y159200D01*
X620343Y152554D01*
X618681Y164064D02*
X623666Y164064D01*
X618681Y164064D02*
X617020Y165726D01*
X617020Y170710D01*
X615359Y170710D02*
X623666Y170710D01*
X615359Y170710D02*
X613697Y169048D01*
X613697Y167387D01*
X617020Y175574D02*
X623666Y175574D01*
X620343Y175574D02*
X623666Y178897D01*
X623666Y180558D01*
X617020Y186827D02*
X617020Y190150D01*
X617020Y186827D02*
X618681Y185165D01*
X622004Y185165D01*
X623666Y186827D01*
X623666Y190150D01*
X622004Y191811D01*
X620343Y191811D01*
X620343Y185165D01*
X617020Y196675D02*
X617020Y201660D01*
X618681Y203321D01*
X620343Y201660D01*
X620343Y198337D01*
X622004Y196675D01*
X623666Y198337D01*
X623666Y203321D01*
X617020Y209847D02*
X617020Y213169D01*
X617020Y209847D02*
X618681Y208185D01*
X622004Y208185D01*
X623666Y209847D01*
X623666Y213169D01*
X622004Y214831D01*
X620343Y214831D01*
X620343Y208185D01*
X617020Y219695D02*
X623666Y219695D01*
X620343Y219695D02*
X623666Y223018D01*
X623666Y224679D01*
X623666Y230948D02*
X623666Y235932D01*
X623666Y230948D02*
X622004Y229286D01*
X618681Y229286D01*
X617020Y230948D01*
X617020Y235932D01*
X617020Y240796D02*
X626989Y240796D01*
X623666Y242458D02*
X622004Y240796D01*
X623666Y242458D02*
X623666Y245780D01*
X622004Y247442D01*
X617020Y247442D01*
X617020Y252306D02*
X618681Y252306D01*
X618681Y253967D01*
X617020Y253967D01*
X617020Y252306D01*
X623666Y259722D02*
X623666Y264707D01*
X623666Y259722D02*
X622004Y258061D01*
X618681Y258061D01*
X617020Y259722D01*
X617020Y264707D01*
X617020Y271232D02*
X617020Y274555D01*
X618681Y276216D01*
X622004Y276216D01*
X623666Y274555D01*
X623666Y271232D01*
X622004Y269571D01*
X618681Y269571D01*
X617020Y271232D01*
X617020Y281081D02*
X623666Y281081D01*
X623666Y282742D01*
X622004Y284403D01*
X617020Y284403D01*
X622004Y284403D02*
X623666Y286065D01*
X622004Y287726D01*
X617020Y287726D01*
X608239Y112270D02*
X598270Y112270D01*
X608239Y112270D02*
X608239Y117254D01*
X606577Y118916D01*
X604916Y118916D01*
X603254Y117254D01*
X601593Y118916D01*
X599931Y118916D01*
X598270Y117254D01*
X598270Y112270D01*
X603254Y112270D02*
X603254Y117254D01*
X598270Y123780D02*
X608239Y123780D01*
X598270Y123780D02*
X598270Y130425D01*
X608239Y135290D02*
X608239Y141935D01*
X608239Y135290D02*
X598270Y135290D01*
X598270Y141935D01*
X603254Y138612D02*
X603254Y135290D01*
X603254Y146799D02*
X603254Y153445D01*
X598270Y158309D02*
X608239Y158309D01*
X608239Y164955D01*
X603254Y161632D02*
X603254Y158309D01*
X598270Y169819D02*
X608239Y169819D01*
X608239Y174803D01*
X606577Y176465D01*
X603254Y176465D01*
X601593Y174803D01*
X601593Y169819D01*
X608239Y186313D02*
X606577Y187975D01*
X608239Y186313D02*
X608239Y182990D01*
X606577Y181329D01*
X599931Y181329D01*
X598270Y182990D01*
X598270Y186313D01*
X599931Y187975D01*
X603254Y187975D01*
X603254Y184652D01*
X604916Y192839D02*
X598270Y192839D01*
X604916Y192839D02*
X608239Y196162D01*
X604916Y199484D01*
X598270Y199484D01*
X603254Y199484D02*
X603254Y192839D01*
X608239Y215858D02*
X598270Y215858D01*
X598270Y220843D01*
X599931Y222504D01*
X606577Y222504D01*
X608239Y220843D01*
X608239Y215858D01*
X608239Y227368D02*
X608239Y234014D01*
X608239Y227368D02*
X598270Y227368D01*
X598270Y234014D01*
X603254Y230691D02*
X603254Y227368D01*
X601593Y238878D02*
X608239Y238878D01*
X601593Y238878D02*
X598270Y242201D01*
X601593Y245524D01*
X608239Y245524D01*
X608239Y261898D02*
X598270Y261898D01*
X608239Y261898D02*
X608239Y266882D01*
X606577Y268543D01*
X604916Y268543D01*
X603254Y266882D01*
X601593Y268543D01*
X599931Y268543D01*
X598270Y266882D01*
X598270Y261898D01*
X603254Y261898D02*
X603254Y266882D01*
X608239Y275069D02*
X608239Y278392D01*
X608239Y275069D02*
X606577Y273407D01*
X599931Y273407D01*
X598270Y275069D01*
X598270Y278392D01*
X599931Y280053D01*
X606577Y280053D01*
X608239Y278392D01*
X604916Y284917D02*
X598270Y284917D01*
X604916Y284917D02*
X608239Y288240D01*
X604916Y291563D01*
X598270Y291563D01*
X603254Y291563D02*
X603254Y284917D01*
X598270Y296427D02*
X608239Y296427D01*
X608239Y301411D01*
X606577Y303073D01*
X603254Y303073D01*
X601593Y301411D01*
X601593Y296427D01*
X601593Y299750D02*
X598270Y303073D01*
X598270Y307937D02*
X608239Y307937D01*
X598270Y307937D02*
X598270Y312921D01*
X599931Y314582D01*
X606577Y314582D01*
X608239Y312921D01*
X608239Y307937D01*
X604916Y330956D02*
X608239Y334279D01*
X598270Y334279D01*
X598270Y330956D02*
X598270Y337602D01*
X598270Y342466D02*
X599931Y342466D01*
X599931Y344128D01*
X598270Y344128D01*
X598270Y342466D01*
X599931Y348221D02*
X606577Y348221D01*
X608239Y349883D01*
X608239Y353205D01*
X606577Y354867D01*
X599931Y354867D01*
X598270Y353205D01*
X598270Y349883D01*
X599931Y348221D01*
X606577Y354867D01*
M02*
