G04 EAGLE Gerber RS-274X export*
G75*
%MOMM*%
%FSLAX34Y34*%
%LPD*%
%INSoldermask Top*%
%IPPOS*%
%AMOC8*
5,1,8,0,0,1.08239X$1,22.5*%
G01*
%ADD10C,3.225800*%
%ADD11R,0.650800X0.550800*%
%ADD12R,0.550800X0.650800*%
%ADD13R,1.050800X0.750800*%
%ADD14R,0.650800X0.750800*%
%ADD15R,0.750800X1.550800*%
%ADD16R,0.762000X1.549400*%
%ADD17C,0.650800*%
%ADD18C,0.660400*%
%ADD19R,0.650800X0.650800*%
%ADD20R,1.550800X1.550800*%
%ADD21C,0.838200*%
%ADD22C,1.117600*%
%ADD23R,0.950800X0.330800*%
%ADD24C,0.330800*%
%ADD25R,5.650800X5.650800*%
%ADD26R,0.850800X1.950800*%
%ADD27R,2.050800X2.550800*%
%ADD28C,1.450800*%
%ADD29C,1.850800*%
%ADD30R,0.450800X0.450800*%
%ADD31R,1.050800X0.850800*%
%ADD32R,1.150800X0.550800*%
%ADD33R,1.150800X0.300800*%
%ADD34R,1.250800X1.750800*%
%ADD35R,1.550800X1.750800*%
%ADD36R,1.050800X1.950800*%
%ADD37C,1.150800*%
%ADD38R,0.550800X0.850800*%
%ADD39R,1.350800X1.550800*%
%ADD40R,1.550800X1.350800*%
%ADD41R,1.050800X1.150800*%
%ADD42R,1.150800X1.050800*%
%ADD43R,1.120800X2.210800*%
%ADD44R,0.685800X1.320800*%
%ADD45R,0.950800X1.050800*%
%ADD46R,0.600800X0.350800*%
%ADD47R,0.350800X0.600800*%
%ADD48R,1.580800X1.580800*%
%ADD49C,1.580800*%
%ADD50P,1.814519X8X22.500000*%
%ADD51C,0.950800*%
%ADD52C,0.800800*%
%ADD53C,1.550800*%

G36*
X245008Y306802D02*
X245008Y306802D01*
X245017Y306801D01*
X245105Y306822D01*
X245195Y306840D01*
X245202Y306845D01*
X245210Y306847D01*
X245283Y306901D01*
X245359Y306953D01*
X245363Y306960D01*
X245370Y306965D01*
X245417Y307043D01*
X245466Y307120D01*
X245467Y307129D01*
X245472Y307136D01*
X245499Y307300D01*
X245499Y328400D01*
X245498Y328408D01*
X245499Y328417D01*
X245478Y328505D01*
X245460Y328595D01*
X245455Y328602D01*
X245453Y328610D01*
X245399Y328683D01*
X245347Y328759D01*
X245340Y328763D01*
X245335Y328770D01*
X245257Y328817D01*
X245180Y328866D01*
X245171Y328867D01*
X245164Y328872D01*
X245000Y328899D01*
X233149Y328899D01*
X233149Y379200D01*
X233148Y379205D01*
X233149Y379209D01*
X233148Y379212D01*
X233149Y379217D01*
X233128Y379305D01*
X233110Y379395D01*
X233105Y379402D01*
X233103Y379410D01*
X233049Y379483D01*
X232997Y379559D01*
X232990Y379563D01*
X232985Y379570D01*
X232907Y379617D01*
X232830Y379666D01*
X232821Y379667D01*
X232814Y379672D01*
X232650Y379699D01*
X147350Y379699D01*
X147342Y379698D01*
X147333Y379699D01*
X147245Y379678D01*
X147155Y379660D01*
X147148Y379655D01*
X147140Y379653D01*
X147067Y379599D01*
X146991Y379547D01*
X146987Y379540D01*
X146980Y379535D01*
X146933Y379457D01*
X146884Y379380D01*
X146883Y379371D01*
X146878Y379364D01*
X146851Y379200D01*
X146851Y328899D01*
X135000Y328899D01*
X134992Y328898D01*
X134983Y328899D01*
X134895Y328878D01*
X134805Y328860D01*
X134798Y328855D01*
X134790Y328853D01*
X134717Y328799D01*
X134641Y328747D01*
X134637Y328740D01*
X134630Y328735D01*
X134583Y328657D01*
X134534Y328580D01*
X134533Y328571D01*
X134528Y328564D01*
X134501Y328400D01*
X134501Y307300D01*
X134502Y307292D01*
X134501Y307283D01*
X134522Y307195D01*
X134540Y307105D01*
X134545Y307098D01*
X134547Y307090D01*
X134601Y307017D01*
X134653Y306941D01*
X134660Y306937D01*
X134665Y306930D01*
X134743Y306883D01*
X134820Y306834D01*
X134829Y306833D01*
X134836Y306828D01*
X135000Y306801D01*
X245000Y306801D01*
X245008Y306802D01*
G37*
D10*
X152400Y508000D03*
X139700Y25400D03*
X660400Y76200D03*
X660400Y355600D03*
D11*
X80500Y173000D03*
X89500Y173000D03*
X80500Y140000D03*
X89500Y140000D03*
X89500Y182000D03*
X80500Y182000D03*
D12*
X106000Y173500D03*
X106000Y182500D03*
D13*
X108500Y141000D03*
D14*
X125500Y141000D03*
X125500Y161000D03*
X106500Y161000D03*
D15*
X562300Y290000D03*
X551300Y290000D03*
X540300Y290000D03*
X529300Y290000D03*
X518300Y290000D03*
X507300Y290000D03*
X496300Y290000D03*
X485300Y290000D03*
D16*
X485300Y150000D03*
X496300Y150000D03*
X507300Y150000D03*
X518300Y150000D03*
X529300Y150000D03*
X540300Y150000D03*
X551300Y150000D03*
X562300Y150000D03*
D17*
X554300Y242500D03*
X542300Y242500D03*
X530300Y242500D03*
X518300Y242500D03*
X506300Y242500D03*
X494300Y242500D03*
X482300Y242500D03*
X554300Y227500D03*
X542300Y227500D03*
X530300Y227500D03*
X518300Y227500D03*
X506300Y227500D03*
X494300Y227500D03*
X482300Y227500D03*
X554300Y212500D03*
X542300Y212500D03*
X530300Y212500D03*
X518300Y212500D03*
X506300Y212500D03*
X494300Y212500D03*
X482300Y212500D03*
X554300Y197500D03*
X542300Y197500D03*
X530300Y197500D03*
X518300Y197500D03*
X506300Y197500D03*
X494300Y197500D03*
X482300Y197500D03*
X554300Y182500D03*
X542300Y182500D03*
X530300Y182500D03*
X518300Y182500D03*
X506300Y182500D03*
X494300Y182500D03*
X482300Y182500D03*
D18*
X518300Y167500D03*
X506300Y167500D03*
X494300Y167500D03*
D19*
X482300Y167500D03*
D20*
X574300Y253750D03*
X574300Y231250D03*
X574300Y208750D03*
X574300Y186250D03*
D17*
X554300Y257500D03*
X542300Y257500D03*
X530300Y257500D03*
X518300Y257500D03*
X506300Y257500D03*
X494300Y257500D03*
X482300Y257500D03*
D12*
X499600Y110000D03*
X499600Y101000D03*
X470000Y405500D03*
X470000Y414500D03*
D11*
X570500Y335000D03*
X579500Y335000D03*
X570500Y405000D03*
X579500Y405000D03*
X445100Y410200D03*
X454100Y410200D03*
X445100Y400200D03*
X454100Y400200D03*
X440500Y390000D03*
X449500Y390000D03*
X440500Y380000D03*
X449500Y380000D03*
X440500Y370000D03*
X449500Y370000D03*
X570500Y375000D03*
X579500Y375000D03*
D19*
X570500Y365000D03*
X579500Y365000D03*
X536000Y82500D03*
X536000Y73500D03*
X523000Y75500D03*
X523000Y66500D03*
X511000Y73500D03*
X511000Y64500D03*
X505000Y410500D03*
X505000Y419500D03*
X485000Y410500D03*
X485000Y419500D03*
X495000Y410500D03*
X495000Y419500D03*
X395000Y224500D03*
X395000Y215500D03*
X454260Y108380D03*
X454260Y117380D03*
X429300Y189800D03*
X420300Y189800D03*
D11*
X333000Y116900D03*
X324000Y116900D03*
X422100Y168700D03*
X431100Y168700D03*
X407000Y108100D03*
X416000Y108100D03*
D12*
X351900Y202000D03*
X351900Y211000D03*
D21*
X207100Y140550D03*
X207100Y127850D03*
X194400Y140550D03*
X194400Y127850D03*
X181700Y140550D03*
X181700Y127850D03*
D22*
X219800Y134200D03*
X169000Y124040D03*
X169000Y144360D03*
D23*
X473300Y388800D03*
D24*
X470200Y383800D02*
X476400Y383800D01*
X476400Y378800D02*
X470200Y378800D01*
X470200Y373800D02*
X476400Y373800D01*
X476400Y368800D02*
X470200Y368800D01*
X470200Y363800D02*
X476400Y363800D01*
X476400Y358800D02*
X470200Y358800D01*
X470200Y353800D02*
X476400Y353800D01*
X476400Y348800D02*
X470200Y348800D01*
X470200Y343800D02*
X476400Y343800D01*
X476400Y338800D02*
X470200Y338800D01*
X470200Y333800D02*
X476400Y333800D01*
X480300Y329900D02*
X480300Y323700D01*
X485300Y323700D02*
X485300Y329900D01*
X490300Y329900D02*
X490300Y323700D01*
X495300Y323700D02*
X495300Y329900D01*
X500300Y329900D02*
X500300Y323700D01*
X505300Y323700D02*
X505300Y329900D01*
X510300Y329900D02*
X510300Y323700D01*
X515300Y323700D02*
X515300Y329900D01*
X520300Y329900D02*
X520300Y323700D01*
X525300Y323700D02*
X525300Y329900D01*
X530300Y329900D02*
X530300Y323700D01*
X535300Y323700D02*
X535300Y329900D01*
X539200Y333800D02*
X545400Y333800D01*
X545400Y338800D02*
X539200Y338800D01*
X539200Y343800D02*
X545400Y343800D01*
X545400Y348800D02*
X539200Y348800D01*
X539200Y353800D02*
X545400Y353800D01*
X545400Y358800D02*
X539200Y358800D01*
X539200Y363800D02*
X545400Y363800D01*
X545400Y368800D02*
X539200Y368800D01*
X539200Y373800D02*
X545400Y373800D01*
X545400Y378800D02*
X539200Y378800D01*
X539200Y383800D02*
X545400Y383800D01*
X545400Y388800D02*
X539200Y388800D01*
X535300Y392700D02*
X535300Y398900D01*
X530300Y398900D02*
X530300Y392700D01*
X525300Y392700D02*
X525300Y398900D01*
X520300Y398900D02*
X520300Y392700D01*
X515300Y392700D02*
X515300Y398900D01*
X510300Y398900D02*
X510300Y392700D01*
X505300Y392700D02*
X505300Y398900D01*
X500300Y398900D02*
X500300Y392700D01*
X495300Y392700D02*
X495300Y398900D01*
X490300Y398900D02*
X490300Y392700D01*
X485300Y392700D02*
X485300Y398900D01*
X480300Y398900D02*
X480300Y392700D01*
D25*
X507800Y361300D03*
D19*
X449500Y360000D03*
X440500Y360000D03*
X80000Y65500D03*
X80000Y74500D03*
D26*
X370750Y247300D03*
X383450Y247300D03*
X396150Y247300D03*
X408850Y247300D03*
X408850Y326300D03*
X396150Y326300D03*
X383450Y326300D03*
X370750Y326300D03*
D19*
X254000Y65500D03*
X254000Y74500D03*
X30000Y65500D03*
X30000Y74500D03*
D11*
X350500Y394600D03*
X359500Y394600D03*
X359500Y444600D03*
X350500Y444600D03*
X399500Y444600D03*
X390500Y444600D03*
X390500Y394600D03*
X399500Y394600D03*
X310500Y394600D03*
X319500Y394600D03*
X319500Y444600D03*
X310500Y444600D03*
D19*
X185000Y65500D03*
X185000Y74500D03*
X145000Y65500D03*
X145000Y74500D03*
X157000Y65500D03*
X157000Y74500D03*
D27*
X30000Y397500D03*
X92000Y397500D03*
X92000Y512500D03*
X30000Y512500D03*
D28*
X30000Y455000D03*
D29*
X75000Y455000D03*
D30*
X516000Y46000D03*
X516000Y52000D03*
X510000Y52000D03*
X510000Y46000D03*
X494754Y438128D03*
X494754Y432128D03*
X500754Y432128D03*
X500754Y438128D03*
D31*
X366000Y410100D03*
X366000Y429100D03*
X344000Y419600D03*
X406000Y410100D03*
X406000Y429100D03*
X384000Y419600D03*
D32*
X64500Y182000D03*
X64500Y174000D03*
D33*
X64500Y162500D03*
X64500Y152500D03*
X64500Y147500D03*
X64500Y137500D03*
D32*
X64500Y118000D03*
X64500Y126000D03*
D33*
X64500Y132500D03*
X64500Y142500D03*
X64500Y157500D03*
X64500Y167500D03*
D34*
X59000Y201500D03*
D35*
X17000Y201500D03*
X17000Y98500D03*
D34*
X59000Y98500D03*
D17*
X54000Y178900D03*
X54000Y121100D03*
D32*
X64500Y332000D03*
X64500Y324000D03*
D33*
X64500Y312500D03*
X64500Y302500D03*
X64500Y297500D03*
X64500Y287500D03*
D32*
X64500Y268000D03*
X64500Y276000D03*
D33*
X64500Y282500D03*
X64500Y292500D03*
X64500Y307500D03*
X64500Y317500D03*
D34*
X59000Y351500D03*
D35*
X17000Y351500D03*
X17000Y248500D03*
D34*
X59000Y248500D03*
D17*
X54000Y328900D03*
X54000Y271100D03*
D19*
X89500Y163000D03*
X80500Y163000D03*
X89500Y127000D03*
X80500Y127000D03*
X94500Y285000D03*
X85500Y285000D03*
X94500Y310000D03*
X85500Y310000D03*
X94500Y350000D03*
X85500Y350000D03*
X89500Y95000D03*
X80500Y95000D03*
D12*
X560000Y429500D03*
X560000Y420500D03*
D19*
X520000Y429500D03*
X520000Y420500D03*
D36*
X220000Y47500D03*
X250000Y47500D03*
D37*
X238500Y20000D02*
X231500Y20000D01*
D36*
X15000Y47500D03*
X45000Y47500D03*
D37*
X33500Y20000D02*
X26500Y20000D01*
D36*
X65000Y47500D03*
X95000Y47500D03*
D37*
X83500Y20000D02*
X76500Y20000D01*
D36*
X170000Y47500D03*
X200000Y47500D03*
D37*
X188500Y20000D02*
X181500Y20000D01*
D19*
X235000Y74500D03*
X235000Y65500D03*
X20000Y74500D03*
X20000Y65500D03*
X195000Y74500D03*
X195000Y65500D03*
X70000Y74500D03*
X70000Y65500D03*
D38*
X426500Y111020D03*
X438500Y111020D03*
D39*
X129500Y120000D03*
X110500Y120000D03*
X185500Y475000D03*
X204500Y475000D03*
D40*
X515000Y114500D03*
X515000Y95500D03*
D39*
X565500Y349800D03*
X584500Y349800D03*
D12*
X40000Y65500D03*
X40000Y74500D03*
X90000Y65500D03*
X90000Y74500D03*
X385000Y355500D03*
X385000Y364500D03*
D19*
X604500Y435000D03*
X595500Y435000D03*
D41*
X451500Y430700D03*
X468500Y430700D03*
D42*
X535000Y113500D03*
X535000Y96500D03*
X370000Y351500D03*
X370000Y368500D03*
X575400Y420000D03*
X575400Y437000D03*
D41*
X566500Y320000D03*
X583500Y320000D03*
X566500Y390000D03*
X583500Y390000D03*
D43*
X215400Y450000D03*
X190000Y450000D03*
X164600Y450000D03*
D44*
X190000Y350000D03*
D39*
X244500Y475000D03*
X225500Y475000D03*
D31*
X328000Y410100D03*
X328000Y429100D03*
X302000Y419600D03*
D45*
X533500Y428500D03*
X533500Y411500D03*
X546500Y411500D03*
X546500Y428500D03*
D46*
X406250Y128800D03*
X406250Y133800D03*
X406250Y138800D03*
X406250Y143800D03*
X406250Y148800D03*
X406250Y153800D03*
X406250Y158800D03*
X406250Y163800D03*
X406250Y168800D03*
X406250Y173800D03*
X406250Y178800D03*
X406250Y183800D03*
D47*
X400000Y190050D03*
X395000Y190050D03*
X390000Y190050D03*
X385000Y190050D03*
X380000Y190050D03*
X375000Y190050D03*
X370000Y190050D03*
X365000Y190050D03*
X360000Y190050D03*
X355000Y190050D03*
X350000Y190050D03*
X345000Y190050D03*
D46*
X338750Y183800D03*
X338750Y178800D03*
X338750Y173800D03*
X338750Y168800D03*
X338750Y163800D03*
X338750Y158800D03*
X338750Y153800D03*
X338750Y148800D03*
X338750Y143800D03*
X338750Y138800D03*
X338750Y133800D03*
X338750Y128800D03*
D47*
X345000Y122550D03*
X350000Y122550D03*
X355000Y122550D03*
X360000Y122550D03*
X365000Y122550D03*
X370000Y122550D03*
X375000Y122550D03*
X380000Y122550D03*
X385000Y122550D03*
X390000Y122550D03*
X395000Y122550D03*
X400000Y122550D03*
D25*
X372500Y156300D03*
D11*
X533200Y315100D03*
X542200Y315100D03*
D48*
X457200Y482600D03*
D49*
X457200Y508000D03*
X482600Y482600D03*
X482600Y508000D03*
X508000Y482600D03*
X508000Y508000D03*
X533400Y482600D03*
X533400Y508000D03*
X558800Y482600D03*
X558800Y508000D03*
X584200Y482600D03*
X584200Y508000D03*
X609600Y482600D03*
X609600Y508000D03*
X635000Y482600D03*
X635000Y508000D03*
D48*
X279400Y25400D03*
D49*
X279400Y50800D03*
X304800Y25400D03*
X304800Y50800D03*
X330200Y25400D03*
X330200Y50800D03*
X355600Y25400D03*
X355600Y50800D03*
X381000Y25400D03*
X381000Y50800D03*
X406400Y25400D03*
X406400Y50800D03*
X431800Y25400D03*
X431800Y50800D03*
X457200Y25400D03*
X457200Y50800D03*
D48*
X416560Y508000D03*
D49*
X391160Y508000D03*
X365760Y508000D03*
X340360Y508000D03*
X314960Y508000D03*
X289560Y508000D03*
X264160Y508000D03*
X238760Y508000D03*
X213360Y508000D03*
X187960Y508000D03*
D48*
X457200Y457200D03*
D49*
X482600Y457200D03*
X508000Y457200D03*
X533400Y457200D03*
X558800Y457200D03*
X584200Y457200D03*
X609600Y457200D03*
X635000Y457200D03*
D48*
X508000Y25400D03*
D49*
X533400Y25400D03*
X558800Y25400D03*
X584200Y25400D03*
X609600Y25400D03*
X635000Y25400D03*
D48*
X330200Y304800D03*
D49*
X330200Y279400D03*
X330200Y254000D03*
X330200Y228600D03*
D48*
X152400Y266700D03*
D49*
X177800Y266700D03*
X203200Y266700D03*
X228600Y266700D03*
D48*
X317500Y469900D03*
D49*
X342900Y469900D03*
X368300Y469900D03*
X393700Y469900D03*
D19*
X50000Y74500D03*
X50000Y65500D03*
X109000Y74500D03*
X109000Y65500D03*
X374600Y214200D03*
X365600Y214200D03*
X497000Y45500D03*
X497000Y54500D03*
D12*
X482600Y39300D03*
X482600Y30300D03*
X434000Y434500D03*
X434000Y425500D03*
D19*
X409800Y439100D03*
X409800Y448100D03*
D48*
X457200Y88900D03*
D49*
X431800Y88900D03*
X406400Y88900D03*
X381000Y88900D03*
D50*
X434340Y152400D03*
X434340Y127000D03*
X103900Y366200D03*
X355600Y88900D03*
X105100Y331400D03*
X80000Y202100D03*
X635000Y431800D03*
D51*
X43300Y226500D03*
X96600Y111500D03*
X86600Y320800D03*
X112300Y286800D03*
X132000Y97000D03*
X413000Y200000D03*
D48*
X279400Y228600D03*
D49*
X279400Y254000D03*
X279400Y279400D03*
X279400Y304800D03*
X279400Y330200D03*
X279400Y355600D03*
X279400Y381000D03*
X279400Y406400D03*
X279400Y431800D03*
X279400Y457200D03*
D50*
X39300Y372000D03*
X64700Y372000D03*
D39*
X164500Y475000D03*
X145500Y475000D03*
D19*
X270500Y480000D03*
X279500Y480000D03*
D52*
X203800Y429200D03*
X229100Y428200D03*
X253400Y450100D03*
X494500Y70900D03*
X273800Y73500D03*
X459134Y129100D03*
X455334Y142600D03*
D53*
X306500Y276200D03*
X314600Y340900D03*
X334950Y93151D03*
X271900Y101700D03*
X123800Y190400D03*
X98200Y216000D03*
X118600Y414700D03*
D52*
X552500Y358700D03*
X461200Y368900D03*
X126200Y334300D03*
X80800Y272500D03*
M02*
