G04 EAGLE Gerber RS-274X export*
G75*
%MOMM*%
%FSLAX34Y34*%
%LPD*%
%INSolderpaste Top*%
%IPPOS*%
%AMOC8*
5,1,8,0,0,1.08239X$1,22.5*%
G01*
%ADD10R,0.574600X0.474600*%
%ADD11R,0.474600X0.574600*%
%ADD12R,0.974600X0.674600*%
%ADD13R,0.574600X0.674600*%
%ADD14R,0.674600X1.474600*%
%ADD15R,0.685800X1.473200*%
%ADD16C,0.574600*%
%ADD17C,0.584200*%
%ADD18R,0.574600X0.574600*%
%ADD19R,1.474600X1.474600*%
%ADD20C,0.762000*%
%ADD21R,0.874600X0.254600*%
%ADD22C,0.254600*%
%ADD23R,4.584000X4.584000*%
%ADD24R,0.774600X1.874600*%
%ADD25R,1.974600X2.474600*%
%ADD26R,0.374600X0.374600*%
%ADD27R,0.974600X0.774600*%
%ADD28R,1.174600X1.674600*%
%ADD29R,1.074600X0.224600*%
%ADD30R,1.474600X1.674600*%
%ADD31R,1.074600X0.474600*%
%ADD32R,0.974600X1.874600*%
%ADD33C,1.074600*%
%ADD34R,0.474600X0.774600*%
%ADD35R,1.274600X1.474600*%
%ADD36R,1.474600X1.274600*%
%ADD37R,0.974600X1.074600*%
%ADD38R,1.074600X0.974600*%
%ADD39R,1.044600X2.134600*%
%ADD40R,0.609600X1.244600*%
%ADD41R,0.874600X0.974600*%
%ADD42R,0.524600X0.274600*%
%ADD43R,0.274600X0.524600*%
%ADD44R,5.574600X5.574600*%

G36*
X244008Y307802D02*
X244008Y307802D01*
X244017Y307801D01*
X244105Y307822D01*
X244195Y307840D01*
X244202Y307845D01*
X244210Y307847D01*
X244283Y307901D01*
X244359Y307953D01*
X244363Y307960D01*
X244370Y307965D01*
X244417Y308043D01*
X244466Y308120D01*
X244467Y308129D01*
X244472Y308136D01*
X244499Y308300D01*
X244499Y327400D01*
X244498Y327408D01*
X244499Y327417D01*
X244478Y327505D01*
X244460Y327595D01*
X244455Y327602D01*
X244453Y327610D01*
X244399Y327683D01*
X244347Y327759D01*
X244340Y327763D01*
X244335Y327770D01*
X244257Y327817D01*
X244180Y327866D01*
X244171Y327867D01*
X244164Y327872D01*
X244000Y327899D01*
X232149Y327899D01*
X232149Y378200D01*
X232148Y378206D01*
X232149Y378212D01*
X232148Y378214D01*
X232149Y378217D01*
X232128Y378305D01*
X232110Y378395D01*
X232105Y378402D01*
X232103Y378410D01*
X232049Y378483D01*
X231997Y378559D01*
X231990Y378563D01*
X231985Y378570D01*
X231907Y378617D01*
X231830Y378666D01*
X231821Y378667D01*
X231814Y378672D01*
X231650Y378699D01*
X148350Y378699D01*
X148342Y378698D01*
X148333Y378699D01*
X148245Y378678D01*
X148155Y378660D01*
X148148Y378655D01*
X148140Y378653D01*
X148067Y378599D01*
X147991Y378547D01*
X147987Y378540D01*
X147980Y378535D01*
X147933Y378457D01*
X147884Y378380D01*
X147883Y378371D01*
X147878Y378364D01*
X147851Y378200D01*
X147851Y327899D01*
X136000Y327899D01*
X135992Y327898D01*
X135983Y327899D01*
X135895Y327878D01*
X135805Y327860D01*
X135798Y327855D01*
X135790Y327853D01*
X135717Y327799D01*
X135641Y327747D01*
X135637Y327740D01*
X135630Y327735D01*
X135583Y327657D01*
X135534Y327580D01*
X135533Y327571D01*
X135528Y327564D01*
X135501Y327400D01*
X135501Y308300D01*
X135502Y308292D01*
X135501Y308283D01*
X135522Y308195D01*
X135540Y308105D01*
X135545Y308098D01*
X135547Y308090D01*
X135601Y308017D01*
X135653Y307941D01*
X135660Y307937D01*
X135665Y307930D01*
X135743Y307883D01*
X135820Y307834D01*
X135829Y307833D01*
X135836Y307828D01*
X136000Y307801D01*
X244000Y307801D01*
X244008Y307802D01*
G37*
D10*
X89500Y173000D03*
X80500Y173000D03*
X80500Y140000D03*
X89500Y140000D03*
X89500Y182000D03*
X80500Y182000D03*
D11*
X106000Y173500D03*
X106000Y182500D03*
D12*
X108500Y141000D03*
D13*
X125500Y141000D03*
X125500Y161000D03*
X106500Y161000D03*
D14*
X562300Y290000D03*
X551300Y290000D03*
X540300Y290000D03*
X529300Y290000D03*
X518300Y290000D03*
X507300Y290000D03*
X496300Y290000D03*
X485300Y290000D03*
D15*
X485300Y150000D03*
X496300Y150000D03*
X507300Y150000D03*
X518300Y150000D03*
X529300Y150000D03*
X540300Y150000D03*
X551300Y150000D03*
X562300Y150000D03*
D16*
X554300Y242500D03*
X542300Y242500D03*
X530300Y242500D03*
X518300Y242500D03*
X506300Y242500D03*
X494300Y242500D03*
X482300Y242500D03*
X554300Y227500D03*
X542300Y227500D03*
X530300Y227500D03*
X518300Y227500D03*
X506300Y227500D03*
X494300Y227500D03*
X482300Y227500D03*
X554300Y212500D03*
X542300Y212500D03*
X530300Y212500D03*
X518300Y212500D03*
X506300Y212500D03*
X494300Y212500D03*
X482300Y212500D03*
X554300Y197500D03*
X542300Y197500D03*
X530300Y197500D03*
X518300Y197500D03*
X506300Y197500D03*
X494300Y197500D03*
X482300Y197500D03*
X554300Y182500D03*
X542300Y182500D03*
X530300Y182500D03*
X518300Y182500D03*
X506300Y182500D03*
X494300Y182500D03*
X482300Y182500D03*
D17*
X518300Y167500D03*
X506300Y167500D03*
X494300Y167500D03*
D18*
X482300Y167500D03*
D19*
X574300Y253750D03*
X574300Y231250D03*
X574300Y208750D03*
X574300Y186250D03*
D16*
X554300Y257500D03*
X542300Y257500D03*
X530300Y257500D03*
X518300Y257500D03*
X506300Y257500D03*
X494300Y257500D03*
X482300Y257500D03*
D11*
X499600Y110000D03*
X499600Y101000D03*
X470000Y405500D03*
X470000Y414500D03*
D10*
X570500Y335000D03*
X579500Y335000D03*
X570500Y405000D03*
X579500Y405000D03*
X445100Y410200D03*
X454100Y410200D03*
X445100Y400200D03*
X454100Y400200D03*
X440500Y390000D03*
X449500Y390000D03*
X440500Y380000D03*
X449500Y380000D03*
X440500Y370000D03*
X449500Y370000D03*
X570500Y375000D03*
X579500Y375000D03*
D18*
X570500Y365000D03*
X579500Y365000D03*
X536000Y82500D03*
X536000Y73500D03*
X523000Y75500D03*
X523000Y66500D03*
X511000Y73500D03*
X511000Y64500D03*
X505000Y410500D03*
X505000Y419500D03*
X485000Y410500D03*
X485000Y419500D03*
X495000Y410500D03*
X495000Y419500D03*
X395000Y224500D03*
X395000Y215500D03*
X454260Y108380D03*
X454260Y117380D03*
X429300Y189800D03*
X420300Y189800D03*
D10*
X333000Y116900D03*
X324000Y116900D03*
X422100Y168700D03*
X431100Y168700D03*
X407000Y108100D03*
X416000Y108100D03*
D11*
X341900Y202000D03*
X341900Y211000D03*
D20*
X207100Y140550D03*
X207100Y127850D03*
X194400Y140550D03*
X194400Y127850D03*
X181700Y140550D03*
X181700Y127850D03*
D21*
X473300Y388800D03*
D22*
X470200Y383800D02*
X476400Y383800D01*
X476400Y378800D02*
X470200Y378800D01*
X470200Y373800D02*
X476400Y373800D01*
X476400Y368800D02*
X470200Y368800D01*
X470200Y363800D02*
X476400Y363800D01*
X476400Y358800D02*
X470200Y358800D01*
X470200Y353800D02*
X476400Y353800D01*
X476400Y348800D02*
X470200Y348800D01*
X470200Y343800D02*
X476400Y343800D01*
X476400Y338800D02*
X470200Y338800D01*
X470200Y333800D02*
X476400Y333800D01*
X480300Y329900D02*
X480300Y323700D01*
X485300Y323700D02*
X485300Y329900D01*
X490300Y329900D02*
X490300Y323700D01*
X495300Y323700D02*
X495300Y329900D01*
X500300Y329900D02*
X500300Y323700D01*
X505300Y323700D02*
X505300Y329900D01*
X510300Y329900D02*
X510300Y323700D01*
X515300Y323700D02*
X515300Y329900D01*
X520300Y329900D02*
X520300Y323700D01*
X525300Y323700D02*
X525300Y329900D01*
X530300Y329900D02*
X530300Y323700D01*
X535300Y323700D02*
X535300Y329900D01*
X539200Y333800D02*
X545400Y333800D01*
X545400Y338800D02*
X539200Y338800D01*
X539200Y343800D02*
X545400Y343800D01*
X545400Y348800D02*
X539200Y348800D01*
X539200Y353800D02*
X545400Y353800D01*
X545400Y358800D02*
X539200Y358800D01*
X539200Y363800D02*
X545400Y363800D01*
X545400Y368800D02*
X539200Y368800D01*
X539200Y373800D02*
X545400Y373800D01*
X545400Y378800D02*
X539200Y378800D01*
X539200Y383800D02*
X545400Y383800D01*
X545400Y388800D02*
X539200Y388800D01*
X535300Y392700D02*
X535300Y398900D01*
X530300Y398900D02*
X530300Y392700D01*
X525300Y392700D02*
X525300Y398900D01*
X520300Y398900D02*
X520300Y392700D01*
X515300Y392700D02*
X515300Y398900D01*
X510300Y398900D02*
X510300Y392700D01*
X505300Y392700D02*
X505300Y398900D01*
X500300Y398900D02*
X500300Y392700D01*
X495300Y392700D02*
X495300Y398900D01*
X490300Y398900D02*
X490300Y392700D01*
X485300Y392700D02*
X485300Y398900D01*
X480300Y398900D02*
X480300Y392700D01*
D23*
X507800Y361300D03*
D18*
X449500Y360000D03*
X440500Y360000D03*
X80000Y65500D03*
X80000Y74500D03*
D24*
X370750Y247300D03*
X383450Y247300D03*
X396150Y247300D03*
X408850Y247300D03*
X408850Y326300D03*
X396150Y326300D03*
X383450Y326300D03*
X370750Y326300D03*
D18*
X259000Y65500D03*
X259000Y74500D03*
X30000Y65500D03*
X30000Y74500D03*
D10*
X350500Y394600D03*
X359500Y394600D03*
X359500Y444600D03*
X350500Y444600D03*
X399500Y444600D03*
X390500Y444600D03*
X390500Y394600D03*
X399500Y394600D03*
X310500Y394600D03*
X319500Y394600D03*
X319500Y444600D03*
X310500Y444600D03*
D18*
X185000Y65500D03*
X185000Y74500D03*
X145000Y65500D03*
X145000Y74500D03*
X157000Y65500D03*
X157000Y74500D03*
D25*
X30000Y392500D03*
X92000Y392500D03*
X30000Y507500D03*
X92000Y507500D03*
D26*
X516000Y46000D03*
X516000Y52000D03*
X510000Y52000D03*
X510000Y46000D03*
X494754Y438128D03*
X494754Y432128D03*
X500754Y432128D03*
X500754Y438128D03*
D27*
X368000Y410100D03*
X368000Y429100D03*
X342000Y419600D03*
X408000Y410100D03*
X408000Y429100D03*
X382000Y419600D03*
D28*
X59000Y201500D03*
D29*
X64500Y152500D03*
X64500Y147500D03*
X64500Y137500D03*
D28*
X59000Y98500D03*
D30*
X17000Y201500D03*
X17000Y98500D03*
D29*
X64500Y142500D03*
X64500Y132500D03*
X64500Y157500D03*
X64500Y162500D03*
X64500Y167500D03*
D31*
X64500Y174000D03*
X64500Y182000D03*
X64500Y126000D03*
X64500Y118000D03*
D28*
X59000Y351500D03*
D29*
X64500Y302500D03*
X64500Y297500D03*
X64500Y287500D03*
D28*
X59000Y248500D03*
D30*
X17000Y351500D03*
X17000Y248500D03*
D29*
X64500Y292500D03*
X64500Y282500D03*
X64500Y307500D03*
X64500Y312500D03*
X64500Y317500D03*
D31*
X64500Y324000D03*
X64500Y332000D03*
X64500Y276000D03*
X64500Y268000D03*
D18*
X89500Y163000D03*
X80500Y163000D03*
X89500Y127000D03*
X80500Y127000D03*
X94500Y285000D03*
X85500Y285000D03*
X94500Y310000D03*
X85500Y310000D03*
X94500Y350000D03*
X85500Y350000D03*
X89500Y95000D03*
X80500Y95000D03*
D11*
X560000Y429500D03*
X560000Y420500D03*
D18*
X520000Y429500D03*
X520000Y420500D03*
D32*
X225000Y47500D03*
X255000Y47500D03*
D33*
X243500Y20000D02*
X236500Y20000D01*
D32*
X15000Y47500D03*
X45000Y47500D03*
D33*
X33500Y20000D02*
X26500Y20000D01*
D32*
X65000Y47500D03*
X95000Y47500D03*
D33*
X83500Y20000D02*
X76500Y20000D01*
D32*
X175000Y47500D03*
X205000Y47500D03*
D33*
X193500Y20000D02*
X186500Y20000D01*
D18*
X235000Y74500D03*
X235000Y65500D03*
X20000Y74500D03*
X20000Y65500D03*
X195000Y74500D03*
X195000Y65500D03*
X70000Y74500D03*
X70000Y65500D03*
D34*
X438500Y111020D03*
X426500Y111020D03*
D35*
X129500Y120000D03*
X110500Y120000D03*
X164500Y475000D03*
X145500Y475000D03*
X185500Y475000D03*
X204500Y475000D03*
D36*
X515000Y114500D03*
X515000Y95500D03*
D35*
X565500Y349800D03*
X584500Y349800D03*
D11*
X40000Y65500D03*
X40000Y74500D03*
X90000Y65500D03*
X90000Y74500D03*
X385000Y355500D03*
X385000Y364500D03*
D18*
X604500Y435000D03*
X595500Y435000D03*
D37*
X451500Y430700D03*
X468500Y430700D03*
D38*
X535000Y113500D03*
X535000Y96500D03*
X370000Y351500D03*
X370000Y368500D03*
X575400Y420000D03*
X575400Y437000D03*
D37*
X566500Y320000D03*
X583500Y320000D03*
X566500Y390000D03*
X583500Y390000D03*
D39*
X215400Y450000D03*
X190000Y450000D03*
X164600Y450000D03*
D40*
X190000Y350000D03*
D35*
X244500Y475000D03*
X225500Y475000D03*
D27*
X328000Y410100D03*
X328000Y429100D03*
X302000Y419600D03*
D41*
X533500Y428500D03*
X533500Y411500D03*
X546500Y411500D03*
X546500Y428500D03*
D42*
X406250Y128800D03*
X406250Y133800D03*
X406250Y138800D03*
X406250Y143800D03*
X406250Y148800D03*
X406250Y153800D03*
X406250Y158800D03*
X406250Y163800D03*
X406250Y168800D03*
X406250Y173800D03*
X406250Y178800D03*
X406250Y183800D03*
D43*
X400000Y190050D03*
X395000Y190050D03*
X390000Y190050D03*
X385000Y190050D03*
X380000Y190050D03*
X375000Y190050D03*
X370000Y190050D03*
X365000Y190050D03*
X360000Y190050D03*
X355000Y190050D03*
X350000Y190050D03*
X345000Y190050D03*
D42*
X338750Y183800D03*
X338750Y178800D03*
X338750Y173800D03*
X338750Y168800D03*
X338750Y163800D03*
X338750Y158800D03*
X338750Y153800D03*
X338750Y148800D03*
X338750Y143800D03*
X338750Y138800D03*
X338750Y133800D03*
X338750Y128800D03*
D43*
X345000Y122550D03*
X350000Y122550D03*
X355000Y122550D03*
X360000Y122550D03*
X365000Y122550D03*
X370000Y122550D03*
X375000Y122550D03*
X380000Y122550D03*
X385000Y122550D03*
X390000Y122550D03*
X395000Y122550D03*
X400000Y122550D03*
D44*
X372500Y156300D03*
D10*
X527200Y315100D03*
X536200Y315100D03*
D18*
X50000Y74500D03*
X50000Y65500D03*
X109000Y74500D03*
X109000Y65500D03*
X374600Y214200D03*
X365600Y214200D03*
X497000Y45500D03*
X497000Y54500D03*
D11*
X482600Y39300D03*
X482600Y30300D03*
X434000Y434500D03*
X434000Y425500D03*
D18*
X409800Y442100D03*
X409800Y451100D03*
M02*
