G04 EAGLE Gerber RS-274X export*
G75*
%MOMM*%
%FSLAX34Y34*%
%LPD*%
%INSoldermask Bottom*%
%IPPOS*%
%AMOC8*
5,1,8,0,0,1.08239X$1,22.5*%
G01*
%ADD10C,3.225800*%
%ADD11C,1.117600*%
%ADD12C,1.450800*%
%ADD13C,1.850800*%
%ADD14C,0.650800*%
%ADD15R,1.580800X1.580800*%
%ADD16C,1.580800*%
%ADD17P,1.814519X8X22.500000*%
%ADD18R,0.650800X0.650800*%
%ADD19C,2.050800*%
%ADD20C,0.800800*%
%ADD21C,1.550800*%


D10*
X152400Y508000D03*
X139700Y25400D03*
X660400Y76200D03*
X660400Y355600D03*
D11*
X219800Y134200D03*
X169000Y124040D03*
X169000Y144360D03*
D12*
X30000Y455000D03*
D13*
X75000Y455000D03*
D14*
X54000Y178900D03*
X54000Y121100D03*
X54000Y328900D03*
X54000Y271100D03*
D15*
X457200Y482600D03*
D16*
X457200Y508000D03*
X482600Y482600D03*
X482600Y508000D03*
X508000Y482600D03*
X508000Y508000D03*
X533400Y482600D03*
X533400Y508000D03*
X558800Y482600D03*
X558800Y508000D03*
X584200Y482600D03*
X584200Y508000D03*
X609600Y482600D03*
X609600Y508000D03*
X635000Y482600D03*
X635000Y508000D03*
D15*
X279400Y25400D03*
D16*
X279400Y50800D03*
X304800Y25400D03*
X304800Y50800D03*
X330200Y25400D03*
X330200Y50800D03*
X355600Y25400D03*
X355600Y50800D03*
X381000Y25400D03*
X381000Y50800D03*
X406400Y25400D03*
X406400Y50800D03*
X431800Y25400D03*
X431800Y50800D03*
X457200Y25400D03*
X457200Y50800D03*
D15*
X416560Y508000D03*
D16*
X391160Y508000D03*
X365760Y508000D03*
X340360Y508000D03*
X314960Y508000D03*
X289560Y508000D03*
X264160Y508000D03*
X238760Y508000D03*
X213360Y508000D03*
X187960Y508000D03*
D15*
X457200Y457200D03*
D16*
X482600Y457200D03*
X508000Y457200D03*
X533400Y457200D03*
X558800Y457200D03*
X584200Y457200D03*
X609600Y457200D03*
X635000Y457200D03*
D15*
X508000Y25400D03*
D16*
X533400Y25400D03*
X558800Y25400D03*
X584200Y25400D03*
X609600Y25400D03*
X635000Y25400D03*
D15*
X330200Y304800D03*
D16*
X330200Y279400D03*
X330200Y254000D03*
X330200Y228600D03*
D15*
X152400Y266700D03*
D16*
X177800Y266700D03*
X203200Y266700D03*
X228600Y266700D03*
D15*
X317500Y469900D03*
D16*
X342900Y469900D03*
X368300Y469900D03*
X393700Y469900D03*
D15*
X457200Y88900D03*
D16*
X431800Y88900D03*
X406400Y88900D03*
X381000Y88900D03*
D17*
X434340Y152400D03*
X434340Y127000D03*
X103900Y366200D03*
X355600Y88900D03*
X105100Y331400D03*
X80000Y202100D03*
X635000Y431800D03*
D15*
X279400Y228600D03*
D16*
X279400Y254000D03*
X279400Y279400D03*
X279400Y304800D03*
X279400Y330200D03*
X279400Y355600D03*
X279400Y381000D03*
X279400Y406400D03*
X279400Y431800D03*
X279400Y457200D03*
D18*
X539500Y301000D03*
X530500Y301000D03*
D17*
X39300Y372000D03*
X64700Y372000D03*
D18*
X532720Y441340D03*
X523720Y441340D03*
D19*
X240000Y150000D03*
X140000Y90000D03*
X447500Y200900D03*
X410000Y200000D03*
X314200Y161300D03*
X319400Y190000D03*
X152800Y199100D03*
X142700Y131400D03*
X447000Y173100D03*
X122900Y168400D03*
X199600Y118000D03*
X220000Y100000D03*
D20*
X203800Y429200D03*
X229100Y428200D03*
X253400Y450100D03*
X494500Y70900D03*
X273800Y73500D03*
X459134Y129100D03*
X455334Y142600D03*
D21*
X306500Y276200D03*
X314600Y340900D03*
X334950Y93151D03*
X271900Y101700D03*
X123800Y190400D03*
X98200Y216000D03*
X118600Y414700D03*
D20*
X552500Y358700D03*
X461200Y368900D03*
X126200Y334300D03*
X80800Y272500D03*
M02*
