<?xml version="1.0" encoding="UTF-8" standalone="no"?>
<!-- Creator: fig2dev Version 3.2.7b WinFIG version 1 (2020-01-08) -->
<!-- CreationDate: 2023-02-27 14:36:02 -->
<!-- Magnification: 3 -->
<svg	xmlns="http://www.w3.org/2000/svg"
	xmlns:xlink="http://www.w3.org/1999/xlink"
	width="815pt" height="1045pt"
	viewBox="-12 -12 4524 5804">
<desc>Generated by graphviz version 3.0.0 (20220226.1711)</desc>
<desc>Title: clockstretch</desc>
<desc>Pages: 1</desc>
<g fill="none">
<!-- Line -->
<polygon points=" 0,5780 0,0 4500,0 4500,5780" fill="#ffffff"
	stroke="#fffffe" stroke-width="8px"/>
<!-- Line -->
<!-- s0 -->
<polygon points=" 3560,80 80,80 80,1300 3560,1300"
	stroke="#000000" stroke-width="8px"/>
<!-- Text -->
<text xml:space="preserve" x="2040" y="5528" fill="#000000" font-family="Times" font-style="normal" font-weight="normal" font-size="144" text-anchor="middle">clockOutReg &lt;= ~clockOutReg</text>
<!-- Text -->
<text xml:space="preserve" x="2040" y="5268" fill="#000000" font-family="Times" font-style="normal" font-weight="normal" font-size="144" text-anchor="middle">clockCount &lt;= 8'b0</text>
<!-- Line -->
<!-- s1 -->
<polygon points=" 1740,2280 660,2280 660,3240 1740,3240"
	stroke="#000000" stroke-width="8px"/>
<!-- Text -->
<text xml:space="preserve" x="2040" y="4728" fill="#000000" font-family="Times" font-style="normal" font-weight="normal" font-size="144" text-anchor="middle">Reset</text>
<!-- Text -->
<text xml:space="preserve" x="2040" y="4468" fill="#000000" font-family="Times" font-style="normal" font-weight="normal" font-size="144" text-anchor="middle">2</text>
<!-- Line -->
<!-- s2 -->
<polygon points=" 3670,4220 410,4220 410,5700 3670,5700"
	stroke="#000000" stroke-width="8px"/>
<!-- Text -->
<text xml:space="preserve" x="1200" y="2788" fill="#000000" font-family="Times" font-style="normal" font-weight="normal" font-size="144" text-anchor="middle">Interim</text>
<!-- Text -->
<text xml:space="preserve" x="1200" y="2528" fill="#000000" font-family="Times" font-style="normal" font-weight="normal" font-size="144" text-anchor="middle">1</text>
<!-- Text -->
<text xml:space="preserve" x="1820" y="1128" fill="#000000" font-family="Times" font-style="normal" font-weight="normal" font-size="144" text-anchor="middle">clockCount &lt;= clockCount + 1'b1</text>
<!-- Text -->
<text xml:space="preserve" x="1820" y="588" fill="#000000" font-family="Times" font-style="normal" font-weight="normal" font-size="144" text-anchor="middle">[Counting]</text>
<!-- Text -->
<text xml:space="preserve" x="1820" y="328" fill="#000000" font-family="Times" font-style="normal" font-weight="normal" font-size="144" text-anchor="middle">0</text>
<!-- Line -->
<polygon points=" 2436,1508 2389,1302 2554,1435" fill="#000000"
	stroke="#000000" stroke-width="8px"/>
<!-- Line -->
<!-- s2-&gt;s0 -->
<polyline points=" 2359,4218 2360,4214 2363,4206 2368,4192 2374,4172 2383,4147 2393,4119 2403,4088
 2413,4058 2423,4028 2432,4000 2441,3974 2449,3949 2456,3927 2463,3905 2469,3885
 2476,3865 2482,3846 2487,3828 2492,3810 2498,3791 2504,3772 2509,3752 2515,3732
 2521,3711 2527,3690 2533,3668 2538,3646 2544,3624 2550,3602 2556,3581 2561,3559
 2566,3538 2571,3517 2576,3497 2581,3477 2586,3458 2590,3438 2594,3419 2599,3399
 2603,3379 2607,3358 2612,3337 2616,3315 2621,3292 2625,3269 2629,3246 2634,3222
 2638,3199 2642,3176 2646,3152 2650,3129 2653,3107 2657,3085 2660,3064 2663,3043
 2666,3022 2668,3002 2671,2981 2673,2960 2676,2939 2678,2917 2681,2895 2683,2872
 2685,2849 2687,2825 2689,2801 2691,2777 2693,2752 2694,2728 2696,2704 2697,2681
 2698,2658 2699,2635 2700,2613 2700,2592 2701,2571 2701,2550 2701,2529 2701,2508
 2701,2487 2700,2465 2700,2443 2699,2420 2698,2396 2697,2372 2696,2348 2695,2324
 2693,2300 2691,2276 2689,2252 2687,2229 2685,2206 2683,2184 2680,2162 2678,2141
 2675,2120 2672,2100 2668,2077 2665,2054 2661,2031 2657,2007 2652,1984 2647,1960
 2643,1936 2638,1912 2633,1888 2628,1866 2623,1844 2618,1823 2614,1804 2610,1786
 2606,1769 2602,1754 2599,1740 2596,1728 2591,1708 2586,1691 2582,1676 2579,1664
 2576,1654 2574,1646 2572,1640 2570,1635 2569,1632 2568,1629 2566,1623 2563,1617
 2561,1610 2558,1604 2556,1598 2553,1592 2551,1586 2548,1579 2545,1573 2543,1567
 2540,1561 2537,1555 2534,1548 2531,1542 2528,1536 2525,1530 2522,1524 2519,1518
 2516,1512 2513,1506 2510,1500 2507,1493 2502,1485 2499,1478 2498,1476"
	stroke="#000000" stroke-width="8px" stroke-linejoin="bevel"/>
<!-- Text -->
<text xml:space="preserve" x="4170" y="728" fill="#000000" font-family="Times" font-style="normal" font-weight="normal" font-size="144" text-anchor="middle">clock</text>
<!-- Line -->
<polygon points=" 1750,4002 1758,4214 1620,4053" fill="#000000"
	stroke="#000000" stroke-width="8px"/>
<!-- Line -->
<!-- s1-&gt;s2 -->
<polyline points=" 1380,3243 1380,3244 1382,3249 1387,3261 1393,3277 1400,3295 1407,3311 1412,3326
 1418,3339 1422,3351 1427,3362 1431,3374 1435,3385 1440,3398 1445,3411 1451,3424
 1456,3438 1461,3451 1466,3464 1471,3476 1475,3488 1480,3500 1485,3512 1490,3525
 1495,3538 1501,3552 1506,3566 1511,3580 1517,3593 1521,3605 1526,3618 1531,3630
 1536,3643 1541,3656 1546,3670 1552,3684 1558,3698 1563,3713 1568,3726 1573,3739
 1578,3751 1582,3762 1586,3772 1590,3783 1595,3795 1599,3807 1604,3819 1609,3831
 1613,3843 1618,3855 1622,3866 1626,3876 1630,3887 1634,3897 1638,3908 1643,3920
 1648,3932 1654,3947 1660,3963 1667,3980 1673,3996 1678,4009 1681,4018 1683,4021
 1683,4022"
	stroke="#000000" stroke-width="8px" stroke-linejoin="bevel"/>
<!-- Text -->
<text xml:space="preserve" x="1690" y="1828" fill="#000000" font-family="Times" font-style="normal" font-weight="normal" font-size="144" text-anchor="middle">clockCount == 8'hf</text>
<!-- Line -->
<polygon points=" 859,2067 870,2278 730,2119" fill="#000000"
	stroke="#000000" stroke-width="8px"/>
<!-- Line -->
<!-- s0-&gt;s1 -->
<polyline points=" 1034,1305 1033,1306 1030,1310 1022,1319 1014,1329 1006,1338 999,1346 993,1353
 988,1360 982,1366 977,1373 971,1380 966,1388 960,1395 954,1403 949,1410 944,1416
 939,1423 934,1430 929,1437 923,1445 918,1453 912,1460 907,1468 903,1475 898,1481
 893,1489 888,1496 883,1505 878,1513 873,1521 869,1528 865,1535 861,1542 856,1549
 852,1557 847,1566 843,1574 838,1582 834,1589 831,1597 827,1604 823,1611 819,1620
 815,1628 811,1637 808,1645 804,1653 801,1661 798,1669 795,1677 792,1686 788,1695
 785,1704 782,1713 780,1722 778,1730 776,1738 773,1747 771,1756 769,1766 768,1775
 766,1784 765,1793 764,1801 763,1809 762,1818 761,1827 760,1837 760,1847 760,1856
 759,1865 759,1873 759,1881 760,1890 760,1899 760,1909 761,1919 762,1928 762,1937
 763,1945 764,1954 765,1962 767,1972 768,1982 770,1991 772,2001 773,2009 775,2018
 777,2026 779,2035 782,2046 785,2059 788,2072 791,2083 793,2089 793,2090"
	stroke="#000000" stroke-width="8px" stroke-linejoin="bevel"/>
<!-- Line -->
<polygon points=" 3776,890 3566,865 3746,753" fill="#000000"
	stroke="#000000" stroke-width="8px"/>
<!-- Line -->
<!-- s0-&gt;s0 -->
<polyline points=" 3566,515 3567,515 3575,517 3591,520 3609,523 3626,526 3641,529 3653,531 3664,534
 3675,536 3686,539 3697,541 3709,544 3720,547 3731,550 3741,553 3750,556 3759,559
 3768,562 3778,565 3787,569 3796,572 3805,576 3813,579 3820,583 3830,587 3839,593
 3849,598 3858,604 3866,609 3873,615 3879,620 3885,626 3892,632 3897,639 3902,645
 3905,651 3908,657 3911,663 3914,670 3915,676 3917,682 3917,688 3918,694 3917,700
 3916,706 3915,711 3914,716 3912,721 3909,726 3906,731 3903,736 3900,741 3896,745
 3892,750 3887,755 3882,759 3878,764 3873,767 3868,771 3863,774 3858,778 3852,782
 3847,785 3841,788 3835,791 3829,794 3822,798 3815,801 3809,804 3802,806 3794,810
 3784,814 3774,818 3766,820 3765,821"
	stroke="#000000" stroke-width="8px" stroke-linejoin="bevel"/>
<!-- Text -->
<text xml:space="preserve" x="1870" y="3768" fill="#000000" font-family="Times" font-style="normal" font-weight="normal" font-size="144" text-anchor="middle">clock</text>
<!-- Text -->
<text xml:space="preserve" x="2950" y="2798" fill="#000000" font-family="Times" font-style="normal" font-weight="normal" font-size="144" text-anchor="middle">clock</text>
</g>
</svg>
