<?xml version="1.0" encoding="UTF-8" standalone="no"?>
<!-- Creator: fig2dev Version 3.2.7b WinFIG version 1 (2020-01-08) -->
<!-- CreationDate: 2023-02-27 14:36:04 -->
<!-- Magnification: 3 -->
<svg	xmlns="http://www.w3.org/2000/svg"
	xmlns:xlink="http://www.w3.org/1999/xlink"
	width="866pt" height="1603pt"
	viewBox="-12 -12 4810 8904">
<desc>Generated by graphviz version 3.0.0 (20220226.1711)</desc>
<desc>Title: pwm</desc>
<desc>Pages: 1</desc>
<g fill="none">
<!-- Line -->
<polygon points=" 0,8880 0,0 4786,0 4786,8880" fill="#ffffff"
	stroke="#fffffe" stroke-width="8px"/>
<!-- Line -->
<!-- s0 -->
<polygon points=" 2706,80 1626,80 1626,1040 2706,1040"
	stroke="#000000" stroke-width="8px"/>
<!-- Text -->
<text xml:space="preserve" x="3466" y="8088" fill="#000000" font-family="Times" font-style="normal" font-weight="normal" font-size="144" text-anchor="middle">4</text>
<!-- Text -->
<text xml:space="preserve" x="2706" y="6408" fill="#000000" font-family="Times" font-style="normal" font-weight="normal" font-size="144" text-anchor="middle">ConfigRam2</text>
<!-- Line -->
<!-- s1 -->
<polygon points=" 1396,2020 176,2020 176,2980 1396,2980"
	stroke="#000000" stroke-width="8px"/>
<!-- Text -->
<text xml:space="preserve" x="2706" y="6148" fill="#000000" font-family="Times" font-style="normal" font-weight="normal" font-size="144" text-anchor="middle">3</text>
<!-- Text -->
<text xml:space="preserve" x="2426" y="4468" fill="#000000" font-family="Times" font-style="normal" font-weight="normal" font-size="144" text-anchor="middle">ConfigRam1</text>
<!-- Line -->
<!-- s2 -->
<polygon points=" 3166,3960 1686,3960 1686,4920 3166,4920"
	stroke="#000000" stroke-width="8px"/>
<!-- Text -->
<text xml:space="preserve" x="2426" y="4208" fill="#000000" font-family="Times" font-style="normal" font-weight="normal" font-size="144" text-anchor="middle">2</text>
<!-- Text -->
<text xml:space="preserve" x="786" y="2528" fill="#000000" font-family="Times" font-style="normal" font-weight="normal" font-size="144" text-anchor="middle">Configure</text>
<!-- Line -->
<!-- s3 -->
<polygon points=" 3446,5900 1966,5900 1966,6860 3446,6860"
	stroke="#000000" stroke-width="8px"/>
<!-- Text -->
<text xml:space="preserve" x="786" y="2268" fill="#000000" font-family="Times" font-style="normal" font-weight="normal" font-size="144" text-anchor="middle">1</text>
<!-- Text -->
<text xml:space="preserve" x="2166" y="588" fill="#000000" font-family="Times" font-style="normal" font-weight="normal" font-size="144" text-anchor="middle">[Idle]</text>
<!-- Line -->
<!-- s4 -->
<polygon points=" 4206,7840 2726,7840 2726,8800 4206,8800"
	stroke="#000000" stroke-width="8px"/>
<!-- Text -->
<text xml:space="preserve" x="2166" y="328" fill="#000000" font-family="Times" font-style="normal" font-weight="normal" font-size="144" text-anchor="middle">0</text>
<!-- Text -->
<text xml:space="preserve" x="3466" y="8348" fill="#000000" font-family="Times" font-style="normal" font-weight="normal" font-size="144" text-anchor="middle">ConfigRam3</text>
<!-- Line -->
<polygon points=" 3271,7624 3280,7836 3141,7676" fill="#000000"
	stroke="#000000" stroke-width="8px"/>
<!-- Line -->
<polygon points=" 2881,829 2712,702 2923,696" fill="#000000"
	stroke="#000000" stroke-width="8px"/>
<!-- Line -->
<!-- s3-&gt;s4 -->
<polyline points=" 2894,6870 2894,6871 2897,6876 2901,6888 2908,6905 2915,6923 2922,6940 2928,6955
 2933,6969 2938,6981 2943,6992 2947,7004 2952,7016 2957,7028 2962,7042 2968,7055
 2973,7069 2978,7082 2984,7095 2989,7108 2993,7120 2998,7132 3003,7144 3008,7157
 3014,7171 3020,7185 3025,7199 3031,7213 3036,7226 3041,7239 3046,7251 3050,7262
 3055,7272 3059,7283 3063,7294 3068,7306 3073,7318 3078,7330 3083,7342 3087,7353
 3091,7364 3096,7375 3100,7385 3105,7397 3110,7410 3115,7423 3121,7437 3126,7451
 3132,7466 3138,7479 3143,7493 3148,7505 3153,7518 3158,7530 3163,7542 3168,7557
 3175,7573 3182,7591 3190,7611 3197,7628 3202,7641 3205,7647 3205,7648"
	stroke="#000000" stroke-width="8px" stroke-linejoin="bevel"/>
<!-- Line -->
<polygon points=" 2677,5688 2637,5896 2539,5708" fill="#000000"
	stroke="#000000" stroke-width="8px"/>
<!-- Text -->
<text xml:space="preserve" x="3316" y="598" fill="#000000" font-family="Times" font-style="normal" font-weight="normal" font-size="144" text-anchor="middle">clock</text>
<!-- Line -->
<!-- s2-&gt;s3 -->
<polyline points=" 2495,4930 2495,4931 2496,4936 2498,4948 2500,4964 2503,4982 2505,4999 2508,5014
 2510,5027 2511,5039 2513,5050 2515,5061 2516,5073 2518,5085 2520,5098 2522,5112
 2524,5125 2526,5138 2528,5151 2529,5163 2531,5175 2533,5186 2535,5199 2537,5211
 2539,5225 2541,5239 2543,5252 2545,5266 2546,5279 2548,5291 2550,5303 2552,5315
 2554,5328 2555,5341 2557,5355 2560,5369 2562,5383 2564,5396 2566,5409 2567,5422
 2569,5434 2571,5446 2573,5459 2575,5472 2577,5485 2579,5499 2581,5513 2583,5527
 2585,5540 2587,5553 2589,5565 2590,5576 2592,5589 2594,5603 2597,5619 2599,5637
 2602,5656 2604,5674 2606,5686 2607,5692 2607,5693"
	stroke="#000000" stroke-width="8px" stroke-linejoin="bevel"/>
<!-- Line -->
<polygon points=" 1947,3759 2025,3956 1841,3850" fill="#000000"
	stroke="#000000" stroke-width="8px"/>
<!-- Text -->
<text xml:space="preserve" x="2036" y="1568" fill="#000000" font-family="Times" font-style="normal" font-weight="normal" font-size="144" text-anchor="middle">counter &gt;= 16'hefff &amp;&amp; ramSafe == 1'b1</text>
<!-- Line -->
<!-- s1-&gt;s2 -->
<polyline points=" 1191,2990 1191,2991 1194,2994 1201,3002 1212,3014 1225,3029 1239,3045 1252,3060
 1264,3074 1274,3086 1284,3097 1292,3107 1301,3117 1310,3127 1319,3137 1328,3148
 1337,3159 1347,3171 1358,3183 1368,3195 1378,3206 1388,3218 1398,3229 1407,3239
 1416,3250 1425,3260 1434,3271 1444,3282 1454,3294 1464,3306 1475,3318 1485,3330
 1496,3343 1506,3354 1516,3366 1525,3377 1534,3387 1543,3398 1553,3409 1563,3420
 1573,3432 1583,3444 1594,3457 1605,3469 1615,3481 1625,3493 1635,3504 1645,3515
 1654,3526 1663,3536 1672,3547 1682,3559 1692,3570 1703,3583 1713,3595 1724,3607
 1734,3619 1745,3631 1754,3642 1763,3653 1773,3663 1782,3674 1791,3685 1801,3696
 1812,3709 1825,3723 1838,3739 1853,3756 1867,3772 1878,3785 1885,3794 1888,3797
 1889,3798"
	stroke="#000000" stroke-width="8px" stroke-linejoin="bevel"/>
<!-- Line -->
<polygon points=" 211,1810 264,2016 95,1888" fill="#000000"
	stroke="#000000" stroke-width="8px"/>
<!-- Text -->
<text xml:space="preserve" x="1956" y="3508" fill="#000000" font-family="Times" font-style="normal" font-weight="normal" font-size="144" text-anchor="middle">clock</text>
<!-- Line -->
<!-- s0-&gt;s1 -->
<polyline points=" 1624,635 1620,636 1613,637 1600,640 1582,644 1561,648 1537,653 1513,658 1490,663
 1469,667 1449,672 1431,676 1414,679 1398,683 1383,686 1368,690 1353,694 1338,697
 1322,701 1306,706 1289,710 1271,715 1254,720 1236,725 1218,730 1200,735 1182,740
 1165,745 1148,751 1132,756 1116,761 1101,766 1085,771 1069,776 1053,782 1036,788
 1019,794 1001,801 983,807 965,814 947,822 929,829 911,836 894,843 877,850 861,857
 846,864 830,871 815,878 799,885 784,893 767,900 751,909 734,917 716,926 699,936
 682,945 665,955 648,964 632,973 616,982 601,992 587,1001 573,1010 559,1019 544,1028
 530,1038 515,1048 500,1059 485,1070 469,1082 454,1093 438,1105 423,1117 408,1129
 394,1141 381,1153 368,1164 355,1176 343,1187 329,1200 315,1214 301,1228 287,1242
 273,1257 259,1272 245,1288 232,1302 220,1317 208,1330 198,1343 188,1355 179,1365
 171,1375 161,1388 153,1400 145,1412 137,1422 131,1433 125,1442 121,1451 117,1458
 114,1466 111,1472 108,1481 105,1490 102,1499 99,1509 96,1519 94,1529 92,1538
 91,1546 89,1555 88,1564 87,1574 87,1584 86,1594 86,1603 86,1612 86,1621 87,1630
 87,1639 88,1648 90,1659 91,1669 93,1678 94,1687 96,1696 98,1705 100,1714 103,1723
 106,1734 109,1744 112,1753 116,1762 119,1771 122,1780 126,1789 131,1800 136,1813
 143,1827 148,1839 151,1845 151,1846"
	stroke="#000000" stroke-width="8px" stroke-linejoin="bevel"/>
<!-- Line -->
<polygon points=" 2918,785 2711,740 2901,646" fill="#000000"
	stroke="#000000" stroke-width="8px"/>
<!-- Text -->
<text xml:space="preserve" x="2836" y="5448" fill="#000000" font-family="Times" font-style="normal" font-weight="normal" font-size="144" text-anchor="middle">clock</text>
<!-- Line -->
<!-- s0-&gt;s0 -->
<polyline points=" 2711,380 2712,380 2720,380 2734,381 2752,382 2768,383 2782,384 2793,385 2804,386
 2814,387 2824,388 2836,390 2847,391 2858,393 2869,395 2879,398 2888,400 2897,402
 2906,404 2916,407 2925,411 2935,414 2944,417 2952,421 2959,424 2966,428 2974,431
 2981,436 2989,440 2996,445 3002,450 3008,455 3014,460 3021,466 3027,473 3034,481
 3040,489 3045,497 3049,505 3053,513 3056,522 3059,531 3061,541 3062,549 3063,557
 3063,563 3063,570 3063,577 3062,584 3061,590 3060,595 3058,602 3055,608 3052,615
 3049,622 3046,627 3042,633 3038,638 3033,644 3028,650 3024,655 3020,658 3015,663
 3010,667 3004,671 2999,675 2994,678 2989,682 2983,685 2977,689 2970,692 2964,695
 2958,698 2952,701 2944,704 2935,708 2924,712 2917,714 2916,715"
	stroke="#000000" stroke-width="8px" stroke-linejoin="bevel"/>
<!-- Line -->
<!-- s4-&gt;s0 -->
<polyline points=" 3758,7835 3758,7834 3760,7831 3765,7822 3772,7808 3782,7790 3792,7769 3804,7747
 3814,7726 3824,7707 3833,7690 3841,7674 3849,7659 3856,7645 3863,7631 3869,7617
 3876,7603 3884,7588 3891,7572 3899,7556 3906,7540 3914,7523 3922,7505 3930,7488
 3937,7472 3944,7456 3951,7440 3958,7424 3965,7409 3970,7396 3976,7382 3982,7368
 3988,7354 3994,7339 4000,7323 4006,7307 4012,7291 4019,7275 4025,7259 4031,7243
 4036,7228 4042,7213 4047,7198 4052,7184 4057,7170 4062,7156 4067,7141 4072,7126
 4077,7111 4082,7095 4087,7079 4092,7062 4097,7045 4102,7028 4107,7011 4112,6995
 4116,6979 4120,6963 4124,6948 4128,6933 4132,6918 4135,6903 4139,6888 4143,6873
 4146,6857 4150,6841 4153,6824 4157,6807 4160,6789 4163,6772 4167,6755 4170,6738
 4172,6721 4175,6705 4177,6690 4180,6675 4182,6660 4183,6649 4184,6638 4186,6626
 4187,6614 4188,6601 4190,6587 4191,6572 4192,6556 4193,6538 4194,6519 4195,6498
 4196,6476 4197,6452 4198,6427 4199,6400 4200,6372 4200,6342 4201,6311 4201,6278
 4202,6243 4202,6207 4203,6168 4203,6143 4203,6118 4204,6091 4204,6063 4204,6033
 4204,6003 4204,5971 4204,5939 4205,5905 4205,5869 4205,5833 4205,5796 4205,5758
 4205,5718 4205,5679 4205,5638 4205,5597 4206,5555 4206,5513 4206,5471 4206,5428
 4206,5386 4206,5344 4206,5302 4206,5260 4206,5219 4206,5178 4206,5138 4206,5099
 4206,5060 4206,5021 4206,4984 4206,4947 4206,4911 4206,4875 4206,4840 4206,4800
 4206,4761 4206,4722 4206,4684 4206,4645 4206,4606 4206,4567 4206,4528 4206,4489
 4206,4450 4206,4411 4206,4372 4206,4333 4206,4294 4206,4256 4206,4218 4206,4180
 4206,4143 4206,4107 4206,4072 4206,4037 4206,4003 4206,3971 4206,3939 4206,3908
 4206,3878 4206,3848 4206,3820 4206,3793 4206,3766 4206,3740 4206,3714 4206,3683
 4206,3652 4206,3622 4206,3591 4206,3561 4206,3531 4206,3500 4206,3470 4206,3440
 4206,3410 4206,3381 4206,3352 4206,3323 4206,3295 4206,3268 4206,3241 4206,3215
 4206,3191 4206,3167 4206,3144 4206,3122 4206,3101 4206,3081 4206,3061 4206,3042
 4206,3024 4206,2999 4206,2974 4206,2949 4206,2925 4206,2901 4206,2878 4206,2855
 4206,2832 4206,2810 4206,2789 4206,2769 4206,2750 4206,2733 4206,2716 4206,2701
 4206,2687 4206,2674 4206,2661 4206,2644 4206,2627 4206,2612 4206,2597 4206,2582
 4206,2569 4206,2557 4206,2546 4206,2537 4206,2529 4206,2522 4206,2516 4206,2508
 4206,2501 4206,2494 4206,2487 4206,2478 4206,2469 4206,2458 4206,2445 4206,2435
 4206,2424 4206,2411 4206,2396 4206,2380 4206,2363 4206,2345 4206,2327 4206,2310
 4206,2293 4206,2276 4206,2260 4206,2244 4206,2228 4206,2212 4206,2195 4205,2178
 4205,2160 4205,2143 4204,2127 4203,2111 4203,2096 4202,2082 4201,2068 4200,2054
 4199,2040 4198,2026 4197,2011 4195,1996 4194,1981 4192,1966 4190,1952 4187,1937
 4185,1924 4183,1911 4181,1899 4178,1886 4175,1873 4172,1860 4168,1846 4165,1832
 4161,1818 4156,1804 4152,1790 4147,1776 4142,1763 4138,1751 4133,1739 4128,1726
 4123,1714 4117,1700 4110,1687 4103,1673 4096,1658 4088,1643 4081,1629 4073,1615
 4065,1601 4057,1588 4049,1575 4042,1564 4034,1553 4026,1541 4018,1528 4009,1516
 4000,1503 3990,1489 3980,1476 3971,1463 3961,1451 3951,1439 3942,1427 3933,1416
 3924,1405 3915,1395 3906,1384 3896,1373 3886,1362 3876,1351 3865,1339 3854,1328
 3843,1316 3832,1305 3822,1295 3811,1284 3801,1275 3791,1265 3781,1256 3771,1247
 3761,1238 3750,1229 3739,1219 3727,1209 3715,1199 3703,1189 3691,1179 3679,1170
 3667,1160 3655,1151 3644,1143 3633,1135 3622,1127 3611,1119 3600,1111 3588,1103
 3576,1094 3563,1086 3550,1077 3537,1068 3524,1060 3511,1051 3498,1043 3485,1035
 3473,1028 3461,1021 3450,1014 3438,1007 3426,1000 3413,993 3401,986 3387,978
 3374,971 3360,963 3346,956 3332,949 3319,942 3306,935 3293,929 3281,922 3269,917
 3257,911 3244,905 3232,899 3219,893 3205,886 3191,880 3177,874 3163,867 3149,861
 3135,855 3122,850 3110,844 3097,839 3085,834 3071,828 3057,823 3041,816 3024,809
 3004,802 2982,793 2960,785 2938,776 2920,770 2909,765 2904,763 2903,763"
	stroke="#000000" stroke-width="8px" stroke-linejoin="bevel"/>
<!-- Text -->
<text xml:space="preserve" x="3396" y="7388" fill="#000000" font-family="Times" font-style="normal" font-weight="normal" font-size="144" text-anchor="middle">clock</text>
<!-- Text -->
<text xml:space="preserve" x="4456" y="4478" fill="#000000" font-family="Times" font-style="normal" font-weight="normal" font-size="144" text-anchor="middle">clock</text>
</g>
</svg>
